<?xml version="1.0" encoding="utf-8"?><!-- Uploaded to: SVG Repo, www.svgrepo.com, Generator: SVG Repo Mixer Tools -->
<svg width="800px" height="800px" viewBox="0 0 64 64" xmlns="http://www.w3.org/2000/svg"><path d="m35.89 18a26.38 26.38 0 0 0 -8-1.65 55.56 55.56 0 0 0 -6.4 1.06c-.6 0-.78-1.31-.6-1.69s.14-.79-.4-.72a4.18 4.18 0 0 0 -1.72 1.72c-.25.56 1 1.88 2.31 2.69s4.16 1 4.35 1.09a6.23 6.23 0 0 1 .5 1.69c.09.41 1 .84 3.09 1.88s5 2.15 5.28 2a29.44 29.44 0 0 0 2.75-5.6c-.05-.47-.41-2.1-1.16-2.47zm-.68 2.16c-.1.78-1.28 4-1.72 3.84a41.78 41.78 0 0 1 -5.31-2.18c-.22-.32-.29-1.88-1.22-2.16s-2.88-.88-3.53-1.13-.5-.5-.35-.5 1.28-.12 1.28-.12a20.8 20.8 0 0 1 7.25.31c3.19.59 3.69 1.12 3.6 1.9zm19-.22c-2.29-4.25-5.29-6.72-10.69-9.31s-9.34-3.63-13.59-3.42a26.63 26.63 0 0 0 -11.25 3.53 23.64 23.64 0 0 0 -9.85 11.32c-1.28 3.59-2.72 7.56-1 15.22s6.5 13.18 13.25 16.9 14.6 2.82 20.1 1.44 9.21-4 11.43-7.88 2.6-9.4 3.85-14.93 0-8.66-2.28-12.91zm-6.6-4.69c.21-.07 2.94 1.07 4.81 4.63s2.47 7.94 2.25 8.34-.9.44-1.53.25-3.14-1.6-3.68-1.6-1.41.47-1.78 0-1.5-1.87-2.63-1.87-1.37.19-1.56-.06-.81-5.53.37-6.5 2.22-1.59 2.69-2 .75-1.13 1.03-1.23zm-27-3.9a22.85 22.85 0 0 1 7.69-2.6c4-.47 10.47 1.32 11.15 1.63s1.25.5 1 .69-2.53 2.18-3.34 2.31-3.62-.56-5.75-.47-3.56.5-4.59.5-2.5-1.13-3.5-1.22-3.19-.63-2.72-.88zm-11.12 15.18c1.37-5.69 4-8.72 4.22-8.69s5.4 3 7.5 4 2.22 1 2.37 1.44a10.13 10.13 0 0 1 -.19 3.34c-.18.09-3.93-.09-5 0s-1.39 1.59-1.31 2.19.13.87-.12 1.06-3.6 1.09-3.78 2 2.37 5.37 2 5.5-4.57-.16-5.57-1.19a17.66 17.66 0 0 1 -.12-9.65zm5.06 19.75c-3.19-4.13-4.12-7.69-4-7.88.19-.37 2.56.25 3.69.69s1.5 1 1.53 1.87-.13 4.66.65 5.35a10.71 10.71 0 0 1 3.07 3.28 7.26 7.26 0 0 1 1 2.19 20.15 20.15 0 0 1 -5.94-5.5zm14.53 8.25a32.57 32.57 0 0 1 -3.59-.91c-1.25-.47-2.35-.72-2.35-.81s-1.14-3.75-2.78-5.35a12.91 12.91 0 0 1 -2.36-2.65 31.09 31.09 0 0 1 -.35-3.72c0-.85-.37-2.88-.18-2.88a12.74 12.74 0 0 0 4.84.91c3.31.06 6.56-.31 6.91.09s.28 1.78-.44 3.1a21.38 21.38 0 0 0 -1.19 2.59 26.16 26.16 0 0 0 -3.16-2.5.59.59 0 0 0 -.34.69c.13.28 3 2.22 3.13 2.47a9.75 9.75 0 0 1 -.1 1.75 25.76 25.76 0 0 0 -3-2.38c-.37-.06-.62.85-.5 1s3.53 2.5 4 2.91a6.06 6.06 0 0 1 .84 2.53c-.09 0-3.9-3.09-4.12-3.13s-.28 1-.28 1 4.5 3.19 4.65 3.44a6.49 6.49 0 0 1 .37 1.85zm23.06-10.1a15.91 15.91 0 0 1 -5.53 7.06c-1.15.66-2.34.91-2.43.72a21.82 21.82 0 0 1 -2.29-5.93c-.68-3.22-.87-4.72-1.93-5s-3.69-.9-4.19-1.53a4 4 0 0 1 -.56-1.87s.28-3.88.28-4.72 0-2.16.22-2.16c.36 0 5.72-.4 6.78.63s1.94 2.15 2.84 2.12 9.19-.75 9.19-.43-.94 7.46-2.38 11.11zm2.63-13.19c-.16.1-5.44.72-6.69.79s-1 .34-1.69 0-1.78-1.63-3.39-1.88-6.53-.56-7.5-.56-1.25 0-1.35.47.1 5.18-.4 6.72-.16 4.06 1.65 4.78 3.69 1.09 3.94 1.75 1.13 5 1.91 6.47 1.87 3.15 1.5 3.46a20.31 20.31 0 0 1 -6 1.54 23.64 23.64 0 0 1 -5.78 0s-1.16-6-1.47-6.54a4.67 4.67 0 0 1 -.41-2.34c.13-.41 2.34-4.87 2.06-6s-.72-2.28-1.75-2.56-2.75 0-5.53 0a27.84 27.84 0 0 1 -5.34-.44c-.56-.12-.88 0-1.13-.28s-2.28-4-2-4.34 3.13-1.16 3.25-1.82-.06-2.25.66-2.31 3.87.38 4.87-.15 1.13-1.75 1.16-2.82-.37-3.4-.84-3.84-5-1.81-6.72-2.72-3.17-1.62-2.98-2.22a12.45 12.45 0 0 1 3.78-3.53 5.82 5.82 0 0 1 4.16.34c1.62.88 1.44 1.25 3.65 1.22s3.29-.4 3.94-.25 3.41 1.35 5.85.88a10.42 10.42 0 0 0 4.28-1.75c.72-.47 1.15-1.25 1.59-1.19s4.41 2.41 4.34 2.66a4.52 4.52 0 0 1 -1.71 1.5 7.43 7.43 0 0 0 -2.79 3.46c-.5 1.47-.78 5.88-.12 6.32s2.34-.19 3 .31.81 2.06 1.91 2.19 1.56-.69 2.56 0 1 1.21 2.56 1.25 3-.32 3.09 0a2.47 2.47 0 0 1 -.12 1.43zm-41.31-10.56c-.22-.06-.44.1-.94.85a19.09 19.09 0 0 0 -1.16 3.65c.13.22.69.22 1.07.16s.12-.06.4-1 1.35-3 1.41-3.16-.56-.44-.78-.5zm29.22-5.59c-.16-.22-2.53.36-2.69.5s.06.9.25 1a11.75 11.75 0 0 0 2.62-.94c.14-.12-.03-.34-.18-.56zm-4.79 8.4a6.24 6.24 0 0 0 1.54 2.22c.34.16.18-.12.34-.31s-1.16-2.31-1.31-2.47c0 0-.46.31-.57.56zm-.87.88c-.06 0-.47.47-.47.62a8.07 8.07 0 0 0 1.88 1.85c.34.09.28-.19.31-.38a12.18 12.18 0 0 0 -1.74-2.09zm14.81-3.5a7.18 7.18 0 0 0 -2.5-1.22s-.37.59-.28.69 2.38 1 2.63 1.12.18-.4.15-.59zm1.25 4.22c.41.06.1-.19.06-.53s-4-2.64-4-2.53-.43.68-.28.9a30.17 30.17 0 0 0 4.22 2.16zm.38 2.12c.4 0 .18-.28.12-.56a25.43 25.43 0 0 0 -4.84-2.65c-.13 0-.31.65-.22.81a40.58 40.58 0 0 0 4.94 2.4zm-3.78 8.32c-.16.06-.44.18-.5.34a22.37 22.37 0 0 0 3.12 2.72c.25.09.19 0 .28-.28a13.17 13.17 0 0 0 -2.9-2.78zm-1.57 1.9a4.75 4.75 0 0 0 -.34.63 41.72 41.72 0 0 0 3.44 3c.12 0 .22-.19.25-.44a28.41 28.41 0 0 0 -3.35-3.19zm-1 2a3.19 3.19 0 0 0 -.43.5 39.21 39.21 0 0 0 3.53 3.19c.31 0 .18-.12.25-.37a23.35 23.35 0 0 0 -3.35-3.29zm-.78 1.66a.84.84 0 0 0 -.65.5 43.92 43.92 0 0 0 3.84 3.09c.12.1.22-.06.22-.31a29.14 29.14 0 0 0 -3.41-3.25zm-.62 3c-.07 0-.41.37-.38.56a33.63 33.63 0 0 0 3.19 2.5c.09 0 .25-.12.25-.34a16 16 0 0 0 -3.06-2.69zm-.71 1.84c-.19 0-.41.38-.47.53a22.27 22.27 0 0 0 3.13 2.69c.25.09.15 0 .37-.28s-2.84-2.94-3.03-2.94zm-8.54-1.93c0-.29-1.19-.74-1.28-.6s-.41.38-.41.5a5 5 0 0 0 1.53.44c.16.03.13-.03.16-.34zm-3.19 4c.12.09 0 0 .69 0s1 .46 1.62.81a2 2 0 0 0 1.5.15c.25-.06.31-.21.41-.37a.37.37 0 0 0 -.16-.47c-.15-.09-.62.28-1.25.19s-1.31-.88-1.78-1.1a1.46 1.46 0 0 0 -1.16 0c-.25.28 0 .79.13.85zm-5.69-5.5c.19.06.31-.22.38-.44s-1.75-1.81-2-2c0 0-.5.38-.53.59a10.1 10.1 0 0 0 2.15 1.91zm-4.09-11.69a44.75 44.75 0 0 0 2.84 4.34c.13.13.25-.09.47-.31s-2.47-4.37-2.59-4.41a1.31 1.31 0 0 0 -.72.38zm1.75-.81a17.6 17.6 0 0 0 1.9 2.81c.29.19.16-.1.25-.28a12 12 0 0 0 -1.39-2.69c-.17-.19-.78.07-.76.16zm6.76-1.29c-.28 0-1.2.89-1.28 1a1.66 1.66 0 0 0 .53 1c.25.16 1.53-1.5 1.66-1.75s-.61-.25-.91-.25z" fill="#1d1d1b"/></svg>