<?xml version="1.0" encoding="UTF-8" standalone="no"?>
<!-- Created with Inkscape (http://www.inkscape.org/) -->

<svg
   width="800"
   height="512"
   viewBox="0 0 800 512"
   version="1.1"
   id="SVGRoot"
   xml:space="preserve"
   xmlns="http://www.w3.org/2000/svg"
   xmlns:svg="http://www.w3.org/2000/svg"><defs
     id="defs132" /><g
     id="layer1"><path
       style="opacity:1;fill:none;stroke:#000000;stroke-width:4;stroke-linecap:round;stroke-linejoin:bevel;stroke-dasharray:none"
       d="M 46.375282,274.68439 V 494.37244 H 753.89569 V 274.68439 H 615.48583 L 468.42019,121.21814 c 0,0 6.05963,-41.784713 -13.08021,-69.67877 -19.49861,-28.416937 -53.88094,-27.646804 -53.88094,-27.646804 0,0 -27.89329,-0.96406 -50.90818,21.998532 -24.91628,24.859656 -18.92374,74.065982 -18.92374,74.065982 L 180.77794,273.84356 Z"
       id="path440" /><path
       id="rect435-7"
       style="fill:#b3b3b3;fill-opacity:1;stroke-width:24.6612;stroke-linecap:round;stroke-linejoin:bevel"
       d="m 360.34195,135.32483 -122.9707,122.97068 c -15.3168,15.3168 -15.3168,39.9801 0,55.2969 l 30.1953,30.1953 h 9.7363 l -34.4277,-34.4277 c -12.9197,-12.9197 -12.9197,-33.721 0,-46.6406 l 123.1445,-123.14458 a 62.649784,62.649784 0 0 1 -5.6777,-4.25 z m 77.1719,1.60351 a 62.649784,62.649784 0 0 1 -5.8203,3.91797 l 125.4316,125.4297 c 12.9197,12.9197 12.9197,33.721 0,46.6406 l -30.8711,30.8711 h 9.9277 l 26.4473,-26.4473 c 15.3169,-15.3168 15.3169,-39.98 0,-55.2968 z m -96.6036,280.20317 33.3164,33.3164 c 15.3169,15.3168 39.9782,15.3168 55.295,0 l 33.3164,-33.3164 h -9.9277 l -27.8106,27.8105 c -12.9197,12.9197 -33.7209,12.9197 -46.6406,0 l -27.8106,-27.8105 z" /><path
       id="path876-0"
       style="fill:#808080;fill-opacity:1;stroke-width:34.3873;stroke-linecap:round;stroke-linejoin:bevel"
       d="m 384.67785,66.16988 a 15.844966,15.844966 0 0 0 -15.8457,15.8457 15.844966,15.844966 0 0 0 15.8457,15.8457 15.844966,15.844966 0 0 0 15.8438,-15.8457 15.844966,15.844966 0 0 0 -15.8438,-15.8457 z m 0,5.4668 a 10.379586,10.379586 0 0 1 10.3789,10.3789 10.379586,10.379586 0 0 1 -10.3789,10.37891 10.379586,10.379586 0 0 1 -10.3789,-10.37891 10.379586,10.379586 0 0 1 10.3789,-10.3789 z" /><path
       id="rect953-3-0"
       style="fill:#808080;fill-opacity:1;stroke-width:26.4252;stroke-linecap:round;stroke-linejoin:bevel"
       d="m 388.41225,141.92142 v 133.27699 c 0,2.08 1.4229,3.7558 3.1914,3.7558 h 16.793 c 1.7685,0 3.1914,-1.6758 3.1914,-3.7558 V 142.04547 a 48.753502,57.340417 0 0 1 -7.2891,1.41502 v 124.82822 c 0,1.1701 -0.8,2.1111 -1.7949,2.1111 h -5.0078 c -0.9949,0 -1.7949,-0.941 -1.7949,-2.1111 V 143.33417 a 48.753502,57.340417 0 0 1 -7.2891,-1.41275 z" /><path
       id="path1781-9"
       style="fill:#808080;fill-opacity:1;stroke-width:20.109;stroke-linecap:round;stroke-linejoin:bevel"
       d="m 418.57045,257.02731 v 7.0371 a 26.692411,14.323041 0 0 1 8.1231,10.2852 26.692411,14.323041 0 0 1 -26.6934,14.3222 26.692411,14.323041 0 0 1 -26.6934,-14.3222 26.692411,14.323041 0 0 1 8.1231,-10.2539 v -7.0372 a 33.874275,20.714506 0 0 0 -15.3047,17.2911 33.874275,20.714506 0 0 0 33.875,20.7148 33.874275,20.714506 0 0 0 33.875,-20.7148 33.874275,20.714506 0 0 0 -15.3047,-17.3223 z" /><text
       xml:space="preserve"
       style="font-size:57.3077px;font-family:Consolas;-inkscape-font-specification:'Consolas, Normal';fill:#4d4d4d;fill-opacity:1;stroke-width:42.9807;stroke-linecap:round;stroke-linejoin:bevel"
       x="77.916603"
       y="409.98502"
       id="text295-17"><tspan
         id="tspan293-3"
         x="77.916603"
         y="409.98502"
         style="font-style:normal;font-variant:normal;font-weight:normal;font-stretch:normal;font-size:122.256px;font-family:Pacifico;-inkscape-font-specification:'Pacifico, Normal';font-variant-ligatures:normal;font-variant-caps:normal;font-variant-numeric:normal;font-variant-east-asian:normal;fill:#4d4d4d;fill-opacity:1;stroke-width:42.9807">Makerspace</tspan></text><path
       id="path723-38"
       style="fill:#808080;fill-opacity:1;stroke-width:23.6538;stroke-linecap:round;stroke-linejoin:bevel"
       d="m 400.00015,46.14449 a 48.753502,48.753502 0 0 0 -48.7539,48.75195 48.753502,48.753502 0 0 0 48.7539,48.75391 48.753502,48.753502 0 0 0 48.7539,-48.75391 48.753502,48.753502 0 0 0 -48.7539,-48.75195 z m 0,6.51563 a 42.237087,42.237087 0 0 1 42.2363,42.23632 42.237087,42.237087 0 0 1 -42.2363,42.23828 42.237087,42.237087 0 0 1 -42.2364,-42.23828 42.237087,42.237087 0 0 1 42.2364,-42.23632 z" /></g></svg>
