  0
SECTION
  2
HEADER
  9
$ACADVER
  1
AC1014
  9
$HANDSEED
  5
FFFF
  9
$INSUNITS
 70
     0
  9
$MEASUREMENT
 70
     1
  0
ENDSEC
  0
SECTION
  2
TABLES
  0
TABLE
  2
VPORT
  5
8
330
0
100
AcDbSymbolTable
 70
     4
  0
VPORT
  5
2E
330
8
100
AcDbSymbolTableRecord
100
AcDbViewportTableRecord
  2
*ACTIVE
 70
     0
 10
0.0
 20
0.0
 11
1.0
 21
1.0
 12
210.0
 22
148.5
 13
0.0
 23
0.0
 14
10.0
 24
10.0
 15
10.0
 25
10.0
 16
0.0
 26
0.0
 36
1.0
 17
0.0
 27
0.0
 37
0.0
 40
341.0
 41
1.24
 42
50.0
 43
0.0
 44
0.0
 50
0.0
 51
0.0
 71
     0
 72
   100
 73
     1
 74
     3
 75
     0
 76
     0
 77
     0
 78
     0
  0
ENDTAB
  0
TABLE
  2
LTYPE
  5
5
330
0
100
AcDbSymbolTable
 70
     1
  0
LTYPE
  5
14
330
5
100
AcDbSymbolTableRecord
100
AcDbLinetypeTableRecord
  2
BYBLOCK
 70
     0
  3

 72
    65
 73
     0
 40
0.0
  0
LTYPE
  5
15
330
5
100
AcDbSymbolTableRecord
100
AcDbLinetypeTableRecord
  2
BYLAYER
 70
     0
  3

 72
    65
 73
     0
 40
0.0
  0
LTYPE
  5
16
330
5
100
AcDbSymbolTableRecord
100
AcDbLinetypeTableRecord
  2
CONTINUOUS
 70
     0
  3
Solid line
 72
    65
 73
     0
 40
0.0
  0
ENDTAB
  0
TABLE
  2
LAYER
  5
2
100
AcDbSymbolTable
 70
2
  0
LAYER
  5
50
100
AcDbSymbolTableRecord
100
AcDbLayerTableRecord
  2
0
 70
0
  6
CONTINUOUS
  0
LAYER
  5
51
100
AcDbSymbolTableRecord
100
AcDbLayerTableRecord
  2
Ebene_1
 70
0
  6
CONTINUOUS
  0
ENDTAB
  0
TABLE
  2
STYLE
  5
3
330
0
100
AcDbSymbolTable
 70
     1
  0
STYLE
  5
11
330
3
100
AcDbSymbolTableRecord
100
AcDbTextStyleTableRecord
  2
STANDARD
 70
     0
 40
0.0
 41
1.0
 50
0.0
 71
     0
 42
2.5
  3
txt
  4

  0
ENDTAB
  0
TABLE
  2
VIEW
  5
6
330
0
100
AcDbSymbolTable
 70
     0
  0
ENDTAB
  0
TABLE
  2
UCS
  5
7
330
0
100
AcDbSymbolTable
 70
     0
  0
ENDTAB
  0
TABLE
  2
APPID
  5
9
330
0
100
AcDbSymbolTable
 70
     2
  0
APPID
  5
12
330
9
100
AcDbSymbolTableRecord
100
AcDbRegAppTableRecord
  2
ACAD
 70
     0
  0
ENDTAB
  0
TABLE
  2
DIMSTYLE
  5
A
330
0
100
AcDbSymbolTable
 70
     1
  0
DIMSTYLE
105
27
330
A
100
AcDbSymbolTableRecord
100
AcDbDimStyleTableRecord
  2
ISO-25
 70
     0
  3

  4

  5

  6

  7

 40
1.0
 41
2.5
 42
0.625
 43
3.75
 44
1.25
 45
0.0
 46
0.0
 47
0.0
 48
0.0
140
2.5
141
2.5
142
0.0
143
0.03937007874016
144
1.0
145
0.0
146
1.0
147
0.625
 71
     0
 72
     0
 73
     0
 74
     0
 75
     0
 76
     0
 77
     1
 78
     8
170
     0
171
     3
172
     1
173
     0
174
     0
175
     0
176
     0
177
     0
178
     0
270
     2
271
     2
272
     2
273
     2
274
     3
340
11
275
     0
280
     0
281
     0
282
     0
283
     0
284
     8
285
     0
286
     0
287
     3
288
     0
  0
ENDTAB
  0
TABLE
  2
BLOCK_RECORD
  5
1
330
0
100
AcDbSymbolTable
 70
     1
  0
BLOCK_RECORD
  5
1F
330
1
100
AcDbSymbolTableRecord
100
AcDbBlockTableRecord
  2
*MODEL_SPACE
  0
BLOCK_RECORD
  5
1B
330
1
100
AcDbSymbolTableRecord
100
AcDbBlockTableRecord
  2
*PAPER_SPACE
  0
ENDTAB
  0
ENDSEC
  0
SECTION
  2
BLOCKS
  0
BLOCK
  5
20
330
1F
100
AcDbEntity
  8
0
100
AcDbBlockBegin
  2
*MODEL_SPACE
 70
     0
 10
0.0
 20
0.0
 30
0.0
  3
*MODEL_SPACE
  1

  0
ENDBLK
  5
21
330
1F
100
AcDbEntity
  8
0
100
AcDbBlockEnd
  0
BLOCK
  5
1C
330
1B
100
AcDbEntity
 67
     1
  8
0
100
AcDbBlockBegin
  2
*PAPER_SPACE
  1

  0
ENDBLK
  5
1D
330
1B
100
AcDbEntity
 67
     1
  8
0
100
AcDbBlockEnd
  0
ENDSEC
  0
SECTION
  2
ENTITIES
  0
SPLINE
  5
100
100
AcDbEntity
  8
Ebene_1
 62
7
100
AcDbSpline
 70
8
 71
3
 72
8
 73
4
 74
0
 40
0
 40
0
 40
0
 40
0
 40
1
 40
1
 40
1
 40
1
 10
256.000000
 20
512.000000
 30
0.0
 10
188.104579
 20
512.000000
 30
0.0
 10
122.989977
 20
485.028649
 30
0.0
 10
74.980664
 20
437.019336
 30
0.0
  0
SPLINE
  5
101
100
AcDbEntity
  8
Ebene_1
 62
7
100
AcDbSpline
 70
8
 71
3
 72
8
 73
4
 74
0
 40
0
 40
0
 40
0
 40
0
 40
1
 40
1
 40
1
 40
1
 10
74.980664
 20
437.019336
 30
0.0
 10
26.971351
 20
389.010023
 30
0.0
 10
0.000000
 20
323.895421
 30
0.0
 10
0.000000
 20
256.000000
 30
0.0
  0
SPLINE
  5
102
100
AcDbEntity
  8
Ebene_1
 62
7
100
AcDbSpline
 70
8
 71
3
 72
8
 73
4
 74
0
 40
0
 40
0
 40
0
 40
0
 40
1
 40
1
 40
1
 40
1
 10
0.000000
 20
256.000000
 30
0.0
 10
-0.000000
 20
188.104579
 30
0.0
 10
26.971351
 20
122.989977
 30
0.0
 10
74.980664
 20
74.980664
 30
0.0
  0
SPLINE
  5
103
100
AcDbEntity
  8
Ebene_1
 62
7
100
AcDbSpline
 70
8
 71
3
 72
8
 73
4
 74
0
 40
0
 40
0
 40
0
 40
0
 40
1
 40
1
 40
1
 40
1
 10
74.980664
 20
74.980664
 30
0.0
 10
122.989977
 20
26.971351
 30
0.0
 10
188.104579
 20
0.000000
 30
0.0
 10
256.000000
 20
0.000000
 30
0.0
  0
SPLINE
  5
104
100
AcDbEntity
  8
Ebene_1
 62
7
100
AcDbSpline
 70
8
 71
3
 72
8
 73
4
 74
0
 40
0
 40
0
 40
0
 40
0
 40
1
 40
1
 40
1
 40
1
 10
256.000000
 20
0.000000
 30
0.0
 10
323.895421
 20
0.000000
 30
0.0
 10
389.010023
 20
26.971351
 30
0.0
 10
437.019336
 20
74.980664
 30
0.0
  0
SPLINE
  5
105
100
AcDbEntity
  8
Ebene_1
 62
7
100
AcDbSpline
 70
8
 71
3
 72
8
 73
4
 74
0
 40
0
 40
0
 40
0
 40
0
 40
1
 40
1
 40
1
 40
1
 10
437.019336
 20
74.980664
 30
0.0
 10
485.028649
 20
122.989977
 30
0.0
 10
512.000000
 20
188.104579
 30
0.0
 10
512.000000
 20
256.000000
 30
0.0
  0
SPLINE
  5
106
100
AcDbEntity
  8
Ebene_1
 62
7
100
AcDbSpline
 70
8
 71
3
 72
8
 73
4
 74
0
 40
0
 40
0
 40
0
 40
0
 40
1
 40
1
 40
1
 40
1
 10
512.000000
 20
256.000000
 30
0.0
 10
512.000000
 20
323.895421
 30
0.0
 10
485.028649
 20
389.010023
 30
0.0
 10
437.019336
 20
437.019336
 30
0.0
  0
SPLINE
  5
107
100
AcDbEntity
  8
Ebene_1
 62
7
100
AcDbSpline
 70
8
 71
3
 72
8
 73
4
 74
0
 40
0
 40
0
 40
0
 40
0
 40
1
 40
1
 40
1
 40
1
 10
437.019336
 20
437.019336
 30
0.0
 10
389.010023
 20
485.028649
 30
0.0
 10
323.895421
 20
512.000000
 30
0.0
 10
256.000000
 20
512.000000
 30
0.0
  0
SPLINE
  5
108
100
AcDbEntity
  8
Ebene_1
 62
7
100
AcDbSpline
 70
8
 71
3
 72
8
 73
4
 74
0
 40
0
 40
0
 40
0
 40
0
 40
1
 40
1
 40
1
 40
1
 10
256.000000
 20
501.167969
 30
0.0
 10
321.022628
 20
501.168099
 30
0.0
 10
383.382136
 20
475.338018
 30
0.0
 10
429.360077
 20
429.360077
 30
0.0
  0
SPLINE
  5
109
100
AcDbEntity
  8
Ebene_1
 62
7
100
AcDbSpline
 70
8
 71
3
 72
8
 73
4
 74
0
 40
0
 40
0
 40
0
 40
0
 40
1
 40
1
 40
1
 40
1
 10
429.360077
 20
429.360077
 30
0.0
 10
475.338019
 20
383.382136
 30
0.0
 10
501.168100
 20
321.022628
 30
0.0
 10
501.167970
 20
256.000000
 30
0.0
  0
SPLINE
  5
10a
100
AcDbEntity
  8
Ebene_1
 62
7
100
AcDbSpline
 70
8
 71
3
 72
8
 73
4
 74
0
 40
0
 40
0
 40
0
 40
0
 40
1
 40
1
 40
1
 40
1
 10
501.167970
 20
256.000000
 30
0.0
 10
501.168100
 20
190.977372
 30
0.0
 10
475.338019
 20
128.617864
 30
0.0
 10
429.360078
 20
82.639922
 30
0.0
  0
SPLINE
  5
10b
100
AcDbEntity
  8
Ebene_1
 62
7
100
AcDbSpline
 70
8
 71
3
 72
8
 73
4
 74
0
 40
0
 40
0
 40
0
 40
0
 40
1
 40
1
 40
1
 40
1
 10
429.360078
 20
82.639922
 30
0.0
 10
383.382136
 20
36.661981
 30
0.0
 10
321.022628
 20
10.831900
 30
0.0
 10
256.000000
 20
10.832030
 30
0.0
  0
SPLINE
  5
10c
100
AcDbEntity
  8
Ebene_1
 62
7
100
AcDbSpline
 70
8
 71
3
 72
8
 73
4
 74
0
 40
0
 40
0
 40
0
 40
0
 40
1
 40
1
 40
1
 40
1
 10
256.000000
 20
10.832030
 30
0.0
 10
190.977372
 20
10.831900
 30
0.0
 10
128.617864
 20
36.661981
 30
0.0
 10
82.639923
 20
82.639923
 30
0.0
  0
SPLINE
  5
10d
100
AcDbEntity
  8
Ebene_1
 62
7
100
AcDbSpline
 70
8
 71
3
 72
8
 73
4
 74
0
 40
0
 40
0
 40
0
 40
0
 40
1
 40
1
 40
1
 40
1
 10
82.639923
 20
82.639923
 30
0.0
 10
36.661982
 20
128.617864
 30
0.0
 10
10.831901
 20
190.977372
 30
0.0
 10
10.832031
 20
256.000000
 30
0.0
  0
SPLINE
  5
10e
100
AcDbEntity
  8
Ebene_1
 62
7
100
AcDbSpline
 70
8
 71
3
 72
8
 73
4
 74
0
 40
0
 40
0
 40
0
 40
0
 40
1
 40
1
 40
1
 40
1
 10
10.832031
 20
256.000000
 30
0.0
 10
10.831901
 20
321.022628
 30
0.0
 10
36.661982
 20
383.382136
 30
0.0
 10
82.639923
 20
429.360077
 30
0.0
  0
SPLINE
  5
10f
100
AcDbEntity
  8
Ebene_1
 62
7
100
AcDbSpline
 70
8
 71
3
 72
8
 73
4
 74
0
 40
0
 40
0
 40
0
 40
0
 40
1
 40
1
 40
1
 40
1
 10
82.639923
 20
429.360077
 30
0.0
 10
128.617864
 20
475.338018
 30
0.0
 10
190.977372
 20
501.168099
 30
0.0
 10
256.000000
 20
501.167969
 30
0.0
  0
LWPOLYLINE
  5
110
100
AcDbEntity
  8
Ebene_1
 62
7
100
AcDbPolyline
 90
1
 70
1
 10
256.000000
 20
512.000000
 30
0.0
  0
LWPOLYLINE
  5
111
100
AcDbEntity
  8
Ebene_1
 62
7
100
AcDbPolyline
 90
1
 70
1
 10
256.000000
 20
501.167969
 30
0.0
  0
SPLINE
  5
112
100
AcDbEntity
  8
Ebene_1
 62
7
100
AcDbSpline
 70
8
 71
3
 72
8
 73
4
 74
0
 40
0
 40
0
 40
0
 40
0
 40
1
 40
1
 40
1
 40
1
 10
262.431640
 20
443.650391
 30
0.0
 10
280.211669
 20
443.118093
 30
0.0
 10
297.826422
 20
440.067552
 30
0.0
 10
314.750000
 20
434.589844
 30
0.0
  0
SPLINE
  5
113
100
AcDbEntity
  8
Ebene_1
 62
7
100
AcDbSpline
 70
8
 71
3
 72
8
 73
4
 74
0
 40
0
 40
0
 40
0
 40
0
 40
1
 40
1
 40
1
 40
1
 10
314.750000
 20
434.589844
 30
0.0
 10
315.364230
 20
434.917320
 30
0.0
 10
316.061130
 20
435.097656
 30
0.0
 10
316.861330
 20
435.097656
 30
0.0
  0
SPLINE
  5
114
100
AcDbEntity
  8
Ebene_1
 62
7
100
AcDbSpline
 70
8
 71
3
 72
8
 73
4
 74
0
 40
0
 40
0
 40
0
 40
0
 40
1
 40
1
 40
1
 40
1
 10
316.861330
 20
435.097656
 30
0.0
 10
326.703280
 20
435.097656
 30
0.0
 10
341.548540
 20
435.507963
 30
0.0
 10
361.396480
 20
436.328125
 30
0.0
  0
SPLINE
  5
115
100
AcDbEntity
  8
Ebene_1
 62
7
100
AcDbSpline
 70
8
 71
3
 72
8
 73
4
 74
0
 40
0
 40
0
 40
0
 40
0
 40
1
 40
1
 40
1
 40
1
 10
361.396480
 20
436.328125
 30
0.0
 10
364.154230
 20
436.442081
 30
0.0
 10
366.062420
 20
436.485919
 30
0.0
 10
368.626950
 20
436.583984
 30
0.0
  0
SPLINE
  5
116
100
AcDbEntity
  8
Ebene_1
 62
7
100
AcDbSpline
 70
8
 71
3
 72
8
 73
4
 74
0
 40
0
 40
0
 40
0
 40
0
 40
1
 40
1
 40
1
 40
1
 10
368.626950
 20
436.583984
 30
0.0
 10
336.671833
 20
456.428680
 30
0.0
 10
300.031511
 20
467.457436
 30
0.0
 10
262.431640
 20
468.548828
 30
0.0
  0
LWPOLYLINE
  5
117
100
AcDbEntity
  8
Ebene_1
 62
7
100
AcDbPolyline
 90
2
 70
0
 10
262.431640
 20
468.548828
 30
0.0
 10
262.431640
 20
443.650391
 30
0.0
  0
SPLINE
  5
118
100
AcDbEntity
  8
Ebene_1
 62
7
100
AcDbSpline
 70
8
 71
3
 72
8
 73
4
 74
0
 40
0
 40
0
 40
0
 40
0
 40
1
 40
1
 40
1
 40
1
 10
249.568360
 20
468.546828
 30
0.0
 10
211.398602
 20
467.470836
 30
0.0
 10
174.219872
 20
456.154121
 30
0.0
 10
141.923830
 20
435.781250
 30
0.0
  0
SPLINE
  5
119
100
AcDbEntity
  8
Ebene_1
 62
7
100
AcDbSpline
 70
8
 71
3
 72
8
 73
4
 74
0
 40
0
 40
0
 40
0
 40
0
 40
1
 40
1
 40
1
 40
1
 10
141.923830
 20
435.781250
 30
0.0
 10
143.573690
 20
435.922952
 30
0.0
 10
144.948980
 20
435.982928
 30
0.0
 10
146.666020
 20
436.144531
 30
0.0
  0
SPLINE
  5
11a
100
AcDbEntity
  8
Ebene_1
 62
7
100
AcDbSpline
 70
8
 71
3
 72
8
 73
4
 74
0
 40
0
 40
0
 40
0
 40
0
 40
1
 40
1
 40
1
 40
1
 10
146.666020
 20
436.144531
 30
0.0
 10
149.946620
 20
436.472598
 30
0.0
 10
156.425610
 20
437.537442
 30
0.0
 10
166.103520
 20
439.341797
 30
0.0
  0
SPLINE
  5
11b
100
AcDbEntity
  8
Ebene_1
 62
7
100
AcDbSpline
 70
8
 71
3
 72
8
 73
4
 74
0
 40
0
 40
0
 40
0
 40
0
 40
1
 40
1
 40
1
 40
1
 10
166.103520
 20
439.341797
 30
0.0
 10
174.305120
 20
440.818085
 30
0.0
 10
180.784050
 20
441.556641
 30
0.0
 10
185.541020
 20
441.556641
 30
0.0
  0
SPLINE
  5
11c
100
AcDbEntity
  8
Ebene_1
 62
7
100
AcDbSpline
 70
8
 71
3
 72
8
 73
4
 74
0
 40
0
 40
0
 40
0
 40
0
 40
1
 40
1
 40
1
 40
1
 10
185.541020
 20
441.556641
 30
0.0
 10
187.443630
 20
441.556641
 30
0.0
 10
190.364690
 20
438.890543
 30
0.0
 10
194.259770
 20
433.679688
 30
0.0
  0
SPLINE
  5
11d
100
AcDbEntity
  8
Ebene_1
 62
7
100
AcDbSpline
 70
8
 71
3
 72
8
 73
4
 74
0
 40
0
 40
0
 40
0
 40
0
 40
1
 40
1
 40
1
 40
1
 10
194.259770
 20
433.679688
 30
0.0
 10
212.093767
 20
439.747684
 30
0.0
 10
230.737807
 20
443.103453
 30
0.0
 10
249.568360
 20
443.634766
 30
0.0
  0
LWPOLYLINE
  5
11e
100
AcDbEntity
  8
Ebene_1
 62
7
100
AcDbPolyline
 90
1
 70
1
 10
262.431640
 20
468.548828
 30
0.0
  0
SPLINE
  5
11f
100
AcDbEntity
  8
Ebene_1
 62
7
100
AcDbSpline
 70
8
 71
3
 72
8
 73
4
 74
0
 40
0
 40
0
 40
0
 40
0
 40
1
 40
1
 40
1
 40
1
 10
175.541020
 20
431.556594
 30
0.0
 10
170.784050
 20
431.556594
 30
0.0
 10
164.305170
 20
430.818048
 30
0.0
 10
156.103520
 20
429.341750
 30
0.0
  0
SPLINE
  5
120
100
AcDbEntity
  8
Ebene_1
 62
7
100
AcDbSpline
 70
8
 71
3
 72
8
 73
4
 74
0
 40
0
 40
0
 40
0
 40
0
 40
1
 40
1
 40
1
 40
1
 10
156.103520
 20
429.341750
 30
0.0
 10
146.425560
 20
427.537385
 30
0.0
 10
139.946670
 20
426.472551
 30
0.0
 10
136.666020
 20
426.144484
 30
0.0
  0
SPLINE
  5
121
100
AcDbEntity
  8
Ebene_1
 62
7
100
AcDbSpline
 70
8
 71
3
 72
8
 73
4
 74
0
 40
0
 40
0
 40
0
 40
0
 40
1
 40
1
 40
1
 40
1
 10
136.666020
 20
426.144484
 30
0.0
 10
122.723190
 20
424.832219
 30
0.0
 10
110.994390
 20
424.175734
 30
0.0
 10
101.480470
 20
424.175734
 30
0.0
  0
SPLINE
  5
122
100
AcDbEntity
  8
Ebene_1
 62
7
100
AcDbSpline
 70
8
 71
3
 72
8
 73
4
 74
0
 40
0
 40
0
 40
0
 40
0
 40
1
 40
1
 40
1
 40
1
 10
101.480470
 20
424.175734
 30
0.0
 10
95.083172
 20
424.175734
 30
0.0
 10
91.884766
 20
422.370402
 30
0.0
 10
91.884766
 20
418.761672
 30
0.0
  0
SPLINE
  5
123
100
AcDbEntity
  8
Ebene_1
 62
7
100
AcDbSpline
 70
8
 71
3
 72
8
 73
4
 74
0
 40
0
 40
0
 40
0
 40
0
 40
1
 40
1
 40
1
 40
1
 10
91.884766
 20
418.761672
 30
0.0
 10
91.884766
 20
400.061880
 30
0.0
 10
92.623311
 20
371.930740
 30
0.0
 10
94.099609
 20
334.367140
 30
0.0
  0
SPLINE
  5
124
100
AcDbEntity
  8
Ebene_1
 62
7
100
AcDbSpline
 70
8
 71
3
 72
8
 73
4
 74
0
 40
0
 40
0
 40
0
 40
0
 40
1
 40
1
 40
1
 40
1
 10
94.099609
 20
334.367140
 30
0.0
 10
95.739942
 20
296.803540
 30
0.0
 10
96.558594
 20
268.590330
 30
0.0
 10
96.558594
 20
249.726510
 30
0.0
  0
SPLINE
  5
125
100
AcDbEntity
  8
Ebene_1
 62
7
100
AcDbSpline
 70
8
 71
3
 72
8
 73
4
 74
0
 40
0
 40
0
 40
0
 40
0
 40
1
 40
1
 40
1
 40
1
 10
96.558594
 20
249.726510
 30
0.0
 10
96.558594
 20
231.846900
 30
0.0
 10
95.657881
 20
205.026760
 30
0.0
 10
93.853516
 20
169.267530
 30
0.0
  0
SPLINE
  5
126
100
AcDbEntity
  8
Ebene_1
 62
7
100
AcDbSpline
 70
8
 71
3
 72
8
 73
4
 74
0
 40
0
 40
0
 40
0
 40
0
 40
1
 40
1
 40
1
 40
1
 10
93.853516
 20
169.267530
 30
0.0
 10
92.213183
 20
133.508280
 30
0.0
 10
91.392578
 20
106.770220
 30
0.0
 10
91.392578
 20
89.054640
 30
0.0
  0
SPLINE
  5
127
100
AcDbEntity
  8
Ebene_1
 62
7
100
AcDbSpline
 70
8
 71
3
 72
8
 73
4
 74
0
 40
0
 40
0
 40
0
 40
0
 40
1
 40
1
 40
1
 40
1
 10
91.392578
 20
89.054640
 30
0.0
 10
91.392578
 20
83.969600
 30
0.0
 10
93.770381
 20
81.427680
 30
0.0
 10
98.527344
 20
81.427680
 30
0.0
  0
LWPOLYLINE
  5
128
100
AcDbEntity
  8
Ebene_1
 62
7
100
AcDbPolyline
 90
2
 70
0
 10
249.568360
 20
443.634766
 30
0.0
 10
249.568360
 20
468.546828
 30
0.0
  0
SPLINE
  5
129
100
AcDbEntity
  8
Ebene_1
 62
7
100
AcDbSpline
 70
8
 71
3
 72
8
 73
4
 74
0
 40
0
 40
0
 40
0
 40
0
 40
1
 40
1
 40
1
 40
1
 10
183.662110
 20
81.427680
 30
0.0
 10
188.091000
 20
81.427680
 30
0.0
 10
190.304690
 20
84.297850
 30
0.0
 10
190.304690
 20
90.039010
 30
0.0
  0
SPLINE
  5
12a
100
AcDbEntity
  8
Ebene_1
 62
7
100
AcDbSpline
 70
8
 71
3
 72
8
 73
4
 74
0
 40
0
 40
0
 40
0
 40
0
 40
1
 40
1
 40
1
 40
1
 10
190.304690
 20
90.039010
 30
0.0
 10
190.304690
 20
109.066860
 30
0.0
 10
189.730260
 20
137.608310
 30
0.0
 10
188.582030
 20
175.664010
 30
0.0
  0
SPLINE
  5
12b
100
AcDbEntity
  8
Ebene_1
 62
7
100
AcDbSpline
 70
8
 71
3
 72
8
 73
4
 74
0
 40
0
 40
0
 40
0
 40
0
 40
1
 40
1
 40
1
 40
1
 10
188.582030
 20
175.664010
 30
0.0
 10
187.597830
 20
213.719710
 30
0.0
 10
187.105470
 20
242.263100
 30
0.0
 10
187.105470
 20
261.290970
 30
0.0
  0
SPLINE
  5
12c
100
AcDbEntity
  8
Ebene_1
 62
7
100
AcDbSpline
 70
8
 71
3
 72
8
 73
4
 74
0
 40
0
 40
0
 40
0
 40
0
 40
1
 40
1
 40
1
 40
1
 10
187.105470
 20
261.290970
 30
0.0
 10
187.105470
 20
263.751460
 30
0.0
 10
187.761950
 20
265.554850
 30
0.0
 10
189.074220
 20
266.703070
 30
0.0
  0
SPLINE
  5
12d
100
AcDbEntity
  8
Ebene_1
 62
7
100
AcDbSpline
 70
8
 71
3
 72
8
 73
4
 74
0
 40
0
 40
0
 40
0
 40
0
 40
1
 40
1
 40
1
 40
1
 10
189.074220
 20
266.703070
 30
0.0
 10
190.878590
 20
265.718880
 30
0.0
 10
192.109500
 20
264.734150
 30
0.0
 10
192.765620
 20
263.749950
 30
0.0
  0
SPLINE
  5
12e
100
AcDbEntity
  8
Ebene_1
 62
7
100
AcDbSpline
 70
8
 71
3
 72
8
 73
4
 74
0
 40
0
 40
0
 40
0
 40
0
 40
1
 40
1
 40
1
 40
1
 10
192.765620
 20
263.749950
 30
0.0
 10
215.894310
 20
234.059940
 30
0.0
 10
233.117250
 20
211.587070
 30
0.0
 10
244.435550
 20
196.331980
 30
0.0
  0
SPLINE
  5
12f
100
AcDbEntity
  8
Ebene_1
 62
7
100
AcDbSpline
 70
8
 71
3
 72
8
 73
4
 74
0
 40
0
 40
0
 40
0
 40
0
 40
1
 40
1
 40
1
 40
1
 10
244.435550
 20
196.331980
 30
0.0
 10
285.771920
 20
141.708930
 30
0.0
 10
312.345860
 20
106.442420
 30
0.0
 10
324.156250
 20
90.531200
 30
0.0
  0
SPLINE
  5
130
100
AcDbEntity
  8
Ebene_1
 62
7
100
AcDbSpline
 70
8
 71
3
 72
8
 73
4
 74
0
 40
0
 40
0
 40
0
 40
0
 40
1
 40
1
 40
1
 40
1
 10
324.156250
 20
90.531200
 30
0.0
 10
328.257080
 20
85.118110
 30
0.0
 10
331.783730
 20
82.412060
 30
0.0
 10
334.736330
 20
82.412060
 30
0.0
  0
SPLINE
  5
131
100
AcDbEntity
  8
Ebene_1
 62
7
100
AcDbSpline
 70
8
 71
3
 72
8
 73
4
 74
0
 40
0
 40
0
 40
0
 40
0
 40
1
 40
1
 40
1
 40
1
 10
334.736330
 20
82.412060
 30
0.0
 10
339.001190
 20
82.412060
 30
0.0
 10
345.398010
 20
82.083820
 30
0.0
 10
353.927730
 20
81.427680
 30
0.0
  0
SPLINE
  5
132
100
AcDbEntity
  8
Ebene_1
 62
7
100
AcDbSpline
 70
8
 71
3
 72
8
 73
4
 74
0
 40
0
 40
0
 40
0
 40
0
 40
1
 40
1
 40
1
 40
1
 10
353.927730
 20
81.427680
 30
0.0
 10
362.457470
 20
80.771560
 30
0.0
 10
368.854270
 20
80.443310
 30
0.0
 10
373.119140
 20
80.443310
 30
0.0
  0
SPLINE
  5
133
100
AcDbEntity
  8
Ebene_1
 62
7
100
AcDbSpline
 70
8
 71
3
 72
8
 73
4
 74
0
 40
0
 40
0
 40
0
 40
0
 40
1
 40
1
 40
1
 40
1
 10
373.119140
 20
80.443310
 30
0.0
 10
377.055940
 20
80.443310
 30
0.0
 10
382.962350
 20
80.607430
 30
0.0
 10
390.835940
 20
80.935500
 30
0.0
  0
SPLINE
  5
134
100
AcDbEntity
  8
Ebene_1
 62
7
100
AcDbSpline
 70
8
 71
3
 72
8
 73
4
 74
0
 40
0
 40
0
 40
0
 40
0
 40
1
 40
1
 40
1
 40
1
 10
390.835940
 20
80.935500
 30
0.0
 10
398.873560
 20
81.263560
 30
0.0
 10
404.860070
 20
81.427680
 30
0.0
 10
408.796880
 20
81.427680
 30
0.0
  0
SPLINE
  5
135
100
AcDbEntity
  8
Ebene_1
 62
7
100
AcDbSpline
 70
8
 71
3
 72
8
 73
4
 74
0
 40
0
 40
0
 40
0
 40
0
 40
1
 40
1
 40
1
 40
1
 10
408.796880
 20
81.427680
 30
0.0
 10
413.553830
 20
81.427680
 30
0.0
 10
415.933590
 20
83.641370
 30
0.0
 10
415.933590
 20
88.070260
 30
0.0
  0
LWPOLYLINE
  5
136
100
AcDbEntity
  8
Ebene_1
 62
7
100
AcDbPolyline
 90
2
 70
0
 10
98.527344
 20
81.427680
 30
0.0
 10
183.662110
 20
81.427680
 30
0.0
  0
SPLINE
  5
137
100
AcDbEntity
  8
Ebene_1
 62
7
100
AcDbSpline
 70
8
 71
3
 72
8
 73
4
 74
0
 40
0
 40
0
 40
0
 40
0
 40
1
 40
1
 40
1
 40
1
 10
415.933590
 20
250.218750
 30
0.0
 10
415.933590
 20
269.082570
 30
0.0
 10
416.670190
 20
297.213710
 30
0.0
 10
418.146480
 20
334.613280
 30
0.0
  0
SPLINE
  5
138
100
AcDbEntity
  8
Ebene_1
 62
7
100
AcDbSpline
 70
8
 71
3
 72
8
 73
4
 74
0
 40
0
 40
0
 40
0
 40
0
 40
1
 40
1
 40
1
 40
1
 10
418.146480
 20
334.613280
 30
0.0
 10
419.786820
 20
372.176880
 30
0.0
 10
420.607420
 20
400.308030
 30
0.0
 10
420.607420
 20
419.007812
 30
0.0
  0
SPLINE
  5
139
100
AcDbEntity
  8
Ebene_1
 62
7
100
AcDbSpline
 70
8
 71
3
 72
8
 73
4
 74
0
 40
0
 40
0
 40
0
 40
0
 40
1
 40
1
 40
1
 40
1
 10
420.607420
 20
419.007812
 30
0.0
 10
420.607420
 20
424.092842
 30
0.0
 10
419.050230
 20
426.636719
 30
0.0
 10
415.933590
 20
426.636719
 30
0.0
  0
SPLINE
  5
13a
100
AcDbEntity
  8
Ebene_1
 62
7
100
AcDbSpline
 70
8
 71
3
 72
8
 73
4
 74
0
 40
0
 40
0
 40
0
 40
0
 40
1
 40
1
 40
1
 40
1
 10
415.933590
 20
426.636719
 30
0.0
 10
406.091600
 20
426.636719
 30
0.0
 10
391.246460
 20
426.226416
 30
0.0
 10
371.398440
 20
425.406250
 30
0.0
  0
SPLINE
  5
13b
100
AcDbEntity
  8
Ebene_1
 62
7
100
AcDbSpline
 70
8
 71
3
 72
8
 73
4
 74
0
 40
0
 40
0
 40
0
 40
0
 40
1
 40
1
 40
1
 40
1
 10
371.398440
 20
425.406250
 30
0.0
 10
351.550420
 20
424.586084
 30
0.0
 10
336.705270
 20
424.175781
 30
0.0
 10
326.863280
 20
424.175781
 30
0.0
  0
SPLINE
  5
13c
100
AcDbEntity
  8
Ebene_1
 62
7
100
AcDbSpline
 70
8
 71
3
 72
8
 73
4
 74
0
 40
0
 40
0
 40
0
 40
0
 40
1
 40
1
 40
1
 40
1
 10
326.863280
 20
424.175781
 30
0.0
 10
323.418580
 20
424.175781
 30
0.0
 10
321.695310
 20
421.141494
 30
0.0
 10
321.695310
 20
415.072266
 30
0.0
  0
SPLINE
  5
13d
100
AcDbEntity
  8
Ebene_1
 62
7
100
AcDbSpline
 70
8
 71
3
 72
8
 73
4
 74
0
 40
0
 40
0
 40
0
 40
0
 40
1
 40
1
 40
1
 40
1
 10
321.695310
 20
415.072266
 30
0.0
 10
321.695310
 20
397.684750
 30
0.0
 10
322.597990
 20
371.685220
 30
0.0
 10
324.402340
 20
337.074220
 30
0.0
  0
SPLINE
  5
13e
100
AcDbEntity
  8
Ebene_1
 62
7
100
AcDbSpline
 70
8
 71
3
 72
8
 73
4
 74
0
 40
0
 40
0
 40
0
 40
0
 40
1
 40
1
 40
1
 40
1
 10
324.402340
 20
337.074220
 30
0.0
 10
326.370740
 20
302.463210
 30
0.0
 10
327.355470
 20
276.545750
 30
0.0
 10
327.355470
 20
259.322270
 30
0.0
  0
SPLINE
  5
13f
100
AcDbEntity
  8
Ebene_1
 62
7
100
AcDbSpline
 70
8
 71
3
 72
8
 73
4
 74
0
 40
0
 40
0
 40
0
 40
0
 40
1
 40
1
 40
1
 40
1
 10
327.355470
 20
259.322270
 30
0.0
 10
327.355470
 20
246.527670
 30
0.0
 10
326.288680
 20
240.128910
 30
0.0
 10
324.156250
 20
240.128910
 30
0.0
  0
SPLINE
  5
140
100
AcDbEntity
  8
Ebene_1
 62
7
100
AcDbSpline
 70
8
 71
3
 72
8
 73
4
 74
0
 40
0
 40
0
 40
0
 40
0
 40
1
 40
1
 40
1
 40
1
 10
324.156250
 20
240.128910
 30
0.0
 10
321.203650
 20
240.128910
 30
0.0
 10
317.677010
 20
242.672790
 30
0.0
 10
313.576170
 20
247.757810
 30
0.0
  0
SPLINE
  5
141
100
AcDbEntity
  8
Ebene_1
 62
7
100
AcDbSpline
 70
8
 71
3
 72
8
 73
4
 74
0
 40
0
 40
0
 40
0
 40
0
 40
1
 40
1
 40
1
 40
1
 10
313.576170
 20
247.757810
 30
0.0
 10
297.008820
 20
269.574230
 30
0.0
 10
284.623530
 20
286.140700
 30
0.0
 10
276.421880
 20
297.458980
 30
0.0
  0
LWPOLYLINE
  5
142
100
AcDbEntity
  8
Ebene_1
 62
7
100
AcDbPolyline
 90
2
 70
0
 10
415.933590
 20
88.070260
 30
0.0
 10
415.933590
 20
250.218750
 30
0.0
  0
SPLINE
  5
143
100
AcDbEntity
  8
Ebene_1
 62
7
100
AcDbSpline
 70
8
 71
3
 72
8
 73
4
 74
0
 40
0
 40
0
 40
0
 40
0
 40
1
 40
1
 40
1
 40
1
 10
184.644530
 20
423.191406
 30
0.0
 10
180.543710
 20
428.768536
 30
0.0
 10
177.509410
 20
431.556641
 30
0.0
 10
175.541020
 20
431.556641
 30
0.0
  0
LWPOLYLINE
  5
144
100
AcDbEntity
  8
Ebene_1
 62
7
100
AcDbPolyline
 90
2
 70
0
 10
276.421880
 20
297.458980
 30
0.0
 10
184.644530
 20
423.191406
 30
0.0
  0
SPLINE
  5
145
100
AcDbEntity
  8
Ebene_1
 62
7
100
AcDbSpline
 70
8
 71
3
 72
8
 73
4
 74
0
 40
0
 40
0
 40
0
 40
0
 40
1
 40
1
 40
1
 40
1
 10
429.453120
 20
379.513620
 30
0.0
 10
429.077990
 20
368.576130
 30
0.0
 10
428.727430
 20
357.916860
 30
0.0
 10
428.146480
 20
344.613230
 30
0.0
  0
SPLINE
  5
146
100
AcDbEntity
  8
Ebene_1
 62
7
100
AcDbSpline
 70
8
 71
3
 72
8
 73
4
 74
0
 40
0
 40
0
 40
0
 40
0
 40
1
 40
1
 40
1
 40
1
 10
428.146480
 20
344.613230
 30
0.0
 10
427.967840
 20
340.087700
 30
0.0
 10
427.901170
 20
336.972880
 30
0.0
 10
427.744140
 20
332.718700
 30
0.0
  0
SPLINE
  5
147
100
AcDbEntity
  8
Ebene_1
 62
7
100
AcDbSpline
 70
8
 71
3
 72
8
 73
4
 74
0
 40
0
 40
0
 40
0
 40
0
 40
1
 40
1
 40
1
 40
1
 10
427.744140
 20
332.718700
 30
0.0
 10
437.550218
 20
310.538254
 30
0.0
 10
442.976568
 20
286.671470
 30
0.0
 10
443.724610
 20
262.431590
 30
0.0
  0
LWPOLYLINE
  5
148
100
AcDbEntity
  8
Ebene_1
 62
7
100
AcDbPolyline
 90
1
 70
1
 10
175.541020
 20
431.556641
 30
0.0
  0
SPLINE
  5
149
100
AcDbEntity
  8
Ebene_1
 62
7
100
AcDbSpline
 70
8
 71
3
 72
8
 73
4
 74
0
 40
0
 40
0
 40
0
 40
0
 40
1
 40
1
 40
1
 40
1
 10
468.505860
 20
262.431590
 30
0.0
 10
467.328112
 20
304.457757
 30
0.0
 10
453.740014
 20
345.195561
 30
0.0
 10
429.453120
 20
379.513670
 30
0.0
  0
LWPOLYLINE
  5
14a
100
AcDbEntity
  8
Ebene_1
 62
7
100
AcDbPolyline
 90
2
 70
0
 10
443.724610
 20
262.431590
 30
0.0
 10
468.505860
 20
262.431590
 30
0.0
  0
SPLINE
  5
14b
100
AcDbEntity
  8
Ebene_1
 62
7
100
AcDbSpline
 70
8
 71
3
 72
8
 73
4
 74
0
 40
0
 40
0
 40
0
 40
0
 40
1
 40
1
 40
1
 40
1
 10
82.351562
 20
379.076120
 30
0.0
 10
58.217096
 20
344.858622
 30
0.0
 10
44.702901
 20
304.286842
 30
0.0
 10
43.498047
 20
262.431640
 30
0.0
  0
LWPOLYLINE
  5
14c
100
AcDbEntity
  8
Ebene_1
 62
7
100
AcDbPolyline
 90
1
 70
1
 10
429.453120
 20
379.513670
 30
0.0
  0
SPLINE
  5
14d
100
AcDbEntity
  8
Ebene_1
 62
7
100
AcDbSpline
 70
8
 71
3
 72
8
 73
4
 74
0
 40
0
 40
0
 40
0
 40
0
 40
1
 40
1
 40
1
 40
1
 10
68.271484
 20
262.431640
 30
0.0
 10
69.014490
 20
286.320599
 30
0.0
 10
74.301431
 20
309.849345
 30
0.0
 10
83.849609
 20
331.759770
 30
0.0
  0
SPLINE
  5
14e
100
AcDbEntity
  8
Ebene_1
 62
7
100
AcDbSpline
 70
8
 71
3
 72
8
 73
4
 74
0
 40
0
 40
0
 40
0
 40
0
 40
1
 40
1
 40
1
 40
1
 10
83.849609
 20
331.759770
 30
0.0
 10
83.163579
 20
349.920220
 30
0.0
 10
82.664989
 20
365.676820
 30
0.0
 10
82.351562
 20
379.076170
 30
0.0
  0
LWPOLYLINE
  5
14f
100
AcDbEntity
  8
Ebene_1
 62
7
100
AcDbPolyline
 90
2
 70
0
 10
43.498047
 20
262.431640
 30
0.0
 10
68.271484
 20
262.431640
 30
0.0
  0
SPLINE
  5
150
100
AcDbEntity
  8
Ebene_1
 62
7
100
AcDbSpline
 70
8
 71
3
 72
8
 73
4
 74
0
 40
0
 40
0
 40
0
 40
0
 40
1
 40
1
 40
1
 40
1
 10
43.500000
 20
249.568360
 30
0.0
 10
44.712031
 20
207.454937
 30
0.0
 10
58.385446
 20
166.646757
 30
0.0
 10
82.791016
 20
132.304690
 30
0.0
  0
SPLINE
  5
151
100
AcDbEntity
  8
Ebene_1
 62
7
100
AcDbSpline
 70
8
 71
3
 72
8
 73
4
 74
0
 40
0
 40
0
 40
0
 40
0
 40
1
 40
1
 40
1
 40
1
 10
82.791016
 20
132.304690
 30
0.0
 10
83.127104
 20
141.096960
 30
0.0
 10
83.381729
 20
148.982670
 30
0.0
 10
83.853516
 20
159.267580
 30
0.0
  0
SPLINE
  5
152
100
AcDbEntity
  8
Ebene_1
 62
7
100
AcDbSpline
 70
8
 71
3
 72
8
 73
4
 74
0
 40
0
 40
0
 40
0
 40
0
 40
1
 40
1
 40
1
 40
1
 10
83.853516
 20
159.267580
 30
0.0
 10
84.219791
 20
166.526530
 30
0.0
 10
84.385813
 20
171.800040
 30
0.0
 10
84.677734
 20
178.322270
 30
0.0
  0
SPLINE
  5
153
100
AcDbEntity
  8
Ebene_1
 62
7
100
AcDbSpline
 70
8
 71
3
 72
8
 73
4
 74
0
 40
0
 40
0
 40
0
 40
0
 40
1
 40
1
 40
1
 40
1
 10
84.677734
 20
178.322270
 30
0.0
 10
74.607273
 20
200.770736
 30
0.0
 10
69.036672
 20
224.976142
 30
0.0
 10
68.281250
 20
249.568360
 30
0.0
  0
LWPOLYLINE
  5
154
100
AcDbEntity
  8
Ebene_1
 62
7
100
AcDbPolyline
 90
1
 70
1
 10
82.351562
 20
379.076170
 30
0.0
  0
SPLINE
  5
155
100
AcDbEntity
  8
Ebene_1
 62
7
100
AcDbSpline
 70
8
 71
3
 72
8
 73
4
 74
0
 40
0
 40
0
 40
0
 40
0
 40
1
 40
1
 40
1
 40
1
 10
443.703120
 20
249.568360
 30
0.0
 10
442.929864
 20
223.828455
 30
0.0
 10
436.881905
 20
198.521152
 30
0.0
 10
425.933590
 20
175.212890
 30
0.0
  0
LWPOLYLINE
  5
156
100
AcDbEntity
  8
Ebene_1
 62
7
100
AcDbPolyline
 90
2
 70
0
 10
68.281250
 20
249.568360
 30
0.0
 10
43.500000
 20
249.568360
 30
0.0
  0
SPLINE
  5
157
100
AcDbEntity
  8
Ebene_1
 62
7
100
AcDbSpline
 70
8
 71
3
 72
8
 73
4
 74
0
 40
0
 40
0
 40
0
 40
0
 40
1
 40
1
 40
1
 40
1
 10
425.933590
 20
127.703120
 30
0.0
 10
452.379460
 20
162.946390
 30
0.0
 10
467.245145
 20
205.523596
 30
0.0
 10
468.482420
 20
249.568360
 30
0.0
  0
LWPOLYLINE
  5
158
100
AcDbEntity
  8
Ebene_1
 62
7
100
AcDbPolyline
 90
2
 70
0
 10
425.933590
 20
175.212890
 30
0.0
 10
425.933590
 20
127.703120
 30
0.0
  0
SPLINE
  5
159
100
AcDbEntity
  8
Ebene_1
 62
7
100
AcDbSpline
 70
8
 71
3
 72
8
 73
4
 74
0
 40
0
 40
0
 40
0
 40
0
 40
1
 40
1
 40
1
 40
1
 10
316.398440
 20
77.845700
 30
0.0
 10
298.969082
 20
72.064870
 30
0.0
 10
280.787446
 20
68.866255
 30
0.0
 10
262.431640
 20
68.351560
 30
0.0
  0
LWPOLYLINE
  5
15a
100
AcDbEntity
  8
Ebene_1
 62
7
100
AcDbPolyline
 90
2
 70
0
 10
468.482420
 20
249.568360
 30
0.0
 10
443.703120
 20
249.568360
 30
0.0
  0
SPLINE
  5
15b
100
AcDbEntity
  8
Ebene_1
 62
7
100
AcDbSpline
 70
8
 71
3
 72
8
 73
4
 74
0
 40
0
 40
0
 40
0
 40
0
 40
1
 40
1
 40
1
 40
1
 10
262.431640
 20
43.548830
 30
0.0
 10
296.848783
 20
44.475004
 30
0.0
 10
330.528520
 20
53.730143
 30
0.0
 10
360.585940
 20
70.521480
 30
0.0
  0
SPLINE
  5
15c
100
AcDbEntity
  8
Ebene_1
 62
7
100
AcDbSpline
 70
8
 71
3
 72
8
 73
4
 74
0
 40
0
 40
0
 40
0
 40
0
 40
1
 40
1
 40
1
 40
1
 10
360.585940
 20
70.521480
 30
0.0
 10
356.428080
 20
70.608980
 30
0.0
 10
351.106340
 20
70.875530
 30
0.0
 10
343.927730
 20
71.427730
 30
0.0
  0
SPLINE
  5
15d
100
AcDbEntity
  8
Ebene_1
 62
7
100
AcDbSpline
 70
8
 71
3
 72
8
 73
4
 74
0
 40
0
 40
0
 40
0
 40
0
 40
1
 40
1
 40
1
 40
1
 10
343.927730
 20
71.427730
 30
0.0
 10
335.398050
 20
72.083870
 30
0.0
 10
329.001150
 20
72.412110
 30
0.0
 10
324.736330
 20
72.412110
 30
0.0
  0
SPLINE
  5
15e
100
AcDbEntity
  8
Ebene_1
 62
7
100
AcDbSpline
 70
8
 71
3
 72
8
 73
4
 74
0
 40
0
 40
0
 40
0
 40
0
 40
1
 40
1
 40
1
 40
1
 10
324.736330
 20
72.412110
 30
0.0
 10
322.341660
 20
72.412110
 30
0.0
 10
319.548350
 20
74.285110
 30
0.0
 10
316.398440
 20
77.845700
 30
0.0
  0
LWPOLYLINE
  5
15f
100
AcDbEntity
  8
Ebene_1
 62
7
100
AcDbPolyline
 90
2
 70
0
 10
262.431640
 20
68.351560
 30
0.0
 10
262.431640
 20
43.548830
 30
0.0
  0
SPLINE
  5
160
100
AcDbEntity
  8
Ebene_1
 62
7
100
AcDbSpline
 70
8
 71
3
 72
8
 73
4
 74
0
 40
0
 40
0
 40
0
 40
0
 40
1
 40
1
 40
1
 40
1
 10
199.921880
 20
76.564450
 30
0.0
 10
199.136400
 20
73.165560
 30
0.0
 10
197.069910
 20
71.427730
 30
0.0
 10
193.662110
 20
71.427730
 30
0.0
  0
LWPOLYLINE
  5
161
100
AcDbEntity
  8
Ebene_1
 62
7
100
AcDbPolyline
 90
1
 70
1
 10
316.398440
 20
77.845700
 30
0.0
  0
SPLINE
  5
162
100
AcDbEntity
  8
Ebene_1
 62
7
100
AcDbSpline
 70
8
 71
3
 72
8
 73
4
 74
0
 40
0
 40
0
 40
0
 40
0
 40
1
 40
1
 40
1
 40
1
 10
149.886720
 20
71.427730
 30
0.0
 10
180.304414
 20
54.034557
 30
0.0
 10
214.543127
 20
44.413747
 30
0.0
 10
249.568360
 20
43.417970
 30
0.0
  0
LWPOLYLINE
  5
163
100
AcDbEntity
  8
Ebene_1
 62
7
100
AcDbPolyline
 90
3
 70
0
 10
193.662110
 20
71.427730
 30
0.0
 10
173.662110
 20
71.427730
 30
0.0
 10
149.886720
 20
71.427730
 30
0.0
  0
SPLINE
  5
164
100
AcDbEntity
  8
Ebene_1
 62
7
100
AcDbSpline
 70
8
 71
3
 72
8
 73
4
 74
0
 40
0
 40
0
 40
0
 40
0
 40
1
 40
1
 40
1
 40
1
 10
249.568360
 20
68.328120
 30
0.0
 10
232.725414
 20
68.838398
 30
0.0
 10
216.027309
 20
71.608607
 30
0.0
 10
199.921880
 20
76.564450
 30
0.0
  0
LWPOLYLINE
  5
165
100
AcDbEntity
  8
Ebene_1
 62
7
100
AcDbPolyline
 90
2
 70
0
 10
249.568360
 20
43.417970
 30
0.0
 10
249.568360
 20
68.328120
 30
0.0
  0
LWPOLYLINE
  5
166
100
AcDbEntity
  8
Ebene_1
 62
7
100
AcDbPolyline
 90
1
 70
1
 10
199.921880
 20
76.564450
 30
0.0
  0
ENDSEC
  0
SECTION
  2
OBJECTS
  0
DICTIONARY
  5
C
330
0
100
AcDbDictionary
  3
ACAD_GROUP
350
D
  3
ACAD_MLINESTYLE
350
17
  0
DICTIONARY
  5
D
330
C
100
AcDbDictionary
  0
DICTIONARY
  5
1A
330
C
100
AcDbDictionary
  0
DICTIONARY
  5
17
330
C
100
AcDbDictionary
  3
STANDARD
350
18
  0
DICTIONARY
  5
19
330
C
100
AcDbDictionary
  0
ENDSEC
  0
EOF
