<?xml version="1.0" encoding="UTF-8" standalone="no"?>
<!-- Created with Inkscape (http://www.inkscape.org/) -->

<svg
   width="512.0px"
   height="512.0px"
   viewBox="0 0 512.0 512.0"
   version="1.1"
   id="SVGRoot"
   sodipodi:docname="Nikogenia_Logo_Light.svg"
   inkscape:version="1.2.2 (732a01da63, 2022-12-09)"
   inkscape:export-filename="Nikogenia Logo Light.png"
   inkscape:export-xdpi="96"
   inkscape:export-ydpi="96"
   xmlns:inkscape="http://www.inkscape.org/namespaces/inkscape"
   xmlns:sodipodi="http://sodipodi.sourceforge.net/DTD/sodipodi-0.dtd"
   xmlns:xlink="http://www.w3.org/1999/xlink"
   xmlns="http://www.w3.org/2000/svg"
   xmlns:svg="http://www.w3.org/2000/svg">
  <sodipodi:namedview
     id="namedview137"
     pagecolor="#d1d1d1"
     bordercolor="#000000"
     borderopacity="0.25"
     inkscape:showpageshadow="2"
     inkscape:pageopacity="0"
     inkscape:pagecheckerboard="0"
     inkscape:deskcolor="#d1d1d1"
     inkscape:document-units="px"
     showgrid="false"
     inkscape:zoom="2.0888419"
     inkscape:cx="218.06342"
     inkscape:cy="188.86064"
     inkscape:window-width="1920"
     inkscape:window-height="991"
     inkscape:window-x="-9"
     inkscape:window-y="-9"
     inkscape:window-maximized="1"
     inkscape:current-layer="layer1">
    <inkscape:grid
       type="xygrid"
       id="grid260" />
  </sodipodi:namedview>
  <defs
     id="defs132">
    <linearGradient
       inkscape:collect="always"
       id="linearGradient8282">
      <stop
         style="stop-color:#63a7ed;stop-opacity:1;"
         offset="0"
         id="stop8278" />
      <stop
         style="stop-color:#144e88;stop-opacity:1;"
         offset="1"
         id="stop8280" />
    </linearGradient>
    <radialGradient
       inkscape:collect="always"
       xlink:href="#linearGradient8282"
       id="radialGradient8284"
       cx="256"
       cy="256"
       fx="256"
       fy="256"
       r="256"
       gradientUnits="userSpaceOnUse" />
  </defs>
  <g
     inkscape:label="Ebene 1"
     inkscape:groupmode="layer"
     id="layer1">
    <path
       id="text6516"
       style="font-style:normal;font-variant:normal;font-weight:normal;font-stretch:normal;font-size:626.667px;font-family:'Berlin Sans FB';-inkscape-font-specification:'Berlin Sans FB, Normal';font-variant-ligatures:normal;font-variant-caps:normal;font-variant-numeric:normal;font-variant-east-asian:normal;fill:#5187c3;fill-opacity:1;stroke-width:30;stroke-linecap:round;stroke-linejoin:bevel"
       inkscape:label="Code"
       d="M 254.93945 76.087891 A 179.98889 179.98889 0 0 0 251.32227 76.345703 C 250.96755 77.899461 250.76367 79.584139 250.76367 81.445312 C 250.76367 83.710929 250.97852 85.670577 251.4082 87.324219 C 251.83789 88.977857 252.44987 90.338542 253.24414 91.40625 C 254.03841 92.473948 254.99547 93.268234 256.11523 93.789062 C 257.23502 94.296872 258.47852 94.550781 259.8457 94.550781 C 261.43424 94.550781 262.81445 94.238281 263.98633 93.613281 C 265.17122 92.975263 266.16081 92.083328 266.95508 90.9375 C 267.74935 89.778646 268.3418 88.398427 268.73242 86.796875 C 269.12305 85.182299 269.31836 83.398432 269.31836 81.445312 C 269.31836 79.546973 269.07901 77.98823 268.77734 76.519531 A 179.98889 179.98889 0 0 0 264.41016 76.21875 L 254.2793 83.710938 C 254.2402 83.333335 254.21417 82.942708 254.20117 82.539062 L 254.20117 81.328125 C 254.20117 79.674487 254.33789 78.222652 254.61133 76.972656 C 254.6878 76.619424 254.84465 76.408533 254.93945 76.087891 z M 246.80273 76.669922 A 179.98889 179.98889 0 0 0 241.27344 77.064453 L 232.28711 83.710938 C 232.24801 83.333335 232.22198 82.942708 232.20898 82.539062 L 232.20898 81.328125 C 232.20898 79.946662 232.35995 78.789213 232.55078 77.689453 A 179.98889 179.98889 0 0 0 229.13672 78.115234 C 228.98546 79.199522 228.77148 80.229936 228.77148 81.445312 C 228.77148 83.710929 228.98634 85.670577 229.41602 87.324219 C 229.84571 88.977857 230.45768 90.338542 231.25195 91.40625 C 232.04622 92.473948 233.00326 93.268234 234.12305 93.789062 C 235.24284 94.296872 236.48634 94.550781 237.85352 94.550781 C 239.44204 94.550781 240.82227 94.238281 241.99414 93.613281 C 243.17903 92.975263 244.16862 92.083328 244.96289 90.9375 C 245.75716 89.778646 246.34961 88.398427 246.74023 86.796875 C 247.13086 85.182299 247.32617 83.398432 247.32617 81.445312 C 247.32617 79.604976 247.08625 78.106471 246.80273 76.669922 z M 281.03711 77.789062 L 281.03711 91.035156 L 274.47461 91.035156 L 274.47461 94.199219 L 290.50977 94.199219 L 290.50977 91.035156 L 284.80664 91.035156 L 284.80664 78.375 A 179.98889 179.98889 0 0 0 281.03711 77.789062 z M 243.73242 78.964844 C 243.77152 79.381507 243.80398 79.811201 243.83008 80.253906 C 243.86918 80.683593 243.88867 81.119792 243.88867 81.5625 C 243.88867 83.216138 243.75196 84.674483 243.47852 85.9375 C 243.20509 87.187496 242.81445 88.235674 242.30664 89.082031 C 241.79883 89.928378 241.18034 90.566404 240.45117 90.996094 C 239.73503 91.425782 238.93424 91.640635 238.04883 91.640625 C 237.35872 91.640625 236.74023 91.529944 236.19336 91.308594 C 235.65951 91.074224 235.17773 90.755202 234.74805 90.351562 C 234.33138 89.9349 233.97331 89.440105 233.67383 88.867188 C 233.37435 88.294278 233.12695 87.669268 232.93164 86.992188 L 243.73242 78.964844 z M 265.72461 78.964844 C 265.76371 79.381507 265.79617 79.811201 265.82227 80.253906 C 265.86137 80.683593 265.88086 81.119792 265.88086 81.5625 C 265.88086 83.216138 265.74414 84.674483 265.4707 85.9375 C 265.19727 87.187496 264.80664 88.235674 264.29883 89.082031 C 263.79102 89.928378 263.17252 90.566404 262.44336 90.996094 C 261.72721 91.425782 260.92641 91.640635 260.04102 91.640625 C 259.35092 91.640625 258.73242 91.529944 258.18555 91.308594 C 257.65169 91.074224 257.16992 90.755202 256.74023 90.351562 C 256.32357 89.9349 255.9655 89.440105 255.66602 88.867188 C 255.36655 88.294278 255.11914 87.669268 254.92383 86.992188 L 265.72461 78.964844 z M 218.83008 80.357422 A 179.98889 179.98889 0 0 0 215.06055 81.177734 L 215.06055 91.035156 L 208.49805 91.035156 L 208.49805 94.199219 L 224.5332 94.199219 L 224.5332 91.035156 L 218.83008 91.035156 L 218.83008 80.357422 z M 303.0293 82.316406 L 303.0293 91.035156 L 296.4668 91.035156 L 296.4668 94.199219 L 312.50195 94.199219 L 312.50195 91.035156 L 306.79883 91.035156 L 306.79883 83.361328 A 179.98889 179.98889 0 0 0 303.0293 82.316406 z M 203.04688 84.138672 A 179.98889 179.98889 0 0 0 199.54102 85.447266 C 199.5138 85.593721 199.52479 85.79595 199.49414 85.9375 C 199.2207 87.187496 198.83008 88.235674 198.32227 89.082031 C 197.81445 89.928378 197.19596 90.566404 196.4668 90.996094 C 195.75065 91.425782 194.94987 91.640635 194.06445 91.640625 C 193.37435 91.640625 192.75586 91.529944 192.20898 91.308594 C 191.67513 91.074224 191.19336 90.755202 190.76367 90.351562 C 190.40298 89.990869 190.10686 89.544197 189.83398 89.066406 A 179.98889 179.98889 0 0 0 186.73438 90.222656 C 186.93406 90.581614 187.03721 91.09658 187.26758 91.40625 C 188.06185 92.473948 189.01888 93.268234 190.13867 93.789062 C 191.25846 94.296872 192.50195 94.550781 193.86914 94.550781 C 195.45768 94.550781 196.83789 94.238281 198.00977 93.613281 C 199.19463 92.975263 200.18425 92.083328 200.97852 90.9375 C 201.77277 89.778646 202.36523 88.398427 202.75586 86.796875 C 202.94989 85.994891 202.94922 85.024185 203.04688 84.138672 z M 318.45898 91.035156 L 318.45898 94.199219 L 321.91602 94.199219 C 322.06155 92.959196 322.31496 91.906243 322.66992 91.035156 L 318.45898 91.035156 z M 216.62305 107.61719 C 215.04753 107.61719 213.66732 107.9362 212.48242 108.57422 C 211.29753 109.19922 210.30794 110.09114 209.51367 111.25 C 208.73242 112.39583 208.13997 113.77607 207.73633 115.39062 C 207.41556 116.71644 207.31323 118.23106 207.25586 119.78516 L 211.75977 125.95508 L 222.11133 118.26172 C 222.15043 118.67838 222.18298 119.10807 222.20898 119.55078 C 222.24808 119.98047 222.26758 120.41667 222.26758 120.85938 C 222.26758 122.513 222.13086 123.97136 221.85742 125.23438 C 221.58398 126.48435 221.19336 127.53256 220.68555 128.37891 C 220.17773 129.22527 219.55924 129.86328 218.83008 130.29297 C 218.11393 130.72265 217.31315 130.9375 216.42773 130.9375 C 215.98606 130.9375 215.62326 130.81529 215.24023 130.72461 L 217.42773 133.72266 C 218.50809 133.59993 219.5157 133.3674 220.37305 132.91016 C 221.55794 132.27214 222.54753 131.38018 223.3418 130.23438 C 224.13607 129.07553 224.72852 127.69531 225.11914 126.09375 C 225.50976 124.47917 225.70508 122.69532 225.70508 120.74219 C 225.70508 118.47657 225.49023 116.51692 225.06055 114.86328 C 224.63086 113.20963 224.01888 111.84895 223.22461 110.78125 C 222.43034 109.70052 221.47329 108.90626 220.35352 108.39844 C 219.23373 107.87761 217.99023 107.61719 216.62305 107.61719 z M 238.61523 107.61719 C 237.03974 107.61719 235.6595 107.9362 234.47461 108.57422 C 233.28971 109.19922 232.30013 110.09114 231.50586 111.25 C 230.72461 112.39583 230.13217 113.77607 229.72852 115.39062 C 229.3379 117.0052 229.14258 118.78907 229.14258 120.74219 C 229.14258 123.00782 229.35742 124.96748 229.78711 126.62109 C 230.2168 128.27473 230.82878 129.63544 231.62305 130.70312 C 232.41732 131.77083 233.37435 132.56511 234.49414 133.08594 C 235.61393 133.59376 236.85742 133.84766 238.22461 133.84766 C 239.81315 133.84766 241.19339 133.53516 242.36523 132.91016 C 243.55013 132.27214 244.53974 131.38018 245.33398 130.23438 C 246.12825 129.07553 246.7207 127.69531 247.11133 126.09375 C 247.50195 124.47917 247.69727 122.69532 247.69727 120.74219 C 247.69727 118.47657 247.48242 116.51692 247.05273 114.86328 C 246.62305 113.20963 246.01107 111.84895 245.2168 110.78125 C 244.42253 109.70052 243.46549 108.90626 242.3457 108.39844 C 241.22591 107.87761 239.98242 107.61719 238.61523 107.61719 z M 304.5918 107.61719 C 303.01628 107.61719 301.63607 107.9362 300.45117 108.57422 C 299.26628 109.19922 298.27669 110.09114 297.48242 111.25 C 296.70117 112.39583 296.10872 113.77607 295.70508 115.39062 C 295.31445 117.0052 295.11914 118.78907 295.11914 120.74219 C 295.11914 123.00782 295.33398 124.96748 295.76367 126.62109 C 296.19336 128.27473 296.80534 129.63544 297.59961 130.70312 C 298.39388 131.77083 299.35091 132.56511 300.4707 133.08594 C 301.59049 133.59376 302.83399 133.84766 304.20117 133.84766 C 305.78971 133.84766 307.16992 133.53516 308.3418 132.91016 C 309.52669 132.27214 310.51628 131.38018 311.31055 130.23438 C 312.10482 129.07553 312.69727 127.69531 313.08789 126.09375 C 313.47851 124.47917 313.67383 122.69532 313.67383 120.74219 C 313.67383 118.47657 313.45898 116.51692 313.0293 114.86328 C 312.59961 113.20963 311.98763 111.84895 311.19336 110.78125 C 310.39909 109.70052 309.44203 108.90626 308.32227 108.39844 C 307.20247 107.87761 305.95898 107.61719 304.5918 107.61719 z M 260.17773 107.85156 L 252.05273 112.12891 L 253.30273 115.01953 L 259.41602 111.69922 L 259.41602 130.33203 L 252.85352 130.33203 L 252.85352 133.49609 L 268.88867 133.49609 L 268.88867 130.33203 L 263.18555 130.33203 L 263.18555 107.85156 L 260.17773 107.85156 z M 282.16992 107.85156 L 274.04492 112.12891 L 275.29492 115.01953 L 281.4082 111.69922 L 281.4082 130.33203 L 274.8457 130.33203 L 274.8457 133.49609 L 290.88086 133.49609 L 290.88086 130.33203 L 285.17773 130.33203 L 285.17773 107.85156 L 282.16992 107.85156 z M 321.83594 108.99805 C 320.93099 109.58754 320.12091 110.30703 319.47461 111.25 C 318.69336 112.39583 318.10091 113.77607 317.69727 115.39062 C 317.30664 117.0052 317.11133 118.78907 317.11133 120.74219 C 317.11133 123.00782 317.32617 124.96748 317.75586 126.62109 C 318.18555 128.27473 318.79753 129.63544 319.5918 130.70312 C 320.38607 131.77083 321.3431 132.56511 322.46289 133.08594 C 322.48574 133.0963 322.5122 133.09922 322.53516 133.10938 C 322.48466 131.72658 322.39527 129.96351 322.34961 128.62695 C 322.24471 128.46334 322.10715 128.3429 322.01367 128.16406 C 321.71419 127.59114 321.4668 126.96614 321.27148 126.28906 L 322.26172 125.55273 C 322.2204 124.26462 322.19475 123.1176 322.1582 121.875 L 320.62695 123.00781 C 320.58785 122.63021 320.56183 122.23959 320.54883 121.83594 L 320.54883 120.625 C 320.54883 118.97135 320.68555 117.51953 320.95898 116.26953 C 321.18415 115.22951 321.53975 114.42156 321.92383 113.66406 C 321.88696 112.03976 321.86314 110.53009 321.83594 108.99805 z M 216.42773 110.52734 C 217.0918 110.52734 217.69076 110.63803 218.22461 110.85938 C 218.75846 111.08071 219.23372 111.39324 219.65039 111.79688 C 220.06706 112.18748 220.42513 112.65628 220.72461 113.20312 C 221.02409 113.75 221.27148 114.35547 221.4668 115.01953 L 210.66602 123.00781 C 210.62692 122.63021 210.60089 122.23959 210.58789 121.83594 L 210.58789 120.625 C 210.58789 118.97135 210.72461 117.51953 210.99805 116.26953 C 211.27148 115.00651 211.66211 113.95182 212.16992 113.10547 C 212.67773 112.24609 213.28971 111.60154 214.00586 111.17188 C 214.73502 110.74219 215.54235 110.52734 216.42773 110.52734 z M 238.41992 110.52734 C 239.08398 110.52734 239.68294 110.63803 240.2168 110.85938 C 240.75065 111.08071 241.22591 111.39324 241.64258 111.79688 C 242.05924 112.18748 242.41732 112.65628 242.7168 113.20312 C 243.01628 113.75 243.26367 114.35547 243.45898 115.01953 L 232.6582 123.00781 C 232.6191 122.63021 232.59308 122.23959 232.58008 121.83594 L 232.58008 120.625 C 232.58008 118.97135 232.7168 117.51953 232.99023 116.26953 C 233.26367 115.00651 233.6543 113.95182 234.16211 113.10547 C 234.66992 112.24609 235.2819 111.60154 235.99805 111.17188 C 236.72721 110.74219 237.53451 110.52734 238.41992 110.52734 z M 304.39648 110.52734 C 305.06055 110.52734 305.65951 110.63803 306.19336 110.85938 C 306.72721 111.08071 307.20247 111.39324 307.61914 111.79688 C 308.03581 112.18748 308.39388 112.65628 308.69336 113.20312 C 308.99284 113.75 309.24023 114.35547 309.43555 115.01953 L 298.63477 123.00781 C 298.59567 122.63021 298.56964 122.23959 298.55664 121.83594 L 298.55664 120.625 C 298.55664 118.97135 298.69336 117.51953 298.9668 116.26953 C 299.24023 115.00651 299.63086 113.95182 300.13867 113.10547 C 300.64648 112.24609 301.25846 111.60154 301.97461 111.17188 C 302.70377 110.74219 303.5111 110.52734 304.39648 110.52734 z M 244.10352 118.26172 C 244.14262 118.67838 244.17517 119.10807 244.20117 119.55078 C 244.24027 119.98047 244.25977 120.41667 244.25977 120.85938 C 244.25977 122.513 244.12305 123.97136 243.84961 125.23438 C 243.57617 126.48435 243.18555 127.53256 242.67773 128.37891 C 242.16992 129.22527 241.5514 129.86328 240.82227 130.29297 C 240.10612 130.72265 239.30534 130.9375 238.41992 130.9375 C 237.72982 130.9375 237.11133 130.82682 236.56445 130.60547 C 236.0306 130.37109 235.54883 130.05209 235.11914 129.64844 C 234.70247 129.23178 234.3444 128.73698 234.04492 128.16406 C 233.74544 127.59114 233.49805 126.96614 233.30273 126.28906 L 244.10352 118.26172 z M 310.08008 118.26172 C 310.11918 118.67838 310.15173 119.10807 310.17773 119.55078 C 310.21683 119.98047 310.23633 120.41667 310.23633 120.85938 C 310.23633 122.513 310.09961 123.97136 309.82617 125.23438 C 309.55273 126.48435 309.16211 127.53256 308.6543 128.37891 C 308.14648 129.22527 307.52799 129.86328 306.79883 130.29297 C 306.08268 130.72265 305.2819 130.9375 304.39648 130.9375 C 303.70641 130.9375 303.0879 130.82682 302.54102 130.60547 C 302.00717 130.37109 301.52539 130.05209 301.0957 129.64844 C 300.67904 129.23178 300.32096 128.73698 300.02148 128.16406 C 299.722 127.59114 299.47461 126.96614 299.2793 126.28906 L 310.08008 118.26172 z M 261.29102 146.91211 C 259.71551 146.91211 258.33528 147.23112 257.15039 147.86914 C 255.9655 148.49414 254.97591 149.38607 254.18164 150.54492 C 253.40039 151.69075 252.80794 153.07097 252.4043 154.68555 C 252.01367 156.30014 251.81836 158.08398 251.81836 160.03711 C 251.81836 162.30273 252.0332 164.26238 252.46289 165.91602 C 252.89258 167.56964 253.50456 168.93035 254.29883 169.99805 C 255.0931 171.06576 256.05013 171.86002 257.16992 172.38086 C 258.28971 172.88867 259.5332 173.14258 260.90039 173.14258 C 262.48893 173.14258 263.86915 172.83008 265.04102 172.20508 C 266.22589 171.56706 267.21549 170.67514 268.00977 169.5293 C 268.80401 168.37045 269.39648 166.99023 269.78711 165.38867 C 270.17773 163.77409 270.37305 161.99023 270.37305 160.03711 C 270.37305 157.77148 270.15821 155.81184 269.72852 154.1582 C 269.29884 152.50456 268.68685 151.14388 267.89258 150.07617 C 267.09831 148.99544 266.14127 148.20117 265.02148 147.69336 C 263.90172 147.17252 262.65818 146.91211 261.29102 146.91211 z M 283.2832 146.91211 C 281.70768 146.91211 280.32747 147.23112 279.14258 147.86914 C 277.95768 148.49414 276.9681 149.38607 276.17383 150.54492 C 275.39258 151.69075 274.80013 153.07097 274.39648 154.68555 C 274.00586 156.30014 273.81055 158.08398 273.81055 160.03711 C 273.81055 162.30273 274.02539 164.26238 274.45508 165.91602 C 274.88476 167.56964 275.49675 168.93035 276.29102 169.99805 C 277.08527 171.06576 278.04232 171.86002 279.16211 172.38086 C 280.2819 172.88867 281.52539 173.14258 282.89258 173.14258 C 284.48112 173.14258 285.86133 172.83008 287.0332 172.20508 C 288.2181 171.56706 289.20768 170.67514 290.00195 169.5293 C 290.79622 168.37045 291.38867 166.99023 291.7793 165.38867 C 292.16992 163.77409 292.36523 161.99023 292.36523 160.03711 C 292.36523 157.77148 292.15039 155.81184 291.7207 154.1582 C 291.29102 152.50456 290.67901 151.14388 289.88477 150.07617 C 289.09049 148.99544 288.13346 148.20117 287.01367 147.69336 C 285.89388 147.17252 284.65039 146.91211 283.2832 146.91211 z M 238.86914 147.14648 L 230.74414 151.42383 L 231.31641 152.74805 L 232.32812 154.13281 L 238.10742 150.99414 L 238.10742 162.05078 L 241.87695 167.21484 L 241.87695 147.14648 L 238.86914 147.14648 z M 304.8457 147.14648 L 296.7207 151.42383 L 297.9707 154.31445 L 304.08398 150.99414 L 304.08398 169.62695 L 297.52148 169.62695 L 297.52148 172.79102 L 313.55664 172.79102 L 313.55664 169.62695 L 307.85352 169.62695 L 307.85352 147.14648 L 304.8457 147.14648 z M 323.24609 149.03711 L 318.71289 151.42383 L 319.96289 154.31445 L 323.39844 152.44922 C 323.34745 151.31004 323.29454 150.15203 323.24609 149.03711 z M 261.0957 149.82227 C 261.75976 149.82227 262.35872 149.93295 262.89258 150.1543 C 263.42643 150.37566 263.90169 150.68816 264.31836 151.0918 C 264.73502 151.48243 265.0931 151.95118 265.39258 152.49805 C 265.69206 153.04493 265.93945 153.65039 266.13477 154.31445 L 255.33398 162.30273 C 255.29488 161.92513 255.26886 161.5345 255.25586 161.13086 L 255.25586 159.91992 C 255.25586 158.26627 255.39259 156.81445 255.66602 155.56445 C 255.93946 154.30143 256.33008 153.24674 256.83789 152.40039 C 257.3457 151.54101 257.95768 150.89649 258.67383 150.4668 C 259.40299 150.03712 260.21029 149.82227 261.0957 149.82227 z M 283.08789 149.82227 C 283.75195 149.82227 284.35091 149.93295 284.88477 150.1543 C 285.41862 150.37566 285.89388 150.68816 286.31055 151.0918 C 286.72721 151.48243 287.08529 151.95118 287.38477 152.49805 C 287.68424 153.04493 287.93164 153.65039 288.12695 154.31445 L 277.32617 162.30273 C 277.28707 161.92513 277.26105 161.5345 277.24805 161.13086 L 277.24805 159.91992 C 277.24805 158.26627 277.38477 156.81445 277.6582 155.56445 C 277.93164 154.30143 278.32227 153.24674 278.83008 152.40039 C 279.33789 151.54101 279.94988 150.89649 280.66602 150.4668 C 281.39516 150.03712 282.20247 149.82227 283.08789 149.82227 z M 266.7793 157.55664 C 266.8184 157.9733 266.85085 158.40299 266.87695 158.8457 C 266.91605 159.27539 266.93555 159.7116 266.93555 160.1543 C 266.93555 161.80795 266.79883 163.26628 266.52539 164.5293 C 266.25195 165.7793 265.86134 166.82747 265.35352 167.67383 C 264.84571 168.52018 264.22721 169.1582 263.49805 169.58789 C 262.7819 170.01757 261.98112 170.23242 261.0957 170.23242 C 260.4056 170.23242 259.78711 170.12174 259.24023 169.90039 C 258.70638 169.66601 258.22461 169.347 257.79492 168.94336 C 257.37826 168.52669 257.02018 168.0319 256.7207 167.45898 C 256.42122 166.88607 256.17384 166.26106 255.97852 165.58398 L 266.7793 157.55664 z M 288.77148 157.55664 C 288.81058 157.9733 288.84304 158.40299 288.86914 158.8457 C 288.90824 159.27539 288.92773 159.7116 288.92773 160.1543 C 288.92773 161.80795 288.79101 163.26628 288.51758 164.5293 C 288.24414 165.7793 287.85351 166.82747 287.3457 167.67383 C 286.83789 168.52018 286.2194 169.1582 285.49023 169.58789 C 284.77412 170.01757 283.97331 170.23242 283.08789 170.23242 C 282.39779 170.23242 281.7793 170.12174 281.23242 169.90039 C 280.69857 169.66601 280.2168 169.347 279.78711 168.94336 C 279.37044 168.52669 279.01237 168.0319 278.71289 167.45898 C 278.41341 166.88607 278.16601 166.26106 277.9707 165.58398 L 288.77148 157.55664 z M 243.63672 169.62695 L 245.94727 172.79102 L 247.58008 172.79102 L 247.58008 169.62695 L 243.63672 169.62695 z M 319.51367 169.62695 L 319.51367 172.79102 L 324.30664 172.79102 C 324.24532 171.60054 324.22515 170.79657 324.16602 169.62695 L 319.51367 169.62695 z M 260.86719 186.44336 L 257.28711 188.32812 L 259.11328 190.83008 L 260.10547 190.29102 L 260.10547 192.1875 L 263.875 197.35156 L 263.875 186.44336 L 260.86719 186.44336 z M 282.85938 186.44336 L 274.73438 190.7207 L 275.98438 193.61133 L 282.09766 190.29102 L 282.09766 208.92383 L 275.53516 208.92383 L 275.53516 212.08789 L 291.57031 212.08789 L 291.57031 208.92383 L 285.86719 208.92383 L 285.86719 186.44336 L 282.85938 186.44336 z M 304.85156 186.44336 L 296.72656 190.7207 L 297.97656 193.61133 L 304.08984 190.29102 L 304.08984 208.92383 L 297.52734 208.92383 L 297.52734 212.08789 L 313.5625 212.08789 L 313.5625 208.92383 L 307.85938 208.92383 L 307.85938 186.44336 L 304.85156 186.44336 z M 417.83398 186.61328 C 417.78753 187.85181 417.76342 188.81117 417.71875 190.02734 C 417.89706 190.156 418.10868 190.23285 418.26953 190.38867 C 418.6862 190.77929 419.04427 191.24804 419.34375 191.79492 C 419.64323 192.34179 419.89062 192.94726 420.08594 193.61133 L 417.53516 195.49805 C 417.4883 196.82086 417.45087 198.02949 417.40625 199.32422 L 420.73047 196.85352 C 420.76957 197.27019 420.80224 197.69988 420.82812 198.14258 C 420.86722 198.57227 420.88672 199.00846 420.88672 199.45117 C 420.88672 201.10481 420.75 202.56315 420.47656 203.82617 C 420.20312 205.07617 419.8125 206.12435 419.30469 206.9707 C 418.79687 207.81705 418.17838 208.45509 417.44922 208.88477 C 417.33913 208.95082 417.19416 208.92848 417.08008 208.98438 C 417.04716 210.01829 417.00202 211.20293 416.9707 212.2168 C 417.69939 212.06091 418.37797 211.82954 418.99219 211.50195 C 420.17708 210.86393 421.16667 209.972 421.96094 208.82617 C 422.75521 207.66732 423.34766 206.28711 423.73828 204.68555 C 424.12891 203.07097 424.32422 201.2871 424.32422 199.33398 C 424.32422 197.06839 424.10937 195.10873 423.67969 193.45508 C 423.25 191.80144 422.63802 190.44076 421.84375 189.37305 C 421.04948 188.29233 420.09245 187.49804 418.97266 186.99023 C 418.61274 186.82283 418.21946 186.72688 417.83398 186.61328 z M 325.01172 187.4082 L 318.71875 190.7207 L 319.96875 193.61133 L 325.17578 190.7832 C 325.11539 189.60952 325.07483 188.60591 325.01172 187.4082 z M 87.9375 192.86328 A 179.98889 179.98889 0 0 0 84.167969 202.9707 L 84.167969 208.92383 L 82.511719 208.92383 A 179.98889 179.98889 0 0 0 81.824219 212.08789 L 93.640625 212.08789 L 93.640625 208.92383 L 87.9375 208.92383 L 87.9375 192.86328 z M 428.25195 203.79883 C 428.33044 204.23196 428.3029 204.81516 428.40625 205.21289 C 428.55035 205.76745 428.83638 206.09337 429.02148 206.58203 A 179.98889 179.98889 0 0 0 428.25195 203.79883 z M 319.51953 208.92383 L 319.51953 212.08789 L 326.21484 212.08789 C 326.17431 211.12974 326.10347 209.9031 326.06055 208.92383 L 319.51953 208.92383 z M 86.40625 225.50586 C 84.830737 225.50586 83.450517 225.82487 82.265625 226.46289 C 81.080734 227.08789 80.091142 227.97982 79.296875 229.13867 C 78.577524 230.19372 78.059368 231.4987 77.660156 232.95117 A 179.98889 179.98889 0 0 0 77.126953 240.40039 C 77.217356 241.85534 77.277768 243.35385 77.578125 244.50977 C 78.007812 246.16339 78.619795 247.5241 79.414062 248.5918 C 80.208332 249.65951 81.165368 250.45377 82.285156 250.97461 C 83.404943 251.48242 84.648442 251.73633 86.015625 251.73633 C 87.604159 251.73633 88.98438 251.42382 90.15625 250.79883 C 91.341142 250.1608 92.330733 249.26889 93.125 248.12305 C 93.919268 246.9642 94.511724 245.58398 94.902344 243.98242 C 95.292971 242.36784 95.488281 240.58398 95.488281 238.63086 C 95.488281 236.36523 95.27344 234.40559 94.84375 232.75195 C 94.41406 231.09831 93.80208 229.73763 93.007812 228.66992 C 92.213545 227.58919 91.256507 226.79492 90.136719 226.28711 C 89.016932 225.76627 87.773434 225.50586 86.40625 225.50586 z M 306.32812 225.50586 C 304.75264 225.50586 303.37239 225.82487 302.1875 226.46289 C 301.0026 227.08789 300.01302 227.97982 299.21875 229.13867 C 298.4375 230.2845 297.84505 231.66472 297.44141 233.2793 C 297.05078 234.89389 296.85547 236.67773 296.85547 238.63086 C 296.85547 240.03067 296.96488 241.27325 297.12891 242.43945 C 299.24917 245.26239 301.67224 248.46302 304.00195 251.54883 C 304.617 251.67277 305.26207 251.73633 305.9375 251.73633 C 307.52604 251.73633 308.90628 251.42382 310.07812 250.79883 C 311.26302 250.1608 312.25261 249.26889 313.04688 248.12305 C 313.84112 246.9642 314.43359 245.58398 314.82422 243.98242 C 315.21484 242.36784 315.41016 240.58398 315.41016 238.63086 C 315.41016 236.36523 315.19531 234.40559 314.76562 232.75195 C 314.33597 231.09831 313.72396 229.73763 312.92969 228.66992 C 312.13542 227.58919 311.17838 226.79492 310.05859 226.28711 C 308.9388 225.76627 307.69531 225.50586 306.32812 225.50586 z M 284.53125 225.52539 C 287.35794 229.35132 289.91256 232.8359 293.35742 237.4375 C 293.29177 235.69184 293.12224 234.09433 292.77344 232.75195 C 292.34375 231.09831 291.73177 229.73763 290.9375 228.66992 C 290.14323 227.58919 289.1862 226.79492 288.06641 226.28711 C 287.00244 225.79223 285.81856 225.55006 284.53125 225.52539 z M 416.51367 225.74023 C 416.24347 235.93856 416.17408 243.59668 416.0957 251.38477 L 424.57031 251.38477 L 424.57031 248.2207 L 418.86719 248.2207 L 418.86719 225.74023 L 416.51367 225.74023 z M 326.80273 226.3125 L 319.76562 230.01758 L 321.01562 232.9082 L 326.9082 229.70703 C 326.87365 228.58115 326.84176 227.47786 326.80273 226.3125 z M 433.58594 226.96289 C 432.6818 227.55222 431.81772 228.19635 431.17188 229.13867 C 430.39064 230.2845 429.79818 231.66472 429.39453 233.2793 C 429.00391 234.89389 428.80859 236.67773 428.80859 238.63086 C 428.80859 240.89648 429.02347 242.85613 429.45312 244.50977 C 429.88281 246.16339 430.49479 247.5241 431.28906 248.5918 C 432.08333 249.65951 433.04037 250.45377 434.16016 250.97461 C 434.67431 251.20777 435.30673 251.19811 435.87305 251.32422 A 179.98889 179.98889 0 0 0 435.79688 248.20703 C 435.44505 248.00742 435.08593 247.81966 434.78516 247.53711 C 434.36849 247.12044 434.01042 246.62565 433.71094 246.05273 C 433.41146 245.47982 433.16406 244.85481 432.96875 244.17773 L 435.41797 242.35742 A 179.98889 179.98889 0 0 0 435.15625 238.80273 L 432.32422 240.89648 C 432.28512 240.51888 432.25909 240.12825 432.24609 239.72461 L 432.24609 238.51367 C 432.24609 236.86002 432.38281 235.4082 432.65625 234.1582 C 432.92969 232.89518 433.32034 231.84049 433.82812 230.99414 C 433.92258 230.83429 434.06826 230.77975 434.16992 230.63477 A 179.98889 179.98889 0 0 0 433.58594 226.96289 z M 86.210938 228.41602 C 86.874997 228.41602 87.473961 228.5267 88.007812 228.74805 C 88.541666 228.96941 89.016928 229.28191 89.433594 229.68555 C 89.850257 230.07618 90.208336 230.54493 90.507812 231.0918 C 90.807291 231.63868 91.054688 232.24414 91.25 232.9082 L 80.449219 240.89648 C 80.410159 240.51888 80.384134 240.12825 80.371094 239.72461 L 80.371094 238.51367 C 80.371094 236.86002 80.507813 235.4082 80.78125 234.1582 C 81.054688 232.89518 81.445316 231.84049 81.953125 230.99414 C 82.460934 230.13476 83.07292 229.49024 83.789062 229.06055 C 84.518228 228.63087 85.325522 228.41602 86.210938 228.41602 z M 306.13281 228.41602 C 306.79687 228.41602 307.39583 228.5267 307.92969 228.74805 C 308.46354 228.96941 308.9388 229.28191 309.35547 229.68555 C 309.77213 230.07618 310.13021 230.54493 310.42969 231.0918 C 310.72917 231.63868 310.97657 232.24414 311.17188 232.9082 L 300.37109 240.89648 C 300.33199 240.51888 300.30597 240.12825 300.29297 239.72461 L 300.29297 238.51367 C 300.29297 236.86002 300.42972 235.4082 300.70312 234.1582 C 300.97656 232.89518 301.36719 231.84049 301.875 230.99414 C 302.38281 230.13476 302.99479 229.49024 303.71094 229.06055 C 304.4401 228.63087 305.2474 228.41602 306.13281 228.41602 z M 91.894531 236.15039 C 91.933591 236.56705 91.966138 236.99674 91.992188 237.43945 C 92.031246 237.86914 92.050781 238.30535 92.050781 238.74805 C 92.050781 240.4017 91.914063 241.86003 91.640625 243.12305 C 91.367188 244.37305 90.976559 245.42123 90.46875 246.26758 C 89.960941 247.11394 89.342447 247.75195 88.613281 248.18164 C 87.897139 248.61132 87.096351 248.82617 86.210938 248.82617 C 85.520834 248.82617 84.902341 248.71549 84.355469 248.49414 C 83.821615 248.25976 83.339843 247.94075 82.910156 247.53711 C 82.493492 247.12044 82.135414 246.62565 81.835938 246.05273 C 81.536459 245.47982 81.289063 244.85481 81.09375 244.17773 L 91.894531 236.15039 z M 311.81641 236.15039 C 311.85551 236.56705 311.88806 236.99674 311.91406 237.43945 C 311.95316 237.86914 311.97266 238.30535 311.97266 238.74805 C 311.97266 240.4017 311.83594 241.86003 311.5625 243.12305 C 311.28906 244.37305 310.89844 245.42123 310.39062 246.26758 C 309.88284 247.11394 309.26432 247.75195 308.53516 248.18164 C 307.81901 248.61132 307.01823 248.82617 306.13281 248.82617 C 305.44271 248.82617 304.82422 248.71549 304.27734 248.49414 C 303.74349 248.25976 303.26172 247.94075 302.83203 247.53711 C 302.41536 247.12044 302.05729 246.62565 301.75781 246.05273 C 301.45833 245.47982 301.21094 244.85481 301.01562 244.17773 L 311.81641 236.15039 z M 327.12891 236.80859 L 327.12891 248.2207 L 320.56641 248.2207 L 320.56641 251.38477 L 327.33984 251.38477 C 327.32906 247.04673 327.25918 242.20179 327.12891 236.80859 z M 189.07422 245.29688 C 188.72678 245.60088 188.43127 245.95762 188.17578 246.35352 C 188.51837 247.19168 188.90447 247.95928 189.375 248.5918 C 190.16927 249.65951 191.1263 250.45377 192.24609 250.97461 C 193.20732 251.41051 194.27836 251.61992 195.42188 251.68164 C 194.43001 250.40699 193.78022 249.55243 192.76562 248.25 C 192.10951 247.2658 190.87859 246.28106 189.07422 245.29688 z M 86.101562 263.73633 C 84.525968 263.73633 83.145832 264.05534 81.960938 264.69336 C 80.776041 265.31836 79.786385 266.21029 78.992188 267.36914 C 78.210888 268.51497 77.618541 269.89519 77.214844 271.50977 C 77.177067 271.66592 77.192327 271.86802 77.158203 272.02734 A 179.98889 179.98889 0 0 0 78.851562 286.25 C 78.955776 286.41125 78.99799 286.67254 79.109375 286.82227 C 79.903572 287.88994 80.860672 288.68425 81.980469 289.20508 C 83.100166 289.71289 84.343741 289.9668 85.710938 289.9668 C 87.299532 289.9668 88.679668 289.6543 89.851562 289.0293 C 91.036359 288.39128 92.026015 287.49932 92.820312 286.35352 C 93.614612 285.19466 94.207059 283.81445 94.597656 282.21289 C 94.988356 280.59831 95.183594 278.81445 95.183594 276.86133 C 95.183594 274.59571 94.968662 272.63607 94.539062 270.98242 C 94.109365 269.32878 93.497422 267.9681 92.703125 266.90039 C 91.908828 265.81966 90.951828 265.02539 89.832031 264.51758 C 88.712234 263.99675 87.468659 263.73633 86.101562 263.73633 z M 196.0625 263.73633 C 194.487 263.73633 193.10675 264.05534 191.92188 264.69336 C 190.73698 265.31836 189.74742 266.21029 188.95312 267.36914 C 188.24532 268.40735 187.71426 269.66484 187.31641 271.08789 C 187.3647 275.28957 187.36602 278.58071 187.44336 283.34375 C 187.85784 284.70873 188.3821 285.89716 189.07031 286.82227 C 189.86461 287.88994 190.82161 288.68425 191.94141 289.20508 C 193.06121 289.71289 194.30468 289.9668 195.67188 289.9668 C 197.26035 289.9668 198.6406 289.6543 199.8125 289.0293 C 200.9974 288.39128 201.98705 287.49932 202.78125 286.35352 C 203.57555 285.19466 204.16799 283.81445 204.55859 282.21289 C 204.94919 280.59831 205.14453 278.81445 205.14453 276.86133 C 205.14453 274.59571 204.9297 272.63607 204.5 270.98242 C 204.0703 269.32878 203.45826 267.9681 202.66406 266.90039 C 201.86976 265.81966 200.91267 265.02539 199.79297 264.51758 C 198.67317 263.99675 197.4297 263.73633 196.0625 263.73633 z M 415.98438 263.73633 C 415.96631 263.73633 415.9516 263.7421 415.93359 263.74219 L 415.93359 266.67383 C 416.53459 266.69021 417.09511 266.77497 417.58594 266.97852 C 418.11984 267.19987 418.59502 267.51237 419.01172 267.91602 C 419.42842 268.30664 419.78644 268.77539 420.08594 269.32227 C 420.38544 269.86914 420.63285 270.47461 420.82812 271.13867 L 415.93359 274.75781 L 415.93359 278.49805 L 421.47266 274.38086 C 421.51166 274.79753 421.54431 275.22722 421.57031 275.66992 C 421.60931 276.09961 421.62891 276.53581 421.62891 276.97852 C 421.62891 278.63213 421.49225 280.0905 421.21875 281.35352 C 420.94535 282.60349 420.55475 283.65169 420.04688 284.49805 C 419.53908 285.3444 418.92051 285.98242 418.19141 286.41211 C 417.51832 286.81593 416.75619 286.99327 415.93359 287.01758 L 415.93359 289.93164 C 417.3716 289.88759 418.65189 289.60661 419.73438 289.0293 C 420.91915 288.39128 421.90885 287.49932 422.70312 286.35352 C 423.49742 285.19466 424.08987 283.81445 424.48047 282.21289 C 424.87117 280.59831 425.06641 278.81445 425.06641 276.86133 C 425.06641 274.59571 424.85155 272.63607 424.42188 270.98242 C 423.99228 269.32878 423.38024 267.9681 422.58594 266.90039 C 421.79164 265.81966 420.83464 265.02539 419.71484 264.51758 C 418.59504 263.99675 417.35145 263.73633 415.98438 263.73633 z M 326.82617 264.37109 L 319.46094 268.24805 L 320.49414 270.63867 C 320.68069 270.74557 320.86966 270.86162 321.05273 270.95312 L 326.33789 268.08203 C 326.54423 267.10987 326.68344 265.72491 326.82617 264.37109 z M 435.33398 265.13477 L 429.42188 268.24805 L 430.67188 271.13867 L 435.07617 268.74609 A 179.98889 179.98889 0 0 0 435.33398 265.13477 z M 85.90625 266.64648 C 86.570347 266.64648 87.169328 266.75716 87.703125 266.97852 C 88.237022 267.19987 88.712209 267.51237 89.128906 267.91602 C 89.545606 268.30664 89.903625 268.77539 90.203125 269.32227 C 90.502625 269.86914 90.750015 270.47461 90.945312 271.13867 L 80.144531 279.12695 C 80.105531 278.74935 80.079416 278.35872 80.066406 277.95508 L 80.066406 276.74414 C 80.066406 275.0905 80.203065 273.63867 80.476562 272.38867 C 80.749962 271.12565 81.140638 270.07096 81.648438 269.22461 C 82.156335 268.36524 82.768178 267.7207 83.484375 267.29102 C 84.213572 266.86133 85.020753 266.64648 85.90625 266.64648 z M 195.86719 266.64648 C 196.53119 266.64648 197.13026 266.75716 197.66406 266.97852 C 198.19796 267.19987 198.67324 267.51237 199.08984 267.91602 C 199.50654 268.30664 199.86466 268.77539 200.16406 269.32227 C 200.46356 269.86914 200.71095 270.47461 200.90625 271.13867 L 190.10547 279.12695 C 190.06647 278.74935 190.04034 278.35872 190.02734 277.95508 L 190.02734 276.74414 C 190.02734 275.0905 190.1641 273.63867 190.4375 272.38867 C 190.7109 271.12565 191.10158 270.07096 191.60938 269.22461 C 192.11715 268.36524 192.72921 267.7207 193.44531 267.29102 C 194.17451 266.86133 194.98179 266.64648 195.86719 266.64648 z M 209.64648 270.07227 C 209.47866 270.54091 209.29711 270.99313 209.16797 271.50977 C 208.77727 273.12432 208.58203 274.90821 208.58203 276.86133 C 208.58203 279.12695 208.79686 281.08661 209.22656 282.74023 C 209.65616 284.39387 210.2682 285.75456 211.0625 286.82227 C 211.8568 287.88994 212.81379 288.68425 213.93359 289.20508 C 215.05339 289.71289 216.29686 289.9668 217.66406 289.9668 C 219.25256 289.9668 220.63279 289.6543 221.80469 289.0293 C 222.39215 288.71297 222.93043 288.33177 223.42188 287.89062 C 222.80078 287.0799 222.02337 286.07974 221.38672 285.25 C 221.0258 285.6641 220.70415 286.1514 220.26172 286.41211 C 219.54562 286.8418 218.74475 287.05664 217.85938 287.05664 C 217.16928 287.05664 216.55081 286.94596 216.00391 286.72461 C 215.47011 286.49024 214.98829 286.17122 214.55859 285.76758 C 214.14199 285.35091 213.78385 284.85612 213.48438 284.2832 C 213.18488 283.71029 212.93749 283.08528 212.74219 282.4082 L 216.83594 279.36523 C 216.27509 278.63648 215.56593 277.72649 214.99414 276.98438 L 212.09766 279.12695 C 212.05866 278.74935 212.03253 278.35872 212.01953 277.95508 L 212.01953 276.74414 C 212.01953 275.5243 212.17348 274.53145 212.32227 273.53125 C 211.46852 272.42492 210.52331 271.20681 209.64648 270.07227 z M 91.589844 274.38086 C 91.628844 274.79753 91.6615 275.22722 91.6875 275.66992 C 91.7265 276.09961 91.746094 276.53581 91.746094 276.97852 C 91.746094 278.63213 91.609335 280.0905 91.335938 281.35352 C 91.062438 282.60349 90.671862 283.65169 90.164062 284.49805 C 89.656265 285.3444 89.037791 285.98242 88.308594 286.41211 C 87.592494 286.8418 86.791647 287.05664 85.90625 287.05664 C 85.216153 287.05664 84.597681 286.94596 84.050781 286.72461 C 83.516984 286.49024 83.035166 286.17122 82.605469 285.76758 C 82.188769 285.35091 81.83075 284.85612 81.53125 284.2832 C 81.23175 283.71029 80.984362 283.08528 80.789062 282.4082 L 91.589844 274.38086 z M 201.55078 274.38086 C 201.58978 274.79753 201.62244 275.22722 201.64844 275.66992 C 201.68744 276.09961 201.70703 276.53581 201.70703 276.97852 C 201.70703 278.63213 201.57025 280.0905 201.29688 281.35352 C 201.02348 282.60349 200.6328 283.65169 200.125 284.49805 C 199.6172 285.3444 198.99863 285.98242 198.26953 286.41211 C 197.55333 286.8418 196.75259 287.05664 195.86719 287.05664 C 195.17709 287.05664 194.55862 286.94596 194.01172 286.72461 C 193.47792 286.49024 192.99611 286.17122 192.56641 285.76758 C 192.14981 285.35091 191.79169 284.85612 191.49219 284.2832 C 191.19269 283.71029 190.9453 283.08528 190.75 282.4082 L 201.55078 274.38086 z M 430.22266 286.45117 L 430.22266 289.61523 L 432.41602 289.61523 A 179.98889 179.98889 0 0 0 433.10352 286.45117 L 430.22266 286.45117 z M 218.42578 303.0332 C 216.85028 303.0332 215.47006 303.35224 214.28516 303.99023 C 213.10036 304.61523 212.11071 305.50716 211.31641 306.66602 C 210.53511 307.81182 209.94266 309.19206 209.53906 310.80664 C 209.14836 312.42122 208.95313 314.20511 208.95312 316.1582 C 208.95312 318.42383 209.16806 320.38347 209.59766 322.03711 C 210.02736 323.69075 210.63929 325.05143 211.43359 326.11914 C 212.22789 327.18685 213.18489 327.98112 214.30469 328.50195 C 215.42449 329.00977 216.66806 329.26367 218.03516 329.26367 C 219.62373 329.26367 221.00388 328.95117 222.17578 328.32617 C 223.36068 327.68815 224.35033 326.79622 225.14453 325.65039 C 225.93883 324.49154 226.53118 323.1113 226.92188 321.50977 C 227.31245 319.89519 227.50781 318.11133 227.50781 316.1582 C 227.50781 313.89261 227.29298 311.93294 226.86328 310.2793 C 226.43358 308.62565 225.82164 307.26494 225.02734 306.19727 C 224.23314 305.11654 223.27605 304.32227 222.15625 303.81445 C 221.03645 303.29362 219.79298 303.0332 218.42578 303.0332 z M 416.35547 303.0332 C 416.20558 303.0332 416.07994 303.07235 415.93359 303.07812 L 415.93359 306.00391 C 416.01508 306.00014 416.07731 305.94336 416.16016 305.94336 C 416.82426 305.94336 417.42323 306.05404 417.95703 306.27539 C 418.49093 306.49675 418.96611 306.80925 419.38281 307.21289 C 419.79951 307.60352 420.15753 308.07227 420.45703 308.61914 C 420.75653 309.16602 421.00392 309.77149 421.19922 310.43555 L 415.93359 314.33008 L 415.93359 318.07031 L 421.84375 313.67773 C 421.88275 314.09439 421.91541 314.52409 421.94141 314.9668 C 421.98041 315.39649 422 315.83268 422 316.27539 C 422 317.92904 421.86334 319.38737 421.58984 320.65039 C 421.31644 321.90039 420.92587 322.94857 420.41797 323.79492 C 419.91017 324.64128 419.2916 325.27929 418.5625 325.70898 C 417.8463 326.13866 417.04556 326.35352 416.16016 326.35352 C 416.07586 326.35352 416.01575 326.3158 415.93359 326.3125 L 415.93359 329.25977 C 415.94451 329.2598 415.95391 329.26367 415.96484 329.26367 C 417.55344 329.26367 418.93367 328.95117 420.10547 328.32617 C 420.42444 328.15442 420.61364 327.81402 420.9043 327.60547 A 179.98889 179.98889 0 0 0 425.37695 315.61133 C 425.3407 313.60813 425.18269 311.77909 424.79297 310.2793 C 424.36337 308.62565 423.75133 307.26494 422.95703 306.19727 C 422.16273 305.11654 421.20574 304.32227 420.08594 303.81445 C 418.96614 303.29362 417.72267 303.0332 416.35547 303.0332 z M 86.042969 303.26758 L 82.912109 304.91602 A 179.98889 179.98889 0 0 0 83.761719 307.93945 L 85.28125 307.11523 L 85.28125 312.01367 A 179.98889 179.98889 0 0 0 89.050781 322.12305 L 89.050781 303.26758 L 86.042969 303.26758 z M 196.00391 303.26758 L 187.94336 307.51172 C 187.9447 307.57411 187.94592 307.64066 187.94727 307.70312 L 189.12891 310.43555 L 195.24219 307.11523 L 195.24219 325.74805 L 188.67969 325.74805 L 188.67969 328.91211 L 204.71484 328.91211 L 204.71484 325.74805 L 199.01172 325.74805 L 199.01172 303.26758 L 196.00391 303.26758 z M 235.83398 304.29883 C 234.85594 304.90159 233.99497 305.66461 233.30859 306.66602 C 232.52729 307.81182 231.93495 309.19206 231.53125 310.80664 C 231.14065 312.42122 230.94531 314.20511 230.94531 316.1582 C 230.94531 318.42383 231.16014 320.38347 231.58984 322.03711 C 232.01954 323.69075 232.63148 325.05143 233.42578 326.11914 C 234.21998 327.18685 235.17708 327.98112 236.29688 328.50195 C 237.41665 329.00977 238.66017 329.26367 240.02734 329.26367 C 241.61594 329.26367 242.99607 328.95117 244.16797 328.32617 C 245.35287 327.68815 246.34242 326.79622 247.13672 325.65039 C 247.91852 324.50978 248.49983 323.14956 248.89062 321.58008 C 247.4187 319.63441 247.44614 319.65518 245.93359 317.65625 C 245.87452 318.70361 245.83945 319.786 245.65234 320.65039 C 245.37884 321.90039 244.98827 322.94857 244.48047 323.79492 C 243.97267 324.64128 243.3542 325.27929 242.625 325.70898 C 241.9089 326.13866 241.10806 326.35352 240.22266 326.35352 C 239.53256 326.35352 238.91409 326.24283 238.36719 326.02148 C 237.83339 325.7871 237.35155 325.4681 236.92188 325.06445 C 236.50518 324.64779 236.14716 324.153 235.84766 323.58008 C 235.54816 323.00716 235.30077 322.38216 235.10547 321.70508 L 244.00195 315.09375 C 243.51901 314.44346 242.69736 313.3811 242.19336 312.70508 L 234.46094 318.42383 C 234.42194 318.04623 234.39581 317.6556 234.38281 317.25195 L 234.38281 316.04102 C 234.38281 314.38737 234.51947 312.93555 234.79297 311.68555 C 235.06637 310.42253 235.45694 309.36783 235.96484 308.52148 C 236.4366 307.72312 237.01831 307.15213 237.66992 306.72461 C 237.10467 305.97278 236.42094 305.07719 235.83398 304.29883 z M 218.23047 305.94336 C 218.89447 305.94336 219.49354 306.05404 220.02734 306.27539 C 220.56124 306.49675 221.03645 306.80925 221.45312 307.21289 C 221.86982 307.60352 222.22794 308.07227 222.52734 308.61914 C 222.82684 309.16602 223.07423 309.77149 223.26953 310.43555 L 212.46875 318.42383 C 212.42975 318.04623 212.40362 317.6556 212.39062 317.25195 L 212.39062 316.04102 C 212.39062 314.38737 212.52738 312.93555 212.80078 311.68555 C 213.07418 310.42253 213.46486 309.36783 213.97266 308.52148 C 214.48046 307.66213 215.09249 307.01758 215.80859 306.58789 C 216.53779 306.1582 217.34507 305.94336 218.23047 305.94336 z M 223.91406 313.67773 C 223.95306 314.09439 223.98572 314.52409 224.01172 314.9668 C 224.05072 315.39649 224.07031 315.83268 224.07031 316.27539 C 224.07031 317.92904 223.93356 319.38737 223.66016 320.65039 C 223.38666 321.90039 222.99608 322.94857 222.48828 323.79492 C 221.98048 324.64128 221.36201 325.27929 220.63281 325.70898 C 219.91671 326.13866 219.11587 326.35352 218.23047 326.35352 C 217.54037 326.35352 216.9219 326.24283 216.375 326.02148 C 215.8412 325.7871 215.35939 325.4681 214.92969 325.06445 C 214.51309 324.64779 214.15497 324.153 213.85547 323.58008 C 213.55597 323.00716 213.30858 322.38216 213.11328 321.70508 L 223.91406 313.67773 z M 90.402344 325.74805 A 179.98889 179.98889 0 0 0 91.582031 328.91211 L 94.451172 328.91211 C 94.503026 327.79547 94.538089 326.84437 94.587891 325.74805 L 90.402344 325.74805 z M 197.11719 342.32812 C 195.54159 342.32812 194.16146 342.64714 192.97656 343.28516 C 191.79166 343.91016 190.80211 344.80209 190.00781 345.96094 C 189.56926 346.6041 189.20626 347.34 188.88672 348.13086 C 189.04744 353.81383 189.16506 358.78066 189.29688 363.98438 C 189.55255 364.49399 189.8131 364.9948 190.125 365.41406 C 190.9193 366.48177 191.87629 367.27604 192.99609 367.79688 C 194.11589 368.30466 195.35946 368.55859 196.72656 368.55859 C 198.31516 368.55859 199.69529 368.24609 200.86719 367.62109 C 202.05209 366.98307 203.04164 366.09115 203.83594 364.94531 C 204.63024 363.78646 205.22258 362.40625 205.61328 360.80469 C 206.00388 359.19011 206.19922 357.40624 206.19922 355.45312 C 206.19922 353.18752 205.98439 351.22786 205.55469 349.57422 C 205.12499 347.92058 204.51305 346.5599 203.71875 345.49219 C 202.92455 344.41146 201.96746 343.61716 200.84766 343.10938 C 199.72786 342.58854 198.48439 342.32813 197.11719 342.32812 z M 219.10938 342.32812 C 217.53378 342.32812 216.15365 342.64714 214.96875 343.28516 C 213.78385 343.91016 212.7943 344.80209 212 345.96094 C 211.2187 347.10677 210.62636 348.48698 210.22266 350.10156 C 209.83206 351.71615 209.63672 353.50002 209.63672 355.45312 C 209.63672 357.71874 209.85155 359.67839 210.28125 361.33203 C 210.71095 362.98568 211.32289 364.34636 212.11719 365.41406 C 212.91139 366.48177 213.86848 367.27604 214.98828 367.79688 C 216.10808 368.30466 217.35155 368.55859 218.71875 368.55859 C 220.30735 368.55859 221.68748 368.24609 222.85938 367.62109 C 224.04415 366.98307 225.03385 366.09115 225.82812 364.94531 C 226.62242 363.78646 227.21487 362.40625 227.60547 360.80469 C 227.99617 359.19011 228.19141 357.40624 228.19141 355.45312 C 228.19141 353.18752 227.97645 351.22786 227.54688 349.57422 C 227.11718 347.92058 226.50524 346.5599 225.71094 345.49219 C 224.91664 344.41146 223.95964 343.61716 222.83984 343.10938 C 221.72004 342.58854 220.47645 342.32813 219.10938 342.32812 z M 263.09375 342.32812 C 261.51825 342.32812 260.13802 342.64714 258.95312 343.28516 C 257.76825 343.91016 256.77855 344.80209 255.98438 345.96094 C 255.20308 347.10677 254.61073 348.48698 254.20703 350.10156 C 253.81643 351.71615 253.62109 353.50002 253.62109 355.45312 C 253.62109 357.71874 253.83595 359.67839 254.26562 361.33203 C 254.69532 362.98568 255.30736 364.34636 256.10156 365.41406 C 256.89586 366.48177 257.85286 367.27604 258.97266 367.79688 C 260.09246 368.30466 261.33595 368.55859 262.70312 368.55859 C 264.29162 368.55859 265.67195 368.24609 266.84375 367.62109 C 268.02865 366.98307 269.0182 366.09115 269.8125 364.94531 C 270.6068 363.78646 271.19924 362.40625 271.58984 360.80469 C 271.98044 359.19011 272.17578 357.40624 272.17578 355.45312 C 272.17578 354.31213 272.1207 353.25141 272.01172 352.26562 C 269.13389 348.45309 267.7709 346.62595 264.64062 342.48242 C 264.1394 342.40123 263.63354 342.32813 263.09375 342.32812 z M 240.67188 342.5625 L 232.54688 346.83984 L 233.79688 349.73047 L 239.91016 346.41016 L 239.91016 365.04297 L 233.34766 365.04297 L 233.34766 368.20703 L 249.38281 368.20703 L 249.38281 365.04297 L 243.67969 365.04297 L 243.67969 342.5625 L 240.67188 342.5625 z M 196.92188 345.23828 C 197.58585 345.23828 198.18495 345.34896 198.71875 345.57031 C 199.25265 345.79167 199.72783 346.10417 200.14453 346.50781 C 200.56123 346.89844 200.91935 347.36719 201.21875 347.91406 C 201.51825 348.46094 201.76564 349.06641 201.96094 349.73047 L 191.16016 357.71875 C 191.12116 357.34115 191.09503 356.95049 191.08203 356.54688 L 191.08203 355.33594 C 191.08203 353.68229 191.21879 352.23047 191.49219 350.98047 C 191.76559 349.71745 192.15626 348.66276 192.66406 347.81641 C 193.17186 346.95703 193.7839 346.3125 194.5 345.88281 C 195.2292 345.45313 196.03648 345.23828 196.92188 345.23828 z M 218.91406 345.23828 C 219.57816 345.23828 220.17714 345.34896 220.71094 345.57031 C 221.24484 345.79167 221.72002 346.10417 222.13672 346.50781 C 222.55342 346.89844 222.91144 347.36719 223.21094 347.91406 C 223.51044 348.46094 223.75785 349.06641 223.95312 349.73047 L 213.15234 357.71875 C 213.11334 357.34115 213.08722 356.95049 213.07422 356.54688 L 213.07422 355.33594 C 213.07422 353.68229 213.21088 352.23047 213.48438 350.98047 C 213.75775 349.71745 214.14835 348.66276 214.65625 347.81641 C 215.16405 346.95703 215.77609 346.3125 216.49219 345.88281 C 217.22139 345.45313 218.02866 345.23828 218.91406 345.23828 z M 262.89844 345.23828 C 263.56254 345.23828 264.16141 345.34896 264.69531 345.57031 C 265.22911 345.79167 265.70439 346.10417 266.12109 346.50781 C 266.53769 346.89844 266.89581 347.36719 267.19531 347.91406 C 267.49481 348.46094 267.7422 349.06641 267.9375 349.73047 L 257.13672 357.71875 C 257.09772 357.34115 257.07159 356.95049 257.05859 356.54688 L 257.05859 355.33594 C 257.05859 353.68229 257.19535 352.23047 257.46875 350.98047 C 257.74225 349.71745 258.13285 348.66276 258.64062 347.81641 C 259.14842 346.95703 259.76036 346.3125 260.47656 345.88281 C 261.20566 345.45313 262.01304 345.23828 262.89844 345.23828 z M 202.60547 352.97266 C 202.64447 353.38932 202.67714 353.81901 202.70312 354.26172 C 202.74212 354.69141 202.76172 355.12761 202.76172 355.57031 C 202.76172 357.22396 202.62496 358.68229 202.35156 359.94531 C 202.07816 361.19531 201.68749 362.24348 201.17969 363.08984 C 200.67189 363.93619 200.05342 364.57422 199.32422 365.00391 C 198.60812 365.43359 197.80725 365.64844 196.92188 365.64844 C 196.23178 365.64844 195.61331 365.53776 195.06641 365.31641 C 194.53261 365.08203 194.05079 364.76299 193.62109 364.35938 C 193.20449 363.94271 192.84635 363.44792 192.54688 362.875 C 192.24738 362.30209 191.99999 361.67708 191.80469 361 L 202.60547 352.97266 z M 224.59766 352.97266 C 224.63666 353.38932 224.66931 353.81901 224.69531 354.26172 C 224.73431 354.69141 224.75391 355.12761 224.75391 355.57031 C 224.75391 357.22396 224.61715 358.68229 224.34375 359.94531 C 224.07025 361.19531 223.67965 362.24348 223.17188 363.08984 C 222.66408 363.93619 222.04561 364.57422 221.31641 365.00391 C 220.60031 365.43359 219.79946 365.64844 218.91406 365.64844 C 218.22396 365.64844 217.60549 365.53776 217.05859 365.31641 C 216.52479 365.08203 216.04298 364.76299 215.61328 364.35938 C 215.19658 363.94271 214.83856 363.44792 214.53906 362.875 C 214.23956 362.30209 213.99215 361.67708 213.79688 361 L 224.59766 352.97266 z M 268.58203 352.97266 C 268.62103 353.38932 268.65369 353.81901 268.67969 354.26172 C 268.71869 354.69141 268.73828 355.12761 268.73828 355.57031 C 268.73828 357.22396 268.60152 358.68229 268.32812 359.94531 C 268.05465 361.19531 267.66405 362.24348 267.15625 363.08984 C 266.64845 363.93619 266.02998 364.57422 265.30078 365.00391 C 264.58468 365.43359 263.78384 365.64844 262.89844 365.64844 C 262.20834 365.64844 261.58987 365.53776 261.04297 365.31641 C 260.50907 365.08203 260.02736 364.76299 259.59766 364.35938 C 259.18096 363.94271 258.82284 363.44792 258.52344 362.875 C 258.22394 362.30209 257.97655 361.67708 257.78125 361 L 268.58203 352.97266 z M 275.69922 357.16016 C 275.78379 358.69493 275.94388 360.12391 276.25781 361.33203 C 276.68751 362.98568 277.29955 364.34636 278.09375 365.41406 C 278.88805 366.48177 279.84504 367.27604 280.96484 367.79688 C 281.95904 368.24771 283.06665 368.46505 284.25586 368.51562 C 281.40212 364.72836 278.89309 361.39338 275.69922 357.16016 z M 197.12305 381.625 C 195.54755 381.625 194.16732 381.94401 192.98242 382.58203 C 191.79752 383.20703 190.80787 384.09896 190.01367 385.25781 C 189.95318 385.34653 189.91175 385.45925 189.85352 385.55078 C 190.00776 393.14292 190.02193 398.38958 190.0957 404.64844 C 190.10912 404.66679 190.11734 404.69276 190.13086 404.71094 C 190.92516 405.77865 191.88215 406.57292 193.00195 407.09375 C 194.12175 407.60156 195.36522 407.85547 196.73242 407.85547 C 198.32092 407.85547 199.70125 407.54297 200.87305 406.91797 C 202.05795 406.27995 203.0475 405.38802 203.8418 404.24219 C 204.636 403.08334 205.22854 401.70312 205.61914 400.10156 C 206.00974 398.48698 206.20508 396.70312 206.20508 394.75 C 206.20508 392.48438 205.99025 390.52474 205.56055 388.87109 C 205.13085 387.21748 204.51891 385.85677 203.72461 384.78906 C 202.93031 383.70834 201.97329 382.91406 200.85352 382.40625 C 199.73372 381.88542 198.49025 381.625 197.12305 381.625 z M 219.11523 381.625 C 217.53976 381.625 216.15951 381.94401 214.97461 382.58203 C 213.78971 383.20703 212.80016 384.09896 212.00586 385.25781 C 211.22466 386.40365 210.63212 387.78386 210.22852 389.39844 C 209.83792 391.01302 209.64258 392.79688 209.64258 394.75 C 209.64258 397.01562 209.85741 398.97526 210.28711 400.62891 C 210.71681 402.28252 211.32885 403.64323 212.12305 404.71094 C 212.91735 405.77865 213.87434 406.57292 214.99414 407.09375 C 216.11394 407.60156 217.35741 407.85547 218.72461 407.85547 C 220.31311 407.85547 221.69336 407.54297 222.86523 406.91797 C 224.05013 406.27995 225.03971 405.38802 225.83398 404.24219 C 226.62818 403.08334 227.22073 401.70312 227.61133 400.10156 C 228.00193 398.48698 228.19727 396.70312 228.19727 394.75 C 228.19727 392.48438 227.98243 390.52474 227.55273 388.87109 C 227.12303 387.21748 226.511 385.85677 225.7168 384.78906 C 224.9225 383.70834 223.9655 382.91406 222.8457 382.40625 C 221.7259 381.88542 220.48243 381.625 219.11523 381.625 z M 240.67773 381.85938 L 232.55273 386.13672 L 233.80273 389.02734 L 239.91602 385.70703 L 239.91602 404.33984 L 233.35352 404.33984 L 233.35352 407.50391 L 249.38867 407.50391 L 249.38867 404.33984 L 243.68555 404.33984 L 243.68555 381.85938 L 240.67773 381.85938 z M 262.66992 381.85938 L 254.54492 386.13672 L 255.79492 389.02734 L 261.9082 385.70703 L 261.9082 404.33984 L 255.3457 404.33984 L 255.3457 407.50391 L 271.38086 407.50391 L 271.38086 404.33984 L 265.67773 404.33984 L 265.67773 381.85938 L 262.66992 381.85938 z M 284.66211 381.85938 L 276.53711 386.13672 L 277.78711 389.02734 L 283.90039 385.70703 L 283.90039 404.33984 L 277.33789 404.33984 L 277.33789 407.50391 L 293.37305 407.50391 L 293.37305 404.33984 L 287.66992 404.33984 L 287.66992 381.85938 L 284.66211 381.85938 z M 196.92773 384.53516 C 197.59183 384.53516 198.19071 384.64583 198.72461 384.86719 C 199.25841 385.08854 199.73369 385.40104 200.15039 385.80469 C 200.56699 386.19531 200.92511 386.66406 201.22461 387.21094 C 201.52411 387.75781 201.7715 388.36327 201.9668 389.02734 L 191.16602 397.01562 C 191.12702 396.63804 191.10089 396.2474 191.08789 395.84375 L 191.08789 394.63281 C 191.08789 392.97917 191.22465 391.52733 191.49805 390.27734 C 191.77155 389.01435 192.16212 387.95964 192.66992 387.11328 C 193.17772 386.25391 193.78966 385.60938 194.50586 385.17969 C 195.23496 384.75 196.04236 384.53516 196.92773 384.53516 z M 218.91992 384.53516 C 219.58402 384.53516 220.1829 384.64583 220.7168 384.86719 C 221.2506 385.08854 221.72588 385.40104 222.14258 385.80469 C 222.55918 386.19531 222.9173 386.66406 223.2168 387.21094 C 223.5163 387.75781 223.76368 388.36327 223.95898 389.02734 L 213.1582 397.01562 C 213.1192 396.63804 213.09308 396.2474 213.08008 395.84375 L 213.08008 394.63281 C 213.08008 392.97917 213.21683 391.52733 213.49023 390.27734 C 213.76373 389.01435 214.15431 387.95964 214.66211 387.11328 C 215.16991 386.25391 215.78185 385.60938 216.49805 385.17969 C 217.22715 384.75 218.03452 384.53516 218.91992 384.53516 z M 298.74805 387.74805 C 298.54874 388.27806 298.34561 388.80513 298.19727 389.39844 C 297.80667 391.01302 297.61133 392.79688 297.61133 394.75 C 297.61133 397.01562 297.82616 398.97526 298.25586 400.62891 C 298.68556 402.28252 299.2975 403.64323 300.0918 404.71094 C 300.886 405.77865 301.84309 406.57292 302.96289 407.09375 C 304.08269 407.60156 305.32616 407.85547 306.69336 407.85547 C 308.28196 407.85547 309.66211 407.54297 310.83398 406.91797 C 311.39391 406.61647 311.90231 406.24888 312.375 405.83398 C 311.96957 405.29174 310.80093 403.74821 310.37695 403.18164 C 310.02617 403.57557 309.71756 404.04943 309.29102 404.30078 C 308.57482 404.73047 307.77417 404.94531 306.88867 404.94531 C 306.19857 404.94531 305.5801 404.83464 305.0332 404.61328 C 304.4993 404.37891 304.01759 404.0599 303.58789 403.65625 C 303.17119 403.23959 302.81317 402.74476 302.51367 402.17188 C 302.21427 401.59896 301.96678 400.97393 301.77148 400.29688 L 305.89453 397.23242 C 305.47253 396.66945 304.52123 395.41108 304.08398 394.82812 L 301.12695 397.01562 C 301.08795 396.63804 301.06183 396.2474 301.04883 395.84375 L 301.04883 394.63281 C 301.04883 393.33958 301.20189 392.27293 301.36914 391.22656 C 300.70335 390.33963 299.44576 388.67682 298.74805 387.74805 z M 202.61133 392.26953 C 202.65033 392.6862 202.68298 393.11589 202.70898 393.55859 C 202.74798 393.98828 202.76758 394.42448 202.76758 394.86719 C 202.76758 396.52083 202.63082 397.97917 202.35742 399.24219 C 202.08392 400.49219 201.69335 401.54037 201.18555 402.38672 C 200.67775 403.23307 200.05928 403.8711 199.33008 404.30078 C 198.61398 404.73047 197.81313 404.94531 196.92773 404.94531 C 196.23766 404.94531 195.61917 404.83464 195.07227 404.61328 C 194.53837 404.37891 194.05665 404.0599 193.62695 403.65625 C 193.21025 403.23959 192.85213 402.74476 192.55273 402.17188 C 192.25323 401.59896 192.00585 400.97393 191.81055 400.29688 L 202.61133 392.26953 z M 224.60352 392.26953 C 224.64252 392.6862 224.67527 393.11589 224.70117 393.55859 C 224.74017 393.98828 224.75977 394.42448 224.75977 394.86719 C 224.75977 396.52083 224.62311 397.97917 224.34961 399.24219 C 224.07621 400.49219 223.68553 401.54037 223.17773 402.38672 C 222.66993 403.23307 222.05144 403.8711 221.32227 404.30078 C 220.60617 404.73047 219.80532 404.94531 218.91992 404.94531 C 218.22972 404.94531 217.61135 404.83464 217.06445 404.61328 C 216.53055 404.37891 216.04884 404.0599 215.61914 403.65625 C 215.20244 403.23959 214.84432 402.74476 214.54492 402.17188 C 214.24542 401.59896 213.99803 400.97393 213.80273 400.29688 L 224.60352 392.26953 z M 220.16211 420.92188 C 218.58661 420.92188 217.20638 421.24089 216.02148 421.87891 C 214.83661 422.50391 213.84703 423.39584 213.05273 424.55469 C 212.27156 425.70052 211.67899 427.08073 211.27539 428.69531 C 211.18245 429.07949 211.20755 429.56541 211.13672 429.96875 A 179.98889 179.98889 0 0 0 214.43164 430.68555 C 214.48361 430.3403 214.46734 429.89319 214.53711 429.57422 C 214.81061 428.3112 215.20118 427.25651 215.70898 426.41016 C 216.21678 425.55078 216.82882 424.90625 217.54492 424.47656 C 218.27412 424.04688 219.0814 423.83203 219.9668 423.83203 C 220.6308 423.83203 221.22977 423.94271 221.76367 424.16406 C 222.29747 424.38542 222.77285 424.69792 223.18945 425.10156 C 223.60615 425.49219 223.96417 425.96094 224.26367 426.50781 C 224.56307 427.05469 224.81056 427.66016 225.00586 428.32422 L 220.13477 431.92578 A 179.98889 179.98889 0 0 0 224.02734 432.77344 L 225.65039 431.56641 C 225.68939 431.98307 225.72205 432.41276 225.74805 432.85547 C 225.75684 432.95232 225.7549 433.05288 225.76172 433.15039 A 179.98889 179.98889 0 0 0 229.22852 433.9043 C 229.21835 431.7081 229.01889 429.7815 228.59961 428.16797 C 228.16991 426.51433 227.55787 425.15365 226.76367 424.08594 C 225.96937 423.00521 225.01238 422.21093 223.89258 421.70312 C 222.77278 421.18231 221.52931 420.92187 220.16211 420.92188 z M 264.14648 420.92188 C 262.57101 420.92188 261.19076 421.24089 260.00586 421.87891 C 258.82106 422.50391 257.83141 423.39584 257.03711 424.55469 C 256.25591 425.70052 255.66337 427.08073 255.25977 428.69531 C 254.86907 430.3099 254.67383 432.09375 254.67383 434.04688 C 254.67383 434.76414 254.83388 435.25226 254.87695 435.9082 A 179.98889 179.98889 0 0 0 256 435.98828 A 179.98889 179.98889 0 0 0 258.1582 435.83398 C 258.14138 435.60426 258.11902 435.37946 258.11133 435.14062 L 258.11133 433.92969 C 258.11133 432.27604 258.24808 430.82422 258.52148 429.57422 C 258.79488 428.3112 259.18556 427.25651 259.69336 426.41016 C 260.20116 425.55078 260.8132 424.90625 261.5293 424.47656 C 262.2585 424.04688 263.06577 423.83203 263.95117 423.83203 C 264.61517 423.83203 265.21425 423.94271 265.74805 424.16406 C 266.28195 424.38542 266.75723 424.69792 267.17383 425.10156 C 267.59053 425.49219 267.94865 425.96094 268.24805 426.50781 C 268.54755 427.05469 268.79493 427.66016 268.99023 428.32422 L 258.9082 435.7793 A 179.98889 179.98889 0 0 0 264.50391 435.38086 L 269.63477 431.56641 C 269.67377 431.98307 269.70642 432.41276 269.73242 432.85547 C 269.77142 433.28516 269.79102 433.72136 269.79102 434.16406 C 269.79102 434.48295 269.72306 434.70346 269.71289 435.00781 A 179.98889 179.98889 0 0 0 273.15039 434.76172 C 273.15736 434.50687 273.22852 434.30775 273.22852 434.04688 C 273.22852 431.78125 273.01368 429.82161 272.58398 428.16797 C 272.15428 426.51433 271.54235 425.15365 270.74805 424.08594 C 269.95385 423.00521 268.99675 422.21093 267.87695 421.70312 C 266.75725 421.18231 265.51368 420.92187 264.14648 420.92188 z M 286.13867 420.92188 C 284.56307 420.92188 283.18295 421.24089 281.99805 421.87891 C 280.81315 422.50391 279.8236 423.39584 279.0293 424.55469 C 278.248 425.70052 277.65565 427.08073 277.25195 428.69531 C 276.86135 430.3099 276.66602 432.09375 276.66602 434.04688 C 276.66602 434.22377 276.71418 434.33269 276.7168 434.50586 A 179.98889 179.98889 0 0 0 280.10352 434.26367 L 280.10352 433.92969 C 280.10352 432.27604 280.24027 430.82422 280.51367 429.57422 C 280.78707 428.3112 281.17775 427.25651 281.68555 426.41016 C 282.19335 425.55078 282.80541 424.90625 283.52148 424.47656 C 284.25068 424.04688 285.05796 423.83203 285.94336 423.83203 C 286.60746 423.83203 287.20643 423.94271 287.74023 424.16406 C 288.27413 424.38542 288.74932 424.69792 289.16602 425.10156 C 289.58272 425.49219 289.94073 425.96094 290.24023 426.50781 C 290.53973 427.05469 290.78712 427.66016 290.98242 428.32422 L 283.71484 433.69922 A 179.98889 179.98889 0 0 0 290.84375 432.14844 L 291.62695 431.56641 C 291.63919 431.6971 291.64722 431.83744 291.6582 431.9707 A 179.98889 179.98889 0 0 0 294.91602 431.26367 C 294.8089 430.22319 294.80245 429.03875 294.57617 428.16797 C 294.14657 426.51433 293.53453 425.15365 292.74023 424.08594 C 291.94596 423.00521 290.98894 422.21093 289.86914 421.70312 C 288.74934 421.18231 287.50577 420.92187 286.13867 420.92188 z M 197.74023 421.15625 L 192.48633 423.92188 A 179.98889 179.98889 0 0 0 196.33008 425.35547 L 196.97852 425.00391 L 196.97852 425.59766 A 179.98889 179.98889 0 0 0 200.74805 427.00391 L 200.74805 421.15625 L 197.74023 421.15625 z M 241.72461 421.15625 L 233.59961 425.43359 L 234.84961 428.32422 L 240.96289 425.00391 L 240.96289 434.91211 A 179.98889 179.98889 0 0 0 244.73242 435.18164 L 244.73242 421.15625 L 241.72461 421.15625 z M 307.70117 421.15625 L 299.57617 425.43359 L 300.82617 428.32422 L 306.93945 425.00391 L 306.93945 428.61133 A 179.98889 179.98889 0 0 0 310.70898 427.20508 L 310.70898 421.15625 L 307.70117 421.15625 z " />
    <path
       id="path369-0"
       style="display:inline;fill:url(#radialGradient8284);fill-opacity:1;stroke-width:44.562;stroke-linecap:round;stroke-linejoin:bevel"
       inkscape:label="Main"
       d="M 256,0 A 256,256 0 0 0 0,256 256,256 0 0 0 256,512 256,256 0 0 0 512,256 256,256 0 0 0 256,0 Z m 0,10.832031 A 245.16748,245.16748 0 0 1 501.16797,256 245.16748,245.16748 0 0 1 256,501.16797 245.16748,245.16748 0 0 1 10.832031,256 245.16748,245.16748 0 0 1 256,10.832031 Z m 6.43164,32.619141 V 68.349609 A 188.18232,188.18232 0 0 1 314.75,77.410156 c 0.61423,-0.327476 1.31113,-0.507812 2.11133,-0.507812 9.84195,0 24.68721,-0.410307 44.53515,-1.230469 2.75775,-0.113956 4.66594,-0.157794 7.23047,-0.255859 A 213.00843,213.00843 0 0 0 262.43164,43.451172 Z m -12.86328,0.002 A 213.00843,213.00843 0 0 0 141.92383,76.21875 c 1.64986,-0.141702 3.02515,-0.201678 4.74219,-0.363281 3.2806,-0.328067 9.75959,-1.392911 19.4375,-3.197266 8.2016,-1.476288 14.68053,-2.214844 19.4375,-2.214844 1.90261,0 4.82367,2.666098 8.71875,7.876953 a 188.18232,188.18232 0 0 1 55.30859,-9.955078 z m -74.02734,36.990234 c -4.75697,0 -11.23585,0.738546 -19.4375,2.214844 -9.67796,1.804365 -16.15685,2.869199 -19.4375,3.197266 -13.94283,1.312265 -25.67163,1.96875 -35.18555,1.96875 -6.397298,0 -9.595704,1.805332 -9.595704,5.414062 0,18.699792 0.738545,46.830932 2.214843,84.394532 1.640333,37.5636 2.458985,65.77681 2.458985,84.64063 0,17.87961 -0.900713,44.69975 -2.705078,80.45898 -1.640333,35.75925 -2.460938,62.49731 -2.460938,80.21289 0,5.08504 2.377803,7.62696 7.134766,7.62696 h 85.134766 c 4.42889,0 6.64258,-2.87017 6.64258,-8.61133 0,-19.02785 -0.57443,-47.5693 -1.72266,-85.625 -0.9842,-38.0557 -1.47656,-66.59909 -1.47656,-85.62696 0,-2.46049 0.65648,-4.26388 1.96875,-5.4121 1.80437,0.98419 3.03528,1.96892 3.6914,2.95312 23.12869,29.69001 40.35163,52.16288 51.66993,67.41797 41.33637,54.62305 67.91031,89.88956 79.7207,105.80078 4.10083,5.41309 7.62748,8.11914 10.58008,8.11914 4.26486,0 10.66168,0.32824 19.1914,0.98438 8.52974,0.65612 14.92654,0.98437 19.19141,0.98437 3.9368,0 9.84321,-0.16412 17.7168,-0.49219 8.03762,-0.32806 14.02413,-0.49218 17.96094,-0.49218 4.75695,0 7.13671,-2.21369 7.13671,-6.64258 V 261.78125 c 0,-18.86382 0.7366,-46.99496 2.21289,-84.39453 1.64034,-37.5636 2.46094,-65.69475 2.46094,-84.394532 0,-5.08503 -1.55719,-7.628907 -4.67383,-7.628907 -9.84199,0 -24.68713,0.410303 -44.53515,1.230469 -19.84802,0.820166 -34.69317,1.230469 -44.53516,1.230469 -3.4447,0 -5.16797,3.034287 -5.16797,9.103515 0,17.387516 0.90268,43.387046 2.70703,77.998046 1.9684,34.61101 2.95313,60.52847 2.95313,77.75195 0,12.7946 -1.06679,19.19336 -3.19922,19.19336 -2.9526,0 -6.47924,-2.54388 -10.58008,-7.6289 -16.56735,-21.81642 -28.95264,-38.38289 -37.15429,-49.70117 L 184.64453,88.808594 c -4.10082,-5.57713 -7.13512,-8.365235 -9.10351,-8.365235 z m 253.9121,52.042974 c -0.37513,10.93749 -0.72569,21.59676 -1.30664,34.90039 -0.17864,4.52553 -0.24531,7.64035 -0.40234,11.89453 a 188.18232,188.18232 0 0 1 15.98047,70.28711 h 24.78125 A 213.00843,213.00843 0 0 0 429.45312,132.48633 Z m -347.101558,0.4375 A 213.00843,213.00843 0 0 0 43.498047,249.56836 h 24.773437 a 188.18232,188.18232 0 0 1 15.578125,-69.32813 c -0.68603,-18.16045 -1.18462,-33.91705 -1.498047,-47.3164 z M 43.5,262.43164 a 213.00843,213.00843 0 0 0 39.291016,117.26367 c 0.336088,-8.79227 0.590713,-16.67798 1.0625,-26.96289 0.366275,-7.25895 0.532297,-12.53246 0.824218,-19.05469 A 188.18232,188.18232 0 0 1 68.28125,262.43164 Z m 400.20312,0 a 188.18232,188.18232 0 0 1 -17.76953,74.35547 v 47.50977 A 213.00843,213.00843 0 0 0 468.48242,262.43164 Z M 316.39844,434.1543 a 188.18232,188.18232 0 0 1 -53.9668,9.49414 v 24.80273 a 213.00843,213.00843 0 0 0 98.1543,-26.97265 c -4.15786,-0.0875 -9.4796,-0.35405 -16.65821,-0.90625 -8.52968,-0.65614 -14.92658,-0.98438 -19.1914,-0.98438 -2.39467,0 -5.18798,-1.873 -8.33789,-5.43359 z m -116.47656,1.28125 c -0.78548,3.39889 -2.85197,5.13672 -6.25977,5.13672 h -20 -23.77539 a 213.00843,213.00843 0 0 0 99.68164,28.00976 v -24.91015 a 188.18232,188.18232 0 0 1 -49.64648,-8.23633 z" />
  </g>
</svg>
