<?xml version="1.0" encoding="UTF-8" standalone="no"?>
<!-- Created with Inkscape (http://www.inkscape.org/) -->

<svg
   width="512.0px"
   height="512.0px"
   viewBox="0 0 512.0 512.0"
   version="1.1"
   id="SVGRoot"
   sodipodi:docname="Valis-World-Space.svg"
   xml:space="preserve"
   inkscape:version="1.2.2 (732a01da63, 2022-12-09)"
   xmlns:inkscape="http://www.inkscape.org/namespaces/inkscape"
   xmlns:sodipodi="http://sodipodi.sourceforge.net/DTD/sodipodi-0.dtd"
   xmlns="http://www.w3.org/2000/svg"
   xmlns:svg="http://www.w3.org/2000/svg"><sodipodi:namedview
     id="namedview1054"
     pagecolor="#ffffff"
     bordercolor="#000000"
     borderopacity="0.25"
     inkscape:showpageshadow="2"
     inkscape:pageopacity="1"
     inkscape:pagecheckerboard="0"
     inkscape:deskcolor="#d1d1d1"
     inkscape:document-units="px"
     showgrid="false"
     inkscape:zoom="0.70710678"
     inkscape:cx="270.8219"
     inkscape:cy="214.25335"
     inkscape:window-width="1920"
     inkscape:window-height="991"
     inkscape:window-x="-9"
     inkscape:window-y="-9"
     inkscape:window-maximized="1"
     inkscape:current-layer="layer1"><inkscape:grid
       type="xygrid"
       id="grid1540" /></sodipodi:namedview><defs
     id="defs1049"><filter
       style="color-interpolation-filters:sRGB;"
       inkscape:label="Greyscale"
       id="filter2465"
       x="0"
       y="0"
       width="1"
       height="1"><feColorMatrix
         values="0.21 0.72 0.072 0 0 0.21 0.72 0.072 0 0 0.21 0.72 0.072 0 0 0 0 0 1 0 "
         id="feColorMatrix2463" /></filter></defs><g
     inkscape:label="Ebene 1"
     inkscape:groupmode="layer"
     id="layer1"><path
       style="fill:#000000;stroke:none;stroke-width:2.72126"
       d="m 383.27345,429.8379 c -2.13298,9.7e-4 -3.86222,1.73031 -3.86328,3.86328 9.6e-4,2.13298 1.7303,3.86222 3.86328,3.86328 2.12759,0 3.86328,-1.73569 3.86328,-3.86328 0,-2.12759 -1.73569,-3.86328 -3.86328,-3.86328 z"
       id="path1283" /><path
       style="fill:#000000;stroke:none;stroke-width:2.72126"
       d="m 371.68556,414.38478 c -17.04486,0 -30.9043,13.86041 -30.9043,30.90429 0,17.04389 13.86041,30.9043 30.9043,30.9043 17.03711,0 30.90239,-13.86041 30.90239,-30.9043 0,-17.04388 -13.86528,-30.90429 -30.90239,-30.90429 z m 11.58789,7.72851 c 6.39048,0 11.58789,5.19741 11.58789,11.58789 0,6.3905 -5.19644,11.58789 -11.58789,11.58789 -6.3905,0 -11.58789,-5.19739 -11.58789,-11.58789 0,-6.39048 5.19739,-11.58789 11.58789,-11.58789 z m -30.75391,15.45117 h 0.0762 c 2.13532,0 3.86328,1.72798 3.86328,3.86328 0,2.13532 -1.72796,3.86133 -3.86328,3.86133 -2.12758,0 -3.90039,-1.72601 -3.90039,-3.86133 0,-2.1353 1.6889,-3.86328 3.82422,-3.86328 z m 15.45313,23.17774 h 0.0742 c 2.13434,0 3.86328,1.72796 3.86328,3.86328 0,2.13532 -1.72894,3.86328 -3.86328,3.86328 -2.12759,0 -3.9004,-1.72796 -3.9004,-3.86328 0,-2.13532 1.69086,-3.86328 3.82618,-3.86328 z"
       id="path1281" /><path
       style="fill:#000000;stroke:none;stroke-width:2.72126"
       d="m 100.84379,58.777345 c -4.19302,5.608399 -8.9269,10.495257 -10.69531,12.263672 -1.75029,1.750281 -6.55274,6.401257 -12.08789,10.560546 6.19423,1.20234 12.94985,-0.49246 17.55078,-5.097656 3.64356,-3.651293 5.6582,-8.503471 5.6582,-13.65625 a 19.197594,19.197594 0 0 0 -0.42578,-4.070312 z"
       id="path1245" /><path
       style="fill:#000000;stroke:none;stroke-width:2.72126"
       d="m 81.95512,43.531251 c -5.16051,0 -10.01269,2.006909 -13.65625,5.658203 -3.6513,3.64453 -5.65821,8.496728 -5.65821,13.658203 a 19.19083,19.19083 0 0 0 5.65821,13.65625 c 0.49928,0.499814 1.02759,0.957268 1.57422,1.388672 3.95267,-2.566239 9.05712,-6.56112 14.81445,-12.314453 5.76365,-5.763652 9.76107,-10.874355 12.32617,-14.832031 A 19.197594,19.197594 0 0 0 95.61133,49.189454 19.191796,19.191796 0 0 0 81.95508,43.531251 Z"
       id="path1243" /><path
       style="fill:#000000;stroke:none;stroke-width:2.72126"
       d="M 0,0 V 512.00001 H 512.00005 V 0 Z m 252.08009,20.351563 h 0.0762 c 2.13532,0 3.86328,1.729919 3.86328,3.865235 0,2.135316 -1.72796,3.863281 -3.86328,3.863281 -2.12759,0 -3.90039,-1.727965 -3.90039,-3.863281 0,-2.135316 1.6889,-3.865235 3.82422,-3.865235 z m 177.70116,0 h 0.076 c 2.1344,0 3.8633,1.729919 3.8633,3.865235 0,2.135316 -1.7289,3.863281 -3.8633,3.863281 -2.1276,0 -3.9004,-1.727965 -3.9004,-3.863281 0,-2.135316 1.6889,-3.865235 3.8242,-3.865235 z M 81.95312,36.066407 c 6.79602,0 13.57706,2.425456 18.64063,7.232422 0.003,-0.03335 0.0255,-0.0917 0.0273,-0.123047 a 3.8522727,3.8522727 0 0 1 0.45313,-4.917969 3.8619347,3.8619347 0 0 1 5.46289,0 c 2.84841,2.848056 1.96068,7.442831 -0.49023,12.324219 1.91576,3.752907 2.94726,7.926305 2.94726,12.265625 0,7.220461 -2.81355,14.010807 -7.92187,19.119141 -5.10738,5.107367 -11.89673,7.921875 -19.11719,7.921875 -4.33324,0 -8.50299,-1.032656 -12.25586,-2.947266 -2.74685,1.380508 -5.40451,2.267578 -7.70899,2.267578 -1.79521,0 -3.37174,-0.536776 -4.61718,-1.78125 a 3.8619347,3.8619347 0 0 1 0,-5.46289 3.8609685,3.8609685 0 0 1 4.91992,-0.451172 c 0.0278,-0.0016 0.08,-0.02069 0.10937,-0.02344 -4.82177,-5.05203 -7.49023,-11.638237 -7.49023,-18.642578 0,-7.22819 2.81549,-14.018537 7.92383,-19.11914 5.10785,-5.107851 12.1117,-7.66211 19.11718,-7.66211 z M 352.51958,51.25586 h 0.0762 c 2.13532,0 3.86328,1.729918 3.86328,3.865235 0,2.135316 -1.72796,3.861328 -3.86328,3.861328 -2.12758,0 -3.90039,-1.726012 -3.90039,-3.861328 0,-2.135317 1.6889,-3.865235 3.82422,-3.865235 z M 167.09379,66.710939 h 0.0742 c 2.13532,-10e-7 3.86328,1.726011 3.86328,3.861328 0,2.135315 -1.72796,3.863281 -3.86328,3.863281 -2.12759,0 -3.90039,-1.727966 -3.90039,-3.863281 0,-2.135317 1.69085,-3.861329 3.82617,-3.861328 z m 85.9004,35.447261 c 22.78845,0.58156 45.15477,7.27577 74.45313,21.32813 33.4838,16.05983 52.08748,31.37551 66.28711,57.72852 l -0.1875,-0.24804 c 14.13762,26.353 21.88952,45.76087 14.13872,80.05078 -0.4779,2.11383 -0.8855,4.21909 -1.3262,6.33008 l -4.002,21.31054 -0.1328,0.0137 c -4.4153,24.41528 -8.38301,47.39356 -18.4121,64.92187 -13.76558,24.05875 -36.7711,40.30436 -70.875,48.86133 -34.10389,8.55697 -82.77803,14.1389 -124.63281,-8.92774 -41.85479,-23.06661 -71.49495,-57.29555 -82.16017,-104.79296 -10.66521,-47.49743 -1.73573,-72.11448 6.20117,-94.375 a 146.58501,146.58501 0 0 1 61.07618,-70.19142 165.12516,165.12516 0 0 1 69.75782,-21.88867 c 3.29412,-0.16277 6.55895,-0.20418 9.81445,-0.1211 z m 230.87106,57.26563 h 0.076 c 2.1344,0 3.8614,1.72796 3.8614,3.86328 0,2.13533 -1.727,3.86134 -3.8614,3.86134 -2.1285,0 -3.9023,-1.72601 -3.9023,-3.86134 0,-2.13532 1.6899,-3.86328 3.8262,-3.86328 z m -38.6328,54.08399 h 0.076 c 2.1353,0 3.8633,1.72601 3.8633,3.86133 0,2.13532 -1.728,3.86328 -3.8633,3.86328 -2.1275,0 -3.9004,-1.72796 -3.9004,-3.86328 0,-2.13532 1.6889,-3.86133 3.8243,-3.86133 z M 43.47465,236.6836 h 0.0762 c 2.13532,0 3.86328,1.72797 3.86328,3.86329 0,2.1353 -1.72796,3.86523 -3.86328,3.86523 -2.12759,0 -3.90039,-1.72993 -3.90039,-3.86523 0,-2.13532 1.6889,-3.86329 3.82422,-3.86329 z m 30.90426,84.98829 h 0.0762 c 2.13531,0 3.86328,1.72796 3.86328,3.86328 0,2.1353 -1.72797,3.86328 -3.86328,3.86328 -2.12759,0 -3.90039,-1.72798 -3.90039,-3.86328 0,-2.13532 1.6889,-3.86329 3.82422,-3.86328 z m -61.8086,61.81054 h 0.0742 c 2.13532,0 3.86328,1.72601 3.86328,3.86133 0,2.13532 -1.72796,3.86328 -3.86328,3.86328 -2.12759,0 -3.90039,-1.72796 -3.90039,-3.86328 0,-2.13532 1.69086,-3.86133 3.82617,-3.86133 z m 440.38864,7.72461 h 0.076 a 3.8609685,3.8609685 0 0 1 3.8614,3.86328 3.8609685,3.8609685 0 0 1 -3.8614,3.86328 c -2.1266,0 -3.9003,-1.72699 -3.9003,-3.86328 0,-2.13435 1.6898,-3.86328 3.8242,-3.86328 z m -81.27339,15.45313 c 21.29905,0 38.62889,17.3318 38.62889,38.63086 0,21.29904 -17.32887,38.63085 -38.62889,38.63086 -21.30002,-1e-5 -38.63282,-17.33182 -38.63282,-38.63086 0,-21.29906 17.33376,-38.63086 38.63282,-38.63086 z m -243.22267,7.72461 h 0.0762 c 2.13532,0 3.86133,1.72796 3.86133,3.86328 0,2.13531 -1.72601,3.86523 -3.86133,3.86523 -2.12759,0 -3.90039,-1.72992 -3.90039,-3.86523 0,-2.13532 1.6889,-3.86328 3.82422,-3.86328 z m 139.06837,30.90429 h 0.0762 c 2.13532,0 3.86328,1.72798 3.86328,3.86328 0,2.13532 -1.72796,3.86328 -3.86328,3.86328 -2.12662,0 -3.90039,-1.72796 -3.90039,-3.86328 0,-2.1353 1.68987,-3.86328 3.82422,-3.86328 z m 231.78519,30.90625 h 0.076 c 2.1353,0 3.8633,1.72798 3.8633,3.86328 0,2.13532 -1.728,3.86329 -3.8633,3.86329 -2.1276,-1e-5 -3.9004,-1.72797 -3.9004,-3.86329 0,-2.1353 1.6889,-3.86328 3.8242,-3.86328 z m -300.66996,7.72657 h 0.0762 a 3.8600023,3.8600023 0 0 1 3.86132,3.86328 3.8609685,3.8609685 0 0 1 -3.86132,3.86328 c -2.13532,0 -3.90235,-1.72894 -3.90235,-3.86328 0,-2.13532 1.69087,-3.86328 3.82617,-3.86328 z"
       id="rect3006" /></g></svg>
