  0
SECTION
  2
HEADER
  9
$ACADVER
  1
AC1014
  9
$HANDSEED
  5
FFFF
  9
$INSUNITS
 70
     0
  9
$MEASUREMENT
 70
     1
  0
ENDSEC
  0
SECTION
  2
TABLES
  0
TABLE
  2
VPORT
  5
8
330
0
100
AcDbSymbolTable
 70
     4
  0
VPORT
  5
2E
330
8
100
AcDbSymbolTableRecord
100
AcDbViewportTableRecord
  2
*ACTIVE
 70
     0
 10
0.0
 20
0.0
 11
1.0
 21
1.0
 12
210.0
 22
148.5
 13
0.0
 23
0.0
 14
10.0
 24
10.0
 15
10.0
 25
10.0
 16
0.0
 26
0.0
 36
1.0
 17
0.0
 27
0.0
 37
0.0
 40
341.0
 41
1.24
 42
50.0
 43
0.0
 44
0.0
 50
0.0
 51
0.0
 71
     0
 72
   100
 73
     1
 74
     3
 75
     0
 76
     0
 77
     0
 78
     0
  0
ENDTAB
  0
TABLE
  2
LTYPE
  5
5
330
0
100
AcDbSymbolTable
 70
     1
  0
LTYPE
  5
14
330
5
100
AcDbSymbolTableRecord
100
AcDbLinetypeTableRecord
  2
BYBLOCK
 70
     0
  3

 72
    65
 73
     0
 40
0.0
  0
LTYPE
  5
15
330
5
100
AcDbSymbolTableRecord
100
AcDbLinetypeTableRecord
  2
BYLAYER
 70
     0
  3

 72
    65
 73
     0
 40
0.0
  0
LTYPE
  5
16
330
5
100
AcDbSymbolTableRecord
100
AcDbLinetypeTableRecord
  2
CONTINUOUS
 70
     0
  3
Solid line
 72
    65
 73
     0
 40
0.0
  0
ENDTAB
  0
TABLE
  2
LAYER
  5
2
100
AcDbSymbolTable
 70
2
  0
LAYER
  5
50
100
AcDbSymbolTableRecord
100
AcDbLayerTableRecord
  2
0
 70
0
  6
CONTINUOUS
  0
LAYER
  5
51
100
AcDbSymbolTableRecord
100
AcDbLayerTableRecord
  2
Ebene_1
 70
0
  6
CONTINUOUS
  0
ENDTAB
  0
TABLE
  2
STYLE
  5
3
330
0
100
AcDbSymbolTable
 70
     1
  0
STYLE
  5
11
330
3
100
AcDbSymbolTableRecord
100
AcDbTextStyleTableRecord
  2
STANDARD
 70
     0
 40
0.0
 41
1.0
 50
0.0
 71
     0
 42
2.5
  3
txt
  4

  0
ENDTAB
  0
TABLE
  2
VIEW
  5
6
330
0
100
AcDbSymbolTable
 70
     0
  0
ENDTAB
  0
TABLE
  2
UCS
  5
7
330
0
100
AcDbSymbolTable
 70
     0
  0
ENDTAB
  0
TABLE
  2
APPID
  5
9
330
0
100
AcDbSymbolTable
 70
     2
  0
APPID
  5
12
330
9
100
AcDbSymbolTableRecord
100
AcDbRegAppTableRecord
  2
ACAD
 70
     0
  0
ENDTAB
  0
TABLE
  2
DIMSTYLE
  5
A
330
0
100
AcDbSymbolTable
 70
     1
  0
DIMSTYLE
105
27
330
A
100
AcDbSymbolTableRecord
100
AcDbDimStyleTableRecord
  2
ISO-25
 70
     0
  3

  4

  5

  6

  7

 40
1.0
 41
2.5
 42
0.625
 43
3.75
 44
1.25
 45
0.0
 46
0.0
 47
0.0
 48
0.0
140
2.5
141
2.5
142
0.0
143
0.03937007874016
144
1.0
145
0.0
146
1.0
147
0.625
 71
     0
 72
     0
 73
     0
 74
     0
 75
     0
 76
     0
 77
     1
 78
     8
170
     0
171
     3
172
     1
173
     0
174
     0
175
     0
176
     0
177
     0
178
     0
270
     2
271
     2
272
     2
273
     2
274
     3
340
11
275
     0
280
     0
281
     0
282
     0
283
     0
284
     8
285
     0
286
     0
287
     3
288
     0
  0
ENDTAB
  0
TABLE
  2
BLOCK_RECORD
  5
1
330
0
100
AcDbSymbolTable
 70
     1
  0
BLOCK_RECORD
  5
1F
330
1
100
AcDbSymbolTableRecord
100
AcDbBlockTableRecord
  2
*MODEL_SPACE
  0
BLOCK_RECORD
  5
1B
330
1
100
AcDbSymbolTableRecord
100
AcDbBlockTableRecord
  2
*PAPER_SPACE
  0
ENDTAB
  0
ENDSEC
  0
SECTION
  2
BLOCKS
  0
BLOCK
  5
20
330
1F
100
AcDbEntity
  8
0
100
AcDbBlockBegin
  2
*MODEL_SPACE
 70
     0
 10
0.0
 20
0.0
 30
0.0
  3
*MODEL_SPACE
  1

  0
ENDBLK
  5
21
330
1F
100
AcDbEntity
  8
0
100
AcDbBlockEnd
  0
BLOCK
  5
1C
330
1B
100
AcDbEntity
 67
     1
  8
0
100
AcDbBlockBegin
  2
*PAPER_SPACE
  1

  0
ENDBLK
  5
1D
330
1B
100
AcDbEntity
 67
     1
  8
0
100
AcDbBlockEnd
  0
ENDSEC
  0
SECTION
  2
ENTITIES
  0
SPLINE
  5
100
100
AcDbEntity
  8
Ebene_1
 62
7
100
AcDbSpline
 70
8
 71
3
 72
8
 73
4
 74
0
 40
0
 40
0
 40
0
 40
0
 40
1
 40
1
 40
1
 40
1
 10
233.720710
 20
137.509760
 30
0.0
 10
233.121610
 20
137.500760
 30
0.0
 10
232.522800
 20
137.488260
 30
0.0
 10
231.923840
 20
137.488260
 30
0.0
  0
SPLINE
  5
101
100
AcDbEntity
  8
Ebene_1
 62
7
100
AcDbSpline
 70
8
 71
3
 72
8
 73
4
 74
0
 40
0
 40
0
 40
0
 40
0
 40
1
 40
1
 40
1
 40
1
 10
231.923840
 20
137.488260
 30
0.0
 10
232.703970
 20
136.902730
 30
0.0
 10
233.990430
 20
135.896460
 30
0.0
 10
234.064460
 20
135.896460
 30
0.0
  0
SPLINE
  5
102
100
AcDbEntity
  8
Ebene_1
 62
7
100
AcDbSpline
 70
8
 71
3
 72
8
 73
4
 74
0
 40
0
 40
0
 40
0
 40
0
 40
1
 40
1
 40
1
 40
1
 10
234.064460
 20
135.896460
 30
0.0
 10
233.961695
 20
136.436674
 30
0.0
 10
233.847084
 20
136.974567
 30
0.0
 10
233.720710
 20
137.509750
 30
0.0
  0
SPLINE
  5
103
100
AcDbEntity
  8
Ebene_1
 62
7
100
AcDbSpline
 70
8
 71
3
 72
8
 73
4
 74
0
 40
0
 40
0
 40
0
 40
0
 40
1
 40
1
 40
1
 40
1
 10
308.044930
 20
161.189440
 30
0.0
 10
303.924010
 20
158.715260
 30
0.0
 10
299.732700
 20
156.354570
 30
0.0
 10
295.464850
 20
154.144520
 30
0.0
  0
SPLINE
  5
104
100
AcDbEntity
  8
Ebene_1
 62
7
100
AcDbSpline
 70
8
 71
3
 72
8
 73
4
 74
0
 40
0
 40
0
 40
0
 40
0
 40
1
 40
1
 40
1
 40
1
 10
295.464850
 20
154.144520
 30
0.0
 10
290.947390
 20
151.805200
 30
0.0
 10
286.343780
 20
149.626460
 30
0.0
 10
281.677740
 20
147.599600
 30
0.0
  0
SPLINE
  5
105
100
AcDbEntity
  8
Ebene_1
 62
7
100
AcDbSpline
 70
8
 71
3
 72
8
 73
4
 74
0
 40
0
 40
0
 40
0
 40
0
 40
1
 40
1
 40
1
 40
1
 10
281.677740
 20
147.599600
 30
0.0
 10
277.976810
 20
145.991960
 30
0.0
 10
274.253850
 20
144.408400
 30
0.0
 10
270.419930
 20
143.150380
 30
0.0
  0
SPLINE
  5
106
100
AcDbEntity
  8
Ebene_1
 62
7
100
AcDbSpline
 70
8
 71
3
 72
8
 73
4
 74
0
 40
0
 40
0
 40
0
 40
0
 40
1
 40
1
 40
1
 40
1
 10
270.419930
 20
143.150380
 30
0.0
 10
266.190100
 20
141.762440
 30
0.0
 10
261.869040
 20
140.629680
 30
0.0
 10
257.505870
 20
139.746080
 30
0.0
  0
SPLINE
  5
107
100
AcDbEntity
  8
Ebene_1
 62
7
100
AcDbSpline
 70
8
 71
3
 72
8
 73
4
 74
0
 40
0
 40
0
 40
0
 40
0
 40
1
 40
1
 40
1
 40
1
 10
257.505870
 20
139.746080
 30
0.0
 10
253.877620
 20
139.011310
 30
0.0
 10
250.200740
 20
138.484460
 30
0.0
 10
246.511730
 20
138.175770
 30
0.0
  0
SPLINE
  5
108
100
AcDbEntity
  8
Ebene_1
 62
7
100
AcDbSpline
 70
8
 71
3
 72
8
 73
4
 74
0
 40
0
 40
0
 40
0
 40
0
 40
1
 40
1
 40
1
 40
1
 10
246.511730
 20
138.175770
 30
0.0
 10
245.957300
 20
138.129370
 30
0.0
 10
245.398840
 20
138.117570
 30
0.0
 10
244.843760
 20
138.074210
 30
0.0
  0
SPLINE
  5
109
100
AcDbEntity
  8
Ebene_1
 62
7
100
AcDbSpline
 70
8
 71
3
 72
8
 73
4
 74
0
 40
0
 40
0
 40
0
 40
0
 40
1
 40
1
 40
1
 40
1
 10
244.843760
 20
138.074210
 30
0.0
 10
247.243100
 20
126.937210
 30
0.0
 10
249.628920
 20
114.751940
 30
0.0
 10
249.628920
 20
114.751940
 30
0.0
  0
SPLINE
  5
10a
100
AcDbEntity
  8
Ebene_1
 62
7
100
AcDbSpline
 70
8
 71
3
 72
8
 73
4
 74
0
 40
0
 40
0
 40
0
 40
0
 40
1
 40
1
 40
1
 40
1
 10
249.628920
 20
114.751940
 30
0.0
 10
261.530561
 20
113.285977
 30
0.0
 10
273.567119
 20
113.285977
 30
0.0
 10
285.468760
 20
114.751940
 30
0.0
  0
SPLINE
  5
10b
100
AcDbEntity
  8
Ebene_1
 62
7
100
AcDbSpline
 70
8
 71
3
 72
8
 73
4
 74
0
 40
0
 40
0
 40
0
 40
0
 40
1
 40
1
 40
1
 40
1
 10
285.468760
 20
114.751940
 30
0.0
 10
298.285859
 20
116.014384
 30
0.0
 10
310.833468
 20
119.235435
 30
0.0
 10
322.673840
 20
124.302720
 30
0.0
  0
SPLINE
  5
10c
100
AcDbEntity
  8
Ebene_1
 62
7
100
AcDbSpline
 70
8
 71
3
 72
8
 73
4
 74
0
 40
0
 40
0
 40
0
 40
0
 40
1
 40
1
 40
1
 40
1
 10
322.673840
 20
124.302720
 30
0.0
 10
324.968110
 20
126.224950
 30
0.0
 10
318.209610
 20
136.640820
 30
0.0
 10
313.373060
 20
145.755850
 30
0.0
  0
SPLINE
  5
10d
100
AcDbEntity
  8
Ebene_1
 62
7
100
AcDbSpline
 70
8
 71
3
 72
8
 73
4
 74
0
 40
0
 40
0
 40
0
 40
0
 40
1
 40
1
 40
1
 40
1
 10
313.373060
 20
145.755850
 30
0.0
 10
311.589320
 20
149.117500
 30
0.0
 10
309.770280
 20
155.024080
 30
0.0
 10
308.044930
 20
161.189440
 30
0.0
  0
LWPOLYLINE
  5
10e
100
AcDbEntity
  8
Ebene_1
 62
7
100
AcDbPolyline
 90
1
 70
1
 10
233.720710
 20
137.509750
 30
0.0
  0
SPLINE
  5
10f
100
AcDbEntity
  8
Ebene_1
 62
7
100
AcDbSpline
 70
8
 71
3
 72
8
 73
4
 74
0
 40
0
 40
0
 40
0
 40
0
 40
1
 40
1
 40
1
 40
1
 10
126.097660
 20
217.003900
 30
0.0
 10
124.444780
 20
217.084300
 30
0.0
 10
123.304300
 20
216.893870
 30
0.0
 10
123.009770
 20
216.320300
 30
0.0
  0
SPLINE
  5
110
100
AcDbEntity
  8
Ebene_1
 62
7
100
AcDbSpline
 70
8
 71
3
 72
8
 73
4
 74
0
 40
0
 40
0
 40
0
 40
0
 40
1
 40
1
 40
1
 40
1
 10
123.009770
 20
216.320300
 30
0.0
 10
122.265690
 20
215.142170
 30
0.0
 10
128.032240
 20
193.067900
 30
0.0
 10
147.812500
 20
167.458970
 30
0.0
  0
SPLINE
  5
111
100
AcDbEntity
  8
Ebene_1
 62
7
100
AcDbSpline
 70
8
 71
3
 72
8
 73
4
 74
0
 40
0
 40
0
 40
0
 40
0
 40
1
 40
1
 40
1
 40
1
 10
147.812500
 20
167.458970
 30
0.0
 10
157.656422
 20
153.716594
 30
0.0
 10
170.186589
 20
142.114663
 30
0.0
 10
184.644530
 20
133.355460
 30
0.0
  0
SPLINE
  5
112
100
AcDbEntity
  8
Ebene_1
 62
7
100
AcDbSpline
 70
8
 71
3
 72
8
 73
4
 74
0
 40
0
 40
0
 40
0
 40
0
 40
1
 40
1
 40
1
 40
1
 10
184.644530
 20
133.355460
 30
0.0
 10
183.348097
 20
138.194932
 30
0.0
 10
181.252896
 20
142.784040
 30
0.0
 10
178.445310
 20
146.933580
 30
0.0
  0
SPLINE
  5
113
100
AcDbEntity
  8
Ebene_1
 62
7
100
AcDbSpline
 70
8
 71
3
 72
8
 73
4
 74
0
 40
0
 40
0
 40
0
 40
0
 40
1
 40
1
 40
1
 40
1
 10
178.445310
 20
146.933580
 30
0.0
 10
173.609075
 20
154.983257
 30
0.0
 10
167.120623
 20
161.915724
 30
0.0
 10
159.408200
 20
167.273430
 30
0.0
  0
SPLINE
  5
114
100
AcDbEntity
  8
Ebene_1
 62
7
100
AcDbSpline
 70
8
 71
3
 72
8
 73
4
 74
0
 40
0
 40
0
 40
0
 40
0
 40
1
 40
1
 40
1
 40
1
 10
159.408200
 20
167.273430
 30
0.0
 10
157.521590
 20
168.942360
 30
0.0
 10
156.536550
 20
173.552450
 30
0.0
 10
156.007810
 20
178.855460
 30
0.0
  0
SPLINE
  5
115
100
AcDbEntity
  8
Ebene_1
 62
7
100
AcDbSpline
 70
8
 71
3
 72
8
 73
4
 74
0
 40
0
 40
0
 40
0
 40
0
 40
1
 40
1
 40
1
 40
1
 10
156.007810
 20
178.855460
 30
0.0
 10
154.487170
 20
181.182120
 30
0.0
 10
153.196080
 20
183.658860
 30
0.0
 10
151.917970
 20
186.128900
 30
0.0
  0
SPLINE
  5
116
100
AcDbEntity
  8
Ebene_1
 62
7
100
AcDbSpline
 70
8
 71
3
 72
8
 73
4
 74
0
 40
0
 40
0
 40
0
 40
0
 40
1
 40
1
 40
1
 40
1
 10
151.917970
 20
186.128900
 30
0.0
 10
149.113310
 20
191.549100
 30
0.0
 10
146.492100
 20
197.072470
 30
0.0
 10
144.152340
 20
202.708970
 30
0.0
  0
SPLINE
  5
117
100
AcDbEntity
  8
Ebene_1
 62
7
100
AcDbSpline
 70
8
 71
3
 72
8
 73
4
 74
0
 40
0
 40
0
 40
0
 40
0
 40
1
 40
1
 40
1
 40
1
 10
144.152340
 20
202.708970
 30
0.0
 10
142.977570
 20
205.539000
 30
0.0
 10
141.803980
 20
208.388200
 30
0.0
 10
141.009770
 20
211.347650
 30
0.0
  0
SPLINE
  5
118
100
AcDbEntity
  8
Ebene_1
 62
7
100
AcDbSpline
 70
8
 71
3
 72
8
 73
4
 74
0
 40
0
 40
0
 40
0
 40
0
 40
1
 40
1
 40
1
 40
1
 10
141.009770
 20
211.347650
 30
0.0
 10
140.784970
 20
212.185280
 30
0.0
 10
140.613760
 20
213.035300
 30
0.0
 10
140.423830
 20
213.880850
 30
0.0
  0
SPLINE
  5
119
100
AcDbEntity
  8
Ebene_1
 62
7
100
AcDbSpline
 70
8
 71
3
 72
8
 73
4
 74
0
 40
0
 40
0
 40
0
 40
0
 40
1
 40
1
 40
1
 40
1
 10
140.423830
 20
213.880850
 30
0.0
 10
135.429040
 20
215.418830
 30
0.0
 10
129.636750
 20
216.831710
 30
0.0
 10
126.097660
 20
217.003900
 30
0.0
  0
LWPOLYLINE
  5
11a
100
AcDbEntity
  8
Ebene_1
 62
7
100
AcDbPolyline
 90
1
 70
1
 10
308.044930
 20
161.189440
 30
0.0
  0
SPLINE
  5
11b
100
AcDbEntity
  8
Ebene_1
 62
7
100
AcDbSpline
 70
8
 71
3
 72
8
 73
4
 74
0
 40
0
 40
0
 40
0
 40
0
 40
1
 40
1
 40
1
 40
1
 10
396.082080
 20
270.386710
 30
0.0
 10
394.100990
 20
270.523460
 30
0.0
 10
390.647350
 20
270.117180
 30
0.0
 10
386.642630
 20
269.828110
 30
0.0
  0
SPLINE
  5
11c
100
AcDbEntity
  8
Ebene_1
 62
7
100
AcDbSpline
 70
8
 71
3
 72
8
 73
4
 74
0
 40
0
 40
0
 40
0
 40
0
 40
1
 40
1
 40
1
 40
1
 10
386.642630
 20
269.828110
 30
0.0
 10
386.162560
 20
266.178560
 30
0.0
 10
385.506670
 20
262.553700
 30
0.0
 10
384.845750
 20
258.931630
 30
0.0
  0
SPLINE
  5
11d
100
AcDbEntity
  8
Ebene_1
 62
7
100
AcDbSpline
 70
8
 71
3
 72
8
 73
4
 74
0
 40
0
 40
0
 40
0
 40
0
 40
1
 40
1
 40
1
 40
1
 10
384.845750
 20
258.931630
 30
0.0
 10
391.330260
 20
259.739970
 30
0.0
 10
396.826050
 20
260.479850
 30
0.0
 10
397.205150
 20
260.716790
 30
0.0
  0
SPLINE
  5
11e
100
AcDbEntity
  8
Ebene_1
 62
7
100
AcDbSpline
 70
8
 71
3
 72
8
 73
4
 74
0
 40
0
 40
0
 40
0
 40
0
 40
1
 40
1
 40
1
 40
1
 10
397.205150
 20
260.716790
 30
0.0
 10
398.325266
 20
263.533741
 30
0.0
 10
398.584231
 20
266.619738
 30
0.0
 10
397.949250
 20
269.583970
 30
0.0
  0
SPLINE
  5
11f
100
AcDbEntity
  8
Ebene_1
 62
7
100
AcDbSpline
 70
8
 71
3
 72
8
 73
4
 74
0
 40
0
 40
0
 40
0
 40
0
 40
1
 40
1
 40
1
 40
1
 10
397.949250
 20
269.583970
 30
0.0
 10
397.809750
 20
270.080030
 30
0.0
 10
397.148850
 20
270.313070
 30
0.0
 10
396.082080
 20
270.386710
 30
0.0
  0
LWPOLYLINE
  5
120
100
AcDbEntity
  8
Ebene_1
 62
7
100
AcDbPolyline
 90
1
 70
1
 10
126.097660
 20
217.003900
 30
0.0
  0
SPLINE
  5
121
100
AcDbEntity
  8
Ebene_1
 62
7
100
AcDbSpline
 70
8
 71
3
 72
8
 73
4
 74
0
 40
0
 40
0
 40
0
 40
0
 40
1
 40
1
 40
1
 40
1
 10
328.593800
 20
292.166010
 30
0.0
 10
326.011760
 20
292.079510
 30
0.0
 10
323.231580
 20
291.754770
 30
0.0
 10
320.845750
 20
291.830070
 30
0.0
  0
SPLINE
  5
122
100
AcDbEntity
  8
Ebene_1
 62
7
100
AcDbSpline
 70
8
 71
3
 72
8
 73
4
 74
0
 40
0
 40
0
 40
0
 40
0
 40
1
 40
1
 40
1
 40
1
 10
320.845750
 20
291.830070
 30
0.0
 10
321.086140
 20
290.750910
 30
0.0
 10
321.348000
 20
289.676560
 30
0.0
 10
321.642630
 20
288.613270
 30
0.0
  0
SPLINE
  5
123
100
AcDbEntity
  8
Ebene_1
 62
7
100
AcDbSpline
 70
8
 71
3
 72
8
 73
4
 74
0
 40
0
 40
0
 40
0
 40
0
 40
1
 40
1
 40
1
 40
1
 10
321.642630
 20
288.613270
 30
0.0
 10
322.611930
 20
285.115180
 30
0.0
 10
323.805830
 20
281.613030
 30
0.0
 10
325.656300
 20
278.490220
 30
0.0
  0
SPLINE
  5
124
100
AcDbEntity
  8
Ebene_1
 62
7
100
AcDbSpline
 70
8
 71
3
 72
8
 73
4
 74
0
 40
0
 40
0
 40
0
 40
0
 40
1
 40
1
 40
1
 40
1
 10
325.656300
 20
278.490220
 30
0.0
 10
327.235740
 20
275.824830
 30
0.0
 10
329.469840
 20
273.595210
 30
0.0
 10
331.589890
 20
271.335930
 30
0.0
  0
SPLINE
  5
125
100
AcDbEntity
  8
Ebene_1
 62
7
100
AcDbSpline
 70
8
 71
3
 72
8
 73
4
 74
0
 40
0
 40
0
 40
0
 40
0
 40
1
 40
1
 40
1
 40
1
 10
331.589890
 20
271.335930
 30
0.0
 10
333.505060
 20
269.295000
 30
0.0
 10
335.626840
 20
267.457200
 30
0.0
 10
337.699270
 20
265.576160
 30
0.0
  0
SPLINE
  5
126
100
AcDbEntity
  8
Ebene_1
 62
7
100
AcDbSpline
 70
8
 71
3
 72
8
 73
4
 74
0
 40
0
 40
0
 40
0
 40
0
 40
1
 40
1
 40
1
 40
1
 10
337.699270
 20
265.576160
 30
0.0
 10
339.128750
 20
264.278690
 30
0.0
 10
340.453440
 20
262.835120
 30
0.0
 10
342.060600
 20
261.765610
 30
0.0
  0
SPLINE
  5
127
100
AcDbEntity
  8
Ebene_1
 62
7
100
AcDbSpline
 70
8
 71
3
 72
8
 73
4
 74
0
 40
0
 40
0
 40
0
 40
0
 40
1
 40
1
 40
1
 40
1
 10
342.060600
 20
261.765610
 30
0.0
 10
342.542960
 20
261.444630
 30
0.0
 10
343.177150
 20
261.091770
 30
0.0
 10
343.849660
 20
260.744130
 30
0.0
  0
SPLINE
  5
128
100
AcDbEntity
  8
Ebene_1
 62
7
100
AcDbSpline
 70
8
 71
3
 72
8
 73
4
 74
0
 40
0
 40
0
 40
0
 40
0
 40
1
 40
1
 40
1
 40
1
 10
343.849660
 20
260.744130
 30
0.0
 10
345.941460
 20
259.670780
 30
0.0
 10
348.429740
 20
258.642570
 30
0.0
 10
348.429740
 20
258.642570
 30
0.0
  0
SPLINE
  5
129
100
AcDbEntity
  8
Ebene_1
 62
7
100
AcDbSpline
 70
8
 71
3
 72
8
 73
4
 74
0
 40
0
 40
0
 40
0
 40
0
 40
1
 40
1
 40
1
 40
1
 10
348.429740
 20
258.642570
 30
0.0
 10
348.429740
 20
258.642570
 30
0.0
 10
351.763900
 20
265.149730
 30
0.0
 10
352.966850
 20
268.589830
 30
0.0
  0
SPLINE
  5
12a
100
AcDbEntity
  8
Ebene_1
 62
7
100
AcDbSpline
 70
8
 71
3
 72
8
 73
4
 74
0
 40
0
 40
0
 40
0
 40
0
 40
1
 40
1
 40
1
 40
1
 10
352.966850
 20
268.589830
 30
0.0
 10
354.115520
 20
271.874740
 30
0.0
 10
354.925460
 20
275.279410
 30
0.0
 10
355.543020
 20
278.707020
 30
0.0
  0
SPLINE
  5
12b
100
AcDbEntity
  8
Ebene_1
 62
7
100
AcDbSpline
 70
8
 71
3
 72
8
 73
4
 74
0
 40
0
 40
0
 40
0
 40
0
 40
1
 40
1
 40
1
 40
1
 10
355.543020
 20
278.707020
 30
0.0
 10
353.097170
 20
278.088830
 30
0.0
 10
350.614570
 20
276.913840
 30
0.0
 10
347.043020
 20
277.335930
 30
0.0
  0
SPLINE
  5
12c
100
AcDbEntity
  8
Ebene_1
 62
7
100
AcDbSpline
 70
8
 71
3
 72
8
 73
4
 74
0
 40
0
 40
0
 40
0
 40
0
 40
1
 40
1
 40
1
 40
1
 10
347.043020
 20
277.335930
 30
0.0
 10
340.222250
 20
278.142030
 30
0.0
 10
339.291720
 20
287.815650
 30
0.0
 10
335.199270
 20
290.916010
 30
0.0
  0
SPLINE
  5
12d
100
AcDbEntity
  8
Ebene_1
 62
7
100
AcDbSpline
 70
8
 71
3
 72
8
 73
4
 74
0
 40
0
 40
0
 40
0
 40
0
 40
1
 40
1
 40
1
 40
1
 10
335.199270
 20
290.916010
 30
0.0
 10
333.664590
 20
292.078630
 30
0.0
 10
331.240250
 20
292.254660
 30
0.0
 10
328.593800
 20
292.166010
 30
0.0
  0
LWPOLYLINE
  5
12e
100
AcDbEntity
  8
Ebene_1
 62
7
100
AcDbPolyline
 90
1
 70
1
 10
396.082080
 20
270.386710
 30
0.0
  0
SPLINE
  5
12f
100
AcDbEntity
  8
Ebene_1
 62
7
100
AcDbSpline
 70
8
 71
3
 72
8
 73
4
 74
0
 40
0
 40
0
 40
0
 40
0
 40
1
 40
1
 40
1
 40
1
 10
202.800830
 20
329.335930
 30
0.0
 10
202.296730
 20
328.167640
 30
0.0
 10
201.789070
 20
327.000060
 30
0.0
 10
201.294970
 20
325.832020
 30
0.0
  0
SPLINE
  5
130
100
AcDbEntity
  8
Ebene_1
 62
7
100
AcDbSpline
 70
8
 71
3
 72
8
 73
4
 74
0
 40
0
 40
0
 40
0
 40
0
 40
1
 40
1
 40
1
 40
1
 10
201.294970
 20
325.832020
 30
0.0
 10
205.383460
 20
324.264850
 30
0.0
 10
208.658140
 20
322.902770
 30
0.0
 10
209.509820
 20
322.105460
 30
0.0
  0
SPLINE
  5
131
100
AcDbEntity
  8
Ebene_1
 62
7
100
AcDbSpline
 70
8
 71
3
 72
8
 73
4
 74
0
 40
0
 40
0
 40
0
 40
0
 40
1
 40
1
 40
1
 40
1
 10
209.509820
 20
322.105460
 30
0.0
 10
212.424140
 20
319.377140
 30
0.0
 10
214.904820
 20
304.929680
 30
0.0
 10
214.718800
 20
298.294910
 30
0.0
  0
SPLINE
  5
132
100
AcDbEntity
  8
Ebene_1
 62
7
100
AcDbSpline
 70
8
 71
3
 72
8
 73
4
 74
0
 40
0
 40
0
 40
0
 40
0
 40
1
 40
1
 40
1
 40
1
 10
214.718800
 20
298.294910
 30
0.0
 10
214.532770
 20
291.660160
 30
0.0
 10
213.726140
 20
284.094960
 30
0.0
 10
207.525440
 20
280.808580
 30
0.0
  0
SPLINE
  5
133
100
AcDbEntity
  8
Ebene_1
 62
7
100
AcDbSpline
 70
8
 71
3
 72
8
 73
4
 74
0
 40
0
 40
0
 40
0
 40
0
 40
1
 40
1
 40
1
 40
1
 10
207.525440
 20
280.808580
 30
0.0
 10
203.229890
 20
278.531950
 30
0.0
 10
192.704540
 20
279.145350
 30
0.0
 10
185.054730
 20
279.611320
 30
0.0
  0
SPLINE
  5
134
100
AcDbEntity
  8
Ebene_1
 62
7
100
AcDbSpline
 70
8
 71
3
 72
8
 73
4
 74
0
 40
0
 40
0
 40
0
 40
0
 40
1
 40
1
 40
1
 40
1
 10
185.054730
 20
279.611320
 30
0.0
 10
183.938510
 20
273.997920
 30
0.0
 10
183.209270
 20
268.303570
 30
0.0
 10
182.636760
 20
262.609370
 30
0.0
  0
SPLINE
  5
135
100
AcDbEntity
  8
Ebene_1
 62
7
100
AcDbSpline
 70
8
 71
3
 72
8
 73
4
 74
0
 40
0
 40
0
 40
0
 40
0
 40
1
 40
1
 40
1
 40
1
 10
182.636760
 20
262.609370
 30
0.0
 10
181.838410
 20
254.668940
 30
0.0
 10
181.064560
 20
246.672000
 30
0.0
 10
181.414100
 20
238.699210
 30
0.0
  0
SPLINE
  5
136
100
AcDbEntity
  8
Ebene_1
 62
7
100
AcDbSpline
 70
8
 71
3
 72
8
 73
4
 74
0
 40
0
 40
0
 40
0
 40
0
 40
1
 40
1
 40
1
 40
1
 10
181.414100
 20
238.699210
 30
0.0
 10
181.627600
 20
233.829620
 30
0.0
 10
182.464120
 20
229.013260
 30
0.0
 10
183.306680
 20
224.203110
 30
0.0
  0
SPLINE
  5
137
100
AcDbEntity
  8
Ebene_1
 62
7
100
AcDbSpline
 70
8
 71
3
 72
8
 73
4
 74
0
 40
0
 40
0
 40
0
 40
0
 40
1
 40
1
 40
1
 40
1
 10
183.306680
 20
224.203110
 30
0.0
 10
190.702894
 20
223.285406
 30
0.0
 10
198.150776
 20
222.847643
 30
0.0
 10
205.603570
 20
222.892570
 30
0.0
  0
SPLINE
  5
138
100
AcDbEntity
  8
Ebene_1
 62
7
100
AcDbSpline
 70
8
 71
3
 72
8
 73
4
 74
0
 40
0
 40
0
 40
0
 40
0
 40
1
 40
1
 40
1
 40
1
 10
205.603570
 20
222.892570
 30
0.0
 10
222.841530
 20
222.892570
 30
0.0
 10
233.507860
 20
224.628770
 30
0.0
 10
239.894580
 20
222.892570
 30
0.0
  0
SPLINE
  5
139
100
AcDbEntity
  8
Ebene_1
 62
7
100
AcDbSpline
 70
8
 71
3
 72
8
 73
4
 74
0
 40
0
 40
0
 40
0
 40
0
 40
1
 40
1
 40
1
 40
1
 10
239.894580
 20
222.892570
 30
0.0
 10
246.281300
 20
221.156360
 30
0.0
 10
249.007980
 20
214.026320
 30
0.0
 10
250.744190
 20
207.019520
 30
0.0
  0
SPLINE
  5
13a
100
AcDbEntity
  8
Ebene_1
 62
7
100
AcDbSpline
 70
8
 71
3
 72
8
 73
4
 74
0
 40
0
 40
0
 40
0
 40
0
 40
1
 40
1
 40
1
 40
1
 10
250.744190
 20
207.019520
 30
0.0
 10
252.480390
 20
200.012730
 30
0.0
 10
238.776850
 20
172.356730
 30
0.0
 10
237.970750
 20
169.814440
 30
0.0
  0
SPLINE
  5
13b
100
AcDbEntity
  8
Ebene_1
 62
7
100
AcDbSpline
 70
8
 71
3
 72
8
 73
4
 74
0
 40
0
 40
0
 40
0
 40
0
 40
1
 40
1
 40
1
 40
1
 10
237.970750
 20
169.814440
 30
0.0
 10
237.773593
 20
166.941869
 30
0.0
 10
238.005969
 20
164.055956
 30
0.0
 10
238.660210
 20
161.251940
 30
0.0
  0
SPLINE
  5
13c
100
AcDbEntity
  8
Ebene_1
 62
7
100
AcDbSpline
 70
8
 71
3
 72
8
 73
4
 74
0
 40
0
 40
0
 40
0
 40
0
 40
1
 40
1
 40
1
 40
1
 10
238.660210
 20
161.251940
 30
0.0
 10
240.500780
 20
161.334540
 30
0.0
 10
242.336570
 20
161.502910
 30
0.0
 10
244.152390
 20
161.783190
 30
0.0
  0
SPLINE
  5
13d
100
AcDbEntity
  8
Ebene_1
 62
7
100
AcDbSpline
 70
8
 71
3
 72
8
 73
4
 74
0
 40
0
 40
0
 40
0
 40
0
 40
1
 40
1
 40
1
 40
1
 10
244.152390
 20
161.783190
 30
0.0
 10
248.154370
 20
162.400920
 30
0.0
 10
252.057860
 20
163.590140
 30
0.0
 10
255.910210
 20
164.837880
 30
0.0
  0
SPLINE
  5
13e
100
AcDbEntity
  8
Ebene_1
 62
7
100
AcDbSpline
 70
8
 71
3
 72
8
 73
4
 74
0
 40
0
 40
0
 40
0
 40
0
 40
1
 40
1
 40
1
 40
1
 10
255.910210
 20
164.837880
 30
0.0
 10
260.017330
 20
166.168140
 30
0.0
 10
264.088390
 20
167.668640
 30
0.0
 10
267.974660
 20
169.548820
 30
0.0
  0
SPLINE
  5
13f
100
AcDbEntity
  8
Ebene_1
 62
7
100
AcDbSpline
 70
8
 71
3
 72
8
 73
4
 74
0
 40
0
 40
0
 40
0
 40
0
 40
1
 40
1
 40
1
 40
1
 10
267.974660
 20
169.548820
 30
0.0
 10
272.281110
 20
171.632280
 30
0.0
 10
276.369280
 20
174.160770
 30
0.0
 10
280.365280
 20
176.791010
 30
0.0
  0
SPLINE
  5
140
100
AcDbEntity
  8
Ebene_1
 62
7
100
AcDbSpline
 70
8
 71
3
 72
8
 73
4
 74
0
 40
0
 40
0
 40
0
 40
0
 40
1
 40
1
 40
1
 40
1
 10
280.365280
 20
176.791010
 30
0.0
 10
284.500880
 20
179.513110
 30
0.0
 10
288.382040
 20
182.605020
 30
0.0
 10
292.320360
 20
185.605460
 30
0.0
  0
SPLINE
  5
141
100
AcDbEntity
  8
Ebene_1
 62
7
100
AcDbSpline
 70
8
 71
3
 72
8
 73
4
 74
0
 40
0
 40
0
 40
0
 40
0
 40
1
 40
1
 40
1
 40
1
 10
292.320360
 20
185.605460
 30
0.0
 10
293.960310
 20
186.854850
 30
0.0
 10
295.602970
 20
188.103590
 30
0.0
 10
297.242240
 20
189.355460
 30
0.0
  0
SPLINE
  5
142
100
AcDbEntity
  8
Ebene_1
 62
7
100
AcDbSpline
 70
8
 71
3
 72
8
 73
4
 74
0
 40
0
 40
0
 40
0
 40
0
 40
1
 40
1
 40
1
 40
1
 10
297.242240
 20
189.355460
 30
0.0
 10
292.527850
 20
191.639960
 30
0.0
 10
284.751230
 20
193.682060
 30
0.0
 10
277.097710
 20
196.726550
 30
0.0
  0
SPLINE
  5
143
100
AcDbEntity
  8
Ebene_1
 62
7
100
AcDbSpline
 70
8
 71
3
 72
8
 73
4
 74
0
 40
0
 40
0
 40
0
 40
0
 40
1
 40
1
 40
1
 40
1
 10
277.097710
 20
196.726550
 30
0.0
 10
265.874430
 20
201.191070
 30
0.0
 10
263.766880
 20
216.816130
 30
0.0
 10
266.867240
 20
226.365220
 30
0.0
  0
SPLINE
  5
144
100
AcDbEntity
  8
Ebene_1
 62
7
100
AcDbSpline
 70
8
 71
3
 72
8
 73
4
 74
0
 40
0
 40
0
 40
0
 40
0
 40
1
 40
1
 40
1
 40
1
 10
266.867240
 20
226.365220
 30
0.0
 10
269.967580
 20
235.914310
 30
0.0
 10
268.727630
 20
265.120820
 30
0.0
 10
269.347710
 20
268.035150
 30
0.0
  0
SPLINE
  5
145
100
AcDbEntity
  8
Ebene_1
 62
7
100
AcDbSpline
 70
8
 71
3
 72
8
 73
4
 74
0
 40
0
 40
0
 40
0
 40
0
 40
1
 40
1
 40
1
 40
1
 10
269.347710
 20
268.035150
 30
0.0
 10
269.967780
 20
270.949470
 30
0.0
 10
271.704120
 20
270.949210
 30
0.0
 10
277.718800
 20
270.949210
 30
0.0
  0
SPLINE
  5
146
100
AcDbEntity
  8
Ebene_1
 62
7
100
AcDbSpline
 70
8
 71
3
 72
8
 73
4
 74
0
 40
0
 40
0
 40
0
 40
0
 40
1
 40
1
 40
1
 40
1
 10
277.718800
 20
270.949210
 30
0.0
 10
278.685470
 20
270.949210
 30
0.0
 10
281.074070
 20
270.830000
 30
0.0
 10
283.119190
 20
270.740220
 30
0.0
  0
SPLINE
  5
147
100
AcDbEntity
  8
Ebene_1
 62
7
100
AcDbSpline
 70
8
 71
3
 72
8
 73
4
 74
0
 40
0
 40
0
 40
0
 40
0
 40
1
 40
1
 40
1
 40
1
 10
283.119190
 20
270.740220
 30
0.0
 10
282.875620
 20
271.335080
 30
0.0
 10
282.605710
 20
271.919700
 30
0.0
 10
282.373100
 20
272.517570
 30
0.0
  0
SPLINE
  5
148
100
AcDbEntity
  8
Ebene_1
 62
7
100
AcDbSpline
 70
8
 71
3
 72
8
 73
4
 74
0
 40
0
 40
0
 40
0
 40
0
 40
1
 40
1
 40
1
 40
1
 10
282.373100
 20
272.517570
 30
0.0
 10
281.169100
 20
275.612210
 30
0.0
 10
280.224940
 20
278.809240
 30
0.0
 10
279.406300
 20
282.027330
 30
0.0
  0
SPLINE
  5
149
100
AcDbEntity
  8
Ebene_1
 62
7
100
AcDbSpline
 70
8
 71
3
 72
8
 73
4
 74
0
 40
0
 40
0
 40
0
 40
0
 40
1
 40
1
 40
1
 40
1
 10
279.406300
 20
282.027330
 30
0.0
 10
278.558200
 20
285.361230
 30
0.0
 10
277.795890
 20
288.733330
 30
0.0
 10
277.398490
 20
292.150380
 30
0.0
  0
SPLINE
  5
14a
100
AcDbEntity
  8
Ebene_1
 62
7
100
AcDbSpline
 70
8
 71
3
 72
8
 73
4
 74
0
 40
0
 40
0
 40
0
 40
0
 40
1
 40
1
 40
1
 40
1
 10
277.398490
 20
292.150380
 30
0.0
 10
277.021880
 20
295.388450
 30
0.0
 10
276.909150
 20
298.666920
 30
0.0
 10
277.048880
 20
301.923820
 30
0.0
  0
SPLINE
  5
14b
100
AcDbEntity
  8
Ebene_1
 62
7
100
AcDbSpline
 70
8
 71
3
 72
8
 73
4
 74
0
 40
0
 40
0
 40
0
 40
0
 40
1
 40
1
 40
1
 40
1
 10
277.048880
 20
301.923820
 30
0.0
 10
277.097980
 20
303.069170
 30
0.0
 10
277.213810
 20
304.214260
 30
0.0
 10
277.310600
 20
305.359370
 30
0.0
  0
SPLINE
  5
14c
100
AcDbEntity
  8
Ebene_1
 62
7
100
AcDbSpline
 70
8
 71
3
 72
8
 73
4
 74
0
 40
0
 40
0
 40
0
 40
0
 40
1
 40
1
 40
1
 40
1
 10
277.310600
 20
305.359370
 30
0.0
 10
275.132804
 20
301.073737
 30
0.0
 10
272.786571
 20
296.875801
 30
0.0
 10
270.277390
 20
292.775380
 30
0.0
  0
SPLINE
  5
14d
100
AcDbEntity
  8
Ebene_1
 62
7
100
AcDbSpline
 70
8
 71
3
 72
8
 73
4
 74
0
 40
0
 40
0
 40
0
 40
0
 40
1
 40
1
 40
1
 40
1
 10
270.277390
 20
292.775380
 30
0.0
 10
268.541210
 20
291.845270
 30
0.0
 10
250.496650
 20
298.729000
 30
0.0
 10
237.537160
 20
305.177720
 30
0.0
  0
SPLINE
  5
14e
100
AcDbEntity
  8
Ebene_1
 62
7
100
AcDbSpline
 70
8
 71
3
 72
8
 73
4
 74
0
 40
0
 40
0
 40
0
 40
0
 40
1
 40
1
 40
1
 40
1
 10
237.537160
 20
305.177720
 30
0.0
 10
224.577680
 20
311.626470
 30
0.0
 10
218.935060
 20
314.291690
 30
0.0
 10
218.377000
 20
316.833970
 30
0.0
  0
SPLINE
  5
14f
100
AcDbEntity
  8
Ebene_1
 62
7
100
AcDbSpline
 70
8
 71
3
 72
8
 73
4
 74
0
 40
0
 40
0
 40
0
 40
0
 40
1
 40
1
 40
1
 40
1
 10
218.377000
 20
316.833970
 30
0.0
 10
217.845519
 20
320.456034
 30
0.0
 10
216.801877
 20
323.984163
 30
0.0
 10
215.277390
 20
327.312490
 30
0.0
  0
SPLINE
  5
150
100
AcDbEntity
  8
Ebene_1
 62
7
100
AcDbSpline
 70
8
 71
3
 72
8
 73
4
 74
0
 40
0
 40
0
 40
0
 40
0
 40
1
 40
1
 40
1
 40
1
 10
215.277390
 20
327.312490
 30
0.0
 10
214.633700
 20
327.617400
 30
0.0
 10
209.044270
 20
328.134940
 30
0.0
 10
202.800830
 20
329.335930
 30
0.0
  0
LWPOLYLINE
  5
151
100
AcDbEntity
  8
Ebene_1
 62
7
100
AcDbPolyline
 90
1
 70
1
 10
328.593800
 20
292.166010
 30
0.0
  0
SPLINE
  5
152
100
AcDbEntity
  8
Ebene_1
 62
7
100
AcDbSpline
 70
8
 71
3
 72
8
 73
4
 74
0
 40
0
 40
0
 40
0
 40
0
 40
1
 40
1
 40
1
 40
1
 10
256.015670
 20
276.406240
 30
0.0
 10
257.875880
 20
276.406240
 30
0.0
 10
262.464350
 20
276.405640
 30
0.0
 10
261.658250
 20
274.855460
 30
0.0
  0
SPLINE
  5
153
100
AcDbEntity
  8
Ebene_1
 62
7
100
AcDbSpline
 70
8
 71
3
 72
8
 73
4
 74
0
 40
0
 40
0
 40
0
 40
0
 40
1
 40
1
 40
1
 40
1
 10
261.658250
 20
274.855460
 30
0.0
 10
260.852160
 20
273.305280
 30
0.0
 10
252.915460
 20
263.011780
 30
0.0
 10
251.365280
 20
264.003900
 30
0.0
  0
SPLINE
  5
154
100
AcDbEntity
  8
Ebene_1
 62
7
100
AcDbSpline
 70
8
 71
3
 72
8
 73
4
 74
0
 40
0
 40
0
 40
0
 40
0
 40
1
 40
1
 40
1
 40
1
 10
251.365280
 20
264.003900
 30
0.0
 10
249.576929
 20
265.622031
 30
0.0
 10
248.413553
 20
267.816752
 30
0.0
 10
248.078170
 20
270.205070
 30
0.0
  0
SPLINE
  5
155
100
AcDbEntity
  8
Ebene_1
 62
7
100
AcDbSpline
 70
8
 71
3
 72
8
 73
4
 74
0
 40
0
 40
0
 40
0
 40
0
 40
1
 40
1
 40
1
 40
1
 10
248.078170
 20
270.205070
 30
0.0
 10
248.574220
 20
270.887150
 30
0.0
 10
254.279490
 20
276.406240
 30
0.0
 10
256.015670
 20
276.406240
 30
0.0
  0
LWPOLYLINE
  5
156
100
AcDbEntity
  8
Ebene_1
 62
7
100
AcDbPolyline
 90
1
 70
1
 10
202.800830
 20
329.335930
 30
0.0
  0
SPLINE
  5
157
100
AcDbEntity
  8
Ebene_1
 62
7
100
AcDbSpline
 70
8
 71
3
 72
8
 73
4
 74
0
 40
0
 40
0
 40
0
 40
0
 40
1
 40
1
 40
1
 40
1
 10
217.613330
 20
269.818350
 30
0.0
 10
218.114230
 20
269.812350
 30
0.0
 10
218.547070
 20
269.692960
 30
0.0
 10
218.810600
 20
269.398430
 30
0.0
  0
SPLINE
  5
158
100
AcDbEntity
  8
Ebene_1
 62
7
100
AcDbSpline
 70
8
 71
3
 72
8
 73
4
 74
0
 40
0
 40
0
 40
0
 40
0
 40
1
 40
1
 40
1
 40
1
 10
218.810600
 20
269.398430
 30
0.0
 10
222.376382
 20
264.224757
 30
0.0
 10
225.272477
 20
258.620257
 30
0.0
 10
227.429740
 20
252.718740
 30
0.0
  0
SPLINE
  5
159
100
AcDbEntity
  8
Ebene_1
 62
7
100
AcDbSpline
 70
8
 71
3
 72
8
 73
4
 74
0
 40
0
 40
0
 40
0
 40
0
 40
1
 40
1
 40
1
 40
1
 10
227.429740
 20
252.718740
 30
0.0
 10
226.871680
 20
251.602610
 30
0.0
 10
227.679120
 20
249.804270
 30
0.0
 10
225.880910
 20
250.982410
 30
0.0
  0
SPLINE
  5
15a
100
AcDbEntity
  8
Ebene_1
 62
7
100
AcDbSpline
 70
8
 71
3
 72
8
 73
4
 74
0
 40
0
 40
0
 40
0
 40
0
 40
1
 40
1
 40
1
 40
1
 10
225.880910
 20
250.982410
 30
0.0
 10
221.401988
 20
256.397492
 30
0.0
 10
217.456572
 20
262.232527
 30
0.0
 10
214.099620
 20
268.406240
 30
0.0
  0
SPLINE
  5
15b
100
AcDbEntity
  8
Ebene_1
 62
7
100
AcDbSpline
 70
8
 71
3
 72
8
 73
4
 74
0
 40
0
 40
0
 40
0
 40
0
 40
1
 40
1
 40
1
 40
1
 10
214.099620
 20
268.406240
 30
0.0
 10
214.006620
 20
268.824780
 30
0.0
 10
216.110590
 20
269.835790
 30
0.0
 10
217.613290
 20
269.818350
 30
0.0
  0
LWPOLYLINE
  5
15c
100
AcDbEntity
  8
Ebene_1
 62
7
100
AcDbPolyline
 90
1
 70
1
 10
256.015670
 20
276.406240
 30
0.0
  0
SPLINE
  5
15d
100
AcDbEntity
  8
Ebene_1
 62
7
100
AcDbSpline
 70
8
 71
3
 72
8
 73
4
 74
0
 40
0
 40
0
 40
0
 40
0
 40
1
 40
1
 40
1
 40
1
 10
207.712940
 20
265.740220
 30
0.0
 10
208.457030
 20
265.492190
 30
0.0
 10
225.135680
 20
239.758680
 30
0.0
 10
223.771530
 20
238.394520
 30
0.0
  0
SPLINE
  5
15e
100
AcDbEntity
  8
Ebene_1
 62
7
100
AcDbSpline
 70
8
 71
3
 72
8
 73
4
 74
0
 40
0
 40
0
 40
0
 40
0
 40
1
 40
1
 40
1
 40
1
 10
223.771530
 20
238.394520
 30
0.0
 10
222.407390
 20
237.030370
 30
0.0
 10
221.663560
 20
235.666560
 30
0.0
 10
220.857470
 20
236.472650
 30
0.0
  0
SPLINE
  5
15f
100
AcDbEntity
  8
Ebene_1
 62
7
100
AcDbSpline
 70
8
 71
3
 72
8
 73
4
 74
0
 40
0
 40
0
 40
0
 40
0
 40
1
 40
1
 40
1
 40
1
 10
220.857470
 20
236.472650
 30
0.0
 10
214.472309
 20
245.095356
 30
0.0
 10
208.592645
 20
254.081149
 30
0.0
 10
203.248100
 20
263.384760
 30
0.0
  0
SPLINE
  5
160
100
AcDbEntity
  8
Ebene_1
 62
7
100
AcDbSpline
 70
8
 71
3
 72
8
 73
4
 74
0
 40
0
 40
0
 40
0
 40
0
 40
1
 40
1
 40
1
 40
1
 10
203.248100
 20
263.384760
 30
0.0
 10
204.448448
 20
264.624175
 30
0.0
 10
206.012269
 20
265.449181
 30
0.0
 10
207.712940
 20
265.740220
 30
0.0
  0
LWPOLYLINE
  5
161
100
AcDbEntity
  8
Ebene_1
 62
7
100
AcDbPolyline
 90
1
 70
1
 10
217.613290
 20
269.818350
 30
0.0
  0
SPLINE
  5
162
100
AcDbEntity
  8
Ebene_1
 62
7
100
AcDbSpline
 70
8
 71
3
 72
8
 73
4
 74
0
 40
0
 40
0
 40
0
 40
0
 40
1
 40
1
 40
1
 40
1
 10
276.234390
 20
185.480460
 30
0.0
 10
278.020590
 20
185.503360
 30
0.0
 10
283.669930
 20
183.169130
 30
0.0
 10
283.669930
 20
181.595690
 30
0.0
  0
SPLINE
  5
163
100
AcDbEntity
  8
Ebene_1
 62
7
100
AcDbSpline
 70
8
 71
3
 72
8
 73
4
 74
0
 40
0
 40
0
 40
0
 40
0
 40
1
 40
1
 40
1
 40
1
 10
283.669930
 20
181.595690
 30
0.0
 10
283.483910
 20
179.673490
 30
0.0
 10
283.671930
 20
179.302250
 30
0.0
 10
282.679700
 20
179.488270
 30
0.0
  0
SPLINE
  5
164
100
AcDbEntity
  8
Ebene_1
 62
7
100
AcDbSpline
 70
8
 71
3
 72
8
 73
4
 74
0
 40
0
 40
0
 40
0
 40
0
 40
1
 40
1
 40
1
 40
1
 10
282.679700
 20
179.488270
 30
0.0
 10
279.391502
 20
179.885130
 30
0.0
 10
276.188135
 20
180.806314
 30
0.0
 10
273.191420
 20
182.216790
 30
0.0
  0
SPLINE
  5
165
100
AcDbEntity
  8
Ebene_1
 62
7
100
AcDbSpline
 70
8
 71
3
 72
8
 73
4
 74
0
 40
0
 40
0
 40
0
 40
0
 40
1
 40
1
 40
1
 40
1
 10
273.191420
 20
182.216790
 30
0.0
 10
273.191420
 20
182.960880
 30
0.0
 10
275.176320
 20
184.448300
 30
0.0
 10
275.734390
 20
185.316400
 30
0.0
  0
SPLINE
  5
166
100
AcDbEntity
  8
Ebene_1
 62
7
100
AcDbSpline
 70
8
 71
3
 72
8
 73
4
 74
0
 40
0
 40
0
 40
0
 40
0
 40
1
 40
1
 40
1
 40
1
 10
275.734390
 20
185.316400
 30
0.0
 10
275.804090
 20
185.424910
 30
0.0
 10
275.979210
 20
185.477190
 30
0.0
 10
276.234390
 20
185.480460
 30
0.0
  0
LWPOLYLINE
  5
167
100
AcDbEntity
  8
Ebene_1
 62
7
100
AcDbPolyline
 90
1
 70
1
 10
207.712940
 20
265.740220
 30
0.0
  0
SPLINE
  5
168
100
AcDbEntity
  8
Ebene_1
 62
7
100
AcDbSpline
 70
8
 71
3
 72
8
 73
4
 74
0
 40
0
 40
0
 40
0
 40
0
 40
1
 40
1
 40
1
 40
1
 10
318.332080
 20
379.275390
 30
0.0
 10
315.603760
 20
379.647430
 30
0.0
 10
312.939150
 20
374.810820
 30
0.0
 10
308.474660
 20
371.896480
 30
0.0
  0
SPLINE
  5
169
100
AcDbEntity
  8
Ebene_1
 62
7
100
AcDbSpline
 70
8
 71
3
 72
8
 73
4
 74
0
 40
0
 40
0
 40
0
 40
0
 40
1
 40
1
 40
1
 40
1
 10
308.474660
 20
371.896480
 30
0.0
 10
300.552657
 20
366.337349
 30
0.0
 10
291.483018
 20
362.628863
 30
0.0
 10
281.935600
 20
361.044920
 30
0.0
  0
SPLINE
  5
16a
100
AcDbEntity
  8
Ebene_1
 62
7
100
AcDbSpline
 70
8
 71
3
 72
8
 73
4
 74
0
 40
0
 40
0
 40
0
 40
0
 40
1
 40
1
 40
1
 40
1
 10
281.935600
 20
361.044920
 30
0.0
 10
266.805860
 20
358.130580
 30
0.0
 10
249.690650
 20
365.571850
 30
0.0
 10
245.660210
 20
366.501950
 30
0.0
  0
SPLINE
  5
16b
100
AcDbEntity
  8
Ebene_1
 62
7
100
AcDbSpline
 70
8
 71
3
 72
8
 73
4
 74
0
 40
0
 40
0
 40
0
 40
0
 40
1
 40
1
 40
1
 40
1
 10
245.660210
 20
366.501950
 30
0.0
 10
241.629740
 20
367.432060
 30
0.0
 10
234.934090
 20
365.137190
 30
0.0
 10
221.230520
 20
364.951170
 30
0.0
  0
SPLINE
  5
16c
100
AcDbEntity
  8
Ebene_1
 62
7
100
AcDbSpline
 70
8
 71
3
 72
8
 73
4
 74
0
 40
0
 40
0
 40
0
 40
0
 40
1
 40
1
 40
1
 40
1
 10
221.230520
 20
364.951170
 30
0.0
 10
207.526950
 20
364.765150
 30
0.0
 10
208.642860
 20
367.060950
 30
0.0
 10
198.597710
 20
372.517580
 30
0.0
  0
SPLINE
  5
16d
100
AcDbEntity
  8
Ebene_1
 62
7
100
AcDbSpline
 70
8
 71
3
 72
8
 73
4
 74
0
 40
0
 40
0
 40
0
 40
0
 40
1
 40
1
 40
1
 40
1
 10
198.597710
 20
372.517580
 30
0.0
 10
190.555680
 20
376.385103
 30
0.0
 10
181.365910
 20
377.135898
 30
0.0
 10
172.802770
 20
374.625000
 30
0.0
  0
SPLINE
  5
16e
100
AcDbEntity
  8
Ebene_1
 62
7
100
AcDbSpline
 70
8
 71
3
 72
8
 73
4
 74
0
 40
0
 40
0
 40
0
 40
0
 40
1
 40
1
 40
1
 40
1
 10
172.802770
 20
374.625000
 30
0.0
 10
163.543528
 20
369.050012
 30
0.0
 10
155.558091
 20
361.592901
 30
0.0
 10
149.363320
 20
352.736330
 30
0.0
  0
SPLINE
  5
16f
100
AcDbEntity
  8
Ebene_1
 62
7
100
AcDbSpline
 70
8
 71
3
 72
8
 73
4
 74
0
 40
0
 40
0
 40
0
 40
0
 40
1
 40
1
 40
1
 40
1
 10
149.363320
 20
352.736330
 30
0.0
 10
148.243660
 20
349.200560
 30
0.0
 10
156.383850
 20
345.012480
 30
0.0
 10
166.341840
 20
339.765610
 30
0.0
  0
SPLINE
  5
170
100
AcDbEntity
  8
Ebene_1
 62
7
100
AcDbSpline
 70
8
 71
3
 72
8
 73
4
 74
0
 40
0
 40
0
 40
0
 40
0
 40
1
 40
1
 40
1
 40
1
 10
166.341840
 20
339.765610
 30
0.0
 10
168.960060
 20
342.266100
 30
0.0
 10
172.173100
 20
344.229160
 30
0.0
 10
175.566450
 20
345.466790
 30
0.0
  0
SPLINE
  5
171
100
AcDbEntity
  8
Ebene_1
 62
7
100
AcDbSpline
 70
8
 71
3
 72
8
 73
4
 74
0
 40
0
 40
0
 40
0
 40
0
 40
1
 40
1
 40
1
 40
1
 10
175.566450
 20
345.466790
 30
0.0
 10
175.569450
 20
345.467710
 30
0.0
 10
175.571450
 20
345.467790
 30
0.0
 10
175.574450
 20
345.468790
 30
0.0
  0
SPLINE
  5
172
100
AcDbEntity
  8
Ebene_1
 62
7
100
AcDbSpline
 70
8
 71
3
 72
8
 73
4
 74
0
 40
0
 40
0
 40
0
 40
0
 40
1
 40
1
 40
1
 40
1
 10
175.574450
 20
345.468790
 30
0.0
 10
174.108880
 20
347.598120
 30
0.0
 10
173.417210
 20
349.489790
 30
0.0
 10
173.980700
 20
350.752000
 30
0.0
  0
SPLINE
  5
173
100
AcDbEntity
  8
Ebene_1
 62
7
100
AcDbSpline
 70
8
 71
3
 72
8
 73
4
 74
0
 40
0
 40
0
 40
0
 40
0
 40
1
 40
1
 40
1
 40
1
 10
173.980700
 20
350.752000
 30
0.0
 10
176.399468
 20
355.285860
 30
0.0
 10
180.111345
 20
358.998419
 30
0.0
 10
184.644760
 20
361.418020
 30
0.0
  0
SPLINE
  5
174
100
AcDbEntity
  8
Ebene_1
 62
7
100
AcDbSpline
 70
8
 71
3
 72
8
 73
4
 74
0
 40
0
 40
0
 40
0
 40
0
 40
1
 40
1
 40
1
 40
1
 10
184.644760
 20
361.418020
 30
0.0
 10
187.993150
 20
361.852070
 30
0.0
 10
188.241370
 20
359.309450
 30
0.0
 10
187.125240
 20
356.953170
 30
0.0
  0
SPLINE
  5
175
100
AcDbEntity
  8
Ebene_1
 62
7
100
AcDbSpline
 70
8
 71
3
 72
8
 73
4
 74
0
 40
0
 40
0
 40
0
 40
0
 40
1
 40
1
 40
1
 40
1
 10
187.125240
 20
356.953170
 30
0.0
 10
186.200810
 20
355.001610
 30
0.0
 10
186.836210
 20
349.155330
 30
0.0
 10
189.185790
 20
347.183640
 30
0.0
  0
SPLINE
  5
176
100
AcDbEntity
  8
Ebene_1
 62
7
100
AcDbSpline
 70
8
 71
3
 72
8
 73
4
 74
0
 40
0
 40
0
 40
0
 40
0
 40
1
 40
1
 40
1
 40
1
 10
189.185790
 20
347.183640
 30
0.0
 10
191.153110
 20
347.335130
 30
0.0
 10
193.123460
 20
347.432610
 30
0.0
 10
195.086180
 20
347.302780
 30
0.0
  0
SPLINE
  5
177
100
AcDbEntity
  8
Ebene_1
 62
7
100
AcDbSpline
 70
8
 71
3
 72
8
 73
4
 74
0
 40
0
 40
0
 40
0
 40
0
 40
1
 40
1
 40
1
 40
1
 10
195.086180
 20
347.302780
 30
0.0
 10
206.793399
 20
349.832345
 30
0.0
 10
218.624568
 20
351.749665
 30
0.0
 10
230.531490
 20
353.046930
 30
0.0
  0
SPLINE
  5
178
100
AcDbEntity
  8
Ebene_1
 62
7
100
AcDbSpline
 70
8
 71
3
 72
8
 73
4
 74
0
 40
0
 40
0
 40
0
 40
0
 40
1
 40
1
 40
1
 40
1
 10
230.531490
 20
353.046930
 30
0.0
 10
247.497625
 20
352.232329
 30
0.0
 10
264.233365
 20
348.780140
 30
0.0
 10
280.136960
 20
342.814490
 30
0.0
  0
SPLINE
  5
179
100
AcDbEntity
  8
Ebene_1
 62
7
100
AcDbSpline
 70
8
 71
3
 72
8
 73
4
 74
0
 40
0
 40
0
 40
0
 40
0
 40
1
 40
1
 40
1
 40
1
 10
280.136960
 20
342.814490
 30
0.0
 10
283.489440
 20
341.160610
 30
0.0
 10
285.545650
 20
335.486720
 30
0.0
 10
286.570550
 20
331.334020
 30
0.0
  0
SPLINE
  5
17a
100
AcDbEntity
  8
Ebene_1
 62
7
100
AcDbSpline
 70
8
 71
3
 72
8
 73
4
 74
0
 40
0
 40
0
 40
0
 40
0
 40
1
 40
1
 40
1
 40
1
 10
286.570550
 20
331.334020
 30
0.0
 10
287.317580
 20
332.435050
 30
0.0
 10
288.099150
 20
333.512650
 30
0.0
 10
288.918210
 20
334.558630
 30
0.0
  0
SPLINE
  5
17b
100
AcDbEntity
  8
Ebene_1
 62
7
100
AcDbSpline
 70
8
 71
3
 72
8
 73
4
 74
0
 40
0
 40
0
 40
0
 40
0
 40
1
 40
1
 40
1
 40
1
 10
288.918210
 20
334.558630
 30
0.0
 10
290.517670
 20
336.601210
 30
0.0
 10
292.236730
 20
338.569160
 30
0.0
 10
294.152580
 20
340.318400
 30
0.0
  0
SPLINE
  5
17c
100
AcDbEntity
  8
Ebene_1
 62
7
100
AcDbSpline
 70
8
 71
3
 72
8
 73
4
 74
0
 40
0
 40
0
 40
0
 40
0
 40
1
 40
1
 40
1
 40
1
 10
294.152580
 20
340.318400
 30
0.0
 10
295.471390
 20
341.522510
 30
0.0
 10
296.930060
 20
342.574620
 30
0.0
 10
298.427970
 20
343.546920
 30
0.0
  0
SPLINE
  5
17d
100
AcDbEntity
  8
Ebene_1
 62
7
100
AcDbSpline
 70
8
 71
3
 72
8
 73
4
 74
0
 40
0
 40
0
 40
0
 40
0
 40
1
 40
1
 40
1
 40
1
 10
298.427970
 20
343.546920
 30
0.0
 10
300.546630
 20
344.922110
 30
0.0
 10
302.770700
 20
346.145410
 30
0.0
 10
305.060790
 20
347.210990
 30
0.0
  0
SPLINE
  5
17e
100
AcDbEntity
  8
Ebene_1
 62
7
100
AcDbSpline
 70
8
 71
3
 72
8
 73
4
 74
0
 40
0
 40
0
 40
0
 40
0
 40
1
 40
1
 40
1
 40
1
 10
305.060790
 20
347.210990
 30
0.0
 10
307.122430
 20
348.170280
 30
0.0
 10
309.255040
 20
348.990650
 30
0.0
 10
311.429930
 20
349.654350
 30
0.0
  0
SPLINE
  5
17f
100
AcDbEntity
  8
Ebene_1
 62
7
100
AcDbSpline
 70
8
 71
3
 72
8
 73
4
 74
0
 40
0
 40
0
 40
0
 40
0
 40
1
 40
1
 40
1
 40
1
 10
311.429930
 20
349.654350
 30
0.0
 10
313.913530
 20
350.412260
 30
0.0
 10
316.457340
 20
350.992330
 30
0.0
 10
319.021720
 20
351.400440
 30
0.0
  0
SPLINE
  5
180
100
AcDbEntity
  8
Ebene_1
 62
7
100
AcDbSpline
 70
8
 71
3
 72
8
 73
4
 74
0
 40
0
 40
0
 40
0
 40
0
 40
1
 40
1
 40
1
 40
1
 10
319.021720
 20
351.400440
 30
0.0
 10
321.271420
 20
351.758460
 30
0.0
 10
323.555940
 20
351.852490
 30
0.0
 10
325.828360
 20
352.011770
 30
0.0
  0
SPLINE
  5
181
100
AcDbEntity
  8
Ebene_1
 62
7
100
AcDbSpline
 70
8
 71
3
 72
8
 73
4
 74
0
 40
0
 40
0
 40
0
 40
0
 40
1
 40
1
 40
1
 40
1
 10
325.828360
 20
352.011770
 30
0.0
 10
328.123820
 20
352.172660
 30
0.0
 10
330.424590
 20
352.472670
 30
0.0
 10
332.722900
 20
352.359430
 30
0.0
  0
SPLINE
  5
182
100
AcDbEntity
  8
Ebene_1
 62
7
100
AcDbSpline
 70
8
 71
3
 72
8
 73
4
 74
0
 40
0
 40
0
 40
0
 40
0
 40
1
 40
1
 40
1
 40
1
 10
332.722900
 20
352.359430
 30
0.0
 10
332.887760
 20
352.351430
 30
0.0
 10
333.050470
 20
352.316130
 30
0.0
 10
333.215080
 20
352.304730
 30
0.0
  0
SPLINE
  5
183
100
AcDbEntity
  8
Ebene_1
 62
7
100
AcDbSpline
 70
8
 71
3
 72
8
 73
4
 74
0
 40
0
 40
0
 40
0
 40
0
 40
1
 40
1
 40
1
 40
1
 10
333.215080
 20
352.304730
 30
0.0
 10
333.682431
 20
352.706150
 30
0.0
 10
334.157786
 20
353.098156
 30
0.0
 10
334.640860
 20
353.480510
 30
0.0
  0
SPLINE
  5
184
100
AcDbEntity
  8
Ebene_1
 62
7
100
AcDbSpline
 70
8
 71
3
 72
8
 73
4
 74
0
 40
0
 40
0
 40
0
 40
0
 40
1
 40
1
 40
1
 40
1
 10
334.640860
 20
353.480510
 30
0.0
 10
338.910427
 20
355.626177
 30
0.0
 10
342.560514
 20
358.827817
 30
0.0
 10
345.244380
 20
362.781290
 30
0.0
  0
SPLINE
  5
185
100
AcDbEntity
  8
Ebene_1
 62
7
100
AcDbSpline
 70
8
 71
3
 72
8
 73
4
 74
0
 40
0
 40
0
 40
0
 40
0
 40
1
 40
1
 40
1
 40
1
 10
345.244380
 20
362.781290
 30
0.0
 10
345.678430
 20
364.331470
 30
0.0
 10
321.060590
 20
378.903380
 30
0.0
 10
318.332270
 20
379.275430
 30
0.0
  0
LWPOLYLINE
  5
186
100
AcDbEntity
  8
Ebene_1
 62
7
100
AcDbPolyline
 90
1
 70
1
 10
276.234390
 20
185.480460
 30
0.0
  0
SPLINE
  5
187
100
AcDbEntity
  8
Ebene_1
 62
7
100
AcDbSpline
 70
8
 71
3
 72
8
 73
4
 74
0
 40
0
 40
0
 40
0
 40
0
 40
1
 40
1
 40
1
 40
1
 10
321.279350
 20
361.154300
 30
0.0
 10
321.778070
 20
361.123800
 30
0.0
 10
322.116270
 20
361.029880
 30
0.0
 10
322.240280
 20
360.859380
 30
0.0
  0
SPLINE
  5
188
100
AcDbEntity
  8
Ebene_1
 62
7
100
AcDbSpline
 70
8
 71
3
 72
8
 73
4
 74
0
 40
0
 40
0
 40
0
 40
0
 40
1
 40
1
 40
1
 40
1
 10
322.240280
 20
360.859380
 30
0.0
 10
323.170390
 20
359.495220
 30
0.0
 10
324.223620
 20
358.130800
 30
0.0
 10
323.355520
 20
357.386720
 30
0.0
  0
SPLINE
  5
189
100
AcDbEntity
  8
Ebene_1
 62
7
100
AcDbSpline
 70
8
 71
3
 72
8
 73
4
 74
0
 40
0
 40
0
 40
0
 40
0
 40
1
 40
1
 40
1
 40
1
 10
323.355520
 20
357.386720
 30
0.0
 10
318.190208
 20
354.807168
 30
0.0
 10
312.736587
 20
352.850734
 30
0.0
 10
307.109430
 20
351.558590
 30
0.0
  0
SPLINE
  5
18a
100
AcDbEntity
  8
Ebene_1
 62
7
100
AcDbSpline
 70
8
 71
3
 72
8
 73
4
 74
0
 40
0
 40
0
 40
0
 40
0
 40
1
 40
1
 40
1
 40
1
 10
307.109430
 20
351.558590
 30
0.0
 10
305.931290
 20
352.178660
 30
0.0
 10
304.566520
 20
356.891670
 30
0.0
 10
305.558640
 20
357.759770
 30
0.0
  0
SPLINE
  5
18b
100
AcDbEntity
  8
Ebene_1
 62
7
100
AcDbSpline
 70
8
 71
3
 72
8
 73
4
 74
0
 40
0
 40
0
 40
0
 40
0
 40
1
 40
1
 40
1
 40
1
 10
305.558640
 20
357.759770
 30
0.0
 10
306.426740
 20
358.519340
 30
0.0
 10
317.788300
 20
361.367930
 30
0.0
 10
321.279350
 20
361.154300
 30
0.0
  0
LWPOLYLINE
  5
18c
100
AcDbEntity
  8
Ebene_1
 62
7
100
AcDbPolyline
 90
2
 70
0
 10
318.332270
 20
379.275430
 30
0.0
 10
318.332080
 20
379.275390
 30
0.0
  0
LWPOLYLINE
  5
18d
100
AcDbEntity
  8
Ebene_1
 62
7
100
AcDbPolyline
 90
1
 70
1
 10
321.279350
 20
361.154300
 30
0.0
  0
ENDSEC
  0
SECTION
  2
OBJECTS
  0
DICTIONARY
  5
C
330
0
100
AcDbDictionary
  3
ACAD_GROUP
350
D
  3
ACAD_MLINESTYLE
350
17
  0
DICTIONARY
  5
D
330
C
100
AcDbDictionary
  0
DICTIONARY
  5
1A
330
C
100
AcDbDictionary
  0
DICTIONARY
  5
17
330
C
100
AcDbDictionary
  3
STANDARD
350
18
  0
DICTIONARY
  5
19
330
C
100
AcDbDictionary
  0
ENDSEC
  0
EOF
