  0
SECTION
  2
HEADER
  9
$ACADVER
  1
AC1014
  9
$HANDSEED
  5
FFFF
  9
$INSUNITS
 70
     0
  9
$MEASUREMENT
 70
     1
  0
ENDSEC
  0
SECTION
  2
TABLES
  0
TABLE
  2
VPORT
  5
8
330
0
100
AcDbSymbolTable
 70
     4
  0
VPORT
  5
2E
330
8
100
AcDbSymbolTableRecord
100
AcDbViewportTableRecord
  2
*ACTIVE
 70
     0
 10
0.0
 20
0.0
 11
1.0
 21
1.0
 12
210.0
 22
148.5
 13
0.0
 23
0.0
 14
10.0
 24
10.0
 15
10.0
 25
10.0
 16
0.0
 26
0.0
 36
1.0
 17
0.0
 27
0.0
 37
0.0
 40
341.0
 41
1.24
 42
50.0
 43
0.0
 44
0.0
 50
0.0
 51
0.0
 71
     0
 72
   100
 73
     1
 74
     3
 75
     0
 76
     0
 77
     0
 78
     0
  0
ENDTAB
  0
TABLE
  2
LTYPE
  5
5
330
0
100
AcDbSymbolTable
 70
     1
  0
LTYPE
  5
14
330
5
100
AcDbSymbolTableRecord
100
AcDbLinetypeTableRecord
  2
BYBLOCK
 70
     0
  3

 72
    65
 73
     0
 40
0.0
  0
LTYPE
  5
15
330
5
100
AcDbSymbolTableRecord
100
AcDbLinetypeTableRecord
  2
BYLAYER
 70
     0
  3

 72
    65
 73
     0
 40
0.0
  0
LTYPE
  5
16
330
5
100
AcDbSymbolTableRecord
100
AcDbLinetypeTableRecord
  2
CONTINUOUS
 70
     0
  3
Solid line
 72
    65
 73
     0
 40
0.0
  0
ENDTAB
  0
TABLE
  2
LAYER
  5
2
100
AcDbSymbolTable
 70
2
  0
LAYER
  5
50
100
AcDbSymbolTableRecord
100
AcDbLayerTableRecord
  2
0
 70
0
  6
CONTINUOUS
  0
LAYER
  5
51
100
AcDbSymbolTableRecord
100
AcDbLayerTableRecord
  2
Ebene_1
 70
0
  6
CONTINUOUS
  0
ENDTAB
  0
TABLE
  2
STYLE
  5
3
330
0
100
AcDbSymbolTable
 70
     1
  0
STYLE
  5
11
330
3
100
AcDbSymbolTableRecord
100
AcDbTextStyleTableRecord
  2
STANDARD
 70
     0
 40
0.0
 41
1.0
 50
0.0
 71
     0
 42
2.5
  3
txt
  4

  0
ENDTAB
  0
TABLE
  2
VIEW
  5
6
330
0
100
AcDbSymbolTable
 70
     0
  0
ENDTAB
  0
TABLE
  2
UCS
  5
7
330
0
100
AcDbSymbolTable
 70
     0
  0
ENDTAB
  0
TABLE
  2
APPID
  5
9
330
0
100
AcDbSymbolTable
 70
     2
  0
APPID
  5
12
330
9
100
AcDbSymbolTableRecord
100
AcDbRegAppTableRecord
  2
ACAD
 70
     0
  0
ENDTAB
  0
TABLE
  2
DIMSTYLE
  5
A
330
0
100
AcDbSymbolTable
 70
     1
  0
DIMSTYLE
105
27
330
A
100
AcDbSymbolTableRecord
100
AcDbDimStyleTableRecord
  2
ISO-25
 70
     0
  3

  4

  5

  6

  7

 40
1.0
 41
2.5
 42
0.625
 43
3.75
 44
1.25
 45
0.0
 46
0.0
 47
0.0
 48
0.0
140
2.5
141
2.5
142
0.0
143
0.03937007874016
144
1.0
145
0.0
146
1.0
147
0.625
 71
     0
 72
     0
 73
     0
 74
     0
 75
     0
 76
     0
 77
     1
 78
     8
170
     0
171
     3
172
     1
173
     0
174
     0
175
     0
176
     0
177
     0
178
     0
270
     2
271
     2
272
     2
273
     2
274
     3
340
11
275
     0
280
     0
281
     0
282
     0
283
     0
284
     8
285
     0
286
     0
287
     3
288
     0
  0
ENDTAB
  0
TABLE
  2
BLOCK_RECORD
  5
1
330
0
100
AcDbSymbolTable
 70
     1
  0
BLOCK_RECORD
  5
1F
330
1
100
AcDbSymbolTableRecord
100
AcDbBlockTableRecord
  2
*MODEL_SPACE
  0
BLOCK_RECORD
  5
1B
330
1
100
AcDbSymbolTableRecord
100
AcDbBlockTableRecord
  2
*PAPER_SPACE
  0
ENDTAB
  0
ENDSEC
  0
SECTION
  2
BLOCKS
  0
BLOCK
  5
20
330
1F
100
AcDbEntity
  8
0
100
AcDbBlockBegin
  2
*MODEL_SPACE
 70
     0
 10
0.0
 20
0.0
 30
0.0
  3
*MODEL_SPACE
  1

  0
ENDBLK
  5
21
330
1F
100
AcDbEntity
  8
0
100
AcDbBlockEnd
  0
BLOCK
  5
1C
330
1B
100
AcDbEntity
 67
     1
  8
0
100
AcDbBlockBegin
  2
*PAPER_SPACE
  1

  0
ENDBLK
  5
1D
330
1B
100
AcDbEntity
 67
     1
  8
0
100
AcDbBlockEnd
  0
ENDSEC
  0
SECTION
  2
ENTITIES
  0
SPLINE
  5
100
100
AcDbEntity
  8
Ebene_1
 62
7
100
AcDbSpline
 70
8
 71
3
 72
8
 73
4
 74
0
 40
0
 40
0
 40
0
 40
0
 40
1
 40
1
 40
1
 40
1
 10
233.720710
 20
137.509760
 30
0.0
 10
233.121610
 20
137.500760
 30
0.0
 10
232.522800
 20
137.488260
 30
0.0
 10
231.923840
 20
137.488260
 30
0.0
  0
SPLINE
  5
101
100
AcDbEntity
  8
Ebene_1
 62
7
100
AcDbSpline
 70
8
 71
3
 72
8
 73
4
 74
0
 40
0
 40
0
 40
0
 40
0
 40
1
 40
1
 40
1
 40
1
 10
231.923840
 20
137.488260
 30
0.0
 10
232.703970
 20
136.902730
 30
0.0
 10
233.990430
 20
135.896460
 30
0.0
 10
234.064460
 20
135.896460
 30
0.0
  0
SPLINE
  5
102
100
AcDbEntity
  8
Ebene_1
 62
7
100
AcDbSpline
 70
8
 71
3
 72
8
 73
4
 74
0
 40
0
 40
0
 40
0
 40
0
 40
1
 40
1
 40
1
 40
1
 10
234.064460
 20
135.896460
 30
0.0
 10
233.961695
 20
136.436674
 30
0.0
 10
233.847084
 20
136.974567
 30
0.0
 10
233.720710
 20
137.509750
 30
0.0
  0
SPLINE
  5
103
100
AcDbEntity
  8
Ebene_1
 62
7
100
AcDbSpline
 70
8
 71
3
 72
8
 73
4
 74
0
 40
0
 40
0
 40
0
 40
0
 40
1
 40
1
 40
1
 40
1
 10
193.982430
 20
144.960930
 30
0.0
 10
198.394100
 20
136.007800
 30
0.0
 10
201.078130
 20
127.311410
 30
0.0
 10
201.078130
 20
126.968740
 30
0.0
  0
SPLINE
  5
104
100
AcDbEntity
  8
Ebene_1
 62
7
100
AcDbSpline
 70
8
 71
3
 72
8
 73
4
 74
0
 40
0
 40
0
 40
0
 40
0
 40
1
 40
1
 40
1
 40
1
 10
201.078130
 20
126.968740
 30
0.0
 10
201.078130
 20
126.410680
 30
0.0
 10
207.897570
 20
124.859640
 30
0.0
 10
215.648450
 20
121.945300
 30
0.0
  0
SPLINE
  5
105
100
AcDbEntity
  8
Ebene_1
 62
7
100
AcDbSpline
 70
8
 71
3
 72
8
 73
4
 74
0
 40
0
 40
0
 40
0
 40
0
 40
1
 40
1
 40
1
 40
1
 10
215.648450
 20
121.945300
 30
0.0
 10
222.955988
 20
119.643704
 30
0.0
 10
230.388576
 20
117.759799
 30
0.0
 10
237.910170
 20
116.302720
 30
0.0
  0
SPLINE
  5
106
100
AcDbEntity
  8
Ebene_1
 62
7
100
AcDbSpline
 70
8
 71
3
 72
8
 73
4
 74
0
 40
0
 40
0
 40
0
 40
0
 40
1
 40
1
 40
1
 40
1
 10
237.910170
 20
116.302720
 30
0.0
 10
237.707974
 20
120.217659
 30
0.0
 10
236.934831
 20
124.082047
 30
0.0
 10
235.615240
 20
127.773430
 30
0.0
  0
SPLINE
  5
107
100
AcDbEntity
  8
Ebene_1
 62
7
100
AcDbSpline
 70
8
 71
3
 72
8
 73
4
 74
0
 40
0
 40
0
 40
0
 40
0
 40
1
 40
1
 40
1
 40
1
 10
235.615240
 20
127.773430
 30
0.0
 10
235.182250
 20
128.495080
 30
0.0
 10
228.798620
 20
133.233090
 30
0.0
 10
222.210950
 20
138.021470
 30
0.0
  0
SPLINE
  5
108
100
AcDbEntity
  8
Ebene_1
 62
7
100
AcDbSpline
 70
8
 71
3
 72
8
 73
4
 74
0
 40
0
 40
0
 40
0
 40
0
 40
1
 40
1
 40
1
 40
1
 10
222.210950
 20
138.021470
 30
0.0
 10
218.384810
 20
138.419690
 30
0.0
 10
214.573600
 20
138.997120
 30
0.0
 10
210.822280
 20
139.833970
 30
0.0
  0
SPLINE
  5
109
100
AcDbEntity
  8
Ebene_1
 62
7
100
AcDbSpline
 70
8
 71
3
 72
8
 73
4
 74
0
 40
0
 40
0
 40
0
 40
0
 40
1
 40
1
 40
1
 40
1
 10
210.822280
 20
139.833970
 30
0.0
 10
205.218000
 20
141.084190
 30
0.0
 10
199.659500
 20
142.671270
 30
0.0
 10
194.330090
 20
144.808580
 30
0.0
  0
SPLINE
  5
10a
100
AcDbEntity
  8
Ebene_1
 62
7
100
AcDbSpline
 70
8
 71
3
 72
8
 73
4
 74
0
 40
0
 40
0
 40
0
 40
0
 40
1
 40
1
 40
1
 40
1
 10
194.330090
 20
144.808580
 30
0.0
 10
194.213040
 20
144.855580
 30
0.0
 10
194.099470
 20
144.913680
 30
0.0
 10
193.982430
 20
144.960930
 30
0.0
  0
LWPOLYLINE
  5
10b
100
AcDbEntity
  8
Ebene_1
 62
7
100
AcDbPolyline
 90
1
 70
1
 10
233.720710
 20
137.509750
 30
0.0
  0
SPLINE
  5
10c
100
AcDbEntity
  8
Ebene_1
 62
7
100
AcDbSpline
 70
8
 71
3
 72
8
 73
4
 74
0
 40
0
 40
0
 40
0
 40
0
 40
1
 40
1
 40
1
 40
1
 10
185.273440
 20
212.802720
 30
0.0
 10
185.596360
 20
211.097880
 30
0.0
 10
185.930810
 20
209.395320
 30
0.0
 10
186.388680
 20
207.722650
 30
0.0
  0
SPLINE
  5
10d
100
AcDbEntity
  8
Ebene_1
 62
7
100
AcDbSpline
 70
8
 71
3
 72
8
 73
4
 74
0
 40
0
 40
0
 40
0
 40
0
 40
1
 40
1
 40
1
 40
1
 10
186.388680
 20
207.722650
 30
0.0
 10
187.595890
 20
203.312460
 30
0.0
 10
189.203220
 20
199.007310
 30
0.0
 10
191.013680
 20
194.808580
 30
0.0
  0
SPLINE
  5
10e
100
AcDbEntity
  8
Ebene_1
 62
7
100
AcDbSpline
 70
8
 71
3
 72
8
 73
4
 74
0
 40
0
 40
0
 40
0
 40
0
 40
1
 40
1
 40
1
 40
1
 10
191.013680
 20
194.808580
 30
0.0
 10
192.538220
 20
191.272970
 30
0.0
 10
194.245650
 20
187.800370
 30
0.0
 10
196.248060
 20
184.511710
 30
0.0
  0
SPLINE
  5
10f
100
AcDbEntity
  8
Ebene_1
 62
7
100
AcDbSpline
 70
8
 71
3
 72
8
 73
4
 74
0
 40
0
 40
0
 40
0
 40
0
 40
1
 40
1
 40
1
 40
1
 10
196.248060
 20
184.511710
 30
0.0
 10
198.372600
 20
181.022440
 30
0.0
 10
200.570160
 20
177.504660
 30
0.0
 10
203.404310
 20
174.562490
 30
0.0
  0
SPLINE
  5
110
100
AcDbEntity
  8
Ebene_1
 62
7
100
AcDbSpline
 70
8
 71
3
 72
8
 73
4
 74
0
 40
0
 40
0
 40
0
 40
0
 40
1
 40
1
 40
1
 40
1
 10
203.404310
 20
174.562490
 30
0.0
 10
203.782940
 20
174.169430
 30
0.0
 10
204.188360
 20
173.805740
 30
0.0
 10
204.605480
 20
173.455070
 30
0.0
  0
SPLINE
  5
111
100
AcDbEntity
  8
Ebene_1
 62
7
100
AcDbSpline
 70
8
 71
3
 72
8
 73
4
 74
0
 40
0
 40
0
 40
0
 40
0
 40
1
 40
1
 40
1
 40
1
 10
204.605480
 20
173.455070
 30
0.0
 10
205.194220
 20
174.820360
 30
0.0
 10
206.078040
 20
176.004600
 30
0.0
 10
207.154310
 20
175.830070
 30
0.0
  0
SPLINE
  5
112
100
AcDbEntity
  8
Ebene_1
 62
7
100
AcDbSpline
 70
8
 71
3
 72
8
 73
4
 74
0
 40
0
 40
0
 40
0
 40
0
 40
1
 40
1
 40
1
 40
1
 10
207.154310
 20
175.830070
 30
0.0
 10
212.660053
 20
172.000697
 30
0.0
 10
217.919159
 20
167.828375
 30
0.0
 10
222.900400
 20
163.337880
 30
0.0
  0
SPLINE
  5
113
100
AcDbEntity
  8
Ebene_1
 62
7
100
AcDbSpline
 70
8
 71
3
 72
8
 73
4
 74
0
 40
0
 40
0
 40
0
 40
0
 40
1
 40
1
 40
1
 40
1
 10
222.900400
 20
163.337880
 30
0.0
 10
223.528160
 20
163.198360
 30
0.0
 10
224.154570
 20
163.055100
 30
0.0
 10
224.781260
 20
162.917960
 30
0.0
  0
SPLINE
  5
114
100
AcDbEntity
  8
Ebene_1
 62
7
100
AcDbSpline
 70
8
 71
3
 72
8
 73
4
 74
0
 40
0
 40
0
 40
0
 40
0
 40
1
 40
1
 40
1
 40
1
 10
224.781260
 20
162.917960
 30
0.0
 10
225.176760
 20
162.831360
 30
0.0
 10
225.574890
 20
162.748880
 30
0.0
 10
225.970710
 20
162.660150
 30
0.0
  0
SPLINE
  5
115
100
AcDbEntity
  8
Ebene_1
 62
7
100
AcDbSpline
 70
8
 71
3
 72
8
 73
4
 74
0
 40
0
 40
0
 40
0
 40
0
 40
1
 40
1
 40
1
 40
1
 10
225.970710
 20
162.660150
 30
0.0
 10
226.343078
 20
165.733087
 30
0.0
 10
226.478894
 20
168.830083
 30
0.0
 10
226.376960
 20
171.923820
 30
0.0
  0
SPLINE
  5
116
100
AcDbEntity
  8
Ebene_1
 62
7
100
AcDbSpline
 70
8
 71
3
 72
8
 73
4
 74
0
 40
0
 40
0
 40
0
 40
0
 40
1
 40
1
 40
1
 40
1
 10
226.376960
 20
171.923820
 30
0.0
 10
225.570860
 20
173.474000
 30
0.0
 10
207.774850
 20
185.502070
 30
0.0
 10
206.968760
 20
187.238270
 30
0.0
  0
SPLINE
  5
117
100
AcDbEntity
  8
Ebene_1
 62
7
100
AcDbSpline
 70
8
 71
3
 72
8
 73
4
 74
0
 40
0
 40
0
 40
0
 40
0
 40
1
 40
1
 40
1
 40
1
 10
206.968760
 20
187.238270
 30
0.0
 10
206.516881
 20
188.989526
 30
0.0
 10
207.412501
 20
190.808160
 30
0.0
 10
209.076180
 20
191.517570
 30
0.0
  0
SPLINE
  5
118
100
AcDbEntity
  8
Ebene_1
 62
7
100
AcDbSpline
 70
8
 71
3
 72
8
 73
4
 74
0
 40
0
 40
0
 40
0
 40
0
 40
1
 40
1
 40
1
 40
1
 10
209.076180
 20
191.517570
 30
0.0
 10
215.996257
 20
186.861670
 30
0.0
 10
222.546933
 20
181.678981
 30
0.0
 10
228.669930
 20
176.015610
 30
0.0
  0
SPLINE
  5
119
100
AcDbEntity
  8
Ebene_1
 62
7
100
AcDbSpline
 70
8
 71
3
 72
8
 73
4
 74
0
 40
0
 40
0
 40
0
 40
0
 40
1
 40
1
 40
1
 40
1
 10
228.669930
 20
176.015610
 30
0.0
 10
230.769563
 20
181.527309
 30
0.0
 10
233.234677
 20
186.892747
 30
0.0
 10
236.048840
 20
192.076160
 30
0.0
  0
SPLINE
  5
11a
100
AcDbEntity
  8
Ebene_1
 62
7
100
AcDbSpline
 70
8
 71
3
 72
8
 73
4
 74
0
 40
0
 40
0
 40
0
 40
0
 40
1
 40
1
 40
1
 40
1
 10
236.048840
 20
192.076160
 30
0.0
 10
240.513340
 20
200.261090
 30
0.0
 10
240.947600
 20
208.818530
 30
0.0
 10
238.777350
 20
211.298820
 30
0.0
  0
SPLINE
  5
11b
100
AcDbEntity
  8
Ebene_1
 62
7
100
AcDbSpline
 70
8
 71
3
 72
8
 73
4
 74
0
 40
0
 40
0
 40
0
 40
0
 40
1
 40
1
 40
1
 40
1
 10
238.777350
 20
211.298820
 30
0.0
 10
236.607120
 20
213.779110
 30
0.0
 10
216.454050
 20
211.483420
 30
0.0
 10
195.929700
 20
211.855460
 30
0.0
  0
SPLINE
  5
11c
100
AcDbEntity
  8
Ebene_1
 62
7
100
AcDbSpline
 70
8
 71
3
 72
8
 73
4
 74
0
 40
0
 40
0
 40
0
 40
0
 40
1
 40
1
 40
1
 40
1
 10
195.929700
 20
211.855460
 30
0.0
 10
192.360289
 20
211.930052
 30
0.0
 10
188.800040
 20
212.246530
 30
0.0
 10
185.273440
 20
212.802720
 30
0.0
  0
LWPOLYLINE
  5
11d
100
AcDbEntity
  8
Ebene_1
 62
7
100
AcDbPolyline
 90
1
 70
1
 10
193.982430
 20
144.960930
 30
0.0
  0
SPLINE
  5
11e
100
AcDbEntity
  8
Ebene_1
 62
7
100
AcDbSpline
 70
8
 71
3
 72
8
 73
4
 74
0
 40
0
 40
0
 40
0
 40
0
 40
1
 40
1
 40
1
 40
1
 10
218.562510
 20
206.027330
 30
0.0
 10
220.112690
 20
204.849190
 30
0.0
 10
231.398900
 20
194.989150
 30
0.0
 10
230.964850
 20
193.624990
 30
0.0
  0
SPLINE
  5
11f
100
AcDbEntity
  8
Ebene_1
 62
7
100
AcDbSpline
 70
8
 71
3
 72
8
 73
4
 74
0
 40
0
 40
0
 40
0
 40
0
 40
1
 40
1
 40
1
 40
1
 10
230.964850
 20
193.624990
 30
0.0
 10
230.530800
 20
192.260830
 30
0.0
 10
229.787500
 20
190.526390
 30
0.0
 10
228.609390
 20
190.898430
 30
0.0
  0
LWPOLYLINE
  5
120
100
AcDbEntity
  8
Ebene_1
 62
7
100
AcDbPolyline
 90
1
 70
1
 10
185.273440
 20
212.802720
 30
0.0
  0
SPLINE
  5
121
100
AcDbEntity
  8
Ebene_1
 62
7
100
AcDbSpline
 70
8
 71
3
 72
8
 73
4
 74
0
 40
0
 40
0
 40
0
 40
0
 40
1
 40
1
 40
1
 40
1
 10
228.609390
 20
190.525380
 30
0.0
 10
223.623168
 20
193.817131
 30
0.0
 10
219.133651
 20
197.805472
 30
0.0
 10
215.277350
 20
202.369130
 30
0.0
  0
SPLINE
  5
122
100
AcDbEntity
  8
Ebene_1
 62
7
100
AcDbSpline
 70
8
 71
3
 72
8
 73
4
 74
0
 40
0
 40
0
 40
0
 40
0
 40
1
 40
1
 40
1
 40
1
 10
215.277350
 20
202.369130
 30
0.0
 10
215.463370
 20
203.671280
 30
0.0
 10
218.562510
 20
206.027330
 30
0.0
 10
218.562510
 20
206.027330
 30
0.0
  0
LWPOLYLINE
  5
123
100
AcDbEntity
  8
Ebene_1
 62
7
100
AcDbPolyline
 90
2
 70
0
 10
228.609390
 20
190.898430
 30
0.0
 10
228.609390
 20
190.525380
 30
0.0
  0
SPLINE
  5
124
100
AcDbEntity
  8
Ebene_1
 62
7
100
AcDbSpline
 70
8
 71
3
 72
8
 73
4
 74
0
 40
0
 40
0
 40
0
 40
0
 40
1
 40
1
 40
1
 40
1
 10
392.125010
 20
224.185540
 30
0.0
 10
391.465520
 20
224.013950
 30
0.0
 10
390.806020
 20
223.838890
 30
0.0
 10
390.142590
 20
223.691400
 30
0.0
  0
SPLINE
  5
125
100
AcDbEntity
  8
Ebene_1
 62
7
100
AcDbSpline
 70
8
 71
3
 72
8
 73
4
 74
0
 40
0
 40
0
 40
0
 40
0
 40
1
 40
1
 40
1
 40
1
 10
390.142590
 20
223.691400
 30
0.0
 10
387.271310
 20
223.053080
 30
0.0
 10
384.346110
 20
222.640060
 30
0.0
 10
381.416030
 20
222.382800
 30
0.0
  0
SPLINE
  5
126
100
AcDbEntity
  8
Ebene_1
 62
7
100
AcDbSpline
 70
8
 71
3
 72
8
 73
4
 74
0
 40
0
 40
0
 40
0
 40
0
 40
1
 40
1
 40
1
 40
1
 10
381.416030
 20
222.382800
 30
0.0
 10
380.718520
 20
222.321600
 30
0.0
 10
379.694160
 20
222.317400
 30
0.0
 10
378.792980
 20
222.281240
 30
0.0
  0
SPLINE
  5
127
100
AcDbEntity
  8
Ebene_1
 62
7
100
AcDbSpline
 70
8
 71
3
 72
8
 73
4
 74
0
 40
0
 40
0
 40
0
 40
0
 40
1
 40
1
 40
1
 40
1
 10
378.792980
 20
222.281240
 30
0.0
 10
380.483480
 20
220.552902
 30
0.0
 10
382.096395
 20
218.750347
 30
0.0
 10
383.626960
 20
216.878900
 30
0.0
  0
SPLINE
  5
128
100
AcDbEntity
  8
Ebene_1
 62
7
100
AcDbSpline
 70
8
 71
3
 72
8
 73
4
 74
0
 40
0
 40
0
 40
0
 40
0
 40
1
 40
1
 40
1
 40
1
 10
383.626960
 20
216.878900
 30
0.0
 10
383.068890
 20
215.142700
 30
0.0
 10
383.440810
 20
214.584500
 30
0.0
 10
381.890630
 20
215.142570
 30
0.0
  0
SPLINE
  5
129
100
AcDbEntity
  8
Ebene_1
 62
7
100
AcDbSpline
 70
8
 71
3
 72
8
 73
4
 74
0
 40
0
 40
0
 40
0
 40
0
 40
1
 40
1
 40
1
 40
1
 10
381.890630
 20
215.142570
 30
0.0
 10
378.861188
 20
217.351985
 30
0.0
 10
375.922578
 20
219.683326
 30
0.0
 10
373.082040
 20
222.130850
 30
0.0
  0
SPLINE
  5
12a
100
AcDbEntity
  8
Ebene_1
 62
7
100
AcDbSpline
 70
8
 71
3
 72
8
 73
4
 74
0
 40
0
 40
0
 40
0
 40
0
 40
1
 40
1
 40
1
 40
1
 10
373.082040
 20
222.130850
 30
0.0
 10
372.562740
 20
222.130000
 30
0.0
 10
371.468760
 20
222.120850
 30
0.0
 10
371.468760
 20
222.120850
 30
0.0
  0
SPLINE
  5
12b
100
AcDbEntity
  8
Ebene_1
 62
7
100
AcDbSpline
 70
8
 71
3
 72
8
 73
4
 74
0
 40
0
 40
0
 40
0
 40
0
 40
1
 40
1
 40
1
 40
1
 10
371.468760
 20
222.120850
 30
0.0
 10
371.468760
 20
222.120850
 30
0.0
 10
368.258950
 20
216.693360
 30
0.0
 10
366.091810
 20
213.402100
 30
0.0
  0
SPLINE
  5
12c
100
AcDbEntity
  8
Ebene_1
 62
7
100
AcDbSpline
 70
8
 71
3
 72
8
 73
4
 74
0
 40
0
 40
0
 40
0
 40
0
 40
1
 40
1
 40
1
 40
1
 10
366.091810
 20
213.402100
 30
0.0
 10
369.775776
 20
209.939847
 30
0.0
 10
373.308993
 20
206.320614
 30
0.0
 10
376.681650
 20
202.554450
 30
0.0
  0
SPLINE
  5
12d
100
AcDbEntity
  8
Ebene_1
 62
7
100
AcDbSpline
 70
8
 71
3
 72
8
 73
4
 74
0
 40
0
 40
0
 40
0
 40
0
 40
1
 40
1
 40
1
 40
1
 10
376.681650
 20
202.554450
 30
0.0
 10
376.495630
 20
201.004270
 30
0.0
 10
375.874960
 20
199.825930
 30
0.0
 10
375.130870
 20
199.825930
 30
0.0
  0
SPLINE
  5
12e
100
AcDbEntity
  8
Ebene_1
 62
7
100
AcDbSpline
 70
8
 71
3
 72
8
 73
4
 74
0
 40
0
 40
0
 40
0
 40
0
 40
1
 40
1
 40
1
 40
1
 10
375.130870
 20
199.825930
 30
0.0
 10
371.201816
 20
203.053391
 30
0.0
 10
367.368771
 20
206.395990
 30
0.0
 10
363.636730
 20
209.849370
 30
0.0
  0
SPLINE
  5
12f
100
AcDbEntity
  8
Ebene_1
 62
7
100
AcDbSpline
 70
8
 71
3
 72
8
 73
4
 74
0
 40
0
 40
0
 40
0
 40
0
 40
1
 40
1
 40
1
 40
1
 10
363.636730
 20
209.849370
 30
0.0
 10
362.403100
 20
208.138810
 30
0.0
 10
361.136760
 20
206.452160
 30
0.0
 10
359.775400
 20
204.843510
 30
0.0
  0
SPLINE
  5
130
100
AcDbEntity
  8
Ebene_1
 62
7
100
AcDbSpline
 70
8
 71
3
 72
8
 73
4
 74
0
 40
0
 40
0
 40
0
 40
0
 40
1
 40
1
 40
1
 40
1
 10
359.775400
 20
204.843510
 30
0.0
 10
359.125540
 20
204.075590
 30
0.0
 10
358.424420
 20
203.353650
 30
0.0
 10
357.724620
 20
202.630620
 30
0.0
  0
SPLINE
  5
131
100
AcDbEntity
  8
Ebene_1
 62
7
100
AcDbSpline
 70
8
 71
3
 72
8
 73
4
 74
0
 40
0
 40
0
 40
0
 40
0
 40
1
 40
1
 40
1
 40
1
 10
357.724620
 20
202.630620
 30
0.0
 10
362.254144
 20
198.478061
 30
0.0
 10
366.514713
 20
194.041355
 30
0.0
 10
370.480480
 20
189.347420
 30
0.0
  0
SPLINE
  5
132
100
AcDbEntity
  8
Ebene_1
 62
7
100
AcDbSpline
 70
8
 71
3
 72
8
 73
4
 74
0
 40
0
 40
0
 40
0
 40
0
 40
1
 40
1
 40
1
 40
1
 10
370.480480
 20
189.347420
 30
0.0
 10
370.046430
 20
187.797240
 30
0.0
 10
370.853880
 20
187.052490
 30
0.0
 10
368.931650
 20
187.052490
 30
0.0
  0
SPLINE
  5
133
100
AcDbEntity
  8
Ebene_1
 62
7
100
AcDbSpline
 70
8
 71
3
 72
8
 73
4
 74
0
 40
0
 40
0
 40
0
 40
0
 40
1
 40
1
 40
1
 40
1
 10
368.931650
 20
187.052490
 30
0.0
 10
364.095358
 20
191.093130
 30
0.0
 10
359.417998
 20
195.320283
 30
0.0
 10
354.910170
 20
199.724370
 30
0.0
  0
SPLINE
  5
134
100
AcDbEntity
  8
Ebene_1
 62
7
100
AcDbSpline
 70
8
 71
3
 72
8
 73
4
 74
0
 40
0
 40
0
 40
0
 40
0
 40
1
 40
1
 40
1
 40
1
 10
354.910170
 20
199.724370
 30
0.0
 10
354.787710
 20
199.596930
 30
0.0
 10
354.660430
 20
199.473890
 30
0.0
 10
354.539070
 20
199.345460
 30
0.0
  0
SPLINE
  5
135
100
AcDbEntity
  8
Ebene_1
 62
7
100
AcDbSpline
 70
8
 71
3
 72
8
 73
4
 74
0
 40
0
 40
0
 40
0
 40
0
 40
1
 40
1
 40
1
 40
1
 10
354.539070
 20
199.345460
 30
0.0
 10
353.096210
 20
197.818580
 30
0.0
 10
351.662680
 20
196.282900
 30
0.0
 10
350.228530
 20
194.747810
 30
0.0
  0
SPLINE
  5
136
100
AcDbEntity
  8
Ebene_1
 62
7
100
AcDbSpline
 70
8
 71
3
 72
8
 73
4
 74
0
 40
0
 40
0
 40
0
 40
0
 40
1
 40
1
 40
1
 40
1
 10
350.228530
 20
194.747810
 30
0.0
 10
355.800920
 20
189.926102
 30
0.0
 10
361.073133
 20
184.768029
 30
0.0
 10
366.015630
 20
179.302490
 30
0.0
  0
SPLINE
  5
137
100
AcDbEntity
  8
Ebene_1
 62
7
100
AcDbSpline
 70
8
 71
3
 72
8
 73
4
 74
0
 40
0
 40
0
 40
0
 40
0
 40
1
 40
1
 40
1
 40
1
 10
366.015630
 20
179.302490
 30
0.0
 10
366.015640
 20
177.752330
 30
0.0
 10
365.396430
 20
176.760550
 30
0.0
 10
364.652350
 20
177.380620
 30
0.0
  0
SPLINE
  5
138
100
AcDbEntity
  8
Ebene_1
 62
7
100
AcDbSpline
 70
8
 71
3
 72
8
 73
4
 74
0
 40
0
 40
0
 40
0
 40
0
 40
1
 40
1
 40
1
 40
1
 10
364.652350
 20
177.380620
 30
0.0
 10
358.605670
 20
181.846506
 30
0.0
 10
352.746486
 20
186.560830
 30
0.0
 10
347.089850
 20
191.511480
 30
0.0
  0
SPLINE
  5
139
100
AcDbEntity
  8
Ebene_1
 62
7
100
AcDbSpline
 70
8
 71
3
 72
8
 73
4
 74
0
 40
0
 40
0
 40
0
 40
0
 40
1
 40
1
 40
1
 40
1
 10
347.089850
 20
191.511480
 30
0.0
 10
344.871780
 20
189.340370
 30
0.0
 10
342.583820
 20
187.240830
 30
0.0
 10
340.316420
 20
185.120850
 30
0.0
  0
SPLINE
  5
13a
100
AcDbEntity
  8
Ebene_1
 62
7
100
AcDbSpline
 70
8
 71
3
 72
8
 73
4
 74
0
 40
0
 40
0
 40
0
 40
0
 40
1
 40
1
 40
1
 40
1
 10
340.316420
 20
185.120850
 30
0.0
 10
337.159230
 20
182.168990
 30
0.0
 10
334.189940
 20
178.995630
 30
0.0
 10
330.804700
 20
176.308350
 30
0.0
  0
SPLINE
  5
13b
100
AcDbEntity
  8
Ebene_1
 62
7
100
AcDbSpline
 70
8
 71
3
 72
8
 73
4
 74
0
 40
0
 40
0
 40
0
 40
0
 40
1
 40
1
 40
1
 40
1
 10
330.804700
 20
176.308350
 30
0.0
 10
326.981920
 20
173.273780
 30
0.0
 10
322.733880
 20
170.817110
 30
0.0
 10
318.675790
 20
168.105230
 30
0.0
  0
SPLINE
  5
13c
100
AcDbEntity
  8
Ebene_1
 62
7
100
AcDbSpline
 70
8
 71
3
 72
8
 73
4
 74
0
 40
0
 40
0
 40
0
 40
0
 40
1
 40
1
 40
1
 40
1
 10
318.675790
 20
168.105230
 30
0.0
 10
318.250510
 20
167.821030
 30
0.0
 10
317.828230
 20
167.532250
 30
0.0
 10
317.404310
 20
167.245850
 30
0.0
  0
SPLINE
  5
13d
100
AcDbEntity
  8
Ebene_1
 62
7
100
AcDbSpline
 70
8
 71
3
 72
8
 73
4
 74
0
 40
0
 40
0
 40
0
 40
0
 40
1
 40
1
 40
1
 40
1
 10
317.404310
 20
167.245850
 30
0.0
 10
320.317207
 20
154.438736
 30
0.0
 10
325.079403
 20
142.124004
 30
0.0
 10
331.541030
 20
130.689210
 30
0.0
  0
SPLINE
  5
13e
100
AcDbEntity
  8
Ebene_1
 62
7
100
AcDbSpline
 70
8
 71
3
 72
8
 73
4
 74
0
 40
0
 40
0
 40
0
 40
0
 40
1
 40
1
 40
1
 40
1
 10
331.541030
 20
130.689210
 30
0.0
 10
332.099100
 20
129.511080
 30
0.0
 10
339.476620
 20
131.059650
 30
0.0
 10
346.607430
 20
135.152100
 30
0.0
  0
SPLINE
  5
13f
100
AcDbEntity
  8
Ebene_1
 62
7
100
AcDbSpline
 70
8
 71
3
 72
8
 73
4
 74
0
 40
0
 40
0
 40
0
 40
0
 40
1
 40
1
 40
1
 40
1
 10
346.607430
 20
135.152100
 30
0.0
 10
361.999097
 20
146.154494
 30
0.0
 10
373.902389
 20
161.350734
 30
0.0
 10
380.898450
 20
178.929450
 30
0.0
  0
SPLINE
  5
140
100
AcDbEntity
  8
Ebene_1
 62
7
100
AcDbSpline
 70
8
 71
3
 72
8
 73
4
 74
0
 40
0
 40
0
 40
0
 40
0
 40
1
 40
1
 40
1
 40
1
 10
380.898450
 20
178.929450
 30
0.0
 10
385.737340
 20
191.194720
 30
0.0
 10
389.541410
 20
209.383820
 30
0.0
 10
392.125010
 20
224.185310
 30
0.0
  0
LWPOLYLINE
  5
141
100
AcDbEntity
  8
Ebene_1
 62
7
100
AcDbPolyline
 90
1
 70
1
 10
218.562510
 20
206.027330
 30
0.0
  0
LWPOLYLINE
  5
142
100
AcDbEntity
  8
Ebene_1
 62
7
100
AcDbPolyline
 90
2
 70
0
 10
392.125010
 20
224.185310
 30
0.0
 10
392.125010
 20
224.185540
 30
0.0
  0
SPLINE
  5
143
100
AcDbEntity
  8
Ebene_1
 62
7
100
AcDbSpline
 70
8
 71
3
 72
8
 73
4
 74
0
 40
0
 40
0
 40
0
 40
0
 40
1
 40
1
 40
1
 40
1
 10
341.027350
 20
180.851550
 30
0.0
 10
348.037165
 20
176.122957
 30
0.0
 10
354.413720
 20
170.517630
 30
0.0
 10
360.001960
 20
164.171870
 30
0.0
  0
SPLINE
  5
144
100
AcDbEntity
  8
Ebene_1
 62
7
100
AcDbSpline
 70
8
 71
3
 72
8
 73
4
 74
0
 40
0
 40
0
 40
0
 40
0
 40
1
 40
1
 40
1
 40
1
 10
360.001960
 20
164.171870
 30
0.0
 10
360.001960
 20
162.807710
 30
0.0
 10
359.009240
 20
162.064440
 30
0.0
 10
358.451180
 20
162.064440
 30
0.0
  0
SPLINE
  5
145
100
AcDbEntity
  8
Ebene_1
 62
7
100
AcDbSpline
 70
8
 71
3
 72
8
 73
4
 74
0
 40
0
 40
0
 40
0
 40
0
 40
1
 40
1
 40
1
 40
1
 10
358.451180
 20
162.064440
 30
0.0
 10
351.552435
 20
166.829428
 30
0.0
 10
344.947347
 20
172.006146
 30
0.0
 10
338.671890
 20
177.566400
 30
0.0
  0
SPLINE
  5
146
100
AcDbEntity
  8
Ebene_1
 62
7
100
AcDbSpline
 70
8
 71
3
 72
8
 73
4
 74
0
 40
0
 40
0
 40
0
 40
0
 40
1
 40
1
 40
1
 40
1
 10
338.671890
 20
177.566400
 30
0.0
 10
338.485870
 20
178.744530
 30
0.0
 10
340.593300
 20
181.039050
 30
0.0
 10
341.027350
 20
181.039050
 30
0.0
  0
LWPOLYLINE
  5
147
100
AcDbEntity
  8
Ebene_1
 62
7
100
AcDbPolyline
 90
2
 70
0
 10
341.027350
 20
181.039050
 30
0.0
 10
341.027350
 20
180.851550
 30
0.0
  0
SPLINE
  5
148
100
AcDbEntity
  8
Ebene_1
 62
7
100
AcDbSpline
 70
8
 71
3
 72
8
 73
4
 74
0
 40
0
 40
0
 40
0
 40
0
 40
1
 40
1
 40
1
 40
1
 10
336.625010
 20
169.628900
 30
0.0
 10
337.803150
 20
169.628900
 30
0.0
 10
356.778230
 20
153.134630
 30
0.0
 10
355.414070
 20
151.398430
 30
0.0
  0
SPLINE
  5
149
100
AcDbEntity
  8
Ebene_1
 62
7
100
AcDbSpline
 70
8
 71
3
 72
8
 73
4
 74
0
 40
0
 40
0
 40
0
 40
0
 40
1
 40
1
 40
1
 40
1
 10
355.414070
 20
151.398430
 30
0.0
 10
354.049920
 20
149.662230
 30
0.0
 10
354.669330
 20
149.104030
 30
0.0
 10
353.119150
 20
149.662100
 30
0.0
  0
SPLINE
  5
14a
100
AcDbEntity
  8
Ebene_1
 62
7
100
AcDbSpline
 70
8
 71
3
 72
8
 73
4
 74
0
 40
0
 40
0
 40
0
 40
0
 40
1
 40
1
 40
1
 40
1
 10
353.119150
 20
149.662100
 30
0.0
 10
346.147406
 20
154.609265
 30
0.0
 10
339.650114
 20
160.193133
 30
0.0
 10
333.710950
 20
166.341790
 30
0.0
  0
SPLINE
  5
14b
100
AcDbEntity
  8
Ebene_1
 62
7
100
AcDbSpline
 70
8
 71
3
 72
8
 73
4
 74
0
 40
0
 40
0
 40
0
 40
0
 40
1
 40
1
 40
1
 40
1
 10
333.710950
 20
166.341790
 30
0.0
 10
334.083000
 20
167.271900
 30
0.0
 10
335.446880
 20
169.628900
 30
0.0
 10
336.625010
 20
169.628900
 30
0.0
  0
LWPOLYLINE
  5
14c
100
AcDbEntity
  8
Ebene_1
 62
7
100
AcDbPolyline
 90
1
 70
1
 10
341.027350
 20
181.039050
 30
0.0
  0
SPLINE
  5
14d
100
AcDbEntity
  8
Ebene_1
 62
7
100
AcDbSpline
 70
8
 71
3
 72
8
 73
4
 74
0
 40
0
 40
0
 40
0
 40
0
 40
1
 40
1
 40
1
 40
1
 10
287.300830
 20
262.515610
 30
0.0
 10
283.008600
 20
262.375520
 30
0.0
 10
279.651450
 20
262.205070
 30
0.0
 10
279.019580
 20
262.205070
 30
0.0
  0
SPLINE
  5
14e
100
AcDbEntity
  8
Ebene_1
 62
7
100
AcDbSpline
 70
8
 71
3
 72
8
 73
4
 74
0
 40
0
 40
0
 40
0
 40
0
 40
1
 40
1
 40
1
 40
1
 10
279.019580
 20
262.205070
 30
0.0
 10
277.655420
 20
262.205070
 30
0.0
 10
277.656300
 20
254.021080
 30
0.0
 10
277.656300
 20
248.812490
 30
0.0
  0
SPLINE
  5
14f
100
AcDbEntity
  8
Ebene_1
 62
7
100
AcDbSpline
 70
8
 71
3
 72
8
 73
4
 74
0
 40
0
 40
0
 40
0
 40
0
 40
1
 40
1
 40
1
 40
1
 10
277.656300
 20
248.812490
 30
0.0
 10
277.656300
 20
243.603910
 30
0.0
 10
275.919970
 20
219.544910
 30
0.0
 10
275.919970
 20
219.544910
 30
0.0
  0
SPLINE
  5
150
100
AcDbEntity
  8
Ebene_1
 62
7
100
AcDbSpline
 70
8
 71
3
 72
8
 73
4
 74
0
 40
0
 40
0
 40
0
 40
0
 40
1
 40
1
 40
1
 40
1
 10
275.919970
 20
219.544910
 30
0.0
 10
276.102112
 20
215.452199
 30
0.0
 10
277.295193
 20
211.468332
 30
0.0
 10
279.392630
 20
207.949210
 30
0.0
  0
SPLINE
  5
151
100
AcDbEntity
  8
Ebene_1
 62
7
100
AcDbSpline
 70
8
 71
3
 72
8
 73
4
 74
0
 40
0
 40
0
 40
0
 40
0
 40
1
 40
1
 40
1
 40
1
 10
279.392630
 20
207.949210
 30
0.0
 10
282.492990
 20
204.042760
 30
0.0
 10
298.800330
 20
200.199080
 30
0.0
 10
305.373100
 20
198.462880
 30
0.0
  0
SPLINE
  5
152
100
AcDbEntity
  8
Ebene_1
 62
7
100
AcDbSpline
 70
8
 71
3
 72
8
 73
4
 74
0
 40
0
 40
0
 40
0
 40
0
 40
1
 40
1
 40
1
 40
1
 10
305.373100
 20
198.462880
 30
0.0
 10
306.091100
 20
198.273220
 30
0.0
 10
306.720110
 20
197.952370
 30
0.0
 10
307.320360
 20
197.578110
 30
0.0
  0
SPLINE
  5
153
100
AcDbEntity
  8
Ebene_1
 62
7
100
AcDbSpline
 70
8
 71
3
 72
8
 73
4
 74
0
 40
0
 40
0
 40
0
 40
0
 40
1
 40
1
 40
1
 40
1
 10
307.320360
 20
197.578110
 30
0.0
 10
309.798070
 20
199.775560
 30
0.0
 10
312.222370
 20
202.036820
 30
0.0
 10
314.484430
 20
204.453110
 30
0.0
  0
SPLINE
  5
154
100
AcDbEntity
  8
Ebene_1
 62
7
100
AcDbSpline
 70
8
 71
3
 72
8
 73
4
 74
0
 40
0
 40
0
 40
0
 40
0
 40
1
 40
1
 40
1
 40
1
 10
314.484430
 20
204.453110
 30
0.0
 10
316.630000
 20
206.745020
 30
0.0
 10
318.514320
 20
209.268380
 30
0.0
 10
320.505910
 20
211.695300
 30
0.0
  0
SPLINE
  5
155
100
AcDbEntity
  8
Ebene_1
 62
7
100
AcDbSpline
 70
8
 71
3
 72
8
 73
4
 74
0
 40
0
 40
0
 40
0
 40
0
 40
1
 40
1
 40
1
 40
1
 10
320.505910
 20
211.695300
 30
0.0
 10
322.381980
 20
213.981460
 30
0.0
 10
324.221000
 20
216.297830
 30
0.0
 10
326.089890
 20
218.589830
 30
0.0
  0
SPLINE
  5
156
100
AcDbEntity
  8
Ebene_1
 62
7
100
AcDbSpline
 70
8
 71
3
 72
8
 73
4
 74
0
 40
0
 40
0
 40
0
 40
0
 40
1
 40
1
 40
1
 40
1
 10
326.089890
 20
218.589830
 30
0.0
 10
327.683050
 20
220.543670
 30
0.0
 10
329.397320
 20
222.402960
 30
0.0
 10
330.888720
 20
224.435540
 30
0.0
  0
SPLINE
  5
157
100
AcDbEntity
  8
Ebene_1
 62
7
100
AcDbSpline
 70
8
 71
3
 72
8
 73
4
 74
0
 40
0
 40
0
 40
0
 40
0
 40
1
 40
1
 40
1
 40
1
 10
330.888720
 20
224.435540
 30
0.0
 10
331.894360
 20
225.806090
 30
0.0
 10
333.672870
 20
228.697080
 30
0.0
 10
333.677780
 20
228.705070
 30
0.0
  0
SPLINE
  5
158
100
AcDbEntity
  8
Ebene_1
 62
7
100
AcDbSpline
 70
8
 71
3
 72
8
 73
4
 74
0
 40
0
 40
0
 40
0
 40
0
 40
1
 40
1
 40
1
 40
1
 10
333.677780
 20
228.705070
 30
0.0
 10
333.512880
 20
228.773370
 30
0.0
 10
326.070800
 20
231.855800
 30
0.0
 10
322.427780
 20
233.726550
 30
0.0
  0
SPLINE
  5
159
100
AcDbEntity
  8
Ebene_1
 62
7
100
AcDbSpline
 70
8
 71
3
 72
8
 73
4
 74
0
 40
0
 40
0
 40
0
 40
0
 40
1
 40
1
 40
1
 40
1
 10
322.427780
 20
233.726550
 30
0.0
 10
322.403480
 20
233.739050
 30
0.0
 10
322.379880
 20
233.753150
 30
0.0
 10
322.355480
 20
233.765650
 30
0.0
  0
SPLINE
  5
15a
100
AcDbEntity
  8
Ebene_1
 62
7
100
AcDbSpline
 70
8
 71
3
 72
8
 73
4
 74
0
 40
0
 40
0
 40
0
 40
0
 40
1
 40
1
 40
1
 40
1
 10
322.355480
 20
233.765650
 30
0.0
 10
322.350480
 20
233.767650
 30
0.0
 10
322.342480
 20
233.770650
 30
0.0
 10
322.337880
 20
233.773650
 30
0.0
  0
SPLINE
  5
15b
100
AcDbEntity
  8
Ebene_1
 62
7
100
AcDbSpline
 70
8
 71
3
 72
8
 73
4
 74
0
 40
0
 40
0
 40
0
 40
0
 40
1
 40
1
 40
1
 40
1
 10
322.337880
 20
233.773650
 30
0.0
 10
320.291060
 20
234.824730
 30
0.0
 10
318.269580
 20
235.935010
 30
0.0
 10
316.251940
 20
237.049040
 30
0.0
  0
SPLINE
  5
15c
100
AcDbEntity
  8
Ebene_1
 62
7
100
AcDbSpline
 70
8
 71
3
 72
8
 73
4
 74
0
 40
0
 40
0
 40
0
 40
0
 40
1
 40
1
 40
1
 40
1
 10
316.251940
 20
237.049040
 30
0.0
 10
315.593700
 20
237.413040
 30
0.0
 10
314.917820
 20
237.743140
 30
0.0
 10
314.265610
 20
238.117400
 30
0.0
  0
SPLINE
  5
15d
100
AcDbEntity
  8
Ebene_1
 62
7
100
AcDbSpline
 70
8
 71
3
 72
8
 73
4
 74
0
 40
0
 40
0
 40
0
 40
0
 40
1
 40
1
 40
1
 40
1
 10
314.265610
 20
238.117400
 30
0.0
 10
311.559720
 20
239.667310
 30
0.0
 10
308.909980
 20
241.309170
 30
0.0
 10
306.369130
 20
243.109590
 30
0.0
  0
SPLINE
  5
15e
100
AcDbEntity
  8
Ebene_1
 62
7
100
AcDbSpline
 70
8
 71
3
 72
8
 73
4
 74
0
 40
0
 40
0
 40
0
 40
0
 40
1
 40
1
 40
1
 40
1
 10
306.369130
 20
243.109590
 30
0.0
 10
302.041930
 20
246.175770
 30
0.0
 10
297.878160
 20
249.547490
 30
0.0
 10
294.240220
 20
253.406460
 30
0.0
  0
SPLINE
  5
15f
100
AcDbEntity
  8
Ebene_1
 62
7
100
AcDbSpline
 70
8
 71
3
 72
8
 73
4
 74
0
 40
0
 40
0
 40
0
 40
0
 40
1
 40
1
 40
1
 40
1
 10
294.240220
 20
253.406460
 30
0.0
 10
291.621780
 20
256.184010
 30
0.0
 10
289.338280
 20
259.282280
 30
0.0
 10
287.300770
 20
262.515830
 30
0.0
  0
LWPOLYLINE
  5
160
100
AcDbEntity
  8
Ebene_1
 62
7
100
AcDbPolyline
 90
1
 70
1
 10
336.625010
 20
169.628900
 30
0.0
  0
SPLINE
  5
161
100
AcDbEntity
  8
Ebene_1
 62
7
100
AcDbSpline
 70
8
 71
3
 72
8
 73
4
 74
0
 40
0
 40
0
 40
0
 40
0
 40
1
 40
1
 40
1
 40
1
 10
196.537160
 20
315.486320
 30
0.0
 10
195.465180
 20
313.219950
 30
0.0
 10
194.421800
 20
310.942090
 30
0.0
 10
193.543020
 20
308.595690
 30
0.0
  0
SPLINE
  5
162
100
AcDbEntity
  8
Ebene_1
 62
7
100
AcDbSpline
 70
8
 71
3
 72
8
 73
4
 74
0
 40
0
 40
0
 40
0
 40
0
 40
1
 40
1
 40
1
 40
1
 10
193.543020
 20
308.595690
 30
0.0
 10
191.185660
 20
302.301400
 30
0.0
 10
189.096110
 20
295.891360
 30
0.0
 10
187.353570
 20
289.394520
 30
0.0
  0
SPLINE
  5
163
100
AcDbEntity
  8
Ebene_1
 62
7
100
AcDbSpline
 70
8
 71
3
 72
8
 73
4
 74
0
 40
0
 40
0
 40
0
 40
0
 40
1
 40
1
 40
1
 40
1
 10
187.353570
 20
289.394520
 30
0.0
 10
194.848220
 20
289.246080
 30
0.0
 10
202.017980
 20
289.060720
 30
0.0
 10
202.627000
 20
289.365220
 30
0.0
  0
SPLINE
  5
164
100
AcDbEntity
  8
Ebene_1
 62
7
100
AcDbSpline
 70
8
 71
3
 72
8
 73
4
 74
0
 40
0
 40
0
 40
0
 40
0
 40
1
 40
1
 40
1
 40
1
 10
202.627000
 20
289.365220
 30
0.0
 10
204.164727
 20
296.155880
 30
0.0
 10
204.562734
 20
303.154953
 30
0.0
 10
203.804740
 20
310.076160
 30
0.0
  0
SPLINE
  5
165
100
AcDbEntity
  8
Ebene_1
 62
7
100
AcDbSpline
 70
8
 71
3
 72
8
 73
4
 74
0
 40
0
 40
0
 40
0
 40
0
 40
1
 40
1
 40
1
 40
1
 10
203.804740
 20
310.076160
 30
0.0
 10
203.100110
 20
312.143070
 30
0.0
 10
202.447240
 20
312.668840
 30
0.0
 10
196.537160
 20
315.486320
 30
0.0
  0
LWPOLYLINE
  5
166
100
AcDbEntity
  8
Ebene_1
 62
7
100
AcDbPolyline
 90
2
 70
0
 10
287.300770
 20
262.515830
 30
0.0
 10
287.300830
 20
262.515610
 30
0.0
  0
SPLINE
  5
167
100
AcDbEntity
  8
Ebene_1
 62
7
100
AcDbSpline
 70
8
 71
3
 72
8
 73
4
 74
0
 40
0
 40
0
 40
0
 40
0
 40
1
 40
1
 40
1
 40
1
 10
335.800830
 20
327.740220
 30
0.0
 10
334.744440
 20
327.831420
 30
0.0
 10
333.680860
 20
327.823920
 30
0.0
 10
332.636770
 20
327.705120
 30
0.0
  0
SPLINE
  5
168
100
AcDbEntity
  8
Ebene_1
 62
7
100
AcDbSpline
 70
8
 71
3
 72
8
 73
4
 74
0
 40
0
 40
0
 40
0
 40
0
 40
1
 40
1
 40
1
 40
1
 10
332.636770
 20
327.705120
 30
0.0
 10
331.119460
 20
327.532440
 30
0.0
 10
329.638600
 20
326.993110
 30
0.0
 10
328.273490
 20
326.308630
 30
0.0
  0
SPLINE
  5
169
100
AcDbEntity
  8
Ebene_1
 62
7
100
AcDbSpline
 70
8
 71
3
 72
8
 73
4
 74
0
 40
0
 40
0
 40
0
 40
0
 40
1
 40
1
 40
1
 40
1
 10
328.273490
 20
326.308630
 30
0.0
 10
327.826630
 20
326.084570
 30
0.0
 10
327.444810
 20
325.747700
 30
0.0
 10
327.052780
 20
325.437540
 30
0.0
  0
SPLINE
  5
16a
100
AcDbEntity
  8
Ebene_1
 62
7
100
AcDbSpline
 70
8
 71
3
 72
8
 73
4
 74
0
 40
0
 40
0
 40
0
 40
0
 40
1
 40
1
 40
1
 40
1
 10
327.052780
 20
325.437540
 30
0.0
 10
326.486990
 20
324.989910
 30
0.0
 10
325.883080
 20
324.566130
 30
0.0
 10
325.293020
 20
324.130900
 30
0.0
  0
SPLINE
  5
16b
100
AcDbEntity
  8
Ebene_1
 62
7
100
AcDbSpline
 70
8
 71
3
 72
8
 73
4
 74
0
 40
0
 40
0
 40
0
 40
0
 40
1
 40
1
 40
1
 40
1
 10
325.293020
 20
324.130900
 30
0.0
 10
324.878160
 20
313.155020
 30
0.0
 10
326.546290
 20
300.722710
 30
0.0
 10
327.261770
 20
299.781290
 30
0.0
  0
SPLINE
  5
16c
100
AcDbEntity
  8
Ebene_1
 62
7
100
AcDbSpline
 70
8
 71
3
 72
8
 73
4
 74
0
 40
0
 40
0
 40
0
 40
0
 40
1
 40
1
 40
1
 40
1
 10
327.261770
 20
299.781290
 30
0.0
 10
328.439900
 20
298.231110
 30
0.0
 10
329.928790
 20
299.410200
 30
0.0
 10
336.935600
 20
299.410200
 30
0.0
  0
SPLINE
  5
16d
100
AcDbEntity
  8
Ebene_1
 62
7
100
AcDbSpline
 70
8
 71
3
 72
8
 73
4
 74
0
 40
0
 40
0
 40
0
 40
0
 40
1
 40
1
 40
1
 40
1
 10
336.935600
 20
299.410200
 30
0.0
 10
343.942390
 20
299.410200
 30
0.0
 10
350.947980
 20
290.728830
 30
0.0
 10
353.242240
 20
287.814490
 30
0.0
  0
SPLINE
  5
16e
100
AcDbEntity
  8
Ebene_1
 62
7
100
AcDbSpline
 70
8
 71
3
 72
8
 73
4
 74
0
 40
0
 40
0
 40
0
 40
0
 40
1
 40
1
 40
1
 40
1
 10
353.242240
 20
287.814490
 30
0.0
 10
354.043620
 20
286.796520
 30
0.0
 10
355.235680
 20
286.513240
 30
0.0
 10
356.574270
 20
286.544960
 30
0.0
  0
SPLINE
  5
16f
100
AcDbEntity
  8
Ebene_1
 62
7
100
AcDbSpline
 70
8
 71
3
 72
8
 73
4
 74
0
 40
0
 40
0
 40
0
 40
0
 40
1
 40
1
 40
1
 40
1
 10
356.574270
 20
286.544960
 30
0.0
 10
356.717440
 20
288.353610
 30
0.0
 10
356.819450
 20
290.165520
 30
0.0
 10
356.806690
 20
291.976600
 30
0.0
  0
SPLINE
  5
170
100
AcDbEntity
  8
Ebene_1
 62
7
100
AcDbSpline
 70
8
 71
3
 72
8
 73
4
 74
0
 40
0
 40
0
 40
0
 40
0
 40
1
 40
1
 40
1
 40
1
 10
356.806690
 20
291.976600
 30
0.0
 10
356.786090
 20
294.899250
 30
0.0
 10
356.366380
 20
297.810700
 30
0.0
 10
355.933640
 20
300.701210
 30
0.0
  0
SPLINE
  5
171
100
AcDbEntity
  8
Ebene_1
 62
7
100
AcDbSpline
 70
8
 71
3
 72
8
 73
4
 74
0
 40
0
 40
0
 40
0
 40
0
 40
1
 40
1
 40
1
 40
1
 10
355.933640
 20
300.701210
 30
0.0
 10
355.494410
 20
303.635020
 30
0.0
 10
355.116830
 20
306.610590
 30
0.0
 10
354.187550
 20
309.427770
 30
0.0
  0
SPLINE
  5
172
100
AcDbEntity
  8
Ebene_1
 62
7
100
AcDbSpline
 70
8
 71
3
 72
8
 73
4
 74
0
 40
0
 40
0
 40
0
 40
0
 40
1
 40
1
 40
1
 40
1
 10
354.187550
 20
309.427770
 30
0.0
 10
353.160460
 20
312.541500
 30
0.0
 10
351.803100
 20
315.589700
 30
0.0
 10
350.000050
 20
318.328160
 30
0.0
  0
SPLINE
  5
173
100
AcDbEntity
  8
Ebene_1
 62
7
100
AcDbSpline
 70
8
 71
3
 72
8
 73
4
 74
0
 40
0
 40
0
 40
0
 40
0
 40
1
 40
1
 40
1
 40
1
 10
350.000050
 20
318.328160
 30
0.0
 10
348.504180
 20
320.600100
 30
0.0
 10
346.757640
 20
322.794310
 30
0.0
 10
344.589890
 20
324.437540
 30
0.0
  0
SPLINE
  5
174
100
AcDbEntity
  8
Ebene_1
 62
7
100
AcDbSpline
 70
8
 71
3
 72
8
 73
4
 74
0
 40
0
 40
0
 40
0
 40
0
 40
1
 40
1
 40
1
 40
1
 10
344.589890
 20
324.437540
 30
0.0
 10
343.758600
 20
325.067690
 30
0.0
 10
342.853100
 20
325.608540
 30
0.0
 10
341.906300
 20
326.068400
 30
0.0
  0
SPLINE
  5
175
100
AcDbEntity
  8
Ebene_1
 62
7
100
AcDbSpline
 70
8
 71
3
 72
8
 73
4
 74
0
 40
0
 40
0
 40
0
 40
0
 40
1
 40
1
 40
1
 40
1
 10
341.906300
 20
326.068400
 30
0.0
 10
340.944060
 20
326.528820
 30
0.0
 10
339.939560
 20
326.902600
 30
0.0
 10
338.919970
 20
327.181680
 30
0.0
  0
SPLINE
  5
176
100
AcDbEntity
  8
Ebene_1
 62
7
100
AcDbSpline
 70
8
 71
3
 72
8
 73
4
 74
0
 40
0
 40
0
 40
0
 40
0
 40
1
 40
1
 40
1
 40
1
 10
338.919970
 20
327.181680
 30
0.0
 10
337.906430
 20
327.459100
 30
0.0
 10
336.857220
 20
327.649060
 30
0.0
 10
335.800830
 20
327.740270
 30
0.0
  0
LWPOLYLINE
  5
177
100
AcDbEntity
  8
Ebene_1
 62
7
100
AcDbPolyline
 90
1
 70
1
 10
196.537160
 20
315.486320
 30
0.0
  0
SPLINE
  5
178
100
AcDbEntity
  8
Ebene_1
 62
7
100
AcDbSpline
 70
8
 71
3
 72
8
 73
4
 74
0
 40
0
 40
0
 40
0
 40
0
 40
1
 40
1
 40
1
 40
1
 10
142.603560
 20
343.806630
 30
0.0
 10
141.239400
 20
343.992650
 30
0.0
 10
124.932510
 20
325.205840
 30
0.0
 10
116.437540
 20
289.923820
 30
0.0
  0
SPLINE
  5
179
100
AcDbEntity
  8
Ebene_1
 62
7
100
AcDbSpline
 70
8
 71
3
 72
8
 73
4
 74
0
 40
0
 40
0
 40
0
 40
0
 40
1
 40
1
 40
1
 40
1
 10
116.437540
 20
289.923820
 30
0.0
 10
111.124994
 20
270.295644
 30
0.0
 10
111.382663
 20
249.575923
 30
0.0
 10
117.181680
 20
230.085930
 30
0.0
  0
SPLINE
  5
17a
100
AcDbEntity
  8
Ebene_1
 62
7
100
AcDbSpline
 70
8
 71
3
 72
8
 73
4
 74
0
 40
0
 40
0
 40
0
 40
0
 40
1
 40
1
 40
1
 40
1
 10
117.181680
 20
230.085930
 30
0.0
 10
120.678790
 20
226.483900
 30
0.0
 10
130.432400
 20
224.382690
 30
0.0
 10
138.732460
 20
223.343740
 30
0.0
  0
SPLINE
  5
17b
100
AcDbEntity
  8
Ebene_1
 62
7
100
AcDbSpline
 70
8
 71
3
 72
8
 73
4
 74
0
 40
0
 40
0
 40
0
 40
0
 40
1
 40
1
 40
1
 40
1
 10
138.732460
 20
223.343740
 30
0.0
 10
138.451360
 20
225.251240
 30
0.0
 10
138.175940
 20
227.160250
 30
0.0
 10
137.869180
 20
229.060540
 30
0.0
  0
SPLINE
  5
17c
100
AcDbEntity
  8
Ebene_1
 62
7
100
AcDbSpline
 70
8
 71
3
 72
8
 73
4
 74
0
 40
0
 40
0
 40
0
 40
0
 40
1
 40
1
 40
1
 40
1
 10
137.869180
 20
229.060540
 30
0.0
 10
137.129060
 20
233.645350
 30
0.0
 10
136.054190
 20
238.207470
 30
0.0
 10
135.861370
 20
242.847650
 30
0.0
  0
SPLINE
  5
17d
100
AcDbEntity
  8
Ebene_1
 62
7
100
AcDbSpline
 70
8
 71
3
 72
8
 73
4
 74
0
 40
0
 40
0
 40
0
 40
0
 40
1
 40
1
 40
1
 40
1
 10
135.861370
 20
242.847650
 30
0.0
 10
135.606080
 20
248.991340
 30
0.0
 10
136.499020
 20
255.130870
 30
0.0
 10
136.996130
 20
261.259760
 30
0.0
  0
SPLINE
  5
17e
100
AcDbEntity
  8
Ebene_1
 62
7
100
AcDbSpline
 70
8
 71
3
 72
8
 73
4
 74
0
 40
0
 40
0
 40
0
 40
0
 40
1
 40
1
 40
1
 40
1
 10
136.996130
 20
261.259760
 30
0.0
 10
137.395570
 20
266.184420
 30
0.0
 10
137.545970
 20
271.156150
 30
0.0
 10
138.480510
 20
276.007800
 30
0.0
  0
SPLINE
  5
17f
100
AcDbEntity
  8
Ebene_1
 62
7
100
AcDbSpline
 70
8
 71
3
 72
8
 73
4
 74
0
 40
0
 40
0
 40
0
 40
0
 40
1
 40
1
 40
1
 40
1
 10
138.480510
 20
276.007800
 30
0.0
 10
140.031920
 20
284.061930
 30
0.0
 10
142.735940
 20
291.858930
 30
0.0
 10
145.287150
 20
299.654290
 30
0.0
  0
SPLINE
  5
180
100
AcDbEntity
  8
Ebene_1
 62
7
100
AcDbSpline
 70
8
 71
3
 72
8
 73
4
 74
0
 40
0
 40
0
 40
0
 40
0
 40
1
 40
1
 40
1
 40
1
 10
145.287150
 20
299.654290
 30
0.0
 10
146.125770
 20
302.216730
 30
0.0
 10
146.998980
 20
304.775310
 30
0.0
 10
148.078160
 20
307.246080
 30
0.0
  0
SPLINE
  5
181
100
AcDbEntity
  8
Ebene_1
 62
7
100
AcDbSpline
 70
8
 71
3
 72
8
 73
4
 74
0
 40
0
 40
0
 40
0
 40
0
 40
1
 40
1
 40
1
 40
1
 10
148.078160
 20
307.246080
 30
0.0
 10
150.796190
 20
313.468890
 30
0.0
 10
154.015820
 20
319.468650
 30
0.0
 10
157.328160
 20
325.396470
 30
0.0
  0
SPLINE
  5
182
100
AcDbEntity
  8
Ebene_1
 62
7
100
AcDbSpline
 70
8
 71
3
 72
8
 73
4
 74
0
 40
0
 40
0
 40
0
 40
0
 40
1
 40
1
 40
1
 40
1
 10
157.328160
 20
325.396470
 30
0.0
 10
158.820580
 20
328.067320
 30
0.0
 10
160.147090
 20
330.892270
 30
0.0
 10
161.675820
 20
333.560540
 30
0.0
  0
SPLINE
  5
183
100
AcDbEntity
  8
Ebene_1
 62
7
100
AcDbSpline
 70
8
 71
3
 72
8
 73
4
 74
0
 40
0
 40
0
 40
0
 40
0
 40
1
 40
1
 40
1
 40
1
 10
161.675820
 20
333.560540
 30
0.0
 10
151.767930
 20
339.006110
 30
0.0
 10
143.289900
 20
343.713040
 30
0.0
 10
142.603560
 20
343.806630
 30
0.0
  0
LWPOLYLINE
  5
184
100
AcDbEntity
  8
Ebene_1
 62
7
100
AcDbPolyline
 90
1
 70
1
 10
335.800830
 20
327.740270
 30
0.0
  0
SPLINE
  5
185
100
AcDbEntity
  8
Ebene_1
 62
7
100
AcDbSpline
 70
8
 71
3
 72
8
 73
4
 74
0
 40
0
 40
0
 40
0
 40
0
 40
1
 40
1
 40
1
 40
1
 10
141.054730
 20
326.197260
 30
0.0
 10
142.418880
 20
325.825220
 30
0.0
 10
146.262700
 20
324.089770
 30
0.0
 10
145.890660
 20
323.097650
 30
0.0
  0
SPLINE
  5
186
100
AcDbEntity
  8
Ebene_1
 62
7
100
AcDbSpline
 70
8
 71
3
 72
8
 73
4
 74
0
 40
0
 40
0
 40
0
 40
0
 40
1
 40
1
 40
1
 40
1
 10
145.890660
 20
323.097650
 30
0.0
 10
145.518630
 20
322.105540
 30
0.0
 10
138.884680
 20
309.330620
 30
0.0
 10
137.148480
 20
303.501940
 30
0.0
  0
SPLINE
  5
187
100
AcDbEntity
  8
Ebene_1
 62
7
100
AcDbSpline
 70
8
 71
3
 72
8
 73
4
 74
0
 40
0
 40
0
 40
0
 40
0
 40
1
 40
1
 40
1
 40
1
 10
137.148480
 20
303.501940
 30
0.0
 10
135.412280
 20
297.673280
 30
0.0
 10
137.024290
 20
297.674760
 30
0.0
 10
134.668010
 20
297.302720
 30
0.0
  0
SPLINE
  5
188
100
AcDbEntity
  8
Ebene_1
 62
7
100
AcDbSpline
 70
8
 71
3
 72
8
 73
4
 74
0
 40
0
 40
0
 40
0
 40
0
 40
1
 40
1
 40
1
 40
1
 10
134.668010
 20
297.302720
 30
0.0
 10
132.311740
 20
296.930680
 30
0.0
 10
128.839340
 20
296.930750
 30
0.0
 10
128.033240
 20
298.294910
 30
0.0
  0
SPLINE
  5
189
100
AcDbEntity
  8
Ebene_1
 62
7
100
AcDbSpline
 70
8
 71
3
 72
8
 73
4
 74
0
 40
0
 40
0
 40
0
 40
0
 40
1
 40
1
 40
1
 40
1
 10
128.033240
 20
298.294910
 30
0.0
 10
129.666388
 20
306.060578
 30
0.0
 10
132.076298
 20
313.642339
 30
0.0
 10
135.226600
 20
320.925770
 30
0.0
  0
SPLINE
  5
18a
100
AcDbEntity
  8
Ebene_1
 62
7
100
AcDbSpline
 70
8
 71
3
 72
8
 73
4
 74
0
 40
0
 40
0
 40
0
 40
0
 40
1
 40
1
 40
1
 40
1
 10
135.226600
 20
320.925770
 30
0.0
 10
138.326960
 20
325.576310
 30
0.0
 10
139.690570
 20
326.569310
 30
0.0
 10
141.054730
 20
326.197260
 30
0.0
  0
LWPOLYLINE
  5
18b
100
AcDbEntity
  8
Ebene_1
 62
7
100
AcDbPolyline
 90
1
 70
1
 10
142.603560
 20
343.806630
 30
0.0
  0
SPLINE
  5
18c
100
AcDbEntity
  8
Ebene_1
 62
7
100
AcDbSpline
 70
8
 71
3
 72
8
 73
4
 74
0
 40
0
 40
0
 40
0
 40
0
 40
1
 40
1
 40
1
 40
1
 10
223.668020
 20
344.490220
 30
0.0
 10
218.642066
 20
344.410939
 30
0.0
 10
213.625044
 20
344.037910
 30
0.0
 10
208.642630
 20
343.373040
 30
0.0
  0
SPLINE
  5
18d
100
AcDbEntity
  8
Ebene_1
 62
7
100
AcDbSpline
 70
8
 71
3
 72
8
 73
4
 74
0
 40
0
 40
0
 40
0
 40
0
 40
1
 40
1
 40
1
 40
1
 10
208.642630
 20
343.373040
 30
0.0
 10
208.642630
 20
343.373040
 30
0.0
 10
206.584320
 20
343.191380
 30
0.0
 10
204.765670
 20
343.009760
 30
0.0
  0
SPLINE
  5
18e
100
AcDbEntity
  8
Ebene_1
 62
7
100
AcDbSpline
 70
8
 71
3
 72
8
 73
4
 74
0
 40
0
 40
0
 40
0
 40
0
 40
1
 40
1
 40
1
 40
1
 10
204.765670
 20
343.009760
 30
0.0
 10
205.120670
 20
342.634680
 30
0.0
 10
205.434400
 20
342.235040
 30
0.0
 10
205.585990
 20
341.753900
 30
0.0
  0
SPLINE
  5
18f
100
AcDbEntity
  8
Ebene_1
 62
7
100
AcDbSpline
 70
8
 71
3
 72
8
 73
4
 74
0
 40
0
 40
0
 40
0
 40
0
 40
1
 40
1
 40
1
 40
1
 10
205.585990
 20
341.753900
 30
0.0
 10
205.904100
 20
340.744200
 30
0.0
 10
205.835410
 20
339.671810
 30
0.0
 10
205.667990
 20
338.597650
 30
0.0
  0
SPLINE
  5
190
100
AcDbEntity
  8
Ebene_1
 62
7
100
AcDbSpline
 70
8
 71
3
 72
8
 73
4
 74
0
 40
0
 40
0
 40
0
 40
0
 40
1
 40
1
 40
1
 40
1
 10
205.667990
 20
338.597650
 30
0.0
 10
210.813290
 20
336.814890
 30
0.0
 10
219.779420
 20
334.022120
 30
0.0
 10
224.763690
 20
332.521470
 30
0.0
  0
SPLINE
  5
191
100
AcDbEntity
  8
Ebene_1
 62
7
100
AcDbSpline
 70
8
 71
3
 72
8
 73
4
 74
0
 40
0
 40
0
 40
0
 40
0
 40
1
 40
1
 40
1
 40
1
 10
224.763690
 20
332.521470
 30
0.0
 10
230.530360
 20
330.785290
 30
0.0
 10
230.964000
 20
321.113110
 30
0.0
 10
232.328140
 20
319.128900
 30
0.0
  0
SPLINE
  5
192
100
AcDbEntity
  8
Ebene_1
 62
7
100
AcDbSpline
 70
8
 71
3
 72
8
 73
4
 74
0
 40
0
 40
0
 40
0
 40
0
 40
1
 40
1
 40
1
 40
1
 10
232.328140
 20
319.128900
 30
0.0
 10
242.980533
 20
313.873541
 30
0.0
 10
253.981753
 20
309.357025
 30
0.0
 10
265.253930
 20
305.611320
 30
0.0
  0
SPLINE
  5
193
100
AcDbEntity
  8
Ebene_1
 62
7
100
AcDbSpline
 70
8
 71
3
 72
8
 73
4
 74
0
 40
0
 40
0
 40
0
 40
0
 40
1
 40
1
 40
1
 40
1
 10
265.253930
 20
305.611320
 30
0.0
 10
267.982230
 20
304.619200
 30
0.0
 10
275.299870
 20
324.585310
 30
0.0
 10
275.919940
 20
329.421870
 30
0.0
  0
LWPOLYLINE
  5
194
100
AcDbEntity
  8
Ebene_1
 62
7
100
AcDbPolyline
 90
1
 70
1
 10
141.054730
 20
326.197260
 30
0.0
  0
SPLINE
  5
195
100
AcDbEntity
  8
Ebene_1
 62
7
100
AcDbSpline
 70
8
 71
3
 72
8
 73
4
 74
0
 40
0
 40
0
 40
0
 40
0
 40
1
 40
1
 40
1
 40
1
 10
275.919940
 20
329.669910
 30
0.0
 10
276.478000
 20
334.506470
 30
0.0
 10
273.377930
 20
337.792760
 30
0.0
 10
253.597680
 20
341.451160
 30
0.0
  0
SPLINE
  5
196
100
AcDbEntity
  8
Ebene_1
 62
7
100
AcDbSpline
 70
8
 71
3
 72
8
 73
4
 74
0
 40
0
 40
0
 40
0
 40
0
 40
1
 40
1
 40
1
 40
1
 10
253.597680
 20
341.451160
 30
0.0
 10
243.773822
 20
343.628219
 30
0.0
 10
233.728945
 20
344.648175
 30
0.0
 10
223.667990
 20
344.490220
 30
0.0
  0
LWPOLYLINE
  5
197
100
AcDbEntity
  8
Ebene_1
 62
7
100
AcDbPolyline
 90
2
 70
0
 10
275.919940
 20
329.421870
 30
0.0
 10
275.919940
 20
329.669910
 30
0.0
  0
SPLINE
  5
198
100
AcDbEntity
  8
Ebene_1
 62
7
100
AcDbSpline
 70
8
 71
3
 72
8
 73
4
 74
0
 40
0
 40
0
 40
0
 40
0
 40
1
 40
1
 40
1
 40
1
 10
352.623100
 20
360.115230
 30
0.0
 10
350.886900
 20
359.495160
 30
0.0
 10
349.150720
 20
355.030570
 30
0.0
 10
346.236380
 20
352.488280
 30
0.0
  0
SPLINE
  5
199
100
AcDbEntity
  8
Ebene_1
 62
7
100
AcDbSpline
 70
8
 71
3
 72
8
 73
4
 74
0
 40
0
 40
0
 40
0
 40
0
 40
1
 40
1
 40
1
 40
1
 10
346.236380
 20
352.488280
 30
0.0
 10
345.546990
 20
351.886900
 30
0.0
 10
344.629770
 20
351.200010
 30
0.0
 10
343.580130
 20
350.441410
 30
0.0
  0
SPLINE
  5
19a
100
AcDbEntity
  8
Ebene_1
 62
7
100
AcDbSpline
 70
8
 71
3
 72
8
 73
4
 74
0
 40
0
 40
0
 40
0
 40
0
 40
1
 40
1
 40
1
 40
1
 10
343.580130
 20
350.441410
 30
0.0
 10
344.659160
 20
350.168060
 30
0.0
 10
345.729800
 20
349.867990
 30
0.0
 10
346.771530
 20
349.480470
 30
0.0
  0
SPLINE
  5
19b
100
AcDbEntity
  8
Ebene_1
 62
7
100
AcDbSpline
 70
8
 71
3
 72
8
 73
4
 74
0
 40
0
 40
0
 40
0
 40
0
 40
1
 40
1
 40
1
 40
1
 10
346.771530
 20
349.480470
 30
0.0
 10
348.029390
 20
349.012550
 30
0.0
 10
349.240190
 20
348.431220
 30
0.0
 10
350.433640
 20
347.812500
 30
0.0
  0
SPLINE
  5
19c
100
AcDbEntity
  8
Ebene_1
 62
7
100
AcDbSpline
 70
8
 71
3
 72
8
 73
4
 74
0
 40
0
 40
0
 40
0
 40
0
 40
1
 40
1
 40
1
 40
1
 10
350.433640
 20
347.812500
 30
0.0
 10
350.438640
 20
347.809500
 30
0.0
 10
350.444340
 20
347.809500
 30
0.0
 10
350.449240
 20
347.806500
 30
0.0
  0
SPLINE
  5
19d
100
AcDbEntity
  8
Ebene_1
 62
7
100
AcDbSpline
 70
8
 71
3
 72
8
 73
4
 74
0
 40
0
 40
0
 40
0
 40
0
 40
1
 40
1
 40
1
 40
1
 10
350.449240
 20
347.806500
 30
0.0
 10
351.587470
 20
347.216020
 30
0.0
 10
352.709130
 20
346.590220
 30
0.0
 10
353.839860
 20
345.990080
 30
0.0
  0
SPLINE
  5
19e
100
AcDbEntity
  8
Ebene_1
 62
7
100
AcDbSpline
 70
8
 71
3
 72
8
 73
4
 74
0
 40
0
 40
0
 40
0
 40
0
 40
1
 40
1
 40
1
 40
1
 10
353.839860
 20
345.990080
 30
0.0
 10
353.869660
 20
345.974280
 30
0.0
 10
353.899960
 20
345.958980
 30
0.0
 10
353.929760
 20
345.943180
 30
0.0
  0
SPLINE
  5
19f
100
AcDbEntity
  8
Ebene_1
 62
7
100
AcDbSpline
 70
8
 71
3
 72
8
 73
4
 74
0
 40
0
 40
0
 40
0
 40
0
 40
1
 40
1
 40
1
 40
1
 10
353.929760
 20
345.943180
 30
0.0
 10
354.757690
 20
345.504840
 30
0.0
 10
355.594080
 20
345.076180
 30
0.0
 10
356.416090
 20
344.624820
 30
0.0
  0
SPLINE
  5
1a0
100
AcDbEntity
  8
Ebene_1
 62
7
100
AcDbSpline
 70
8
 71
3
 72
8
 73
4
 74
0
 40
0
 40
0
 40
0
 40
0
 40
1
 40
1
 40
1
 40
1
 10
356.416090
 20
344.624820
 30
0.0
 10
357.298330
 20
344.142680
 30
0.0
 10
358.165620
 20
343.637040
 30
0.0
 10
358.990300
 20
343.064270
 30
0.0
  0
SPLINE
  5
1a1
100
AcDbEntity
  8
Ebene_1
 62
7
100
AcDbSpline
 70
8
 71
3
 72
8
 73
4
 74
0
 40
0
 40
0
 40
0
 40
0
 40
1
 40
1
 40
1
 40
1
 10
358.990300
 20
343.064270
 30
0.0
 10
360.516660
 20
342.004180
 30
0.0
 10
361.894770
 20
340.740770
 30
0.0
 10
363.265690
 20
339.486150
 30
0.0
  0
SPLINE
  5
1a2
100
AcDbEntity
  8
Ebene_1
 62
7
100
AcDbSpline
 70
8
 71
3
 72
8
 73
4
 74
0
 40
0
 40
0
 40
0
 40
0
 40
1
 40
1
 40
1
 40
1
 10
363.265690
 20
339.486150
 30
0.0
 10
364.661490
 20
338.208790
 30
0.0
 10
366.031640
 20
336.894810
 30
0.0
 10
367.279370
 20
335.472480
 30
0.0
  0
SPLINE
  5
1a3
100
AcDbEntity
  8
Ebene_1
 62
7
100
AcDbSpline
 70
8
 71
3
 72
8
 73
4
 74
0
 40
0
 40
0
 40
0
 40
0
 40
1
 40
1
 40
1
 40
1
 10
367.279370
 20
335.472480
 30
0.0
 10
368.633660
 20
333.928660
 30
0.0
 10
369.848680
 20
332.264700
 30
0.0
 10
371.031320
 20
330.585760
 30
0.0
  0
SPLINE
  5
1a4
100
AcDbEntity
  8
Ebene_1
 62
7
100
AcDbSpline
 70
8
 71
3
 72
8
 73
4
 74
0
 40
0
 40
0
 40
0
 40
0
 40
1
 40
1
 40
1
 40
1
 10
371.031320
 20
330.585760
 30
0.0
 10
371.288710
 20
330.220360
 30
0.0
 10
371.508130
 20
329.829410
 30
0.0
 10
371.757880
 20
329.458800
 30
0.0
  0
SPLINE
  5
1a5
100
AcDbEntity
  8
Ebene_1
 62
7
100
AcDbSpline
 70
8
 71
3
 72
8
 73
4
 74
0
 40
0
 40
0
 40
0
 40
0
 40
1
 40
1
 40
1
 40
1
 10
371.757880
 20
329.458800
 30
0.0
 10
374.299818
 20
328.211886
 30
0.0
 10
376.717016
 20
326.725336
 30
0.0
 10
378.976630
 20
325.019350
 30
0.0
  0
SPLINE
  5
1a6
100
AcDbEntity
  8
Ebene_1
 62
7
100
AcDbSpline
 70
8
 71
3
 72
8
 73
4
 74
0
 40
0
 40
0
 40
0
 40
0
 40
1
 40
1
 40
1
 40
1
 10
378.976630
 20
325.019350
 30
0.0
 10
379.162650
 20
323.841210
 30
0.0
 10
379.595170
 20
320.617070
 30
0.0
 10
378.044990
 20
321.361150
 30
0.0
  0
SPLINE
  5
1a7
100
AcDbEntity
  8
Ebene_1
 62
7
100
AcDbSpline
 70
8
 71
3
 72
8
 73
4
 74
0
 40
0
 40
0
 40
0
 40
0
 40
1
 40
1
 40
1
 40
1
 10
378.044990
 20
321.361150
 30
0.0
 10
377.914860
 20
321.423650
 30
0.0
 10
376.906210
 20
321.826160
 30
0.0
 10
376.613350
 20
321.950990
 30
0.0
  0
SPLINE
  5
1a8
100
AcDbEntity
  8
Ebene_1
 62
7
100
AcDbSpline
 70
8
 71
3
 72
8
 73
4
 74
0
 40
0
 40
0
 40
0
 40
0
 40
1
 40
1
 40
1
 40
1
 10
376.613350
 20
321.950990
 30
0.0
 10
378.167660
 20
319.602500
 30
0.0
 10
379.759720
 20
317.271330
 30
0.0
 10
380.892650
 20
314.702940
 30
0.0
  0
SPLINE
  5
1a9
100
AcDbEntity
  8
Ebene_1
 62
7
100
AcDbSpline
 70
8
 71
3
 72
8
 73
4
 74
0
 40
0
 40
0
 40
0
 40
0
 40
1
 40
1
 40
1
 40
1
 10
380.892650
 20
314.702940
 30
0.0
 10
382.092250
 20
311.983440
 30
0.0
 10
382.694370
 20
309.034070
 30
0.0
 10
383.421950
 20
306.152160
 30
0.0
  0
SPLINE
  5
1aa
100
AcDbEntity
  8
Ebene_1
 62
7
100
AcDbSpline
 70
8
 71
3
 72
8
 73
4
 74
0
 40
0
 40
0
 40
0
 40
0
 40
1
 40
1
 40
1
 40
1
 10
383.421950
 20
306.152160
 30
0.0
 10
383.503750
 20
305.828120
 30
0.0
 10
383.570070
 20
305.500070
 30
0.0
 10
383.650460
 20
305.175600
 30
0.0
  0
SPLINE
  5
1ab
100
AcDbEntity
  8
Ebene_1
 62
7
100
AcDbSpline
 70
8
 71
3
 72
8
 73
4
 74
0
 40
0
 40
0
 40
0
 40
0
 40
1
 40
1
 40
1
 40
1
 10
383.650460
 20
305.175600
 30
0.0
 10
385.634670
 20
303.764860
 30
0.0
 10
387.043470
 20
302.616270
 30
0.0
 10
387.099680
 20
302.138490
 30
0.0
  0
SPLINE
  5
1ac
100
AcDbEntity
  8
Ebene_1
 62
7
100
AcDbSpline
 70
8
 71
3
 72
8
 73
4
 74
0
 40
0
 40
0
 40
0
 40
0
 40
1
 40
1
 40
1
 40
1
 10
387.099680
 20
302.138490
 30
0.0
 10
387.347710
 20
300.030250
 30
0.0
 10
389.268920
 20
298.479340
 30
0.0
 10
386.726630
 20
298.851380
 30
0.0
  0
SPLINE
  5
1ad
100
AcDbEntity
  8
Ebene_1
 62
7
100
AcDbSpline
 70
8
 71
3
 72
8
 73
4
 74
0
 40
0
 40
0
 40
0
 40
0
 40
1
 40
1
 40
1
 40
1
 10
386.726630
 20
298.851380
 30
0.0
 10
386.127516
 20
299.124915
 30
0.0
 10
385.529851
 20
299.401613
 30
0.0
 10
384.933660
 20
299.681460
 30
0.0
  0
SPLINE
  5
1ae
100
AcDbEntity
  8
Ebene_1
 62
7
100
AcDbSpline
 70
8
 71
3
 72
8
 73
4
 74
0
 40
0
 40
0
 40
0
 40
0
 40
1
 40
1
 40
1
 40
1
 10
384.933660
 20
299.681460
 30
0.0
 10
385.483640
 20
297.138100
 30
0.0
 10
385.983810
 20
294.584160
 30
0.0
 10
386.390690
 20
292.015440
 30
0.0
  0
SPLINE
  5
1af
100
AcDbEntity
  8
Ebene_1
 62
7
100
AcDbSpline
 70
8
 71
3
 72
8
 73
4
 74
0
 40
0
 40
0
 40
0
 40
0
 40
1
 40
1
 40
1
 40
1
 10
386.390690
 20
292.015440
 30
0.0
 10
386.431390
 20
291.758580
 30
0.0
 10
386.461590
 20
291.499140
 30
0.0
 10
386.502020
 20
291.242010
 30
0.0
  0
SPLINE
  5
1b0
100
AcDbEntity
  8
Ebene_1
 62
7
100
AcDbSpline
 70
8
 71
3
 72
8
 73
4
 74
0
 40
0
 40
0
 40
0
 40
0
 40
1
 40
1
 40
1
 40
1
 10
386.502020
 20
291.242010
 30
0.0
 10
387.619233
 20
290.568296
 30
0.0
 10
388.728042
 20
289.880743
 30
0.0
 10
389.828190
 20
289.179510
 30
0.0
  0
SPLINE
  5
1b1
100
AcDbEntity
  8
Ebene_1
 62
7
100
AcDbSpline
 70
8
 71
3
 72
8
 73
4
 74
0
 40
0
 40
0
 40
0
 40
0
 40
1
 40
1
 40
1
 40
1
 10
389.828190
 20
289.179510
 30
0.0
 10
390.200230
 20
287.443310
 30
0.0
 10
391.564340
 20
285.706850
 30
0.0
 10
389.084050
 20
285.706850
 30
0.0
  0
SPLINE
  5
1b2
100
AcDbEntity
  8
Ebene_1
 62
7
100
AcDbSpline
 70
8
 71
3
 72
8
 73
4
 74
0
 40
0
 40
0
 40
0
 40
0
 40
1
 40
1
 40
1
 40
1
 10
389.084050
 20
285.706850
 30
0.0
 10
388.448773
 20
285.986126
 30
0.0
 10
387.814654
 20
286.268028
 30
0.0
 10
387.181710
 20
286.552550
 30
0.0
  0
SPLINE
  5
1b3
100
AcDbEntity
  8
Ebene_1
 62
7
100
AcDbSpline
 70
8
 71
3
 72
8
 73
4
 74
0
 40
0
 40
0
 40
0
 40
0
 40
1
 40
1
 40
1
 40
1
 10
387.181710
 20
286.552550
 30
0.0
 10
387.419710
 20
284.597930
 30
0.0
 10
387.589890
 20
282.637460
 30
0.0
 10
387.611400
 20
280.671700
 30
0.0
  0
SPLINE
  5
1b4
100
AcDbEntity
  8
Ebene_1
 62
7
100
AcDbSpline
 70
8
 71
3
 72
8
 73
4
 74
0
 40
0
 40
0
 40
0
 40
0
 40
1
 40
1
 40
1
 40
1
 10
387.611400
 20
280.671700
 30
0.0
 10
387.621800
 20
279.719780
 30
0.0
 10
387.523100
 20
278.770320
 30
0.0
 10
387.464910
 20
277.820130
 30
0.0
  0
SPLINE
  5
1b5
100
AcDbEntity
  8
Ebene_1
 62
7
100
AcDbSpline
 70
8
 71
3
 72
8
 73
4
 74
0
 40
0
 40
0
 40
0
 40
0
 40
1
 40
1
 40
1
 40
1
 10
387.464910
 20
277.820130
 30
0.0
 10
391.265700
 20
276.765220
 30
0.0
 10
395.264230
 20
277.039950
 30
0.0
 10
396.586050
 20
279.443180
 30
0.0
  0
SPLINE
  5
1b6
100
AcDbEntity
  8
Ebene_1
 62
7
100
AcDbSpline
 70
8
 71
3
 72
8
 73
4
 74
0
 40
0
 40
0
 40
0
 40
0
 40
1
 40
1
 40
1
 40
1
 10
396.586050
 20
279.443180
 30
0.0
 10
397.950150
 20
281.923470
 30
0.0
 10
394.230150
 20
309.083520
 30
0.0
 10
382.634840
 20
331.158020
 30
0.0
  0
SPLINE
  5
1b7
100
AcDbEntity
  8
Ebene_1
 62
7
100
AcDbSpline
 70
8
 71
3
 72
8
 73
4
 74
0
 40
0
 40
0
 40
0
 40
0
 40
1
 40
1
 40
1
 40
1
 10
382.634840
 20
331.158020
 30
0.0
 10
371.039520
 20
353.232550
 30
0.0
 10
354.110810
 20
360.301070
 30
0.0
 10
352.808660
 20
359.867020
 30
0.0
  0
LWPOLYLINE
  5
1b8
100
AcDbEntity
  8
Ebene_1
 62
7
100
AcDbPolyline
 90
1
 70
1
 10
223.667990
 20
344.490220
 30
0.0
  0
SPLINE
  5
1b9
100
AcDbEntity
  8
Ebene_1
 62
7
100
AcDbSpline
 70
8
 71
3
 72
8
 73
4
 74
0
 40
0
 40
0
 40
0
 40
0
 40
1
 40
1
 40
1
 40
1
 10
242.992240
 20
400.652340
 30
0.0
 10
239.513300
 20
400.680640
 30
0.0
 10
236.172660
 20
400.536160
 30
0.0
 10
233.072320
 20
400.171880
 30
0.0
  0
SPLINE
  5
1ba
100
AcDbEntity
  8
Ebene_1
 62
7
100
AcDbSpline
 70
8
 71
3
 72
8
 73
4
 74
0
 40
0
 40
0
 40
0
 40
0
 40
1
 40
1
 40
1
 40
1
 10
233.072320
 20
400.171880
 30
0.0
 10
216.343008
 20
397.687197
 30
0.0
 10
200.193689
 20
392.227357
 30
0.0
 10
185.388720
 20
384.050780
 30
0.0
  0
LWPOLYLINE
  5
1bb
100
AcDbEntity
  8
Ebene_1
 62
7
100
AcDbPolyline
 90
2
 70
0
 10
352.808660
 20
359.867020
 30
0.0
 10
352.623100
 20
360.115230
 30
0.0
  0
SPLINE
  5
1bc
100
AcDbEntity
  8
Ebene_1
 62
7
100
AcDbSpline
 70
8
 71
3
 72
8
 73
4
 74
0
 40
0
 40
0
 40
0
 40
0
 40
1
 40
1
 40
1
 40
1
 10
185.017620
 20
384.298830
 30
0.0
 10
182.103280
 20
382.748650
 30
0.0
 10
195.682160
 20
379.399860
 30
0.0
 10
201.882860
 20
378.841800
 30
0.0
  0
SPLINE
  5
1bd
100
AcDbEntity
  8
Ebene_1
 62
7
100
AcDbSpline
 70
8
 71
3
 72
8
 73
4
 74
0
 40
0
 40
0
 40
0
 40
0
 40
1
 40
1
 40
1
 40
1
 10
201.882860
 20
378.841800
 30
0.0
 10
208.083580
 20
378.283730
 30
0.0
 10
217.199250
 20
371.277340
 30
0.0
 10
223.585990
 20
371.277340
 30
0.0
  0
SPLINE
  5
1be
100
AcDbEntity
  8
Ebene_1
 62
7
100
AcDbSpline
 70
8
 71
3
 72
8
 73
4
 74
0
 40
0
 40
0
 40
0
 40
0
 40
1
 40
1
 40
1
 40
1
 10
223.585990
 20
371.277340
 30
0.0
 10
229.972720
 20
371.277340
 30
0.0
 10
238.839410
 20
373.818880
 30
0.0
 10
252.046930
 20
374.376950
 30
0.0
  0
SPLINE
  5
1bf
100
AcDbEntity
  8
Ebene_1
 62
7
100
AcDbSpline
 70
8
 71
3
 72
8
 73
4
 74
0
 40
0
 40
0
 40
0
 40
0
 40
1
 40
1
 40
1
 40
1
 10
252.046930
 20
374.376950
 30
0.0
 10
265.254420
 20
374.935010
 30
0.0
 10
282.678650
 20
370.656800
 30
0.0
 10
287.701220
 20
371.462890
 30
0.0
  0
SPLINE
  5
1c0
100
AcDbEntity
  8
Ebene_1
 62
7
100
AcDbSpline
 70
8
 71
3
 72
8
 73
4
 74
0
 40
0
 40
0
 40
0
 40
0
 40
1
 40
1
 40
1
 40
1
 10
287.701220
 20
371.462890
 30
0.0
 10
292.723800
 20
372.268980
 30
0.0
 10
306.861980
 20
384.608970
 30
0.0
 10
308.412160
 20
385.787110
 30
0.0
  0
SPLINE
  5
1c1
100
AcDbEntity
  8
Ebene_1
 62
7
100
AcDbSpline
 70
8
 71
3
 72
8
 73
4
 74
0
 40
0
 40
0
 40
0
 40
0
 40
1
 40
1
 40
1
 40
1
 10
308.412160
 20
385.787110
 30
0.0
 10
309.962340
 20
386.965250
 30
0.0
 10
306.427460
 20
388.142240
 30
0.0
 10
302.210990
 20
390.064450
 30
0.0
  0
SPLINE
  5
1c2
100
AcDbEntity
  8
Ebene_1
 62
7
100
AcDbSpline
 70
8
 71
3
 72
8
 73
4
 74
0
 40
0
 40
0
 40
0
 40
0
 40
1
 40
1
 40
1
 40
1
 10
302.210990
 20
390.064450
 30
0.0
 10
298.521560
 20
391.746390
 30
0.0
 10
267.344780
 20
400.453970
 30
0.0
 10
242.992240
 20
400.652340
 30
0.0
  0
LWPOLYLINE
  5
1c3
100
AcDbEntity
  8
Ebene_1
 62
7
100
AcDbPolyline
 90
2
 70
0
 10
185.388720
 20
384.050780
 30
0.0
 10
185.017620
 20
384.298830
 30
0.0
  0
LWPOLYLINE
  5
1c4
100
AcDbEntity
  8
Ebene_1
 62
7
100
AcDbPolyline
 90
1
 70
1
 10
242.992240
 20
400.652340
 30
0.0
  0
ENDSEC
  0
SECTION
  2
OBJECTS
  0
DICTIONARY
  5
C
330
0
100
AcDbDictionary
  3
ACAD_GROUP
350
D
  3
ACAD_MLINESTYLE
350
17
  0
DICTIONARY
  5
D
330
C
100
AcDbDictionary
  0
DICTIONARY
  5
1A
330
C
100
AcDbDictionary
  0
DICTIONARY
  5
17
330
C
100
AcDbDictionary
  3
STANDARD
350
18
  0
DICTIONARY
  5
19
330
C
100
AcDbDictionary
  0
ENDSEC
  0
EOF
