  0
SECTION
  2
HEADER
  9
$ACADVER
  1
AC1014
  9
$HANDSEED
  5
FFFF
  9
$INSUNITS
 70
     0
  9
$MEASUREMENT
 70
     1
  0
ENDSEC
  0
SECTION
  2
TABLES
  0
TABLE
  2
VPORT
  5
8
330
0
100
AcDbSymbolTable
 70
     4
  0
VPORT
  5
2E
330
8
100
AcDbSymbolTableRecord
100
AcDbViewportTableRecord
  2
*ACTIVE
 70
     0
 10
0.0
 20
0.0
 11
1.0
 21
1.0
 12
210.0
 22
148.5
 13
0.0
 23
0.0
 14
10.0
 24
10.0
 15
10.0
 25
10.0
 16
0.0
 26
0.0
 36
1.0
 17
0.0
 27
0.0
 37
0.0
 40
341.0
 41
1.24
 42
50.0
 43
0.0
 44
0.0
 50
0.0
 51
0.0
 71
     0
 72
   100
 73
     1
 74
     3
 75
     0
 76
     0
 77
     0
 78
     0
  0
ENDTAB
  0
TABLE
  2
LTYPE
  5
5
330
0
100
AcDbSymbolTable
 70
     1
  0
LTYPE
  5
14
330
5
100
AcDbSymbolTableRecord
100
AcDbLinetypeTableRecord
  2
BYBLOCK
 70
     0
  3

 72
    65
 73
     0
 40
0.0
  0
LTYPE
  5
15
330
5
100
AcDbSymbolTableRecord
100
AcDbLinetypeTableRecord
  2
BYLAYER
 70
     0
  3

 72
    65
 73
     0
 40
0.0
  0
LTYPE
  5
16
330
5
100
AcDbSymbolTableRecord
100
AcDbLinetypeTableRecord
  2
CONTINUOUS
 70
     0
  3
Solid line
 72
    65
 73
     0
 40
0.0
  0
ENDTAB
  0
TABLE
  2
LAYER
  5
2
100
AcDbSymbolTable
 70
2
  0
LAYER
  5
50
100
AcDbSymbolTableRecord
100
AcDbLayerTableRecord
  2
0
 70
0
  6
CONTINUOUS
  0
LAYER
  5
51
100
AcDbSymbolTableRecord
100
AcDbLayerTableRecord
  2
Ebene_1
 70
0
  6
CONTINUOUS
  0
ENDTAB
  0
TABLE
  2
STYLE
  5
3
330
0
100
AcDbSymbolTable
 70
     1
  0
STYLE
  5
11
330
3
100
AcDbSymbolTableRecord
100
AcDbTextStyleTableRecord
  2
STANDARD
 70
     0
 40
0.0
 41
1.0
 50
0.0
 71
     0
 42
2.5
  3
txt
  4

  0
ENDTAB
  0
TABLE
  2
VIEW
  5
6
330
0
100
AcDbSymbolTable
 70
     0
  0
ENDTAB
  0
TABLE
  2
UCS
  5
7
330
0
100
AcDbSymbolTable
 70
     0
  0
ENDTAB
  0
TABLE
  2
APPID
  5
9
330
0
100
AcDbSymbolTable
 70
     2
  0
APPID
  5
12
330
9
100
AcDbSymbolTableRecord
100
AcDbRegAppTableRecord
  2
ACAD
 70
     0
  0
ENDTAB
  0
TABLE
  2
DIMSTYLE
  5
A
330
0
100
AcDbSymbolTable
 70
     1
  0
DIMSTYLE
105
27
330
A
100
AcDbSymbolTableRecord
100
AcDbDimStyleTableRecord
  2
ISO-25
 70
     0
  3

  4

  5

  6

  7

 40
1.0
 41
2.5
 42
0.625
 43
3.75
 44
1.25
 45
0.0
 46
0.0
 47
0.0
 48
0.0
140
2.5
141
2.5
142
0.0
143
0.03937007874016
144
1.0
145
0.0
146
1.0
147
0.625
 71
     0
 72
     0
 73
     0
 74
     0
 75
     0
 76
     0
 77
     1
 78
     8
170
     0
171
     3
172
     1
173
     0
174
     0
175
     0
176
     0
177
     0
178
     0
270
     2
271
     2
272
     2
273
     2
274
     3
340
11
275
     0
280
     0
281
     0
282
     0
283
     0
284
     8
285
     0
286
     0
287
     3
288
     0
  0
ENDTAB
  0
TABLE
  2
BLOCK_RECORD
  5
1
330
0
100
AcDbSymbolTable
 70
     1
  0
BLOCK_RECORD
  5
1F
330
1
100
AcDbSymbolTableRecord
100
AcDbBlockTableRecord
  2
*MODEL_SPACE
  0
BLOCK_RECORD
  5
1B
330
1
100
AcDbSymbolTableRecord
100
AcDbBlockTableRecord
  2
*PAPER_SPACE
  0
ENDTAB
  0
ENDSEC
  0
SECTION
  2
BLOCKS
  0
BLOCK
  5
20
330
1F
100
AcDbEntity
  8
0
100
AcDbBlockBegin
  2
*MODEL_SPACE
 70
     0
 10
0.0
 20
0.0
 30
0.0
  3
*MODEL_SPACE
  1

  0
ENDBLK
  5
21
330
1F
100
AcDbEntity
  8
0
100
AcDbBlockEnd
  0
BLOCK
  5
1C
330
1B
100
AcDbEntity
 67
     1
  8
0
100
AcDbBlockBegin
  2
*PAPER_SPACE
  1

  0
ENDBLK
  5
1D
330
1B
100
AcDbEntity
 67
     1
  8
0
100
AcDbBlockEnd
  0
ENDSEC
  0
SECTION
  2
ENTITIES
  0
SPLINE
  5
100
100
AcDbEntity
  8
Ebene_1
 62
7
100
AcDbSpline
 70
8
 71
3
 72
8
 73
4
 74
0
 40
0
 40
0
 40
0
 40
0
 40
1
 40
1
 40
1
 40
1
 10
383.273450
 20
82.162100
 30
0.0
 10
381.140470
 20
82.161130
 30
0.0
 10
379.411230
 20
80.431790
 30
0.0
 10
379.410170
 20
78.298820
 30
0.0
  0
SPLINE
  5
101
100
AcDbEntity
  8
Ebene_1
 62
7
100
AcDbSpline
 70
8
 71
3
 72
8
 73
4
 74
0
 40
0
 40
0
 40
0
 40
0
 40
1
 40
1
 40
1
 40
1
 10
379.410170
 20
78.298820
 30
0.0
 10
379.411130
 20
76.165840
 30
0.0
 10
381.140470
 20
74.436600
 30
0.0
 10
383.273450
 20
74.435540
 30
0.0
  0
SPLINE
  5
102
100
AcDbEntity
  8
Ebene_1
 62
7
100
AcDbSpline
 70
8
 71
3
 72
8
 73
4
 74
0
 40
0
 40
0
 40
0
 40
0
 40
1
 40
1
 40
1
 40
1
 10
383.273450
 20
74.435540
 30
0.0
 10
385.401040
 20
74.435540
 30
0.0
 10
387.136730
 20
76.171230
 30
0.0
 10
387.136730
 20
78.298820
 30
0.0
  0
SPLINE
  5
103
100
AcDbEntity
  8
Ebene_1
 62
7
100
AcDbSpline
 70
8
 71
3
 72
8
 73
4
 74
0
 40
0
 40
0
 40
0
 40
0
 40
1
 40
1
 40
1
 40
1
 10
387.136730
 20
78.298820
 30
0.0
 10
387.136730
 20
80.426410
 30
0.0
 10
385.401040
 20
82.162100
 30
0.0
 10
383.273450
 20
82.162100
 30
0.0
  0
SPLINE
  5
104
100
AcDbEntity
  8
Ebene_1
 62
7
100
AcDbSpline
 70
8
 71
3
 72
8
 73
4
 74
0
 40
0
 40
0
 40
0
 40
0
 40
1
 40
1
 40
1
 40
1
 10
371.685560
 20
97.615220
 30
0.0
 10
354.640700
 20
97.615220
 30
0.0
 10
340.781260
 20
83.754810
 30
0.0
 10
340.781260
 20
66.710930
 30
0.0
  0
SPLINE
  5
105
100
AcDbEntity
  8
Ebene_1
 62
7
100
AcDbSpline
 70
8
 71
3
 72
8
 73
4
 74
0
 40
0
 40
0
 40
0
 40
0
 40
1
 40
1
 40
1
 40
1
 10
340.781260
 20
66.710930
 30
0.0
 10
340.781260
 20
49.667040
 30
0.0
 10
354.641670
 20
35.806630
 30
0.0
 10
371.685560
 20
35.806630
 30
0.0
  0
SPLINE
  5
106
100
AcDbEntity
  8
Ebene_1
 62
7
100
AcDbSpline
 70
8
 71
3
 72
8
 73
4
 74
0
 40
0
 40
0
 40
0
 40
0
 40
1
 40
1
 40
1
 40
1
 10
371.685560
 20
35.806630
 30
0.0
 10
388.722670
 20
35.806630
 30
0.0
 10
402.587950
 20
49.667040
 30
0.0
 10
402.587950
 20
66.710930
 30
0.0
  0
SPLINE
  5
107
100
AcDbEntity
  8
Ebene_1
 62
7
100
AcDbSpline
 70
8
 71
3
 72
8
 73
4
 74
0
 40
0
 40
0
 40
0
 40
0
 40
1
 40
1
 40
1
 40
1
 10
402.587950
 20
66.710930
 30
0.0
 10
402.587950
 20
83.754810
 30
0.0
 10
388.722670
 20
97.615220
 30
0.0
 10
371.685560
 20
97.615220
 30
0.0
  0
LWPOLYLINE
  5
108
100
AcDbEntity
  8
Ebene_1
 62
7
100
AcDbPolyline
 90
1
 70
1
 10
383.273450
 20
82.162100
 30
0.0
  0
SPLINE
  5
109
100
AcDbEntity
  8
Ebene_1
 62
7
100
AcDbSpline
 70
8
 71
3
 72
8
 73
4
 74
0
 40
0
 40
0
 40
0
 40
0
 40
1
 40
1
 40
1
 40
1
 10
383.273450
 20
89.886710
 30
0.0
 10
389.663930
 20
89.886710
 30
0.0
 10
394.861340
 20
84.689300
 30
0.0
 10
394.861340
 20
78.298820
 30
0.0
  0
SPLINE
  5
10a
100
AcDbEntity
  8
Ebene_1
 62
7
100
AcDbSpline
 70
8
 71
3
 72
8
 73
4
 74
0
 40
0
 40
0
 40
0
 40
0
 40
1
 40
1
 40
1
 40
1
 10
394.861340
 20
78.298820
 30
0.0
 10
394.861340
 20
71.908320
 30
0.0
 10
389.664900
 20
66.710930
 30
0.0
 10
383.273450
 20
66.710930
 30
0.0
  0
SPLINE
  5
10b
100
AcDbEntity
  8
Ebene_1
 62
7
100
AcDbSpline
 70
8
 71
3
 72
8
 73
4
 74
0
 40
0
 40
0
 40
0
 40
0
 40
1
 40
1
 40
1
 40
1
 10
383.273450
 20
66.710930
 30
0.0
 10
376.882950
 20
66.710930
 30
0.0
 10
371.685560
 20
71.908320
 30
0.0
 10
371.685560
 20
78.298820
 30
0.0
  0
SPLINE
  5
10c
100
AcDbEntity
  8
Ebene_1
 62
7
100
AcDbSpline
 70
8
 71
3
 72
8
 73
4
 74
0
 40
0
 40
0
 40
0
 40
0
 40
1
 40
1
 40
1
 40
1
 10
371.685560
 20
78.298820
 30
0.0
 10
371.685560
 20
84.689300
 30
0.0
 10
376.882950
 20
89.886710
 30
0.0
 10
383.273450
 20
89.886710
 30
0.0
  0
LWPOLYLINE
  5
10d
100
AcDbEntity
  8
Ebene_1
 62
7
100
AcDbPolyline
 90
1
 70
1
 10
371.685560
 20
97.615220
 30
0.0
  0
LWPOLYLINE
  5
10e
100
AcDbEntity
  8
Ebene_1
 62
7
100
AcDbPolyline
 90
1
 70
1
 10
383.273450
 20
89.886710
 30
0.0
  0
SPLINE
  5
10f
100
AcDbEntity
  8
Ebene_1
 62
7
100
AcDbSpline
 70
8
 71
3
 72
8
 73
4
 74
0
 40
0
 40
0
 40
0
 40
0
 40
1
 40
1
 40
1
 40
1
 10
352.595740
 20
74.435540
 30
0.0
 10
354.731060
 20
74.435540
 30
0.0
 10
356.459020
 20
72.707560
 30
0.0
 10
356.459020
 20
70.572260
 30
0.0
  0
SPLINE
  5
110
100
AcDbEntity
  8
Ebene_1
 62
7
100
AcDbSpline
 70
8
 71
3
 72
8
 73
4
 74
0
 40
0
 40
0
 40
0
 40
0
 40
1
 40
1
 40
1
 40
1
 10
356.459020
 20
70.572260
 30
0.0
 10
356.459020
 20
68.436940
 30
0.0
 10
354.731060
 20
66.710930
 30
0.0
 10
352.595740
 20
66.710930
 30
0.0
  0
SPLINE
  5
111
100
AcDbEntity
  8
Ebene_1
 62
7
100
AcDbSpline
 70
8
 71
3
 72
8
 73
4
 74
0
 40
0
 40
0
 40
0
 40
0
 40
1
 40
1
 40
1
 40
1
 10
352.595740
 20
66.710930
 30
0.0
 10
350.468160
 20
66.710930
 30
0.0
 10
348.695350
 20
68.436940
 30
0.0
 10
348.695350
 20
70.572260
 30
0.0
  0
SPLINE
  5
112
100
AcDbEntity
  8
Ebene_1
 62
7
100
AcDbSpline
 70
8
 71
3
 72
8
 73
4
 74
0
 40
0
 40
0
 40
0
 40
0
 40
1
 40
1
 40
1
 40
1
 10
348.695350
 20
70.572260
 30
0.0
 10
348.695350
 20
72.707560
 30
0.0
 10
350.384250
 20
74.435540
 30
0.0
 10
352.519570
 20
74.435540
 30
0.0
  0
LWPOLYLINE
  5
113
100
AcDbEntity
  8
Ebene_1
 62
7
100
AcDbPolyline
 90
2
 70
0
 10
352.519540
 20
74.435540
 30
0.0
 10
352.595740
 20
74.435540
 30
0.0
  0
LWPOLYLINE
  5
114
100
AcDbEntity
  8
Ebene_1
 62
7
100
AcDbPolyline
 90
1
 70
1
 10
352.519570
 20
74.435540
 30
0.0
  0
SPLINE
  5
115
100
AcDbEntity
  8
Ebene_1
 62
7
100
AcDbSpline
 70
8
 71
3
 72
8
 73
4
 74
0
 40
0
 40
0
 40
0
 40
0
 40
1
 40
1
 40
1
 40
1
 10
368.046870
 20
51.257800
 30
0.0
 10
370.181210
 20
51.257800
 30
0.0
 10
371.910150
 20
49.529840
 30
0.0
 10
371.910150
 20
47.394520
 30
0.0
  0
SPLINE
  5
116
100
AcDbEntity
  8
Ebene_1
 62
7
100
AcDbSpline
 70
8
 71
3
 72
8
 73
4
 74
0
 40
0
 40
0
 40
0
 40
0
 40
1
 40
1
 40
1
 40
1
 10
371.910150
 20
47.394520
 30
0.0
 10
371.910150
 20
45.259200
 30
0.0
 10
370.181210
 20
43.531240
 30
0.0
 10
368.046870
 20
43.531240
 30
0.0
  0
SPLINE
  5
117
100
AcDbEntity
  8
Ebene_1
 62
7
100
AcDbSpline
 70
8
 71
3
 72
8
 73
4
 74
0
 40
0
 40
0
 40
0
 40
0
 40
1
 40
1
 40
1
 40
1
 10
368.046870
 20
43.531240
 30
0.0
 10
365.919280
 20
43.531240
 30
0.0
 10
364.146470
 20
45.259200
 30
0.0
 10
364.146470
 20
47.394520
 30
0.0
  0
SPLINE
  5
118
100
AcDbEntity
  8
Ebene_1
 62
7
100
AcDbSpline
 70
8
 71
3
 72
8
 73
4
 74
0
 40
0
 40
0
 40
0
 40
0
 40
1
 40
1
 40
1
 40
1
 10
364.146470
 20
47.394520
 30
0.0
 10
364.146470
 20
49.529840
 30
0.0
 10
365.837330
 20
51.257800
 30
0.0
 10
367.972650
 20
51.257800
 30
0.0
  0
LWPOLYLINE
  5
119
100
AcDbEntity
  8
Ebene_1
 62
7
100
AcDbPolyline
 90
2
 70
0
 10
367.972670
 20
51.257800
 30
0.0
 10
368.046870
 20
51.257800
 30
0.0
  0
SPLINE
  5
11a
100
AcDbEntity
  8
Ebene_1
 62
7
100
AcDbSpline
 70
8
 71
3
 72
8
 73
4
 74
0
 40
0
 40
0
 40
0
 40
0
 40
1
 40
1
 40
1
 40
1
 10
100.843790
 20
453.222655
 30
0.0
 10
96.650770
 20
447.614256
 30
0.0
 10
91.916890
 20
442.727398
 30
0.0
 10
90.148480
 20
440.958983
 30
0.0
  0
SPLINE
  5
11b
100
AcDbEntity
  8
Ebene_1
 62
7
100
AcDbSpline
 70
8
 71
3
 72
8
 73
4
 74
0
 40
0
 40
0
 40
0
 40
0
 40
1
 40
1
 40
1
 40
1
 10
90.148480
 20
440.958983
 30
0.0
 10
88.398190
 20
439.208702
 30
0.0
 10
83.595740
 20
434.557726
 30
0.0
 10
78.060590
 20
430.398437
 30
0.0
  0
SPLINE
  5
11c
100
AcDbEntity
  8
Ebene_1
 62
7
100
AcDbSpline
 70
8
 71
3
 72
8
 73
4
 74
0
 40
0
 40
0
 40
0
 40
0
 40
1
 40
1
 40
1
 40
1
 10
78.060590
 20
430.398437
 30
0.0
 10
84.254820
 20
429.196097
 30
0.0
 10
91.010440
 20
430.890897
 30
0.0
 10
95.611370
 20
435.496093
 30
0.0
  0
SPLINE
  5
11d
100
AcDbEntity
  8
Ebene_1
 62
7
100
AcDbSpline
 70
8
 71
3
 72
8
 73
4
 74
0
 40
0
 40
0
 40
0
 40
0
 40
1
 40
1
 40
1
 40
1
 10
95.611370
 20
435.496093
 30
0.0
 10
99.254930
 20
439.147386
 30
0.0
 10
101.269570
 20
443.999564
 30
0.0
 10
101.269570
 20
449.152343
 30
0.0
  0
SPLINE
  5
11e
100
AcDbEntity
  8
Ebene_1
 62
7
100
AcDbSpline
 70
8
 71
3
 72
8
 73
4
 74
0
 40
0
 40
0
 40
0
 40
0
 40
1
 40
1
 40
1
 40
1
 10
101.269570
 20
449.152343
 30
0.0
 10
101.273079
 20
450.520409
 30
0.0
 10
101.130342
 20
451.884931
 30
0.0
 10
100.843790
 20
453.222655
 30
0.0
  0
LWPOLYLINE
  5
11f
100
AcDbEntity
  8
Ebene_1
 62
7
100
AcDbPolyline
 90
1
 70
1
 10
367.972650
 20
51.257800
 30
0.0
  0
SPLINE
  5
120
100
AcDbEntity
  8
Ebene_1
 62
7
100
AcDbSpline
 70
8
 71
3
 72
8
 73
4
 74
0
 40
0
 40
0
 40
0
 40
0
 40
1
 40
1
 40
1
 40
1
 10
81.955120
 20
468.468749
 30
0.0
 10
76.794610
 20
468.468749
 30
0.0
 10
71.942430
 20
466.461840
 30
0.0
 10
68.298870
 20
462.810546
 30
0.0
  0
SPLINE
  5
121
100
AcDbEntity
  8
Ebene_1
 62
7
100
AcDbSpline
 70
8
 71
3
 72
8
 73
4
 74
0
 40
0
 40
0
 40
0
 40
0
 40
1
 40
1
 40
1
 40
1
 10
68.298870
 20
462.810546
 30
0.0
 10
64.647570
 20
459.166016
 30
0.0
 10
62.640660
 20
454.313818
 30
0.0
 10
62.640660
 20
449.152343
 30
0.0
  0
SPLINE
  5
122
100
AcDbEntity
  8
Ebene_1
 62
7
100
AcDbSpline
 70
8
 71
3
 72
8
 73
4
 74
0
 40
0
 40
0
 40
0
 40
0
 40
1
 40
1
 40
1
 40
1
 10
62.640660
 20
449.152343
 30
0.0
 10
62.627580
 20
444.027347
 30
0.0
 10
64.664976
 20
439.110034
 30
0.0
 10
68.298870
 20
435.496093
 30
0.0
  0
SPLINE
  5
123
100
AcDbEntity
  8
Ebene_1
 62
7
100
AcDbSpline
 70
8
 71
3
 72
8
 73
4
 74
0
 40
0
 40
0
 40
0
 40
0
 40
1
 40
1
 40
1
 40
1
 10
68.298870
 20
435.496093
 30
0.0
 10
68.798150
 20
434.996279
 30
0.0
 10
69.326460
 20
434.538825
 30
0.0
 10
69.873090
 20
434.107421
 30
0.0
  0
SPLINE
  5
124
100
AcDbEntity
  8
Ebene_1
 62
7
100
AcDbSpline
 70
8
 71
3
 72
8
 73
4
 74
0
 40
0
 40
0
 40
0
 40
0
 40
1
 40
1
 40
1
 40
1
 10
69.873090
 20
434.107421
 30
0.0
 10
73.825760
 20
436.673660
 30
0.0
 10
78.930210
 20
440.668541
 30
0.0
 10
84.687540
 20
446.421874
 30
0.0
  0
SPLINE
  5
125
100
AcDbEntity
  8
Ebene_1
 62
7
100
AcDbSpline
 70
8
 71
3
 72
8
 73
4
 74
0
 40
0
 40
0
 40
0
 40
0
 40
1
 40
1
 40
1
 40
1
 10
84.687540
 20
446.421874
 30
0.0
 10
90.451190
 20
452.185526
 30
0.0
 10
94.448610
 20
457.296229
 30
0.0
 10
97.013710
 20
461.253905
 30
0.0
  0
SPLINE
  5
126
100
AcDbEntity
  8
Ebene_1
 62
7
100
AcDbSpline
 70
8
 71
3
 72
8
 73
4
 74
0
 40
0
 40
0
 40
0
 40
0
 40
1
 40
1
 40
1
 40
1
 10
97.013710
 20
461.253905
 30
0.0
 10
96.574934
 20
461.797926
 30
0.0
 10
96.106777
 20
462.317580
 30
0.0
 10
95.611330
 20
462.810546
 30
0.0
  0
SPLINE
  5
127
100
AcDbEntity
  8
Ebene_1
 62
7
100
AcDbSpline
 70
8
 71
3
 72
8
 73
4
 74
0
 40
0
 40
0
 40
0
 40
0
 40
1
 40
1
 40
1
 40
1
 10
95.611330
 20
462.810546
 30
0.0
 10
91.997326
 20
466.444346
 30
0.0
 10
87.080054
 20
468.481723
 30
0.0
 10
81.955080
 20
468.468749
 30
0.0
  0
LWPOLYLINE
  5
128
100
AcDbEntity
  8
Ebene_1
 62
7
100
AcDbPolyline
 90
1
 70
1
 10
100.843790
 20
453.222655
 30
0.0
  0
LWPOLYLINE
  5
129
100
AcDbEntity
  8
Ebene_1
 62
7
100
AcDbPolyline
 90
1
 70
1
 10
81.955080
 20
468.468749
 30
0.0
  0
LWPOLYLINE
  5
12a
100
AcDbEntity
  8
Ebene_1
 62
7
100
AcDbPolyline
 90
4
 70
1
 10
0.000000
 20
512.000000
 30
0.0
 10
0.000000
 20
-0.000010
 30
0.0
 10
512.000050
 20
-0.000010
 30
0.0
 10
512.000050
 20
512.000000
 30
0.0
  0
SPLINE
  5
12b
100
AcDbEntity
  8
Ebene_1
 62
7
100
AcDbSpline
 70
8
 71
3
 72
8
 73
4
 74
0
 40
0
 40
0
 40
0
 40
0
 40
1
 40
1
 40
1
 40
1
 10
252.156290
 20
491.648437
 30
0.0
 10
254.291610
 20
491.648437
 30
0.0
 10
256.019570
 20
489.918518
 30
0.0
 10
256.019570
 20
487.783202
 30
0.0
  0
SPLINE
  5
12c
100
AcDbEntity
  8
Ebene_1
 62
7
100
AcDbSpline
 70
8
 71
3
 72
8
 73
4
 74
0
 40
0
 40
0
 40
0
 40
0
 40
1
 40
1
 40
1
 40
1
 10
256.019570
 20
487.783202
 30
0.0
 10
256.019570
 20
485.647886
 30
0.0
 10
254.291610
 20
483.919921
 30
0.0
 10
252.156290
 20
483.919921
 30
0.0
  0
SPLINE
  5
12d
100
AcDbEntity
  8
Ebene_1
 62
7
100
AcDbSpline
 70
8
 71
3
 72
8
 73
4
 74
0
 40
0
 40
0
 40
0
 40
0
 40
1
 40
1
 40
1
 40
1
 10
252.156290
 20
483.919921
 30
0.0
 10
250.028700
 20
483.919921
 30
0.0
 10
248.255900
 20
485.647886
 30
0.0
 10
248.255900
 20
487.783202
 30
0.0
  0
SPLINE
  5
12e
100
AcDbEntity
  8
Ebene_1
 62
7
100
AcDbSpline
 70
8
 71
3
 72
8
 73
4
 74
0
 40
0
 40
0
 40
0
 40
0
 40
1
 40
1
 40
1
 40
1
 10
248.255900
 20
487.783202
 30
0.0
 10
248.255900
 20
489.918518
 30
0.0
 10
249.944800
 20
491.648437
 30
0.0
 10
252.080120
 20
491.648437
 30
0.0
  0
LWPOLYLINE
  5
12f
100
AcDbEntity
  8
Ebene_1
 62
7
100
AcDbPolyline
 90
2
 70
0
 10
252.080090
 20
491.648437
 30
0.0
 10
252.156290
 20
491.648437
 30
0.0
  0
LWPOLYLINE
  5
130
100
AcDbEntity
  8
Ebene_1
 62
7
100
AcDbPolyline
 90
1
 70
1
 10
252.080120
 20
491.648437
 30
0.0
  0
SPLINE
  5
131
100
AcDbEntity
  8
Ebene_1
 62
7
100
AcDbSpline
 70
8
 71
3
 72
8
 73
4
 74
0
 40
0
 40
0
 40
0
 40
0
 40
1
 40
1
 40
1
 40
1
 10
429.857250
 20
491.648437
 30
0.0
 10
431.991650
 20
491.648437
 30
0.0
 10
433.720550
 20
489.918518
 30
0.0
 10
433.720550
 20
487.783202
 30
0.0
  0
SPLINE
  5
132
100
AcDbEntity
  8
Ebene_1
 62
7
100
AcDbSpline
 70
8
 71
3
 72
8
 73
4
 74
0
 40
0
 40
0
 40
0
 40
0
 40
1
 40
1
 40
1
 40
1
 10
433.720550
 20
487.783202
 30
0.0
 10
433.720550
 20
485.647886
 30
0.0
 10
431.991650
 20
483.919921
 30
0.0
 10
429.857250
 20
483.919921
 30
0.0
  0
SPLINE
  5
133
100
AcDbEntity
  8
Ebene_1
 62
7
100
AcDbSpline
 70
8
 71
3
 72
8
 73
4
 74
0
 40
0
 40
0
 40
0
 40
0
 40
1
 40
1
 40
1
 40
1
 10
429.857250
 20
483.919921
 30
0.0
 10
427.729650
 20
483.919921
 30
0.0
 10
425.956850
 20
485.647886
 30
0.0
 10
425.956850
 20
487.783202
 30
0.0
  0
SPLINE
  5
134
100
AcDbEntity
  8
Ebene_1
 62
7
100
AcDbSpline
 70
8
 71
3
 72
8
 73
4
 74
0
 40
0
 40
0
 40
0
 40
0
 40
1
 40
1
 40
1
 40
1
 10
425.956850
 20
487.783202
 30
0.0
 10
425.956850
 20
489.918518
 30
0.0
 10
427.645750
 20
491.648437
 30
0.0
 10
429.781050
 20
491.648437
 30
0.0
  0
LWPOLYLINE
  5
135
100
AcDbEntity
  8
Ebene_1
 62
7
100
AcDbPolyline
 90
2
 70
0
 10
429.781250
 20
491.648437
 30
0.0
 10
429.857250
 20
491.648437
 30
0.0
  0
SPLINE
  5
136
100
AcDbEntity
  8
Ebene_1
 62
7
100
AcDbSpline
 70
8
 71
3
 72
8
 73
4
 74
0
 40
0
 40
0
 40
0
 40
0
 40
1
 40
1
 40
1
 40
1
 10
81.953120
 20
475.933593
 30
0.0
 10
88.749140
 20
475.933593
 30
0.0
 10
95.530180
 20
473.508137
 30
0.0
 10
100.593750
 20
468.701171
 30
0.0
  0
SPLINE
  5
137
100
AcDbEntity
  8
Ebene_1
 62
7
100
AcDbSpline
 70
8
 71
3
 72
8
 73
4
 74
0
 40
0
 40
0
 40
0
 40
0
 40
1
 40
1
 40
1
 40
1
 10
100.593750
 20
468.701171
 30
0.0
 10
100.596750
 20
468.734521
 30
0.0
 10
100.619250
 20
468.792871
 30
0.0
 10
100.621050
 20
468.824218
 30
0.0
  0
SPLINE
  5
138
100
AcDbEntity
  8
Ebene_1
 62
7
100
AcDbSpline
 70
8
 71
3
 72
8
 73
4
 74
0
 40
0
 40
0
 40
0
 40
0
 40
1
 40
1
 40
1
 40
1
 10
100.621050
 20
468.824218
 30
0.0
 10
99.563165
 20
470.357481
 30
0.0
 10
99.753941
 20
472.428039
 30
0.0
 10
101.074180
 20
473.742187
 30
0.0
  0
SPLINE
  5
139
100
AcDbEntity
  8
Ebene_1
 62
7
100
AcDbSpline
 70
8
 71
3
 72
8
 73
4
 74
0
 40
0
 40
0
 40
0
 40
0
 40
1
 40
1
 40
1
 40
1
 10
101.074180
 20
473.742187
 30
0.0
 10
101.798486
 20
474.466835
 30
0.0
 10
102.781060
 20
474.873966
 30
0.0
 10
103.805625
 20
474.873966
 30
0.0
  0
SPLINE
  5
13a
100
AcDbEntity
  8
Ebene_1
 62
7
100
AcDbSpline
 70
8
 71
3
 72
8
 73
4
 74
0
 40
0
 40
0
 40
0
 40
0
 40
1
 40
1
 40
1
 40
1
 10
103.805625
 20
474.873966
 30
0.0
 10
104.830190
 20
474.873966
 30
0.0
 10
105.812764
 20
474.466835
 30
0.0
 10
106.537070
 20
473.742187
 30
0.0
  0
SPLINE
  5
13b
100
AcDbEntity
  8
Ebene_1
 62
7
100
AcDbSpline
 70
8
 71
3
 72
8
 73
4
 74
0
 40
0
 40
0
 40
0
 40
0
 40
1
 40
1
 40
1
 40
1
 10
106.537070
 20
473.742187
 30
0.0
 10
109.385480
 20
470.894131
 30
0.0
 10
108.497750
 20
466.299356
 30
0.0
 10
106.046840
 20
461.417968
 30
0.0
  0
SPLINE
  5
13c
100
AcDbEntity
  8
Ebene_1
 62
7
100
AcDbSpline
 70
8
 71
3
 72
8
 73
4
 74
0
 40
0
 40
0
 40
0
 40
0
 40
1
 40
1
 40
1
 40
1
 10
106.046840
 20
461.417968
 30
0.0
 10
107.962600
 20
457.665061
 30
0.0
 10
108.994100
 20
453.491663
 30
0.0
 10
108.994100
 20
449.152343
 30
0.0
  0
SPLINE
  5
13d
100
AcDbEntity
  8
Ebene_1
 62
7
100
AcDbSpline
 70
8
 71
3
 72
8
 73
4
 74
0
 40
0
 40
0
 40
0
 40
0
 40
1
 40
1
 40
1
 40
1
 10
108.994100
 20
449.152343
 30
0.0
 10
108.994100
 20
441.931882
 30
0.0
 10
106.180550
 20
435.141536
 30
0.0
 10
101.072230
 20
430.033202
 30
0.0
  0
SPLINE
  5
13e
100
AcDbEntity
  8
Ebene_1
 62
7
100
AcDbSpline
 70
8
 71
3
 72
8
 73
4
 74
0
 40
0
 40
0
 40
0
 40
0
 40
1
 40
1
 40
1
 40
1
 10
101.072230
 20
430.033202
 30
0.0
 10
95.964850
 20
424.925835
 30
0.0
 10
89.175500
 20
422.111327
 30
0.0
 10
81.955040
 20
422.111327
 30
0.0
  0
SPLINE
  5
13f
100
AcDbEntity
  8
Ebene_1
 62
7
100
AcDbSpline
 70
8
 71
3
 72
8
 73
4
 74
0
 40
0
 40
0
 40
0
 40
0
 40
1
 40
1
 40
1
 40
1
 10
81.955040
 20
422.111327
 30
0.0
 10
77.621800
 20
422.111327
 30
0.0
 10
73.452050
 20
423.143983
 30
0.0
 10
69.699180
 20
425.058593
 30
0.0
  0
SPLINE
  5
140
100
AcDbEntity
  8
Ebene_1
 62
7
100
AcDbSpline
 70
8
 71
3
 72
8
 73
4
 74
0
 40
0
 40
0
 40
0
 40
0
 40
1
 40
1
 40
1
 40
1
 10
69.699180
 20
425.058593
 30
0.0
 10
66.952330
 20
423.678085
 30
0.0
 10
64.294670
 20
422.791015
 30
0.0
 10
61.990190
 20
422.791015
 30
0.0
  0
SPLINE
  5
141
100
AcDbEntity
  8
Ebene_1
 62
7
100
AcDbSpline
 70
8
 71
3
 72
8
 73
4
 74
0
 40
0
 40
0
 40
0
 40
0
 40
1
 40
1
 40
1
 40
1
 10
61.990190
 20
422.791015
 30
0.0
 10
60.194980
 20
422.791015
 30
0.0
 10
58.618450
 20
423.327791
 30
0.0
 10
57.373010
 20
424.572265
 30
0.0
  0
SPLINE
  5
142
100
AcDbEntity
  8
Ebene_1
 62
7
100
AcDbSpline
 70
8
 71
3
 72
8
 73
4
 74
0
 40
0
 40
0
 40
0
 40
0
 40
1
 40
1
 40
1
 40
1
 10
57.373010
 20
424.572265
 30
0.0
 10
56.648362
 20
425.296571
 30
0.0
 10
56.241231
 20
426.279145
 30
0.0
 10
56.241231
 20
427.303710
 30
0.0
  0
SPLINE
  5
143
100
AcDbEntity
  8
Ebene_1
 62
7
100
AcDbSpline
 70
8
 71
3
 72
8
 73
4
 74
0
 40
0
 40
0
 40
0
 40
0
 40
1
 40
1
 40
1
 40
1
 10
56.241231
 20
427.303710
 30
0.0
 10
56.241231
 20
428.328275
 30
0.0
 10
56.648362
 20
429.310849
 30
0.0
 10
57.373010
 20
430.035155
 30
0.0
  0
SPLINE
  5
144
100
AcDbEntity
  8
Ebene_1
 62
7
100
AcDbSpline
 70
8
 71
3
 72
8
 73
4
 74
0
 40
0
 40
0
 40
0
 40
0
 40
1
 40
1
 40
1
 40
1
 10
57.373010
 20
430.035155
 30
0.0
 10
58.689529
 20
431.352460
 30
0.0
 10
60.758782
 20
431.542217
 30
0.0
 10
62.292930
 20
430.486327
 30
0.0
  0
SPLINE
  5
145
100
AcDbEntity
  8
Ebene_1
 62
7
100
AcDbSpline
 70
8
 71
3
 72
8
 73
4
 74
0
 40
0
 40
0
 40
0
 40
0
 40
1
 40
1
 40
1
 40
1
 10
62.292930
 20
430.486327
 30
0.0
 10
62.320730
 20
430.487927
 30
0.0
 10
62.372930
 20
430.507017
 30
0.0
 10
62.402300
 20
430.509767
 30
0.0
  0
SPLINE
  5
146
100
AcDbEntity
  8
Ebene_1
 62
7
100
AcDbSpline
 70
8
 71
3
 72
8
 73
4
 74
0
 40
0
 40
0
 40
0
 40
0
 40
1
 40
1
 40
1
 40
1
 10
62.402300
 20
430.509767
 30
0.0
 10
57.580530
 20
435.561797
 30
0.0
 10
54.912070
 20
442.148004
 30
0.0
 10
54.912070
 20
449.152345
 30
0.0
  0
SPLINE
  5
147
100
AcDbEntity
  8
Ebene_1
 62
7
100
AcDbSpline
 70
8
 71
3
 72
8
 73
4
 74
0
 40
0
 40
0
 40
0
 40
0
 40
1
 40
1
 40
1
 40
1
 10
54.912070
 20
449.152345
 30
0.0
 10
54.912070
 20
456.380535
 30
0.0
 10
57.727560
 20
463.170882
 30
0.0
 10
62.835900
 20
468.271485
 30
0.0
  0
SPLINE
  5
148
100
AcDbEntity
  8
Ebene_1
 62
7
100
AcDbSpline
 70
8
 71
3
 72
8
 73
4
 74
0
 40
0
 40
0
 40
0
 40
0
 40
1
 40
1
 40
1
 40
1
 10
62.835900
 20
468.271485
 30
0.0
 10
67.943750
 20
473.379336
 30
0.0
 10
74.947600
 20
475.933595
 30
0.0
 10
81.953080
 20
475.933595
 30
0.0
  0
LWPOLYLINE
  5
149
100
AcDbEntity
  8
Ebene_1
 62
7
100
AcDbPolyline
 90
2
 70
0
 10
429.781050
 20
491.648437
 30
0.0
 10
429.781250
 20
491.648437
 30
0.0
  0
LWPOLYLINE
  5
14a
100
AcDbEntity
  8
Ebene_1
 62
7
100
AcDbPolyline
 90
1
 70
1
 10
81.953080
 20
475.933595
 30
0.0
  0
SPLINE
  5
14b
100
AcDbEntity
  8
Ebene_1
 62
7
100
AcDbSpline
 70
8
 71
3
 72
8
 73
4
 74
0
 40
0
 40
0
 40
0
 40
0
 40
1
 40
1
 40
1
 40
1
 10
352.595780
 20
460.744140
 30
0.0
 10
354.731100
 20
460.744140
 30
0.0
 10
356.459060
 20
459.014222
 30
0.0
 10
356.459060
 20
456.878905
 30
0.0
  0
SPLINE
  5
14c
100
AcDbEntity
  8
Ebene_1
 62
7
100
AcDbSpline
 70
8
 71
3
 72
8
 73
4
 74
0
 40
0
 40
0
 40
0
 40
0
 40
1
 40
1
 40
1
 40
1
 10
356.459060
 20
456.878905
 30
0.0
 10
356.459060
 20
454.743589
 30
0.0
 10
354.731100
 20
453.017577
 30
0.0
 10
352.595780
 20
453.017577
 30
0.0
  0
SPLINE
  5
14d
100
AcDbEntity
  8
Ebene_1
 62
7
100
AcDbSpline
 70
8
 71
3
 72
8
 73
4
 74
0
 40
0
 40
0
 40
0
 40
0
 40
1
 40
1
 40
1
 40
1
 10
352.595780
 20
453.017577
 30
0.0
 10
350.468200
 20
453.017577
 30
0.0
 10
348.695390
 20
454.743589
 30
0.0
 10
348.695390
 20
456.878905
 30
0.0
  0
SPLINE
  5
14e
100
AcDbEntity
  8
Ebene_1
 62
7
100
AcDbSpline
 70
8
 71
3
 72
8
 73
4
 74
0
 40
0
 40
0
 40
0
 40
0
 40
1
 40
1
 40
1
 40
1
 10
348.695390
 20
456.878905
 30
0.0
 10
348.695390
 20
459.014222
 30
0.0
 10
350.384290
 20
460.744140
 30
0.0
 10
352.519610
 20
460.744140
 30
0.0
  0
LWPOLYLINE
  5
14f
100
AcDbEntity
  8
Ebene_1
 62
7
100
AcDbPolyline
 90
2
 70
0
 10
352.519580
 20
460.744140
 30
0.0
 10
352.595780
 20
460.744140
 30
0.0
  0
LWPOLYLINE
  5
150
100
AcDbEntity
  8
Ebene_1
 62
7
100
AcDbPolyline
 90
1
 70
1
 10
352.519610
 20
460.744140
 30
0.0
  0
SPLINE
  5
151
100
AcDbEntity
  8
Ebene_1
 62
7
100
AcDbSpline
 70
8
 71
3
 72
8
 73
4
 74
0
 40
0
 40
0
 40
0
 40
0
 40
1
 40
1
 40
1
 40
1
 10
167.167990
 20
445.289061
 30
0.0
 10
169.303310
 20
445.289062
 30
0.0
 10
171.031270
 20
443.563050
 30
0.0
 10
171.031270
 20
441.427733
 30
0.0
  0
SPLINE
  5
152
100
AcDbEntity
  8
Ebene_1
 62
7
100
AcDbSpline
 70
8
 71
3
 72
8
 73
4
 74
0
 40
0
 40
0
 40
0
 40
0
 40
1
 40
1
 40
1
 40
1
 10
171.031270
 20
441.427733
 30
0.0
 10
171.031270
 20
439.292418
 30
0.0
 10
169.303310
 20
437.564452
 30
0.0
 10
167.167990
 20
437.564452
 30
0.0
  0
SPLINE
  5
153
100
AcDbEntity
  8
Ebene_1
 62
7
100
AcDbSpline
 70
8
 71
3
 72
8
 73
4
 74
0
 40
0
 40
0
 40
0
 40
0
 40
1
 40
1
 40
1
 40
1
 10
167.167990
 20
437.564452
 30
0.0
 10
165.040400
 20
437.564452
 30
0.0
 10
163.267600
 20
439.292418
 30
0.0
 10
163.267600
 20
441.427733
 30
0.0
  0
SPLINE
  5
154
100
AcDbEntity
  8
Ebene_1
 62
7
100
AcDbSpline
 70
8
 71
3
 72
8
 73
4
 74
0
 40
0
 40
0
 40
0
 40
0
 40
1
 40
1
 40
1
 40
1
 10
163.267600
 20
441.427733
 30
0.0
 10
163.267600
 20
443.563050
 30
0.0
 10
164.958450
 20
445.289062
 30
0.0
 10
167.093770
 20
445.289061
 30
0.0
  0
LWPOLYLINE
  5
155
100
AcDbEntity
  8
Ebene_1
 62
7
100
AcDbPolyline
 90
2
 70
0
 10
167.093790
 20
445.289061
 30
0.0
 10
167.167990
 20
445.289061
 30
0.0
  0
SPLINE
  5
156
100
AcDbEntity
  8
Ebene_1
 62
7
100
AcDbSpline
 70
8
 71
3
 72
8
 73
4
 74
0
 40
0
 40
0
 40
0
 40
0
 40
1
 40
1
 40
1
 40
1
 10
252.994190
 20
409.841800
 30
0.0
 10
275.782640
 20
409.260240
 30
0.0
 10
298.148960
 20
402.566030
 30
0.0
 10
327.447320
 20
388.513670
 30
0.0
  0
SPLINE
  5
157
100
AcDbEntity
  8
Ebene_1
 62
7
100
AcDbSpline
 70
8
 71
3
 72
8
 73
4
 74
0
 40
0
 40
0
 40
0
 40
0
 40
1
 40
1
 40
1
 40
1
 10
327.447320
 20
388.513670
 30
0.0
 10
360.931120
 20
372.453840
 30
0.0
 10
379.534800
 20
357.138160
 30
0.0
 10
393.734430
 20
330.785150
 30
0.0
  0
LWPOLYLINE
  5
158
100
AcDbEntity
  8
Ebene_1
 62
7
100
AcDbPolyline
 90
1
 70
1
 10
167.093770
 20
445.289061
 30
0.0
  0
SPLINE
  5
159
100
AcDbEntity
  8
Ebene_1
 62
7
100
AcDbSpline
 70
8
 71
3
 72
8
 73
4
 74
0
 40
0
 40
0
 40
0
 40
0
 40
1
 40
1
 40
1
 40
1
 10
393.546930
 20
331.033190
 30
0.0
 10
407.684550
 20
304.680190
 30
0.0
 10
415.436450
 20
285.272320
 30
0.0
 10
407.685650
 20
250.982410
 30
0.0
  0
SPLINE
  5
15a
100
AcDbEntity
  8
Ebene_1
 62
7
100
AcDbSpline
 70
8
 71
3
 72
8
 73
4
 74
0
 40
0
 40
0
 40
0
 40
0
 40
1
 40
1
 40
1
 40
1
 10
407.685650
 20
250.982410
 30
0.0
 10
407.207750
 20
248.868580
 30
0.0
 10
406.800150
 20
246.763320
 30
0.0
 10
406.359450
 20
244.652330
 30
0.0
  0
LWPOLYLINE
  5
15b
100
AcDbEntity
  8
Ebene_1
 62
7
100
AcDbPolyline
 90
2
 70
0
 10
393.734430
 20
330.785150
 30
0.0
 10
393.546930
 20
331.033190
 30
0.0
  0
SPLINE
  5
15c
100
AcDbEntity
  8
Ebene_1
 62
7
100
AcDbSpline
 70
8
 71
3
 72
8
 73
4
 74
0
 40
0
 40
0
 40
0
 40
0
 40
1
 40
1
 40
1
 40
1
 10
402.224650
 20
223.328090
 30
0.0
 10
397.809350
 20
198.912810
 30
0.0
 10
393.841640
 20
175.934530
 30
0.0
 10
383.812550
 20
158.406220
 30
0.0
  0
SPLINE
  5
15d
100
AcDbEntity
  8
Ebene_1
 62
7
100
AcDbSpline
 70
8
 71
3
 72
8
 73
4
 74
0
 40
0
 40
0
 40
0
 40
0
 40
1
 40
1
 40
1
 40
1
 10
383.812550
 20
158.406220
 30
0.0
 10
370.046970
 20
134.347470
 30
0.0
 10
347.041450
 20
118.101860
 30
0.0
 10
312.937550
 20
109.544890
 30
0.0
  0
SPLINE
  5
15e
100
AcDbEntity
  8
Ebene_1
 62
7
100
AcDbSpline
 70
8
 71
3
 72
8
 73
4
 74
0
 40
0
 40
0
 40
0
 40
0
 40
1
 40
1
 40
1
 40
1
 10
312.937550
 20
109.544890
 30
0.0
 10
278.833660
 20
100.987920
 30
0.0
 10
230.159520
 20
95.405990
 30
0.0
 10
188.304740
 20
118.472630
 30
0.0
  0
SPLINE
  5
15f
100
AcDbEntity
  8
Ebene_1
 62
7
100
AcDbSpline
 70
8
 71
3
 72
8
 73
4
 74
0
 40
0
 40
0
 40
0
 40
0
 40
1
 40
1
 40
1
 40
1
 10
188.304740
 20
118.472630
 30
0.0
 10
146.449950
 20
141.539240
 30
0.0
 10
116.809790
 20
175.768180
 30
0.0
 10
106.144570
 20
223.265590
 30
0.0
  0
SPLINE
  5
160
100
AcDbEntity
  8
Ebene_1
 62
7
100
AcDbSpline
 70
8
 71
3
 72
8
 73
4
 74
0
 40
0
 40
0
 40
0
 40
0
 40
1
 40
1
 40
1
 40
1
 10
106.144570
 20
223.265590
 30
0.0
 10
95.479360
 20
270.763020
 30
0.0
 10
104.408840
 20
295.380070
 30
0.0
 10
112.345740
 20
317.640590
 30
0.0
  0
SPLINE
  5
161
100
AcDbEntity
  8
Ebene_1
 62
7
100
AcDbSpline
 70
8
 71
3
 72
8
 73
4
 74
0
 40
0
 40
0
 40
0
 40
0
 40
1
 40
1
 40
1
 40
1
 10
112.345740
 20
317.640590
 30
0.0
 10
124.541625
 20
347.049607
 30
0.0
 10
145.980798
 20
371.688444
 30
0.0
 10
173.421920
 20
387.832010
 30
0.0
  0
SPLINE
  5
162
100
AcDbEntity
  8
Ebene_1
 62
7
100
AcDbSpline
 70
8
 71
3
 72
8
 73
4
 74
0
 40
0
 40
0
 40
0
 40
0
 40
1
 40
1
 40
1
 40
1
 10
173.421920
 20
387.832010
 30
0.0
 10
194.746882
 20
400.248942
 30
0.0
 10
218.583697
 20
407.728479
 30
0.0
 10
243.179740
 20
409.720680
 30
0.0
  0
SPLINE
  5
163
100
AcDbEntity
  8
Ebene_1
 62
7
100
AcDbSpline
 70
8
 71
3
 72
8
 73
4
 74
0
 40
0
 40
0
 40
0
 40
0
 40
1
 40
1
 40
1
 40
1
 10
243.179740
 20
409.720680
 30
0.0
 10
246.473860
 20
409.883450
 30
0.0
 10
249.738690
 20
409.924860
 30
0.0
 10
252.994190
 20
409.841780
 30
0.0
  0
LWPOLYLINE
  5
164
100
AcDbEntity
  8
Ebene_1
 62
7
100
AcDbPolyline
 90
3
 70
0
 10
406.359450
 20
244.652330
 30
0.0
 10
402.357450
 20
223.341790
 30
0.0
 10
402.224650
 20
223.328090
 30
0.0
  0
LWPOLYLINE
  5
165
100
AcDbEntity
  8
Ebene_1
 62
7
100
AcDbPolyline
 90
1
 70
1
 10
252.994190
 20
409.841780
 30
0.0
  0
SPLINE
  5
166
100
AcDbEntity
  8
Ebene_1
 62
7
100
AcDbSpline
 70
8
 71
3
 72
8
 73
4
 74
0
 40
0
 40
0
 40
0
 40
0
 40
1
 40
1
 40
1
 40
1
 10
483.941250
 20
352.576170
 30
0.0
 10
486.075650
 20
352.576170
 30
0.0
 10
487.802650
 20
350.848210
 30
0.0
 10
487.802650
 20
348.712890
 30
0.0
  0
SPLINE
  5
167
100
AcDbEntity
  8
Ebene_1
 62
7
100
AcDbSpline
 70
8
 71
3
 72
8
 73
4
 74
0
 40
0
 40
0
 40
0
 40
0
 40
1
 40
1
 40
1
 40
1
 10
487.802650
 20
348.712890
 30
0.0
 10
487.802650
 20
346.577560
 30
0.0
 10
486.075650
 20
344.851550
 30
0.0
 10
483.941250
 20
344.851550
 30
0.0
  0
SPLINE
  5
168
100
AcDbEntity
  8
Ebene_1
 62
7
100
AcDbSpline
 70
8
 71
3
 72
8
 73
4
 74
0
 40
0
 40
0
 40
0
 40
0
 40
1
 40
1
 40
1
 40
1
 10
483.941250
 20
344.851550
 30
0.0
 10
481.812750
 20
344.851550
 30
0.0
 10
480.038950
 20
346.577560
 30
0.0
 10
480.038950
 20
348.712890
 30
0.0
  0
SPLINE
  5
169
100
AcDbEntity
  8
Ebene_1
 62
7
100
AcDbSpline
 70
8
 71
3
 72
8
 73
4
 74
0
 40
0
 40
0
 40
0
 40
0
 40
1
 40
1
 40
1
 40
1
 10
480.038950
 20
348.712890
 30
0.0
 10
480.038950
 20
350.848210
 30
0.0
 10
481.728850
 20
352.576170
 30
0.0
 10
483.865150
 20
352.576170
 30
0.0
  0
LWPOLYLINE
  5
16a
100
AcDbEntity
  8
Ebene_1
 62
7
100
AcDbPolyline
 90
2
 70
0
 10
483.865250
 20
352.576170
 30
0.0
 10
483.941250
 20
352.576170
 30
0.0
  0
LWPOLYLINE
  5
16b
100
AcDbEntity
  8
Ebene_1
 62
7
100
AcDbPolyline
 90
2
 70
0
 10
483.865150
 20
352.576170
 30
0.0
 10
483.865250
 20
352.576170
 30
0.0
  0
SPLINE
  5
16c
100
AcDbEntity
  8
Ebene_1
 62
7
100
AcDbSpline
 70
8
 71
3
 72
8
 73
4
 74
0
 40
0
 40
0
 40
0
 40
0
 40
1
 40
1
 40
1
 40
1
 10
445.308450
 20
298.492180
 30
0.0
 10
447.443750
 20
298.492180
 30
0.0
 10
449.171750
 20
296.766170
 30
0.0
 10
449.171750
 20
294.630850
 30
0.0
  0
SPLINE
  5
16d
100
AcDbEntity
  8
Ebene_1
 62
7
100
AcDbSpline
 70
8
 71
3
 72
8
 73
4
 74
0
 40
0
 40
0
 40
0
 40
0
 40
1
 40
1
 40
1
 40
1
 10
449.171750
 20
294.630850
 30
0.0
 10
449.171750
 20
292.495530
 30
0.0
 10
447.443750
 20
290.767570
 30
0.0
 10
445.308450
 20
290.767570
 30
0.0
  0
SPLINE
  5
16e
100
AcDbEntity
  8
Ebene_1
 62
7
100
AcDbSpline
 70
8
 71
3
 72
8
 73
4
 74
0
 40
0
 40
0
 40
0
 40
0
 40
1
 40
1
 40
1
 40
1
 10
445.308450
 20
290.767570
 30
0.0
 10
443.180950
 20
290.767570
 30
0.0
 10
441.408050
 20
292.495530
 30
0.0
 10
441.408050
 20
294.630850
 30
0.0
  0
SPLINE
  5
16f
100
AcDbEntity
  8
Ebene_1
 62
7
100
AcDbSpline
 70
8
 71
3
 72
8
 73
4
 74
0
 40
0
 40
0
 40
0
 40
0
 40
1
 40
1
 40
1
 40
1
 10
441.408050
 20
294.630850
 30
0.0
 10
441.408050
 20
296.766170
 30
0.0
 10
443.096950
 20
298.492180
 30
0.0
 10
445.232350
 20
298.492180
 30
0.0
  0
LWPOLYLINE
  5
170
100
AcDbEntity
  8
Ebene_1
 62
7
100
AcDbPolyline
 90
2
 70
0
 10
445.232450
 20
298.492180
 30
0.0
 10
445.308450
 20
298.492180
 30
0.0
  0
LWPOLYLINE
  5
171
100
AcDbEntity
  8
Ebene_1
 62
7
100
AcDbPolyline
 90
1
 70
1
 10
445.232350
 20
298.492180
 30
0.0
  0
SPLINE
  5
172
100
AcDbEntity
  8
Ebene_1
 62
7
100
AcDbSpline
 70
8
 71
3
 72
8
 73
4
 74
0
 40
0
 40
0
 40
0
 40
0
 40
1
 40
1
 40
1
 40
1
 10
43.550850
 20
275.316400
 30
0.0
 10
45.686170
 20
275.316400
 30
0.0
 10
47.414130
 20
273.588430
 30
0.0
 10
47.414130
 20
271.453110
 30
0.0
  0
SPLINE
  5
173
100
AcDbEntity
  8
Ebene_1
 62
7
100
AcDbSpline
 70
8
 71
3
 72
8
 73
4
 74
0
 40
0
 40
0
 40
0
 40
0
 40
1
 40
1
 40
1
 40
1
 10
47.414130
 20
271.453110
 30
0.0
 10
47.414130
 20
269.317810
 30
0.0
 10
45.686170
 20
267.587880
 30
0.0
 10
43.550850
 20
267.587880
 30
0.0
  0
SPLINE
  5
174
100
AcDbEntity
  8
Ebene_1
 62
7
100
AcDbSpline
 70
8
 71
3
 72
8
 73
4
 74
0
 40
0
 40
0
 40
0
 40
0
 40
1
 40
1
 40
1
 40
1
 10
43.550850
 20
267.587880
 30
0.0
 10
41.423260
 20
267.587880
 30
0.0
 10
39.650460
 20
269.317810
 30
0.0
 10
39.650460
 20
271.453110
 30
0.0
  0
SPLINE
  5
175
100
AcDbEntity
  8
Ebene_1
 62
7
100
AcDbSpline
 70
8
 71
3
 72
8
 73
4
 74
0
 40
0
 40
0
 40
0
 40
0
 40
1
 40
1
 40
1
 40
1
 10
39.650460
 20
271.453110
 30
0.0
 10
39.650460
 20
273.588430
 30
0.0
 10
41.339360
 20
275.316400
 30
0.0
 10
43.474680
 20
275.316400
 30
0.0
  0
LWPOLYLINE
  5
176
100
AcDbEntity
  8
Ebene_1
 62
7
100
AcDbPolyline
 90
2
 70
0
 10
43.474650
 20
275.316400
 30
0.0
 10
43.550850
 20
275.316400
 30
0.0
  0
LWPOLYLINE
  5
177
100
AcDbEntity
  8
Ebene_1
 62
7
100
AcDbPolyline
 90
1
 70
1
 10
43.474680
 20
275.316400
 30
0.0
  0
SPLINE
  5
178
100
AcDbEntity
  8
Ebene_1
 62
7
100
AcDbSpline
 70
8
 71
3
 72
8
 73
4
 74
0
 40
0
 40
0
 40
0
 40
0
 40
1
 40
1
 40
1
 40
1
 10
74.455110
 20
190.328110
 30
0.0
 10
76.590420
 20
190.328110
 30
0.0
 10
78.318390
 20
188.600150
 30
0.0
 10
78.318390
 20
186.464830
 30
0.0
  0
SPLINE
  5
179
100
AcDbEntity
  8
Ebene_1
 62
7
100
AcDbSpline
 70
8
 71
3
 72
8
 73
4
 74
0
 40
0
 40
0
 40
0
 40
0
 40
1
 40
1
 40
1
 40
1
 10
78.318390
 20
186.464830
 30
0.0
 10
78.318390
 20
184.329530
 30
0.0
 10
76.590420
 20
182.601550
 30
0.0
 10
74.455110
 20
182.601550
 30
0.0
  0
SPLINE
  5
17a
100
AcDbEntity
  8
Ebene_1
 62
7
100
AcDbSpline
 70
8
 71
3
 72
8
 73
4
 74
0
 40
0
 40
0
 40
0
 40
0
 40
1
 40
1
 40
1
 40
1
 10
74.455110
 20
182.601550
 30
0.0
 10
72.327520
 20
182.601550
 30
0.0
 10
70.554720
 20
184.329530
 30
0.0
 10
70.554720
 20
186.464830
 30
0.0
  0
SPLINE
  5
17b
100
AcDbEntity
  8
Ebene_1
 62
7
100
AcDbSpline
 70
8
 71
3
 72
8
 73
4
 74
0
 40
0
 40
0
 40
0
 40
0
 40
1
 40
1
 40
1
 40
1
 10
70.554720
 20
186.464830
 30
0.0
 10
70.554720
 20
188.600150
 30
0.0
 10
72.243620
 20
190.328120
 30
0.0
 10
74.378940
 20
190.328110
 30
0.0
  0
LWPOLYLINE
  5
17c
100
AcDbEntity
  8
Ebene_1
 62
7
100
AcDbPolyline
 90
2
 70
0
 10
74.378910
 20
190.328110
 30
0.0
 10
74.455110
 20
190.328110
 30
0.0
  0
LWPOLYLINE
  5
17d
100
AcDbEntity
  8
Ebene_1
 62
7
100
AcDbPolyline
 90
1
 70
1
 10
74.378940
 20
190.328110
 30
0.0
  0
SPLINE
  5
17e
100
AcDbEntity
  8
Ebene_1
 62
7
100
AcDbSpline
 70
8
 71
3
 72
8
 73
4
 74
0
 40
0
 40
0
 40
0
 40
0
 40
1
 40
1
 40
1
 40
1
 10
12.644510
 20
128.517570
 30
0.0
 10
14.779830
 20
128.517570
 30
0.0
 10
16.507790
 20
126.791560
 30
0.0
 10
16.507790
 20
124.656240
 30
0.0
  0
SPLINE
  5
17f
100
AcDbEntity
  8
Ebene_1
 62
7
100
AcDbSpline
 70
8
 71
3
 72
8
 73
4
 74
0
 40
0
 40
0
 40
0
 40
0
 40
1
 40
1
 40
1
 40
1
 10
16.507790
 20
124.656240
 30
0.0
 10
16.507790
 20
122.520920
 30
0.0
 10
14.779830
 20
120.792960
 30
0.0
 10
12.644510
 20
120.792960
 30
0.0
  0
SPLINE
  5
180
100
AcDbEntity
  8
Ebene_1
 62
7
100
AcDbSpline
 70
8
 71
3
 72
8
 73
4
 74
0
 40
0
 40
0
 40
0
 40
0
 40
1
 40
1
 40
1
 40
1
 10
12.644510
 20
120.792960
 30
0.0
 10
10.516920
 20
120.792960
 30
0.0
 10
8.744120
 20
122.520920
 30
0.0
 10
8.744120
 20
124.656240
 30
0.0
  0
SPLINE
  5
181
100
AcDbEntity
  8
Ebene_1
 62
7
100
AcDbSpline
 70
8
 71
3
 72
8
 73
4
 74
0
 40
0
 40
0
 40
0
 40
0
 40
1
 40
1
 40
1
 40
1
 10
8.744120
 20
124.656240
 30
0.0
 10
8.744120
 20
126.791560
 30
0.0
 10
10.434980
 20
128.517570
 30
0.0
 10
12.570290
 20
128.517570
 30
0.0
  0
LWPOLYLINE
  5
182
100
AcDbEntity
  8
Ebene_1
 62
7
100
AcDbPolyline
 90
2
 70
0
 10
12.570310
 20
128.517570
 30
0.0
 10
12.644510
 20
128.517570
 30
0.0
  0
LWPOLYLINE
  5
183
100
AcDbEntity
  8
Ebene_1
 62
7
100
AcDbPolyline
 90
1
 70
1
 10
12.570290
 20
128.517570
 30
0.0
  0
SPLINE
  5
184
100
AcDbEntity
  8
Ebene_1
 62
7
100
AcDbSpline
 70
8
 71
3
 72
8
 73
4
 74
0
 40
0
 40
0
 40
0
 40
0
 40
1
 40
1
 40
1
 40
1
 10
453.034950
 20
120.792960
 30
0.0
 10
454.059418
 20
120.793075
 30
0.0
 10
455.041932
 20
120.386028
 30
0.0
 10
455.766164
 20
119.661444
 30
0.0
  0
SPLINE
  5
185
100
AcDbEntity
  8
Ebene_1
 62
7
100
AcDbSpline
 70
8
 71
3
 72
8
 73
4
 74
0
 40
0
 40
0
 40
0
 40
0
 40
1
 40
1
 40
1
 40
1
 10
455.766164
 20
119.661444
 30
0.0
 10
456.490395
 20
118.936860
 30
0.0
 10
456.896963
 20
117.954148
 30
0.0
 10
456.896350
 20
116.929680
 30
0.0
  0
SPLINE
  5
186
100
AcDbEntity
  8
Ebene_1
 62
7
100
AcDbSpline
 70
8
 71
3
 72
8
 73
4
 74
0
 40
0
 40
0
 40
0
 40
0
 40
1
 40
1
 40
1
 40
1
 10
456.896350
 20
116.929680
 30
0.0
 10
456.896963
 20
115.905212
 30
0.0
 10
456.490395
 20
114.922500
 30
0.0
 10
455.766164
 20
114.197916
 30
0.0
  0
SPLINE
  5
187
100
AcDbEntity
  8
Ebene_1
 62
7
100
AcDbSpline
 70
8
 71
3
 72
8
 73
4
 74
0
 40
0
 40
0
 40
0
 40
0
 40
1
 40
1
 40
1
 40
1
 10
455.766164
 20
114.197916
 30
0.0
 10
455.041932
 20
113.473332
 30
0.0
 10
454.059418
 20
113.066285
 30
0.0
 10
453.034950
 20
113.066400
 30
0.0
  0
SPLINE
  5
188
100
AcDbEntity
  8
Ebene_1
 62
7
100
AcDbSpline
 70
8
 71
3
 72
8
 73
4
 74
0
 40
0
 40
0
 40
0
 40
0
 40
1
 40
1
 40
1
 40
1
 10
453.034950
 20
113.066400
 30
0.0
 10
450.908350
 20
113.066400
 30
0.0
 10
449.134650
 20
114.793390
 30
0.0
 10
449.134650
 20
116.929680
 30
0.0
  0
SPLINE
  5
189
100
AcDbEntity
  8
Ebene_1
 62
7
100
AcDbSpline
 70
8
 71
3
 72
8
 73
4
 74
0
 40
0
 40
0
 40
0
 40
0
 40
1
 40
1
 40
1
 40
1
 10
449.134650
 20
116.929680
 30
0.0
 10
449.134650
 20
119.064030
 30
0.0
 10
450.824450
 20
120.792960
 30
0.0
 10
452.958850
 20
120.792960
 30
0.0
  0
LWPOLYLINE
  5
18a
100
AcDbEntity
  8
Ebene_1
 62
7
100
AcDbPolyline
 90
2
 70
0
 10
452.958950
 20
120.792960
 30
0.0
 10
453.034950
 20
120.792960
 30
0.0
  0
SPLINE
  5
18b
100
AcDbEntity
  8
Ebene_1
 62
7
100
AcDbSpline
 70
8
 71
3
 72
8
 73
4
 74
0
 40
0
 40
0
 40
0
 40
0
 40
1
 40
1
 40
1
 40
1
 10
371.685560
 20
105.339830
 30
0.0
 10
392.984610
 20
105.339830
 30
0.0
 10
410.314450
 20
88.008030
 30
0.0
 10
410.314450
 20
66.708970
 30
0.0
  0
SPLINE
  5
18c
100
AcDbEntity
  8
Ebene_1
 62
7
100
AcDbSpline
 70
8
 71
3
 72
8
 73
4
 74
0
 40
0
 40
0
 40
0
 40
0
 40
1
 40
1
 40
1
 40
1
 10
410.314450
 20
66.708970
 30
0.0
 10
410.314450
 20
45.409930
 30
0.0
 10
392.985580
 20
28.078120
 30
0.0
 10
371.685560
 20
28.078110
 30
0.0
  0
SPLINE
  5
18d
100
AcDbEntity
  8
Ebene_1
 62
7
100
AcDbSpline
 70
8
 71
3
 72
8
 73
4
 74
0
 40
0
 40
0
 40
0
 40
0
 40
1
 40
1
 40
1
 40
1
 10
371.685560
 20
28.078110
 30
0.0
 10
350.385540
 20
28.078120
 30
0.0
 10
333.052740
 20
45.409930
 30
0.0
 10
333.052740
 20
66.708970
 30
0.0
  0
SPLINE
  5
18e
100
AcDbEntity
  8
Ebene_1
 62
7
100
AcDbSpline
 70
8
 71
3
 72
8
 73
4
 74
0
 40
0
 40
0
 40
0
 40
0
 40
1
 40
1
 40
1
 40
1
 10
333.052740
 20
66.708970
 30
0.0
 10
333.052740
 20
88.008030
 30
0.0
 10
350.386500
 20
105.339830
 30
0.0
 10
371.685560
 20
105.339830
 30
0.0
  0
LWPOLYLINE
  5
18f
100
AcDbEntity
  8
Ebene_1
 62
7
100
AcDbPolyline
 90
1
 70
1
 10
452.958850
 20
120.792960
 30
0.0
  0
LWPOLYLINE
  5
190
100
AcDbEntity
  8
Ebene_1
 62
7
100
AcDbPolyline
 90
1
 70
1
 10
371.685560
 20
105.339830
 30
0.0
  0
SPLINE
  5
191
100
AcDbEntity
  8
Ebene_1
 62
7
100
AcDbSpline
 70
8
 71
3
 72
8
 73
4
 74
0
 40
0
 40
0
 40
0
 40
0
 40
1
 40
1
 40
1
 40
1
 10
128.539090
 20
97.615220
 30
0.0
 10
130.674410
 20
97.615220
 30
0.0
 10
132.400420
 20
95.887260
 30
0.0
 10
132.400420
 20
93.751940
 30
0.0
  0
SPLINE
  5
192
100
AcDbEntity
  8
Ebene_1
 62
7
100
AcDbSpline
 70
8
 71
3
 72
8
 73
4
 74
0
 40
0
 40
0
 40
0
 40
0
 40
1
 40
1
 40
1
 40
1
 10
132.400420
 20
93.751940
 30
0.0
 10
132.400420
 20
91.616630
 30
0.0
 10
130.674410
 20
89.886710
 30
0.0
 10
128.539090
 20
89.886710
 30
0.0
  0
SPLINE
  5
193
100
AcDbEntity
  8
Ebene_1
 62
7
100
AcDbSpline
 70
8
 71
3
 72
8
 73
4
 74
0
 40
0
 40
0
 40
0
 40
0
 40
1
 40
1
 40
1
 40
1
 10
128.539090
 20
89.886710
 30
0.0
 10
126.411500
 20
89.886710
 30
0.0
 10
124.638700
 20
91.616630
 30
0.0
 10
124.638700
 20
93.751940
 30
0.0
  0
SPLINE
  5
194
100
AcDbEntity
  8
Ebene_1
 62
7
100
AcDbSpline
 70
8
 71
3
 72
8
 73
4
 74
0
 40
0
 40
0
 40
0
 40
0
 40
1
 40
1
 40
1
 40
1
 10
124.638700
 20
93.751940
 30
0.0
 10
124.638700
 20
95.887260
 30
0.0
 10
126.327600
 20
97.615220
 30
0.0
 10
128.462920
 20
97.615220
 30
0.0
  0
LWPOLYLINE
  5
195
100
AcDbEntity
  8
Ebene_1
 62
7
100
AcDbPolyline
 90
2
 70
0
 10
128.462890
 20
97.615220
 30
0.0
 10
128.539090
 20
97.615220
 30
0.0
  0
LWPOLYLINE
  5
196
100
AcDbEntity
  8
Ebene_1
 62
7
100
AcDbPolyline
 90
1
 70
1
 10
128.462920
 20
97.615220
 30
0.0
  0
SPLINE
  5
197
100
AcDbEntity
  8
Ebene_1
 62
7
100
AcDbSpline
 70
8
 71
3
 72
8
 73
4
 74
0
 40
0
 40
0
 40
0
 40
0
 40
1
 40
1
 40
1
 40
1
 10
267.607460
 20
66.710930
 30
0.0
 10
269.742780
 20
66.710930
 30
0.0
 10
271.470740
 20
64.982950
 30
0.0
 10
271.470740
 20
62.847650
 30
0.0
  0
SPLINE
  5
198
100
AcDbEntity
  8
Ebene_1
 62
7
100
AcDbSpline
 70
8
 71
3
 72
8
 73
4
 74
0
 40
0
 40
0
 40
0
 40
0
 40
1
 40
1
 40
1
 40
1
 10
271.470740
 20
62.847650
 30
0.0
 10
271.470740
 20
60.712330
 30
0.0
 10
269.742780
 20
58.984370
 30
0.0
 10
267.607460
 20
58.984370
 30
0.0
  0
SPLINE
  5
199
100
AcDbEntity
  8
Ebene_1
 62
7
100
AcDbSpline
 70
8
 71
3
 72
8
 73
4
 74
0
 40
0
 40
0
 40
0
 40
0
 40
1
 40
1
 40
1
 40
1
 10
267.607460
 20
58.984370
 30
0.0
 10
265.480840
 20
58.984370
 30
0.0
 10
263.707070
 20
60.712330
 30
0.0
 10
263.707070
 20
62.847650
 30
0.0
  0
SPLINE
  5
19a
100
AcDbEntity
  8
Ebene_1
 62
7
100
AcDbSpline
 70
8
 71
3
 72
8
 73
4
 74
0
 40
0
 40
0
 40
0
 40
0
 40
1
 40
1
 40
1
 40
1
 10
263.707070
 20
62.847650
 30
0.0
 10
263.707070
 20
64.982950
 30
0.0
 10
265.396940
 20
66.710930
 30
0.0
 10
267.531290
 20
66.710930
 30
0.0
  0
LWPOLYLINE
  5
19b
100
AcDbEntity
  8
Ebene_1
 62
7
100
AcDbPolyline
 90
2
 70
0
 10
267.531260
 20
66.710930
 30
0.0
 10
267.607460
 20
66.710930
 30
0.0
  0
LWPOLYLINE
  5
19c
100
AcDbEntity
  8
Ebene_1
 62
7
100
AcDbPolyline
 90
1
 70
1
 10
267.531290
 20
66.710930
 30
0.0
  0
SPLINE
  5
19d
100
AcDbEntity
  8
Ebene_1
 62
7
100
AcDbSpline
 70
8
 71
3
 72
8
 73
4
 74
0
 40
0
 40
0
 40
0
 40
0
 40
1
 40
1
 40
1
 40
1
 10
499.392450
 20
35.804680
 30
0.0
 10
501.527750
 20
35.804680
 30
0.0
 10
503.255750
 20
34.076700
 30
0.0
 10
503.255750
 20
31.941400
 30
0.0
  0
SPLINE
  5
19e
100
AcDbEntity
  8
Ebene_1
 62
7
100
AcDbSpline
 70
8
 71
3
 72
8
 73
4
 74
0
 40
0
 40
0
 40
0
 40
0
 40
1
 40
1
 40
1
 40
1
 10
503.255750
 20
31.941400
 30
0.0
 10
503.255750
 20
29.806080
 30
0.0
 10
501.527750
 20
28.078110
 30
0.0
 10
499.392450
 20
28.078110
 30
0.0
  0
SPLINE
  5
19f
100
AcDbEntity
  8
Ebene_1
 62
7
100
AcDbSpline
 70
8
 71
3
 72
8
 73
4
 74
0
 40
0
 40
0
 40
0
 40
0
 40
1
 40
1
 40
1
 40
1
 10
499.392450
 20
28.078110
 30
0.0
 10
497.264850
 20
28.078120
 30
0.0
 10
495.492050
 20
29.806080
 30
0.0
 10
495.492050
 20
31.941400
 30
0.0
  0
SPLINE
  5
1a0
100
AcDbEntity
  8
Ebene_1
 62
7
100
AcDbSpline
 70
8
 71
3
 72
8
 73
4
 74
0
 40
0
 40
0
 40
0
 40
0
 40
1
 40
1
 40
1
 40
1
 10
495.492050
 20
31.941400
 30
0.0
 10
495.492050
 20
34.076700
 30
0.0
 10
497.180950
 20
35.804680
 30
0.0
 10
499.316250
 20
35.804680
 30
0.0
  0
LWPOLYLINE
  5
1a1
100
AcDbEntity
  8
Ebene_1
 62
7
100
AcDbPolyline
 90
2
 70
0
 10
499.316450
 20
35.804680
 30
0.0
 10
499.392450
 20
35.804680
 30
0.0
  0
LWPOLYLINE
  5
1a2
100
AcDbEntity
  8
Ebene_1
 62
7
100
AcDbPolyline
 90
2
 70
0
 10
499.316250
 20
35.804680
 30
0.0
 10
499.316450
 20
35.804680
 30
0.0
  0
SPLINE
  5
1a3
100
AcDbEntity
  8
Ebene_1
 62
7
100
AcDbSpline
 70
8
 71
3
 72
8
 73
4
 74
0
 40
0
 40
0
 40
0
 40
0
 40
1
 40
1
 40
1
 40
1
 10
198.722690
 20
28.078110
 30
0.0
 10
199.747223
 20
28.078460
 30
0.0
 10
200.729865
 20
27.671487
 30
0.0
 10
201.454135
 20
26.946849
 30
0.0
  0
SPLINE
  5
1a4
100
AcDbEntity
  8
Ebene_1
 62
7
100
AcDbSpline
 70
8
 71
3
 72
8
 73
4
 74
0
 40
0
 40
0
 40
0
 40
0
 40
1
 40
1
 40
1
 40
1
 10
201.454135
 20
26.946849
 30
0.0
 10
202.178406
 20
26.222211
 30
0.0
 10
202.584880
 20
25.239362
 30
0.0
 10
202.584010
 20
24.214830
 30
0.0
  0
SPLINE
  5
1a5
100
AcDbEntity
  8
Ebene_1
 62
7
100
AcDbSpline
 70
8
 71
3
 72
8
 73
4
 74
0
 40
0
 40
0
 40
0
 40
0
 40
1
 40
1
 40
1
 40
1
 10
202.584010
 20
24.214830
 30
0.0
 10
202.584623
 20
23.190376
 30
0.0
 10
202.178066
 20
22.207676
 30
0.0
 10
201.453852
 20
21.483094
 30
0.0
  0
SPLINE
  5
1a6
100
AcDbEntity
  8
Ebene_1
 62
7
100
AcDbSpline
 70
8
 71
3
 72
8
 73
4
 74
0
 40
0
 40
0
 40
0
 40
0
 40
1
 40
1
 40
1
 40
1
 10
201.453852
 20
21.483094
 30
0.0
 10
200.729637
 20
20.758512
 30
0.0
 10
199.747144
 20
20.351457
 30
0.0
 10
198.722690
 20
20.351550
 30
0.0
  0
SPLINE
  5
1a7
100
AcDbEntity
  8
Ebene_1
 62
7
100
AcDbSpline
 70
8
 71
3
 72
8
 73
4
 74
0
 40
0
 40
0
 40
0
 40
0
 40
1
 40
1
 40
1
 40
1
 10
198.722690
 20
20.351550
 30
0.0
 10
196.587370
 20
20.351550
 30
0.0
 10
194.820340
 20
22.080490
 30
0.0
 10
194.820340
 20
24.214830
 30
0.0
  0
SPLINE
  5
1a8
100
AcDbEntity
  8
Ebene_1
 62
7
100
AcDbSpline
 70
8
 71
3
 72
8
 73
4
 74
0
 40
0
 40
0
 40
0
 40
0
 40
1
 40
1
 40
1
 40
1
 10
194.820340
 20
24.214830
 30
0.0
 10
194.820340
 20
26.350150
 30
0.0
 10
196.511210
 20
28.078110
 30
0.0
 10
198.646510
 20
28.078110
 30
0.0
  0
LWPOLYLINE
  5
1a9
100
AcDbEntity
  8
Ebene_1
 62
7
100
AcDbPolyline
 90
2
 70
0
 10
198.646490
 20
28.078110
 30
0.0
 10
198.722690
 20
28.078110
 30
0.0
  0
LWPOLYLINE
  5
1aa
100
AcDbEntity
  8
Ebene_1
 62
7
100
AcDbPolyline
 90
1
 70
1
 10
198.646510
 20
28.078110
 30
0.0
  0
ENDSEC
  0
SECTION
  2
OBJECTS
  0
DICTIONARY
  5
C
330
0
100
AcDbDictionary
  3
ACAD_GROUP
350
D
  3
ACAD_MLINESTYLE
350
17
  0
DICTIONARY
  5
D
330
C
100
AcDbDictionary
  0
DICTIONARY
  5
1A
330
C
100
AcDbDictionary
  0
DICTIONARY
  5
17
330
C
100
AcDbDictionary
  3
STANDARD
350
18
  0
DICTIONARY
  5
19
330
C
100
AcDbDictionary
  0
ENDSEC
  0
EOF
