<?xml version="1.0" encoding="UTF-8" standalone="no"?>
<!-- Created with Inkscape (http://www.inkscape.org/) -->

<svg
   width="512.0px"
   height="512.0px"
   viewBox="0 0 512.0 512.0"
   version="1.1"
   id="SVGRoot"
   sodipodi:docname="Nikogenia_Logo_Print.svg"
   inkscape:version="1.2.2 (732a01da63, 2022-12-09)"
   inkscape:export-filename="Nikogenia Logo Light.png"
   inkscape:export-xdpi="96"
   inkscape:export-ydpi="96"
   xmlns:inkscape="http://www.inkscape.org/namespaces/inkscape"
   xmlns:sodipodi="http://sodipodi.sourceforge.net/DTD/sodipodi-0.dtd"
   xmlns:xlink="http://www.w3.org/1999/xlink"
   xmlns="http://www.w3.org/2000/svg"
   xmlns:svg="http://www.w3.org/2000/svg">
  <sodipodi:namedview
     id="namedview137"
     pagecolor="#d1d1d1"
     bordercolor="#000000"
     borderopacity="0.25"
     inkscape:showpageshadow="2"
     inkscape:pageopacity="0"
     inkscape:pagecheckerboard="0"
     inkscape:deskcolor="#d1d1d1"
     inkscape:document-units="px"
     showgrid="false"
     inkscape:zoom="0.73851714"
     inkscape:cx="142.85383"
     inkscape:cy="159.1026"
     inkscape:window-width="1920"
     inkscape:window-height="991"
     inkscape:window-x="-9"
     inkscape:window-y="-9"
     inkscape:window-maximized="1"
     inkscape:current-layer="layer1">
    <inkscape:grid
       type="xygrid"
       id="grid260" />
  </sodipodi:namedview>
  <defs
     id="defs132">
    <linearGradient
       inkscape:collect="always"
       id="linearGradient8282">
      <stop
         style="stop-color:#63a7ed;stop-opacity:1;"
         offset="0"
         id="stop8278" />
      <stop
         style="stop-color:#144e88;stop-opacity:1;"
         offset="1"
         id="stop8280" />
    </linearGradient>
    <radialGradient
       inkscape:collect="always"
       xlink:href="#linearGradient8282"
       id="radialGradient8284"
       cx="256"
       cy="256"
       fx="256"
       fy="256"
       r="256"
       gradientUnits="userSpaceOnUse" />
  </defs>
  <g
     inkscape:label="Ebene 1"
     inkscape:groupmode="layer"
     id="layer1">
    <path
       id="path369-0"
       style="display:inline;fill:url(#radialGradient8284);fill-opacity:1;stroke-width:44.562;stroke-linecap:round;stroke-linejoin:bevel"
       inkscape:label="Main"
       d="M 256,0 A 256,256 0 0 0 0,256 256,256 0 0 0 256,512 256,256 0 0 0 512,256 256,256 0 0 0 256,0 Z m 0,10.832031 A 245.16748,245.16748 0 0 1 501.16797,256 245.16748,245.16748 0 0 1 256,501.16797 245.16748,245.16748 0 0 1 10.832031,256 245.16748,245.16748 0 0 1 256,10.832031 Z m 6.43164,32.619141 V 68.349609 A 188.18232,188.18232 0 0 1 314.75,77.410156 c 0.61423,-0.327476 1.31113,-0.507812 2.11133,-0.507812 9.84195,0 24.68721,-0.410307 44.53515,-1.230469 2.75775,-0.113956 4.66594,-0.157794 7.23047,-0.255859 A 213.00843,213.00843 0 0 0 262.43164,43.451172 Z m -12.86328,0.002 A 213.00843,213.00843 0 0 0 141.92383,76.21875 c 1.64986,-0.141702 3.02515,-0.201678 4.74219,-0.363281 3.2806,-0.328067 9.75959,-1.392911 19.4375,-3.197266 8.2016,-1.476288 14.68053,-2.214844 19.4375,-2.214844 1.90261,0 4.82367,2.666098 8.71875,7.876953 a 188.18232,188.18232 0 0 1 55.30859,-9.955078 z m -74.02734,36.990234 c -4.75697,0 -11.23585,0.738546 -19.4375,2.214844 -9.67796,1.804365 -16.15685,2.869199 -19.4375,3.197266 -13.94283,1.312265 -25.67163,1.96875 -35.18555,1.96875 -6.397298,0 -9.595704,1.805332 -9.595704,5.414062 0,18.699792 0.738545,46.830932 2.214843,84.394532 1.640333,37.5636 2.458985,65.77681 2.458985,84.64063 0,17.87961 -0.900713,44.69975 -2.705078,80.45898 -1.640333,35.75925 -2.460938,62.49731 -2.460938,80.21289 0,5.08504 2.377803,7.62696 7.134766,7.62696 h 85.134766 c 4.42889,0 6.64258,-2.87017 6.64258,-8.61133 0,-19.02785 -0.57443,-47.5693 -1.72266,-85.625 -0.9842,-38.0557 -1.47656,-66.59909 -1.47656,-85.62696 0,-2.46049 0.65648,-4.26388 1.96875,-5.4121 1.80437,0.98419 3.03528,1.96892 3.6914,2.95312 23.12869,29.69001 40.35163,52.16288 51.66993,67.41797 41.33637,54.62305 67.91031,89.88956 79.7207,105.80078 4.10083,5.41309 7.62748,8.11914 10.58008,8.11914 4.26486,0 10.66168,0.32824 19.1914,0.98438 8.52974,0.65612 14.92654,0.98437 19.19141,0.98437 3.9368,0 9.84321,-0.16412 17.7168,-0.49219 8.03762,-0.32806 14.02413,-0.49218 17.96094,-0.49218 4.75695,0 7.13671,-2.21369 7.13671,-6.64258 V 261.78125 c 0,-18.86382 0.7366,-46.99496 2.21289,-84.39453 1.64034,-37.5636 2.46094,-65.69475 2.46094,-84.394532 0,-5.08503 -1.55719,-7.628907 -4.67383,-7.628907 -9.84199,0 -24.68713,0.410303 -44.53515,1.230469 -19.84802,0.820166 -34.69317,1.230469 -44.53516,1.230469 -3.4447,0 -5.16797,3.034287 -5.16797,9.103515 0,17.387516 0.90268,43.387046 2.70703,77.998046 1.9684,34.61101 2.95313,60.52847 2.95313,77.75195 0,12.7946 -1.06679,19.19336 -3.19922,19.19336 -2.9526,0 -6.47924,-2.54388 -10.58008,-7.6289 -16.56735,-21.81642 -28.95264,-38.38289 -37.15429,-49.70117 L 184.64453,88.808594 c -4.10082,-5.57713 -7.13512,-8.365235 -9.10351,-8.365235 z m 253.9121,52.042974 c -0.37513,10.93749 -0.72569,21.59676 -1.30664,34.90039 -0.17864,4.52553 -0.24531,7.64035 -0.40234,11.89453 a 188.18232,188.18232 0 0 1 15.98047,70.28711 h 24.78125 A 213.00843,213.00843 0 0 0 429.45312,132.48633 Z m -347.101558,0.4375 A 213.00843,213.00843 0 0 0 43.498047,249.56836 h 24.773437 a 188.18232,188.18232 0 0 1 15.578125,-69.32813 c -0.68603,-18.16045 -1.18462,-33.91705 -1.498047,-47.3164 z M 43.5,262.43164 a 213.00843,213.00843 0 0 0 39.291016,117.26367 c 0.336088,-8.79227 0.590713,-16.67798 1.0625,-26.96289 0.366275,-7.25895 0.532297,-12.53246 0.824218,-19.05469 A 188.18232,188.18232 0 0 1 68.28125,262.43164 Z m 400.20312,0 a 188.18232,188.18232 0 0 1 -17.76953,74.35547 v 47.50977 A 213.00843,213.00843 0 0 0 468.48242,262.43164 Z M 316.39844,434.1543 a 188.18232,188.18232 0 0 1 -53.9668,9.49414 v 24.80273 a 213.00843,213.00843 0 0 0 98.1543,-26.97265 c -4.15786,-0.0875 -9.4796,-0.35405 -16.65821,-0.90625 -8.52968,-0.65614 -14.92658,-0.98438 -19.1914,-0.98438 -2.39467,0 -5.18798,-1.873 -8.33789,-5.43359 z m -116.47656,1.28125 c -0.78548,3.39889 -2.85197,5.13672 -6.25977,5.13672 h -20 -23.77539 a 213.00843,213.00843 0 0 0 99.68164,28.00976 v -24.91015 a 188.18232,188.18232 0 0 1 -49.64648,-8.23633 z" />
  </g>
</svg>
