<?xml version="1.0" encoding="UTF-8" standalone="no"?>
<!-- Created with Inkscape (http://www.inkscape.org/) -->

<svg
   width="512.0px"
   height="512.0px"
   viewBox="0 0 512.0 512.0"
   version="1.1"
   id="SVGRoot"
   sodipodi:docname="Valis-World-Ocean.svg"
   xml:space="preserve"
   inkscape:version="1.2.2 (732a01da63, 2022-12-09)"
   xmlns:inkscape="http://www.inkscape.org/namespaces/inkscape"
   xmlns:sodipodi="http://sodipodi.sourceforge.net/DTD/sodipodi-0.dtd"
   xmlns="http://www.w3.org/2000/svg"
   xmlns:svg="http://www.w3.org/2000/svg"><sodipodi:namedview
     id="namedview1054"
     pagecolor="#ffffff"
     bordercolor="#000000"
     borderopacity="0.25"
     inkscape:showpageshadow="2"
     inkscape:pageopacity="1"
     inkscape:pagecheckerboard="0"
     inkscape:deskcolor="#d1d1d1"
     inkscape:document-units="px"
     showgrid="false"
     inkscape:zoom="0.71624578"
     inkscape:cx="-108.20308"
     inkscape:cy="189.18087"
     inkscape:window-width="1920"
     inkscape:window-height="991"
     inkscape:window-x="-9"
     inkscape:window-y="-9"
     inkscape:window-maximized="1"
     inkscape:current-layer="layer1"><inkscape:grid
       type="xygrid"
       id="grid1540" /></sodipodi:namedview><defs
     id="defs1049"><filter
       style="color-interpolation-filters:sRGB;"
       inkscape:label="Greyscale"
       id="filter2465"
       x="0"
       y="0"
       width="1"
       height="1"><feColorMatrix
         values="0.21 0.72 0.072 0 0 0.21 0.72 0.072 0 0 0.21 0.72 0.072 0 0 0 0 0 1 0 "
         id="feColorMatrix2463" /></filter></defs><g
     inkscape:label="Ebene 1"
     inkscape:groupmode="layer"
     id="layer1"><path
       style="fill:#000000;stroke:none;stroke-width:2.72126"
       d="m 233.72071,374.49024 c -0.5991,0.009 -1.19791,0.0215 -1.79687,0.0215 0.78013,0.58553 2.06659,1.5918 2.14062,1.5918 a 37.576361,37.576361 0 0 0 -0.34375,-1.61329 z"
       id="path937" /><path
       style="fill:#000000;stroke:none;stroke-width:2.72126"
       d="m 308.04493,350.81056 c -4.12092,2.47418 -8.31223,4.83487 -12.58008,7.04492 -4.51746,2.33932 -9.12107,4.51806 -13.78711,6.54492 -3.70093,1.60764 -7.42389,3.1912 -11.25781,4.44922 -4.22983,1.38794 -8.55089,2.5207 -12.91406,3.4043 -3.62825,0.73477 -7.30513,1.26162 -10.99414,1.57031 -0.55443,0.0464 -1.11289,0.0582 -1.66797,0.10156 2.39934,11.137 4.78516,23.32227 4.78516,23.32227 a 146.58501,146.58501 0 0 0 35.83984,0 125.93662,125.93662 0 0 0 37.20508,-9.55078 c 2.29427,-1.92223 -4.46423,-12.3381 -9.30078,-21.45313 -1.78374,-3.36165 -3.60278,-9.26823 -5.32813,-15.43359 z"
       id="path933" /><path
       style="fill:#000000;stroke:none;stroke-width:2.72126"
       d="m 126.09766,294.9961 c -1.65288,-0.0804 -2.79336,0.11003 -3.08789,0.6836 -0.74408,1.17813 5.02247,23.2524 24.80273,48.86133 a 124.9445,124.9445 0 0 0 36.83203,34.10351 45.017224,45.017224 0 0 0 -6.19922,-13.57812 66.409707,66.409707 0 0 0 -19.03711,-20.33985 c -1.88661,-1.66893 -2.87165,-6.27902 -3.40039,-11.58203 -1.52064,-2.32666 -2.81173,-4.8034 -4.08984,-7.27344 -2.80466,-5.4202 -5.42587,-10.94357 -7.76563,-16.58007 -1.17477,-2.83003 -2.34836,-5.67923 -3.14257,-8.63868 -0.2248,-0.83763 -0.39601,-1.68765 -0.58594,-2.5332 -4.99479,-1.53798 -10.78708,-2.95086 -14.32617,-3.12305 z"
       id="path929" /><path
       style="fill:#000000;stroke:none;stroke-width:2.72126"
       d="m 396.08208,241.61329 c -1.98109,-0.13675 -5.43473,0.26953 -9.43945,0.5586 -0.48007,3.64955 -1.13596,7.27441 -1.79688,10.89648 6.48451,-0.80834 11.9803,-1.54822 12.3594,-1.78516 a 15.315777,15.315777 0 0 0 0.7441,-8.86718 c -0.1395,-0.49606 -0.8004,-0.7291 -1.86717,-0.80274 z"
       id="path923" /><path
       style="fill:#000000;stroke:none;stroke-width:2.72126"
       d="m 328.5938,219.83399 c -2.58204,0.0865 -5.36222,0.41124 -7.74805,0.33594 0.24039,1.07916 0.50225,2.15351 0.79688,3.2168 0.9693,3.49809 2.1632,7.00024 4.01367,10.12305 1.57944,2.66539 3.81354,4.89501 5.93359,7.15429 1.91517,2.04093 4.03695,3.87873 6.10938,5.75977 1.42948,1.29747 2.75417,2.74104 4.36133,3.81055 0.48236,0.32098 1.11655,0.67384 1.78906,1.02148 2.0918,1.07335 4.58008,2.10156 4.58008,2.10156 0,0 3.33416,-6.50716 4.53711,-9.94726 1.14867,-3.28491 1.95861,-6.68958 2.57617,-10.11719 -2.44585,0.61819 -4.92845,1.79318 -8.5,1.37109 -6.82077,-0.8061 -7.7513,-10.47972 -11.84375,-13.58008 -1.53468,-1.16262 -3.95902,-1.33865 -6.60547,-1.25 z"
       id="path921" /><path
       style="fill:#000000;stroke:none;stroke-width:2.72126"
       d="m 202.80083,182.66407 c -0.5041,1.16829 -1.01176,2.33587 -1.50586,3.50391 4.08849,1.56717 7.36317,2.92925 8.21485,3.72656 2.91432,2.72832 5.395,17.17578 5.20898,23.81055 -0.18603,6.63475 -0.99266,14.19995 -7.19336,17.48633 -4.29555,2.27663 -14.8209,1.66323 -22.47071,1.19726 -1.11622,5.6134 -1.84546,11.30775 -2.41797,17.00195 -0.79835,7.94043 -1.5722,15.93737 -1.22266,23.91016 0.2135,4.86959 1.05002,9.68595 1.89258,14.4961 a 172.62803,172.62803 0 0 0 22.29689,1.31054 c 17.23796,0 27.90429,-1.7362 34.29101,0 6.38672,1.73621 9.1134,8.86625 10.84961,15.87305 1.7362,7.00679 -11.96734,34.66279 -12.77344,37.20508 a 28.957361,28.957361 0 0 0 0.68946,8.5625 c 1.84057,-0.0826 3.67636,-0.25097 5.49218,-0.53125 4.00198,-0.61773 7.90547,-1.80695 11.75782,-3.05469 4.10712,-1.33026 8.17818,-2.83076 12.06445,-4.71094 4.30645,-2.08346 8.39462,-4.61195 12.39062,-7.24219 4.1356,-2.7221 8.01676,-5.81401 11.95508,-8.81445 1.63995,-1.24939 3.28261,-2.49813 4.92188,-3.75 -4.71439,-2.2845 -12.49101,-4.3266 -20.14453,-7.37109 -11.22328,-4.46452 -13.33083,-20.08958 -10.23047,-29.63867 3.10034,-9.54909 1.86039,-38.7556 2.48047,-41.66993 0.62007,-2.91432 2.35641,-2.91406 8.37109,-2.91406 0.96667,0 3.35527,0.11921 5.40039,0.20899 -0.24357,-0.59486 -0.51348,-1.17948 -0.74609,-1.77735 -1.204,-3.09464 -2.14816,-6.29167 -2.9668,-9.50976 -0.8481,-3.3339 -1.61041,-6.706 -2.00781,-10.12305 -0.37661,-3.23807 -0.48934,-6.51654 -0.34961,-9.77344 0.0491,-1.14535 0.16493,-2.29044 0.26172,-3.43555 a 182.54919,182.54919 0 0 1 -7.03321,12.58399 c -1.73618,0.93011 -19.78074,-5.95362 -32.74023,-12.40234 -12.95948,-6.44875 -18.6021,-9.11397 -19.16016,-11.65625 a 38.630483,38.630483 0 0 0 -3.09961,-10.47852 c -0.64369,-0.30491 -6.23312,-0.82245 -12.47656,-2.02344 z m 53.21484,52.92969 c 1.86021,0 6.44868,6e-4 5.64258,1.55078 -0.80609,1.55018 -8.74279,11.84368 -10.29297,10.85156 a 10.293195,10.293195 0 0 1 -3.28711,-6.20117 c 0.49605,-0.68208 6.20132,-6.20117 7.9375,-6.20117 z m -38.40234,6.58789 c 0.5009,0.006 0.93374,0.12539 1.19727,0.41992 a 74.408635,74.408635 0 0 1 8.61914,16.67969 c -0.55806,1.11613 0.24938,2.91447 -1.54883,1.73633 a 109.13267,109.13267 0 0 1 -11.78129,-17.42383 c -0.093,-0.41854 2.01097,-1.42955 3.51367,-1.41211 z m -9.90039,4.07813 c 0.74409,0.24803 17.42274,25.98154 16.05859,27.3457 -1.36414,1.36415 -2.10797,2.72796 -2.91406,1.92187 a 277.4822,277.4822 0 0 1 -17.60937,-26.91211 8.1229427,8.1229427 0 0 1 4.46484,-2.35546 z m 68.52145,80.25976 c 1.7862,-0.0229 7.43554,2.31133 7.43554,3.88477 -0.18602,1.9222 0.002,2.29344 -0.99023,2.10742 a 31.003598,31.003598 0 0 1 -9.48828,-2.72852 c 0,-0.74409 1.9849,-2.23151 2.54297,-3.09961 0.0697,-0.10851 0.24482,-0.16079 0.5,-0.16406 z"
       id="path915" /><path
       style="fill:#000000;stroke:none;stroke-width:2.72126"
       d="m 318.33208,132.72461 c -2.72832,-0.37204 -5.39293,4.46457 -9.85742,7.37891 a 64.611498,64.611498 0 0 1 -26.53906,10.85156 c -15.12974,2.91434 -32.24495,-4.52693 -36.27539,-5.45703 -4.03047,-0.93011 -10.72612,1.36476 -24.42969,1.55078 -13.70357,0.18602 -12.58766,-2.10978 -22.63281,-7.56641 a 36.088188,36.088188 0 0 0 -25.79494,-2.10742 77.198959,77.198959 0 0 0 -23.43945,21.88867 c -1.11966,3.53577 7.02053,7.72385 16.97852,12.97072 2.61822,-2.50049 5.83126,-4.46355 9.22461,-5.70118 0.003,-9.2e-4 0.005,-0.001 0.008,-0.002 -1.46557,-2.12933 -2.15724,-4.021 -1.59375,-5.28321 a 25.919008,25.919008 0 0 1 10.66406,-10.66602 c 3.34839,-0.43405 3.59661,2.10857 2.48048,4.46485 -0.92443,1.95156 -0.28903,7.79784 2.06055,9.76953 1.96732,-0.15149 3.93767,-0.24897 5.90039,-0.11914 a 344.51198,344.51198 0 0 1 35.44531,-5.74415 163.57498,163.57498 0 0 1 49.60547,10.23244 c 3.35248,1.65388 5.40869,7.32777 6.43359,11.48047 0.74703,-1.10103 1.5286,-2.17863 2.34766,-3.22461 1.59946,-2.04258 3.31852,-4.01053 5.23437,-5.75977 1.31881,-1.20411 2.77748,-2.25622 4.27539,-3.22852 2.11866,-1.37519 4.34273,-2.59849 6.63282,-3.66407 2.06164,-0.95929 4.19425,-1.77966 6.36914,-2.44336 2.4836,-0.75791 5.02741,-1.33798 7.59179,-1.74609 2.2497,-0.35802 4.53422,-0.45205 6.80664,-0.61133 2.29546,-0.16089 4.59623,-0.4609 6.89454,-0.34766 0.16486,0.008 0.32757,0.0433 0.49218,0.0547 a 46.071347,46.071347 0 0 1 1.42578,-1.17578 28.027253,28.027253 0 0 0 10.60352,-9.30078 c 0.43405,-1.55018 -24.18379,-16.12209 -26.91211,-16.49414 z m 2.94727,18.12109 c 0.49872,0.0305 0.83692,0.12442 0.96093,0.29492 0.93011,1.36416 1.98334,2.72858 1.11524,3.47266 a 72.858456,72.858456 0 0 1 -16.24609,5.82813 c -1.17814,-0.62007 -2.54291,-5.33308 -1.55079,-6.20118 0.8681,-0.75957 12.22966,-3.60816 15.72071,-3.39453 z"
       id="path907" /></g></svg>
