<?xml version="1.0" encoding="UTF-8" standalone="no"?>
<!-- Created with Inkscape (http://www.inkscape.org/) -->

<svg
   width="512.0px"
   height="512.0px"
   viewBox="0 0 512.0 512.0"
   version="1.1"
   id="SVGRoot"
   sodipodi:docname="Valis-World-Colored.svg"
   xml:space="preserve"
   inkscape:version="1.2.2 (732a01da63, 2022-12-09)"
   xmlns:inkscape="http://www.inkscape.org/namespaces/inkscape"
   xmlns:sodipodi="http://sodipodi.sourceforge.net/DTD/sodipodi-0.dtd"
   xmlns="http://www.w3.org/2000/svg"
   xmlns:svg="http://www.w3.org/2000/svg"><sodipodi:namedview
     id="namedview1054"
     pagecolor="#ffffff"
     bordercolor="#000000"
     borderopacity="0.25"
     inkscape:showpageshadow="2"
     inkscape:pageopacity="1"
     inkscape:pagecheckerboard="0"
     inkscape:deskcolor="#d1d1d1"
     inkscape:document-units="px"
     showgrid="false"
     inkscape:zoom="1.0129245"
     inkscape:cx="132.78384"
     inkscape:cy="241.38028"
     inkscape:window-width="1920"
     inkscape:window-height="991"
     inkscape:window-x="-9"
     inkscape:window-y="-9"
     inkscape:window-maximized="1"
     inkscape:current-layer="layer1"><inkscape:grid
       type="xygrid"
       id="grid1540" /></sodipodi:namedview><defs
     id="defs1049"><filter
       style="color-interpolation-filters:sRGB;"
       inkscape:label="Greyscale"
       id="filter2465"
       x="0"
       y="0"
       width="1"
       height="1"><feColorMatrix
         values="0.21 0.72 0.072 0 0 0.21 0.72 0.072 0 0 0.21 0.72 0.072 0 0 0 0 0 1 0 "
         id="feColorMatrix2463" /></filter></defs><g
     inkscape:label="Ebene 1"
     inkscape:groupmode="layer"
     id="layer1"><path
       id="rect3006"
       style="fill:#000000;stroke:none;stroke-width:2.72126"
       d="M 0,0 V 512.00001 H 512.00005 V 0 Z m 252.08009,20.351563 h 0.0762 c 2.13532,0 3.86328,1.729919 3.86328,3.865235 0,2.135316 -1.72796,3.863281 -3.86328,3.863281 -2.12759,0 -3.90039,-1.727965 -3.90039,-3.863281 0,-2.135316 1.6889,-3.865235 3.82422,-3.865235 z m 177.70116,0 h 0.076 c 2.1344,0 3.8633,1.729919 3.8633,3.865235 0,2.135316 -1.7289,3.863281 -3.8633,3.863281 -2.1276,0 -3.9004,-1.727965 -3.9004,-3.863281 0,-2.135316 1.6889,-3.865235 3.8242,-3.865235 z M 81.95312,36.066407 c 6.79602,0 13.57706,2.425456 18.64063,7.232422 0.003,-0.03335 0.0255,-0.0917 0.0273,-0.123047 a 3.8522727,3.8522727 0 0 1 0.45313,-4.917969 3.8619347,3.8619347 0 0 1 5.46289,0 c 2.84841,2.848056 1.96068,7.442831 -0.49023,12.324219 1.91576,3.752907 2.94726,7.926305 2.94726,12.265625 0,7.220461 -2.81355,14.010807 -7.92187,19.119141 -5.10738,5.107367 -11.89673,7.921875 -19.11719,7.921875 -4.33324,0 -8.50299,-1.032656 -12.25586,-2.947266 -2.74685,1.380508 -5.40451,2.267578 -7.70899,2.267578 -1.79521,0 -3.37174,-0.536776 -4.61718,-1.78125 a 3.8619347,3.8619347 0 0 1 0,-5.46289 3.8609685,3.8609685 0 0 1 4.91992,-0.451172 c 0.0278,-0.0016 0.08,-0.02069 0.10937,-0.02344 -4.82177,-5.05203 -7.49023,-11.638237 -7.49023,-18.642578 0,-7.22819 2.81549,-14.018537 7.92383,-19.11914 5.10785,-5.107851 12.1117,-7.66211 19.11718,-7.66211 z m 0.002,7.464844 c -5.16051,0 -10.01269,2.006909 -13.65625,5.658203 -3.6513,3.64453 -5.65821,8.496728 -5.65821,13.658203 a 19.19083,19.19083 0 0 0 5.65821,13.65625 c 0.49928,0.499814 1.02759,0.957268 1.57422,1.388672 3.95267,-2.566239 9.05712,-6.56112 14.81445,-12.314453 5.76365,-5.763652 9.76107,-10.874355 12.32617,-14.832031 A 19.197594,19.197594 0 0 0 95.61133,49.189454 19.191796,19.191796 0 0 0 81.95508,43.531251 Z m 270.56446,7.724609 h 0.0762 c 2.13532,0 3.86328,1.729918 3.86328,3.865235 0,2.135316 -1.72796,3.861328 -3.86328,3.861328 -2.12758,0 -3.90039,-1.726012 -3.90039,-3.861328 0,-2.135317 1.6889,-3.865235 3.82422,-3.865235 z m -251.67579,7.521485 c -4.19302,5.608399 -8.9269,10.495257 -10.69531,12.263672 -1.75029,1.750281 -6.55274,6.401257 -12.08789,10.560546 6.19423,1.20234 12.94985,-0.49246 17.55078,-5.097656 3.64356,-3.651293 5.6582,-8.503471 5.6582,-13.65625 a 19.197594,19.197594 0 0 0 -0.42578,-4.070312 z m 66.25,7.933594 h 0.0742 c 2.13532,-10e-7 3.86328,1.726011 3.86328,3.861328 0,2.135315 -1.72796,3.863281 -3.86328,3.863281 -2.12759,0 -3.90039,-1.727966 -3.90039,-3.863281 0,-2.135317 1.69085,-3.861329 3.82617,-3.861328 z m 85.9004,35.447261 c 22.78845,0.58156 45.15477,7.27577 74.45313,21.32813 33.4838,16.05983 52.08748,31.37551 66.28711,57.72852 l -0.1875,-0.24804 c 14.13762,26.353 21.88952,45.76087 14.13872,80.05078 -0.4779,2.11383 -0.8855,4.21909 -1.3262,6.33008 l -4.002,21.31054 -0.1328,0.0137 c -4.4153,24.41528 -8.38301,47.39356 -18.4121,64.92187 -13.76558,24.05875 -36.7711,40.30436 -70.875,48.86133 -34.10389,8.55697 -82.77803,14.1389 -124.63281,-8.92774 -41.85479,-23.06661 -71.49495,-57.29555 -82.16017,-104.79296 -10.66521,-47.49743 -1.73573,-72.11448 6.20117,-94.375 a 146.58501,146.58501 0 0 1 61.07618,-70.19142 165.12516,165.12516 0 0 1 69.75782,-21.88867 c 3.29412,-0.16277 6.55895,-0.20418 9.81445,-0.1211 z m -10.00195,9.18946 c -3.47894,-0.0283 -6.81958,0.11618 -9.91992,0.48046 a 141.68644,141.68644 0 0 0 -47.6836,16.1211 l -0.3711,-0.24805 c -2.91434,1.55018 10.66454,4.89897 16.86524,5.45703 6.20072,0.55807 15.31639,7.56446 21.70313,7.56446 6.38673,0 15.25342,-2.54154 28.46094,-3.09961 13.20749,-0.55806 30.63172,3.72015 35.65429,2.91406 5.02258,-0.80609 19.16076,-13.14608 20.71094,-14.32422 1.55018,-1.17814 -1.9847,-2.35513 -6.20117,-4.27734 -3.68943,-1.68194 -34.86621,-10.38952 -59.21875,-10.58789 z m 75.33984,21.37695 c -2.72832,-0.37204 -5.39293,4.46457 -9.85742,7.37891 a 64.611498,64.611498 0 0 1 -26.53906,10.85156 c -15.12974,2.91434 -32.24495,-4.52693 -36.27539,-5.45703 -4.03047,-0.93011 -10.72612,1.36476 -24.42969,1.55078 -13.70357,0.18602 -12.58766,-2.10978 -22.63281,-7.56641 a 36.088188,36.088188 0 0 0 -25.79494,-2.10742 77.198959,77.198959 0 0 0 -23.43945,21.88867 c -1.11966,3.53577 7.02053,7.72385 16.97852,12.97072 2.61822,-2.50049 5.83126,-4.46355 9.22461,-5.70118 0.003,-9.2e-4 0.005,-0.001 0.008,-0.002 -1.46557,-2.12933 -2.15724,-4.021 -1.59375,-5.28321 a 25.919008,25.919008 0 0 1 10.66406,-10.66602 c 3.34839,-0.43405 3.59661,2.10857 2.48048,4.46485 -0.92443,1.95156 -0.28903,7.79784 2.06055,9.76953 1.96732,-0.15149 3.93767,-0.24897 5.90039,-0.11914 a 344.51198,344.51198 0 0 1 35.44531,-5.74415 163.57498,163.57498 0 0 1 49.60547,10.23244 c 3.35248,1.65388 5.40869,7.32777 6.43359,11.48047 0.74703,-1.10103 1.5286,-2.17863 2.34766,-3.22461 1.59946,-2.04258 3.31852,-4.01053 5.23437,-5.75977 1.31881,-1.20411 2.77748,-2.25622 4.27539,-3.22852 2.11866,-1.37519 4.34273,-2.59849 6.63282,-3.66407 2.06164,-0.95929 4.19425,-1.77966 6.36914,-2.44336 2.4836,-0.75791 5.02741,-1.33798 7.59179,-1.74609 2.2497,-0.35802 4.53422,-0.45205 6.80664,-0.61133 2.29546,-0.16089 4.59623,-0.4609 6.89454,-0.34766 0.16486,0.008 0.32757,0.0433 0.49218,0.0547 a 46.071347,46.071347 0 0 1 1.42578,-1.17578 28.027253,28.027253 0 0 0 10.60352,-9.30078 c 0.43405,-1.55018 -24.18379,-16.12209 -26.91211,-16.49414 z m 2.94727,18.12109 c 0.49872,0.0305 0.83692,0.12442 0.96093,0.29492 0.93011,1.36416 1.98334,2.72858 1.11524,3.47266 a 72.858456,72.858456 0 0 1 -16.24609,5.82813 c -1.17814,-0.62007 -2.54291,-5.33308 -1.55079,-6.20118 0.8681,-0.75957 12.22966,-3.60816 15.72071,-3.39453 z m 31.34375,1.03907 c -1.7362,0.62007 -3.47238,5.08466 -6.38672,7.62695 -0.68939,0.60138 -1.60661,1.28827 -2.65625,2.04687 1.07903,0.27335 2.14967,0.57342 3.1914,0.96094 1.25786,0.46792 2.46866,1.04925 3.66211,1.66797 0.005,0.003 0.0107,0.003 0.0156,0.006 1.13823,0.59048 2.25989,1.21628 3.39062,1.81642 0.0298,0.0158 0.0601,0.0311 0.0899,0.0469 0.82793,0.43834 1.66432,0.867 2.48633,1.31836 0.88224,0.48214 1.74953,0.98778 2.57421,1.56055 1.52636,1.06009 2.90447,2.3235 4.27539,3.57812 1.3958,1.27736 2.76595,2.59134 4.01368,4.01367 1.35429,1.54382 2.56931,3.20778 3.75195,4.88672 0.25739,0.3654 0.47681,0.75635 0.72656,1.12696 a 44.521167,44.521167 0 0 1 7.21875,4.43945 c 0.18602,1.17814 0.61854,4.40228 -0.93164,3.6582 -0.13013,-0.0625 -1.13878,-0.46501 -1.43164,-0.58984 1.55431,2.34849 3.14637,4.67966 4.2793,7.24805 1.1996,2.7195 1.80172,5.66887 2.5293,8.55078 0.0818,0.32404 0.14812,0.65209 0.22851,0.97656 1.98421,1.41074 3.39301,2.55933 3.44922,3.03711 0.24803,2.10824 2.16924,3.65915 -0.37305,3.28711 a 187.07571,187.07571 0 0 1 -1.79297,-0.83008 c 0.54998,2.54336 1.05015,5.0973 1.45703,7.66602 0.0407,0.25686 0.0709,0.5163 0.11133,0.77343 a 157.6843,157.6843 0 0 1 3.32617,2.0625 c 0.37204,1.7362 1.73615,3.47266 -0.74414,3.47266 a 251.6252,251.6252 0 0 1 -1.90234,-0.8457 c 0.238,1.95462 0.40818,3.91509 0.42969,5.88085 0.0104,0.95192 -0.0883,1.90138 -0.14649,2.85157 3.80079,1.05491 7.79932,0.78018 9.12114,-1.62305 1.3641,-2.48029 -2.3559,-29.64034 -13.95121,-51.71484 -11.59532,-22.07453 -28.52403,-29.14305 -29.82618,-28.709 z m 131.24215,7.53906 h 0.076 c 2.1344,0 3.8614,1.72796 3.8614,3.86328 0,2.13533 -1.727,3.86134 -3.8614,3.86134 -2.1285,0 -3.9023,-1.72601 -3.9023,-3.86134 0,-2.13532 1.6899,-3.86328 3.8262,-3.86328 z m -260.19723,8.08595 a 128.97497,128.97497 0 0 0 -15.02539,1.11718 c 0,0 -2.05831,0.18166 -3.87696,0.36328 0.355,0.37508 0.66873,0.77472 0.82032,1.25586 0.31811,1.0097 0.24942,2.08209 0.082,3.15625 5.1453,1.78276 14.11143,4.57553 19.0957,6.07618 5.76667,1.73618 6.20031,11.40836 7.56445,13.39257 a 259.06607,259.06607 0 0 0 32.92579,13.51758 c 2.7283,0.99212 10.04594,-18.97399 10.66601,-23.81055 v -0.24804 c 0.55806,-4.83656 -2.54201,-8.12285 -22.32226,-11.78125 a 128.97497,128.97497 0 0 0 -29.92969,-3.03906 z m -81.06446,0.68359 c -1.36416,-0.18602 -17.67105,18.60079 -26.16602,53.88281 a 109.50471,109.50471 0 0 0 0.74414,59.83789 c 3.49711,3.60203 13.25072,5.70324 21.55078,6.74219 -0.2811,-1.9075 -0.55652,-3.81651 -0.86328,-5.7168 -0.74012,-4.58481 -1.81499,-9.14693 -2.00781,-13.78711 -0.25529,-6.14369 0.63765,-12.28322 1.13476,-18.41211 0.39944,-4.92466 0.54984,-9.89639 1.48438,-14.74804 1.55141,-8.05413 4.25543,-15.85113 6.80664,-23.64649 0.83862,-2.56244 1.71183,-5.12102 2.79101,-7.59179 2.71803,-6.22281 5.93766,-12.22257 9.25,-18.15039 1.49242,-2.67085 2.81893,-5.4958 4.34766,-8.16407 -9.90789,-5.44557 -18.38592,-10.1525 -19.07226,-10.24609 z m 60.19727,14.4707 c -0.5041,1.16829 -1.01176,2.33587 -1.50586,3.50391 4.08849,1.56717 7.36317,2.92925 8.21485,3.72656 2.91432,2.72832 5.395,17.17578 5.20898,23.81055 -0.18603,6.63475 -0.99266,14.19995 -7.19336,17.48633 -4.29555,2.27663 -14.8209,1.66323 -22.47071,1.19726 -1.11622,5.6134 -1.84546,11.30775 -2.41797,17.00195 -0.79835,7.94043 -1.5722,15.93737 -1.22266,23.91016 0.2135,4.86959 1.05002,9.68595 1.89258,14.4961 a 172.62803,172.62803 0 0 0 22.29689,1.31054 c 17.23796,0 27.90429,-1.7362 34.29101,0 6.38672,1.73621 9.1134,8.86625 10.84961,15.87305 1.7362,7.00679 -11.96734,34.66279 -12.77344,37.20508 a 28.957361,28.957361 0 0 0 0.68946,8.5625 c 1.84057,-0.0826 3.67636,-0.25097 5.49218,-0.53125 4.00198,-0.61773 7.90547,-1.80695 11.75782,-3.05469 4.10712,-1.33026 8.17818,-2.83076 12.06445,-4.71094 4.30645,-2.08346 8.39462,-4.61195 12.39062,-7.24219 4.1356,-2.7221 8.01676,-5.81401 11.95508,-8.81445 1.63995,-1.24939 3.28261,-2.49813 4.92188,-3.75 -4.71439,-2.2845 -12.49101,-4.3266 -20.14453,-7.37109 -11.22328,-4.46452 -13.33083,-20.08958 -10.23047,-29.63867 3.10034,-9.54909 1.86039,-38.7556 2.48047,-41.66993 0.62007,-2.91432 2.35641,-2.91406 8.37109,-2.91406 0.96667,0 3.35527,0.11921 5.40039,0.20899 -0.24357,-0.59486 -0.51348,-1.17948 -0.74609,-1.77735 -1.204,-3.09464 -2.14816,-6.29167 -2.9668,-9.50976 -0.8481,-3.3339 -1.61041,-6.706 -2.00781,-10.12305 -0.37661,-3.23807 -0.48934,-6.51654 -0.34961,-9.77344 0.0491,-1.14535 0.16493,-2.29044 0.26172,-3.43555 a 182.54919,182.54919 0 0 1 -7.03321,12.58399 c -1.73618,0.93011 -19.78074,-5.95362 -32.74023,-12.40234 -12.95948,-6.44875 -18.6021,-9.11397 -19.16016,-11.65625 a 38.630483,38.630483 0 0 0 -3.09961,-10.47852 c -0.64369,-0.30491 -6.23312,-0.82245 -12.47656,-2.02344 z m 133,1.59571 c -1.05639,-0.0912 -2.11997,-0.0837 -3.16406,0.0351 -1.51731,0.17268 -2.99817,0.71201 -4.36328,1.39649 -0.44686,0.22406 -0.82868,0.56093 -1.22071,0.87109 -0.56579,0.44763 -1.1697,0.87141 -1.75976,1.30664 -0.41486,10.97588 1.25327,23.40819 1.96875,24.34961 1.17813,1.55018 2.66702,0.37109 9.67383,0.37109 7.00679,0 14.01238,8.68137 16.30664,11.59571 0.80138,1.01797 1.99344,1.30125 3.33203,1.26953 0.14317,-1.80865 0.24518,-3.62056 0.23242,-5.43164 -0.0206,-2.92265 -0.44031,-5.8341 -0.87305,-8.72461 -0.43923,-2.93381 -0.81681,-5.90938 -1.74609,-8.72656 -1.02709,-3.11373 -2.38445,-6.16193 -4.1875,-8.90039 -1.49587,-2.27194 -3.24241,-4.46615 -5.41016,-6.10938 -0.83129,-0.63015 -1.73679,-1.171 -2.68359,-1.63086 -0.96224,-0.46042 -1.96674,-0.8342 -2.98633,-1.11328 -1.01354,-0.27742 -2.06275,-0.46738 -3.11914,-0.55859 z m -194.7461,1.54296 c 1.36415,0.37204 5.20797,2.10749 4.83593,3.09961 -0.37203,0.99211 -7.00598,13.76703 -8.74218,19.59571 -1.7362,5.82866 -0.12419,5.82718 -2.48047,6.19922 -2.35627,0.37204 -5.82867,0.37197 -6.63477,-0.99219 a 118.37174,118.37174 0 0 1 7.19336,-22.63086 c 3.10036,-4.65054 4.46397,-5.64354 5.82813,-5.27149 z m 55.48243,10.71094 c -1.07198,2.26637 -2.11536,4.54423 -2.99414,6.89063 -2.35736,6.29429 -4.44691,12.70433 -6.18945,19.20117 7.49465,0.14844 14.66441,0.3338 15.27343,0.0293 a 62.81329,62.81329 0 0 0 1.17774,-20.71094 c -0.70463,-2.06691 -1.3575,-2.59268 -7.26758,-5.41016 z m 248.69529,16.99414 h 0.076 c 2.1353,0 3.8633,1.72601 3.8633,3.86133 0,2.13532 -1.728,3.86328 -3.8633,3.86328 -2.1275,0 -3.9004,-1.72796 -3.9004,-3.86328 0,-2.13532 1.6889,-3.86133 3.8243,-3.86133 z m -116.63865,6.32617 c -2.58204,0.0865 -5.36222,0.41124 -7.74805,0.33594 0.24039,1.07916 0.50225,2.15351 0.79688,3.2168 0.9693,3.49809 2.1632,7.00024 4.01367,10.12305 1.57944,2.66539 3.81354,4.89501 5.93359,7.15429 1.91517,2.04093 4.03695,3.87873 6.10938,5.75977 1.42948,1.29747 2.75417,2.74104 4.36133,3.81055 0.48236,0.32098 1.11655,0.67384 1.78906,1.02148 2.0918,1.07335 4.58008,2.10156 4.58008,2.10156 0,0 3.33416,-6.50716 4.53711,-9.94726 1.14867,-3.28491 1.95861,-6.68958 2.57617,-10.11719 -2.44585,0.61819 -4.92845,1.79318 -8.5,1.37109 -6.82077,-0.8061 -7.7513,-10.47972 -11.84375,-13.58008 -1.53468,-1.16262 -3.95902,-1.33865 -6.60547,-1.25 z m -72.57813,15.75977 c 1.86021,0 6.44868,6e-4 5.64258,1.55078 -0.80609,1.55018 -8.74279,11.84368 -10.29297,10.85156 a 10.293195,10.293195 0 0 1 -3.28711,-6.20117 c 0.49605,-0.68208 6.20132,-6.20117 7.9375,-6.20117 z M 43.47465,236.6836 h 0.0762 c 2.13532,0 3.86328,1.72797 3.86328,3.86329 0,2.1353 -1.72796,3.86523 -3.86328,3.86523 -2.12759,0 -3.90039,-1.72993 -3.90039,-3.86523 0,-2.13532 1.6889,-3.86329 3.82422,-3.86329 z m 352.60743,4.92969 c -1.98109,-0.13675 -5.43473,0.26953 -9.43945,0.5586 -0.48007,3.64955 -1.13596,7.27441 -1.79688,10.89648 6.48451,-0.80834 11.9803,-1.54822 12.3594,-1.78516 a 15.315777,15.315777 0 0 0 0.7441,-8.86718 c -0.1395,-0.49606 -0.8004,-0.7291 -1.86717,-0.80274 z m -178.46875,0.56836 c 0.5009,0.006 0.93374,0.12539 1.19727,0.41992 a 74.408635,74.408635 0 0 1 8.61914,16.67969 c -0.55806,1.11613 0.24938,2.91447 -1.54883,1.73633 a 109.13267,109.13267 0 0 1 -11.78129,-17.42383 c -0.093,-0.41854 2.01097,-1.42955 3.51367,-1.41211 z m -9.90039,4.07813 c 0.74409,0.24803 17.42274,25.98154 16.05859,27.3457 -1.36414,1.36415 -2.10797,2.72796 -2.91406,1.92187 a 277.4822,277.4822 0 0 1 -17.60937,-26.91211 8.1229427,8.1229427 0 0 1 4.46484,-2.35546 z m 79.58789,3.22461 c -4.29223,0.14009 -7.64938,0.31054 -8.28125,0.31054 -1.36416,0 -1.36328,8.18399 -1.36328,13.39258 0,5.20858 -1.73633,29.26758 -1.73633,29.26758 a 24.802878,24.802878 0 0 0 3.47266,11.5957 c 3.10036,3.90645 19.4077,7.75013 25.98047,9.48633 0.718,0.18966 1.34701,0.51051 1.94726,0.88477 2.47771,-2.19745 4.90201,-4.45871 7.16407,-6.875 2.14557,-2.29191 4.02989,-4.81527 6.02148,-7.24219 1.87607,-2.28616 3.71509,-4.60253 5.58398,-6.89453 1.59316,-1.95384 3.30743,-3.81313 4.79883,-5.84571 1.00564,-1.37055 2.78415,-4.26154 2.78906,-4.26953 -0.1649,-0.0683 -7.60698,-3.15073 -11.25,-5.02148 -0.0243,-0.0125 -0.0479,-0.0266 -0.0723,-0.0391 -0.005,-0.002 -0.013,-0.005 -0.0176,-0.008 -2.04682,-1.05108 -4.0683,-2.16136 -6.08594,-3.27539 -0.65824,-0.364 -1.33412,-0.6941 -1.98633,-1.06836 -2.70589,-1.54991 -5.35563,-3.19177 -7.89648,-4.99219 -4.3272,-3.06618 -8.49097,-6.4379 -12.12891,-10.29687 -2.61844,-2.77755 -4.90194,-5.87582 -6.93945,-9.10937 z m 104.82418,38.33007 c -0.65949,0.17159 -1.31899,0.34665 -1.98242,0.49414 -2.87128,0.63832 -5.79648,1.05134 -8.72656,1.3086 -0.69751,0.0612 -1.72187,0.0654 -2.62305,0.10156 a 81.663477,81.663477 0 0 1 4.83398,5.40234 c -0.55807,1.7362 -0.18615,2.2944 -1.73633,1.73633 a 138.7101,138.7101 0 0 1 -8.80859,-6.98828 c -0.5193,8.5e-4 -1.61328,0.01 -1.61328,0.01 0,0 -3.20981,5.42749 -5.37695,8.71875 a 176.16244,176.16244 0 0 1 10.58984,10.84765 c -0.18602,1.55018 -0.80669,2.72852 -1.55078,2.72852 a 258.69402,258.69402 0 0 1 -11.49414,-10.02344 c -1.23363,1.71056 -2.49997,3.39721 -3.86133,5.00586 -0.64986,0.76792 -1.35098,1.48986 -2.05078,2.21289 a 144.7868,144.7868 0 0 1 12.75586,13.2832 c -0.43405,1.55018 0.3734,2.29493 -1.54883,2.29493 a 243.13022,243.13022 0 0 1 -14.02148,-12.67188 c -0.12246,0.12744 -0.24974,0.25048 -0.3711,0.37891 -1.44286,1.52688 -2.87639,3.06256 -4.31054,4.59765 a 180.68897,180.68897 0 0 1 15.7871,15.44532 c 1e-5,1.55016 -0.6192,2.54194 -1.36328,1.92187 a 272.33561,272.33561 0 0 1 -17.5625,-14.13086 c -2.21807,2.17111 -4.50603,4.27065 -6.77343,6.39063 -3.15719,2.95186 -6.12648,6.12522 -9.51172,8.8125 -3.82278,3.03457 -8.07082,5.49124 -12.12891,8.20312 -0.42528,0.2842 -0.84756,0.57298 -1.27148,0.85938 a 135.2997,135.2997 0 0 0 14.13672,36.55664 c 0.55807,1.17813 7.93559,-0.37044 15.0664,-4.46289 a 98.653449,98.653449 0 0 0 34.29102,-43.77735 c 4.83889,-12.26527 8.64296,-30.45437 11.22656,-45.25586 z m -266.02735,7.18164 c -1.65288,-0.0804 -2.79336,0.11003 -3.08789,0.6836 -0.74408,1.17813 5.02247,23.2524 24.80273,48.86133 a 124.9445,124.9445 0 0 0 36.83203,34.10351 45.017224,45.017224 0 0 0 -6.19922,-13.57812 66.409707,66.409707 0 0 0 -19.03711,-20.33985 c -1.88661,-1.66893 -2.87165,-6.27902 -3.40039,-11.58203 -1.52064,-2.32666 -2.81173,-4.8034 -4.08984,-7.27344 -2.80466,-5.4202 -5.42587,-10.94357 -7.76563,-16.58007 -1.17477,-2.83003 -2.34836,-5.67923 -3.14257,-8.63868 -0.2248,-0.83763 -0.39601,-1.68765 -0.58594,-2.5332 -4.99479,-1.53798 -10.78708,-2.95086 -14.32617,-3.12305 z m 59.17578,4.20118 c 0.32292,1.70484 0.65737,3.4074 1.11524,5.08007 1.20721,4.41019 2.81454,8.71534 4.625,12.91407 1.52454,3.53561 3.23197,7.00821 5.23438,10.29687 2.12454,3.48927 4.3221,7.00705 7.15625,9.94922 0.37863,0.39306 0.78405,0.75675 1.20117,1.10742 0.58874,-1.36529 1.47256,-2.54953 2.54883,-2.375 a 159.73054,159.73054 0 0 1 15.74609,12.49219 c 0.62776,0.13952 1.25417,0.28278 1.88086,0.41992 0.3955,0.0866 0.79363,0.16908 1.18945,0.25781 a 60.457016,60.457016 0 0 0 0.40625,-9.26367 c -0.8061,-1.55018 -18.60211,-13.57825 -19.4082,-15.31445 a 3.6584246,3.6584246 0 0 1 2.10742,-4.2793 162.21083,162.21083 0 0 1 19.59375,15.50196 132.57139,132.57139 0 0 1 7.37891,-16.06055 c 4.4645,-8.18493 4.89876,-16.74237 2.72851,-19.22266 -2.17023,-2.48029 -22.3233,-0.1846 -42.84765,-0.55664 a 78.997168,78.997168 0 0 1 -10.65626,-0.94726 z m 33.28907,6.77539 c 1.55018,1.17814 12.83639,11.03818 12.40234,12.40234 -0.43405,1.36416 -1.17735,3.0986 -2.35546,2.72656 v 0.37305 a 62.627268,62.627268 0 0 1 -13.33204,-11.84375 c 0.18602,-1.30215 3.28516,-3.6582 3.28516,-3.6582 z m -144.1836,15.69922 h 0.0762 c 2.13531,0 3.86328,1.72796 3.86328,3.86328 0,2.1353 -1.72797,3.86328 -3.86328,3.86328 -2.12759,0 -3.90039,-1.72798 -3.90039,-3.86328 0,-2.13532 1.6889,-3.86329 3.82422,-3.86328 z m 201.85548,4.84765 c 1.7862,-0.0229 7.43554,2.31133 7.43554,3.88477 -0.18602,1.9222 0.002,2.29344 -0.99023,2.10742 a 31.003598,31.003598 0 0 1 -9.48828,-2.72852 c 0,-0.74409 1.9849,-2.23151 2.54297,-3.09961 0.0697,-0.10851 0.24482,-0.16079 0.5,-0.16406 z m 64.79296,4.44141 v 0.1875 a 99.211514,99.211514 0 0 1 18.97461,16.67968 c 0,1.36416 -0.99272,2.10743 -1.55078,2.10743 A 208.5302,208.5302 0 0 1 338.67189,334.4336 c -0.18602,-1.17813 1.92141,-3.47265 2.35546,-3.47265 z m -4.40234,11.41015 c 1.17814,0 20.15322,16.49427 18.78906,18.23047 -1.36415,1.7362 -0.74474,2.2944 -2.29492,1.73633 a 138.09003,138.09003 0 0 1 -19.4082,-16.67969 c 0.37205,-0.93011 1.73593,-3.28711 2.91406,-3.28711 z m -28.58008,8.43946 c -4.12092,2.47418 -8.31223,4.83487 -12.58008,7.04492 -4.51746,2.33932 -9.12107,4.51806 -13.78711,6.54492 -3.70093,1.60764 -7.42389,3.1912 -11.25781,4.44922 -4.22983,1.38794 -8.55089,2.5207 -12.91406,3.4043 -3.62825,0.73477 -7.30513,1.26162 -10.99414,1.57031 -0.55443,0.0464 -1.11289,0.0582 -1.66797,0.10156 2.39934,11.137 4.78516,23.32227 4.78516,23.32227 a 146.58501,146.58501 0 0 0 35.83984,0 125.93662,125.93662 0 0 0 37.20508,-9.55078 c 2.29427,-1.92223 -4.46423,-12.3381 -9.30078,-21.45313 -1.78374,-3.36165 -3.60278,-9.26823 -5.32813,-15.43359 z m -114.0625,16.22851 c 4.41167,8.95313 7.0957,17.64952 7.0957,17.99219 0,0.55806 6.81944,2.1091 14.57032,5.02344 a 201.95744,201.95744 0 0 0 22.26172,5.64258 40.24267,40.24267 0 0 0 -2.29493,-11.47071 c -0.43299,-0.72165 -6.81662,-5.45966 -13.40429,-10.24804 -3.82614,-0.39822 -7.63735,-0.97565 -11.38867,-1.8125 -5.60428,-1.25022 -11.16278,-2.8373 -16.49219,-4.97461 -0.11705,-0.047 -0.23062,-0.1051 -0.34766,-0.15235 z m 39.73828,7.45117 c -0.5991,0.009 -1.19791,0.0215 -1.79687,0.0215 0.78013,0.58553 2.06659,1.5918 2.14062,1.5918 a 37.576361,37.576361 0 0 0 -0.34375,-1.61329 z m -221.1504,8.99219 h 0.0742 c 2.13532,0 3.86328,1.72601 3.86328,3.86133 0,2.13532 -1.72796,3.86328 -3.86328,3.86328 -2.12759,0 -3.90039,-1.72796 -3.90039,-3.86328 0,-2.13532 1.69086,-3.86133 3.82617,-3.86133 z m 440.38864,7.72461 h 0.076 a 3.8609685,3.8609685 0 0 1 3.8614,3.86328 3.8609685,3.8609685 0 0 1 -3.8614,3.86328 c -2.1266,0 -3.9003,-1.72699 -3.9003,-3.86328 0,-2.13435 1.6898,-3.86328 3.8242,-3.86328 z m -81.27339,15.45313 c 21.29905,0 38.62889,17.3318 38.62889,38.63086 0,21.29904 -17.32887,38.63085 -38.62889,38.63086 -21.30002,-1e-5 -38.63282,-17.33182 -38.63282,-38.63086 0,-21.29906 17.33376,-38.63086 38.63282,-38.63086 z m -243.22267,7.72461 h 0.0762 c 2.13532,0 3.86133,1.72796 3.86133,3.86328 0,2.13531 -1.72601,3.86523 -3.86133,3.86523 -2.12759,0 -3.90039,-1.72992 -3.90039,-3.86523 0,-2.13532 1.6889,-3.86328 3.82422,-3.86328 z m 243.22267,0 c -17.04486,0 -30.9043,13.86041 -30.9043,30.90429 0,17.04389 13.86041,30.9043 30.9043,30.9043 17.03711,0 30.90239,-13.86041 30.90239,-30.9043 0,-17.04388 -13.86528,-30.90429 -30.90239,-30.90429 z m 11.58789,7.72851 c 6.39048,0 11.58789,5.19741 11.58789,11.58789 0,6.3905 -5.19644,11.58789 -11.58789,11.58789 -6.3905,0 -11.58789,-5.19739 -11.58789,-11.58789 0,-6.39048 5.19739,-11.58789 11.58789,-11.58789 z m 0,7.72461 c -2.13298,9.7e-4 -3.86222,1.73031 -3.86328,3.86328 9.6e-4,2.13298 1.7303,3.86222 3.86328,3.86328 2.12759,0 3.86328,-1.73569 3.86328,-3.86328 0,-2.12759 -1.73569,-3.86328 -3.86328,-3.86328 z m -30.75391,7.72656 h 0.0762 c 2.13532,0 3.86328,1.72798 3.86328,3.86328 0,2.13532 -1.72796,3.86133 -3.86328,3.86133 -2.12758,0 -3.90039,-1.72601 -3.90039,-3.86133 0,-2.1353 1.6889,-3.86328 3.82422,-3.86328 z m -84.98828,7.72461 h 0.0762 c 2.13532,0 3.86328,1.72798 3.86328,3.86328 0,2.13532 -1.72796,3.86328 -3.86328,3.86328 -2.12662,0 -3.90039,-1.72796 -3.90039,-3.86328 0,-2.1353 1.68987,-3.86328 3.82422,-3.86328 z m 100.44141,15.45313 h 0.0742 c 2.13434,0 3.86328,1.72796 3.86328,3.86328 0,2.13532 -1.72894,3.86328 -3.86328,3.86328 -2.12759,0 -3.9004,-1.72796 -3.9004,-3.86328 0,-2.13532 1.69086,-3.86328 3.82618,-3.86328 z m 131.34378,15.45312 h 0.076 c 2.1353,0 3.8633,1.72798 3.8633,3.86328 0,2.13532 -1.728,3.86329 -3.8633,3.86329 -2.1276,-1e-5 -3.9004,-1.72797 -3.9004,-3.86329 0,-2.1353 1.6889,-3.86328 3.8242,-3.86328 z m -300.66996,7.72657 h 0.0762 a 3.8600023,3.8600023 0 0 1 3.86132,3.86328 3.8609685,3.8609685 0 0 1 -3.86132,3.86328 c -2.13532,0 -3.90235,-1.72894 -3.90235,-3.86328 0,-2.13532 1.69087,-3.86328 3.82617,-3.86328 z" /><path
       style="fill:#000000;stroke:none;stroke-width:2.72126"
       d="m 198.64653,483.92188 c -2.1353,0 -3.82617,1.72796 -3.82617,3.86328 0,2.13434 1.76702,3.86328 3.90234,3.86328 a 3.8609685,3.8609685 0 0 0 3.86133,-3.86328 3.8600023,3.8600023 0 0 0 -3.86133,-3.86328 z"
       id="path554" /><path
       style="fill:#000000;stroke:none;stroke-width:2.72126"
       d="m 499.31645,476.19532 c -2.1353,0 -3.82422,1.72798 -3.82422,3.86328 0,2.13531 1.77279,3.86327 3.90039,3.86328 2.1353,0 3.86328,-1.72797 3.86328,-3.86328 0,-2.1353 -1.72798,-3.86328 -3.86328,-3.86328 z"
       id="path552" /><path
       style="fill:#000000;stroke:none;stroke-width:2.72126"
       d="m 367.9727,460.74219 c -2.13532,0 -3.82617,1.72796 -3.82617,3.86328 0,2.13532 1.7728,3.86328 3.90039,3.86328 2.13434,0 3.86328,-1.72796 3.86328,-3.86328 0,-2.13532 -1.72894,-3.86328 -3.86328,-3.86328 z"
       id="path550" /><path
       style="fill:#000000;stroke:none;stroke-width:2.72126"
       d="m 267.53129,445.28907 c -2.13434,0 -3.82422,1.72798 -3.82422,3.86328 0,2.13531 1.77378,3.86328 3.9004,3.86328 2.13531,0 3.86328,-1.72797 3.86328,-3.86328 0,-2.1353 -1.72797,-3.86328 -3.86328,-3.86328 z"
       id="path548" /><path
       style="fill:#000000;stroke:none;stroke-width:2.72126"
       d="m 352.51957,437.56446 c -2.13531,0 -3.82421,1.72798 -3.82421,3.86328 0,2.13532 1.77281,3.86133 3.90039,3.86133 2.13531,0 3.86328,-1.72601 3.86328,-3.86133 0,-2.1353 -1.72797,-3.86328 -3.86328,-3.86328 z"
       id="path546" /><path
       style="fill:#000000;stroke:none;stroke-width:2.72126"
       d="m 383.27348,422.11328 c -6.39049,0 -11.58789,5.19742 -11.58789,11.5879 0,6.39049 5.1974,11.58789 11.58789,11.58789 6.39144,0 11.58789,-5.1974 11.58789,-11.58789 0,-6.39048 -5.19742,-11.5879 -11.58789,-11.5879 z m 0,7.72461 c 2.12759,0 3.86328,1.7357 3.86328,3.86329 0,2.12758 -1.73569,3.86328 -3.86328,3.86328 -2.13298,-10e-4 -3.86232,-1.73031 -3.86328,-3.86328 0.001,-2.13297 1.7303,-3.86232 3.86328,-3.86329 z"
       id="path544" /><path
       style="fill:#000000;stroke:none;stroke-width:2.72126"
       d="m 128.46293,414.38477 c -2.13531,0 -3.82421,1.72796 -3.82421,3.86328 0,2.13531 1.7728,3.86523 3.90039,3.86523 2.13531,0 3.86132,-1.72992 3.86132,-3.86523 0,-2.13532 -1.72601,-3.86328 -3.86132,-3.86328 z"
       id="path542" /><path
       style="fill:#000000;stroke:none;stroke-width:2.72126"
       d="m 371.68559,406.66016 c -21.29904,0 -38.63281,17.33182 -38.63281,38.63086 0,21.29902 17.33281,38.63085 38.63281,38.63086 21.3,-10e-6 38.62891,-17.33184 38.62891,-38.63086 0,-21.29904 -17.32988,-38.63086 -38.62891,-38.63086 z m 0,7.72461 c 17.03709,0 30.90234,13.86043 30.90234,30.9043 0,17.04387 -13.86525,30.90429 -30.90234,30.90429 -17.04387,0 -30.9043,-13.86042 -30.9043,-30.90429 0,-17.04387 13.85946,-30.9043 30.9043,-30.9043 z"
       id="path540" /><path
       style="fill:#000000;stroke:none;stroke-width:2.72126"
       d="m 452.95903,391.20703 c -2.1344,0 -3.82422,1.72894 -3.82422,3.86329 0,2.13628 1.77379,3.86328 3.90039,3.86328 a 3.8609685,3.8609685 0 0 0 3.86133,-3.86328 3.8609685,3.8609685 0 0 0 -3.86133,-3.86329 z"
       id="path538" /><path
       style="fill:#000000;stroke:none;stroke-width:2.72126"
       d="m 12.57036,383.48242 c -2.13531,1e-5 -3.82618,1.72602 -3.82618,3.86133 0,2.13532 1.77281,3.86328 3.90039,3.86328 2.13532,0 3.86329,-1.72796 3.86329,-3.86328 0,-2.13531 -1.72797,-3.86133 -3.86329,-3.86133 z"
       id="path536" /><path
       style="fill:#000000;stroke:none;stroke-width:2.72126"
       d="m 336.62504,342.3711 c -1.17813,0 -2.54201,2.357 -2.91406,3.28711 a 138.09003,138.09003 0 0 0 19.4082,16.67968 c 1.55018,0.55807 0.93078,-1.3e-4 2.29493,-1.73632 1.36415,-1.7362 -17.61093,-18.23047 -18.78907,-18.23047 z"
       id="path534" /><path
       style="fill:#000000;stroke:none;stroke-width:2.72126"
       d="m 341.02739,330.96094 c -0.43405,0 -2.54149,2.29453 -2.35547,3.47266 a 208.5302,208.5302 0 0 0 19.7793,15.50195 c 0.55806,0 1.55078,-0.74326 1.55078,-2.10742 a 99.211514,99.211514 0 0 0 -18.97461,-16.67969 z"
       id="path532" /><path
       style="fill:#000000;stroke:none;stroke-width:2.72126"
       d="m 276.23442,326.51953 c -0.25518,0.003 -0.4303,0.0556 -0.5,0.16407 -0.55807,0.8681 -2.54297,2.35552 -2.54297,3.09961 a 31.003598,31.003598 0 0 0 9.48828,2.72851 c 0.99223,0.18602 0.80422,-0.18522 0.99024,-2.10742 0,-1.57344 -5.64935,-3.90767 -7.43555,-3.88477 z"
       id="path530" /><path
       style="fill:#000000;stroke:none;stroke-width:2.72126"
       d="m 74.37895,321.67188 c -2.13532,-10e-6 -3.82422,1.72796 -3.82422,3.86328 0,2.1353 1.7728,3.86328 3.90039,3.86328 2.13531,0 3.86328,-1.72798 3.86328,-3.86328 0,-2.13532 -1.72797,-3.86328 -3.86328,-3.86328 z"
       id="path528" /><path
       style="fill:#000000;stroke:none;stroke-width:2.72126"
       d="m 218.56254,305.97266 c 0,0 -3.09913,2.35605 -3.28515,3.6582 a 62.627268,62.627268 0 0 0 13.33203,11.84375 v -0.37304 c 1.17811,0.37204 1.92142,-1.36241 2.35547,-2.72657 0.43405,-1.36416 -10.85217,-11.2242 -12.40235,-12.40234 z"
       id="path526" /><path
       style="fill:#000000;stroke:none;stroke-width:2.72126"
       d="m 207.71293,246.25977 a 8.1229427,8.1229427 0 0 0 -4.46484,2.35547 277.4822,277.4822 0 0 0 17.60938,26.91211 c 0.80608,0.80609 1.54992,-0.55773 2.91406,-1.92188 1.36415,-1.36416 -15.31451,-27.09767 -16.0586,-27.3457 z"
       id="path524" /><path
       style="fill:#000000;stroke:none;stroke-width:2.72126"
       d="m 217.61333,242.18164 c -1.5027,-0.0174 -3.60668,0.99357 -3.51368,1.41211 a 109.13267,109.13267 0 0 0 11.78125,17.42383 c 1.79821,1.17814 0.99077,-0.6202 1.54883,-1.73633 a 74.408635,74.408635 0 0 0 -8.61914,-16.67968 c -0.26353,-0.29453 -0.69637,-0.41393 -1.19726,-0.41993 z"
       id="path522" /><path
       style="fill:#000000;stroke:none;stroke-width:2.72126"
       d="m 43.47465,236.6836 c -2.13531,0 -3.82422,1.72796 -3.82422,3.86328 0,2.1353 1.77281,3.86523 3.9004,3.86523 2.13531,0 3.86328,-1.72993 3.86328,-3.86523 0,-2.13532 -1.72797,-3.86328 -3.86328,-3.86328 z"
       id="path520" /><path
       style="fill:#000000;stroke:none;stroke-width:2.72126"
       d="m 256.01567,235.59375 c -1.73618,0 -7.44145,5.5191 -7.9375,6.20117 a 10.293195,10.293195 0 0 0 3.28711,6.20118 c 1.55018,0.99212 9.48688,-9.30139 10.29297,-10.85157 0.8061,-1.55017 -3.78238,-1.55078 -5.64258,-1.55078 z"
       id="path518" /><path
       style="fill:#000000;stroke:none;stroke-width:2.72126"
       d="m 445.23247,213.50782 c -2.1354,0 -3.82422,1.72601 -3.82422,3.86132 0,2.13532 1.77289,3.86328 3.90039,3.86328 2.1353,1e-5 3.86328,-1.72796 3.86328,-3.86328 0,-2.13531 -1.72798,-3.86132 -3.86328,-3.86132 z"
       id="path516" /><path
       style="fill:#000000;stroke:none;stroke-width:2.72126"
       d="m 141.05473,185.80274 c -1.36416,-0.37205 -2.72777,0.62095 -5.82812,5.27148 a 118.37174,118.37174 0 0 0 -7.19336,22.63086 c 0.8061,1.36416 4.27849,1.36423 6.63476,0.99219 2.35628,-0.37204 0.74427,-0.37057 2.48047,-6.19922 1.73621,-5.82867 8.37016,-18.60359 8.74219,-19.5957 0.37204,-0.99212 -3.47179,-2.72757 -4.83594,-3.09961 z"
       id="path514" /><path
       style="fill:#000000;stroke:none;stroke-width:2.72126"
       d="m 483.86528,159.42383 c -2.1363,0 -3.82617,1.72796 -3.82617,3.86328 0,2.13533 1.77384,3.86133 3.90234,3.86133 2.1344,0 3.86133,-1.726 3.86133,-3.86133 0,-2.13532 -1.72693,-3.86328 -3.86133,-3.86328 z"
       id="path512" /><path
       style="fill:#000000;stroke:none;stroke-width:2.72126"
       d="m 321.27934,150.84571 c -3.49105,-0.21363 -14.8526,2.63496 -15.7207,3.39453 -0.99212,0.8681 0.37264,5.5811 1.55078,6.20117 a 72.858456,72.858456 0 0 0 16.24609,-5.82813 c 0.8681,-0.74407 -0.18512,-2.10849 -1.11523,-3.47265 -0.12401,-0.1705 -0.46222,-0.26442 -0.96094,-0.29492 z"
       id="path510" /><path
       style="fill:#000000;stroke:none;stroke-width:2.72126"
       d="m 252.99418,102.15821 c -3.25549,-0.0831 -6.52033,-0.0417 -9.81445,0.12109 a 165.12516,165.12516 0 0 0 -69.75781,21.88867 146.58501,146.58501 0 0 0 -61.07617,70.19141 c -7.9369,22.2605 -16.86637,46.87762 -6.20118,94.375 10.66521,47.49736 40.30541,81.72638 82.16016,104.79297 41.85474,23.06661 90.52896,17.48469 124.63281,8.92773 34.10387,-8.55696 57.10944,-24.8026 70.875,-48.86133 10.02908,-17.52829 13.99682,-40.50662 18.41211,-64.92187 l 0.13282,-0.0137 4.00195,-21.31055 c 0.4407,-2.11099 0.85022,-4.21625 1.32812,-6.33008 7.7508,-34.28987 -0.003,-53.69781 -14.14062,-80.05078 l 0.1875,0.24805 C 379.5348,154.86183 360.93108,139.54612 327.44731,123.4863 298.14898,109.43396 275.7826,102.73974 252.99418,102.15818 Z m -10.00195,9.18945 c 24.35252,0.19837 55.52932,8.90595 59.21875,10.58789 4.21647,1.92221 7.75135,3.0992 6.20117,4.27734 -1.55018,1.17814 -15.68836,13.51813 -20.71093,14.32422 -5.02257,0.80609 -22.44682,-3.47212 -35.6543,-2.91406 -13.20751,0.55807 -22.07422,3.09961 -28.46094,3.09961 -6.38672,0 -15.50241,-7.00638 -21.70312,-7.56445 -6.20069,-0.55806 -19.77958,-3.90686 -16.86524,-5.45703 l 0.3711,0.24804 a 141.68644,141.68644 0 0 1 47.68359,-16.12109 c 3.10035,-0.36428 6.44099,-0.50877 9.91992,-0.48047 z m 75.33984,21.37695 h 0.002 c 2.72832,0.37205 27.34616,14.94396 26.91211,16.49414 a 28.027253,28.027253 0 0 1 -10.60352,9.30078 46.071347,46.071347 0 0 0 -1.42578,1.17579 c -0.16461,-0.0114 -0.32733,-0.0467 -0.49219,-0.0547 -2.2983,-0.11324 -4.59907,0.18676 -6.89453,0.34765 -2.27242,0.15928 -4.55694,0.25331 -6.80664,0.61133 -2.56438,0.40811 -5.1082,0.98819 -7.5918,1.7461 -2.17488,0.6637 -4.3075,1.48407 -6.36914,2.44336 -2.29008,1.06557 -4.51415,2.28887 -6.63281,3.66406 -1.49791,0.9723 -2.95658,2.0244 -4.27539,3.22851 -1.91585,1.74924 -3.63492,3.71719 -5.23437,5.75977 -0.81906,1.04598 -1.60063,2.12358 -2.34766,3.22461 -1.0249,-4.1527 -3.08112,-9.82659 -6.43359,-11.48047 a 163.57498,163.57498 0 0 0 -49.60547,-10.23242 344.51198,344.51198 0 0 0 -35.44532,5.74414 c -1.96272,-0.12983 -3.93306,-0.0324 -5.90039,0.11914 -2.34957,-1.97169 -2.98497,-7.81797 -2.06054,-9.76953 1.11613,-2.35628 0.86792,-4.8989 -2.48047,-4.46485 a 25.919008,25.919008 0 0 0 -10.66406,10.66602 c -0.56349,1.26221 0.12818,3.15388 1.59375,5.2832 -0.003,0.001 -0.007,0.001 -0.01,0.002 -3.39335,1.23763 -6.60638,3.20068 -9.22461,5.70117 -9.95798,-5.24687 -18.09817,-9.43494 -16.97851,-12.9707 a 77.198959,77.198959 0 0 1 23.43945,-21.88868 36.088188,36.088188 0 0 1 25.79492,2.10742 c 10.04513,5.45663 8.92926,7.75243 22.63281,7.56641 13.70356,-0.18602 20.39922,-2.48089 24.42969,-1.55078 4.03044,0.9301 21.14567,8.37137 36.27539,5.45703 a 64.611498,64.611498 0 0 0 26.53906,-10.85156 c 4.46449,-2.91434 7.12911,-7.75095 9.85742,-7.37891 z m 34.29102,19.16016 0.18555,0.24805 c 1.30215,-0.43405 18.23086,6.63447 29.82617,28.70898 11.5953,22.07448 15.31722,49.23456 13.95312,51.71484 -1.32181,2.40323 -5.32226,2.67796 -9.12304,1.62305 0.0582,-0.95019 0.15688,-1.89964 0.14648,-2.85156 -0.0215,-1.96576 -0.19169,-3.92624 -0.42969,-5.88086 a 251.6252,251.6252 0 0 0 1.90235,0.8457 c 2.48029,0 1.11618,-1.73646 0.74414,-3.47265 a 157.6843,157.6843 0 0 0 -3.32617,-2.0625 c -0.0404,-0.25713 -0.0706,-0.51658 -0.11133,-0.77344 -0.40688,-2.56872 -0.90705,-5.12266 -1.45703,-7.66602 a 187.07571,187.07571 0 0 0 1.79297,0.83008 c 2.54228,0.37204 0.62107,-1.17887 0.37304,-3.28711 -0.0562,-0.47778 -1.46501,-1.62637 -3.44922,-3.03711 -0.0804,-0.32447 -0.14671,-0.65252 -0.22851,-0.97656 -0.72758,-2.88191 -1.3297,-5.83128 -2.5293,-8.55078 -1.13293,-2.56839 -2.72499,-4.89956 -4.27929,-7.24805 0.29285,0.12483 1.30151,0.52735 1.43164,0.58985 1.55017,0.74407 1.11766,-2.48007 0.93164,-3.65821 a 44.521167,44.521167 0 0 0 -7.21875,-4.43945 c -0.24975,-0.37061 -0.46918,-0.76155 -0.72657,-1.12695 -1.18264,-1.67894 -2.39766,-3.3429 -3.75195,-4.88672 -1.24773,-1.42233 -2.61787,-2.73632 -4.01367,-4.01367 -1.37092,-1.25462 -2.74903,-2.51804 -4.27539,-3.57813 -0.82468,-0.57277 -1.69198,-1.07841 -2.57422,-1.56055 -0.82201,-0.45136 -1.6584,-0.88002 -2.48633,-1.31836 -0.0298,-0.0158 -0.06,-0.0311 -0.0898,-0.0469 -1.13073,-0.60014 -2.2524,-1.22593 -3.39063,-1.81641 -0.005,-0.003 -0.0106,-0.003 -0.0156,-0.006 -1.19345,-0.61872 -2.40425,-1.20005 -3.66211,-1.66797 -1.04173,-0.38752 -2.11238,-0.68758 -3.19141,-0.96093 1.04964,-0.7586 1.96686,-1.4455 2.65625,-2.04688 2.91434,-2.54229 4.65052,-7.00688 6.38672,-7.62695 z m -128.95508,15.625 a 128.97497,128.97497 0 0 1 29.92969,3.03906 c 19.78023,3.6584 22.88033,6.9447 22.32227,11.78125 v 0.24805 c -0.62007,4.83655 -7.93772,24.80266 -10.66602,23.81055 A 259.06607,259.06607 0 0 1 232.32817,192.8711 c -1.36414,-1.98421 -1.79778,-11.6564 -7.56445,-13.39258 -4.98426,-1.50065 -13.95042,-4.29341 -19.09571,-6.07617 0.16741,-1.07416 0.23608,-2.14655 -0.082,-3.15625 -0.1516,-0.48114 -0.46532,-0.88078 -0.82031,-1.25586 1.81864,-0.18162 3.87695,-0.36328 3.87695,-0.36328 a 128.97497,128.97497 0 0 1 15.02539,-1.11719 z m -81.06445,0.68359 c 0.68634,0.0936 9.16438,4.80053 19.07227,10.2461 -1.52873,2.66826 -2.85524,5.49321 -4.34766,8.16406 -3.31234,5.92781 -6.53197,11.92759 -9.25,18.15039 -1.07918,2.47077 -1.9524,5.02936 -2.79102,7.5918 -2.5512,7.79535 -5.25522,15.59236 -6.80664,23.64648 -0.93454,4.85165 -1.08493,9.82339 -1.48437,14.74805 -0.49711,6.12888 -1.39006,12.26842 -1.13477,18.41211 0.19282,4.64017 1.2677,9.2023 2.00781,13.78711 0.30676,1.90028 0.58219,3.8093 0.86329,5.71679 -8.30006,-1.03895 -18.05368,-3.14016 -21.55079,-6.74218 a 109.50471,109.50471 0 0 1 -0.74414,-59.83789 c 8.49497,-35.28199 24.80186,-54.06884 26.16602,-53.88282 z m 60.19727,14.47071 c 6.24342,1.20098 11.83287,1.71852 12.47656,2.02343 a 38.630483,38.630483 0 0 1 3.09961,10.47852 c 0.55806,2.54228 6.20069,5.20751 19.16015,11.65625 12.95948,6.44871 31.00406,13.33245 32.74024,12.40234 a 182.54919,182.54919 0 0 0 7.0332,-12.58398 c -0.0968,1.14511 -0.21262,2.2902 -0.26172,3.43555 -0.13973,3.25689 -0.027,6.53537 0.34961,9.77343 0.3974,3.41705 1.15971,6.78915 2.00781,10.12305 0.81864,3.21809 1.7628,6.41513 2.9668,9.50976 0.23261,0.59787 0.50252,1.18249 0.74609,1.77735 -2.04511,-0.0898 -4.43372,-0.20899 -5.40039,-0.20899 -6.01467,0 -7.75102,-2.5e-4 -8.37109,2.91407 -0.62008,2.91432 0.61987,32.12084 -2.48047,41.66992 -3.10036,9.54908 -0.9928,25.17416 10.23047,29.63867 7.65351,3.04449 15.43015,5.0866 20.14453,7.37109 -1.63927,1.25187 -3.28193,2.50062 -4.92187,3.75 -3.93832,3.00044 -7.81949,6.09236 -11.95508,8.81446 -3.996,2.63023 -8.08418,5.15873 -12.39063,7.24219 -3.88626,1.88017 -7.95734,3.38067 -12.06445,4.71093 -3.85235,1.24774 -7.75583,2.43696 -11.75781,3.05469 -1.81582,0.28028 -3.65163,0.44865 -5.49219,0.53125 a 28.957361,28.957361 0 0 1 -0.68945,-8.5625 c 0.8061,-2.54229 14.50963,-30.1983 12.77343,-37.20508 -1.7362,-7.00679 -4.4629,-14.13684 -10.84961,-15.87305 -6.38672,-1.73619 -17.05306,0 -34.29101,0 a 172.62803,172.62803 0 0 1 -22.29688,-1.31054 c -0.84255,-4.81015 -1.67906,-9.62651 -1.89257,-14.4961 -0.34953,-7.97278 0.4243,-15.96973 1.22265,-23.91015 0.57251,-5.6942 1.30175,-11.38856 2.41797,-17.00195 7.6498,0.46596 18.17516,1.07936 22.4707,-1.19727 6.20069,-3.28638 7.00734,-10.85159 7.19336,-17.48633 0.18603,-6.63476 -2.29465,-21.08223 -5.20898,-23.81055 -0.85167,-0.7973 -4.12636,-2.15939 -8.21484,-3.72656 0.4941,-1.16804 1.00175,-2.33562 1.50586,-3.5039 z m 133,1.5957 c 1.05638,0.0912 2.1056,0.28117 3.11914,0.55859 1.01958,0.27908 2.02408,0.65286 2.98632,1.11328 0.9468,0.45986 1.85231,1.00071 2.6836,1.63086 2.16775,1.64323 3.91429,3.83744 5.41015,6.10938 1.80305,2.73846 3.16041,5.78666 4.1875,8.90039 0.92928,2.81718 1.30687,5.79275 1.7461,8.72656 0.43274,2.89051 0.85244,5.80196 0.87304,8.72461 0.0128,1.81108 -0.0892,3.62299 -0.23242,5.43164 -1.33859,0.0317 -2.53065,-0.25156 -3.33203,-1.26953 -2.29426,-2.91434 -9.29986,-11.5957 -16.30664,-11.5957 -7.0068,0 -8.4957,1.17908 -9.67383,-0.3711 -0.71548,-0.94142 -2.38361,-13.37374 -1.96875,-24.34961 0.59006,-0.43523 1.19398,-0.85901 1.75977,-1.30664 0.39203,-0.31016 0.77384,-0.64703 1.2207,-0.87109 1.36511,-0.68448 2.84597,-1.22381 4.36328,-1.39649 1.04409,-0.11879 2.10768,-0.12635 3.16407,-0.0352 z m -139.26368,12.25391 c 5.91008,2.81747 6.56295,3.34324 7.26758,5.41015 a 62.81329,62.81329 0 0 1 -1.17773,20.71094 c -0.60902,0.3045 -7.7788,0.11914 -15.27344,-0.0293 1.74254,-6.49683 3.83209,-12.90689 6.18945,-19.20117 0.87878,-2.3464 1.92216,-4.62426 2.99414,-6.89062 z m 132.05664,23.32031 c 2.64645,-0.0887 5.07079,0.0874 6.60547,1.25 4.09245,3.10035 5.02299,12.77398 11.84375,13.58008 3.57155,0.42209 6.05415,-0.75291 8.5,-1.3711 -0.61756,3.42761 -1.4275,6.83228 -2.57617,10.11719 -1.20295,3.4401 -4.53711,9.94726 -4.53711,9.94726 0,1e-5 -2.48828,-1.02821 -4.58008,-2.10156 -0.67251,-0.34764 -1.3067,-0.7005 -1.78906,-1.02148 -1.60716,-1.06951 -2.93185,-2.51308 -4.36133,-3.81055 -2.07243,-1.88104 -4.1942,-3.71884 -6.10937,-5.75976 -2.12005,-2.25928 -4.35416,-4.48891 -5.9336,-7.1543 -1.85046,-3.12281 -3.04437,-6.62496 -4.01367,-10.12305 -0.29463,-1.06329 -0.55648,-2.13764 -0.79687,-3.2168 2.38582,0.0753 5.16601,-0.24943 7.74804,-0.33593 z m 67.48828,21.77929 c 1.06677,0.0736 1.72769,0.30668 1.86719,0.80274 a 15.315777,15.315777 0 0 1 -0.74414,8.86719 c -0.3791,0.23694 -5.87487,0.97681 -12.35937,1.78515 0.66092,-3.62206 1.3168,-7.24694 1.79687,-10.89648 4.00472,-0.28907 7.45837,-0.69535 9.43945,-0.5586 z m -108.78124,7.8711 c 2.0375,3.23354 4.32101,6.33183 6.93945,9.10937 3.63793,3.85897 7.80171,7.2307 12.1289,10.29688 2.54085,1.80042 5.1906,3.44228 7.89649,4.99219 0.65221,0.37426 1.32809,0.70436 1.98633,1.06836 2.01763,1.11402 4.03912,2.22431 6.08593,3.27539 0.005,0.003 0.0126,0.006 0.0176,0.008 0.0244,0.0125 0.048,0.0266 0.0723,0.0391 3.64301,1.87075 11.0851,4.95319 11.25,5.02148 -0.005,0.008 -1.78343,2.89899 -2.78906,4.26954 -1.4914,2.03257 -3.20567,3.89186 -4.79883,5.8457 -1.86889,2.292 -3.70792,4.60837 -5.58399,6.89453 -1.99158,2.42692 -3.87591,4.95028 -6.02148,7.24219 -2.26206,2.41629 -4.68636,4.67755 -7.16406,6.875 -0.60025,-0.37426 -1.22927,-0.69511 -1.94727,-0.88477 -6.57276,-1.7362 -22.88011,-5.57988 -25.98047,-9.48633 a 24.802878,24.802878 0 0 1 -3.47265,-11.5957 c 0,0 1.73632,-24.059 1.73632,-29.26758 0,-5.20858 -8.7e-4,-13.39258 1.36328,-13.39258 0.63187,1e-5 3.98903,-0.17045 8.28126,-0.31054 z m 104.82421,38.33008 c -2.58359,14.80147 -6.38767,32.9906 -11.22656,45.25586 a 98.653449,98.653449 0 0 1 -34.29101,43.77734 c -7.13081,4.09245 -14.50834,5.64102 -15.06641,4.46289 a 135.2997,135.2997 0 0 1 -14.13672,-36.55664 c 0.42392,-0.2864 0.84621,-0.57518 1.27149,-0.85938 4.05808,-2.71187 8.30613,-5.16855 12.1289,-8.20312 3.38524,-2.68728 6.35453,-5.86064 9.51172,-8.8125 2.2674,-2.11998 4.55537,-4.21952 6.77344,-6.39063 a 272.33561,272.33561 0 0 0 17.5625,14.13086 c 0.74408,0.62007 1.36329,-0.37171 1.36328,-1.92187 a 180.68897,180.68897 0 0 0 -15.78711,-15.44531 c 1.43415,-1.53509 2.86769,-3.07078 4.31055,-4.59766 0.12136,-0.12843 0.24863,-0.25147 0.37109,-0.37891 a 243.13022,243.13022 0 0 0 14.02148,12.67188 c 1.92223,0 1.11478,-0.74474 1.54883,-2.29492 a 144.7868,144.7868 0 0 0 -12.75586,-13.28321 c 0.6998,-0.72303 1.40093,-1.44497 2.05078,-2.21289 1.36136,-1.60865 2.6277,-3.2953 3.86133,-5.00586 a 258.69402,258.69402 0 0 0 11.49414,10.02344 c 0.74409,0 1.36476,-1.17834 1.55078,-2.72851 a 176.16244,176.16244 0 0 0 -10.58984,-10.84766 c 2.16714,-3.29126 5.37695,-8.71875 5.37695,-8.71875 0,0 1.09399,-0.009 1.61328,-0.01 a 138.7101,138.7101 0 0 0 8.8086,6.98828 c 1.55018,0.55807 1.17826,-1.2e-4 1.73633,-1.73632 a 81.663477,81.663477 0 0 0 -4.83399,-5.40235 c 0.90118,-0.0362 1.92554,-0.0404 2.62305,-0.10156 2.93008,-0.25726 5.85528,-0.67027 8.72656,-1.30859 0.66343,-0.14749 1.32293,-0.32255 1.98242,-0.49414 z M 126.0977,294.9961 c 3.53909,0.17219 9.33138,1.58507 14.32617,3.12304 0.18993,0.84555 0.36114,1.69558 0.58594,2.53321 0.79421,2.95944 1.96781,5.80864 3.14258,8.63867 2.33976,5.63649 4.96097,11.15988 7.76562,16.58008 1.27811,2.47003 2.56921,4.94678 4.08985,7.27343 0.52874,5.30301 1.51378,9.91311 3.40039,11.58204 a 66.409707,66.409707 0 0 1 19.03711,20.33984 45.017224,45.017224 0 0 1 6.19921,13.57812 124.9445,124.9445 0 0 1 -36.83203,-34.10351 c -19.78024,-25.60891 -25.54681,-47.6832 -24.80273,-48.86133 0.29453,-0.57357 1.43501,-0.76399 3.08789,-0.68359 z m 59.17578,4.20117 a 78.997168,78.997168 0 0 0 10.65625,0.94726 c 20.52433,0.37204 40.67743,-1.92364 42.84766,0.55665 2.17025,2.48028 1.73598,11.03773 -2.72852,19.22265 a 132.57139,132.57139 0 0 0 -7.3789,16.06055 162.21083,162.21083 0 0 0 -19.59375,-15.50196 3.6584246,3.6584246 0 0 0 -2.10743,4.2793 c 0.80609,1.7362 18.60211,13.76428 19.40821,15.31446 a 60.457016,60.457016 0 0 1 -0.40625,9.26367 c -0.39582,-0.0887 -0.79396,-0.17122 -1.18946,-0.25782 -0.62669,-0.13714 -1.2531,-0.2804 -1.88086,-0.41992 a 159.73054,159.73054 0 0 0 -15.74609,-12.49219 c -1.07627,-0.17452 -1.96009,1.00972 -2.54883,2.375 -0.41712,-0.35066 -0.82254,-0.71436 -1.20117,-1.10742 -2.83415,-2.94216 -5.03171,-6.45995 -7.15625,-9.94922 -2.00241,-3.28865 -3.70984,-6.76126 -5.23437,-10.29687 -1.81046,-4.19873 -3.4178,-8.50388 -4.625,-12.91406 -0.45787,-1.67267 -0.79232,-3.37524 -1.11524,-5.08008 z m 122.77149,51.61328 c 1.72534,6.16535 3.54438,12.07195 5.32812,15.43359 4.83655,9.11502 11.59505,19.5309 9.30078,21.45313 a 125.93662,125.93662 0 0 1 -37.20508,9.55078 146.58501,146.58501 0 0 1 -35.83984,0 c 0,0 -2.38582,-12.18528 -4.78516,-23.32227 0.55508,-0.0434 1.11354,-0.0552 1.66797,-0.10156 3.68901,-0.30869 7.36591,-0.83554 10.99414,-1.57031 4.36317,-0.8836 8.68424,-2.01636 12.91407,-3.4043 3.83391,-1.25802 7.55688,-2.84158 11.25781,-4.44922 4.66603,-2.02685 9.26965,-4.2056 13.78711,-6.54492 4.26784,-2.21005 8.45916,-4.57074 12.58008,-7.04492 z m -114.0625,16.22852 c 0.11704,0.0473 0.23061,0.10534 0.34765,0.15234 5.32942,2.13731 10.8879,3.72439 16.49219,4.97461 3.75132,0.83685 7.56254,1.41428 11.38867,1.8125 6.58767,4.78837 12.97131,9.5264 13.4043,10.24805 a 40.24267,40.24267 0 0 1 2.29492,11.4707 201.95744,201.95744 0 0 1 -22.26172,-5.64258 c -7.75087,-2.91434 -14.57031,-4.46538 -14.57031,-5.02344 0,-0.34267 -2.68404,-9.03906 -7.0957,-17.99218 z m 39.73828,7.45117 a 37.576361,37.576361 0 0 1 0.34375,1.61328 c -0.074,0 -1.3605,-1.00627 -2.14063,-1.5918 0.59896,0 1.19778,-0.0125 1.79688,-0.0215 z"
       id="path508" /><path
       style="fill:#000000;stroke:none;stroke-width:2.72126"
       d="m 167.09379,66.710936 c -2.13532,0 -3.82617,1.72601 -3.82617,3.86133 0,2.13531 1.77279,3.86328 3.90039,3.86328 2.13532,0 3.86328,-1.72797 3.86328,-3.86328 0,-2.13532 -1.72796,-3.86133 -3.86328,-3.86133 z"
       id="path506" /><path
       style="fill:#000000;stroke:none;stroke-width:2.72126"
       d="m 352.51957,51.255858 c -2.13531,10e-7 -3.82421,1.729924 -3.82421,3.865238 0,2.13531 1.77281,3.86132 3.90039,3.86132 2.13531,10e-6 3.86328,-1.72601 3.86328,-3.86132 0,-2.135314 -1.72797,-3.865238 -3.86328,-3.865238 z"
       id="path504" /><path
       style="fill:#000000;stroke:none;stroke-width:2.72126"
       d="m 81.95312,36.066405 c -7.00547,0 -14.00934,2.554265 -19.11719,7.66211 -5.10833,5.100605 -7.92383,11.890971 -7.92383,19.119141 0,7.00434 2.66847,13.59055 7.49024,18.64258 -0.0294,0.0027 -0.0816,0.02144 -0.10938,0.02344 a 3.8609685,3.8609685 0 0 0 -4.91992,0.45117 3.8619347,3.8619347 0 0 0 0,5.46289 c 1.24544,1.244474 2.82198,1.781254 4.61719,1.781254 2.30448,0 4.96214,-0.88707 7.70898,-2.267584 3.75287,1.914614 7.92263,2.947274 12.25586,2.947274 7.22045,0 14.00981,-2.814534 19.11719,-7.921884 5.10831,-5.10833 7.92187,-11.89869 7.92187,-19.11914 0,-4.33932 -1.0315,-8.51272 -2.94726,-12.265626 2.45091,-4.881385 3.33864,-9.476161 0.49023,-12.324218 a 3.8619347,3.8619347 0 0 0 -5.46289,0 3.8522727,3.8522727 0 0 0 -0.45312,4.917968 c -0.002,0.03135 -0.0243,0.08975 -0.0273,0.123047 -5.06356,-4.806965 -11.84461,-7.232422 -18.64062,-7.232422 z m 0.002,7.464844 a 19.191796,19.191796 0 0 1 13.65625,5.658203 19.197594,19.197594 0 0 1 1.40235,1.556641 c -2.5651,3.957683 -6.56253,9.068373 -12.32618,14.832033 -5.75732,5.75332 -10.86178,9.74821 -14.81445,12.31445 -0.54663,-0.43141 -1.07494,-0.88886 -1.57422,-1.38867 a 19.19083,19.19083 0 0 1 -5.6582,-13.65625 c 0,-5.16148 2.00691,-10.013677 5.6582,-13.658204 3.64356,-3.651286 8.49575,-5.658203 13.65625,-5.658203 z m 18.88867,15.246097 a 19.197594,19.197594 0 0 1 0.42578,4.07031 c 0,5.15277 -2.01464,10.00495 -5.6582,13.65625 -4.60092,4.60518 -11.35656,6.29999 -17.55078,5.09766 5.53515,-4.15929 10.3376,-8.81027 12.08789,-10.56055 1.76841,-1.76842 6.5023,-6.65528 10.69531,-12.26367 z"
       id="path502" /><path
       style="fill:#000000;stroke:none;stroke-width:2.72126"
       d="m 429.78124,20.351562 c -2.13529,0 -3.82422,1.729916 -3.82422,3.865234 0,2.135308 1.7728,3.863281 3.9004,3.863281 2.13439,0 3.86328,-1.727973 3.86328,-3.863281 0,-2.135318 -1.72889,-3.865234 -3.86328,-3.865234 z"
       id="path500" /><path
       style="fill:#000000;stroke:none;stroke-width:2.72126"
       d="m 252.08007,20.351562 c -2.13532,0 -3.82422,1.729916 -3.82422,3.865234 0,2.135308 1.77281,3.863281 3.90039,3.863281 2.13532,0 3.86328,-1.727973 3.86328,-3.863281 10e-6,-2.135318 -1.72796,-3.865234 -3.86328,-3.865234 z"
       id="rect3006-1" /></g></svg>
