<?xml version="1.0" encoding="UTF-8" standalone="no"?>
<!-- Created with Inkscape (http://www.inkscape.org/) -->

<svg
   width="512.0px"
   height="512.0px"
   viewBox="0 0 512.0 512.0"
   version="1.1"
   id="SVGRoot"
   sodipodi:docname="Valis-World-Earth.svg"
   xml:space="preserve"
   inkscape:version="1.2.2 (732a01da63, 2022-12-09)"
   xmlns:inkscape="http://www.inkscape.org/namespaces/inkscape"
   xmlns:sodipodi="http://sodipodi.sourceforge.net/DTD/sodipodi-0.dtd"
   xmlns="http://www.w3.org/2000/svg"
   xmlns:svg="http://www.w3.org/2000/svg"><sodipodi:namedview
     id="namedview1054"
     pagecolor="#ffffff"
     bordercolor="#000000"
     borderopacity="0.25"
     inkscape:showpageshadow="2"
     inkscape:pageopacity="1"
     inkscape:pagecheckerboard="0"
     inkscape:deskcolor="#d1d1d1"
     inkscape:document-units="px"
     showgrid="false"
     inkscape:zoom="1.0129245"
     inkscape:cx="79.472853"
     inkscape:cy="158.45209"
     inkscape:window-width="1920"
     inkscape:window-height="991"
     inkscape:window-x="-9"
     inkscape:window-y="-9"
     inkscape:window-maximized="1"
     inkscape:current-layer="layer1"><inkscape:grid
       type="xygrid"
       id="grid1540" /></sodipodi:namedview><defs
     id="defs1049"><filter
       style="color-interpolation-filters:sRGB;"
       inkscape:label="Greyscale"
       id="filter2465"
       x="0"
       y="0"
       width="1"
       height="1"><feColorMatrix
         values="0.21 0.72 0.072 0 0 0.21 0.72 0.072 0 0 0.21 0.72 0.072 0 0 0 0 0 1 0 "
         id="feColorMatrix2463" /></filter></defs><g
     inkscape:label="Ebene 1"
     inkscape:groupmode="layer"
     id="layer1"><path
       style="fill:#000000;stroke:none;stroke-width:2.72126"
       d="m 233.72071,374.49024 c -0.5991,0.009 -1.19791,0.0215 -1.79687,0.0215 0.78013,0.58553 2.06659,1.5918 2.14062,1.5918 a 37.576361,37.576361 0 0 0 -0.34375,-1.61329 z"
       id="path937" /><path
       style="fill:#000000;stroke:none;stroke-width:2.72126"
       d="m 193.98243,367.03907 c 4.41167,8.95313 7.0957,17.64952 7.0957,17.99219 0,0.55806 6.81944,2.1091 14.57032,5.02344 a 201.95744,201.95744 0 0 0 22.26172,5.64258 40.24267,40.24267 0 0 0 -2.29493,-11.47071 c -0.43299,-0.72165 -6.81662,-5.45966 -13.40429,-10.24804 -3.82614,-0.39822 -7.63735,-0.97565 -11.38867,-1.8125 -5.60428,-1.25022 -11.16278,-2.8373 -16.49219,-4.97461 -0.11705,-0.047 -0.23062,-0.1051 -0.34766,-0.15235 z"
       id="path935" /><path
       style="fill:#000000;stroke:none;stroke-width:2.72126"
       d="m 185.27344,299.19728 c 0.32292,1.70484 0.65737,3.4074 1.11524,5.08007 1.20721,4.41019 2.81454,8.71534 4.625,12.91407 1.52454,3.53561 3.23197,7.00821 5.23438,10.29687 2.12454,3.48927 4.3221,7.00705 7.15625,9.94922 0.37863,0.39306 0.78405,0.75675 1.20117,1.10742 0.58874,-1.36529 1.47256,-2.54953 2.54883,-2.375 a 159.73054,159.73054 0 0 1 15.74609,12.49219 c 0.62776,0.13952 1.25417,0.28278 1.88086,0.41992 0.3955,0.0866 0.79363,0.16908 1.18945,0.25781 a 60.457016,60.457016 0 0 0 0.40625,-9.26367 c -0.8061,-1.55018 -18.60211,-13.57825 -19.4082,-15.31445 a 3.6584246,3.6584246 0 0 1 2.10742,-4.2793 162.21083,162.21083 0 0 1 19.59375,15.50196 132.57139,132.57139 0 0 1 7.37891,-16.06055 c 4.4645,-8.18493 4.89876,-16.74237 2.72851,-19.22266 -2.17023,-2.48029 -22.3233,-0.1846 -42.84765,-0.55664 a 78.997168,78.997168 0 0 1 -10.65626,-0.94726 z m 33.28907,6.77539 c 1.55018,1.17814 12.83639,11.03818 12.40234,12.40234 -0.43405,1.36416 -1.17735,3.0986 -2.35546,2.72656 v 0.37305 a 62.627268,62.627268 0 0 1 -13.33204,-11.84375 c 0.18602,-1.30215 3.28516,-3.6582 3.28516,-3.6582 z"
       id="path931" /><path
       style="fill:#000000;stroke:none;stroke-width:2.72126"
       d="m 392.12501,287.81446 c -0.65949,0.17159 -1.31899,0.34665 -1.98242,0.49414 -2.87128,0.63832 -5.79648,1.05134 -8.72656,1.3086 -0.69751,0.0612 -1.72187,0.0654 -2.62305,0.10156 a 81.663477,81.663477 0 0 1 4.83398,5.40234 c -0.55807,1.7362 -0.18615,2.2944 -1.73633,1.73633 a 138.7101,138.7101 0 0 1 -8.80859,-6.98828 c -0.5193,8.5e-4 -1.61328,0.01 -1.61328,0.01 0,0 -3.20981,5.42749 -5.37695,8.71875 a 176.16244,176.16244 0 0 1 10.58984,10.84765 c -0.18602,1.55018 -0.80669,2.72852 -1.55078,2.72852 a 258.69402,258.69402 0 0 1 -11.49414,-10.02344 c -1.23363,1.71056 -2.49997,3.39721 -3.86133,5.00586 -0.64986,0.76792 -1.35098,1.48986 -2.05078,2.21289 a 144.7868,144.7868 0 0 1 12.75586,13.2832 c -0.43405,1.55018 0.3734,2.29493 -1.54883,2.29493 a 243.13022,243.13022 0 0 1 -14.02148,-12.67188 c -0.12246,0.12744 -0.24974,0.25048 -0.3711,0.37891 -1.44286,1.52688 -2.87639,3.06256 -4.31054,4.59765 a 180.68897,180.68897 0 0 1 15.7871,15.44532 c 1e-5,1.55016 -0.6192,2.54194 -1.36328,1.92187 a 272.33561,272.33561 0 0 1 -17.5625,-14.13086 c -2.21807,2.17111 -4.50603,4.27065 -6.77343,6.39063 -3.15719,2.95186 -6.12648,6.12522 -9.51172,8.8125 -3.82278,3.03457 -8.07082,5.49124 -12.12891,8.20312 -0.42528,0.2842 -0.84756,0.57298 -1.27148,0.85938 a 135.2997,135.2997 0 0 0 14.13672,36.55664 c 0.55807,1.17813 7.93559,-0.37044 15.0664,-4.46289 a 98.653449,98.653449 0 0 0 34.29102,-43.77735 c 4.83889,-12.26527 8.64296,-30.45437 11.22656,-45.25586 z m -51.09766,43.14649 v 0.1875 a 99.211514,99.211514 0 0 1 18.97461,16.67968 c 0,1.36416 -0.99272,2.10743 -1.55078,2.10743 A 208.5302,208.5302 0 0 1 338.67189,334.4336 c -0.18602,-1.17813 1.92141,-3.47265 2.35546,-3.47265 z m -4.40234,11.41015 c 1.17814,0 20.15322,16.49427 18.78906,18.23047 -1.36415,1.7362 -0.74474,2.2944 -2.29492,1.73633 a 138.09003,138.09003 0 0 1 -19.4082,-16.67969 c 0.37205,-0.93011 1.73593,-3.28711 2.91406,-3.28711 z"
       id="path927" /><path
       style="fill:#000000;stroke:none;stroke-width:2.72126"
       d="m 287.30083,249.48439 c -4.29223,0.14009 -7.64938,0.31054 -8.28125,0.31054 -1.36416,0 -1.36328,8.18399 -1.36328,13.39258 0,5.20858 -1.73633,29.26758 -1.73633,29.26758 a 24.802878,24.802878 0 0 0 3.47266,11.5957 c 3.10036,3.90645 19.4077,7.75013 25.98047,9.48633 0.718,0.18966 1.34701,0.51051 1.94726,0.88477 2.47771,-2.19745 4.90201,-4.45871 7.16407,-6.875 2.14557,-2.29191 4.02989,-4.81527 6.02148,-7.24219 1.87607,-2.28616 3.71509,-4.60253 5.58398,-6.89453 1.59316,-1.95384 3.30743,-3.81313 4.79883,-5.84571 1.00564,-1.37055 2.78415,-4.26154 2.78906,-4.26953 -0.1649,-0.0683 -7.60698,-3.15073 -11.25,-5.02148 -0.0243,-0.0125 -0.0479,-0.0266 -0.0723,-0.0391 -0.005,-0.002 -0.013,-0.005 -0.0176,-0.008 -2.04682,-1.05108 -4.0683,-2.16136 -6.08594,-3.27539 -0.65824,-0.364 -1.33412,-0.6941 -1.98633,-1.06836 -2.70589,-1.54991 -5.35563,-3.19177 -7.89648,-4.99219 -4.3272,-3.06618 -8.49097,-6.4379 -12.12891,-10.29687 -2.61844,-2.77755 -4.90194,-5.87582 -6.93945,-9.10937 z"
       id="path925" /><path
       style="fill:#000000;stroke:none;stroke-width:2.72126"
       d="m 196.53716,196.51368 c -1.07198,2.26637 -2.11536,4.54423 -2.99414,6.89063 -2.35736,6.29429 -4.44691,12.70433 -6.18945,19.20117 7.49465,0.14844 14.66441,0.3338 15.27343,0.0293 a 62.81329,62.81329 0 0 0 1.17774,-20.71094 c -0.70463,-2.06691 -1.3575,-2.59268 -7.26758,-5.41016 z"
       id="path919" /><path
       style="fill:#000000;stroke:none;stroke-width:2.72126"
       d="m 335.80083,184.25978 c -1.05639,-0.0912 -2.11997,-0.0837 -3.16406,0.0351 -1.51731,0.17268 -2.99817,0.71201 -4.36328,1.39649 -0.44686,0.22406 -0.82868,0.56093 -1.22071,0.87109 -0.56579,0.44763 -1.1697,0.87141 -1.75976,1.30664 -0.41486,10.97588 1.25327,23.40819 1.96875,24.34961 1.17813,1.55018 2.66702,0.37109 9.67383,0.37109 7.00679,0 14.01238,8.68137 16.30664,11.59571 0.80138,1.01797 1.99344,1.30125 3.33203,1.26953 0.14317,-1.80865 0.24518,-3.62056 0.23242,-5.43164 -0.0206,-2.92265 -0.44031,-5.8341 -0.87305,-8.72461 -0.43923,-2.93381 -0.81681,-5.90938 -1.74609,-8.72656 -1.02709,-3.11373 -2.38445,-6.16193 -4.1875,-8.90039 -1.49587,-2.27194 -3.24241,-4.46615 -5.41016,-6.10938 -0.83129,-0.63015 -1.73679,-1.171 -2.68359,-1.63086 -0.96224,-0.46042 -1.96674,-0.8342 -2.98633,-1.11328 -1.01354,-0.27742 -2.06275,-0.46738 -3.11914,-0.55859 z"
       id="path917" /><path
       style="fill:#000000;stroke:none;stroke-width:2.72126"
       d="m 142.60356,168.19337 c -1.36416,-0.18602 -17.67105,18.60079 -26.16602,53.88281 a 109.50471,109.50471 0 0 0 0.74414,59.83789 c 3.49711,3.60203 13.25072,5.70324 21.55078,6.74219 -0.2811,-1.9075 -0.55652,-3.81651 -0.86328,-5.7168 -0.74012,-4.58481 -1.81499,-9.14693 -2.00781,-13.78711 -0.25529,-6.14369 0.63765,-12.28322 1.13476,-18.41211 0.39944,-4.92466 0.54984,-9.89639 1.48438,-14.74804 1.55141,-8.05413 4.25543,-15.85113 6.80664,-23.64649 0.83862,-2.56244 1.71183,-5.12102 2.79101,-7.59179 2.71803,-6.22281 5.93766,-12.22257 9.25,-18.15039 1.49242,-2.67085 2.81893,-5.4958 4.34766,-8.16407 -9.90789,-5.44557 -18.38592,-10.1525 -19.07226,-10.24609 z m -1.54883,17.60937 c 1.36415,0.37204 5.20797,2.10749 4.83593,3.09961 -0.37203,0.99211 -7.00598,13.76703 -8.74218,19.59571 -1.7362,5.82866 -0.12419,5.82718 -2.48047,6.19922 -2.35627,0.37204 -5.82867,0.37197 -6.63477,-0.99219 a 118.37174,118.37174 0 0 1 7.19336,-22.63086 c 3.10036,-4.65054 4.46397,-5.64354 5.82813,-5.27149 z"
       id="path913" /><path
       style="fill:#000000;stroke:none;stroke-width:2.72126"
       d="m 223.66802,167.50978 a 128.97497,128.97497 0 0 0 -15.02539,1.11718 c 0,0 -2.05831,0.18166 -3.87696,0.36328 0.355,0.37508 0.66873,0.77472 0.82032,1.25586 0.31811,1.0097 0.24942,2.08209 0.082,3.15625 5.1453,1.78276 14.11143,4.57553 19.0957,6.07618 5.76667,1.73618 6.20031,11.40836 7.56445,13.39257 a 259.06607,259.06607 0 0 0 32.92579,13.51758 c 2.7283,0.99212 10.04594,-18.97399 10.66601,-23.81055 v -0.24804 c 0.55806,-4.83656 -2.54201,-8.12285 -22.32226,-11.78125 a 128.97497,128.97497 0 0 0 -29.92969,-3.03906 z"
       id="path911" /><path
       style="fill:#000000;stroke:none;stroke-width:2.72126"
       d="m 352.6231,151.88477 c -1.7362,0.62007 -3.47238,5.08466 -6.38672,7.62695 -0.68939,0.60138 -1.60661,1.28827 -2.65625,2.04687 1.07903,0.27335 2.14967,0.57342 3.1914,0.96094 1.25786,0.46792 2.46866,1.04925 3.66211,1.66797 0.005,0.003 0.0107,0.003 0.0156,0.006 1.13823,0.59048 2.25989,1.21628 3.39062,1.81642 0.0298,0.0158 0.0601,0.0311 0.0899,0.0469 0.82793,0.43834 1.66432,0.867 2.48633,1.31836 0.88224,0.48214 1.74953,0.98778 2.57421,1.56055 1.52636,1.06009 2.90447,2.3235 4.27539,3.57812 1.3958,1.27736 2.76595,2.59134 4.01368,4.01367 1.35429,1.54382 2.56931,3.20778 3.75195,4.88672 0.25739,0.3654 0.47681,0.75635 0.72656,1.12696 a 44.521167,44.521167 0 0 1 7.21875,4.43945 c 0.18602,1.17814 0.61854,4.40228 -0.93164,3.6582 -0.13013,-0.0625 -1.13878,-0.46501 -1.43164,-0.58984 1.55431,2.34849 3.14637,4.67966 4.2793,7.24805 1.1996,2.7195 1.80172,5.66887 2.5293,8.55078 0.0818,0.32404 0.14812,0.65209 0.22851,0.97656 1.98421,1.41074 3.39301,2.55933 3.44922,3.03711 0.24803,2.10824 2.16924,3.65915 -0.37305,3.28711 a 187.07571,187.07571 0 0 1 -1.79297,-0.83008 c 0.54998,2.54336 1.05015,5.0973 1.45703,7.66602 0.0407,0.25686 0.0709,0.5163 0.11133,0.77343 a 157.6843,157.6843 0 0 1 3.32617,2.0625 c 0.37204,1.7362 1.73615,3.47266 -0.74414,3.47266 a 251.6252,251.6252 0 0 1 -1.90234,-0.8457 c 0.238,1.95462 0.40818,3.91509 0.42969,5.88085 0.0104,0.95192 -0.0883,1.90138 -0.14649,2.85157 3.80079,1.05491 7.79932,0.78018 9.12114,-1.62305 1.3641,-2.48029 -2.3559,-29.64034 -13.95121,-51.71484 -11.59532,-22.07453 -28.52403,-29.14305 -29.82618,-28.709 z"
       id="path909" /><path
       style="fill:#000000;stroke:none;stroke-width:2.72126"
       d="m 242.99224,111.34766 c -3.47894,-0.0283 -6.81958,0.11618 -9.91992,0.48046 a 141.68644,141.68644 0 0 0 -47.6836,16.1211 l -0.3711,-0.24805 c -2.91434,1.55018 10.66454,4.89897 16.86524,5.45703 6.20072,0.55807 15.31639,7.56446 21.70313,7.56446 6.38673,0 15.25342,-2.54154 28.46094,-3.09961 13.20749,-0.55806 30.63172,3.72015 35.65429,2.91406 5.02258,-0.80609 19.16076,-13.14608 20.71094,-14.32422 1.55018,-1.17814 -1.9847,-2.35513 -6.20117,-4.27734 -3.68943,-1.68194 -34.86621,-10.38952 -59.21875,-10.58789 z"
       id="path905" /></g></svg>
