  0
SECTION
  2
HEADER
  9
$ACADVER
  1
AC1014
  9
$HANDSEED
  5
FFFF
  9
$INSUNITS
 70
     0
  9
$MEASUREMENT
 70
     1
  0
ENDSEC
  0
SECTION
  2
TABLES
  0
TABLE
  2
VPORT
  5
8
330
0
100
AcDbSymbolTable
 70
     4
  0
VPORT
  5
2E
330
8
100
AcDbSymbolTableRecord
100
AcDbViewportTableRecord
  2
*ACTIVE
 70
     0
 10
0.0
 20
0.0
 11
1.0
 21
1.0
 12
210.0
 22
148.5
 13
0.0
 23
0.0
 14
10.0
 24
10.0
 15
10.0
 25
10.0
 16
0.0
 26
0.0
 36
1.0
 17
0.0
 27
0.0
 37
0.0
 40
341.0
 41
1.24
 42
50.0
 43
0.0
 44
0.0
 50
0.0
 51
0.0
 71
     0
 72
   100
 73
     1
 74
     3
 75
     0
 76
     0
 77
     0
 78
     0
  0
ENDTAB
  0
TABLE
  2
LTYPE
  5
5
330
0
100
AcDbSymbolTable
 70
     1
  0
LTYPE
  5
14
330
5
100
AcDbSymbolTableRecord
100
AcDbLinetypeTableRecord
  2
BYBLOCK
 70
     0
  3

 72
    65
 73
     0
 40
0.0
  0
LTYPE
  5
15
330
5
100
AcDbSymbolTableRecord
100
AcDbLinetypeTableRecord
  2
BYLAYER
 70
     0
  3

 72
    65
 73
     0
 40
0.0
  0
LTYPE
  5
16
330
5
100
AcDbSymbolTableRecord
100
AcDbLinetypeTableRecord
  2
CONTINUOUS
 70
     0
  3
Solid line
 72
    65
 73
     0
 40
0.0
  0
ENDTAB
  0
TABLE
  2
LAYER
  5
2
100
AcDbSymbolTable
 70
2
  0
LAYER
  5
50
100
AcDbSymbolTableRecord
100
AcDbLayerTableRecord
  2
0
 70
0
  6
CONTINUOUS
  0
LAYER
  5
51
100
AcDbSymbolTableRecord
100
AcDbLayerTableRecord
  2
Ebene_1
 70
0
  6
CONTINUOUS
  0
ENDTAB
  0
TABLE
  2
STYLE
  5
3
330
0
100
AcDbSymbolTable
 70
     1
  0
STYLE
  5
11
330
3
100
AcDbSymbolTableRecord
100
AcDbTextStyleTableRecord
  2
STANDARD
 70
     0
 40
0.0
 41
1.0
 50
0.0
 71
     0
 42
2.5
  3
txt
  4

  0
ENDTAB
  0
TABLE
  2
VIEW
  5
6
330
0
100
AcDbSymbolTable
 70
     0
  0
ENDTAB
  0
TABLE
  2
UCS
  5
7
330
0
100
AcDbSymbolTable
 70
     0
  0
ENDTAB
  0
TABLE
  2
APPID
  5
9
330
0
100
AcDbSymbolTable
 70
     2
  0
APPID
  5
12
330
9
100
AcDbSymbolTableRecord
100
AcDbRegAppTableRecord
  2
ACAD
 70
     0
  0
ENDTAB
  0
TABLE
  2
DIMSTYLE
  5
A
330
0
100
AcDbSymbolTable
 70
     1
  0
DIMSTYLE
105
27
330
A
100
AcDbSymbolTableRecord
100
AcDbDimStyleTableRecord
  2
ISO-25
 70
     0
  3

  4

  5

  6

  7

 40
1.0
 41
2.5
 42
0.625
 43
3.75
 44
1.25
 45
0.0
 46
0.0
 47
0.0
 48
0.0
140
2.5
141
2.5
142
0.0
143
0.03937007874016
144
1.0
145
0.0
146
1.0
147
0.625
 71
     0
 72
     0
 73
     0
 74
     0
 75
     0
 76
     0
 77
     1
 78
     8
170
     0
171
     3
172
     1
173
     0
174
     0
175
     0
176
     0
177
     0
178
     0
270
     2
271
     2
272
     2
273
     2
274
     3
340
11
275
     0
280
     0
281
     0
282
     0
283
     0
284
     8
285
     0
286
     0
287
     3
288
     0
  0
ENDTAB
  0
TABLE
  2
BLOCK_RECORD
  5
1
330
0
100
AcDbSymbolTable
 70
     1
  0
BLOCK_RECORD
  5
1F
330
1
100
AcDbSymbolTableRecord
100
AcDbBlockTableRecord
  2
*MODEL_SPACE
  0
BLOCK_RECORD
  5
1B
330
1
100
AcDbSymbolTableRecord
100
AcDbBlockTableRecord
  2
*PAPER_SPACE
  0
ENDTAB
  0
ENDSEC
  0
SECTION
  2
BLOCKS
  0
BLOCK
  5
20
330
1F
100
AcDbEntity
  8
0
100
AcDbBlockBegin
  2
*MODEL_SPACE
 70
     0
 10
0.0
 20
0.0
 30
0.0
  3
*MODEL_SPACE
  1

  0
ENDBLK
  5
21
330
1F
100
AcDbEntity
  8
0
100
AcDbBlockEnd
  0
BLOCK
  5
1C
330
1B
100
AcDbEntity
 67
     1
  8
0
100
AcDbBlockBegin
  2
*PAPER_SPACE
  1

  0
ENDBLK
  5
1D
330
1B
100
AcDbEntity
 67
     1
  8
0
100
AcDbBlockEnd
  0
ENDSEC
  0
SECTION
  2
ENTITIES
  0
SPLINE
  5
100
100
AcDbEntity
  8
Ebene_1
 62
7
100
AcDbSpline
 70
8
 71
3
 72
8
 73
4
 74
0
 40
0
 40
0
 40
0
 40
0
 40
1
 40
1
 40
1
 40
1
 10
250.800780
 20
405.890620
 30
0.0
 10
249.166050
 20
405.870260
 30
0.0
 10
247.525960
 20
405.819670
 30
0.0
 10
245.878910
 20
405.738280
 30
0.0
  0
SPLINE
  5
101
100
AcDbEntity
  8
Ebene_1
 62
7
100
AcDbSpline
 70
8
 71
3
 72
8
 73
4
 74
0
 40
0
 40
0
 40
0
 40
0
 40
1
 40
1
 40
1
 40
1
 10
245.878910
 20
405.738280
 30
0.0
 10
221.282867
 20
403.746079
 30
0.0
 10
197.446052
 20
396.266542
 30
0.0
 10
176.121090
 20
383.849610
 30
0.0
  0
SPLINE
  5
102
100
AcDbEntity
  8
Ebene_1
 62
7
100
AcDbSpline
 70
8
 71
3
 72
8
 73
4
 74
0
 40
0
 40
0
 40
0
 40
0
 40
1
 40
1
 40
1
 40
1
 10
176.121090
 20
383.849610
 30
0.0
 10
148.679974
 20
367.706045
 30
0.0
 10
127.240804
 20
343.067212
 30
0.0
 10
115.044920
 20
313.658200
 30
0.0
  0
SPLINE
  5
103
100
AcDbEntity
  8
Ebene_1
 62
7
100
AcDbSpline
 70
8
 71
3
 72
8
 73
4
 74
0
 40
0
 40
0
 40
0
 40
0
 40
1
 40
1
 40
1
 40
1
 10
115.044920
 20
313.658200
 30
0.0
 10
107.108020
 20
291.397680
 30
0.0
 10
98.178531
 20
266.780630
 30
0.0
 10
108.843750
 20
219.283200
 30
0.0
  0
SPLINE
  5
104
100
AcDbEntity
  8
Ebene_1
 62
7
100
AcDbSpline
 70
8
 71
3
 72
8
 73
4
 74
0
 40
0
 40
0
 40
0
 40
0
 40
1
 40
1
 40
1
 40
1
 10
108.843750
 20
219.283200
 30
0.0
 10
119.508970
 20
171.785790
 30
0.0
 10
149.149130
 20
137.556860
 30
0.0
 10
191.003910
 20
114.490230
 30
0.0
  0
SPLINE
  5
105
100
AcDbEntity
  8
Ebene_1
 62
7
100
AcDbSpline
 70
8
 71
3
 72
8
 73
4
 74
0
 40
0
 40
0
 40
0
 40
0
 40
1
 40
1
 40
1
 40
1
 10
191.003910
 20
114.490230
 30
0.0
 10
232.858670
 20
91.423610
 30
0.0
 10
281.532830
 20
97.003580
 30
0.0
 10
315.636720
 20
105.560550
 30
0.0
  0
SPLINE
  5
106
100
AcDbEntity
  8
Ebene_1
 62
7
100
AcDbSpline
 70
8
 71
3
 72
8
 73
4
 74
0
 40
0
 40
0
 40
0
 40
0
 40
1
 40
1
 40
1
 40
1
 10
315.636720
 20
105.560550
 30
0.0
 10
349.740600
 20
114.117520
 30
0.0
 10
372.746140
 20
130.363130
 30
0.0
 10
386.511720
 20
154.421880
 30
0.0
  0
SPLINE
  5
107
100
AcDbEntity
  8
Ebene_1
 62
7
100
AcDbSpline
 70
8
 71
3
 72
8
 73
4
 74
0
 40
0
 40
0
 40
0
 40
0
 40
1
 40
1
 40
1
 40
1
 10
386.511720
 20
154.421880
 30
0.0
 10
396.541040
 20
171.950600
 30
0.0
 10
400.508250
 20
194.929330
 30
0.0
 10
404.923830
 20
219.345700
 30
0.0
  0
SPLINE
  5
108
100
AcDbEntity
  8
Ebene_1
 62
7
100
AcDbSpline
 70
8
 71
3
 72
8
 73
4
 74
0
 40
0
 40
0
 40
0
 40
0
 40
1
 40
1
 40
1
 40
1
 10
409.058590
 20
240.669920
 30
0.0
 10
409.499340
 20
242.780920
 30
0.0
 10
409.906960
 20
244.886170
 30
0.0
 10
410.384770
 20
247.000000
 30
0.0
  0
SPLINE
  5
109
100
AcDbEntity
  8
Ebene_1
 62
7
100
AcDbSpline
 70
8
 71
3
 72
8
 73
4
 74
0
 40
0
 40
0
 40
0
 40
0
 40
1
 40
1
 40
1
 40
1
 10
410.384770
 20
247.000000
 30
0.0
 10
418.135650
 20
281.289910
 30
0.0
 10
410.383710
 20
300.697780
 30
0.0
 10
396.246090
 20
327.050780
 30
0.0
  0
LWPOLYLINE
  5
10a
100
AcDbEntity
  8
Ebene_1
 62
7
100
AcDbPolyline
 90
3
 70
0
 10
404.923830
 20
219.345700
 30
0.0
 10
405.058590
 20
219.359380
 30
0.0
 10
409.058590
 20
240.669920
 30
0.0
  0
SPLINE
  5
10b
100
AcDbEntity
  8
Ebene_1
 62
7
100
AcDbSpline
 70
8
 71
3
 72
8
 73
4
 74
0
 40
0
 40
0
 40
0
 40
0
 40
1
 40
1
 40
1
 40
1
 10
396.433590
 20
326.802730
 30
0.0
 10
382.233980
 20
353.155750
 30
0.0
 10
363.630300
 20
368.471420
 30
0.0
 10
330.146480
 20
384.531250
 30
0.0
  0
SPLINE
  5
10c
100
AcDbEntity
  8
Ebene_1
 62
7
100
AcDbSpline
 70
8
 71
3
 72
8
 73
4
 74
0
 40
0
 40
0
 40
0
 40
0
 40
1
 40
1
 40
1
 40
1
 10
330.146480
 20
384.531250
 30
0.0
 10
298.755410
 20
399.587330
 30
0.0
 10
275.321660
 20
406.196270
 30
0.0
 10
250.800780
 20
405.890620
 30
0.0
  0
LWPOLYLINE
  5
10d
100
AcDbEntity
  8
Ebene_1
 62
7
100
AcDbPolyline
 90
2
 70
0
 10
396.246090
 20
327.050780
 30
0.0
 10
396.433590
 20
326.802730
 30
0.0
  0
SPLINE
  5
10e
100
AcDbEntity
  8
Ebene_1
 62
7
100
AcDbSpline
 70
8
 71
3
 72
8
 73
4
 74
0
 40
0
 40
0
 40
0
 40
0
 40
1
 40
1
 40
1
 40
1
 10
245.691410
 20
396.669920
 30
0.0
 10
270.043950
 20
396.471550
 30
0.0
 10
301.220730
 20
387.763970
 30
0.0
 10
304.910160
 20
386.082030
 30
0.0
  0
SPLINE
  5
10f
100
AcDbEntity
  8
Ebene_1
 62
7
100
AcDbSpline
 70
8
 71
3
 72
8
 73
4
 74
0
 40
0
 40
0
 40
0
 40
0
 40
1
 40
1
 40
1
 40
1
 10
304.910160
 20
386.082030
 30
0.0
 10
309.126630
 20
384.159800
 30
0.0
 10
312.661510
 20
382.980870
 30
0.0
 10
311.111330
 20
381.802730
 30
0.0
  0
SPLINE
  5
110
100
AcDbEntity
  8
Ebene_1
 62
7
100
AcDbSpline
 70
8
 71
3
 72
8
 73
4
 74
0
 40
0
 40
0
 40
0
 40
0
 40
1
 40
1
 40
1
 40
1
 10
311.111330
 20
381.802730
 30
0.0
 10
309.561150
 20
380.624610
 30
0.0
 10
295.422970
 20
368.286560
 30
0.0
 10
290.400390
 20
367.480470
 30
0.0
  0
SPLINE
  5
111
100
AcDbEntity
  8
Ebene_1
 62
7
100
AcDbSpline
 70
8
 71
3
 72
8
 73
4
 74
0
 40
0
 40
0
 40
0
 40
0
 40
1
 40
1
 40
1
 40
1
 10
290.400390
 20
367.480470
 30
0.0
 10
285.377820
 20
366.674380
 30
0.0
 10
267.953600
 20
370.952590
 30
0.0
 10
254.746090
 20
370.394530
 30
0.0
  0
SPLINE
  5
112
100
AcDbEntity
  8
Ebene_1
 62
7
100
AcDbSpline
 70
8
 71
3
 72
8
 73
4
 74
0
 40
0
 40
0
 40
0
 40
0
 40
1
 40
1
 40
1
 40
1
 10
254.746090
 20
370.394530
 30
0.0
 10
241.538590
 20
369.836460
 30
0.0
 10
232.671890
 20
367.292970
 30
0.0
 10
226.285160
 20
367.292970
 30
0.0
  0
SPLINE
  5
113
100
AcDbEntity
  8
Ebene_1
 62
7
100
AcDbSpline
 70
8
 71
3
 72
8
 73
4
 74
0
 40
0
 40
0
 40
0
 40
0
 40
1
 40
1
 40
1
 40
1
 10
226.285160
 20
367.292970
 30
0.0
 10
219.898420
 20
367.292970
 30
0.0
 10
210.782750
 20
374.299350
 30
0.0
 10
204.582030
 20
374.857420
 30
0.0
  0
SPLINE
  5
114
100
AcDbEntity
  8
Ebene_1
 62
7
100
AcDbSpline
 70
8
 71
3
 72
8
 73
4
 74
0
 40
0
 40
0
 40
0
 40
0
 40
1
 40
1
 40
1
 40
1
 10
204.582030
 20
374.857420
 30
0.0
 10
198.381330
 20
375.415480
 30
0.0
 10
184.802460
 20
378.764270
 30
0.0
 10
187.716800
 20
380.314450
 30
0.0
  0
LWPOLYLINE
  5
115
100
AcDbEntity
  8
Ebene_1
 62
7
100
AcDbPolyline
 90
1
 70
1
 10
250.800780
 20
405.890620
 30
0.0
  0
SPLINE
  5
116
100
AcDbEntity
  8
Ebene_1
 62
7
100
AcDbSpline
 70
8
 71
3
 72
8
 73
4
 74
0
 40
0
 40
0
 40
0
 40
0
 40
1
 40
1
 40
1
 40
1
 10
188.087890
 20
380.066410
 30
0.0
 10
202.892725
 20
388.243662
 30
0.0
 10
219.042047
 20
393.704161
 30
0.0
 10
235.771480
 20
396.189450
 30
0.0
  0
SPLINE
  5
117
100
AcDbEntity
  8
Ebene_1
 62
7
100
AcDbSpline
 70
8
 71
3
 72
8
 73
4
 74
0
 40
0
 40
0
 40
0
 40
0
 40
1
 40
1
 40
1
 40
1
 10
235.771480
 20
396.189450
 30
0.0
 10
238.871840
 20
396.553750
 30
0.0
 10
242.212470
 20
396.698260
 30
0.0
 10
245.691410
 20
396.669920
 30
0.0
  0
LWPOLYLINE
  5
118
100
AcDbEntity
  8
Ebene_1
 62
7
100
AcDbPolyline
 90
2
 70
0
 10
187.716800
 20
380.314450
 30
0.0
 10
188.087890
 20
380.066410
 30
0.0
  0
SPLINE
  5
119
100
AcDbEntity
  8
Ebene_1
 62
7
100
AcDbSpline
 70
8
 71
3
 72
8
 73
4
 74
0
 40
0
 40
0
 40
0
 40
0
 40
1
 40
1
 40
1
 40
1
 10
321.031250
 20
375.292970
 30
0.0
 10
323.759570
 20
374.920920
 30
0.0
 10
348.377410
 20
360.349010
 30
0.0
 10
347.943360
 20
358.798830
 30
0.0
  0
SPLINE
  5
11a
100
AcDbEntity
  8
Ebene_1
 62
7
100
AcDbSpline
 70
8
 71
3
 72
8
 73
4
 74
0
 40
0
 40
0
 40
0
 40
0
 40
1
 40
1
 40
1
 40
1
 10
347.943360
 20
358.798830
 30
0.0
 10
345.259494
 20
354.845357
 30
0.0
 10
341.609407
 20
351.643717
 30
0.0
 10
337.339840
 20
349.498050
 30
0.0
  0
SPLINE
  5
11b
100
AcDbEntity
  8
Ebene_1
 62
7
100
AcDbSpline
 70
8
 71
3
 72
8
 73
4
 74
0
 40
0
 40
0
 40
0
 40
0
 40
1
 40
1
 40
1
 40
1
 10
337.339840
 20
349.498050
 30
0.0
 10
336.842629
 20
349.104540
 30
0.0
 10
336.353595
 20
348.700808
 30
0.0
 10
335.873050
 20
348.287110
 30
0.0
  0
SPLINE
  5
11c
100
AcDbEntity
  8
Ebene_1
 62
7
100
AcDbSpline
 70
8
 71
3
 72
8
 73
4
 74
0
 40
0
 40
0
 40
0
 40
0
 40
1
 40
1
 40
1
 40
1
 10
335.873050
 20
348.287110
 30
0.0
 10
338.099470
 20
348.144380
 30
0.0
 10
340.305650
 20
347.727300
 30
0.0
 10
342.492190
 20
347.281250
 30
0.0
  0
SPLINE
  5
11d
100
AcDbEntity
  8
Ebene_1
 62
7
100
AcDbSpline
 70
8
 71
3
 72
8
 73
4
 74
0
 40
0
 40
0
 40
0
 40
0
 40
1
 40
1
 40
1
 40
1
 10
342.492190
 20
347.281250
 30
0.0
 10
343.751210
 20
347.024420
 30
0.0
 10
345.011410
 20
346.756220
 30
0.0
 10
346.259770
 20
346.443360
 30
0.0
  0
SPLINE
  5
11e
100
AcDbEntity
  8
Ebene_1
 62
7
100
AcDbSpline
 70
8
 71
3
 72
8
 73
4
 74
0
 40
0
 40
0
 40
0
 40
0
 40
1
 40
1
 40
1
 40
1
 10
346.259770
 20
346.443360
 30
0.0
 10
347.319670
 20
347.208890
 30
0.0
 10
348.241020
 20
347.899990
 30
0.0
 10
348.935550
 20
348.505860
 30
0.0
  0
SPLINE
  5
11f
100
AcDbEntity
  8
Ebene_1
 62
7
100
AcDbSpline
 70
8
 71
3
 72
8
 73
4
 74
0
 40
0
 40
0
 40
0
 40
0
 40
1
 40
1
 40
1
 40
1
 10
348.935550
 20
348.505860
 30
0.0
 10
351.849870
 20
351.048150
 30
0.0
 10
353.586070
 20
355.512740
 30
0.0
 10
355.322270
 20
356.132810
 30
0.0
  0
LWPOLYLINE
  5
120
100
AcDbEntity
  8
Ebene_1
 62
7
100
AcDbPolyline
 90
1
 70
1
 10
245.691410
 20
396.669920
 30
0.0
  0
SPLINE
  5
121
100
AcDbEntity
  8
Ebene_1
 62
7
100
AcDbSpline
 70
8
 71
3
 72
8
 73
4
 74
0
 40
0
 40
0
 40
0
 40
0
 40
1
 40
1
 40
1
 40
1
 10
355.507810
 20
355.884770
 30
0.0
 10
356.809960
 20
356.318820
 30
0.0
 10
373.738680
 20
349.250300
 30
0.0
 10
385.333980
 20
327.175780
 30
0.0
  0
SPLINE
  5
122
100
AcDbEntity
  8
Ebene_1
 62
7
100
AcDbSpline
 70
8
 71
3
 72
8
 73
4
 74
0
 40
0
 40
0
 40
0
 40
0
 40
1
 40
1
 40
1
 40
1
 10
385.333980
 20
327.175780
 30
0.0
 10
396.929310
 20
305.101260
 30
0.0
 10
400.649300
 20
277.941230
 30
0.0
 10
399.285160
 20
275.460940
 30
0.0
  0
SPLINE
  5
123
100
AcDbEntity
  8
Ebene_1
 62
7
100
AcDbSpline
 70
8
 71
3
 72
8
 73
4
 74
0
 40
0
 40
0
 40
0
 40
0
 40
1
 40
1
 40
1
 40
1
 10
399.285160
 20
275.460940
 30
0.0
 10
397.963380
 20
273.057710
 30
0.0
 10
393.964840
 20
272.781030
 30
0.0
 10
390.164060
 20
273.835940
 30
0.0
  0
SPLINE
  5
124
100
AcDbEntity
  8
Ebene_1
 62
7
100
AcDbSpline
 70
8
 71
3
 72
8
 73
4
 74
0
 40
0
 40
0
 40
0
 40
0
 40
1
 40
1
 40
1
 40
1
 10
390.164060
 20
273.835940
 30
0.0
 10
390.013380
 20
271.377490
 30
0.0
 10
389.743730
 20
268.922470
 30
0.0
 10
389.437500
 20
266.478520
 30
0.0
  0
SPLINE
  5
125
100
AcDbEntity
  8
Ebene_1
 62
7
100
AcDbSpline
 70
8
 71
3
 72
8
 73
4
 74
0
 40
0
 40
0
 40
0
 40
0
 40
1
 40
1
 40
1
 40
1
 10
389.437500
 20
266.478520
 30
0.0
 10
389.410890
 20
266.266130
 30
0.0
 10
389.369710
 20
266.055950
 30
0.0
 10
389.341800
 20
265.843750
 30
0.0
  0
SPLINE
  5
126
100
AcDbEntity
  8
Ebene_1
 62
7
100
AcDbSpline
 70
8
 71
3
 72
8
 73
4
 74
0
 40
0
 40
0
 40
0
 40
0
 40
1
 40
1
 40
1
 40
1
 10
389.341800
 20
265.843750
 30
0.0
 10
395.502860
 20
266.288460
 30
0.0
 10
400.249820
 20
267.018890
 30
0.0
 10
400.648440
 20
265.601560
 30
0.0
  0
SPLINE
  5
127
100
AcDbEntity
  8
Ebene_1
 62
7
100
AcDbSpline
 70
8
 71
3
 72
8
 73
4
 74
0
 40
0
 40
0
 40
0
 40
0
 40
1
 40
1
 40
1
 40
1
 10
400.648440
 20
265.601560
 30
0.0
 10
401.284027
 20
262.637516
 30
0.0
 10
401.025727
 20
259.551523
 30
0.0
 10
399.906250
 20
256.734380
 30
0.0
  0
SPLINE
  5
128
100
AcDbEntity
  8
Ebene_1
 62
7
100
AcDbSpline
 70
8
 71
3
 72
8
 73
4
 74
0
 40
0
 40
0
 40
0
 40
0
 40
1
 40
1
 40
1
 40
1
 10
399.906250
 20
256.734380
 30
0.0
 10
399.527150
 20
256.497440
 30
0.0
 10
394.029480
 20
255.755600
 30
0.0
 10
387.544920
 20
254.947270
 30
0.0
  0
SPLINE
  5
129
100
AcDbEntity
  8
Ebene_1
 62
7
100
AcDbSpline
 70
8
 71
3
 72
8
 73
4
 74
0
 40
0
 40
0
 40
0
 40
0
 40
1
 40
1
 40
1
 40
1
 10
387.544920
 20
254.947270
 30
0.0
 10
387.476790
 20
254.573880
 30
0.0
 10
387.411540
 20
254.199550
 30
0.0
 10
387.343750
 20
253.826170
 30
0.0
  0
SPLINE
  5
12a
100
AcDbEntity
  8
Ebene_1
 62
7
100
AcDbSpline
 70
8
 71
3
 72
8
 73
4
 74
0
 40
0
 40
0
 40
0
 40
0
 40
1
 40
1
 40
1
 40
1
 10
387.343750
 20
253.826170
 30
0.0
 10
386.861700
 20
251.171180
 30
0.0
 10
385.773440
 20
245.884770
 30
0.0
 10
385.773440
 20
245.884770
 30
0.0
  0
SPLINE
  5
12b
100
AcDbEntity
  8
Ebene_1
 62
7
100
AcDbSpline
 70
8
 71
3
 72
8
 73
4
 74
0
 40
0
 40
0
 40
0
 40
0
 40
1
 40
1
 40
1
 40
1
 10
385.773440
 20
245.884770
 30
0.0
 10
385.773440
 20
245.884770
 30
0.0
 10
392.000990
 20
245.449990
 30
0.0
 10
395.109380
 20
245.623050
 30
0.0
  0
SPLINE
  5
12c
100
AcDbEntity
  8
Ebene_1
 62
7
100
AcDbSpline
 70
8
 71
3
 72
8
 73
4
 74
0
 40
0
 40
0
 40
0
 40
0
 40
1
 40
1
 40
1
 40
1
 10
395.109380
 20
245.623050
 30
0.0
 10
396.290190
 20
245.688790
 30
0.0
 10
397.456470
 20
245.910680
 30
0.0
 10
398.623050
 20
246.115230
 30
0.0
  0
LWPOLYLINE
  5
12d
100
AcDbEntity
  8
Ebene_1
 62
7
100
AcDbPolyline
 90
2
 70
0
 10
355.322270
 20
356.132810
 30
0.0
 10
355.507810
 20
355.884770
 30
0.0
  0
SPLINE
  5
12e
100
AcDbEntity
  8
Ebene_1
 62
7
100
AcDbSpline
 70
8
 71
3
 72
8
 73
4
 74
0
 40
0
 40
0
 40
0
 40
0
 40
1
 40
1
 40
1
 40
1
 10
394.947270
 20
220.238280
 30
0.0
 10
394.914720
 20
220.229730
 30
0.0
 10
394.884130
 20
220.215530
 30
0.0
 10
394.851560
 20
220.207030
 30
0.0
  0
SPLINE
  5
12f
100
AcDbEntity
  8
Ebene_1
 62
7
100
AcDbSpline
 70
8
 71
3
 72
8
 73
4
 74
0
 40
0
 40
0
 40
0
 40
0
 40
1
 40
1
 40
1
 40
1
 10
394.851560
 20
220.207030
 30
0.0
 10
392.267420
 20
205.452900
 30
0.0
 10
388.405080
 20
187.132740
 30
0.0
 10
383.597660
 20
174.947270
 30
0.0
  0
SPLINE
  5
130
100
AcDbEntity
  8
Ebene_1
 62
7
100
AcDbSpline
 70
8
 71
3
 72
8
 73
4
 74
0
 40
0
 40
0
 40
0
 40
0
 40
1
 40
1
 40
1
 40
1
 10
383.597660
 20
174.947270
 30
0.0
 10
376.601599
 20
157.368554
 30
0.0
 10
364.698307
 20
142.172314
 30
0.0
 10
349.306640
 20
131.169920
 30
0.0
  0
SPLINE
  5
131
100
AcDbEntity
  8
Ebene_1
 62
7
100
AcDbSpline
 70
8
 71
3
 72
8
 73
4
 74
0
 40
0
 40
0
 40
0
 40
0
 40
1
 40
1
 40
1
 40
1
 10
349.306640
 20
131.169920
 30
0.0
 10
342.175830
 20
127.077470
 30
0.0
 10
334.798300
 20
125.526950
 30
0.0
 10
334.240230
 20
126.705080
 30
0.0
  0
SPLINE
  5
132
100
AcDbEntity
  8
Ebene_1
 62
7
100
AcDbSpline
 70
8
 71
3
 72
8
 73
4
 74
0
 40
0
 40
0
 40
0
 40
0
 40
1
 40
1
 40
1
 40
1
 10
334.240230
 20
126.705080
 30
0.0
 10
327.774482
 20
138.144309
 30
0.0
 10
323.009610
 20
150.464418
 30
0.0
 10
320.095700
 20
163.277340
 30
0.0
  0
SPLINE
  5
133
100
AcDbEntity
  8
Ebene_1
 62
7
100
AcDbSpline
 70
8
 71
3
 72
8
 73
4
 74
0
 40
0
 40
0
 40
0
 40
0
 40
1
 40
1
 40
1
 40
1
 10
320.095700
 20
163.277340
 30
0.0
 10
317.456910
 20
161.494630
 30
0.0
 10
314.842750
 20
159.672410
 30
0.0
 10
312.125000
 20
158.013670
 30
0.0
  0
SPLINE
  5
134
100
AcDbEntity
  8
Ebene_1
 62
7
100
AcDbSpline
 70
8
 71
3
 72
8
 73
4
 74
0
 40
0
 40
0
 40
0
 40
0
 40
1
 40
1
 40
1
 40
1
 10
312.125000
 20
158.013670
 30
0.0
 10
311.647110
 20
157.722000
 30
0.0
 10
311.155930
 20
157.452110
 30
0.0
 10
310.675780
 20
157.164060
 30
0.0
  0
SPLINE
  5
135
100
AcDbEntity
  8
Ebene_1
 62
7
100
AcDbSpline
 70
8
 71
3
 72
8
 73
4
 74
0
 40
0
 40
0
 40
0
 40
0
 40
1
 40
1
 40
1
 40
1
 10
310.675780
 20
157.164060
 30
0.0
 10
312.406810
 20
150.971310
 30
0.0
 10
314.281480
 20
145.148370
 30
0.0
 10
316.072270
 20
141.773440
 30
0.0
  0
SPLINE
  5
136
100
AcDbEntity
  8
Ebene_1
 62
7
100
AcDbSpline
 70
8
 71
3
 72
8
 73
4
 74
0
 40
0
 40
0
 40
0
 40
0
 40
1
 40
1
 40
1
 40
1
 10
316.072270
 20
141.773440
 30
0.0
 10
320.908820
 20
132.658410
 30
0.0
 10
327.667300
 20
122.240590
 30
0.0
 10
325.373050
 20
120.318360
 30
0.0
  0
SPLINE
  5
137
100
AcDbEntity
  8
Ebene_1
 62
7
100
AcDbSpline
 70
8
 71
3
 72
8
 73
4
 74
0
 40
0
 40
0
 40
0
 40
0
 40
1
 40
1
 40
1
 40
1
 10
325.373050
 20
120.318360
 30
0.0
 10
313.532570
 20
115.251745
 30
0.0
 10
300.984965
 20
112.031353
 30
0.0
 10
288.167970
 20
110.769530
 30
0.0
  0
SPLINE
  5
138
100
AcDbEntity
  8
Ebene_1
 62
7
100
AcDbSpline
 70
8
 71
3
 72
8
 73
4
 74
0
 40
0
 40
0
 40
0
 40
0
 40
1
 40
1
 40
1
 40
1
 10
288.167970
 20
110.769530
 30
0.0
 10
276.266325
 20
109.303566
 30
0.0
 10
264.229765
 20
109.303566
 30
0.0
 10
252.328120
 20
110.769530
 30
0.0
  0
SPLINE
  5
139
100
AcDbEntity
  8
Ebene_1
 62
7
100
AcDbSpline
 70
8
 71
3
 72
8
 73
4
 74
0
 40
0
 40
0
 40
0
 40
0
 40
1
 40
1
 40
1
 40
1
 10
252.328120
 20
110.769530
 30
0.0
 10
252.328120
 20
110.769530
 30
0.0
 10
249.942180
 20
122.953310
 30
0.0
 10
247.542970
 20
134.089840
 30
0.0
  0
SPLINE
  5
13a
100
AcDbEntity
  8
Ebene_1
 62
7
100
AcDbSpline
 70
8
 71
3
 72
8
 73
4
 74
0
 40
0
 40
0
 40
0
 40
0
 40
1
 40
1
 40
1
 40
1
 10
247.542970
 20
134.089840
 30
0.0
 10
243.842350
 20
133.800940
 30
0.0
 10
240.132330
 20
133.579320
 30
0.0
 10
236.419920
 20
133.525390
 30
0.0
  0
SPLINE
  5
13b
100
AcDbEntity
  8
Ebene_1
 62
7
100
AcDbSpline
 70
8
 71
3
 72
8
 73
4
 74
0
 40
0
 40
0
 40
0
 40
0
 40
1
 40
1
 40
1
 40
1
 10
236.419920
 20
133.525390
 30
0.0
 10
236.546266
 20
132.990857
 30
0.0
 10
236.660877
 20
132.453618
 30
0.0
 10
236.763670
 20
131.914060
 30
0.0
  0
SPLINE
  5
13c
100
AcDbEntity
  8
Ebene_1
 62
7
100
AcDbSpline
 70
8
 71
3
 72
8
 73
4
 74
0
 40
0
 40
0
 40
0
 40
0
 40
1
 40
1
 40
1
 40
1
 10
236.763670
 20
131.914060
 30
0.0
 10
236.689670
 20
131.914060
 30
0.0
 10
235.402580
 20
132.918850
 30
0.0
 10
234.623050
 20
133.503910
 30
0.0
  0
SPLINE
  5
13d
100
AcDbEntity
  8
Ebene_1
 62
7
100
AcDbSpline
 70
8
 71
3
 72
8
 73
4
 74
0
 40
0
 40
0
 40
0
 40
0
 40
1
 40
1
 40
1
 40
1
 10
234.623050
 20
133.503910
 30
0.0
 10
232.531900
 20
133.503990
 30
0.0
 10
230.441490
 20
133.541680
 30
0.0
 10
228.355470
 20
133.667970
 30
0.0
  0
SPLINE
  5
13e
100
AcDbEntity
  8
Ebene_1
 62
7
100
AcDbSpline
 70
8
 71
3
 72
8
 73
4
 74
0
 40
0
 40
0
 40
0
 40
0
 40
1
 40
1
 40
1
 40
1
 10
228.355470
 20
133.667970
 30
0.0
 10
227.203280
 20
133.737720
 30
0.0
 10
226.059220
 20
133.917520
 30
0.0
 10
224.910160
 20
134.037110
 30
0.0
  0
SPLINE
  5
13f
100
AcDbEntity
  8
Ebene_1
 62
7
100
AcDbSpline
 70
8
 71
3
 72
8
 73
4
 74
0
 40
0
 40
0
 40
0
 40
0
 40
1
 40
1
 40
1
 40
1
 10
224.910160
 20
134.037110
 30
0.0
 10
231.497830
 20
129.248710
 30
0.0
 10
237.881460
 20
124.512660
 30
0.0
 10
238.314450
 20
123.791020
 30
0.0
  0
SPLINE
  5
140
100
AcDbEntity
  8
Ebene_1
 62
7
100
AcDbSpline
 70
8
 71
3
 72
8
 73
4
 74
0
 40
0
 40
0
 40
0
 40
0
 40
1
 40
1
 40
1
 40
1
 10
238.314450
 20
123.791020
 30
0.0
 10
239.634041
 20
120.099637
 30
0.0
 10
240.407184
 20
116.235249
 30
0.0
 10
240.609380
 20
112.320310
 30
0.0
  0
SPLINE
  5
141
100
AcDbEntity
  8
Ebene_1
 62
7
100
AcDbSpline
 70
8
 71
3
 72
8
 73
4
 74
0
 40
0
 40
0
 40
0
 40
0
 40
1
 40
1
 40
1
 40
1
 10
240.609380
 20
112.320310
 30
0.0
 10
233.087786
 20
113.777389
 30
0.0
 10
225.655198
 20
115.661294
 30
0.0
 10
218.347660
 20
117.962890
 30
0.0
  0
SPLINE
  5
142
100
AcDbEntity
  8
Ebene_1
 62
7
100
AcDbSpline
 70
8
 71
3
 72
8
 73
4
 74
0
 40
0
 40
0
 40
0
 40
0
 40
1
 40
1
 40
1
 40
1
 10
218.347660
 20
117.962890
 30
0.0
 10
210.596760
 20
120.877230
 30
0.0
 10
203.777340
 20
122.426320
 30
0.0
 10
203.777340
 20
122.984380
 30
0.0
  0
SPLINE
  5
143
100
AcDbEntity
  8
Ebene_1
 62
7
100
AcDbSpline
 70
8
 71
3
 72
8
 73
4
 74
0
 40
0
 40
0
 40
0
 40
0
 40
1
 40
1
 40
1
 40
1
 10
203.777340
 20
122.984380
 30
0.0
 10
203.777340
 20
123.327040
 30
0.0
 10
201.093270
 20
132.023480
 30
0.0
 10
196.681640
 20
140.976560
 30
0.0
  0
SPLINE
  5
144
100
AcDbEntity
  8
Ebene_1
 62
7
100
AcDbSpline
 70
8
 71
3
 72
8
 73
4
 74
0
 40
0
 40
0
 40
0
 40
0
 40
1
 40
1
 40
1
 40
1
 10
196.681640
 20
140.976560
 30
0.0
 10
192.923200
 20
142.493900
 30
0.0
 10
189.172340
 20
144.167070
 30
0.0
 10
185.859380
 20
146.496090
 30
0.0
  0
SPLINE
  5
145
100
AcDbEntity
  8
Ebene_1
 62
7
100
AcDbSpline
 70
8
 71
3
 72
8
 73
4
 74
0
 40
0
 40
0
 40
0
 40
0
 40
1
 40
1
 40
1
 40
1
 10
185.859380
 20
146.496090
 30
0.0
 10
180.203650
 20
150.472110
 30
0.0
 10
175.549570
 20
155.729640
 30
0.0
 10
170.763670
 20
160.718750
 30
0.0
  0
SPLINE
  5
146
100
AcDbEntity
  8
Ebene_1
 62
7
100
AcDbSpline
 70
8
 71
3
 72
8
 73
4
 74
0
 40
0
 40
0
 40
0
 40
0
 40
1
 40
1
 40
1
 40
1
 10
170.763670
 20
160.718750
 30
0.0
 10
166.766780
 20
164.885380
 30
0.0
 10
162.753590
 20
169.094510
 30
0.0
 10
159.419920
 20
173.808590
 30
0.0
  0
SPLINE
  5
147
100
AcDbEntity
  8
Ebene_1
 62
7
100
AcDbSpline
 70
8
 71
3
 72
8
 73
4
 74
0
 40
0
 40
0
 40
0
 40
0
 40
1
 40
1
 40
1
 40
1
 10
159.419920
 20
173.808590
 30
0.0
 10
159.154610
 20
174.183760
 30
0.0
 10
158.946490
 20
174.596700
 30
0.0
 10
158.697270
 20
174.982420
 30
0.0
  0
SPLINE
  5
148
100
AcDbEntity
  8
Ebene_1
 62
7
100
AcDbSpline
 70
8
 71
3
 72
8
 73
4
 74
0
 40
0
 40
0
 40
0
 40
0
 40
1
 40
1
 40
1
 40
1
 10
158.697270
 20
174.982420
 30
0.0
 10
159.223200
 20
169.634240
 30
0.0
 10
160.208110
 20
164.969220
 30
0.0
 10
162.107420
 20
163.289060
 30
0.0
  0
SPLINE
  5
149
100
AcDbEntity
  8
Ebene_1
 62
7
100
AcDbSpline
 70
8
 71
3
 72
8
 73
4
 74
0
 40
0
 40
0
 40
0
 40
0
 40
1
 40
1
 40
1
 40
1
 10
162.107420
 20
163.289060
 30
0.0
 10
169.819636
 20
157.931921
 30
0.0
 10
176.308073
 20
151.000139
 30
0.0
 10
181.144530
 20
142.951170
 30
0.0
  0
SPLINE
  5
14a
100
AcDbEntity
  8
Ebene_1
 62
7
100
AcDbSpline
 70
8
 71
3
 72
8
 73
4
 74
0
 40
0
 40
0
 40
0
 40
0
 40
1
 40
1
 40
1
 40
1
 10
181.144530
 20
142.951170
 30
0.0
 10
183.952313
 20
138.801030
 30
0.0
 10
186.047521
 20
134.211245
 30
0.0
 10
187.343750
 20
129.371090
 30
0.0
  0
SPLINE
  5
14b
100
AcDbEntity
  8
Ebene_1
 62
7
100
AcDbSpline
 70
8
 71
3
 72
8
 73
4
 74
0
 40
0
 40
0
 40
0
 40
0
 40
1
 40
1
 40
1
 40
1
 10
187.343750
 20
129.371090
 30
0.0
 10
172.885621
 20
138.130866
 30
0.0
 10
160.355440
 20
149.733476
 30
0.0
 10
150.511720
 20
163.476560
 30
0.0
  0
SPLINE
  5
14c
100
AcDbEntity
  8
Ebene_1
 62
7
100
AcDbSpline
 70
8
 71
3
 72
8
 73
4
 74
0
 40
0
 40
0
 40
0
 40
0
 40
1
 40
1
 40
1
 40
1
 10
150.511720
 20
163.476560
 30
0.0
 10
130.731460
 20
189.085490
 30
0.0
 10
124.964920
 20
211.159760
 30
0.0
 10
125.708980
 20
212.337890
 30
0.0
  0
SPLINE
  5
14d
100
AcDbEntity
  8
Ebene_1
 62
7
100
AcDbSpline
 70
8
 71
3
 72
8
 73
4
 74
0
 40
0
 40
0
 40
0
 40
0
 40
1
 40
1
 40
1
 40
1
 10
125.708980
 20
212.337890
 30
0.0
 10
126.638150
 20
214.147310
 30
0.0
 10
135.866870
 20
212.137400
 30
0.0
 10
143.208980
 20
209.869140
 30
0.0
  0
SPLINE
  5
14e
100
AcDbEntity
  8
Ebene_1
 62
7
100
AcDbSpline
 70
8
 71
3
 72
8
 73
4
 74
0
 40
0
 40
0
 40
0
 40
0
 40
1
 40
1
 40
1
 40
1
 10
143.208980
 20
209.869140
 30
0.0
 10
142.506850
 20
212.999000
 30
0.0
 10
141.984250
 20
216.168480
 30
0.0
 10
141.515620
 20
219.349610
 30
0.0
  0
SPLINE
  5
14f
100
AcDbEntity
  8
Ebene_1
 62
7
100
AcDbSpline
 70
8
 71
3
 72
8
 73
4
 74
0
 40
0
 40
0
 40
0
 40
0
 40
1
 40
1
 40
1
 40
1
 10
141.515620
 20
219.349610
 30
0.0
 10
133.197790
 20
220.384580
 30
0.0
 10
123.389820
 20
222.489290
 30
0.0
 10
119.880860
 20
226.103520
 30
0.0
  0
SPLINE
  5
150
100
AcDbEntity
  8
Ebene_1
 62
7
100
AcDbSpline
 70
8
 71
3
 72
8
 73
4
 74
0
 40
0
 40
0
 40
0
 40
0
 40
1
 40
1
 40
1
 40
1
 10
119.880860
 20
226.103520
 30
0.0
 10
114.082214
 20
245.592901
 30
0.0
 10
113.824545
 20
266.311891
 30
0.0
 10
119.136720
 20
285.939450
 30
0.0
  0
SPLINE
  5
151
100
AcDbEntity
  8
Ebene_1
 62
7
100
AcDbSpline
 70
8
 71
3
 72
8
 73
4
 74
0
 40
0
 40
0
 40
0
 40
0
 40
1
 40
1
 40
1
 40
1
 10
119.136720
 20
285.939450
 30
0.0
 10
127.631690
 20
321.221490
 30
0.0
 10
143.940530
 20
340.010240
 30
0.0
 10
145.304690
 20
339.824220
 30
0.0
  0
SPLINE
  5
152
100
AcDbEntity
  8
Ebene_1
 62
7
100
AcDbSpline
 70
8
 71
3
 72
8
 73
4
 74
0
 40
0
 40
0
 40
0
 40
0
 40
1
 40
1
 40
1
 40
1
 10
145.304690
 20
339.824220
 30
0.0
 10
145.993010
 20
339.730360
 30
0.0
 10
154.516460
 20
334.992740
 30
0.0
 10
164.460940
 20
329.527340
 30
0.0
  0
SPLINE
  5
153
100
AcDbEntity
  8
Ebene_1
 62
7
100
AcDbSpline
 70
8
 71
3
 72
8
 73
4
 74
0
 40
0
 40
0
 40
0
 40
0
 40
1
 40
1
 40
1
 40
1
 10
164.460940
 20
329.527340
 30
0.0
 10
165.639630
 20
331.584930
 30
0.0
 10
166.928210
 20
333.557770
 30
0.0
 10
168.582030
 20
335.240230
 30
0.0
  0
SPLINE
  5
154
100
AcDbEntity
  8
Ebene_1
 62
7
100
AcDbSpline
 70
8
 71
3
 72
8
 73
4
 74
0
 40
0
 40
0
 40
0
 40
0
 40
1
 40
1
 40
1
 40
1
 10
168.582030
 20
335.240230
 30
0.0
 10
168.754570
 20
335.415760
 30
0.0
 10
168.954380
 20
335.565960
 30
0.0
 10
169.132810
 20
335.736330
 30
0.0
  0
SPLINE
  5
155
100
AcDbEntity
  8
Ebene_1
 62
7
100
AcDbSpline
 70
8
 71
3
 72
8
 73
4
 74
0
 40
0
 40
0
 40
0
 40
0
 40
1
 40
1
 40
1
 40
1
 10
169.132810
 20
335.736330
 30
0.0
 10
159.131290
 20
341.006790
 30
0.0
 10
150.939290
 20
345.206930
 30
0.0
 10
152.062500
 20
348.753910
 30
0.0
  0
SPLINE
  5
156
100
AcDbEntity
  8
Ebene_1
 62
7
100
AcDbSpline
 70
8
 71
3
 72
8
 73
4
 74
0
 40
0
 40
0
 40
0
 40
0
 40
1
 40
1
 40
1
 40
1
 10
152.062500
 20
348.753910
 30
0.0
 10
158.257271
 20
357.610481
 30
0.0
 10
166.242708
 20
365.067592
 30
0.0
 10
175.501950
 20
370.642580
 30
0.0
  0
SPLINE
  5
157
100
AcDbEntity
  8
Ebene_1
 62
7
100
AcDbSpline
 70
8
 71
3
 72
8
 73
4
 74
0
 40
0
 40
0
 40
0
 40
0
 40
1
 40
1
 40
1
 40
1
 10
175.501950
 20
370.642580
 30
0.0
 10
184.065327
 20
373.152866
 30
0.0
 10
193.255101
 20
372.401372
 30
0.0
 10
201.296880
 20
368.533200
 30
0.0
  0
SPLINE
  5
158
100
AcDbEntity
  8
Ebene_1
 62
7
100
AcDbSpline
 70
8
 71
3
 72
8
 73
4
 74
0
 40
0
 40
0
 40
0
 40
0
 40
1
 40
1
 40
1
 40
1
 10
201.296880
 20
368.533200
 30
0.0
 10
211.342010
 20
363.076590
 30
0.0
 10
210.226120
 20
360.782730
 30
0.0
 10
223.929690
 20
360.968750
 30
0.0
  0
SPLINE
  5
159
100
AcDbEntity
  8
Ebene_1
 62
7
100
AcDbSpline
 70
8
 71
3
 72
8
 73
4
 74
0
 40
0
 40
0
 40
0
 40
0
 40
1
 40
1
 40
1
 40
1
 10
223.929690
 20
360.968750
 30
0.0
 10
237.633240
 20
361.154770
 30
0.0
 10
244.328910
 20
363.449640
 30
0.0
 10
248.359380
 20
362.519530
 30
0.0
  0
SPLINE
  5
15a
100
AcDbEntity
  8
Ebene_1
 62
7
100
AcDbSpline
 70
8
 71
3
 72
8
 73
4
 74
0
 40
0
 40
0
 40
0
 40
0
 40
1
 40
1
 40
1
 40
1
 10
248.359380
 20
362.519530
 30
0.0
 10
252.389820
 20
361.589430
 30
0.0
 10
269.505030
 20
354.148160
 30
0.0
 10
284.634770
 20
357.062500
 30
0.0
  0
SPLINE
  5
15b
100
AcDbEntity
  8
Ebene_1
 62
7
100
AcDbSpline
 70
8
 71
3
 72
8
 73
4
 74
0
 40
0
 40
0
 40
0
 40
0
 40
1
 40
1
 40
1
 40
1
 10
284.634770
 20
357.062500
 30
0.0
 10
294.182188
 20
358.646443
 30
0.0
 10
303.251827
 20
362.354929
 30
0.0
 10
311.173830
 20
367.914060
 30
0.0
  0
SPLINE
  5
15c
100
AcDbEntity
  8
Ebene_1
 62
7
100
AcDbSpline
 70
8
 71
3
 72
8
 73
4
 74
0
 40
0
 40
0
 40
0
 40
0
 40
1
 40
1
 40
1
 40
1
 10
311.173830
 20
367.914060
 30
0.0
 10
315.638320
 20
370.828400
 30
0.0
 10
318.302930
 20
375.665010
 30
0.0
 10
321.031250
 20
375.292970
 30
0.0
  0
LWPOLYLINE
  5
15d
100
AcDbEntity
  8
Ebene_1
 62
7
100
AcDbPolyline
 90
2
 70
0
 10
398.623050
 20
246.115230
 30
0.0
 10
394.947270
 20
220.238280
 30
0.0
  0
SPLINE
  5
15e
100
AcDbEntity
  8
Ebene_1
 62
7
100
AcDbSpline
 70
8
 71
3
 72
8
 73
4
 74
0
 40
0
 40
0
 40
0
 40
0
 40
1
 40
1
 40
1
 40
1
 10
188.458980
 20
357.462890
 30
0.0
 10
188.133930
 20
357.495470
 30
0.0
 10
187.762300
 20
357.487850
 30
0.0
 10
187.343750
 20
357.433590
 30
0.0
  0
SPLINE
  5
15f
100
AcDbEntity
  8
Ebene_1
 62
7
100
AcDbSpline
 70
8
 71
3
 72
8
 73
4
 74
0
 40
0
 40
0
 40
0
 40
0
 40
1
 40
1
 40
1
 40
1
 10
187.343750
 20
357.433590
 30
0.0
 10
182.810615
 20
355.014511
 30
0.0
 10
179.098769
 20
351.302665
 30
0.0
 10
176.679690
 20
346.769530
 30
0.0
  0
SPLINE
  5
160
100
AcDbEntity
  8
Ebene_1
 62
7
100
AcDbSpline
 70
8
 71
3
 72
8
 73
4
 74
0
 40
0
 40
0
 40
0
 40
0
 40
1
 40
1
 40
1
 40
1
 10
176.679690
 20
346.769530
 30
0.0
 10
176.110140
 20
345.493730
 30
0.0
 10
176.813790
 20
343.575490
 30
0.0
 10
178.312500
 20
341.417970
 30
0.0
  0
SPLINE
  5
161
100
AcDbEntity
  8
Ebene_1
 62
7
100
AcDbSpline
 70
8
 71
3
 72
8
 73
4
 74
0
 40
0
 40
0
 40
0
 40
0
 40
1
 40
1
 40
1
 40
1
 10
178.312500
 20
341.417970
 30
0.0
 10
178.326960
 20
341.423270
 30
0.0
 10
178.341010
 20
341.430270
 30
0.0
 10
178.355470
 20
341.435550
 30
0.0
  0
SPLINE
  5
162
100
AcDbEntity
  8
Ebene_1
 62
7
100
AcDbSpline
 70
8
 71
3
 72
8
 73
4
 74
0
 40
0
 40
0
 40
0
 40
0
 40
1
 40
1
 40
1
 40
1
 10
178.355470
 20
341.435550
 30
0.0
 10
182.022900
 20
342.773140
 30
0.0
 10
186.070650
 20
342.682120
 30
0.0
 10
189.960940
 20
343.005860
 30
0.0
  0
SPLINE
  5
163
100
AcDbEntity
  8
Ebene_1
 62
7
100
AcDbSpline
 70
8
 71
3
 72
8
 73
4
 74
0
 40
0
 40
0
 40
0
 40
0
 40
1
 40
1
 40
1
 40
1
 10
189.960940
 20
343.005860
 30
0.0
 10
190.618500
 20
343.060570
 30
0.0
 10
191.279800
 20
343.099400
 30
0.0
 10
191.939450
 20
343.150390
 30
0.0
  0
SPLINE
  5
164
100
AcDbEntity
  8
Ebene_1
 62
7
100
AcDbSpline
 70
8
 71
3
 72
8
 73
4
 74
0
 40
0
 40
0
 40
0
 40
0
 40
1
 40
1
 40
1
 40
1
 10
191.939450
 20
343.150390
 30
0.0
 10
189.543420
 20
345.074330
 30
0.0
 10
188.892460
 20
351.003680
 30
0.0
 10
189.824220
 20
352.970700
 30
0.0
  0
SPLINE
  5
165
100
AcDbEntity
  8
Ebene_1
 62
7
100
AcDbSpline
 70
8
 71
3
 72
8
 73
4
 74
0
 40
0
 40
0
 40
0
 40
0
 40
1
 40
1
 40
1
 40
1
 10
189.824220
 20
352.970700
 30
0.0
 10
190.800830
 20
355.032450
 30
0.0
 10
190.734350
 20
357.234850
 30
0.0
 10
188.458980
 20
357.462890
 30
0.0
  0
LWPOLYLINE
  5
166
100
AcDbEntity
  8
Ebene_1
 62
7
100
AcDbPolyline
 90
1
 70
1
 10
321.031250
 20
375.292970
 30
0.0
  0
SPLINE
  5
167
100
AcDbEntity
  8
Ebene_1
 62
7
100
AcDbSpline
 70
8
 71
3
 72
8
 73
4
 74
0
 40
0
 40
0
 40
0
 40
0
 40
1
 40
1
 40
1
 40
1
 10
323.978520
 20
357.169920
 30
0.0
 10
320.487470
 20
357.383560
 30
0.0
 10
309.125910
 20
354.534980
 30
0.0
 10
308.257810
 20
353.775390
 30
0.0
  0
SPLINE
  5
168
100
AcDbEntity
  8
Ebene_1
 62
7
100
AcDbSpline
 70
8
 71
3
 72
8
 73
4
 74
0
 40
0
 40
0
 40
0
 40
0
 40
1
 40
1
 40
1
 40
1
 10
308.257810
 20
353.775390
 30
0.0
 10
307.265690
 20
352.907290
 30
0.0
 10
308.630450
 20
348.196240
 30
0.0
 10
309.808590
 20
347.576170
 30
0.0
  0
SPLINE
  5
169
100
AcDbEntity
  8
Ebene_1
 62
7
100
AcDbSpline
 70
8
 71
3
 72
8
 73
4
 74
0
 40
0
 40
0
 40
0
 40
0
 40
1
 40
1
 40
1
 40
1
 10
309.808590
 20
347.576170
 30
0.0
 10
315.435751
 20
348.868313
 30
0.0
 10
320.889375
 20
350.824748
 30
0.0
 10
326.054690
 20
353.404300
 30
0.0
  0
SPLINE
  5
16a
100
AcDbEntity
  8
Ebene_1
 62
7
100
AcDbSpline
 70
8
 71
3
 72
8
 73
4
 74
0
 40
0
 40
0
 40
0
 40
0
 40
1
 40
1
 40
1
 40
1
 10
326.054690
 20
353.404300
 30
0.0
 10
326.922790
 20
354.148380
 30
0.0
 10
325.869560
 20
355.512790
 30
0.0
 10
324.939450
 20
356.876950
 30
0.0
  0
SPLINE
  5
16b
100
AcDbEntity
  8
Ebene_1
 62
7
100
AcDbSpline
 70
8
 71
3
 72
8
 73
4
 74
0
 40
0
 40
0
 40
0
 40
0
 40
1
 40
1
 40
1
 40
1
 10
324.939450
 20
356.876950
 30
0.0
 10
324.815440
 20
357.047470
 30
0.0
 10
324.477240
 20
357.139400
 30
0.0
 10
323.978520
 20
357.169920
 30
0.0
  0
LWPOLYLINE
  5
16c
100
AcDbEntity
  8
Ebene_1
 62
7
100
AcDbPolyline
 90
1
 70
1
 10
188.458980
 20
357.462890
 30
0.0
  0
SPLINE
  5
16d
100
AcDbEntity
  8
Ebene_1
 62
7
100
AcDbSpline
 70
8
 71
3
 72
8
 73
4
 74
0
 40
0
 40
0
 40
0
 40
0
 40
1
 40
1
 40
1
 40
1
 10
233.230470
 20
349.062500
 30
0.0
 10
221.243513
 20
347.759205
 30
0.0
 10
209.333243
 20
345.827510
 30
0.0
 10
197.548830
 20
343.275390
 30
0.0
  0
SPLINE
  5
16e
100
AcDbEntity
  8
Ebene_1
 62
7
100
AcDbSpline
 70
8
 71
3
 72
8
 73
4
 74
0
 40
0
 40
0
 40
0
 40
0
 40
1
 40
1
 40
1
 40
1
 10
197.548830
 20
343.275390
 30
0.0
 10
197.782210
 20
343.262950
 30
0.0
 10
198.016930
 20
343.286610
 30
0.0
 10
198.250000
 20
343.267580
 30
0.0
  0
SPLINE
  5
16f
100
AcDbEntity
  8
Ebene_1
 62
7
100
AcDbSpline
 70
8
 71
3
 72
8
 73
4
 74
0
 40
0
 40
0
 40
0
 40
0
 40
1
 40
1
 40
1
 40
1
 10
198.250000
 20
343.267580
 30
0.0
 10
200.200340
 20
343.108310
 30
0.0
 10
202.250420
 20
342.989470
 30
0.0
 10
204.009770
 20
342.132810
 30
0.0
  0
SPLINE
  5
170
100
AcDbEntity
  8
Ebene_1
 62
7
100
AcDbSpline
 70
8
 71
3
 72
8
 73
4
 74
0
 40
0
 40
0
 40
0
 40
0
 40
1
 40
1
 40
1
 40
1
 10
204.009770
 20
342.132810
 30
0.0
 10
205.010780
 20
341.645390
 30
0.0
 10
205.766380
 20
340.752800
 30
0.0
 10
206.539060
 20
339.951170
 30
0.0
  0
SPLINE
  5
171
100
AcDbEntity
  8
Ebene_1
 62
7
100
AcDbSpline
 70
8
 71
3
 72
8
 73
4
 74
0
 40
0
 40
0
 40
0
 40
0
 40
1
 40
1
 40
1
 40
1
 10
206.539060
 20
339.951170
 30
0.0
 10
206.835360
 20
339.643770
 30
0.0
 10
207.164380
 20
339.344790
 30
0.0
 10
207.464840
 20
339.027340
 30
0.0
  0
SPLINE
  5
172
100
AcDbEntity
  8
Ebene_1
 62
7
100
AcDbSpline
 70
8
 71
3
 72
8
 73
4
 74
0
 40
0
 40
0
 40
0
 40
0
 40
1
 40
1
 40
1
 40
1
 10
207.464840
 20
339.027340
 30
0.0
 10
209.283480
 20
339.208970
 30
0.0
 10
211.341800
 20
339.390630
 30
0.0
 10
211.341800
 20
339.390620
 30
0.0
  0
SPLINE
  5
173
100
AcDbEntity
  8
Ebene_1
 62
7
100
AcDbSpline
 70
8
 71
3
 72
8
 73
4
 74
0
 40
0
 40
0
 40
0
 40
0
 40
1
 40
1
 40
1
 40
1
 10
211.341800
 20
339.390620
 30
0.0
 10
226.323678
 20
341.389089
 30
0.0
 10
241.540226
 20
340.738568
 30
0.0
 10
256.296880
 20
337.468750
 30
0.0
  0
SPLINE
  5
174
100
AcDbEntity
  8
Ebene_1
 62
7
100
AcDbSpline
 70
8
 71
3
 72
8
 73
4
 74
0
 40
0
 40
0
 40
0
 40
0
 40
1
 40
1
 40
1
 40
1
 10
256.296880
 20
337.468750
 30
0.0
 10
276.077130
 20
333.810330
 30
0.0
 10
279.177200
 20
330.524060
 30
0.0
 10
278.619140
 20
325.687500
 30
0.0
  0
LWPOLYLINE
  5
175
100
AcDbEntity
  8
Ebene_1
 62
7
100
AcDbPolyline
 90
1
 70
1
 10
323.978520
 20
357.169920
 30
0.0
  0
SPLINE
  5
176
100
AcDbEntity
  8
Ebene_1
 62
7
100
AcDbSpline
 70
8
 71
3
 72
8
 73
4
 74
0
 40
0
 40
0
 40
0
 40
0
 40
1
 40
1
 40
1
 40
1
 10
278.619140
 20
325.439450
 30
0.0
 10
277.999070
 20
320.602910
 30
0.0
 10
270.681440
 20
300.634830
 30
0.0
 10
267.953120
 20
301.626950
 30
0.0
  0
SPLINE
  5
177
100
AcDbEntity
  8
Ebene_1
 62
7
100
AcDbSpline
 70
8
 71
3
 72
8
 73
4
 74
0
 40
0
 40
0
 40
0
 40
0
 40
1
 40
1
 40
1
 40
1
 10
267.953120
 20
301.626950
 30
0.0
 10
256.680947
 20
305.372655
 30
0.0
 10
245.679730
 20
309.889172
 30
0.0
 10
235.027340
 20
315.144530
 30
0.0
  0
SPLINE
  5
178
100
AcDbEntity
  8
Ebene_1
 62
7
100
AcDbSpline
 70
8
 71
3
 72
8
 73
4
 74
0
 40
0
 40
0
 40
0
 40
0
 40
1
 40
1
 40
1
 40
1
 10
235.027340
 20
315.144530
 30
0.0
 10
233.663200
 20
317.128760
 30
0.0
 10
233.229540
 20
326.802860
 30
0.0
 10
227.462890
 20
328.539060
 30
0.0
  0
SPLINE
  5
179
100
AcDbEntity
  8
Ebene_1
 62
7
100
AcDbSpline
 70
8
 71
3
 72
8
 73
4
 74
0
 40
0
 40
0
 40
0
 40
0
 40
1
 40
1
 40
1
 40
1
 10
227.462890
 20
328.539060
 30
0.0
 10
222.478620
 20
330.039710
 30
0.0
 10
213.512490
 20
332.830530
 30
0.0
 10
208.367190
 20
334.613280
 30
0.0
  0
SPLINE
  5
17a
100
AcDbEntity
  8
Ebene_1
 62
7
100
AcDbSpline
 70
8
 71
3
 72
8
 73
4
 74
0
 40
0
 40
0
 40
0
 40
0
 40
1
 40
1
 40
1
 40
1
 10
208.367190
 20
334.613280
 30
0.0
 10
208.248830
 20
333.854300
 30
0.0
 10
208.093600
 20
333.090480
 30
0.0
 10
207.935550
 20
332.359380
 30
0.0
  0
SPLINE
  5
17b
100
AcDbEntity
  8
Ebene_1
 62
7
100
AcDbSpline
 70
8
 71
3
 72
8
 73
4
 74
0
 40
0
 40
0
 40
0
 40
0
 40
1
 40
1
 40
1
 40
1
 10
207.935550
 20
332.359380
 30
0.0
 10
207.412430
 20
329.939570
 30
0.0
 10
206.483470
 20
327.637350
 30
0.0
 10
205.498050
 20
325.353520
 30
0.0
  0
SPLINE
  5
17c
100
AcDbEntity
  8
Ebene_1
 62
7
100
AcDbSpline
 70
8
 71
3
 72
8
 73
4
 74
0
 40
0
 40
0
 40
0
 40
0
 40
1
 40
1
 40
1
 40
1
 10
205.498050
 20
325.353520
 30
0.0
 10
211.742330
 20
324.152230
 30
0.0
 10
217.332800
 20
323.635020
 30
0.0
 10
217.976560
 20
323.330080
 30
0.0
  0
SPLINE
  5
17d
100
AcDbEntity
  8
Ebene_1
 62
7
100
AcDbSpline
 70
8
 71
3
 72
8
 73
4
 74
0
 40
0
 40
0
 40
0
 40
0
 40
1
 40
1
 40
1
 40
1
 10
217.976560
 20
323.330080
 30
0.0
 10
219.501047
 20
320.001753
 30
0.0
 10
220.544689
 20
316.473624
 30
0.0
 10
221.076170
 20
312.851560
 30
0.0
  0
SPLINE
  5
17e
100
AcDbEntity
  8
Ebene_1
 62
7
100
AcDbSpline
 70
8
 71
3
 72
8
 73
4
 74
0
 40
0
 40
0
 40
0
 40
0
 40
1
 40
1
 40
1
 40
1
 10
221.076170
 20
312.851560
 30
0.0
 10
221.634230
 20
310.309280
 30
0.0
 10
227.276850
 20
307.642090
 30
0.0
 10
240.236330
 20
301.193360
 30
0.0
  0
SPLINE
  5
17f
100
AcDbEntity
  8
Ebene_1
 62
7
100
AcDbSpline
 70
8
 71
3
 72
8
 73
4
 74
0
 40
0
 40
0
 40
0
 40
0
 40
1
 40
1
 40
1
 40
1
 10
240.236330
 20
301.193360
 30
0.0
 10
253.195820
 20
294.744640
 30
0.0
 10
271.240360
 20
287.862860
 30
0.0
 10
272.976560
 20
288.792970
 30
0.0
  0
SPLINE
  5
180
100
AcDbEntity
  8
Ebene_1
 62
7
100
AcDbSpline
 70
8
 71
3
 72
8
 73
4
 74
0
 40
0
 40
0
 40
0
 40
0
 40
1
 40
1
 40
1
 40
1
 10
272.976560
 20
288.792970
 30
0.0
 10
275.526635
 20
292.954907
 30
0.0
 10
277.908759
 20
297.217446
 30
0.0
 10
280.117190
 20
301.570310
 30
0.0
  0
SPLINE
  5
181
100
AcDbEntity
  8
Ebene_1
 62
7
100
AcDbSpline
 70
8
 71
3
 72
8
 73
4
 74
0
 40
0
 40
0
 40
0
 40
0
 40
1
 40
1
 40
1
 40
1
 10
280.117190
 20
301.570310
 30
0.0
 10
280.326170
 20
303.943780
 30
0.0
 10
280.614950
 20
306.308800
 30
0.0
 10
281.148440
 20
308.625000
 30
0.0
  0
SPLINE
  5
182
100
AcDbEntity
  8
Ebene_1
 62
7
100
AcDbSpline
 70
8
 71
3
 72
8
 73
4
 74
0
 40
0
 40
0
 40
0
 40
0
 40
1
 40
1
 40
1
 40
1
 10
281.148440
 20
308.625000
 30
0.0
 10
281.790500
 20
311.412600
 30
0.0
 10
282.879830
 20
314.083150
 30
0.0
 10
283.939450
 20
316.740230
 30
0.0
  0
SPLINE
  5
183
100
AcDbEntity
  8
Ebene_1
 62
7
100
AcDbSpline
 70
8
 71
3
 72
8
 73
4
 74
0
 40
0
 40
0
 40
0
 40
0
 40
1
 40
1
 40
1
 40
1
 10
283.939450
 20
316.740230
 30
0.0
 10
284.875000
 20
319.086220
 30
0.0
 10
285.850520
 20
321.429700
 30
0.0
 10
287.082030
 20
323.634770
 30
0.0
  0
SPLINE
  5
184
100
AcDbEntity
  8
Ebene_1
 62
7
100
AcDbSpline
 70
8
 71
3
 72
8
 73
4
 74
0
 40
0
 40
0
 40
0
 40
0
 40
1
 40
1
 40
1
 40
1
 10
287.082030
 20
323.634770
 30
0.0
 10
287.768830
 20
324.864490
 30
0.0
 10
288.514600
 20
326.063780
 30
0.0
 10
289.304690
 20
327.232420
 30
0.0
  0
SPLINE
  5
185
100
AcDbEntity
  8
Ebene_1
 62
7
100
AcDbSpline
 70
8
 71
3
 72
8
 73
4
 74
0
 40
0
 40
0
 40
0
 40
0
 40
1
 40
1
 40
1
 40
1
 10
289.304690
 20
327.232420
 30
0.0
 10
288.289970
 20
331.393660
 30
0.0
 10
286.218510
 20
337.163300
 30
0.0
 10
282.835940
 20
338.832030
 30
0.0
  0
SPLINE
  5
186
100
AcDbEntity
  8
Ebene_1
 62
7
100
AcDbSpline
 70
8
 71
3
 72
8
 73
4
 74
0
 40
0
 40
0
 40
0
 40
0
 40
1
 40
1
 40
1
 40
1
 10
282.835940
 20
338.832030
 30
0.0
 10
266.932236
 20
344.797007
 30
0.0
 10
250.196501
 20
348.248530
 30
0.0
 10
233.230470
 20
349.062500
 30
0.0
  0
LWPOLYLINE
  5
187
100
AcDbEntity
  8
Ebene_1
 62
7
100
AcDbPolyline
 90
2
 70
0
 10
278.619140
 20
325.687500
 30
0.0
 10
278.619140
 20
325.439450
 30
0.0
  0
SPLINE
  5
188
100
AcDbEntity
  8
Ebene_1
 62
7
100
AcDbSpline
 70
8
 71
3
 72
8
 73
4
 74
0
 40
0
 40
0
 40
0
 40
0
 40
1
 40
1
 40
1
 40
1
 10
374.455080
 20
325.478520
 30
0.0
 10
375.676100
 20
323.666880
 30
0.0
 10
376.849120
 20
321.822370
 30
0.0
 10
378.005860
 20
319.968750
 30
0.0
  0
SPLINE
  5
189
100
AcDbEntity
  8
Ebene_1
 62
7
100
AcDbSpline
 70
8
 71
3
 72
8
 73
4
 74
0
 40
0
 40
0
 40
0
 40
0
 40
1
 40
1
 40
1
 40
1
 10
378.005860
 20
319.968750
 30
0.0
 10
378.426940
 20
319.293990
 30
0.0
 10
378.874060
 20
318.632200
 30
0.0
 10
379.314450
 20
317.966800
 30
0.0
  0
SPLINE
  5
18a
100
AcDbEntity
  8
Ebene_1
 62
7
100
AcDbSpline
 70
8
 71
3
 72
8
 73
4
 74
0
 40
0
 40
0
 40
0
 40
0
 40
1
 40
1
 40
1
 40
1
 10
379.314450
 20
317.966800
 30
0.0
 10
379.606760
 20
317.842190
 30
0.0
 10
380.614170
 20
317.439340
 30
0.0
 10
380.744140
 20
317.376950
 30
0.0
  0
SPLINE
  5
18b
100
AcDbEntity
  8
Ebene_1
 62
7
100
AcDbSpline
 70
8
 71
3
 72
8
 73
4
 74
0
 40
0
 40
0
 40
0
 40
0
 40
1
 40
1
 40
1
 40
1
 10
380.744140
 20
317.376950
 30
0.0
 10
382.294320
 20
316.632870
 30
0.0
 10
381.861800
 20
319.858970
 30
0.0
 10
381.675780
 20
321.037110
 30
0.0
  0
SPLINE
  5
18c
100
AcDbEntity
  8
Ebene_1
 62
7
100
AcDbSpline
 70
8
 71
3
 72
8
 73
4
 74
0
 40
0
 40
0
 40
0
 40
0
 40
1
 40
1
 40
1
 40
1
 10
381.675780
 20
321.037110
 30
0.0
 10
379.415628
 20
322.743881
 30
0.0
 10
376.997770
 20
324.231091
 30
0.0
 10
374.455080
 20
325.478520
 30
0.0
  0
LWPOLYLINE
  5
18d
100
AcDbEntity
  8
Ebene_1
 62
7
100
AcDbPolyline
 90
1
 70
1
 10
233.230470
 20
349.062500
 30
0.0
  0
SPLINE
  5
18e
100
AcDbEntity
  8
Ebene_1
 62
7
100
AcDbSpline
 70
8
 71
3
 72
8
 73
4
 74
0
 40
0
 40
0
 40
0
 40
0
 40
1
 40
1
 40
1
 40
1
 10
143.753910
 20
322.214840
 30
0.0
 10
142.389750
 20
322.586890
 30
0.0
 10
141.026140
 20
321.593880
 30
0.0
 10
137.925780
 20
316.943360
 30
0.0
  0
SPLINE
  5
18f
100
AcDbEntity
  8
Ebene_1
 62
7
100
AcDbSpline
 70
8
 71
3
 72
8
 73
4
 74
0
 40
0
 40
0
 40
0
 40
0
 40
1
 40
1
 40
1
 40
1
 10
137.925780
 20
316.943360
 30
0.0
 10
134.775354
 20
309.659302
 30
0.0
 10
132.365442
 20
302.076882
 30
0.0
 10
130.732420
 20
294.310550
 30
0.0
  0
SPLINE
  5
190
100
AcDbEntity
  8
Ebene_1
 62
7
100
AcDbSpline
 70
8
 71
3
 72
8
 73
4
 74
0
 40
0
 40
0
 40
0
 40
0
 40
1
 40
1
 40
1
 40
1
 10
130.732420
 20
294.310550
 30
0.0
 10
131.538520
 20
292.946390
 30
0.0
 10
135.010920
 20
292.946320
 30
0.0
 10
137.367190
 20
293.318360
 30
0.0
  0
SPLINE
  5
191
100
AcDbEntity
  8
Ebene_1
 62
7
100
AcDbSpline
 70
8
 71
3
 72
8
 73
4
 74
0
 40
0
 40
0
 40
0
 40
0
 40
1
 40
1
 40
1
 40
1
 10
137.367190
 20
293.318360
 30
0.0
 10
139.723470
 20
293.690400
 30
0.0
 10
138.111460
 20
293.690870
 30
0.0
 10
139.847660
 20
299.519530
 30
0.0
  0
SPLINE
  5
192
100
AcDbEntity
  8
Ebene_1
 62
7
100
AcDbSpline
 70
8
 71
3
 72
8
 73
4
 74
0
 40
0
 40
0
 40
0
 40
0
 40
1
 40
1
 40
1
 40
1
 10
139.847660
 20
299.519530
 30
0.0
 10
141.583840
 20
305.348210
 30
0.0
 10
148.217790
 20
318.121170
 30
0.0
 10
148.589840
 20
319.113280
 30
0.0
  0
SPLINE
  5
193
100
AcDbEntity
  8
Ebene_1
 62
7
100
AcDbSpline
 70
8
 71
3
 72
8
 73
4
 74
0
 40
0
 40
0
 40
0
 40
0
 40
1
 40
1
 40
1
 40
1
 10
148.589840
 20
319.113280
 30
0.0
 10
148.961880
 20
320.105400
 30
0.0
 10
145.118040
 20
321.842800
 30
0.0
 10
143.753910
 20
322.214840
 30
0.0
  0
LWPOLYLINE
  5
194
100
AcDbEntity
  8
Ebene_1
 62
7
100
AcDbPolyline
 90
1
 70
1
 10
374.455080
 20
325.478520
 30
0.0
  0
SPLINE
  5
195
100
AcDbEntity
  8
Ebene_1
 62
7
100
AcDbSpline
 70
8
 71
3
 72
8
 73
4
 74
0
 40
0
 40
0
 40
0
 40
0
 40
1
 40
1
 40
1
 40
1
 10
203.994140
 20
321.849610
 30
0.0
 10
203.913420
 20
321.658800
 30
0.0
 10
203.827130
 20
321.468520
 30
0.0
 10
203.748050
 20
321.277340
 30
0.0
  0
SPLINE
  5
196
100
AcDbEntity
  8
Ebene_1
 62
7
100
AcDbSpline
 70
8
 71
3
 72
8
 73
4
 74
0
 40
0
 40
0
 40
0
 40
0
 40
1
 40
1
 40
1
 40
1
 10
203.748050
 20
321.277340
 30
0.0
 10
202.377090
 20
317.963090
 30
0.0
 10
200.770850
 20
314.748110
 30
0.0
 10
199.236330
 20
311.503910
 30
0.0
  0
SPLINE
  5
197
100
AcDbEntity
  8
Ebene_1
 62
7
100
AcDbSpline
 70
8
 71
3
 72
8
 73
4
 74
0
 40
0
 40
0
 40
0
 40
0
 40
1
 40
1
 40
1
 40
1
 10
199.236330
 20
311.503910
 30
0.0
 10
205.146410
 20
308.686420
 30
0.0
 10
205.799280
 20
308.158700
 30
0.0
 10
206.503910
 20
306.091800
 30
0.0
  0
SPLINE
  5
198
100
AcDbEntity
  8
Ebene_1
 62
7
100
AcDbSpline
 70
8
 71
3
 72
8
 73
4
 74
0
 40
0
 40
0
 40
0
 40
0
 40
1
 40
1
 40
1
 40
1
 10
206.503910
 20
306.091800
 30
0.0
 10
207.261686
 20
299.171236
 30
0.0
 10
206.863680
 20
292.172839
 30
0.0
 10
205.326170
 20
285.382810
 30
0.0
  0
SPLINE
  5
199
100
AcDbEntity
  8
Ebene_1
 62
7
100
AcDbSpline
 70
8
 71
3
 72
8
 73
4
 74
0
 40
0
 40
0
 40
0
 40
0
 40
1
 40
1
 40
1
 40
1
 10
205.326170
 20
285.382810
 30
0.0
 10
204.717210
 20
285.078330
 30
0.0
 10
197.548630
 20
285.263670
 30
0.0
 10
190.054690
 20
285.412110
 30
0.0
  0
SPLINE
  5
19a
100
AcDbEntity
  8
Ebene_1
 62
7
100
AcDbSpline
 70
8
 71
3
 72
8
 73
4
 74
0
 40
0
 40
0
 40
0
 40
0
 40
1
 40
1
 40
1
 40
1
 10
190.054690
 20
285.412110
 30
0.0
 10
189.425700
 20
283.067140
 30
0.0
 10
188.835550
 20
280.712450
 30
0.0
 10
188.302730
 20
278.345700
 30
0.0
  0
SPLINE
  5
19b
100
AcDbEntity
  8
Ebene_1
 62
7
100
AcDbSpline
 70
8
 71
3
 72
8
 73
4
 74
0
 40
0
 40
0
 40
0
 40
0
 40
1
 40
1
 40
1
 40
1
 10
188.302730
 20
278.345700
 30
0.0
 10
188.100290
 20
277.446440
 30
0.0
 10
187.988440
 20
276.529110
 30
0.0
 10
187.808590
 20
275.625000
 30
0.0
  0
SPLINE
  5
19c
100
AcDbEntity
  8
Ebene_1
 62
7
100
AcDbSpline
 70
8
 71
3
 72
8
 73
4
 74
0
 40
0
 40
0
 40
0
 40
0
 40
1
 40
1
 40
1
 40
1
 10
187.808590
 20
275.625000
 30
0.0
 10
195.454790
 20
275.159450
 30
0.0
 10
205.938780
 20
274.552730
 30
0.0
 10
210.224610
 20
276.824220
 30
0.0
  0
SPLINE
  5
19d
100
AcDbEntity
  8
Ebene_1
 62
7
100
AcDbSpline
 70
8
 71
3
 72
8
 73
4
 74
0
 40
0
 40
0
 40
0
 40
0
 40
1
 40
1
 40
1
 40
1
 10
210.224610
 20
276.824220
 30
0.0
 10
216.425310
 20
280.110600
 30
0.0
 10
217.231940
 20
287.675780
 30
0.0
 10
217.417970
 20
294.310550
 30
0.0
  0
SPLINE
  5
19e
100
AcDbEntity
  8
Ebene_1
 62
7
100
AcDbSpline
 70
8
 71
3
 72
8
 73
4
 74
0
 40
0
 40
0
 40
0
 40
0
 40
1
 40
1
 40
1
 40
1
 10
217.417970
 20
294.310550
 30
0.0
 10
217.603990
 20
300.945300
 30
0.0
 10
215.123320
 20
315.392790
 30
0.0
 10
212.208980
 20
318.121090
 30
0.0
  0
SPLINE
  5
19f
100
AcDbEntity
  8
Ebene_1
 62
7
100
AcDbSpline
 70
8
 71
3
 72
8
 73
4
 74
0
 40
0
 40
0
 40
0
 40
0
 40
1
 40
1
 40
1
 40
1
 10
212.208980
 20
318.121090
 30
0.0
 10
211.357310
 20
318.918410
 30
0.0
 10
208.082680
 20
320.282420
 30
0.0
 10
203.994140
 20
321.849610
 30
0.0
  0
LWPOLYLINE
  5
1a0
100
AcDbEntity
  8
Ebene_1
 62
7
100
AcDbPolyline
 90
1
 70
1
 10
143.753910
 20
322.214840
 30
0.0
  0
SPLINE
  5
1a1
100
AcDbEntity
  8
Ebene_1
 62
7
100
AcDbSpline
 70
8
 71
3
 72
8
 73
4
 74
0
 40
0
 40
0
 40
0
 40
0
 40
1
 40
1
 40
1
 40
1
 10
327.992190
 20
320.148440
 30
0.0
 10
327.064470
 20
319.464170
 30
0.0
 10
326.176210
 20
318.741030
 30
0.0
 10
325.562500
 20
317.787110
 30
0.0
  0
SPLINE
  5
1a2
100
AcDbEntity
  8
Ebene_1
 62
7
100
AcDbSpline
 70
8
 71
3
 72
8
 73
4
 74
0
 40
0
 40
0
 40
0
 40
0
 40
1
 40
1
 40
1
 40
1
 10
325.562500
 20
317.787110
 30
0.0
 10
324.576900
 20
316.255160
 30
0.0
 10
324.449450
 20
314.316020
 30
0.0
 10
323.992190
 20
312.552730
 30
0.0
  0
SPLINE
  5
1a3
100
AcDbEntity
  8
Ebene_1
 62
7
100
AcDbSpline
 70
8
 71
3
 72
8
 73
4
 74
0
 40
0
 40
0
 40
0
 40
0
 40
1
 40
1
 40
1
 40
1
 10
323.992190
 20
312.552730
 30
0.0
 10
323.379160
 20
310.188770
 30
0.0
 10
322.745770
 20
307.817070
 30
0.0
 10
322.421880
 20
305.396480
 30
0.0
  0
SPLINE
  5
1a4
100
AcDbEntity
  8
Ebene_1
 62
7
100
AcDbSpline
 70
8
 71
3
 72
8
 73
4
 74
0
 40
0
 40
0
 40
0
 40
0
 40
1
 40
1
 40
1
 40
1
 10
322.421880
 20
305.396480
 30
0.0
 10
322.112870
 20
303.087340
 30
0.0
 10
321.940590
 20
300.742020
 30
0.0
 10
322.072270
 20
298.416020
 30
0.0
  0
SPLINE
  5
1a5
100
AcDbEntity
  8
Ebene_1
 62
7
100
AcDbSpline
 70
8
 71
3
 72
8
 73
4
 74
0
 40
0
 40
0
 40
0
 40
0
 40
1
 40
1
 40
1
 40
1
 10
322.072270
 20
298.416020
 30
0.0
 10
322.273640
 20
294.859060
 30
0.0
 10
322.857230
 20
291.325960
 30
0.0
 10
323.634770
 20
287.841800
 30
0.0
  0
SPLINE
  5
1a6
100
AcDbEntity
  8
Ebene_1
 62
7
100
AcDbSpline
 70
8
 71
3
 72
8
 73
4
 74
0
 40
0
 40
0
 40
0
 40
0
 40
1
 40
1
 40
1
 40
1
 10
323.634770
 20
287.841800
 30
0.0
 10
328.456210
 20
287.711410
 30
0.0
 10
334.885570
 20
289.214110
 30
0.0
 10
337.898440
 20
286.931640
 30
0.0
  0
SPLINE
  5
1a7
100
AcDbEntity
  8
Ebene_1
 62
7
100
AcDbSpline
 70
8
 71
3
 72
8
 73
4
 74
0
 40
0
 40
0
 40
0
 40
0
 40
1
 40
1
 40
1
 40
1
 10
337.898440
 20
286.931640
 30
0.0
 10
341.990890
 20
283.831280
 30
0.0
 10
342.921400
 20
274.159600
 30
0.0
 10
349.742190
 20
273.353520
 30
0.0
  0
SPLINE
  5
1a8
100
AcDbEntity
  8
Ebene_1
 62
7
100
AcDbSpline
 70
8
 71
3
 72
8
 73
4
 74
0
 40
0
 40
0
 40
0
 40
0
 40
1
 40
1
 40
1
 40
1
 10
349.742190
 20
273.353520
 30
0.0
 10
353.363990
 20
272.925490
 30
0.0
 10
355.866310
 20
274.134100
 30
0.0
 10
358.345700
 20
274.744140
 30
0.0
  0
SPLINE
  5
1a9
100
AcDbEntity
  8
Ebene_1
 62
7
100
AcDbSpline
 70
8
 71
3
 72
8
 73
4
 74
0
 40
0
 40
0
 40
0
 40
0
 40
1
 40
1
 40
1
 40
1
 10
358.345700
 20
274.744140
 30
0.0
 10
358.404790
 20
275.073730
 30
0.0
 10
358.491840
 20
275.398480
 30
0.0
 10
358.546880
 20
275.728520
 30
0.0
  0
SPLINE
  5
1aa
100
AcDbEntity
  8
Ebene_1
 62
7
100
AcDbSpline
 70
8
 71
3
 72
8
 73
4
 74
0
 40
0
 40
0
 40
0
 40
0
 40
1
 40
1
 40
1
 40
1
 10
358.546880
 20
275.728520
 30
0.0
 10
358.923740
 20
277.988390
 30
0.0
 10
359.185600
 20
280.270570
 30
0.0
 10
359.365230
 20
282.558590
 30
0.0
  0
SPLINE
  5
1ab
100
AcDbEntity
  8
Ebene_1
 62
7
100
AcDbSpline
 70
8
 71
3
 72
8
 73
4
 74
0
 40
0
 40
0
 40
0
 40
0
 40
1
 40
1
 40
1
 40
1
 10
359.365230
 20
282.558590
 30
0.0
 10
357.987630
 20
282.510030
 30
0.0
 10
356.761640
 20
282.790110
 30
0.0
 10
355.941410
 20
283.832030
 30
0.0
  0
SPLINE
  5
1ac
100
AcDbEntity
  8
Ebene_1
 62
7
100
AcDbSpline
 70
8
 71
3
 72
8
 73
4
 74
0
 40
0
 40
0
 40
0
 40
0
 40
1
 40
1
 40
1
 40
1
 10
355.941410
 20
283.832030
 30
0.0
 10
353.647150
 20
286.746370
 30
0.0
 10
346.641560
 20
295.427730
 30
0.0
 10
339.634770
 20
295.427730
 30
0.0
  0
SPLINE
  5
1ad
100
AcDbEntity
  8
Ebene_1
 62
7
100
AcDbSpline
 70
8
 71
3
 72
8
 73
4
 74
0
 40
0
 40
0
 40
0
 40
0
 40
1
 40
1
 40
1
 40
1
 10
339.634770
 20
295.427730
 30
0.0
 10
332.627960
 20
295.427730
 30
0.0
 10
331.139070
 20
294.248650
 30
0.0
 10
329.960940
 20
295.798830
 30
0.0
  0
SPLINE
  5
1ae
100
AcDbEntity
  8
Ebene_1
 62
7
100
AcDbSpline
 70
8
 71
3
 72
8
 73
4
 74
0
 40
0
 40
0
 40
0
 40
0
 40
1
 40
1
 40
1
 40
1
 10
329.960940
 20
295.798830
 30
0.0
 10
329.245460
 20
296.740250
 30
0.0
 10
327.577330
 20
309.172550
 30
0.0
 10
327.992190
 20
320.148440
 30
0.0
  0
LWPOLYLINE
  5
1af
100
AcDbEntity
  8
Ebene_1
 62
7
100
AcDbPolyline
 90
1
 70
1
 10
203.994140
 20
321.849610
 30
0.0
  0
SPLINE
  5
1b0
100
AcDbEntity
  8
Ebene_1
 62
7
100
AcDbSpline
 70
8
 71
3
 72
8
 73
4
 74
0
 40
0
 40
0
 40
0
 40
0
 40
1
 40
1
 40
1
 40
1
 10
386.347660
 20
301.195310
 30
0.0
 10
386.799970
 20
299.369950
 30
0.0
 10
387.233220
 20
297.539870
 30
0.0
 10
387.630860
 20
295.701170
 30
0.0
  0
SPLINE
  5
1b1
100
AcDbEntity
  8
Ebene_1
 62
7
100
AcDbSpline
 70
8
 71
3
 72
8
 73
4
 74
0
 40
0
 40
0
 40
0
 40
0
 40
1
 40
1
 40
1
 40
1
 10
387.630860
 20
295.701170
 30
0.0
 10
388.227696
 20
295.420665
 30
0.0
 10
388.826011
 20
295.143318
 30
0.0
 10
389.425780
 20
294.869140
 30
0.0
  0
SPLINE
  5
1b2
100
AcDbEntity
  8
Ebene_1
 62
7
100
AcDbSpline
 70
8
 71
3
 72
8
 73
4
 74
0
 40
0
 40
0
 40
0
 40
0
 40
1
 40
1
 40
1
 40
1
 10
389.425780
 20
294.869140
 30
0.0
 10
391.968070
 20
294.497100
 30
0.0
 10
390.046860
 20
296.048010
 30
0.0
 10
389.798830
 20
298.156250
 30
0.0
  0
SPLINE
  5
1b3
100
AcDbEntity
  8
Ebene_1
 62
7
100
AcDbSpline
 70
8
 71
3
 72
8
 73
4
 74
0
 40
0
 40
0
 40
0
 40
0
 40
1
 40
1
 40
1
 40
1
 10
389.798830
 20
298.156250
 30
0.0
 10
389.742590
 20
298.634250
 30
0.0
 10
388.333420
 20
299.783620
 30
0.0
 10
386.347660
 20
301.195310
 30
0.0
  0
LWPOLYLINE
  5
1b4
100
AcDbEntity
  8
Ebene_1
 62
7
100
AcDbPolyline
 90
1
 70
1
 10
327.992190
 20
320.148440
 30
0.0
  0
SPLINE
  5
1b5
100
AcDbEntity
  8
Ebene_1
 62
7
100
AcDbSpline
 70
8
 71
3
 72
8
 73
4
 74
0
 40
0
 40
0
 40
0
 40
0
 40
1
 40
1
 40
1
 40
1
 10
389.201170
 20
287.257810
 30
0.0
 10
389.446260
 20
285.698530
 30
0.0
 10
389.689930
 20
284.136440
 30
0.0
 10
389.880860
 20
282.568360
 30
0.0
  0
SPLINE
  5
1b6
100
AcDbEntity
  8
Ebene_1
 62
7
100
AcDbSpline
 70
8
 71
3
 72
8
 73
4
 74
0
 40
0
 40
0
 40
0
 40
0
 40
1
 40
1
 40
1
 40
1
 10
389.880860
 20
282.568360
 30
0.0
 10
390.513804
 20
282.283838
 30
0.0
 10
391.147923
 20
282.001936
 30
0.0
 10
391.783200
 20
281.722660
 30
0.0
  0
SPLINE
  5
1b7
100
AcDbEntity
  8
Ebene_1
 62
7
100
AcDbSpline
 70
8
 71
3
 72
8
 73
4
 74
0
 40
0
 40
0
 40
0
 40
0
 40
1
 40
1
 40
1
 40
1
 10
391.783200
 20
281.722660
 30
0.0
 10
394.263490
 20
281.722660
 30
0.0
 10
392.899380
 20
283.459110
 30
0.0
 10
392.527340
 20
285.195310
 30
0.0
  0
SPLINE
  5
1b8
100
AcDbEntity
  8
Ebene_1
 62
7
100
AcDbSpline
 70
8
 71
3
 72
8
 73
4
 74
0
 40
0
 40
0
 40
0
 40
0
 40
1
 40
1
 40
1
 40
1
 10
392.527340
 20
285.195310
 30
0.0
 10
391.427192
 20
285.896543
 30
0.0
 10
390.318383
 20
286.584096
 30
0.0
 10
389.201170
 20
287.257810
 30
0.0
  0
LWPOLYLINE
  5
1b9
100
AcDbEntity
  8
Ebene_1
 62
7
100
AcDbPolyline
 90
1
 70
1
 10
386.347660
 20
301.195310
 30
0.0
  0
SPLINE
  5
1ba
100
AcDbEntity
  8
Ebene_1
 62
7
100
AcDbSpline
 70
8
 71
3
 72
8
 73
4
 74
0
 40
0
 40
0
 40
0
 40
0
 40
1
 40
1
 40
1
 40
1
 10
258.714840
 20
272.421880
 30
0.0
 10
256.978660
 20
272.421880
 30
0.0
 10
251.273390
 20
266.904740
 30
0.0
 10
250.777340
 20
266.222660
 30
0.0
  0
SPLINE
  5
1bb
100
AcDbEntity
  8
Ebene_1
 62
7
100
AcDbSpline
 70
8
 71
3
 72
8
 73
4
 74
0
 40
0
 40
0
 40
0
 40
0
 40
1
 40
1
 40
1
 40
1
 10
250.777340
 20
266.222660
 30
0.0
 10
251.112721
 20
263.834338
 30
0.0
 10
252.276097
 20
261.639613
 30
0.0
 10
254.064450
 20
260.021480
 30
0.0
  0
SPLINE
  5
1bc
100
AcDbEntity
  8
Ebene_1
 62
7
100
AcDbSpline
 70
8
 71
3
 72
8
 73
4
 74
0
 40
0
 40
0
 40
0
 40
0
 40
1
 40
1
 40
1
 40
1
 10
254.064450
 20
260.021480
 30
0.0
 10
255.614630
 20
259.029380
 30
0.0
 10
263.551330
 20
269.322870
 30
0.0
 10
264.357420
 20
270.873050
 30
0.0
  0
SPLINE
  5
1bd
100
AcDbEntity
  8
Ebene_1
 62
7
100
AcDbSpline
 70
8
 71
3
 72
8
 73
4
 74
0
 40
0
 40
0
 40
0
 40
0
 40
1
 40
1
 40
1
 40
1
 10
264.357420
 20
270.873050
 30
0.0
 10
265.163520
 20
272.423230
 30
0.0
 10
260.575050
 20
272.421870
 30
0.0
 10
258.714840
 20
272.421880
 30
0.0
  0
LWPOLYLINE
  5
1be
100
AcDbEntity
  8
Ebene_1
 62
7
100
AcDbPolyline
 90
1
 70
1
 10
389.201170
 20
287.257810
 30
0.0
  0
SPLINE
  5
1bf
100
AcDbEntity
  8
Ebene_1
 62
7
100
AcDbSpline
 70
8
 71
3
 72
8
 73
4
 74
0
 40
0
 40
0
 40
0
 40
0
 40
1
 40
1
 40
1
 40
1
 10
280.417970
 20
266.966800
 30
0.0
 10
274.403270
 20
266.966800
 30
0.0
 10
272.666930
 20
266.965120
 30
0.0
 10
272.046880
 20
264.050780
 30
0.0
  0
SPLINE
  5
1c0
100
AcDbEntity
  8
Ebene_1
 62
7
100
AcDbSpline
 70
8
 71
3
 72
8
 73
4
 74
0
 40
0
 40
0
 40
0
 40
0
 40
1
 40
1
 40
1
 40
1
 10
272.046880
 20
264.050780
 30
0.0
 10
271.426800
 20
261.136450
 30
0.0
 10
272.666750
 20
231.931900
 30
0.0
 10
269.566410
 20
222.382810
 30
0.0
  0
SPLINE
  5
1c1
100
AcDbEntity
  8
Ebene_1
 62
7
100
AcDbSpline
 70
8
 71
3
 72
8
 73
4
 74
0
 40
0
 40
0
 40
0
 40
0
 40
1
 40
1
 40
1
 40
1
 10
269.566410
 20
222.382810
 30
0.0
 10
266.466050
 20
212.833720
 30
0.0
 10
268.573600
 20
197.208660
 30
0.0
 10
279.796880
 20
192.744140
 30
0.0
  0
SPLINE
  5
1c2
100
AcDbEntity
  8
Ebene_1
 62
7
100
AcDbSpline
 70
8
 71
3
 72
8
 73
4
 74
0
 40
0
 40
0
 40
0
 40
0
 40
1
 40
1
 40
1
 40
1
 10
279.796880
 20
192.744140
 30
0.0
 10
287.500440
 20
189.679740
 30
0.0
 10
295.329490
 20
187.630900
 30
0.0
 10
300.033200
 20
185.328120
 30
0.0
  0
SPLINE
  5
1c3
100
AcDbEntity
  8
Ebene_1
 62
7
100
AcDbSpline
 70
8
 71
3
 72
8
 73
4
 74
0
 40
0
 40
0
 40
0
 40
0
 40
1
 40
1
 40
1
 40
1
 10
300.033200
 20
185.328120
 30
0.0
 10
302.954390
 20
187.559010
 30
0.0
 10
305.856190
 20
189.815200
 30
0.0
 10
308.634770
 20
192.218750
 30
0.0
  0
SPLINE
  5
1c4
100
AcDbEntity
  8
Ebene_1
 62
7
100
AcDbSpline
 70
8
 71
3
 72
8
 73
4
 74
0
 40
0
 40
0
 40
0
 40
0
 40
1
 40
1
 40
1
 40
1
 10
308.634770
 20
192.218750
 30
0.0
 10
309.141360
 20
192.656960
 30
0.0
 10
309.627570
 20
193.119670
 30
0.0
 10
310.128910
 20
193.564450
 30
0.0
  0
SPLINE
  5
1c5
100
AcDbEntity
  8
Ebene_1
 62
7
100
AcDbSpline
 70
8
 71
3
 72
8
 73
4
 74
0
 40
0
 40
0
 40
0
 40
0
 40
1
 40
1
 40
1
 40
1
 10
310.128910
 20
193.564450
 30
0.0
 10
309.503690
 20
193.967970
 30
0.0
 10
308.826960
 20
194.279160
 30
0.0
 10
308.072270
 20
194.478520
 30
0.0
  0
SPLINE
  5
1c6
100
AcDbEntity
  8
Ebene_1
 62
7
100
AcDbSpline
 70
8
 71
3
 72
8
 73
4
 74
0
 40
0
 40
0
 40
0
 40
0
 40
1
 40
1
 40
1
 40
1
 10
308.072270
 20
194.478520
 30
0.0
 10
301.499500
 20
196.214700
 30
0.0
 10
285.192140
 20
200.060350
 30
0.0
 10
282.091800
 20
203.966800
 30
0.0
  0
SPLINE
  5
1c7
100
AcDbEntity
  8
Ebene_1
 62
7
100
AcDbSpline
 70
8
 71
3
 72
8
 73
4
 74
0
 40
0
 40
0
 40
0
 40
0
 40
1
 40
1
 40
1
 40
1
 10
282.091800
 20
203.966800
 30
0.0
 10
279.994363
 20
207.485922
 30
0.0
 10
278.801282
 20
211.469789
 30
0.0
 10
278.619140
 20
215.562500
 30
0.0
  0
SPLINE
  5
1c8
100
AcDbEntity
  8
Ebene_1
 62
7
100
AcDbSpline
 70
8
 71
3
 72
8
 73
4
 74
0
 40
0
 40
0
 40
0
 40
0
 40
1
 40
1
 40
1
 40
1
 10
278.619140
 20
215.562500
 30
0.0
 10
278.619140
 20
215.562500
 30
0.0
 10
280.355470
 20
239.621480
 30
0.0
 10
280.355470
 20
244.830080
 30
0.0
  0
SPLINE
  5
1c9
100
AcDbEntity
  8
Ebene_1
 62
7
100
AcDbSpline
 70
8
 71
3
 72
8
 73
4
 74
0
 40
0
 40
0
 40
0
 40
0
 40
1
 40
1
 40
1
 40
1
 10
280.355470
 20
244.830080
 30
0.0
 10
280.355470
 20
250.038670
 30
0.0
 10
280.354590
 20
258.222660
 30
0.0
 10
281.718750
 20
258.222660
 30
0.0
  0
SPLINE
  5
1ca
100
AcDbEntity
  8
Ebene_1
 62
7
100
AcDbSpline
 70
8
 71
3
 72
8
 73
4
 74
0
 40
0
 40
0
 40
0
 40
0
 40
1
 40
1
 40
1
 40
1
 10
281.718750
 20
258.222660
 30
0.0
 10
282.357970
 20
258.222660
 30
0.0
 10
285.671260
 20
258.416320
 30
0.0
 10
290.041020
 20
258.556640
 30
0.0
  0
SPLINE
  5
1cb
100
AcDbEntity
  8
Ebene_1
 62
7
100
AcDbSpline
 70
8
 71
3
 72
8
 73
4
 74
0
 40
0
 40
0
 40
0
 40
0
 40
1
 40
1
 40
1
 40
1
 10
290.041020
 20
258.556640
 30
0.0
 10
289.821470
 20
258.906080
 30
0.0
 10
289.562350
 20
259.230920
 30
0.0
 10
289.349610
 20
259.583980
 30
0.0
  0
SPLINE
  5
1cc
100
AcDbEntity
  8
Ebene_1
 62
7
100
AcDbSpline
 70
8
 71
3
 72
8
 73
4
 74
0
 40
0
 40
0
 40
0
 40
0
 40
1
 40
1
 40
1
 40
1
 10
289.349610
 20
259.583980
 30
0.0
 10
287.979840
 20
261.857210
 30
0.0
 10
286.895000
 20
264.292480
 30
0.0
 10
285.888670
 20
266.753910
 30
0.0
  0
SPLINE
  5
1cd
100
AcDbEntity
  8
Ebene_1
 62
7
100
AcDbSpline
 70
8
 71
3
 72
8
 73
4
 74
0
 40
0
 40
0
 40
0
 40
0
 40
1
 40
1
 40
1
 40
1
 10
285.888670
 20
266.753910
 30
0.0
 10
283.805200
 20
266.845910
 30
0.0
 10
281.397230
 20
266.966800
 30
0.0
 10
280.417970
 20
266.966800
 30
0.0
  0
LWPOLYLINE
  5
1ce
100
AcDbEntity
  8
Ebene_1
 62
7
100
AcDbPolyline
 90
1
 70
1
 10
258.714840
 20
272.421880
 30
0.0
  0
SPLINE
  5
1cf
100
AcDbEntity
  8
Ebene_1
 62
7
100
AcDbSpline
 70
8
 71
3
 72
8
 73
4
 74
0
 40
0
 40
0
 40
0
 40
0
 40
1
 40
1
 40
1
 40
1
 10
220.312500
 20
265.835940
 30
0.0
 10
218.809800
 20
265.853380
 30
0.0
 10
216.705820
 20
264.842370
 30
0.0
 10
216.798830
 20
264.423830
 30
0.0
  0
SPLINE
  5
1d0
100
AcDbEntity
  8
Ebene_1
 62
7
100
AcDbSpline
 70
8
 71
3
 72
8
 73
4
 74
0
 40
0
 40
0
 40
0
 40
0
 40
1
 40
1
 40
1
 40
1
 10
216.798830
 20
264.423830
 30
0.0
 10
220.155769
 20
258.250119
 30
0.0
 10
224.101172
 20
252.415083
 30
0.0
 10
228.580080
 20
247.000000
 30
0.0
  0
SPLINE
  5
1d1
100
AcDbEntity
  8
Ebene_1
 62
7
100
AcDbSpline
 70
8
 71
3
 72
8
 73
4
 74
0
 40
0
 40
0
 40
0
 40
0
 40
1
 40
1
 40
1
 40
1
 10
228.580080
 20
247.000000
 30
0.0
 10
230.378290
 20
245.821860
 30
0.0
 10
229.570850
 20
247.620200
 30
0.0
 10
230.128910
 20
248.736330
 30
0.0
  0
SPLINE
  5
1d2
100
AcDbEntity
  8
Ebene_1
 62
7
100
AcDbSpline
 70
8
 71
3
 72
8
 73
4
 74
0
 40
0
 40
0
 40
0
 40
0
 40
1
 40
1
 40
1
 40
1
 10
230.128910
 20
248.736330
 30
0.0
 10
227.971647
 20
254.637847
 30
0.0
 10
225.075552
 20
260.242347
 30
0.0
 10
221.509770
 20
265.416020
 30
0.0
  0
SPLINE
  5
1d3
100
AcDbEntity
  8
Ebene_1
 62
7
100
AcDbSpline
 70
8
 71
3
 72
8
 73
4
 74
0
 40
0
 40
0
 40
0
 40
0
 40
1
 40
1
 40
1
 40
1
 10
221.509770
 20
265.416020
 30
0.0
 10
221.246240
 20
265.710550
 30
0.0
 10
220.813400
 20
265.830120
 30
0.0
 10
220.312500
 20
265.835940
 30
0.0
  0
LWPOLYLINE
  5
1d4
100
AcDbEntity
  8
Ebene_1
 62
7
100
AcDbPolyline
 90
1
 70
1
 10
280.417970
 20
266.966800
 30
0.0
  0
SPLINE
  5
1d5
100
AcDbEntity
  8
Ebene_1
 62
7
100
AcDbSpline
 70
8
 71
3
 72
8
 73
4
 74
0
 40
0
 40
0
 40
0
 40
0
 40
1
 40
1
 40
1
 40
1
 10
210.412110
 20
261.757810
 30
0.0
 10
208.711198
 20
261.466233
 30
0.0
 10
207.147347
 20
260.640525
 30
0.0
 10
205.947270
 20
259.400390
 30
0.0
  0
SPLINE
  5
1d6
100
AcDbEntity
  8
Ebene_1
 62
7
100
AcDbSpline
 70
8
 71
3
 72
8
 73
4
 74
0
 40
0
 40
0
 40
0
 40
0
 40
1
 40
1
 40
1
 40
1
 10
205.947270
 20
259.400390
 30
0.0
 10
211.291880
 20
250.097445
 30
0.0
 10
217.171542
 20
241.112305
 30
0.0
 10
223.556640
 20
232.490230
 30
0.0
  0
SPLINE
  5
1d7
100
AcDbEntity
  8
Ebene_1
 62
7
100
AcDbSpline
 70
8
 71
3
 72
8
 73
4
 74
0
 40
0
 40
0
 40
0
 40
0
 40
1
 40
1
 40
1
 40
1
 10
223.556640
 20
232.490230
 30
0.0
 10
224.362730
 20
231.684160
 30
0.0
 10
225.106540
 20
233.047960
 30
0.0
 10
226.470700
 20
234.412110
 30
0.0
  0
SPLINE
  5
1d8
100
AcDbEntity
  8
Ebene_1
 62
7
100
AcDbSpline
 70
8
 71
3
 72
8
 73
4
 74
0
 40
0
 40
0
 40
0
 40
0
 40
1
 40
1
 40
1
 40
1
 10
226.470700
 20
234.412110
 30
0.0
 10
227.834850
 20
235.776270
 30
0.0
 10
211.156200
 20
261.509780
 30
0.0
 10
210.412110
 20
261.757810
 30
0.0
  0
LWPOLYLINE
  5
1d9
100
AcDbEntity
  8
Ebene_1
 62
7
100
AcDbPolyline
 90
1
 70
1
 10
220.312500
 20
265.835940
 30
0.0
  0
SPLINE
  5
1da
100
AcDbEntity
  8
Ebene_1
 62
7
100
AcDbSpline
 70
8
 71
3
 72
8
 73
4
 74
0
 40
0
 40
0
 40
0
 40
0
 40
1
 40
1
 40
1
 40
1
 10
186.005860
 20
220.220700
 30
0.0
 10
186.254770
 20
218.799650
 30
0.0
 10
186.496480
 20
217.375610
 30
0.0
 10
186.732420
 20
215.955080
 30
0.0
  0
SPLINE
  5
1db
100
AcDbEntity
  8
Ebene_1
 62
7
100
AcDbSpline
 70
8
 71
3
 72
8
 73
4
 74
0
 40
0
 40
0
 40
0
 40
0
 40
1
 40
1
 40
1
 40
1
 10
186.732420
 20
215.955080
 30
0.0
 10
187.144630
 20
213.473330
 30
0.0
 10
187.562660
 20
210.988910
 30
0.0
 10
188.039060
 20
208.517580
 30
0.0
  0
SPLINE
  5
1dc
100
AcDbEntity
  8
Ebene_1
 62
7
100
AcDbSpline
 70
8
 71
3
 72
8
 73
4
 74
0
 40
0
 40
0
 40
0
 40
0
 40
1
 40
1
 40
1
 40
1
 10
188.039060
 20
208.517580
 30
0.0
 10
191.551224
 20
208.065585
 30
0.0
 10
195.089805
 20
207.850256
 30
0.0
 10
198.630860
 20
207.873050
 30
0.0
  0
SPLINE
  5
1dd
100
AcDbEntity
  8
Ebene_1
 62
7
100
AcDbSpline
 70
8
 71
3
 72
8
 73
4
 74
0
 40
0
 40
0
 40
0
 40
0
 40
1
 40
1
 40
1
 40
1
 10
198.630860
 20
207.873050
 30
0.0
 10
219.155210
 20
207.501010
 30
0.0
 10
239.306310
 20
209.794740
 30
0.0
 10
241.476560
 20
207.314450
 30
0.0
  0
SPLINE
  5
1de
100
AcDbEntity
  8
Ebene_1
 62
7
100
AcDbSpline
 70
8
 71
3
 72
8
 73
4
 74
0
 40
0
 40
0
 40
0
 40
0
 40
1
 40
1
 40
1
 40
1
 10
241.476560
 20
207.314450
 30
0.0
 10
243.646810
 20
204.834180
 30
0.0
 10
243.212550
 20
196.276730
 30
0.0
 10
238.748050
 20
188.091800
 30
0.0
  0
SPLINE
  5
1df
100
AcDbEntity
  8
Ebene_1
 62
7
100
AcDbSpline
 70
8
 71
3
 72
8
 73
4
 74
0
 40
0
 40
0
 40
0
 40
0
 40
1
 40
1
 40
1
 40
1
 10
238.748050
 20
188.091800
 30
0.0
 10
235.933965
 20
182.909019
 30
0.0
 10
233.468853
 20
177.544235
 30
0.0
 10
231.369140
 20
172.033200
 30
0.0
  0
SPLINE
  5
1e0
100
AcDbEntity
  8
Ebene_1
 62
7
100
AcDbSpline
 70
8
 71
3
 72
8
 73
4
 74
0
 40
0
 40
0
 40
0
 40
0
 40
1
 40
1
 40
1
 40
1
 10
231.369140
 20
172.033200
 30
0.0
 10
225.246143
 20
177.696571
 30
0.0
 10
218.695467
 20
182.879260
 30
0.0
 10
211.775390
 20
187.535160
 30
0.0
  0
SPLINE
  5
1e1
100
AcDbEntity
  8
Ebene_1
 62
7
100
AcDbSpline
 70
8
 71
3
 72
8
 73
4
 74
0
 40
0
 40
0
 40
0
 40
0
 40
1
 40
1
 40
1
 40
1
 10
211.775390
 20
187.535160
 30
0.0
 10
210.111711
 20
186.825750
 30
0.0
 10
209.216091
 20
185.007116
 30
0.0
 10
209.667970
 20
183.255860
 30
0.0
  0
SPLINE
  5
1e2
100
AcDbEntity
  8
Ebene_1
 62
7
100
AcDbSpline
 70
8
 71
3
 72
8
 73
4
 74
0
 40
0
 40
0
 40
0
 40
0
 40
1
 40
1
 40
1
 40
1
 10
209.667970
 20
183.255860
 30
0.0
 10
210.474060
 20
181.519660
 30
0.0
 10
228.270070
 20
169.489630
 30
0.0
 10
229.076170
 20
167.939450
 30
0.0
  0
SPLINE
  5
1e3
100
AcDbEntity
  8
Ebene_1
 62
7
100
AcDbSpline
 70
8
 71
3
 72
8
 73
4
 74
0
 40
0
 40
0
 40
0
 40
0
 40
1
 40
1
 40
1
 40
1
 10
229.076170
 20
167.939450
 30
0.0
 10
229.177564
 20
164.836459
 30
0.0
 10
229.039787
 20
161.730268
 30
0.0
 10
228.664060
 20
158.648440
 30
0.0
  0
SPLINE
  5
1e4
100
AcDbEntity
  8
Ebene_1
 62
7
100
AcDbSpline
 70
8
 71
3
 72
8
 73
4
 74
0
 40
0
 40
0
 40
0
 40
0
 40
1
 40
1
 40
1
 40
1
 10
228.664060
 20
158.648440
 30
0.0
 10
231.389840
 20
158.037790
 30
0.0
 10
234.123270
 20
157.400820
 30
0.0
 10
236.906250
 20
157.228520
 30
0.0
  0
SPLINE
  5
1e5
100
AcDbEntity
  8
Ebene_1
 62
7
100
AcDbSpline
 70
8
 71
3
 72
8
 73
4
 74
0
 40
0
 40
0
 40
0
 40
0
 40
1
 40
1
 40
1
 40
1
 10
236.906250
 20
157.228520
 30
0.0
 10
238.391540
 20
157.136560
 30
0.0
 10
239.884170
 20
157.158110
 30
0.0
 10
241.375000
 20
157.222660
 30
0.0
  0
SPLINE
  5
1e6
100
AcDbEntity
  8
Ebene_1
 62
7
100
AcDbSpline
 70
8
 71
3
 72
8
 73
4
 74
0
 40
0
 40
0
 40
0
 40
0
 40
1
 40
1
 40
1
 40
1
 10
241.375000
 20
157.222660
 30
0.0
 10
240.710848
 20
160.041057
 30
0.0
 10
240.473178
 20
162.943129
 30
0.0
 10
240.669920
 20
165.832030
 30
0.0
  0
SPLINE
  5
1e7
100
AcDbEntity
  8
Ebene_1
 62
7
100
AcDbSpline
 70
8
 71
3
 72
8
 73
4
 74
0
 40
0
 40
0
 40
0
 40
0
 40
1
 40
1
 40
1
 40
1
 10
240.669920
 20
165.832030
 30
0.0
 10
241.476020
 20
168.374320
 30
0.0
 10
255.179560
 20
196.030320
 30
0.0
 10
253.443360
 20
203.037110
 30
0.0
  0
SPLINE
  5
1e8
100
AcDbEntity
  8
Ebene_1
 62
7
100
AcDbSpline
 70
8
 71
3
 72
8
 73
4
 74
0
 40
0
 40
0
 40
0
 40
0
 40
1
 40
1
 40
1
 40
1
 10
253.443360
 20
203.037110
 30
0.0
 10
251.707150
 20
210.043910
 30
0.0
 10
248.980470
 20
217.173950
 30
0.0
 10
242.593750
 20
218.910160
 30
0.0
  0
SPLINE
  5
1e9
100
AcDbEntity
  8
Ebene_1
 62
7
100
AcDbSpline
 70
8
 71
3
 72
8
 73
4
 74
0
 40
0
 40
0
 40
0
 40
0
 40
1
 40
1
 40
1
 40
1
 10
242.593750
 20
218.910160
 30
0.0
 10
236.207030
 20
220.646340
 30
0.0
 10
225.540710
 20
218.910160
 30
0.0
 10
208.302730
 20
218.910160
 30
0.0
  0
SPLINE
  5
1ea
100
AcDbEntity
  8
Ebene_1
 62
7
100
AcDbSpline
 70
8
 71
3
 72
8
 73
4
 74
0
 40
0
 40
0
 40
0
 40
0
 40
1
 40
1
 40
1
 40
1
 10
208.302730
 20
218.910160
 30
0.0
 10
200.849942
 20
218.865234
 30
0.0
 10
193.402067
 20
219.302997
 30
0.0
 10
186.005860
 20
220.220700
 30
0.0
  0
LWPOLYLINE
  5
1eb
100
AcDbEntity
  8
Ebene_1
 62
7
100
AcDbPolyline
 90
1
 70
1
 10
210.412110
 20
261.757810
 30
0.0
  0
SPLINE
  5
1ec
100
AcDbEntity
  8
Ebene_1
 62
7
100
AcDbSpline
 70
8
 71
3
 72
8
 73
4
 74
0
 40
0
 40
0
 40
0
 40
0
 40
1
 40
1
 40
1
 40
1
 10
381.492190
 20
218.298830
 30
0.0
 10
379.047570
 20
218.200850
 30
0.0
 10
377.161250
 20
218.148740
 30
0.0
 10
375.783200
 20
218.146480
 30
0.0
  0
SPLINE
  5
1ed
100
AcDbEntity
  8
Ebene_1
 62
7
100
AcDbSpline
 70
8
 71
3
 72
8
 73
4
 74
0
 40
0
 40
0
 40
0
 40
0
 40
1
 40
1
 40
1
 40
1
 10
375.783200
 20
218.146480
 30
0.0
 10
378.623139
 20
215.699664
 30
0.0
 10
381.561097
 20
213.368978
 30
0.0
 10
384.589840
 20
211.160160
 30
0.0
  0
SPLINE
  5
1ee
100
AcDbEntity
  8
Ebene_1
 62
7
100
AcDbSpline
 70
8
 71
3
 72
8
 73
4
 74
0
 40
0
 40
0
 40
0
 40
0
 40
1
 40
1
 40
1
 40
1
 10
384.589840
 20
211.160160
 30
0.0
 10
386.140020
 20
210.602090
 30
0.0
 10
385.768100
 20
211.160300
 30
0.0
 10
386.326170
 20
212.896480
 30
0.0
  0
SPLINE
  5
1ef
100
AcDbEntity
  8
Ebene_1
 62
7
100
AcDbSpline
 70
8
 71
3
 72
8
 73
4
 74
0
 40
0
 40
0
 40
0
 40
0
 40
1
 40
1
 40
1
 40
1
 10
386.326170
 20
212.896480
 30
0.0
 10
384.795606
 20
214.767930
 30
0.0
 10
383.182690
 20
216.570489
 30
0.0
 10
381.492190
 20
218.298830
 30
0.0
  0
LWPOLYLINE
  5
1f0
100
AcDbEntity
  8
Ebene_1
 62
7
100
AcDbPolyline
 90
1
 70
1
 10
186.005860
 20
220.220700
 30
0.0
  0
SPLINE
  5
1f1
100
AcDbEntity
  8
Ebene_1
 62
7
100
AcDbSpline
 70
8
 71
3
 72
8
 73
4
 74
0
 40
0
 40
0
 40
0
 40
0
 40
1
 40
1
 40
1
 40
1
 10
368.791020
 20
209.417970
 30
0.0
 10
368.618180
 20
209.155480
 30
0.0
 10
368.390940
 20
208.766650
 30
0.0
 10
368.234380
 20
208.537110
 30
0.0
  0
SPLINE
  5
1f2
100
AcDbEntity
  8
Ebene_1
 62
7
100
AcDbSpline
 70
8
 71
3
 72
8
 73
4
 74
0
 40
0
 40
0
 40
0
 40
0
 40
1
 40
1
 40
1
 40
1
 10
368.234380
 20
208.537110
 30
0.0
 10
367.551990
 20
207.536730
 30
0.0
 10
366.841140
 20
206.554710
 30
0.0
 10
366.128910
 20
205.574220
 30
0.0
  0
SPLINE
  5
1f3
100
AcDbEntity
  8
Ebene_1
 62
7
100
AcDbSpline
 70
8
 71
3
 72
8
 73
4
 74
0
 40
0
 40
0
 40
0
 40
0
 40
1
 40
1
 40
1
 40
1
 10
366.128910
 20
205.574220
 30
0.0
 10
369.933032
 20
202.216681
 30
0.0
 10
373.835110
 20
198.971788
 30
0.0
 10
377.830080
 20
195.843750
 30
0.0
  0
SPLINE
  5
1f4
100
AcDbEntity
  8
Ebene_1
 62
7
100
AcDbSpline
 70
8
 71
3
 72
8
 73
4
 74
0
 40
0
 40
0
 40
0
 40
0
 40
1
 40
1
 40
1
 40
1
 10
377.830080
 20
195.843750
 30
0.0
 10
378.574170
 20
195.843750
 30
0.0
 10
379.194840
 20
197.022090
 30
0.0
 10
379.380860
 20
198.572270
 30
0.0
  0
SPLINE
  5
1f5
100
AcDbEntity
  8
Ebene_1
 62
7
100
AcDbSpline
 70
8
 71
3
 72
8
 73
4
 74
0
 40
0
 40
0
 40
0
 40
0
 40
1
 40
1
 40
1
 40
1
 10
379.380860
 20
198.572270
 30
0.0
 10
376.008161
 20
202.337770
 30
0.0
 10
372.474944
 20
205.956353
 30
0.0
 10
368.791020
 20
209.417970
 30
0.0
  0
LWPOLYLINE
  5
1f6
100
AcDbEntity
  8
Ebene_1
 62
7
100
AcDbPolyline
 90
1
 70
1
 10
381.492190
 20
218.298830
 30
0.0
  0
SPLINE
  5
1f7
100
AcDbEntity
  8
Ebene_1
 62
7
100
AcDbSpline
 70
8
 71
3
 72
8
 73
4
 74
0
 40
0
 40
0
 40
0
 40
0
 40
1
 40
1
 40
1
 40
1
 10
221.261720
 20
202.044920
 30
0.0
 10
221.261720
 20
202.044920
 30
0.0
 10
218.162580
 20
199.688870
 30
0.0
 10
217.976560
 20
198.386720
 30
0.0
  0
SPLINE
  5
1f8
100
AcDbEntity
  8
Ebene_1
 62
7
100
AcDbSpline
 70
8
 71
3
 72
8
 73
4
 74
0
 40
0
 40
0
 40
0
 40
0
 40
1
 40
1
 40
1
 40
1
 10
217.976560
 20
198.386720
 30
0.0
 10
221.832858
 20
193.823063
 30
0.0
 10
226.322372
 20
189.834722
 30
0.0
 10
231.308590
 20
186.542970
 30
0.0
  0
LWPOLYLINE
  5
1f9
100
AcDbEntity
  8
Ebene_1
 62
7
100
AcDbPolyline
 90
1
 70
1
 10
368.791020
 20
209.417970
 30
0.0
  0
SPLINE
  5
1fa
100
AcDbEntity
  8
Ebene_1
 62
7
100
AcDbSpline
 70
8
 71
3
 72
8
 73
4
 74
0
 40
0
 40
0
 40
0
 40
0
 40
1
 40
1
 40
1
 40
1
 10
231.308590
 20
186.914060
 30
0.0
 10
232.486720
 20
186.542020
 30
0.0
 10
233.230010
 20
188.278420
 30
0.0
 10
233.664060
 20
189.642580
 30
0.0
  0
SPLINE
  5
1fb
100
AcDbEntity
  8
Ebene_1
 62
7
100
AcDbSpline
 70
8
 71
3
 72
8
 73
4
 74
0
 40
0
 40
0
 40
0
 40
0
 40
1
 40
1
 40
1
 40
1
 10
233.664060
 20
189.642580
 30
0.0
 10
234.098110
 20
191.006740
 30
0.0
 10
222.811900
 20
200.866780
 30
0.0
 10
221.261720
 20
202.044920
 30
0.0
  0
LWPOLYLINE
  5
1fc
100
AcDbEntity
  8
Ebene_1
 62
7
100
AcDbPolyline
 90
2
 70
0
 10
231.308590
 20
186.542970
 30
0.0
 10
231.308590
 20
186.914060
 30
0.0
  0
SPLINE
  5
1fd
100
AcDbEntity
  8
Ebene_1
 62
7
100
AcDbSpline
 70
8
 71
3
 72
8
 73
4
 74
0
 40
0
 40
0
 40
0
 40
0
 40
1
 40
1
 40
1
 40
1
 10
360.394530
 20
198.675780
 30
0.0
 10
359.381650
 20
197.629230
 30
0.0
 10
358.386690
 20
196.566610
 30
0.0
 10
357.382810
 20
195.511720
 30
0.0
  0
SPLINE
  5
1fe
100
AcDbEntity
  8
Ebene_1
 62
7
100
AcDbSpline
 70
8
 71
3
 72
8
 73
4
 74
0
 40
0
 40
0
 40
0
 40
0
 40
1
 40
1
 40
1
 40
1
 10
357.382810
 20
195.511720
 30
0.0
 10
361.968978
 20
191.181334
 30
0.0
 10
366.721924
 20
187.031057
 30
0.0
 10
371.630860
 20
183.070310
 30
0.0
  0
SPLINE
  5
1ff
100
AcDbEntity
  8
Ebene_1
 62
7
100
AcDbSpline
 70
8
 71
3
 72
8
 73
4
 74
0
 40
0
 40
0
 40
0
 40
0
 40
1
 40
1
 40
1
 40
1
 10
371.630860
 20
183.070310
 30
0.0
 10
373.553090
 20
183.070310
 30
0.0
 10
372.745640
 20
183.815070
 30
0.0
 10
373.179690
 20
185.365230
 30
0.0
  0
SPLINE
  5
200
100
AcDbEntity
  8
Ebene_1
 62
7
100
AcDbSpline
 70
8
 71
3
 72
8
 73
4
 74
0
 40
0
 40
0
 40
0
 40
0
 40
1
 40
1
 40
1
 40
1
 10
373.179690
 20
185.365230
 30
0.0
 10
369.205381
 20
190.069465
 30
0.0
 10
364.934987
 20
194.515345
 30
0.0
 10
360.394530
 20
198.675780
 30
0.0
  0
LWPOLYLINE
  5
201
100
AcDbEntity
  8
Ebene_1
 62
7
100
AcDbPolyline
 90
1
 70
1
 10
221.261720
 20
202.044920
 30
0.0
  0
SPLINE
  5
202
100
AcDbEntity
  8
Ebene_1
 62
7
100
AcDbSpline
 70
8
 71
3
 72
8
 73
4
 74
0
 40
0
 40
0
 40
0
 40
0
 40
1
 40
1
 40
1
 40
1
 10
352.927730
 20
190.763670
 30
0.0
 10
352.184410
 20
189.968020
 30
0.0
 10
351.462080
 20
189.152000
 30
0.0
 10
350.693360
 20
188.380860
 30
0.0
  0
SPLINE
  5
203
100
AcDbEntity
  8
Ebene_1
 62
7
100
AcDbSpline
 70
8
 71
3
 72
8
 73
4
 74
0
 40
0
 40
0
 40
0
 40
0
 40
1
 40
1
 40
1
 40
1
 10
350.693360
 20
188.380860
 30
0.0
 10
350.347730
 20
188.034140
 30
0.0
 10
349.975510
 20
187.714770
 30
0.0
 10
349.625000
 20
187.373050
 30
0.0
  0
SPLINE
  5
204
100
AcDbEntity
  8
Ebene_1
 62
7
100
AcDbSpline
 70
8
 71
3
 72
8
 73
4
 74
0
 40
0
 40
0
 40
0
 40
0
 40
1
 40
1
 40
1
 40
1
 10
349.625000
 20
187.373050
 30
0.0
 10
355.338146
 20
182.471199
 30
0.0
 10
361.252078
 20
177.808338
 30
0.0
 10
367.351560
 20
173.396480
 30
0.0
  0
SPLINE
  5
205
100
AcDbEntity
  8
Ebene_1
 62
7
100
AcDbSpline
 70
8
 71
3
 72
8
 73
4
 74
0
 40
0
 40
0
 40
0
 40
0
 40
1
 40
1
 40
1
 40
1
 10
367.351560
 20
173.396480
 30
0.0
 10
368.095640
 20
172.776410
 30
0.0
 10
368.714840
 20
173.768180
 30
0.0
 10
368.714840
 20
175.318360
 30
0.0
  0
SPLINE
  5
206
100
AcDbEntity
  8
Ebene_1
 62
7
100
AcDbSpline
 70
8
 71
3
 72
8
 73
4
 74
0
 40
0
 40
0
 40
0
 40
0
 40
1
 40
1
 40
1
 40
1
 10
368.714840
 20
175.318360
 30
0.0
 10
363.772339
 20
180.783896
 30
0.0
 10
358.500123
 20
185.941966
 30
0.0
 10
352.927730
 20
190.763670
 30
0.0
  0
LWPOLYLINE
  5
207
100
AcDbEntity
  8
Ebene_1
 62
7
100
AcDbPolyline
 90
1
 70
1
 10
360.394530
 20
198.675780
 30
0.0
  0
SPLINE
  5
208
100
AcDbEntity
  8
Ebene_1
 62
7
100
AcDbSpline
 70
8
 71
3
 72
8
 73
4
 74
0
 40
0
 40
0
 40
0
 40
0
 40
1
 40
1
 40
1
 40
1
 10
278.933590
 20
181.496090
 30
0.0
 10
278.678420
 20
181.492820
 30
0.0
 10
278.503350
 20
181.442500
 30
0.0
 10
278.433590
 20
181.333980
 30
0.0
  0
SPLINE
  5
209
100
AcDbEntity
  8
Ebene_1
 62
7
100
AcDbSpline
 70
8
 71
3
 72
8
 73
4
 74
0
 40
0
 40
0
 40
0
 40
0
 40
1
 40
1
 40
1
 40
1
 10
278.433590
 20
181.333980
 30
0.0
 10
277.875520
 20
180.465900
 30
0.0
 10
275.890630
 20
178.978450
 30
0.0
 10
275.890620
 20
178.234380
 30
0.0
  0
SPLINE
  5
20a
100
AcDbEntity
  8
Ebene_1
 62
7
100
AcDbSpline
 70
8
 71
3
 72
8
 73
4
 74
0
 40
0
 40
0
 40
0
 40
0
 40
1
 40
1
 40
1
 40
1
 10
275.890620
 20
178.234380
 30
0.0
 10
278.887339
 20
176.823903
 30
0.0
 10
282.090708
 20
175.902719
 30
0.0
 10
285.378910
 20
175.505860
 30
0.0
  0
SPLINE
  5
20b
100
AcDbEntity
  8
Ebene_1
 62
7
100
AcDbSpline
 70
8
 71
3
 72
8
 73
4
 74
0
 40
0
 40
0
 40
0
 40
0
 40
1
 40
1
 40
1
 40
1
 10
285.378910
 20
175.505860
 30
0.0
 10
286.371030
 20
175.319840
 30
0.0
 10
286.185070
 20
175.691060
 30
0.0
 10
286.371090
 20
177.613280
 30
0.0
  0
SPLINE
  5
20c
100
AcDbEntity
  8
Ebene_1
 62
7
100
AcDbSpline
 70
8
 71
3
 72
8
 73
4
 74
0
 40
0
 40
0
 40
0
 40
0
 40
1
 40
1
 40
1
 40
1
 10
286.371090
 20
177.613280
 30
0.0
 10
286.371090
 20
179.186710
 30
0.0
 10
280.719810
 20
181.518990
 30
0.0
 10
278.933590
 20
181.496090
 30
0.0
  0
LWPOLYLINE
  5
20d
100
AcDbEntity
  8
Ebene_1
 62
7
100
AcDbPolyline
 90
1
 70
1
 10
352.927730
 20
190.763670
 30
0.0
  0
SPLINE
  5
20e
100
AcDbEntity
  8
Ebene_1
 62
7
100
AcDbSpline
 70
8
 71
3
 72
8
 73
4
 74
0
 40
0
 40
0
 40
0
 40
0
 40
1
 40
1
 40
1
 40
1
 10
343.726560
 20
177.054690
 30
0.0
 10
343.292510
 20
177.054690
 30
0.0
 10
341.185070
 20
174.762110
 30
0.0
 10
341.371090
 20
173.583980
 30
0.0
  0
SPLINE
  5
20f
100
AcDbEntity
  8
Ebene_1
 62
7
100
AcDbSpline
 70
8
 71
3
 72
8
 73
4
 74
0
 40
0
 40
0
 40
0
 40
0
 40
1
 40
1
 40
1
 40
1
 10
341.371090
 20
173.583980
 30
0.0
 10
347.646551
 20
168.023729
 30
0.0
 10
354.251642
 20
162.847014
 30
0.0
 10
361.150390
 20
158.082030
 30
0.0
  0
SPLINE
  5
210
100
AcDbEntity
  8
Ebene_1
 62
7
100
AcDbSpline
 70
8
 71
3
 72
8
 73
4
 74
0
 40
0
 40
0
 40
0
 40
0
 40
1
 40
1
 40
1
 40
1
 10
361.150390
 20
158.082030
 30
0.0
 10
361.708450
 20
158.082030
 30
0.0
 10
362.701170
 20
158.825290
 30
0.0
 10
362.701170
 20
160.189450
 30
0.0
  0
SPLINE
  5
211
100
AcDbEntity
  8
Ebene_1
 62
7
100
AcDbSpline
 70
8
 71
3
 72
8
 73
4
 74
0
 40
0
 40
0
 40
0
 40
0
 40
1
 40
1
 40
1
 40
1
 10
362.701170
 20
160.189450
 30
0.0
 10
357.112931
 20
166.535213
 30
0.0
 10
350.736375
 20
172.140544
 30
0.0
 10
343.726560
 20
176.869140
 30
0.0
  0
LWPOLYLINE
  5
212
100
AcDbEntity
  8
Ebene_1
 62
7
100
AcDbPolyline
 90
1
 70
1
 10
278.933590
 20
181.496090
 30
0.0
  0
SPLINE
  5
213
100
AcDbEntity
  8
Ebene_1
 62
7
100
AcDbSpline
 70
8
 71
3
 72
8
 73
4
 74
0
 40
0
 40
0
 40
0
 40
0
 40
1
 40
1
 40
1
 40
1
 10
209.853520
 20
171.847660
 30
0.0
 10
208.793140
 20
172.019610
 30
0.0
 10
207.905840
 20
170.893290
 30
0.0
 10
207.316410
 20
169.554690
 30
0.0
  0
SPLINE
  5
214
100
AcDbEntity
  8
Ebene_1
 62
7
100
AcDbSpline
 70
8
 71
3
 72
8
 73
4
 74
0
 40
0
 40
0
 40
0
 40
0
 40
1
 40
1
 40
1
 40
1
 10
207.316410
 20
169.554690
 30
0.0
 10
208.682600
 20
168.400450
 30
0.0
 10
210.166390
 20
167.374820
 30
0.0
 10
211.601560
 20
166.302730
 30
0.0
  0
SPLINE
  5
215
100
AcDbEntity
  8
Ebene_1
 62
7
100
AcDbSpline
 70
8
 71
3
 72
8
 73
4
 74
0
 40
0
 40
0
 40
0
 40
0
 40
1
 40
1
 40
1
 40
1
 10
211.601560
 20
166.302730
 30
0.0
 10
212.920630
 20
165.317390
 30
0.0
 10
214.205550
 20
164.274480
 30
0.0
 10
215.615230
 20
163.423830
 30
0.0
  0
SPLINE
  5
216
100
AcDbEntity
  8
Ebene_1
 62
7
100
AcDbSpline
 70
8
 71
3
 72
8
 73
4
 74
0
 40
0
 40
0
 40
0
 40
0
 40
1
 40
1
 40
1
 40
1
 10
215.615230
 20
163.423830
 30
0.0
 10
217.508550
 20
162.281350
 30
0.0
 10
219.478780
 20
161.234730
 30
0.0
 10
221.548830
 20
160.457030
 30
0.0
  0
SPLINE
  5
217
100
AcDbEntity
  8
Ebene_1
 62
7
100
AcDbSpline
 70
8
 71
3
 72
8
 73
4
 74
0
 40
0
 40
0
 40
0
 40
0
 40
1
 40
1
 40
1
 40
1
 10
221.548830
 20
160.457030
 30
0.0
 10
222.965910
 20
159.924650
 30
0.0
 10
224.443720
 20
159.579510
 30
0.0
 10
225.925780
 20
159.253910
 30
0.0
  0
SPLINE
  5
218
100
AcDbEntity
  8
Ebene_1
 62
7
100
AcDbSpline
 70
8
 71
3
 72
8
 73
4
 74
0
 40
0
 40
0
 40
0
 40
0
 40
1
 40
1
 40
1
 40
1
 10
225.925780
 20
159.253910
 30
0.0
 10
220.842431
 20
163.790305
 30
0.0
 10
215.474045
 20
167.996814
 30
0.0
 10
209.853520
 20
171.847660
 30
0.0
  0
LWPOLYLINE
  5
219
100
AcDbEntity
  8
Ebene_1
 62
7
100
AcDbPolyline
 90
3
 70
0
 10
343.726560
 20
176.869140
 30
0.0
 10
343.726560
 20
177.054690
 30
0.0
 10
343.726560
 20
177.054690
 30
0.0
  0
SPLINE
  5
21a
100
AcDbEntity
  8
Ebene_1
 62
7
100
AcDbSpline
 70
8
 71
3
 72
8
 73
4
 74
0
 40
0
 40
0
 40
0
 40
0
 40
1
 40
1
 40
1
 40
1
 10
339.324220
 20
165.646480
 30
0.0
 10
338.146090
 20
165.646480
 30
0.0
 10
336.782210
 20
163.289470
 30
0.0
 10
336.410160
 20
162.359380
 30
0.0
  0
SPLINE
  5
21b
100
AcDbEntity
  8
Ebene_1
 62
7
100
AcDbSpline
 70
8
 71
3
 72
8
 73
4
 74
0
 40
0
 40
0
 40
0
 40
0
 40
1
 40
1
 40
1
 40
1
 10
336.410160
 20
162.359380
 30
0.0
 10
342.349324
 20
156.210723
 30
0.0
 10
348.846616
 20
150.626855
 30
0.0
 10
355.818360
 20
145.679690
 30
0.0
  0
SPLINE
  5
21c
100
AcDbEntity
  8
Ebene_1
 62
7
100
AcDbSpline
 70
8
 71
3
 72
8
 73
4
 74
0
 40
0
 40
0
 40
0
 40
0
 40
1
 40
1
 40
1
 40
1
 10
355.818360
 20
145.679690
 30
0.0
 10
357.368540
 20
145.121620
 30
0.0
 10
356.749130
 20
145.679820
 30
0.0
 10
358.113280
 20
147.416020
 30
0.0
  0
SPLINE
  5
21d
100
AcDbEntity
  8
Ebene_1
 62
7
100
AcDbSpline
 70
8
 71
3
 72
8
 73
4
 74
0
 40
0
 40
0
 40
0
 40
0
 40
1
 40
1
 40
1
 40
1
 10
358.113280
 20
147.416020
 30
0.0
 10
359.477440
 20
149.152200
 30
0.0
 10
340.502360
 20
165.646480
 30
0.0
 10
339.324220
 20
165.646480
 30
0.0
  0
LWPOLYLINE
  5
21e
100
AcDbEntity
  8
Ebene_1
 62
7
100
AcDbPolyline
 90
1
 70
1
 10
209.853520
 20
171.847660
 30
0.0
  0
SPLINE
  5
21f
100
AcDbEntity
  8
Ebene_1
 62
7
100
AcDbSpline
 70
8
 71
3
 72
8
 73
4
 74
0
 40
0
 40
0
 40
0
 40
0
 40
1
 40
1
 40
1
 40
1
 10
374.383820
 20
24.095348
 30
0.0
 10
353.083765
 20
24.095348
 30
0.0
 10
335.752892
 20
41.427187
 30
0.0
 10
335.752892
 20
62.726277
 30
0.0
  0
SPLINE
  5
220
100
AcDbEntity
  8
Ebene_1
 62
7
100
AcDbSpline
 70
8
 71
3
 72
8
 73
4
 74
0
 40
0
 40
0
 40
0
 40
0
 40
1
 40
1
 40
1
 40
1
 10
335.752892
 20
62.726277
 30
0.0
 10
335.752892
 20
84.025366
 30
0.0
 10
353.084731
 20
101.356239
 30
0.0
 10
374.383820
 20
101.356239
 30
0.0
  0
SPLINE
  5
221
100
AcDbEntity
  8
Ebene_1
 62
7
100
AcDbSpline
 70
8
 71
3
 72
8
 73
4
 74
0
 40
0
 40
0
 40
0
 40
0
 40
1
 40
1
 40
1
 40
1
 10
374.383820
 20
101.356239
 30
0.0
 10
395.682909
 20
101.356239
 30
0.0
 10
413.013782
 20
84.025366
 30
0.0
 10
413.013782
 20
62.726277
 30
0.0
  0
SPLINE
  5
222
100
AcDbEntity
  8
Ebene_1
 62
7
100
AcDbSpline
 70
8
 71
3
 72
8
 73
4
 74
0
 40
0
 40
0
 40
0
 40
0
 40
1
 40
1
 40
1
 40
1
 10
413.013782
 20
62.726277
 30
0.0
 10
413.013782
 20
41.427187
 30
0.0
 10
395.683876
 20
24.095348
 30
0.0
 10
374.383820
 20
24.095348
 30
0.0
  0
LWPOLYLINE
  5
223
100
AcDbEntity
  8
Ebene_1
 62
7
100
AcDbPolyline
 90
1
 70
1
 10
339.324220
 20
165.646480
 30
0.0
  0
SPLINE
  5
224
100
AcDbEntity
  8
Ebene_1
 62
7
100
AcDbSpline
 70
8
 71
3
 72
8
 73
4
 74
0
 40
0
 40
0
 40
0
 40
0
 40
1
 40
1
 40
1
 40
1
 10
374.383820
 20
93.631406
 30
0.0
 10
357.338945
 20
93.631406
 30
0.0
 10
343.479657
 20
79.771152
 30
0.0
 10
343.479657
 20
62.727243
 30
0.0
  0
SPLINE
  5
225
100
AcDbEntity
  8
Ebene_1
 62
7
100
AcDbSpline
 70
8
 71
3
 72
8
 73
4
 74
0
 40
0
 40
0
 40
0
 40
0
 40
1
 40
1
 40
1
 40
1
 10
343.479657
 20
62.727243
 30
0.0
 10
343.479657
 20
45.683334
 30
0.0
 10
357.339911
 20
31.823080
 30
0.0
 10
374.383820
 20
31.823080
 30
0.0
  0
SPLINE
  5
226
100
AcDbEntity
  8
Ebene_1
 62
7
100
AcDbSpline
 70
8
 71
3
 72
8
 73
4
 74
0
 40
0
 40
0
 40
0
 40
0
 40
1
 40
1
 40
1
 40
1
 10
374.383820
 20
31.823080
 30
0.0
 10
391.420966
 20
31.823080
 30
0.0
 10
405.287983
 20
45.683334
 30
0.0
 10
405.287983
 20
62.727243
 30
0.0
  0
SPLINE
  5
227
100
AcDbEntity
  8
Ebene_1
 62
7
100
AcDbSpline
 70
8
 71
3
 72
8
 73
4
 74
0
 40
0
 40
0
 40
0
 40
0
 40
1
 40
1
 40
1
 40
1
 10
405.287983
 20
62.727243
 30
0.0
 10
405.287983
 20
79.771152
 30
0.0
 10
391.420966
 20
93.631406
 30
0.0
 10
374.383820
 20
93.631406
 30
0.0
  0
LWPOLYLINE
  5
228
100
AcDbEntity
  8
Ebene_1
 62
7
100
AcDbPolyline
 90
1
 70
1
 10
374.383820
 20
24.095348
 30
0.0
  0
SPLINE
  5
229
100
AcDbEntity
  8
Ebene_1
 62
7
100
AcDbSpline
 70
8
 71
3
 72
8
 73
4
 74
0
 40
0
 40
0
 40
0
 40
0
 40
1
 40
1
 40
1
 40
1
 10
385.972519
 20
62.727243
 30
0.0
 10
379.582019
 20
62.727243
 30
0.0
 10
374.383820
 20
67.925442
 30
0.0
 10
374.383820
 20
74.315941
 30
0.0
  0
SPLINE
  5
22a
100
AcDbEntity
  8
Ebene_1
 62
7
100
AcDbSpline
 70
8
 71
3
 72
8
 73
4
 74
0
 40
0
 40
0
 40
0
 40
0
 40
1
 40
1
 40
1
 40
1
 10
374.383820
 20
74.315941
 30
0.0
 10
374.383820
 20
80.706441
 30
0.0
 10
379.582019
 20
85.904640
 30
0.0
 10
385.972519
 20
85.904640
 30
0.0
  0
SPLINE
  5
22b
100
AcDbEntity
  8
Ebene_1
 62
7
100
AcDbSpline
 70
8
 71
3
 72
8
 73
4
 74
0
 40
0
 40
0
 40
0
 40
0
 40
1
 40
1
 40
1
 40
1
 10
385.972519
 20
85.904640
 30
0.0
 10
392.363019
 20
85.904640
 30
0.0
 10
397.561218
 20
80.706441
 30
0.0
 10
397.561218
 20
74.315941
 30
0.0
  0
SPLINE
  5
22c
100
AcDbEntity
  8
Ebene_1
 62
7
100
AcDbSpline
 70
8
 71
3
 72
8
 73
4
 74
0
 40
0
 40
0
 40
0
 40
0
 40
1
 40
1
 40
1
 40
1
 10
397.561218
 20
74.315941
 30
0.0
 10
397.561218
 20
67.925442
 30
0.0
 10
392.363985
 20
62.727243
 30
0.0
 10
385.972519
 20
62.727243
 30
0.0
  0
LWPOLYLINE
  5
22d
100
AcDbEntity
  8
Ebene_1
 62
7
100
AcDbPolyline
 90
1
 70
1
 10
374.383820
 20
93.631406
 30
0.0
  0
SPLINE
  5
22e
100
AcDbEntity
  8
Ebene_1
 62
7
100
AcDbSpline
 70
8
 71
3
 72
8
 73
4
 74
0
 40
0
 40
0
 40
0
 40
0
 40
1
 40
1
 40
1
 40
1
 10
385.972519
 20
78.178841
 30
0.0
 10
383.839542
 20
78.177875
 30
0.0
 10
382.110687
 20
76.448918
 30
0.0
 10
382.109619
 20
74.315941
 30
0.0
  0
SPLINE
  5
22f
100
AcDbEntity
  8
Ebene_1
 62
7
100
AcDbSpline
 70
8
 71
3
 72
8
 73
4
 74
0
 40
0
 40
0
 40
0
 40
0
 40
1
 40
1
 40
1
 40
1
 10
382.109619
 20
74.315941
 30
0.0
 10
382.110586
 20
72.182965
 30
0.0
 10
383.839542
 20
70.454110
 30
0.0
 10
385.972519
 20
70.453042
 30
0.0
  0
SPLINE
  5
230
100
AcDbEntity
  8
Ebene_1
 62
7
100
AcDbSpline
 70
8
 71
3
 72
8
 73
4
 74
0
 40
0
 40
0
 40
0
 40
0
 40
1
 40
1
 40
1
 40
1
 10
385.972519
 20
70.453042
 30
0.0
 10
388.100109
 20
70.453042
 30
0.0
 10
389.835419
 20
72.188351
 30
0.0
 10
389.835419
 20
74.315941
 30
0.0
  0
SPLINE
  5
231
100
AcDbEntity
  8
Ebene_1
 62
7
100
AcDbSpline
 70
8
 71
3
 72
8
 73
4
 74
0
 40
0
 40
0
 40
0
 40
0
 40
1
 40
1
 40
1
 40
1
 10
389.835419
 20
74.315941
 30
0.0
 10
389.835419
 20
76.443531
 30
0.0
 10
388.100109
 20
78.178841
 30
0.0
 10
385.972519
 20
78.178841
 30
0.0
  0
LWPOLYLINE
  5
232
100
AcDbEntity
  8
Ebene_1
 62
7
100
AcDbPolyline
 90
1
 70
1
 10
385.972519
 20
62.727243
 30
0.0
  0
SPLINE
  5
233
100
AcDbEntity
  8
Ebene_1
 62
7
100
AcDbSpline
 70
8
 71
3
 72
8
 73
4
 74
0
 40
0
 40
0
 40
0
 40
0
 40
1
 40
1
 40
1
 40
1
 10
84.652366
 20
471.951136
 30
0.0
 10
77.646879
 20
471.951136
 30
0.0
 10
70.643036
 20
469.396883
 30
0.0
 10
65.535182
 20
464.289030
 30
0.0
  0
SPLINE
  5
234
100
AcDbEntity
  8
Ebene_1
 62
7
100
AcDbSpline
 70
8
 71
3
 72
8
 73
4
 74
0
 40
0
 40
0
 40
0
 40
0
 40
1
 40
1
 40
1
 40
1
 10
65.535182
 20
464.289030
 30
0.0
 10
60.426850
 20
459.188423
 30
0.0
 10
57.611359
 20
452.398091
 30
0.0
 10
57.611359
 20
445.169896
 30
0.0
  0
SPLINE
  5
235
100
AcDbEntity
  8
Ebene_1
 62
7
100
AcDbSpline
 70
8
 71
3
 72
8
 73
4
 74
0
 40
0
 40
0
 40
0
 40
0
 40
1
 40
1
 40
1
 40
1
 10
57.611359
 20
445.169896
 30
0.0
 10
57.611359
 20
438.165550
 30
0.0
 10
60.279812
 20
431.579359
 30
0.0
 10
65.101591
 20
426.527323
 30
0.0
  0
SPLINE
  5
236
100
AcDbEntity
  8
Ebene_1
 62
7
100
AcDbSpline
 70
8
 71
3
 72
8
 73
4
 74
0
 40
0
 40
0
 40
0
 40
0
 40
1
 40
1
 40
1
 40
1
 10
65.101591
 20
426.527323
 30
0.0
 10
65.072238
 20
426.524579
 30
0.0
 10
65.019985
 20
426.505492
 30
0.0
 10
64.992216
 20
426.503888
 30
0.0
  0
SPLINE
  5
237
100
AcDbEntity
  8
Ebene_1
 62
7
100
AcDbSpline
 70
8
 71
3
 72
8
 73
4
 74
0
 40
0
 40
0
 40
0
 40
0
 40
1
 40
1
 40
1
 40
1
 10
64.992216
 20
426.503888
 30
0.0
 10
63.457612
 20
427.559271
 30
0.0
 10
61.388317
 20
427.368688
 30
0.0
 10
60.072295
 20
426.050761
 30
0.0
  0
SPLINE
  5
238
100
AcDbEntity
  8
Ebene_1
 62
7
100
AcDbSpline
 70
8
 71
3
 72
8
 73
4
 74
0
 40
0
 40
0
 40
0
 40
0
 40
1
 40
1
 40
1
 40
1
 10
60.072295
 20
426.050761
 30
0.0
 10
59.347648
 20
425.326455
 30
0.0
 10
58.940517
 20
424.343881
 30
0.0
 10
58.940517
 20
423.319317
 30
0.0
  0
SPLINE
  5
239
100
AcDbEntity
  8
Ebene_1
 62
7
100
AcDbSpline
 70
8
 71
3
 72
8
 73
4
 74
0
 40
0
 40
0
 40
0
 40
0
 40
1
 40
1
 40
1
 40
1
 10
58.940517
 20
423.319317
 30
0.0
 10
58.940517
 20
422.294753
 30
0.0
 10
59.347648
 20
421.312179
 30
0.0
 10
60.072295
 20
420.587874
 30
0.0
  0
SPLINE
  5
23a
100
AcDbEntity
  8
Ebene_1
 62
7
100
AcDbSpline
 70
8
 71
3
 72
8
 73
4
 74
0
 40
0
 40
0
 40
0
 40
0
 40
1
 40
1
 40
1
 40
1
 10
60.072295
 20
420.587874
 30
0.0
 10
61.317737
 20
419.343398
 30
0.0
 10
62.894270
 20
418.808578
 30
0.0
 10
64.689479
 20
418.808578
 30
0.0
  0
SPLINE
  5
23b
100
AcDbEntity
  8
Ebene_1
 62
7
100
AcDbSpline
 70
8
 71
3
 72
8
 73
4
 74
0
 40
0
 40
0
 40
0
 40
0
 40
1
 40
1
 40
1
 40
1
 10
64.689479
 20
418.808578
 30
0.0
 10
66.993504
 20
418.808578
 30
0.0
 10
69.650233
 20
419.696112
 30
0.0
 10
72.396510
 20
421.076157
 30
0.0
  0
SPLINE
  5
23c
100
AcDbEntity
  8
Ebene_1
 62
7
100
AcDbSpline
 70
8
 71
3
 72
8
 73
4
 74
0
 40
0
 40
0
 40
0
 40
0
 40
1
 40
1
 40
1
 40
1
 10
72.396510
 20
421.076157
 30
0.0
 10
76.149943
 20
419.160828
 30
0.0
 10
80.320242
 20
418.128889
 30
0.0
 10
84.654317
 20
418.128889
 30
0.0
  0
SPLINE
  5
23d
100
AcDbEntity
  8
Ebene_1
 62
7
100
AcDbSpline
 70
8
 71
3
 72
8
 73
4
 74
0
 40
0
 40
0
 40
0
 40
0
 40
1
 40
1
 40
1
 40
1
 10
84.654317
 20
418.128889
 30
0.0
 10
91.874785
 20
418.128889
 30
0.0
 10
98.664130
 20
420.943390
 30
0.0
 10
103.771501
 20
426.050761
 30
0.0
  0
SPLINE
  5
23e
100
AcDbEntity
  8
Ebene_1
 62
7
100
AcDbSpline
 70
8
 71
3
 72
8
 73
4
 74
0
 40
0
 40
0
 40
0
 40
0
 40
1
 40
1
 40
1
 40
1
 10
103.771501
 20
426.050761
 30
0.0
 10
108.879833
 20
431.159098
 30
0.0
 10
111.693373
 20
437.949429
 30
0.0
 10
111.693373
 20
445.169896
 30
0.0
  0
SPLINE
  5
23f
100
AcDbEntity
  8
Ebene_1
 62
7
100
AcDbSpline
 70
8
 71
3
 72
8
 73
4
 74
0
 40
0
 40
0
 40
0
 40
0
 40
1
 40
1
 40
1
 40
1
 10
111.693373
 20
445.169896
 30
0.0
 10
111.693373
 20
449.509218
 30
0.0
 10
110.661883
 20
453.682607
 30
0.0
 10
108.746105
 20
457.435517
 30
0.0
  0
SPLINE
  5
240
100
AcDbEntity
  8
Ebene_1
 62
7
100
AcDbSpline
 70
8
 71
3
 72
8
 73
4
 74
0
 40
0
 40
0
 40
0
 40
0
 40
1
 40
1
 40
1
 40
1
 10
108.746105
 20
457.435517
 30
0.0
 10
111.196935
 20
462.316812
 30
0.0
 10
112.084702
 20
466.911725
 30
0.0
 10
109.236340
 20
469.759731
 30
0.0
  0
SPLINE
  5
241
100
AcDbEntity
  8
Ebene_1
 62
7
100
AcDbSpline
 70
8
 71
3
 72
8
 73
4
 74
0
 40
0
 40
0
 40
0
 40
0
 40
1
 40
1
 40
1
 40
1
 10
109.236340
 20
469.759731
 30
0.0
 10
108.512034
 20
470.484378
 30
0.0
 10
107.529460
 20
470.891510
 30
0.0
 10
106.504896
 20
470.891510
 30
0.0
  0
SPLINE
  5
242
100
AcDbEntity
  8
Ebene_1
 62
7
100
AcDbSpline
 70
8
 71
3
 72
8
 73
4
 74
0
 40
0
 40
0
 40
0
 40
0
 40
1
 40
1
 40
1
 40
1
 10
106.504896
 20
470.891510
 30
0.0
 10
105.480332
 20
470.891510
 30
0.0
 10
104.497758
 20
470.484378
 30
0.0
 10
103.773453
 20
469.759731
 30
0.0
  0
SPLINE
  5
243
100
AcDbEntity
  8
Ebene_1
 62
7
100
AcDbSpline
 70
8
 71
3
 72
8
 73
4
 74
0
 40
0
 40
0
 40
0
 40
0
 40
1
 40
1
 40
1
 40
1
 10
103.773453
 20
469.759731
 30
0.0
 10
102.453215
 20
468.445583
 30
0.0
 10
102.262440
 20
466.375026
 30
0.0
 10
103.320325
 20
464.841764
 30
0.0
  0
SPLINE
  5
244
100
AcDbEntity
  8
Ebene_1
 62
7
100
AcDbSpline
 70
8
 71
3
 72
8
 73
4
 74
0
 40
0
 40
0
 40
0
 40
0
 40
1
 40
1
 40
1
 40
1
 10
103.320325
 20
464.841764
 30
0.0
 10
103.318523
 20
464.810467
 30
0.0
 10
103.296223
 20
464.752010
 30
0.0
 10
103.292982
 20
464.718717
 30
0.0
  0
SPLINE
  5
245
100
AcDbEntity
  8
Ebene_1
 62
7
100
AcDbSpline
 70
8
 71
3
 72
8
 73
4
 74
0
 40
0
 40
0
 40
0
 40
0
 40
1
 40
1
 40
1
 40
1
 10
103.292982
 20
464.718717
 30
0.0
 10
98.229438
 20
469.525542
 30
0.0
 10
91.448281
 20
471.951136
 30
0.0
 10
84.652366
 20
471.951136
 30
0.0
  0
LWPOLYLINE
  5
246
100
AcDbEntity
  8
Ebene_1
 62
7
100
AcDbPolyline
 90
1
 70
1
 10
385.972519
 20
78.178841
 30
0.0
  0
SPLINE
  5
247
100
AcDbEntity
  8
Ebene_1
 62
7
100
AcDbSpline
 70
8
 71
3
 72
8
 73
4
 74
0
 40
0
 40
0
 40
0
 40
0
 40
1
 40
1
 40
1
 40
1
 10
84.654317
 20
464.484342
 30
0.0
 10
89.779289
 20
464.497316
 30
0.0
 10
94.696559
 20
462.459940
 30
0.0
 10
98.310561
 20
458.826141
 30
0.0
  0
SPLINE
  5
248
100
AcDbEntity
  8
Ebene_1
 62
7
100
AcDbSpline
 70
8
 71
3
 72
8
 73
4
 74
0
 40
0
 40
0
 40
0
 40
0
 40
1
 40
1
 40
1
 40
1
 10
98.310561
 20
458.826141
 30
0.0
 10
98.805942
 20
458.333807
 30
0.0
 10
99.274086
 20
457.814807
 30
0.0
 10
99.712906
 20
457.271454
 30
0.0
  0
SPLINE
  5
249
100
AcDbEntity
  8
Ebene_1
 62
7
100
AcDbSpline
 70
8
 71
3
 72
8
 73
4
 74
0
 40
0
 40
0
 40
0
 40
0
 40
1
 40
1
 40
1
 40
1
 10
99.712906
 20
457.271454
 30
0.0
 10
97.147807
 20
453.313776
 30
0.0
 10
93.150397
 20
448.203084
 30
0.0
 10
87.386739
 20
442.439426
 30
0.0
  0
SPLINE
  5
24a
100
AcDbEntity
  8
Ebene_1
 62
7
100
AcDbSpline
 70
8
 71
3
 72
8
 73
4
 74
0
 40
0
 40
0
 40
0
 40
0
 40
1
 40
1
 40
1
 40
1
 10
87.386739
 20
442.439426
 30
0.0
 10
81.629743
 20
436.686430
 30
0.0
 10
76.526822
 20
432.689286
 30
0.0
 10
72.574244
 20
430.123028
 30
0.0
  0
SPLINE
  5
24b
100
AcDbEntity
  8
Ebene_1
 62
7
100
AcDbSpline
 70
8
 71
3
 72
8
 73
4
 74
0
 40
0
 40
0
 40
0
 40
0
 40
1
 40
1
 40
1
 40
1
 10
72.574244
 20
430.123028
 30
0.0
 10
72.026848
 20
430.554908
 30
0.0
 10
71.498009
 20
431.013181
 30
0.0
 10
70.998074
 20
431.513652
 30
0.0
  0
SPLINE
  5
24c
100
AcDbEntity
  8
Ebene_1
 62
7
100
AcDbSpline
 70
8
 71
3
 72
8
 73
4
 74
0
 40
0
 40
0
 40
0
 40
0
 40
1
 40
1
 40
1
 40
1
 10
70.998074
 20
431.513652
 30
0.0
 10
67.364184
 20
435.127593
 30
0.0
 10
65.326791
 20
440.044903
 30
0.0
 10
65.339873
 20
445.169896
 30
0.0
  0
SPLINE
  5
24d
100
AcDbEntity
  8
Ebene_1
 62
7
100
AcDbSpline
 70
8
 71
3
 72
8
 73
4
 74
0
 40
0
 40
0
 40
0
 40
0
 40
1
 40
1
 40
1
 40
1
 10
65.339873
 20
445.169896
 30
0.0
 10
65.339873
 20
450.331374
 30
0.0
 10
67.346778
 20
455.181608
 30
0.0
 10
70.998074
 20
458.826141
 30
0.0
  0
SPLINE
  5
24e
100
AcDbEntity
  8
Ebene_1
 62
7
100
AcDbSpline
 70
8
 71
3
 72
8
 73
4
 74
0
 40
0
 40
0
 40
0
 40
0
 40
1
 40
1
 40
1
 40
1
 10
70.998074
 20
458.826141
 30
0.0
 10
74.641639
 20
462.477438
 30
0.0
 10
79.493805
 20
464.484342
 30
0.0
 10
84.654317
 20
464.484342
 30
0.0
  0
LWPOLYLINE
  5
24f
100
AcDbEntity
  8
Ebene_1
 62
7
100
AcDbPolyline
 90
1
 70
1
 10
84.652366
 20
471.951136
 30
0.0
  0
SPLINE
  5
250
100
AcDbEntity
  8
Ebene_1
 62
7
100
AcDbSpline
 70
8
 71
3
 72
8
 73
4
 74
0
 40
0
 40
0
 40
0
 40
0
 40
1
 40
1
 40
1
 40
1
 10
103.542983
 20
449.240207
 30
0.0
 10
103.829535
 20
447.902483
 30
0.0
 10
103.972272
 20
446.537962
 30
0.0
 10
103.968762
 20
445.169896
 30
0.0
  0
SPLINE
  5
251
100
AcDbEntity
  8
Ebene_1
 62
7
100
AcDbSpline
 70
8
 71
3
 72
8
 73
4
 74
0
 40
0
 40
0
 40
0
 40
0
 40
1
 40
1
 40
1
 40
1
 10
103.968762
 20
445.169896
 30
0.0
 10
103.968762
 20
440.017114
 30
0.0
 10
101.954131
 20
435.164948
 30
0.0
 10
98.310561
 20
431.513652
 30
0.0
  0
SPLINE
  5
252
100
AcDbEntity
  8
Ebene_1
 62
7
100
AcDbSpline
 70
8
 71
3
 72
8
 73
4
 74
0
 40
0
 40
0
 40
0
 40
0
 40
1
 40
1
 40
1
 40
1
 10
98.310561
 20
431.513652
 30
0.0
 10
93.709628
 20
426.908454
 30
0.0
 10
86.954028
 20
425.213657
 30
0.0
 10
80.759789
 20
426.415997
 30
0.0
  0
SPLINE
  5
253
100
AcDbEntity
  8
Ebene_1
 62
7
100
AcDbSpline
 70
8
 71
3
 72
8
 73
4
 74
0
 40
0
 40
0
 40
0
 40
0
 40
1
 40
1
 40
1
 40
1
 10
80.759789
 20
426.415997
 30
0.0
 10
86.294943
 20
430.575290
 30
0.0
 10
91.097393
 20
435.226258
 30
0.0
 10
92.847674
 20
436.976539
 30
0.0
  0
SPLINE
  5
254
100
AcDbEntity
  8
Ebene_1
 62
7
100
AcDbSpline
 70
8
 71
3
 72
8
 73
4
 74
0
 40
0
 40
0
 40
0
 40
0
 40
1
 40
1
 40
1
 40
1
 10
92.847674
 20
436.976539
 30
0.0
 10
94.616091
 20
438.744956
 30
0.0
 10
99.349964
 20
443.631804
 30
0.0
 10
103.542983
 20
449.240207
 30
0.0
  0
LWPOLYLINE
  5
255
100
AcDbEntity
  8
Ebene_1
 62
7
100
AcDbPolyline
 90
1
 70
1
 10
84.654317
 20
464.484342
 30
0.0
  0
SPLINE
  5
256
100
AcDbEntity
  8
Ebene_1
 62
7
100
AcDbSpline
 70
8
 71
3
 72
8
 73
4
 74
0
 40
0
 40
0
 40
0
 40
0
 40
1
 40
1
 40
1
 40
1
 10
355.294523
 20
62.727134
 30
0.0
 10
353.166932
 20
62.727134
 30
0.0
 10
351.393940
 20
64.454715
 30
0.0
 10
351.393940
 20
66.590035
 30
0.0
  0
SPLINE
  5
257
100
AcDbEntity
  8
Ebene_1
 62
7
100
AcDbSpline
 70
8
 71
3
 72
8
 73
4
 74
0
 40
0
 40
0
 40
0
 40
0
 40
1
 40
1
 40
1
 40
1
 10
351.393940
 20
66.590035
 30
0.0
 10
351.393940
 20
68.725355
 30
0.0
 10
353.083838
 20
70.452936
 30
0.0
 10
355.219159
 20
70.452936
 30
0.0
  0
LWPOLYLINE
  5
258
100
AcDbEntity
  8
Ebene_1
 62
7
100
AcDbPolyline
 90
1
 70
1
 10
103.542983
 20
449.240207
 30
0.0
  0
SPLINE
  5
259
100
AcDbEntity
  8
Ebene_1
 62
7
100
AcDbSpline
 70
8
 71
3
 72
8
 73
4
 74
0
 40
0
 40
0
 40
0
 40
0
 40
1
 40
1
 40
1
 40
1
 10
355.294523
 20
70.452936
 30
0.0
 10
357.429843
 20
70.452936
 30
0.0
 10
359.157424
 20
68.725355
 30
0.0
 10
359.157424
 20
66.590035
 30
0.0
  0
SPLINE
  5
25a
100
AcDbEntity
  8
Ebene_1
 62
7
100
AcDbSpline
 70
8
 71
3
 72
8
 73
4
 74
0
 40
0
 40
0
 40
0
 40
0
 40
1
 40
1
 40
1
 40
1
 10
359.157424
 20
66.590035
 30
0.0
 10
359.157424
 20
64.454715
 30
0.0
 10
357.429843
 20
62.727134
 30
0.0
 10
355.294523
 20
62.727134
 30
0.0
  0
LWPOLYLINE
  5
25b
100
AcDbEntity
  8
Ebene_1
 62
7
100
AcDbPolyline
 90
2
 70
0
 10
355.219159
 20
70.452936
 30
0.0
 10
355.294523
 20
70.452936
 30
0.0
  0
SPLINE
  5
25c
100
AcDbEntity
  8
Ebene_1
 62
7
100
AcDbSpline
 70
8
 71
3
 72
8
 73
4
 74
0
 40
0
 40
0
 40
0
 40
0
 40
1
 40
1
 40
1
 40
1
 10
370.747093
 20
39.548762
 30
0.0
 10
368.619502
 20
39.548762
 30
0.0
 10
366.846510
 20
41.276343
 30
0.0
 10
366.846510
 20
43.411663
 30
0.0
  0
SPLINE
  5
25d
100
AcDbEntity
  8
Ebene_1
 62
7
100
AcDbSpline
 70
8
 71
3
 72
8
 73
4
 74
0
 40
0
 40
0
 40
0
 40
0
 40
1
 40
1
 40
1
 40
1
 10
366.846510
 20
43.411663
 30
0.0
 10
366.846510
 20
45.546984
 30
0.0
 10
368.536408
 20
47.274564
 30
0.0
 10
370.671729
 20
47.274564
 30
0.0
  0
LWPOLYLINE
  5
25e
100
AcDbEntity
  8
Ebene_1
 62
7
100
AcDbPolyline
 90
1
 70
1
 10
355.294523
 20
62.727134
 30
0.0
  0
SPLINE
  5
25f
100
AcDbEntity
  8
Ebene_1
 62
7
100
AcDbSpline
 70
8
 71
3
 72
8
 73
4
 74
0
 40
0
 40
0
 40
0
 40
0
 40
1
 40
1
 40
1
 40
1
 10
370.747093
 20
47.274564
 30
0.0
 10
372.881447
 20
47.274564
 30
0.0
 10
374.609994
 20
45.546984
 30
0.0
 10
374.609994
 20
43.411663
 30
0.0
  0
SPLINE
  5
260
100
AcDbEntity
  8
Ebene_1
 62
7
100
AcDbSpline
 70
8
 71
3
 72
8
 73
4
 74
0
 40
0
 40
0
 40
0
 40
0
 40
1
 40
1
 40
1
 40
1
 10
374.609994
 20
43.411663
 30
0.0
 10
374.609994
 20
41.276343
 30
0.0
 10
372.881447
 20
39.548762
 30
0.0
 10
370.747093
 20
39.548762
 30
0.0
  0
LWPOLYLINE
  5
261
100
AcDbEntity
  8
Ebene_1
 62
7
100
AcDbPolyline
 90
2
 70
0
 10
370.671729
 20
47.274564
 30
0.0
 10
370.747093
 20
47.274564
 30
0.0
  0
LWPOLYLINE
  5
262
100
AcDbEntity
  8
Ebene_1
 62
7
100
AcDbPolyline
 90
1
 70
1
 10
370.747093
 20
39.548762
 30
0.0
  0
ENDSEC
  0
SECTION
  2
OBJECTS
  0
DICTIONARY
  5
C
330
0
100
AcDbDictionary
  3
ACAD_GROUP
350
D
  3
ACAD_MLINESTYLE
350
17
  0
DICTIONARY
  5
D
330
C
100
AcDbDictionary
  0
DICTIONARY
  5
1A
330
C
100
AcDbDictionary
  0
DICTIONARY
  5
17
330
C
100
AcDbDictionary
  3
STANDARD
350
18
  0
DICTIONARY
  5
19
330
C
100
AcDbDictionary
  0
ENDSEC
  0
EOF
