999
"DXF R12 Output" (www.mydxf.blogspot.com)
 0 
SECTION
 2 
HEADER
 9 
$ACADVER
 1 
AC1009
 9 
$EXTMIN
 10 
 0 
 20 
 0 
 9 
$EXTMAX
 10 
 8.5 
 20 
 11 
 0 
ENDSEC
 0 
SECTION
 2 
ENTITIES
0
LINE
8
Layer 1
10
95.340400
20
99.662400
11
62.804400
21
67.126400
0
LINE
8
Layer 1
10
62.804400
20
67.126400
11
61.474654
21
65.500429
0
LINE
8
Layer 1
10
61.474654
20
65.500429
11
60.524835
21
63.700578
0
LINE
8
Layer 1
10
60.524835
20
63.700578
11
59.954944
21
61.784807
0
LINE
8
Layer 1
10
59.954944
20
61.784807
11
59.764980
21
59.811078
0
LINE
8
Layer 1
10
59.764980
20
59.811078
11
59.954944
21
57.837351
0
LINE
8
Layer 1
10
59.954944
20
57.837351
11
60.524835
21
55.921588
0
LINE
8
Layer 1
10
60.524835
20
55.921588
11
61.474654
21
54.121751
0
LINE
8
Layer 1
10
61.474654
20
54.121751
11
62.804400
21
52.495800
0
LINE
8
Layer 1
10
62.804400
20
52.495800
11
70.793560
21
44.506640
0
LINE
8
Layer 1
10
70.793560
20
44.506640
11
73.369600
21
44.506600
0
LINE
8
Layer 1
10
73.369600
20
44.506600
11
64.260620
21
53.615580
0
LINE
8
Layer 1
10
64.260620
20
53.615580
11
63.138980
21
54.987058
0
LINE
8
Layer 1
10
63.138980
20
54.987058
11
62.337809
21
56.505161
0
LINE
8
Layer 1
10
62.337809
20
56.505161
11
61.857107
21
58.121014
0
LINE
8
Layer 1
10
61.857107
20
58.121014
11
61.696873
21
59.785741
0
LINE
8
Layer 1
10
61.696873
20
59.785741
11
61.857107
21
61.450467
0
LINE
8
Layer 1
10
61.857107
20
61.450467
11
62.337809
21
63.066315
0
LINE
8
Layer 1
10
62.337809
20
63.066315
11
63.138980
21
64.584412
0
LINE
8
Layer 1
10
63.138980
20
64.584412
11
64.260620
21
65.955880
0
LINE
8
Layer 1
10
64.260620
20
65.955880
11
96.842520
21
98.537880
0
LINE
8
Layer 1
10
96.842520
20
98.537880
11
95.340300
21
99.662360
0
LINE
8
Layer 1
10
95.340300
20
99.662360
11
95.340400
21
99.662400
0
LINE
8
Layer 1
10
115.758800
20
99.238139
11
114.218850
21
98.201509
0
LINE
8
Layer 1
10
114.218850
20
98.201509
11
147.405950
21
65.014909
0
LINE
8
Layer 1
10
147.405950
20
65.014909
11
148.527590
21
63.643431
0
LINE
8
Layer 1
10
148.527590
20
63.643431
11
149.328761
21
62.125328
0
LINE
8
Layer 1
10
149.328761
20
62.125328
11
149.809463
21
60.509475
0
LINE
8
Layer 1
10
149.809463
20
60.509475
11
149.969697
21
58.844748
0
LINE
8
Layer 1
10
149.969697
20
58.844748
11
149.809463
21
57.180022
0
LINE
8
Layer 1
10
149.809463
20
57.180022
11
149.328761
21
55.564174
0
LINE
8
Layer 1
10
149.328761
20
55.564174
11
148.527590
21
54.046077
0
LINE
8
Layer 1
10
148.527590
20
54.046077
11
147.405950
21
52.674609
0
LINE
8
Layer 1
10
147.405950
20
52.674609
11
139.237980
21
44.506639
0
LINE
8
Layer 1
10
139.237980
20
44.506639
11
141.865000
21
44.506600
0
LINE
8
Layer 1
10
141.865000
20
44.506600
11
148.862510
21
51.504110
0
LINE
8
Layer 1
10
148.862510
20
51.504110
11
150.192266
21
53.130077
0
LINE
8
Layer 1
10
150.192266
20
53.130077
11
151.142092
21
54.929918
0
LINE
8
Layer 1
10
151.142092
20
54.929918
11
151.711987
21
56.845677
0
LINE
8
Layer 1
10
151.711987
20
56.845677
11
151.901953
21
58.819395
0
LINE
8
Layer 1
10
151.901953
20
58.819395
11
151.711987
21
60.793115
0
LINE
8
Layer 1
10
151.711987
20
60.793115
11
151.142092
21
62.708879
0
LINE
8
Layer 1
10
151.142092
20
62.708879
11
150.192266
21
64.508730
0
LINE
8
Layer 1
10
150.192266
20
64.508730
11
148.862510
21
66.134710
0
LINE
8
Layer 1
10
148.862510
20
66.134710
11
115.758800
21
99.238139
0
LINE
8
Layer 1
10
90.199100
20
25.101139
11
99.014050
21
16.286189
0
LINE
8
Layer 1
10
99.014050
20
16.286189
11
100.640008
21
14.956443
0
LINE
8
Layer 1
10
100.640008
20
14.956443
11
102.439807
21
14.006624
0
LINE
8
Layer 1
10
102.439807
20
14.006624
11
104.355498
21
13.436733
0
LINE
8
Layer 1
10
104.355498
20
13.436733
11
106.329134
21
13.246769
0
LINE
8
Layer 1
10
106.329134
20
13.246769
11
108.302765
21
13.436733
0
LINE
8
Layer 1
10
108.302765
20
13.436733
11
110.218444
21
14.006624
0
LINE
8
Layer 1
10
110.218444
20
14.006624
11
112.018222
21
14.956443
0
LINE
8
Layer 1
10
112.018222
20
14.956443
11
113.644150
21
16.286189
0
LINE
8
Layer 1
10
113.644150
20
16.286189
11
122.459100
21
25.101139
0
LINE
8
Layer 1
10
122.459100
20
25.101139
11
119.832000
21
25.101100
0
LINE
8
Layer 1
10
119.832000
20
25.101100
11
112.473790
21
17.742910
0
LINE
8
Layer 1
10
112.473790
20
17.742910
11
111.102313
21
16.621270
0
LINE
8
Layer 1
10
111.102313
20
16.621270
11
109.584211
21
15.820099
0
LINE
8
Layer 1
10
109.584211
20
15.820099
11
107.968361
21
15.339397
0
LINE
8
Layer 1
10
107.968361
20
15.339397
11
106.303636
21
15.179162
0
LINE
8
Layer 1
10
106.303636
20
15.179162
11
104.638912
21
15.339397
0
LINE
8
Layer 1
10
104.638912
20
15.339397
11
103.023063
21
15.820099
0
LINE
8
Layer 1
10
103.023063
20
15.820099
11
101.504964
21
16.621270
0
LINE
8
Layer 1
10
101.504964
20
16.621270
11
100.133490
21
17.742910
0
LINE
8
Layer 1
10
100.133490
20
17.742910
11
92.775280
21
25.101100
0
LINE
8
Layer 1
10
92.775280
20
25.101100
11
90.199100
21
25.101139
0
LINE
8
Layer 1
10
101.779000
20
117.960000
11
100.957251
21
117.878729
0
LINE
8
Layer 1
10
100.957251
20
117.878729
11
100.174570
21
117.640916
0
LINE
8
Layer 1
10
100.174570
20
117.640916
11
99.452954
21
117.255669
0
LINE
8
Layer 1
10
99.452954
20
117.255669
11
98.814399
21
116.732101
0
LINE
8
Layer 1
10
98.814399
20
116.732101
11
98.290831
21
116.093546
0
LINE
8
Layer 1
10
98.290831
20
116.093546
11
97.905584
21
115.371930
0
LINE
8
Layer 1
10
97.905584
20
115.371930
11
97.667771
21
114.589249
0
LINE
8
Layer 1
10
97.667771
20
114.589249
11
97.586500
21
113.767500
0
LINE
8
Layer 1
10
97.586500
20
113.767500
11
97.667771
21
112.945751
0
LINE
8
Layer 1
10
97.667771
20
112.945751
11
97.905584
21
112.163070
0
LINE
8
Layer 1
10
97.905584
20
112.163070
11
98.290831
21
111.441454
0
LINE
8
Layer 1
10
98.290831
20
111.441454
11
98.814399
21
110.802899
0
LINE
8
Layer 1
10
98.814399
20
110.802899
11
99.452954
21
110.279331
0
LINE
8
Layer 1
10
99.452954
20
110.279331
11
100.174570
21
109.894084
0
LINE
8
Layer 1
10
100.174570
20
109.894084
11
100.957251
21
109.656271
0
LINE
8
Layer 1
10
100.957251
20
109.656271
11
101.779000
21
109.575000
0
LINE
8
Layer 1
10
101.779000
20
109.575000
11
102.623874
21
109.660232
0
LINE
8
Layer 1
10
102.623874
20
109.660232
11
103.410783
21
109.904561
0
LINE
8
Layer 1
10
103.410783
20
109.904561
11
104.122869
21
110.291128
0
LINE
8
Layer 1
10
104.122869
20
110.291128
11
104.743278
21
110.803076
0
LINE
8
Layer 1
10
104.743278
20
110.803076
11
105.255151
21
111.423545
0
LINE
8
Layer 1
10
105.255151
20
111.423545
11
105.641634
21
112.135678
0
LINE
8
Layer 1
10
105.641634
20
112.135678
11
105.885869
21
112.922616
0
LINE
8
Layer 1
10
105.885869
20
112.922616
11
105.971000
21
113.767500
0
LINE
8
Layer 1
10
105.971000
20
113.767500
11
105.885869
21
114.612384
0
LINE
8
Layer 1
10
105.885869
20
114.612384
11
105.641634
21
115.399322
0
LINE
8
Layer 1
10
105.641634
20
115.399322
11
105.255151
21
116.111455
0
LINE
8
Layer 1
10
105.255151
20
116.111455
11
104.743278
21
116.731924
0
LINE
8
Layer 1
10
104.743278
20
116.731924
11
104.122869
21
117.243872
0
LINE
8
Layer 1
10
104.122869
20
117.243872
11
103.410783
21
117.630439
0
LINE
8
Layer 1
10
103.410783
20
117.630439
11
102.623874
21
117.874768
0
LINE
8
Layer 1
10
102.623874
20
117.874768
11
101.779000
21
117.960000
0
LINE
8
Layer 1
10
101.779000
20
117.960000
11
101.779000
21
117.960000
0
LINE
8
Layer 1
10
101.779000
20
116.513580
11
102.847867
21
116.297732
0
LINE
8
Layer 1
10
102.847867
20
116.297732
11
103.720719
21
115.709219
0
LINE
8
Layer 1
10
103.720719
20
115.709219
11
104.309232
21
114.836367
0
LINE
8
Layer 1
10
104.309232
20
114.836367
11
104.525080
21
113.767500
0
LINE
8
Layer 1
10
104.525080
20
113.767500
11
104.309232
21
112.698633
0
LINE
8
Layer 1
10
104.309232
20
112.698633
11
103.720719
21
111.825781
0
LINE
8
Layer 1
10
103.720719
20
111.825781
11
102.847867
21
111.237268
0
LINE
8
Layer 1
10
102.847867
20
111.237268
11
101.779000
21
111.021420
0
LINE
8
Layer 1
10
101.779000
20
111.021420
11
100.710133
21
111.237268
0
LINE
8
Layer 1
10
100.710133
20
111.237268
11
99.837281
21
111.825781
0
LINE
8
Layer 1
10
99.837281
20
111.825781
11
99.248768
21
112.698633
0
LINE
8
Layer 1
10
99.248768
20
112.698633
11
99.032920
21
113.767500
0
LINE
8
Layer 1
10
99.032920
20
113.767500
11
99.248768
21
114.836367
0
LINE
8
Layer 1
10
99.248768
20
114.836367
11
99.837281
21
115.709219
0
LINE
8
Layer 1
10
99.837281
20
115.709219
11
100.710133
21
116.297732
0
LINE
8
Layer 1
10
100.710133
20
116.297732
11
101.779000
21
116.513580
0
LINE
8
Layer 1
10
101.779000
20
116.513580
11
101.779000
21
116.513580
0
LINE
8
Layer 1
10
102.767000
20
97.917000
11
102.767000
21
62.654200
0
LINE
8
Layer 1
10
102.767000
20
62.654200
11
103.013727
21
61.950965
0
LINE
8
Layer 1
10
103.013727
20
61.950965
11
103.282052
21
61.738357
0
LINE
8
Layer 1
10
103.282052
20
61.738357
11
103.611390
21
61.660479
0
LINE
8
Layer 1
10
103.611390
20
61.660479
11
108.055000
21
61.660500
0
LINE
8
Layer 1
10
108.055000
20
61.660500
11
108.384338
21
61.738378
0
LINE
8
Layer 1
10
108.384338
20
61.738378
11
108.652663
21
61.950986
0
LINE
8
Layer 1
10
108.652663
20
61.950986
11
108.899390
21
62.654221
0
LINE
8
Layer 1
10
108.899390
20
62.654221
11
108.899000
21
97.884200
0
LINE
8
Layer 1
10
108.899000
20
97.884200
11
106.970430
21
97.509810
0
LINE
8
Layer 1
10
106.970430
20
97.509810
11
106.971000
21
64.482400
0
LINE
8
Layer 1
10
106.971000
20
64.482400
11
106.832263
21
64.087024
0
LINE
8
Layer 1
10
106.832263
20
64.087024
11
106.496100
21
63.923839
0
LINE
8
Layer 1
10
106.496100
20
63.923839
11
105.171000
21
63.923800
0
LINE
8
Layer 1
10
105.171000
20
63.923800
11
104.834837
21
64.086985
0
LINE
8
Layer 1
10
104.834837
20
64.086985
11
104.696100
21
64.482361
0
LINE
8
Layer 1
10
104.696100
20
64.482361
11
104.696000
21
97.543200
0
LINE
8
Layer 1
10
104.696000
20
97.543200
11
102.767430
21
97.916990
0
LINE
8
Layer 1
10
102.767430
20
97.916990
11
102.767000
21
97.917000
0
LINE
8
Layer 1
10
110.747000
20
67.461900
11
110.747000
21
65.600000
0
LINE
8
Layer 1
10
110.747000
20
65.600000
11
111.662090
21
65.017991
0
LINE
8
Layer 1
10
111.662090
20
65.017991
11
112.336398
21
64.356420
0
LINE
8
Layer 1
10
112.336398
20
64.356420
11
112.753314
21
63.636316
0
LINE
8
Layer 1
10
112.753314
20
63.636316
11
112.896230
21
62.878710
0
LINE
8
Layer 1
10
112.896230
20
62.878710
11
112.752669
21
62.114983
0
LINE
8
Layer 1
10
112.752669
20
62.114983
11
112.341090
21
61.403652
0
LINE
8
Layer 1
10
112.341090
20
61.403652
11
111.689893
21
60.759955
0
LINE
8
Layer 1
10
111.689893
20
60.759955
11
110.827476
21
60.199130
0
LINE
8
Layer 1
10
110.827476
20
60.199130
11
109.782239
21
59.736414
0
LINE
8
Layer 1
10
109.782239
20
59.736414
11
108.582583
21
59.387045
0
LINE
8
Layer 1
10
108.582583
20
59.387045
11
107.256907
21
59.166262
0
LINE
8
Layer 1
10
107.256907
20
59.166262
11
105.833610
21
59.089300
0
LINE
8
Layer 1
10
105.833610
20
59.089300
11
104.410313
21
59.166262
0
LINE
8
Layer 1
10
104.410313
20
59.166262
11
103.084637
21
59.387045
0
LINE
8
Layer 1
10
103.084637
20
59.387045
11
101.884981
21
59.736414
0
LINE
8
Layer 1
10
101.884981
20
59.736414
11
100.839744
21
60.199130
0
LINE
8
Layer 1
10
100.839744
20
60.199130
11
99.977327
21
60.759955
0
LINE
8
Layer 1
10
99.977327
20
60.759955
11
99.326130
21
61.403652
0
LINE
8
Layer 1
10
99.326130
20
61.403652
11
98.914551
21
62.114983
0
LINE
8
Layer 1
10
98.914551
20
62.114983
11
98.770990
21
62.878710
0
LINE
8
Layer 1
10
98.770990
20
62.878710
11
98.916205
21
63.634091
0
LINE
8
Layer 1
10
98.916205
20
63.634091
11
99.333826
21
64.351952
0
LINE
8
Layer 1
10
99.333826
20
64.351952
11
100.007336
21
65.011444
0
LINE
8
Layer 1
10
100.007336
20
65.011444
11
100.920220
21
65.591720
0
LINE
8
Layer 1
10
100.920220
20
65.591720
11
100.920000
21
67.453700
0
LINE
8
Layer 1
10
100.920000
20
67.453700
11
99.223713
21
66.571676
0
LINE
8
Layer 1
10
99.223713
20
66.571676
11
97.951142
21
65.478746
0
LINE
8
Layer 1
10
97.951142
20
65.478746
11
97.150661
21
64.229560
0
LINE
8
Layer 1
10
97.150661
20
64.229560
11
96.870640
21
62.878770
0
LINE
8
Layer 1
10
96.870640
20
62.878770
11
97.044429
21
61.804519
0
LINE
8
Layer 1
10
97.044429
20
61.804519
11
97.552860
21
60.781345
0
LINE
8
Layer 1
10
97.552860
20
60.781345
11
98.376455
21
59.838000
0
LINE
8
Layer 1
10
98.376455
20
59.838000
11
99.495740
21
59.003236
0
LINE
8
Layer 1
10
99.495740
20
59.003236
11
100.860831
21
58.318788
0
LINE
8
Layer 1
10
100.860831
20
58.318788
11
102.403482
21
57.815158
0
LINE
8
Layer 1
10
102.403482
20
57.815158
11
104.076675
21
57.504255
0
LINE
8
Layer 1
10
104.076675
20
57.504255
11
105.833390
21
57.397990
0
LINE
8
Layer 1
10
105.833390
20
57.397990
11
107.590105
21
57.504255
0
LINE
8
Layer 1
10
107.590105
20
57.504255
11
109.263298
21
57.815158
0
LINE
8
Layer 1
10
109.263298
20
57.815158
11
110.805949
21
58.318788
0
LINE
8
Layer 1
10
110.805949
20
58.318788
11
112.171040
21
59.003236
0
LINE
8
Layer 1
10
112.171040
20
59.003236
11
113.290325
21
59.838000
0
LINE
8
Layer 1
10
113.290325
20
59.838000
11
114.113920
21
60.781345
0
LINE
8
Layer 1
10
114.113920
20
60.781345
11
114.622351
21
61.804519
0
LINE
8
Layer 1
10
114.622351
20
61.804519
11
114.796140
21
62.878770
0
LINE
8
Layer 1
10
114.796140
20
62.878770
11
114.518601
21
64.231861
0
LINE
8
Layer 1
10
114.518601
20
64.231861
11
113.718844
21
65.483372
0
LINE
8
Layer 1
10
113.718844
20
65.483372
11
112.445395
21
66.578379
0
LINE
8
Layer 1
10
112.445395
20
66.578379
11
110.746780
21
67.461960
0
LINE
8
Layer 1
10
110.746780
20
67.461960
11
110.747000
21
67.461900
0
LINE
8
Layer 1
10
86.247300
20
57.398000
11
84.904933
21
57.167509
0
LINE
8
Layer 1
10
84.904933
20
57.167509
11
83.659587
21
56.476050
0
LINE
8
Layer 1
10
83.659587
20
56.476050
11
82.511273
21
55.323641
0
LINE
8
Layer 1
10
82.511273
20
55.323641
11
81.460000
21
53.710300
0
LINE
8
Layer 1
10
81.460000
20
53.710300
11
80.532017
21
51.773583
0
LINE
8
Layer 1
10
80.532017
20
51.773583
11
79.721212
21
49.618588
0
LINE
8
Layer 1
10
79.721212
20
49.618588
11
79.027652
21
47.245248
0
LINE
8
Layer 1
10
79.027652
20
47.245248
11
78.451400
21
44.653500
0
LINE
8
Layer 1
10
78.451400
20
44.653500
11
77.699462
21
39.356738
0
LINE
8
Layer 1
10
77.699462
20
39.356738
11
77.448900
21
34.270200
0
LINE
8
Layer 1
10
77.448900
20
34.270200
11
77.457700
21
33.040800
0
LINE
8
Layer 1
10
77.457700
20
33.040800
11
75.702300
21
31.164500
0
LINE
8
Layer 1
10
75.702300
20
31.164500
11
74.893425
21
30.582300
0
LINE
8
Layer 1
10
74.893425
20
30.582300
11
74.214000
21
30.388300
0
LINE
8
Layer 1
10
74.214000
20
30.388300
11
73.858137
21
30.461213
0
LINE
8
Layer 1
10
73.858137
20
30.461213
11
73.567000
21
30.679700
0
LINE
8
Layer 1
10
73.567000
20
30.679700
11
73.340700
21
31.455900
0
LINE
8
Layer 1
10
73.340700
20
31.455900
11
73.526750
21
33.477537
0
LINE
8
Layer 1
10
73.526750
20
33.477537
11
74.084800
21
36.631300
0
LINE
8
Layer 1
10
74.084800
20
36.631300
11
74.570000
21
39.866200
0
LINE
8
Layer 1
10
74.570000
20
39.866200
11
74.470958
21
40.361459
0
LINE
8
Layer 1
10
74.470958
20
40.361459
11
74.173812
21
40.715100
0
LINE
8
Layer 1
10
74.173812
20
40.715100
11
73.678536
21
40.927216
0
LINE
8
Layer 1
10
73.678536
20
40.927216
11
72.985100
21
40.997900
0
LINE
8
Layer 1
10
72.985100
20
40.997900
11
71.561900
21
40.868800
0
LINE
8
Layer 1
10
71.561900
20
40.868800
11
71.141300
21
41.839200
0
LINE
8
Layer 1
10
71.141300
20
41.839200
11
70.793662
21
42.057488
0
LINE
8
Layer 1
10
70.793662
20
42.057488
11
70.203400
21
42.130200
0
LINE
8
Layer 1
10
70.203400
20
42.130200
11
69.101556
21
42.041264
0
LINE
8
Layer 1
10
69.101556
20
42.041264
11
68.028025
21
41.774438
0
LINE
8
Layer 1
10
68.028025
20
41.774438
11
66.982806
21
41.329692
0
LINE
8
Layer 1
10
66.982806
20
41.329692
11
65.965900
21
40.707000
0
LINE
8
Layer 1
10
65.965900
20
40.707000
11
65.027811
21
39.952941
0
LINE
8
Layer 1
10
65.027811
20
39.952941
11
64.186688
21
39.081675
0
LINE
8
Layer 1
10
64.186688
20
39.081675
11
62.795600
21
36.987300
0
LINE
8
Layer 1
10
62.795600
20
36.987300
11
61.934337
21
34.752400
0
LINE
8
Layer 1
10
61.934337
20
34.752400
11
61.607000
21
32.387600
0
LINE
8
Layer 1
10
61.607000
20
32.387600
11
60.434500
21
31.391300
0
LINE
8
Layer 1
10
60.434500
20
31.391300
11
59.415600
21
30.857600
0
LINE
8
Layer 1
10
59.415600
20
30.857600
11
58.364300
21
30.679700
0
LINE
8
Layer 1
10
58.364300
20
30.679700
11
57.353425
21
30.849412
0
LINE
8
Layer 1
10
57.353425
20
30.849412
11
56.585100
21
31.358800
0
LINE
8
Layer 1
10
56.585100
20
31.358800
11
56.124263
21
32.207725
0
LINE
8
Layer 1
10
56.124263
20
32.207725
11
55.970700
21
33.396400
0
LINE
8
Layer 1
10
55.970700
20
33.396400
11
56.294200
21
36.178600
0
LINE
8
Layer 1
10
56.294200
20
36.178600
11
58.267200
21
45.429700
0
LINE
8
Layer 1
10
58.267200
20
45.429700
11
58.582613
21
47.314025
0
LINE
8
Layer 1
10
58.582613
20
47.314025
11
58.687800
21
48.891000
0
LINE
8
Layer 1
10
58.687800
20
48.891000
11
58.610948
21
50.128255
0
LINE
8
Layer 1
10
58.610948
20
50.128255
11
58.380412
21
51.219962
0
LINE
8
Layer 1
10
58.380412
20
51.219962
11
57.996220
21
52.166114
0
LINE
8
Layer 1
10
57.996220
20
52.166114
11
57.458400
21
52.966700
0
LINE
8
Layer 1
10
57.458400
20
52.966700
11
56.793247
21
53.603463
0
LINE
8
Layer 1
10
56.793247
20
53.603463
11
55.994650
21
54.058200
0
LINE
8
Layer 1
10
55.994650
20
54.058200
11
55.062628
21
54.330987
0
LINE
8
Layer 1
10
55.062628
20
54.330987
11
53.997200
21
54.421900
0
LINE
8
Layer 1
10
53.997200
20
54.421900
11
52.630556
21
54.300653
0
LINE
8
Layer 1
10
52.630556
20
54.300653
11
51.344875
21
53.936875
0
LINE
8
Layer 1
10
51.344875
20
53.936875
11
50.140081
21
53.330509
0
LINE
8
Layer 1
10
50.140081
20
53.330509
11
49.016100
21
52.481500
0
LINE
8
Layer 1
10
49.016100
20
52.481500
11
47.966780
21
51.353372
0
LINE
8
Layer 1
10
47.966780
20
51.353372
11
46.986187
21
49.909850
0
LINE
8
Layer 1
10
46.986187
20
49.909850
11
46.074352
21
48.150953
0
LINE
8
Layer 1
10
46.074352
20
48.150953
11
45.231300
21
46.076700
0
LINE
8
Layer 1
10
45.231300
20
46.076700
11
45.522700
21
48.729300
0
LINE
8
Layer 1
10
45.522700
20
48.729300
11
45.445850
21
50.011000
0
LINE
8
Layer 1
10
45.445850
20
50.011000
11
45.215325
21
51.139025
0
LINE
8
Layer 1
10
45.215325
20
51.139025
11
44.831163
21
52.113412
0
LINE
8
Layer 1
10
44.831163
20
52.113412
11
44.293400
21
52.934200
0
LINE
8
Layer 1
10
44.293400
20
52.934200
11
43.638337
21
53.585111
0
LINE
8
Layer 1
10
43.638337
20
53.585111
11
42.870025
21
54.050013
0
LINE
8
Layer 1
10
42.870025
20
54.050013
11
41.988500
21
54.328933
0
LINE
8
Layer 1
10
41.988500
20
54.328933
11
40.993800
21
54.421900
0
LINE
8
Layer 1
10
40.993800
20
54.421900
11
39.647345
21
54.290545
0
LINE
8
Layer 1
10
39.647345
20
54.290545
11
38.357488
21
53.896438
0
LINE
8
Layer 1
10
38.357488
20
53.896438
11
37.124236
21
53.239511
0
LINE
8
Layer 1
10
37.124236
20
53.239511
11
35.947600
21
52.319700
0
LINE
8
Layer 1
10
35.947600
20
52.319700
11
34.827602
21
51.084484
0
LINE
8
Layer 1
10
34.827602
20
51.084484
11
33.764238
21
49.448975
0
LINE
8
Layer 1
10
33.764238
20
49.448975
11
32.757480
21
47.413153
0
LINE
8
Layer 1
10
32.757480
20
47.413153
11
31.807300
21
44.977000
0
LINE
8
Layer 1
10
31.807300
20
44.977000
11
32.001600
21
46.012100
0
LINE
8
Layer 1
10
32.001600
20
46.012100
11
32.292600
21
47.920500
0
LINE
8
Layer 1
10
32.292600
20
47.920500
11
32.454300
21
49.990700
0
LINE
8
Layer 1
10
32.454300
20
49.990700
11
32.211675
21
51.898950
0
LINE
8
Layer 1
10
32.211675
20
51.898950
11
31.908394
21
52.658975
0
LINE
8
Layer 1
10
31.908394
20
52.658975
11
31.483800
21
53.289700
0
LINE
8
Layer 1
10
31.483800
20
53.289700
11
30.962236
21
53.784995
0
LINE
8
Layer 1
10
30.962236
20
53.784995
11
30.335513
21
54.138813
0
LINE
8
Layer 1
10
30.335513
20
54.138813
11
29.603658
21
54.351123
0
LINE
8
Layer 1
10
29.603658
20
54.351123
11
28.766700
21
54.421900
0
LINE
8
Layer 1
10
28.766700
20
54.421900
11
26.858300
21
54.122712
0
LINE
8
Layer 1
10
26.858300
20
54.122712
11
24.949900
21
53.225100
0
LINE
8
Layer 1
10
24.949900
20
53.225100
11
23.130300
21
51.809987
0
LINE
8
Layer 1
10
23.130300
20
51.809987
11
21.488600
21
49.893500
0
LINE
8
Layer 1
10
21.488600
20
49.893500
11
20.777000
21
48.664100
0
LINE
8
Layer 1
10
20.777000
20
48.664100
11
20.583200
21
47.629100
0
LINE
8
Layer 1
10
20.583200
20
47.629100
11
20.664100
21
47.103538
0
LINE
8
Layer 1
10
20.664100
20
47.103538
11
20.906700
21
46.626500
0
LINE
8
Layer 1
10
20.906700
20
46.626500
11
21.286788
21
46.311087
0
LINE
8
Layer 1
10
21.286788
20
46.311087
11
21.715400
21
46.205900
0
LINE
8
Layer 1
10
21.715400
20
46.205900
11
22.240963
21
46.359462
0
LINE
8
Layer 1
10
22.240963
20
46.359462
11
22.718000
21
46.820300
0
LINE
8
Layer 1
10
22.718000
20
46.820300
11
24.076637
21
48.437687
0
LINE
8
Layer 1
10
24.076637
20
48.437687
11
25.305900
21
49.537500
0
LINE
8
Layer 1
10
25.305900
20
49.537500
11
26.413650
21
50.192725
0
LINE
8
Layer 1
10
26.413650
20
50.192725
11
27.343500
21
50.411300
0
LINE
8
Layer 1
10
27.343500
20
50.411300
11
27.810534
21
50.320309
0
LINE
8
Layer 1
10
27.810534
20
50.320309
11
28.144200
21
50.047350
0
LINE
8
Layer 1
10
28.144200
20
50.047350
11
28.344441
21
49.592441
0
LINE
8
Layer 1
10
28.344441
20
49.592441
11
28.411200
21
48.955600
0
LINE
8
Layer 1
10
28.411200
20
48.955600
11
28.119700
21
45.073700
0
LINE
8
Layer 1
10
28.119700
20
45.073700
11
26.793700
21
36.275200
0
LINE
8
Layer 1
10
26.793700
20
36.275200
11
26.082100
21
31.941100
0
LINE
8
Layer 1
10
26.082100
20
31.941100
11
25.887800
21
29.385800
0
LINE
8
Layer 1
10
25.887800
20
29.385800
11
26.017325
21
28.132175
0
LINE
8
Layer 1
10
26.017325
20
28.132175
11
26.405600
21
27.347600
0
LINE
8
Layer 1
10
26.405600
20
27.347600
11
27.092813
21
26.959625
0
LINE
8
Layer 1
10
27.092813
20
26.959625
11
28.119700
21
26.830400
0
LINE
8
Layer 1
10
28.119700
20
26.830400
11
29.170975
21
26.992150
0
LINE
8
Layer 1
10
29.170975
20
26.992150
11
29.801800
21
27.477300
0
LINE
8
Layer 1
10
29.801800
20
27.477300
11
30.198175
21
28.374862
0
LINE
8
Layer 1
10
30.198175
20
28.374862
11
30.481300
21
29.773800
0
LINE
8
Layer 1
10
30.481300
20
29.773800
11
31.678187
21
36.760687
0
LINE
8
Layer 1
10
31.678187
20
36.760687
11
32.373705
21
39.647602
0
LINE
8
Layer 1
10
32.373705
20
39.647602
11
33.133900
21
42.130200
0
LINE
8
Layer 1
10
33.133900
20
42.130200
11
34.767200
21
46.019800
0
LINE
8
Layer 1
10
34.767200
20
46.019800
11
35.595962
21
47.436966
0
LINE
8
Layer 1
10
35.595962
20
47.436966
11
36.432900
21
48.502400
0
LINE
8
Layer 1
10
36.432900
20
48.502400
11
37.267819
21
49.294950
0
LINE
8
Layer 1
10
37.267819
20
49.294950
11
38.090625
21
49.861150
0
LINE
8
Layer 1
10
38.090625
20
49.861150
11
38.901319
21
50.200925
0
LINE
8
Layer 1
10
38.901319
20
50.200925
11
39.699900
21
50.314200
0
LINE
8
Layer 1
10
39.699900
20
50.314200
11
40.516725
21
50.168537
0
LINE
8
Layer 1
10
40.516725
20
50.168537
11
41.091000
21
49.731800
0
LINE
8
Layer 1
10
41.091000
20
49.731800
11
41.454875
21
48.987887
0
LINE
8
Layer 1
10
41.454875
20
48.987887
11
41.576200
21
47.920500
0
LINE
8
Layer 1
10
41.576200
20
47.920500
11
41.204313
21
44.265212
0
LINE
8
Layer 1
10
41.204313
20
44.265212
11
40.088500
21
37.828100
0
LINE
8
Layer 1
10
40.088500
20
37.828100
11
39.182600
21
32.749900
0
LINE
8
Layer 1
10
39.182600
20
32.749900
11
38.826500
21
29.288600
0
LINE
8
Layer 1
10
38.826500
20
29.288600
11
38.947838
21
28.091712
0
LINE
8
Layer 1
10
38.947838
20
28.091712
11
39.311800
21
27.347600
0
LINE
8
Layer 1
10
39.311800
20
27.347600
11
39.974925
21
26.959625
0
LINE
8
Layer 1
10
39.974925
20
26.959625
11
40.929200
21
26.830400
0
LINE
8
Layer 1
10
40.929200
20
26.830400
11
42.012788
21
26.992150
0
LINE
8
Layer 1
10
42.012788
20
26.992150
11
42.740500
21
27.477300
0
LINE
8
Layer 1
10
42.740500
20
27.477300
11
43.233837
21
28.471963
0
LINE
8
Layer 1
10
43.233837
20
28.471963
11
43.549200
21
30.097300
0
LINE
8
Layer 1
10
43.549200
20
30.097300
11
44.624862
21
36.663575
0
LINE
8
Layer 1
10
44.624862
20
36.663575
11
45.265795
21
39.437219
0
LINE
8
Layer 1
10
45.265795
20
39.437219
11
45.975400
21
41.871300
0
LINE
8
Layer 1
10
45.975400
20
41.871300
11
47.528025
21
45.752900
0
LINE
8
Layer 1
10
47.528025
20
45.752900
11
48.328563
21
47.208497
0
LINE
8
Layer 1
10
48.328563
20
47.208497
11
49.145300
21
48.340600
0
LINE
8
Layer 1
10
49.145300
20
48.340600
11
49.976184
21
49.203952
0
LINE
8
Layer 1
10
49.976184
20
49.203952
11
50.786875
21
49.820712
0
LINE
8
Layer 1
10
50.786875
20
49.820712
11
51.577353
21
50.190817
0
LINE
8
Layer 1
10
51.577353
20
50.190817
11
52.347600
21
50.314200
0
LINE
8
Layer 1
10
52.347600
20
50.314200
11
53.059387
21
50.168537
0
LINE
8
Layer 1
10
53.059387
20
50.168537
11
53.577000
21
49.731800
0
LINE
8
Layer 1
10
53.577000
20
49.731800
11
53.916563
21
49.036325
0
LINE
8
Layer 1
10
53.916563
20
49.036325
11
54.029700
21
48.049700
0
LINE
8
Layer 1
10
54.029700
20
48.049700
11
53.932600
21
46.723700
0
LINE
8
Layer 1
10
53.932600
20
46.723700
11
53.673700
21
45.332600
0
LINE
8
Layer 1
10
53.673700
20
45.332600
11
53.447300
21
44.297500
0
LINE
8
Layer 1
10
53.447300
20
44.297500
11
52.153300
21
38.378000
0
LINE
8
Layer 1
10
52.153300
20
38.378000
11
51.571188
21
35.183625
0
LINE
8
Layer 1
10
51.571188
20
35.183625
11
51.377200
21
32.846500
0
LINE
8
Layer 1
10
51.377200
20
32.846500
11
51.474264
21
31.540488
0
LINE
8
Layer 1
10
51.474264
20
31.540488
11
51.765437
21
30.371950
0
LINE
8
Layer 1
10
51.765437
20
30.371950
11
52.250692
21
29.340888
0
LINE
8
Layer 1
10
52.250692
20
29.340888
11
52.930000
21
28.447300
0
LINE
8
Layer 1
10
52.930000
20
28.447300
11
53.781120
21
27.739794
0
LINE
8
Layer 1
10
53.781120
20
27.739794
11
54.781838
21
27.234525
0
LINE
8
Layer 1
10
54.781838
20
27.234525
11
55.932161
21
26.931419
0
LINE
8
Layer 1
10
55.932161
20
26.931419
11
57.232100
21
26.830400
0
LINE
8
Layer 1
10
57.232100
20
26.830400
11
59.003175
21
27.064825
0
LINE
8
Layer 1
10
59.003175
20
27.064825
11
60.693400
21
27.768300
0
LINE
8
Layer 1
10
60.693400
20
27.768300
11
62.334100
21
28.966700
0
LINE
8
Layer 1
10
62.334100
20
28.966700
11
62.795600
21
28.285600
0
LINE
8
Layer 1
10
62.795600
20
28.285600
11
63.444573
21
27.648837
0
LINE
8
Layer 1
10
63.444573
20
27.648837
11
64.194637
21
27.194100
0
LINE
8
Layer 1
10
64.194637
20
27.194100
11
65.045783
21
26.921312
0
LINE
8
Layer 1
10
65.045783
20
26.921312
11
65.998000
21
26.830400
0
LINE
8
Layer 1
10
65.998000
20
26.830400
11
67.221117
21
27.000219
0
LINE
8
Layer 1
10
67.221117
20
27.000219
11
68.335062
21
27.509675
0
LINE
8
Layer 1
10
68.335062
20
27.509675
11
69.339827
21
28.358769
0
LINE
8
Layer 1
10
69.339827
20
28.358769
11
70.235400
21
29.547500
0
LINE
8
Layer 1
10
70.235400
20
29.547500
11
70.793537
21
28.415325
0
LINE
8
Layer 1
10
70.793537
20
28.415325
11
71.561900
21
27.541900
0
LINE
8
Layer 1
10
71.561900
20
27.541900
11
72.508025
21
27.008250
0
LINE
8
Layer 1
10
72.508025
20
27.008250
11
73.535000
21
26.830400
0
LINE
8
Layer 1
10
73.535000
20
26.830400
11
74.950137
21
27.113450
0
LINE
8
Layer 1
10
74.950137
20
27.113450
11
76.413800
21
27.962600
0
LINE
8
Layer 1
10
76.413800
20
27.962600
11
77.712500
21
29.080900
0
LINE
8
Layer 1
10
77.712500
20
29.080900
11
78.225100
21
27.541900
0
LINE
8
Layer 1
10
78.225100
20
27.541900
11
78.839625
21
27.008250
0
LINE
8
Layer 1
10
78.839625
20
27.008250
11
79.712900
21
26.830400
0
LINE
8
Layer 1
10
79.712900
20
26.830400
11
80.578225
21
26.959625
0
LINE
8
Layer 1
10
80.578225
20
26.959625
11
81.168600
21
27.347600
0
LINE
8
Layer 1
10
81.168600
20
27.347600
11
81.621612
21
28.140113
0
LINE
8
Layer 1
10
81.621612
20
28.140113
11
82.009900
21
29.417800
0
LINE
8
Layer 1
10
82.009900
20
29.417800
11
82.624400
21
31.488012
0
LINE
8
Layer 1
10
82.624400
20
31.488012
11
83.433000
21
33.493500
0
LINE
8
Layer 1
10
83.433000
20
33.493500
11
84.371175
21
35.313000
0
LINE
8
Layer 1
10
84.371175
20
35.313000
11
85.374000
21
36.760500
0
LINE
8
Layer 1
10
85.374000
20
36.760500
11
86.392738
21
37.706825
0
LINE
8
Layer 1
10
86.392738
20
37.706825
11
87.314500
21
38.022400
0
LINE
8
Layer 1
10
87.314500
20
38.022400
11
87.638013
21
37.949488
0
LINE
8
Layer 1
10
87.638013
20
37.949488
11
87.896800
21
37.731000
0
LINE
8
Layer 1
10
87.896800
20
37.731000
11
88.090975
21
37.367087
0
LINE
8
Layer 1
10
88.090975
20
37.367087
11
88.155700
21
36.857600
0
LINE
8
Layer 1
10
88.155700
20
36.857600
11
88.001888
21
35.927800
0
LINE
8
Layer 1
10
88.001888
20
35.927800
11
87.540800
21
35.143500
0
LINE
8
Layer 1
10
87.540800
20
35.143500
11
86.724163
21
34.480387
0
LINE
8
Layer 1
10
86.724163
20
34.480387
11
85.503200
21
33.849600
0
LINE
8
Layer 1
10
85.503200
20
33.849600
11
84.937103
21
33.530191
0
LINE
8
Layer 1
10
84.937103
20
33.530191
11
84.532725
21
33.121850
0
LINE
8
Layer 1
10
84.532725
20
33.121850
11
84.290084
21
32.624559
0
LINE
8
Layer 1
10
84.290084
20
32.624559
11
84.209200
21
32.038300
0
LINE
8
Layer 1
10
84.209200
20
32.038300
11
84.304223
21
30.916248
0
LINE
8
Layer 1
10
84.304223
20
30.916248
11
84.589287
21
29.911412
0
LINE
8
Layer 1
10
84.589287
20
29.911412
11
85.064383
21
29.023820
0
LINE
8
Layer 1
10
85.064383
20
29.023820
11
85.729500
21
28.253500
0
LINE
8
Layer 1
10
85.729500
20
28.253500
11
86.550355
21
27.630866
0
LINE
8
Layer 1
10
86.550355
20
27.630866
11
87.492513
21
27.186150
0
LINE
8
Layer 1
10
87.492513
20
27.186150
11
88.555964
21
26.919334
0
LINE
8
Layer 1
10
88.555964
20
26.919334
11
89.740700
21
26.830400
0
LINE
8
Layer 1
10
89.740700
20
26.830400
11
91.641075
21
27.097062
0
LINE
8
Layer 1
10
91.641075
20
27.097062
11
92.488175
21
27.430517
0
LINE
8
Layer 1
10
92.488175
20
27.430517
11
93.266500
21
27.897500
0
LINE
8
Layer 1
10
93.266500
20
27.897500
11
94.980600
21
29.383700
0
LINE
8
Layer 1
10
94.980600
20
29.383700
11
95.595600
21
28.674200
0
LINE
8
Layer 1
10
95.595600
20
28.674200
11
96.628663
21
27.867537
0
LINE
8
Layer 1
10
96.628663
20
27.867537
11
97.851775
21
27.291350
0
LINE
8
Layer 1
10
97.851775
20
27.291350
11
99.264900
21
26.945638
0
LINE
8
Layer 1
10
99.264900
20
26.945638
11
100.868000
21
26.830400
0
LINE
8
Layer 1
10
100.868000
20
26.830400
11
102.093344
21
26.907172
0
LINE
8
Layer 1
10
102.093344
20
26.907172
11
103.278000
21
27.137525
0
LINE
8
Layer 1
10
103.278000
20
27.137525
11
104.422156
21
27.521516
0
LINE
8
Layer 1
10
104.422156
20
27.521516
11
105.526000
21
28.059200
0
LINE
8
Layer 1
10
105.526000
20
28.059200
11
107.203000
21
29.140300
0
LINE
8
Layer 1
10
107.203000
20
29.140300
11
107.467000
21
28.123800
0
LINE
8
Layer 1
10
107.467000
20
28.123800
11
107.770188
21
27.557797
0
LINE
8
Layer 1
10
107.770188
20
27.557797
11
108.162250
21
27.153625
0
LINE
8
Layer 1
10
108.162250
20
27.153625
11
108.643188
21
26.911191
0
LINE
8
Layer 1
10
108.643188
20
26.911191
11
109.213000
21
26.830400
0
LINE
8
Layer 1
10
109.213000
20
26.830400
11
110.103000
21
26.959625
0
LINE
8
Layer 1
10
110.103000
20
26.959625
11
110.702000
21
27.347600
0
LINE
8
Layer 1
10
110.702000
20
27.347600
11
111.130375
21
28.123950
0
LINE
8
Layer 1
10
111.130375
20
28.123950
11
111.510000
21
29.417800
0
LINE
8
Layer 1
10
111.510000
20
29.417800
11
112.067875
21
31.342425
0
LINE
8
Layer 1
10
112.067875
20
31.342425
11
112.772000
21
33.170000
0
LINE
8
Layer 1
10
112.772000
20
33.170000
11
113.548000
21
34.771350
0
LINE
8
Layer 1
10
113.548000
20
34.771350
11
114.324000
21
36.016900
0
LINE
8
Layer 1
10
114.324000
20
36.016900
11
115.020000
21
36.841650
0
LINE
8
Layer 1
10
115.020000
20
36.841650
11
115.554000
21
37.116500
0
LINE
8
Layer 1
10
115.554000
20
37.116500
11
115.812000
21
36.987300
0
LINE
8
Layer 1
10
115.812000
20
36.987300
11
115.942000
21
36.598700
0
LINE
8
Layer 1
10
115.942000
20
36.598700
11
115.877000
21
35.887200
0
LINE
8
Layer 1
10
115.877000
20
35.887200
11
115.812000
21
34.561100
0
LINE
8
Layer 1
10
115.812000
20
34.561100
11
115.965750
21
33.574588
0
LINE
8
Layer 1
10
115.965750
20
33.574588
11
116.427000
21
32.814500
0
LINE
8
Layer 1
10
116.427000
20
32.814500
11
117.138125
21
32.329262
0
LINE
8
Layer 1
10
117.138125
20
32.329262
11
117.979000
21
32.167500
0
LINE
8
Layer 1
10
117.979000
20
32.167500
11
119.062750
21
32.369687
0
LINE
8
Layer 1
10
119.062750
20
32.369687
11
120.049000
21
32.976200
0
LINE
8
Layer 1
10
120.049000
20
32.976200
11
120.882375
21
33.881950
0
LINE
8
Layer 1
10
120.882375
20
33.881950
11
121.505000
21
34.981800
0
LINE
8
Layer 1
10
121.505000
20
34.981800
11
121.699000
21
35.887200
0
LINE
8
Layer 1
10
121.699000
20
35.887200
11
121.569875
21
36.566537
0
LINE
8
Layer 1
10
121.569875
20
36.566537
11
121.182000
21
37.116500
0
LINE
8
Layer 1
10
121.182000
20
37.116500
11
120.639750
21
37.504562
0
LINE
8
Layer 1
10
120.639750
20
37.504562
11
119.985000
21
37.633800
0
LINE
8
Layer 1
10
119.985000
20
37.633800
11
119.694000
21
37.633800
0
LINE
8
Layer 1
10
119.694000
20
37.633800
11
120.049000
21
39.962900
0
LINE
8
Layer 1
10
120.049000
20
39.962900
11
119.919875
21
40.868675
0
LINE
8
Layer 1
10
119.919875
20
40.868675
11
119.532000
21
41.515700
0
LINE
8
Layer 1
10
119.532000
20
41.515700
11
118.933750
21
41.928125
0
LINE
8
Layer 1
10
118.933750
20
41.928125
11
118.109000
21
42.065600
0
LINE
8
Layer 1
10
118.109000
20
42.065600
11
117.017125
21
41.879500
0
LINE
8
Layer 1
10
117.017125
20
41.879500
11
115.812000
21
41.321400
0
LINE
8
Layer 1
10
115.812000
20
41.321400
11
114.534500
21
40.326725
0
LINE
8
Layer 1
10
114.534500
20
40.326725
11
113.224000
21
38.830600
0
LINE
8
Layer 1
10
113.224000
20
38.830600
11
111.962625
21
36.825225
0
LINE
8
Layer 1
10
111.962625
20
36.825225
11
110.831000
21
34.302200
0
LINE
8
Layer 1
10
110.831000
20
34.302200
11
111.154000
21
36.695900
0
LINE
8
Layer 1
10
111.154000
20
36.695900
11
111.672000
21
38.960400
0
LINE
8
Layer 1
10
111.672000
20
38.960400
11
112.157000
21
41.289400
0
LINE
8
Layer 1
10
112.157000
20
41.289400
11
112.092375
21
41.669387
0
LINE
8
Layer 1
10
112.092375
20
41.669387
11
111.898000
21
41.903800
0
LINE
8
Layer 1
10
111.898000
20
41.903800
11
110.993000
21
42.065600
0
LINE
8
Layer 1
10
110.993000
20
42.065600
11
109.925125
21
41.952463
0
LINE
8
Layer 1
10
109.925125
20
41.952463
11
109.116000
21
41.612900
0
LINE
8
Layer 1
10
109.116000
20
41.612900
11
108.558125
21
41.063012
0
LINE
8
Layer 1
10
108.558125
20
41.063012
11
108.178000
21
40.254300
0
LINE
8
Layer 1
10
108.178000
20
40.254300
11
107.331250
21
36.674150
0
LINE
8
Layer 1
10
107.331250
20
36.674150
11
106.993000
21
32.915200
0
LINE
8
Layer 1
10
106.993000
20
32.915200
11
105.827375
21
31.909075
0
LINE
8
Layer 1
10
105.827375
20
31.909075
11
104.523000
21
31.067800
0
LINE
8
Layer 1
10
104.523000
20
31.067800
11
102.776375
21
30.315613
0
LINE
8
Layer 1
10
102.776375
20
30.315613
11
101.224000
21
30.064800
0
LINE
8
Layer 1
10
101.224000
20
30.064800
11
100.182666
21
30.157847
0
LINE
8
Layer 1
10
100.182666
20
30.157847
11
99.323450
21
30.436950
0
LINE
8
Layer 1
10
99.323450
20
30.436950
11
98.646259
21
30.902053
0
LINE
8
Layer 1
10
98.646259
20
30.902053
11
98.151000
21
31.553100
0
LINE
8
Layer 1
10
98.151000
20
31.553100
11
99.920094
21
32.062488
0
LINE
8
Layer 1
10
99.920094
20
32.062488
11
101.410000
21
32.652725
0
LINE
8
Layer 1
10
101.410000
20
32.652725
11
102.620906
21
33.323850
0
LINE
8
Layer 1
10
102.620906
20
33.323850
11
103.553000
21
34.075900
0
LINE
8
Layer 1
10
103.553000
20
34.075900
11
104.260437
21
34.922984
0
LINE
8
Layer 1
10
104.260437
20
34.922984
11
104.765750
21
35.846925
0
LINE
8
Layer 1
10
104.765750
20
35.846925
11
105.068938
21
36.847703
0
LINE
8
Layer 1
10
105.068938
20
36.847703
11
105.170000
21
37.925300
0
LINE
8
Layer 1
10
105.170000
20
37.925300
11
105.099297
21
38.828961
0
LINE
8
Layer 1
10
105.099297
20
38.828961
11
104.887125
21
39.631512
0
LINE
8
Layer 1
10
104.887125
20
39.631512
11
104.533391
21
40.332983
0
LINE
8
Layer 1
10
104.533391
20
40.332983
11
104.038000
21
40.933400
0
LINE
8
Layer 1
10
104.038000
20
40.933400
11
103.425406
21
41.428695
0
LINE
8
Layer 1
10
103.425406
20
41.428695
11
102.720000
21
41.782513
0
LINE
8
Layer 1
10
102.720000
20
41.782513
11
101.921594
21
41.994823
0
LINE
8
Layer 1
10
101.921594
20
41.994823
11
101.030000
21
42.065600
0
LINE
8
Layer 1
10
101.030000
20
42.065600
11
99.032400
21
41.782513
0
LINE
8
Layer 1
10
99.032400
20
41.782513
11
98.112453
21
41.428695
0
LINE
8
Layer 1
10
98.112453
20
41.428695
11
97.245100
21
40.933400
0
LINE
8
Layer 1
10
97.245100
20
40.933400
11
95.773212
21
39.599213
0
LINE
8
Layer 1
10
95.773212
20
39.599213
11
94.657200
21
37.860700
0
LINE
8
Layer 1
10
94.657200
20
37.860700
11
93.953675
21
35.871150
0
LINE
8
Layer 1
10
93.953675
20
35.871150
11
93.719200
21
33.719900
0
LINE
8
Layer 1
10
93.719200
20
33.719900
11
93.814800
21
32.357100
0
LINE
8
Layer 1
10
93.814800
20
32.357100
11
92.587000
21
31.164500
0
LINE
8
Layer 1
10
92.587000
20
31.164500
11
91.632913
21
30.582300
0
LINE
8
Layer 1
10
91.632913
20
30.582300
11
90.646500
21
30.388300
0
LINE
8
Layer 1
10
90.646500
20
30.388300
11
89.773112
21
30.517788
0
LINE
8
Layer 1
10
89.773112
20
30.517788
11
89.029100
21
30.906100
0
LINE
8
Layer 1
10
89.029100
20
30.906100
11
88.511625
21
31.536800
0
LINE
8
Layer 1
10
88.511625
20
31.536800
11
88.252900
21
32.329200
0
LINE
8
Layer 1
10
88.252900
20
32.329200
11
90.128975
21
33.574650
0
LINE
8
Layer 1
10
90.128975
20
33.574650
11
91.358100
21
34.981800
0
LINE
8
Layer 1
10
91.358100
20
34.981800
11
92.037225
21
36.542513
0
LINE
8
Layer 1
10
92.037225
20
36.542513
11
92.263500
21
38.248800
0
LINE
8
Layer 1
10
92.263500
20
38.248800
11
92.012937
21
39.736725
0
LINE
8
Layer 1
10
92.012937
20
39.736725
11
91.261000
21
40.965900
0
LINE
8
Layer 1
10
91.261000
20
40.965900
11
90.735308
21
41.447047
0
LINE
8
Layer 1
10
90.735308
20
41.447047
11
90.128737
21
41.790700
0
LINE
8
Layer 1
10
90.128737
20
41.790700
11
89.441298
21
41.996878
0
LINE
8
Layer 1
10
89.441298
20
41.996878
11
88.673000
21
42.065600
0
LINE
8
Layer 1
10
88.673000
20
42.065600
11
87.783461
21
41.950348
0
LINE
8
Layer 1
10
87.783461
20
41.950348
11
86.861588
21
41.604613
0
LINE
8
Layer 1
10
86.861588
20
41.604613
11
85.907370
21
41.028420
0
LINE
8
Layer 1
10
85.907370
20
41.028420
11
84.920800
21
40.221800
0
LINE
8
Layer 1
10
84.920800
20
40.221800
11
83.946392
21
39.176569
0
LINE
8
Layer 1
10
83.946392
20
39.176569
11
83.028638
21
37.852300
0
LINE
8
Layer 1
10
83.028638
20
37.852300
11
82.167489
21
36.249031
0
LINE
8
Layer 1
10
82.167489
20
36.249031
11
81.362900
21
34.366800
0
LINE
8
Layer 1
10
81.362900
20
34.366800
11
81.460000
21
37.828100
0
LINE
8
Layer 1
10
81.460000
20
37.828100
11
85.163675
21
42.219313
0
LINE
8
Layer 1
10
85.163675
20
42.219313
11
86.566684
21
44.190523
0
LINE
8
Layer 1
10
86.566684
20
44.190523
11
87.670500
21
46.012100
0
LINE
8
Layer 1
10
87.670500
20
46.012100
11
88.505439
21
47.758812
0
LINE
8
Layer 1
10
88.505439
20
47.758812
11
89.101812
21
49.473200
0
LINE
8
Layer 1
10
89.101812
20
49.473200
11
89.459630
21
51.155263
0
LINE
8
Layer 1
10
89.459630
20
51.155263
11
89.578900
21
52.805000
0
LINE
8
Layer 1
10
89.578900
20
52.805000
11
89.344475
21
54.648562
0
LINE
8
Layer 1
10
89.344475
20
54.648562
11
88.641000
21
56.104000
0
LINE
8
Layer 1
10
88.641000
20
56.104000
11
88.151756
21
56.670097
0
LINE
8
Layer 1
10
88.151756
20
56.670097
11
87.589725
21
57.074475
0
LINE
8
Layer 1
10
87.589725
20
57.074475
11
86.954906
21
57.317116
0
LINE
8
Layer 1
10
86.954906
20
57.317116
11
86.247300
21
57.398000
0
LINE
8
Layer 1
10
86.247300
20
57.398000
11
86.247300
21
57.398000
0
LINE
8
Layer 1
10
85.567800
20
54.195600
11
85.939787
21
54.058125
0
LINE
8
Layer 1
10
85.939787
20
54.058125
11
86.214800
21
53.645700
0
LINE
8
Layer 1
10
86.214800
20
53.645700
11
86.441100
21
52.060800
0
LINE
8
Layer 1
10
86.441100
20
52.060800
11
86.358253
21
50.896314
0
LINE
8
Layer 1
10
86.358253
20
50.896314
11
86.109675
21
49.667113
0
LINE
8
Layer 1
10
86.109675
20
49.667113
11
85.115100
21
47.014600
0
LINE
8
Layer 1
10
85.115100
20
47.014600
11
83.643250
21
44.337838
0
LINE
8
Layer 1
10
83.643250
20
44.337838
11
81.815600
21
41.871300
0
LINE
8
Layer 1
10
81.815600
20
41.871300
11
82.292775
21
45.073587
0
LINE
8
Layer 1
10
82.292775
20
45.073587
11
82.883200
21
48.017200
0
LINE
8
Layer 1
10
82.883200
20
48.017200
11
83.570437
21
50.564525
0
LINE
8
Layer 1
10
83.570437
20
50.564525
11
84.273800
21
52.513500
0
LINE
8
Layer 1
10
84.273800
20
52.513500
11
84.953125
21
53.775075
0
LINE
8
Layer 1
10
84.953125
20
53.775075
11
85.268553
21
54.090469
0
LINE
8
Layer 1
10
85.268553
20
54.090469
11
85.567800
21
54.195600
0
LINE
8
Layer 1
10
85.567800
20
54.195600
11
85.567800
21
54.195600
0
LINE
8
Layer 1
10
129.075000
20
42.421600
11
128.187375
21
42.332586
0
LINE
8
Layer 1
10
128.187375
20
42.332586
11
127.465500
21
42.065588
0
LINE
8
Layer 1
10
127.465500
20
42.065588
11
126.909375
21
41.620670
0
LINE
8
Layer 1
10
126.909375
20
41.620670
11
126.519000
21
40.997900
0
LINE
8
Layer 1
10
126.519000
20
40.997900
11
125.064000
21
37.731000
0
LINE
8
Layer 1
10
125.064000
20
37.731000
11
123.770000
21
35.240200
0
LINE
8
Layer 1
10
123.770000
20
35.240200
11
121.085000
21
31.617700
0
LINE
8
Layer 1
10
121.085000
20
31.617700
11
120.664000
21
31.099900
0
LINE
8
Layer 1
10
120.664000
20
31.099900
11
120.324750
21
30.525713
0
LINE
8
Layer 1
10
120.324750
20
30.525713
11
120.212000
21
29.903000
0
LINE
8
Layer 1
10
120.212000
20
29.903000
11
120.292500
21
29.393625
0
LINE
8
Layer 1
10
120.292500
20
29.393625
11
120.535000
21
28.965100
0
LINE
8
Layer 1
10
120.535000
20
28.965100
11
120.906750
21
28.698150
0
LINE
8
Layer 1
10
120.906750
20
28.698150
11
121.376000
21
28.609100
0
LINE
8
Layer 1
10
121.376000
20
28.609100
11
122.006625
21
28.754713
0
LINE
8
Layer 1
10
122.006625
20
28.754713
11
122.605000
21
29.191400
0
LINE
8
Layer 1
10
122.605000
20
29.191400
11
124.740000
21
31.585100
0
LINE
8
Layer 1
10
124.740000
20
31.585100
11
125.743000
21
33.008263
0
LINE
8
Layer 1
10
125.743000
20
33.008263
11
126.746000
21
34.754900
0
LINE
8
Layer 1
10
126.746000
20
34.754900
11
127.716000
21
33.526100
0
LINE
8
Layer 1
10
127.716000
20
33.526100
11
128.557000
21
32.102900
0
LINE
8
Layer 1
10
128.557000
20
32.102900
11
128.831625
21
31.334712
0
LINE
8
Layer 1
10
128.831625
20
31.334712
11
128.945000
21
30.518000
0
LINE
8
Layer 1
10
128.945000
20
30.518000
11
128.072000
21
30.614600
0
LINE
8
Layer 1
10
128.072000
20
30.614600
11
127.101000
21
30.711800
0
LINE
8
Layer 1
10
127.101000
20
30.711800
11
126.050000
21
30.558225
0
LINE
8
Layer 1
10
126.050000
20
30.558225
11
125.290000
21
30.097300
0
LINE
8
Layer 1
10
125.290000
20
30.097300
11
124.828750
21
29.426075
0
LINE
8
Layer 1
10
124.828750
20
29.426075
11
124.675000
21
28.641600
0
LINE
8
Layer 1
10
124.675000
20
28.641600
11
124.893750
21
27.719775
0
LINE
8
Layer 1
10
124.893750
20
27.719775
11
125.549000
21
26.895000
0
LINE
8
Layer 1
10
125.549000
20
26.895000
11
126.648625
21
26.312800
0
LINE
8
Layer 1
10
126.648625
20
26.312800
11
128.136000
21
26.118800
0
LINE
8
Layer 1
10
128.136000
20
26.118800
11
129.794000
21
26.393687
0
LINE
8
Layer 1
10
129.794000
20
26.393687
11
131.209000
21
27.218400
0
LINE
8
Layer 1
10
131.209000
20
27.218400
11
133.213000
21
27.448400
0
LINE
8
Layer 1
10
133.213000
20
27.448400
11
131.986000
21
24.371600
0
LINE
8
Layer 1
10
131.986000
20
24.371600
11
130.893875
21
20.401063
0
LINE
8
Layer 1
10
130.893875
20
20.401063
11
130.620953
21
18.615973
0
LINE
8
Layer 1
10
130.620953
20
18.615973
11
130.530000
21
16.964300
0
LINE
8
Layer 1
10
130.530000
20
16.964300
11
130.740125
21
14.975025
0
LINE
8
Layer 1
10
130.740125
20
14.975025
11
131.371000
21
13.471000
0
LINE
8
Layer 1
10
131.371000
20
13.471000
11
131.848219
21
12.919109
0
LINE
8
Layer 1
10
131.848219
20
12.919109
11
132.438500
21
12.524925
0
LINE
8
Layer 1
10
132.438500
20
12.524925
11
133.142031
21
12.288428
0
LINE
8
Layer 1
10
133.142031
20
12.288428
11
133.959000
21
12.209600
0
LINE
8
Layer 1
10
133.959000
20
12.209600
11
135.311422
21
12.472388
0
LINE
8
Layer 1
10
135.311422
20
12.472388
11
136.490125
21
13.260775
0
LINE
8
Layer 1
10
136.490125
20
13.260775
11
137.495016
21
14.574800
0
LINE
8
Layer 1
10
137.495016
20
14.574800
11
138.326000
21
16.414500
0
LINE
8
Layer 1
10
138.326000
20
16.414500
11
139.003250
21
18.630275
0
LINE
8
Layer 1
10
139.003250
20
18.630275
11
139.547000
21
21.104875
0
LINE
8
Layer 1
10
139.547000
20
21.104875
11
139.957250
21
23.838263
0
LINE
8
Layer 1
10
139.957250
20
23.838263
11
140.234000
21
26.830400
0
LINE
8
Layer 1
10
140.234000
20
26.830400
11
142.199125
21
27.153650
0
LINE
8
Layer 1
10
142.199125
20
27.153650
11
144.084000
21
28.059200
0
LINE
8
Layer 1
10
144.084000
20
28.059200
11
144.657750
21
27.521516
0
LINE
8
Layer 1
10
144.657750
20
27.521516
11
145.312500
21
27.137525
0
LINE
8
Layer 1
10
145.312500
20
27.137525
11
146.048250
21
26.907172
0
LINE
8
Layer 1
10
146.048250
20
26.907172
11
146.865000
21
26.830400
0
LINE
8
Layer 1
10
146.865000
20
26.830400
11
148.790125
21
27.105250
0
LINE
8
Layer 1
10
148.790125
20
27.105250
11
150.488000
21
27.930000
0
LINE
8
Layer 1
10
150.488000
20
27.930000
11
151.807000
21
28.964600
0
LINE
8
Layer 1
10
151.807000
20
28.964600
11
152.267000
21
28.285600
0
LINE
8
Layer 1
10
152.267000
20
28.285600
11
152.915953
21
27.648837
0
LINE
8
Layer 1
10
152.915953
20
27.648837
11
153.665875
21
27.194100
0
LINE
8
Layer 1
10
153.665875
20
27.194100
11
154.516859
21
26.921312
0
LINE
8
Layer 1
10
154.516859
20
26.921312
11
155.469000
21
26.830400
0
LINE
8
Layer 1
10
155.469000
20
26.830400
11
156.692281
21
27.000219
0
LINE
8
Layer 1
10
156.692281
20
27.000219
11
157.806250
21
27.509675
0
LINE
8
Layer 1
10
157.806250
20
27.509675
11
158.811094
21
28.358769
0
LINE
8
Layer 1
10
158.811094
20
28.358769
11
159.707000
21
29.547500
0
LINE
8
Layer 1
10
159.707000
20
29.547500
11
160.265000
21
28.415325
0
LINE
8
Layer 1
10
160.265000
20
28.415325
11
161.033000
21
27.541900
0
LINE
8
Layer 1
10
161.033000
20
27.541900
11
161.979375
21
27.008250
0
LINE
8
Layer 1
10
161.979375
20
27.008250
11
163.006000
21
26.830400
0
LINE
8
Layer 1
10
163.006000
20
26.830400
11
164.421500
21
27.113450
0
LINE
8
Layer 1
10
164.421500
20
27.113450
11
165.885000
21
27.962600
0
LINE
8
Layer 1
10
165.885000
20
27.962600
11
167.375000
21
29.266900
0
LINE
8
Layer 1
10
167.375000
20
29.266900
11
167.923000
21
28.609100
0
LINE
8
Layer 1
10
167.923000
20
28.609100
11
168.899484
21
27.830792
0
LINE
8
Layer 1
10
168.899484
20
27.830792
11
170.049875
21
27.274963
0
LINE
8
Layer 1
10
170.049875
20
27.274963
11
171.374078
21
26.941527
0
LINE
8
Layer 1
10
171.374078
20
26.941527
11
172.872000
21
26.830400
0
LINE
8
Layer 1
10
172.872000
20
26.830400
11
174.877375
21
27.080962
0
LINE
8
Layer 1
10
174.877375
20
27.080962
11
176.948000
21
27.832900
0
LINE
8
Layer 1
10
176.948000
20
27.832900
11
178.167875
21
28.527988
0
LINE
8
Layer 1
10
178.167875
20
28.527988
11
179.279000
21
29.373300
0
LINE
8
Layer 1
10
179.279000
20
29.373300
11
179.827000
21
28.674200
0
LINE
8
Layer 1
10
179.827000
20
28.674200
11
180.770656
21
27.867537
0
LINE
8
Layer 1
10
180.770656
20
27.867537
11
181.888500
21
27.291350
0
LINE
8
Layer 1
10
181.888500
20
27.291350
11
183.180344
21
26.945638
0
LINE
8
Layer 1
10
183.180344
20
26.945638
11
184.646000
21
26.830400
0
LINE
8
Layer 1
10
184.646000
20
26.830400
11
186.538500
21
27.024387
0
LINE
8
Layer 1
10
186.538500
20
27.024387
11
188.140000
21
27.606500
0
LINE
8
Layer 1
10
188.140000
20
27.606500
11
189.482375
21
28.536550
0
LINE
8
Layer 1
10
189.482375
20
28.536550
11
190.533000
21
29.773800
0
LINE
8
Layer 1
10
190.533000
20
29.773800
11
190.945625
21
30.695750
0
LINE
8
Layer 1
10
190.945625
20
30.695750
11
191.083000
21
31.779400
0
LINE
8
Layer 1
10
191.083000
20
31.779400
11
191.018500
21
32.385738
0
LINE
8
Layer 1
10
191.018500
20
32.385738
11
190.825000
21
32.846500
0
LINE
8
Layer 1
10
190.825000
20
32.846500
11
190.549875
21
33.137850
0
LINE
8
Layer 1
10
190.549875
20
33.137850
11
190.178000
21
33.235100
0
LINE
8
Layer 1
10
190.178000
20
33.235100
11
189.716625
21
33.113813
0
LINE
8
Layer 1
10
189.716625
20
33.113813
11
189.304000
21
32.749900
0
LINE
8
Layer 1
10
189.304000
20
32.749900
11
188.237000
21
31.504575
0
LINE
8
Layer 1
10
188.237000
20
31.504575
11
187.299000
21
30.679700
0
LINE
8
Layer 1
10
187.299000
20
30.679700
11
186.336625
21
30.218613
0
LINE
8
Layer 1
10
186.336625
20
30.218613
11
185.132000
21
30.064800
0
LINE
8
Layer 1
10
185.132000
20
30.064800
11
184.276422
21
30.157847
0
LINE
8
Layer 1
10
184.276422
20
30.157847
11
183.554625
21
30.436950
0
LINE
8
Layer 1
10
183.554625
20
30.436950
11
182.966516
21
30.902053
0
LINE
8
Layer 1
10
182.966516
20
30.902053
11
182.512000
21
31.553100
0
LINE
8
Layer 1
10
182.512000
20
31.553100
11
184.294953
21
32.062488
0
LINE
8
Layer 1
10
184.294953
20
32.062488
11
185.794875
21
32.652725
0
LINE
8
Layer 1
10
185.794875
20
32.652725
11
187.011859
21
33.323850
0
LINE
8
Layer 1
10
187.011859
20
33.323850
11
187.946000
21
34.075900
0
LINE
8
Layer 1
10
187.946000
20
34.075900
11
188.653438
21
34.922984
0
LINE
8
Layer 1
10
188.653438
20
34.922984
11
189.158750
21
35.846925
0
LINE
8
Layer 1
10
189.158750
20
35.846925
11
189.461938
21
36.847703
0
LINE
8
Layer 1
10
189.461938
20
36.847703
11
189.563000
21
37.925300
0
LINE
8
Layer 1
10
189.563000
20
37.925300
11
189.492297
21
38.828961
0
LINE
8
Layer 1
10
189.492297
20
38.828961
11
189.280125
21
39.631512
0
LINE
8
Layer 1
10
189.280125
20
39.631512
11
188.926391
21
40.332983
0
LINE
8
Layer 1
10
188.926391
20
40.332983
11
188.431000
21
40.933400
0
LINE
8
Layer 1
10
188.431000
20
40.933400
11
187.818266
21
41.428695
0
LINE
8
Layer 1
10
187.818266
20
41.428695
11
187.112625
21
41.782513
0
LINE
8
Layer 1
10
187.112625
20
41.782513
11
186.314172
21
41.994823
0
LINE
8
Layer 1
10
186.314172
20
41.994823
11
185.423000
21
42.065600
0
LINE
8
Layer 1
10
185.423000
20
42.065600
11
183.425500
21
41.782513
0
LINE
8
Layer 1
10
183.425500
20
41.782513
11
182.505594
21
41.428695
0
LINE
8
Layer 1
10
182.505594
20
41.428695
11
181.638000
21
40.933400
0
LINE
8
Layer 1
10
181.638000
20
40.933400
11
180.166625
21
39.599213
0
LINE
8
Layer 1
10
180.166625
20
39.599213
11
179.050000
21
37.860700
0
LINE
8
Layer 1
10
179.050000
20
37.860700
11
178.346625
21
35.871150
0
LINE
8
Layer 1
10
178.346625
20
35.871150
11
178.112000
21
33.719900
0
LINE
8
Layer 1
10
178.112000
20
33.719900
11
178.191000
21
32.429000
0
LINE
8
Layer 1
10
178.191000
20
32.429000
11
176.398000
21
31.067800
0
LINE
8
Layer 1
10
176.398000
20
31.067800
11
174.926125
21
30.412825
0
LINE
8
Layer 1
10
174.926125
20
30.412825
11
173.551000
21
30.194500
0
LINE
8
Layer 1
10
173.551000
20
30.194500
11
172.121687
21
30.429008
0
LINE
8
Layer 1
10
172.121687
20
30.429008
11
171.560172
21
30.722144
0
LINE
8
Layer 1
10
171.560172
20
30.722144
11
171.100750
21
31.132538
0
LINE
8
Layer 1
10
171.100750
20
31.132538
11
170.488187
21
32.305098
0
LINE
8
Layer 1
10
170.488187
20
32.305098
11
170.284000
21
33.946700
0
LINE
8
Layer 1
10
170.284000
20
33.946700
11
170.381375
21
35.248438
0
LINE
8
Layer 1
10
170.381375
20
35.248438
11
170.673000
21
36.437000
0
LINE
8
Layer 1
10
170.673000
20
36.437000
11
171.125250
21
37.447913
0
LINE
8
Layer 1
10
171.125250
20
37.447913
11
171.708000
21
38.216200
0
LINE
8
Layer 1
10
171.708000
20
38.216200
11
172.379125
21
38.725837
0
LINE
8
Layer 1
10
172.379125
20
38.725837
11
173.099000
21
38.895800
0
LINE
8
Layer 1
10
173.099000
20
38.895800
11
173.681000
21
38.668900
0
LINE
8
Layer 1
10
173.681000
20
38.668900
11
173.907000
21
38.022400
0
LINE
8
Layer 1
10
173.907000
20
38.022400
11
173.745000
21
37.116500
0
LINE
8
Layer 1
10
173.745000
20
37.116500
11
173.649000
21
36.695900
0
LINE
8
Layer 1
10
173.649000
20
36.695900
11
173.584000
21
36.178600
0
LINE
8
Layer 1
10
173.584000
20
36.178600
11
173.672750
21
35.717663
0
LINE
8
Layer 1
10
173.672750
20
35.717663
11
173.940000
21
35.369900
0
LINE
8
Layer 1
10
173.940000
20
35.369900
11
174.384000
21
35.151363
0
LINE
8
Layer 1
10
174.384000
20
35.151363
11
174.942000
21
35.078400
0
LINE
8
Layer 1
10
174.942000
20
35.078400
11
175.815625
21
35.313125
0
LINE
8
Layer 1
10
175.815625
20
35.313125
11
176.495000
21
36.016900
0
LINE
8
Layer 1
10
176.495000
20
36.016900
11
176.955750
21
37.060000
0
LINE
8
Layer 1
10
176.955750
20
37.060000
11
177.109000
21
38.313400
0
LINE
8
Layer 1
10
177.109000
20
38.313400
11
176.858500
21
39.809325
0
LINE
8
Layer 1
10
176.858500
20
39.809325
11
176.107000
21
40.997900
0
LINE
8
Layer 1
10
176.107000
20
40.997900
11
175.571141
21
41.464977
0
LINE
8
Layer 1
10
175.571141
20
41.464977
11
174.934125
21
41.798638
0
LINE
8
Layer 1
10
174.934125
20
41.798638
11
173.357000
21
42.065600
0
LINE
8
Layer 1
10
173.357000
20
42.065600
11
171.586375
21
41.798638
0
LINE
8
Layer 1
10
171.586375
20
41.798638
11
169.896000
21
40.997900
0
LINE
8
Layer 1
10
169.896000
20
40.997900
11
168.400125
21
39.704025
0
LINE
8
Layer 1
10
168.400125
20
39.704025
11
167.211000
21
37.957300
0
LINE
8
Layer 1
10
167.211000
20
37.957300
11
166.434750
21
35.822538
0
LINE
8
Layer 1
10
166.434750
20
35.822538
11
166.176000
21
33.364300
0
LINE
8
Layer 1
10
166.176000
20
33.364300
11
166.243000
21
32.263600
0
LINE
8
Layer 1
10
166.243000
20
32.263600
11
165.174000
21
31.164500
0
LINE
8
Layer 1
10
165.174000
20
31.164500
11
164.364625
21
30.582300
0
LINE
8
Layer 1
10
164.364625
20
30.582300
11
163.685000
21
30.388300
0
LINE
8
Layer 1
10
163.685000
20
30.388300
11
163.329625
21
30.461213
0
LINE
8
Layer 1
10
163.329625
20
30.461213
11
163.038000
21
30.679700
0
LINE
8
Layer 1
10
163.038000
20
30.679700
11
162.812000
21
31.455900
0
LINE
8
Layer 1
10
162.812000
20
31.455900
11
162.998000
21
33.477537
0
LINE
8
Layer 1
10
162.998000
20
33.477537
11
163.556000
21
36.631300
0
LINE
8
Layer 1
10
163.556000
20
36.631300
11
164.041000
21
39.866200
0
LINE
8
Layer 1
10
164.041000
20
39.866200
11
163.942000
21
40.361459
0
LINE
8
Layer 1
10
163.942000
20
40.361459
11
163.645000
21
40.715100
0
LINE
8
Layer 1
10
163.645000
20
40.715100
11
163.150000
21
40.927216
0
LINE
8
Layer 1
10
163.150000
20
40.927216
11
162.457000
21
40.997900
0
LINE
8
Layer 1
10
162.457000
20
40.997900
11
161.033000
21
40.868800
0
LINE
8
Layer 1
10
161.033000
20
40.868800
11
160.613000
21
41.839200
0
LINE
8
Layer 1
10
160.613000
20
41.839200
11
160.265125
21
42.057488
0
LINE
8
Layer 1
10
160.265125
20
42.057488
11
159.675000
21
42.130200
0
LINE
8
Layer 1
10
159.675000
20
42.130200
11
158.573078
21
42.041264
0
LINE
8
Layer 1
10
158.573078
20
42.041264
11
157.499375
21
41.774438
0
LINE
8
Layer 1
10
157.499375
20
41.774438
11
156.453984
21
41.329692
0
LINE
8
Layer 1
10
156.453984
20
41.329692
11
155.437000
21
40.707000
0
LINE
8
Layer 1
10
155.437000
20
40.707000
11
154.499141
21
39.952941
0
LINE
8
Layer 1
10
154.499141
20
39.952941
11
153.658125
21
39.081675
0
LINE
8
Layer 1
10
153.658125
20
39.081675
11
152.267000
21
36.987300
0
LINE
8
Layer 1
10
152.267000
20
36.987300
11
151.399750
21
34.729200
0
LINE
8
Layer 1
10
151.399750
20
34.729200
11
151.077000
21
32.338500
0
LINE
8
Layer 1
10
151.077000
20
32.338500
11
149.841000
21
31.164500
0
LINE
8
Layer 1
10
149.841000
20
31.164500
11
148.846375
21
30.582300
0
LINE
8
Layer 1
10
148.846375
20
30.582300
11
147.803000
21
30.388300
0
LINE
8
Layer 1
10
147.803000
20
30.388300
11
146.671000
21
30.582600
0
LINE
8
Layer 1
10
146.671000
20
30.582600
11
147.536375
21
31.981525
0
LINE
8
Layer 1
10
147.536375
20
31.981525
11
148.191000
21
33.526100
0
LINE
8
Layer 1
10
148.191000
20
33.526100
11
148.603625
21
35.167588
0
LINE
8
Layer 1
10
148.603625
20
35.167588
11
148.741000
21
36.857600
0
LINE
8
Layer 1
10
148.741000
20
36.857600
11
148.668250
21
37.981686
0
LINE
8
Layer 1
10
148.668250
20
37.981686
11
148.450000
21
38.992513
0
LINE
8
Layer 1
10
148.450000
20
38.992513
11
148.086250
21
39.890108
0
LINE
8
Layer 1
10
148.086250
20
39.890108
11
147.577000
21
40.674500
0
LINE
8
Layer 1
10
147.577000
20
40.674500
11
146.968359
21
41.311341
0
LINE
8
Layer 1
10
146.968359
20
41.311341
11
146.274875
21
41.766250
0
LINE
8
Layer 1
10
146.274875
20
41.766250
11
145.496453
21
42.039209
0
LINE
8
Layer 1
10
145.496453
20
42.039209
11
144.633000
21
42.130200
0
LINE
8
Layer 1
10
144.633000
20
42.130200
11
143.533750
21
41.984538
0
LINE
8
Layer 1
10
143.533750
20
41.984538
11
142.499000
21
41.547800
0
LINE
8
Layer 1
10
142.499000
20
41.547800
11
141.487875
21
40.812150
0
LINE
8
Layer 1
10
141.487875
20
40.812150
11
140.461000
21
39.704500
0
LINE
8
Layer 1
10
140.461000
20
39.704500
11
140.428000
21
40.901300
0
LINE
8
Layer 1
10
140.428000
20
40.901300
11
140.322750
21
41.572325
0
LINE
8
Layer 1
10
140.322750
20
41.572325
11
140.072000
21
41.968400
0
LINE
8
Layer 1
10
140.072000
20
41.968400
11
139.684125
21
42.186937
0
LINE
8
Layer 1
10
139.684125
20
42.186937
11
139.102000
21
42.259900
0
LINE
8
Layer 1
10
139.102000
20
42.259900
11
138.034750
21
42.122175
0
LINE
8
Layer 1
10
138.034750
20
42.122175
11
137.161000
21
41.709500
0
LINE
8
Layer 1
10
137.161000
20
41.709500
11
136.586875
21
41.062663
0
LINE
8
Layer 1
10
136.586875
20
41.062663
11
136.417000
21
40.221800
0
LINE
8
Layer 1
10
136.417000
20
40.221800
11
136.482000
21
33.655300
0
LINE
8
Layer 1
10
136.482000
20
33.655300
11
136.020000
21
32.866700
0
LINE
8
Layer 1
10
136.020000
20
32.866700
11
134.444625
21
31.334350
0
LINE
8
Layer 1
10
134.444625
20
31.334350
11
133.053000
21
30.485400
0
LINE
8
Layer 1
10
133.053000
20
30.485400
11
133.118000
21
31.391300
0
LINE
8
Layer 1
10
133.118000
20
31.391300
11
132.980625
21
32.474925
0
LINE
8
Layer 1
10
132.980625
20
32.474925
11
132.568000
21
33.461500
0
LINE
8
Layer 1
10
132.568000
20
33.461500
11
131.015000
21
35.790500
0
LINE
8
Layer 1
10
131.015000
20
35.790500
11
129.948000
21
37.245700
0
LINE
8
Layer 1
10
129.948000
20
37.245700
11
129.624000
21
38.313400
0
LINE
8
Layer 1
10
129.624000
20
38.313400
11
129.769500
21
39.210912
0
LINE
8
Layer 1
10
129.769500
20
39.210912
11
130.206000
21
40.286400
0
LINE
8
Layer 1
10
130.206000
20
40.286400
11
130.562000
21
41.127700
0
LINE
8
Layer 1
10
130.562000
20
41.127700
11
130.692000
21
41.742100
0
LINE
8
Layer 1
10
130.692000
20
41.742100
11
130.602875
21
42.049525
0
LINE
8
Layer 1
10
130.602875
20
42.049525
11
130.336000
21
42.259900
0
LINE
8
Layer 1
10
130.336000
20
42.259900
11
129.075000
21
42.421600
0
LINE
8
Layer 1
10
129.075000
20
42.421600
11
129.075000
21
42.421600
0
LINE
8
Layer 1
10
70.656100
20
39.122100
11
69.459200
21
33.170000
0
LINE
8
Layer 1
10
69.459200
20
33.170000
11
69.079238
21
31.916575
0
LINE
8
Layer 1
10
69.079238
20
31.916575
11
68.521300
21
30.938100
0
LINE
8
Layer 1
10
68.521300
20
30.938100
11
67.858200
21
30.307437
0
LINE
8
Layer 1
10
67.858200
20
30.307437
11
67.162700
21
30.097300
0
LINE
8
Layer 1
10
67.162700
20
30.097300
11
66.523812
21
30.218637
0
LINE
8
Layer 1
10
66.523812
20
30.218637
11
66.030500
21
30.582600
0
LINE
8
Layer 1
10
66.030500
20
30.582600
11
65.739400
21
31.197038
0
LINE
8
Layer 1
10
65.739400
20
31.197038
11
65.642400
21
32.070300
0
LINE
8
Layer 1
10
65.642400
20
32.070300
11
65.812100
21
33.833225
0
LINE
8
Layer 1
10
65.812100
20
33.833225
11
66.321400
21
35.499100
0
LINE
8
Layer 1
10
66.321400
20
35.499100
11
67.113837
21
36.954788
0
LINE
8
Layer 1
10
67.113837
20
36.954788
11
68.132700
21
38.087000
0
LINE
8
Layer 1
10
68.132700
20
38.087000
11
69.345875
21
38.847138
0
LINE
8
Layer 1
10
69.345875
20
38.847138
11
70.656100
21
39.122100
0
LINE
8
Layer 1
10
70.656100
20
39.122100
11
70.656100
21
39.122100
0
LINE
8
Layer 1
10
160.127000
20
39.122100
11
158.931000
21
33.170000
0
LINE
8
Layer 1
10
158.931000
20
33.170000
11
158.550875
21
31.916575
0
LINE
8
Layer 1
10
158.550875
20
31.916575
11
157.993000
21
30.938100
0
LINE
8
Layer 1
10
157.993000
20
30.938100
11
157.329625
21
30.307437
0
LINE
8
Layer 1
10
157.329625
20
30.307437
11
156.634000
21
30.097300
0
LINE
8
Layer 1
10
156.634000
20
30.097300
11
155.995250
21
30.218637
0
LINE
8
Layer 1
10
155.995250
20
30.218637
11
155.502000
21
30.582600
0
LINE
8
Layer 1
10
155.502000
20
30.582600
11
155.210875
21
31.197038
0
LINE
8
Layer 1
10
155.210875
20
31.197038
11
155.114000
21
32.070300
0
LINE
8
Layer 1
10
155.114000
20
32.070300
11
155.283625
21
33.833225
0
LINE
8
Layer 1
10
155.283625
20
33.833225
11
155.793000
21
35.499100
0
LINE
8
Layer 1
10
155.793000
20
35.499100
11
156.585250
21
36.954788
0
LINE
8
Layer 1
10
156.585250
20
36.954788
11
157.604000
21
38.087000
0
LINE
8
Layer 1
10
157.604000
20
38.087000
11
158.817125
21
38.847138
0
LINE
8
Layer 1
10
158.817125
20
38.847138
11
160.127000
21
39.122100
0
LINE
8
Layer 1
10
160.127000
20
39.122100
11
160.127000
21
39.122100
0
LINE
8
Layer 1
10
100.480000
20
38.895800
11
100.997375
21
38.798763
0
LINE
8
Layer 1
10
100.997375
20
38.798763
11
101.385000
21
38.507700
0
LINE
8
Layer 1
10
101.385000
20
38.507700
11
101.652250
21
38.087137
0
LINE
8
Layer 1
10
101.652250
20
38.087137
11
101.741000
21
37.537200
0
LINE
8
Layer 1
10
101.741000
20
37.537200
11
101.465875
21
36.413063
0
LINE
8
Layer 1
10
101.465875
20
36.413063
11
100.641000
21
35.434500
0
LINE
8
Layer 1
10
100.641000
20
35.434500
11
99.339375
21
34.641987
0
LINE
8
Layer 1
10
99.339375
20
34.641987
11
97.633200
21
34.075900
0
LINE
8
Layer 1
10
97.633200
20
34.075900
11
97.633200
21
34.140500
0
LINE
8
Layer 1
10
97.633200
20
34.140500
11
97.835387
21
35.968125
0
LINE
8
Layer 1
10
97.835387
20
35.968125
11
98.441900
21
37.504600
0
LINE
8
Layer 1
10
98.441900
20
37.504600
11
99.371813
21
38.547938
0
LINE
8
Layer 1
10
99.371813
20
38.547938
11
99.903570
21
38.808827
0
LINE
8
Layer 1
10
99.903570
20
38.808827
11
100.480000
21
38.895800
0
LINE
8
Layer 1
10
100.480000
20
38.895800
11
100.480000
21
38.895800
0
LINE
8
Layer 1
10
184.873000
20
38.895800
11
185.390500
21
38.798763
0
LINE
8
Layer 1
10
185.390500
20
38.798763
11
185.779000
21
38.507700
0
LINE
8
Layer 1
10
185.779000
20
38.507700
11
186.045375
21
38.087137
0
LINE
8
Layer 1
10
186.045375
20
38.087137
11
186.134000
21
37.537200
0
LINE
8
Layer 1
10
186.134000
20
37.537200
11
185.859250
21
36.413063
0
LINE
8
Layer 1
10
185.859250
20
36.413063
11
185.034000
21
35.434500
0
LINE
8
Layer 1
10
185.034000
20
35.434500
11
183.732500
21
34.641987
0
LINE
8
Layer 1
10
183.732500
20
34.641987
11
182.026000
21
34.075900
0
LINE
8
Layer 1
10
182.026000
20
34.075900
11
182.026000
21
34.140500
0
LINE
8
Layer 1
10
182.026000
20
34.140500
11
182.228375
21
35.968125
0
LINE
8
Layer 1
10
182.228375
20
35.968125
11
182.835000
21
37.504600
0
LINE
8
Layer 1
10
182.835000
20
37.504600
11
183.765125
21
38.547938
0
LINE
8
Layer 1
10
183.765125
20
38.547938
11
184.296797
21
38.808827
0
LINE
8
Layer 1
10
184.296797
20
38.808827
11
184.873000
21
38.895800
0
LINE
8
Layer 1
10
184.873000
20
38.895800
11
184.873000
21
38.895800
0
LINE
8
Layer 1
10
143.275000
20
38.863200
11
143.857000
21
38.733925
0
LINE
8
Layer 1
10
143.857000
20
38.733925
11
144.310000
21
38.345900
0
LINE
8
Layer 1
10
144.310000
20
38.345900
11
144.601125
21
37.739362
0
LINE
8
Layer 1
10
144.601125
20
37.739362
11
144.698000
21
36.890200
0
LINE
8
Layer 1
10
144.698000
20
36.890200
11
144.552500
21
35.272688
0
LINE
8
Layer 1
10
144.552500
20
35.272688
11
144.116000
21
33.719900
0
LINE
8
Layer 1
10
144.116000
20
33.719900
11
143.428125
21
32.345237
0
LINE
8
Layer 1
10
143.428125
20
32.345237
11
142.531000
21
31.197000
0
LINE
8
Layer 1
10
142.531000
20
31.197000
11
141.511875
21
30.380300
0
LINE
8
Layer 1
10
141.511875
20
30.380300
11
140.396000
21
29.935600
0
LINE
8
Layer 1
10
140.396000
20
29.935600
11
140.428000
21
32.232100
0
LINE
8
Layer 1
10
140.428000
20
32.232100
11
140.461000
21
36.405000
0
LINE
8
Layer 1
10
140.461000
20
36.405000
11
141.988750
21
38.248688
0
LINE
8
Layer 1
10
141.988750
20
38.248688
11
142.662062
21
38.709577
0
LINE
8
Layer 1
10
142.662062
20
38.709577
11
143.275000
21
38.863200
0
LINE
8
Layer 1
10
143.275000
20
38.863200
11
143.275000
21
38.863200
0
LINE
8
Layer 1
10
136.417000
20
28.641600
11
136.150375
21
23.449887
0
LINE
8
Layer 1
10
136.150375
20
23.449887
11
135.673000
21
19.196200
0
LINE
8
Layer 1
10
135.673000
20
19.196200
11
135.018125
21
16.333575
0
LINE
8
Layer 1
10
135.018125
20
16.333575
11
134.635891
21
15.617941
0
LINE
8
Layer 1
10
134.635891
20
15.617941
11
134.217000
21
15.379400
0
LINE
8
Layer 1
10
134.217000
20
15.379400
11
133.918500
21
15.516825
0
LINE
8
Layer 1
10
133.918500
20
15.516825
11
133.668000
21
15.929200
0
LINE
8
Layer 1
10
133.668000
20
15.929200
11
133.473625
21
16.600375
0
LINE
8
Layer 1
10
133.473625
20
16.600375
11
133.409000
21
17.514100
0
LINE
8
Layer 1
10
133.409000
20
17.514100
11
133.610875
21
19.754125
0
LINE
8
Layer 1
10
133.610875
20
19.754125
11
134.217000
21
22.463200
0
LINE
8
Layer 1
10
134.217000
20
22.463200
11
135.171875
21
25.479650
0
LINE
8
Layer 1
10
135.171875
20
25.479650
11
136.417000
21
28.641600
0
LINE
8
Layer 1
10
136.417000
20
28.641600
11
136.417000
21
28.641600
0
LINE
8
Layer 1
10
105.833000
20
123.258000
11
103.233364
21
122.995978
0
LINE
8
Layer 1
10
103.233364
20
122.995978
11
100.812043
21
122.244407
0
LINE
8
Layer 1
10
100.812043
20
122.244407
11
98.620908
21
121.055157
0
LINE
8
Layer 1
10
98.620908
20
121.055157
11
96.711830
21
119.480095
0
LINE
8
Layer 1
10
96.711830
20
119.480095
11
95.136679
21
117.571090
0
LINE
8
Layer 1
10
95.136679
20
117.571090
11
93.947326
21
115.380010
0
LINE
8
Layer 1
10
93.947326
20
115.380010
11
93.195643
21
112.958724
0
LINE
8
Layer 1
10
93.195643
20
112.958724
11
92.933500
21
110.359100
0
LINE
8
Layer 1
10
92.933500
20
110.359100
11
93.183617
21
107.830766
0
LINE
8
Layer 1
10
93.183617
20
107.830766
11
93.915362
21
105.422644
0
LINE
8
Layer 1
10
93.915362
20
105.422644
11
95.100706
21
103.202404
0
LINE
8
Layer 1
10
95.100706
20
103.202404
11
96.711617
21
101.237717
0
LINE
8
Layer 1
10
96.711617
20
101.237717
11
98.676304
21
99.626806
0
LINE
8
Layer 1
10
98.676304
20
99.626806
11
100.896544
21
98.441462
0
LINE
8
Layer 1
10
100.896544
20
98.441462
11
103.304666
21
97.709717
0
LINE
8
Layer 1
10
103.304666
20
97.709717
11
105.833000
21
97.459600
0
LINE
8
Layer 1
10
105.833000
20
97.459600
11
108.361334
21
97.709717
0
LINE
8
Layer 1
10
108.361334
20
97.709717
11
110.769456
21
98.441462
0
LINE
8
Layer 1
10
110.769456
20
98.441462
11
112.989696
21
99.626806
0
LINE
8
Layer 1
10
112.989696
20
99.626806
11
114.954383
21
101.237717
0
LINE
8
Layer 1
10
114.954383
20
101.237717
11
116.565294
21
103.202404
0
LINE
8
Layer 1
10
116.565294
20
103.202404
11
117.750638
21
105.422644
0
LINE
8
Layer 1
10
117.750638
20
105.422644
11
118.482383
21
107.830766
0
LINE
8
Layer 1
10
118.482383
20
107.830766
11
118.732500
21
110.359100
0
LINE
8
Layer 1
10
118.732500
20
110.359100
11
118.470357
21
112.958724
0
LINE
8
Layer 1
10
118.470357
20
112.958724
11
117.718674
21
115.380010
0
LINE
8
Layer 1
10
117.718674
20
115.380010
11
116.529321
21
117.571090
0
LINE
8
Layer 1
10
116.529321
20
117.571090
11
114.954170
21
119.480095
0
LINE
8
Layer 1
10
114.954170
20
119.480095
11
113.045092
21
121.055157
0
LINE
8
Layer 1
10
113.045092
20
121.055157
11
110.853957
21
122.244407
0
LINE
8
Layer 1
10
110.853957
20
122.244407
11
108.432636
21
122.995978
0
LINE
8
Layer 1
10
108.432636
20
122.995978
11
105.833000
21
123.258000
0
LINE
8
Layer 1
10
105.833000
20
123.258000
11
105.833000
21
123.258000
0
LINE
8
Layer 1
10
105.833000
20
121.534080
11
108.085135
21
121.307010
0
LINE
8
Layer 1
10
108.085135
20
121.307010
11
110.182779
21
120.655840
0
LINE
8
Layer 1
10
110.182779
20
120.655840
11
112.081000
21
119.625505
0
LINE
8
Layer 1
10
112.081000
20
119.625505
11
113.734860
21
118.260940
0
LINE
8
Layer 1
10
113.734860
20
118.260940
11
115.099425
21
116.607080
0
LINE
8
Layer 1
10
115.099425
20
116.607080
11
116.129760
21
114.708859
0
LINE
8
Layer 1
10
116.129760
20
114.708859
11
116.780930
21
112.611215
0
LINE
8
Layer 1
10
116.780930
20
112.611215
11
117.008000
21
110.359080
0
LINE
8
Layer 1
10
117.008000
20
110.359080
11
116.791344
21
108.168708
0
LINE
8
Layer 1
10
116.791344
20
108.168708
11
116.157444
21
106.082470
0
LINE
8
Layer 1
10
116.157444
20
106.082470
11
115.130581
21
104.158992
0
LINE
8
Layer 1
10
115.130581
20
104.158992
11
113.735036
21
102.456897
0
LINE
8
Layer 1
10
113.735036
20
102.456897
11
112.033004
21
101.061277
0
LINE
8
Layer 1
10
112.033004
20
101.061277
11
110.109572
21
100.034328
0
LINE
8
Layer 1
10
110.109572
20
100.034328
11
108.023363
21
99.400334
0
LINE
8
Layer 1
10
108.023363
20
99.400334
11
105.833000
21
99.183580
0
LINE
8
Layer 1
10
105.833000
20
99.183580
11
103.642637
21
99.400334
0
LINE
8
Layer 1
10
103.642637
20
99.400334
11
101.556428
21
100.034328
0
LINE
8
Layer 1
10
101.556428
20
100.034328
11
99.632996
21
101.061277
0
LINE
8
Layer 1
10
99.632996
20
101.061277
11
97.930964
21
102.456897
0
LINE
8
Layer 1
10
97.930964
20
102.456897
11
96.535419
21
104.158992
0
LINE
8
Layer 1
10
96.535419
20
104.158992
11
95.508556
21
106.082470
0
LINE
8
Layer 1
10
95.508556
20
106.082470
11
94.874656
21
108.168708
0
LINE
8
Layer 1
10
94.874656
20
108.168708
11
94.658000
21
110.359080
0
LINE
8
Layer 1
10
94.658000
20
110.359080
11
94.885070
21
112.611215
0
LINE
8
Layer 1
10
94.885070
20
112.611215
11
95.536240
21
114.708859
0
LINE
8
Layer 1
10
95.536240
20
114.708859
11
96.566575
21
116.607080
0
LINE
8
Layer 1
10
96.566575
20
116.607080
11
97.931140
21
118.260940
0
LINE
8
Layer 1
10
97.931140
20
118.260940
11
99.585000
21
119.625505
0
LINE
8
Layer 1
10
99.585000
20
119.625505
11
101.483221
21
120.655840
0
LINE
8
Layer 1
10
101.483221
20
120.655840
11
103.580865
21
121.307010
0
LINE
8
Layer 1
10
103.580865
20
121.307010
11
105.833000
21
121.534080
0
LINE
8
Layer 1
10
105.833000
20
121.534080
11
105.833000
21
121.534080
0
LINE
8
Layer 1
10
105.971000
20
127.736000
11
104.168263
21
127.644969
0
LINE
8
Layer 1
10
104.168263
20
127.644969
11
102.417599
21
127.377785
0
LINE
8
Layer 1
10
102.417599
20
127.377785
11
100.727870
21
126.943310
0
LINE
8
Layer 1
10
100.727870
20
126.943310
11
99.107939
21
126.350406
0
LINE
8
Layer 1
10
99.107939
20
126.350406
11
97.566670
21
125.607936
0
LINE
8
Layer 1
10
97.566670
20
125.607936
11
96.112926
21
124.724762
0
LINE
8
Layer 1
10
96.112926
20
124.724762
11
94.755569
21
123.709746
0
LINE
8
Layer 1
10
94.755569
20
123.709746
11
93.503462
21
122.571750
0
LINE
8
Layer 1
10
93.503462
20
122.571750
11
92.365470
21
121.319637
0
LINE
8
Layer 1
10
92.365470
20
121.319637
11
91.350454
21
119.962270
0
LINE
8
Layer 1
10
91.350454
20
119.962270
11
90.467278
21
118.508509
0
LINE
8
Layer 1
10
90.467278
20
118.508509
11
89.724805
21
116.967219
0
LINE
8
Layer 1
10
89.724805
20
116.967219
11
89.131897
21
115.347260
0
LINE
8
Layer 1
10
89.131897
20
115.347260
11
88.697419
21
113.657496
0
LINE
8
Layer 1
10
88.697419
20
113.657496
11
88.430232
21
111.906789
0
LINE
8
Layer 1
10
88.430232
20
111.906789
11
88.339200
21
110.104000
0
LINE
8
Layer 1
10
88.339200
20
110.104000
11
88.596000
21
107.333000
0
LINE
8
Layer 1
10
88.596000
20
107.333000
11
88.279212
21
103.902805
0
LINE
8
Layer 1
10
88.279212
20
103.902805
11
87.398785
21
100.597129
0
LINE
8
Layer 1
10
87.398785
20
100.597129
11
85.979315
21
97.484613
0
LINE
8
Layer 1
10
85.979315
20
97.484613
11
84.045400
21
94.633900
0
LINE
8
Layer 1
10
84.045400
20
94.633900
11
60.689800
21
71.278200
0
LINE
8
Layer 1
10
60.689800
20
71.278200
11
59.620600
21
70.165100
0
LINE
8
Layer 1
10
59.620600
20
70.165100
11
56.348742
21
67.079717
0
LINE
8
Layer 1
10
56.348742
20
67.079717
11
54.600838
21
65.700673
0
LINE
8
Layer 1
10
54.600838
20
65.700673
11
52.770837
21
64.473163
0
LINE
8
Layer 1
10
52.770837
20
64.473163
11
50.853158
21
63.429013
0
LINE
8
Layer 1
10
50.853158
20
63.429013
11
48.842214
21
62.600052
0
LINE
8
Layer 1
10
48.842214
20
62.600052
11
46.732423
21
62.018105
0
LINE
8
Layer 1
10
46.732423
20
62.018105
11
44.518200
21
61.715000
0
LINE
8
Layer 1
10
44.518200
20
61.715000
11
27.297000
21
61.715000
0
LINE
8
Layer 1
10
27.297000
20
61.715000
11
24.993491
21
61.484137
0
LINE
8
Layer 1
10
24.993491
20
61.484137
11
22.850595
21
60.821661
0
LINE
8
Layer 1
10
22.850595
20
60.821661
11
20.913474
21
59.772746
0
LINE
8
Layer 1
10
20.913474
20
59.772746
11
19.227287
21
58.382563
0
LINE
8
Layer 1
10
19.227287
20
58.382563
11
17.837196
21
56.696284
0
LINE
8
Layer 1
10
17.837196
20
56.696284
11
16.788361
21
54.759083
0
LINE
8
Layer 1
10
16.788361
20
54.759083
11
16.125942
21
52.616131
0
LINE
8
Layer 1
10
16.125942
20
52.616131
11
15.895100
21
50.312600
0
LINE
8
Layer 1
10
15.895100
20
50.312600
11
15.895100
21
20.131000
0
LINE
8
Layer 1
10
15.895100
20
20.131000
11
16.125942
21
17.827471
0
LINE
8
Layer 1
10
16.125942
20
17.827471
11
16.788361
21
15.684523
0
LINE
8
Layer 1
10
16.788361
20
15.684523
11
17.837196
21
13.747328
0
LINE
8
Layer 1
10
17.837196
20
13.747328
11
19.227287
21
12.061058
0
LINE
8
Layer 1
10
19.227287
20
12.061058
11
20.913474
21
10.670882
0
LINE
8
Layer 1
10
20.913474
20
10.670882
11
22.850595
21
9.621973
0
LINE
8
Layer 1
10
22.850595
20
9.621973
11
24.993491
21
8.959502
0
LINE
8
Layer 1
10
24.993491
20
8.959502
11
27.297000
21
8.728640
0
LINE
8
Layer 1
10
27.297000
20
8.728640
11
184.555000
21
8.728640
0
LINE
8
Layer 1
10
184.555000
20
8.728640
11
186.858600
21
8.959502
0
LINE
8
Layer 1
10
186.858600
20
8.959502
11
189.001547
21
9.621973
0
LINE
8
Layer 1
10
189.001547
20
9.621973
11
190.938689
21
10.670882
0
LINE
8
Layer 1
10
190.938689
20
10.670882
11
192.624875
21
12.061058
0
LINE
8
Layer 1
10
192.624875
20
12.061058
11
194.014951
21
13.747328
0
LINE
8
Layer 1
10
194.014951
20
13.747328
11
195.063766
21
15.684523
0
LINE
8
Layer 1
10
195.063766
20
15.684523
11
195.726166
21
17.827471
0
LINE
8
Layer 1
10
195.726166
20
17.827471
11
195.957000
21
20.131000
0
LINE
8
Layer 1
10
195.957000
20
20.131000
11
195.957000
21
50.312600
0
LINE
8
Layer 1
10
195.957000
20
50.312600
11
195.726166
21
52.616131
0
LINE
8
Layer 1
10
195.726166
20
52.616131
11
195.063766
21
54.759083
0
LINE
8
Layer 1
10
195.063766
20
54.759083
11
194.014951
21
56.696284
0
LINE
8
Layer 1
10
194.014951
20
56.696284
11
192.624875
21
58.382563
0
LINE
8
Layer 1
10
192.624875
20
58.382563
11
190.938689
21
59.772746
0
LINE
8
Layer 1
10
190.938689
20
59.772746
11
189.001547
21
60.821661
0
LINE
8
Layer 1
10
189.001547
20
60.821661
11
186.858600
21
61.484137
0
LINE
8
Layer 1
10
186.858600
20
61.484137
11
184.555000
21
61.715000
0
LINE
8
Layer 1
10
184.555000
20
61.715000
11
166.940000
21
61.715000
0
LINE
8
Layer 1
10
166.940000
20
61.715000
11
164.736107
21
62.011208
0
LINE
8
Layer 1
10
164.736107
20
62.011208
11
162.638234
21
62.623719
0
LINE
8
Layer 1
10
162.638234
20
62.623719
11
160.637838
21
63.499039
0
LINE
8
Layer 1
10
160.637838
20
63.499039
11
158.726375
21
64.583675
0
LINE
8
Layer 1
10
158.726375
20
64.583675
11
155.136078
21
67.166919
0
LINE
8
Layer 1
10
155.136078
20
67.166919
11
151.799000
21
69.945500
0
LINE
8
Layer 1
10
151.799000
20
69.945500
11
150.657000
21
71.060200
0
LINE
8
Layer 1
10
150.657000
20
71.060200
11
127.823000
21
93.894400
0
LINE
8
Layer 1
10
127.823000
20
93.894400
11
126.681083
21
95.491141
0
LINE
8
Layer 1
10
126.681083
20
95.491141
11
125.703859
21
97.178135
0
LINE
8
Layer 1
10
125.703859
20
97.178135
11
124.895095
21
98.942643
0
LINE
8
Layer 1
10
124.895095
20
98.942643
11
124.258557
21
100.771925
0
LINE
8
Layer 1
10
124.258557
20
100.771925
11
123.798012
21
102.653241
0
LINE
8
Layer 1
10
123.798012
20
102.653241
11
123.517226
21
104.573852
0
LINE
8
Layer 1
10
123.517226
20
104.573852
11
123.419967
21
106.521018
0
LINE
8
Layer 1
10
123.419967
20
106.521018
11
123.510000
21
108.482000
0
LINE
8
Layer 1
10
123.510000
20
108.482000
11
123.488000
21
108.501000
0
LINE
8
Layer 1
10
123.488000
20
108.501000
11
123.603000
21
110.104000
0
LINE
8
Layer 1
10
123.603000
20
110.104000
11
123.511969
21
111.906789
0
LINE
8
Layer 1
10
123.511969
20
111.906789
11
123.244785
21
113.657496
0
LINE
8
Layer 1
10
123.244785
20
113.657496
11
122.810310
21
115.347260
0
LINE
8
Layer 1
10
122.810310
20
115.347260
11
122.217406
21
116.967219
0
LINE
8
Layer 1
10
122.217406
20
116.967219
11
121.474936
21
118.508509
0
LINE
8
Layer 1
10
121.474936
20
118.508509
11
120.591762
21
119.962270
0
LINE
8
Layer 1
10
120.591762
20
119.962270
11
119.576746
21
121.319637
0
LINE
8
Layer 1
10
119.576746
20
121.319637
11
118.438750
21
122.571750
0
LINE
8
Layer 1
10
118.438750
20
122.571750
11
117.186637
21
123.709746
0
LINE
8
Layer 1
10
117.186637
20
123.709746
11
115.829270
21
124.724762
0
LINE
8
Layer 1
10
115.829270
20
124.724762
11
114.375509
21
125.607936
0
LINE
8
Layer 1
10
114.375509
20
125.607936
11
112.834219
21
126.350406
0
LINE
8
Layer 1
10
112.834219
20
126.350406
11
111.214260
21
126.943310
0
LINE
8
Layer 1
10
111.214260
20
126.943310
11
109.524496
21
127.377785
0
LINE
8
Layer 1
10
109.524496
20
127.377785
11
107.773789
21
127.644969
0
LINE
8
Layer 1
10
107.773789
20
127.644969
11
105.971000
21
127.736000
0
LINE
8
Layer 1
10
105.971000
20
127.736000
11
105.971000
21
127.736000
 0 
ENDSEC
 0 
EOF