<?xml version="1.0" encoding="UTF-8" standalone="no"?>
<!-- Created with Inkscape (http://www.inkscape.org/) -->

<svg
   width="800"
   height="512"
   viewBox="0 0 800 512"
   version="1.1"
   id="SVGRoot"
   xml:space="preserve"
   sodipodi:docname="Makerspace_Arcade_Export_2.svg"
   inkscape:version="1.2.2 (732a01da63, 2022-12-09)"
   xmlns:inkscape="http://www.inkscape.org/namespaces/inkscape"
   xmlns:sodipodi="http://sodipodi.sourceforge.net/DTD/sodipodi-0.dtd"
   xmlns="http://www.w3.org/2000/svg"
   xmlns:svg="http://www.w3.org/2000/svg"><sodipodi:namedview
     id="namedview33"
     pagecolor="#ffffff"
     bordercolor="#000000"
     borderopacity="0.25"
     inkscape:showpageshadow="2"
     inkscape:pageopacity="0.0"
     inkscape:pagecheckerboard="0"
     inkscape:deskcolor="#d1d1d1"
     showgrid="false"
     inkscape:zoom="1.5136719"
     inkscape:cx="400.02065"
     inkscape:cy="139.72645"
     inkscape:window-width="1920"
     inkscape:window-height="991"
     inkscape:window-x="-9"
     inkscape:window-y="-9"
     inkscape:window-maximized="1"
     inkscape:current-layer="SVGRoot" /><defs
     id="defs132" /><g
     id="layer1"><path
       id="rect435-7"
       style="fill:#b3b3b3;fill-opacity:1;stroke-width:24.6612;stroke-linecap:round;stroke-linejoin:bevel"
       d="m 360.34195,135.32483 -122.9707,122.97068 c -15.3168,15.3168 -15.3168,39.9801 0,55.2969 l 30.1953,30.1953 h 9.7363 l -34.4277,-34.4277 c -12.9197,-12.9197 -12.9197,-33.721 0,-46.6406 l 123.1445,-123.14458 a 62.649784,62.649784 0 0 1 -5.6777,-4.25 z m 77.1719,1.60351 a 62.649784,62.649784 0 0 1 -5.8203,3.91797 l 125.4316,125.4297 c 12.9197,12.9197 12.9197,33.721 0,46.6406 l -30.8711,30.8711 h 9.9277 l 26.4473,-26.4473 c 15.3169,-15.3168 15.3169,-39.98 0,-55.2968 z m -96.6036,280.20317 33.3164,33.3164 c 15.3169,15.3168 39.9782,15.3168 55.295,0 l 33.3164,-33.3164 h -9.9277 l -27.8106,27.8105 c -12.9197,12.9197 -33.7209,12.9197 -46.6406,0 l -27.8106,-27.8105 z" /><path
       id="path876-0"
       style="fill:#808080;fill-opacity:1;stroke-width:34.3873;stroke-linecap:round;stroke-linejoin:bevel"
       d="m 384.67785,66.16988 a 15.844966,15.844966 0 0 0 -15.8457,15.8457 15.844966,15.844966 0 0 0 15.8457,15.8457 15.844966,15.844966 0 0 0 15.8438,-15.8457 15.844966,15.844966 0 0 0 -15.8438,-15.8457 z m 0,5.4668 a 10.379586,10.379586 0 0 1 10.3789,10.3789 10.379586,10.379586 0 0 1 -10.3789,10.37891 10.379586,10.379586 0 0 1 -10.3789,-10.37891 10.379586,10.379586 0 0 1 10.3789,-10.3789 z" /><path
       id="rect953-3-0"
       style="fill:#808080;fill-opacity:1;stroke-width:26.4252;stroke-linecap:round;stroke-linejoin:bevel"
       d="m 388.41225,141.92142 v 133.27699 c 0,2.08 1.4229,3.7558 3.1914,3.7558 h 16.793 c 1.7685,0 3.1914,-1.6758 3.1914,-3.7558 V 142.04547 a 48.753502,57.340417 0 0 1 -7.2891,1.41502 v 124.82822 c 0,1.1701 -0.8,2.1111 -1.7949,2.1111 h -5.0078 c -0.9949,0 -1.7949,-0.941 -1.7949,-2.1111 V 143.33417 a 48.753502,57.340417 0 0 1 -7.2891,-1.41275 z" /><path
       id="path1781-9"
       style="fill:#808080;fill-opacity:1;stroke-width:20.109;stroke-linecap:round;stroke-linejoin:bevel"
       d="m 418.57045,257.02731 v 7.0371 a 26.692411,14.323041 0 0 1 8.1231,10.2852 26.692411,14.323041 0 0 1 -26.6934,14.3222 26.692411,14.323041 0 0 1 -26.6934,-14.3222 26.692411,14.323041 0 0 1 8.1231,-10.2539 v -7.0372 a 33.874275,20.714506 0 0 0 -15.3047,17.2911 33.874275,20.714506 0 0 0 33.875,20.7148 33.874275,20.714506 0 0 0 33.875,-20.7148 33.874275,20.714506 0 0 0 -15.3047,-17.3223 z" /><g
       aria-label="Makerspace"
       id="text295-17"
       style="font-size:57.3077px;font-family:Consolas;-inkscape-font-specification:'Consolas, Normal';fill:#4d4d4d;stroke-width:42.9807;stroke-linecap:round;stroke-linejoin:bevel"><path
         id="path187"
         style="font-size:122.256px;font-family:Pacifico;-inkscape-font-specification:'Pacifico, Normal'"
         d="M 325.97461 295.06445 C 318.96527 295.06445 312.9341 299.71051 307.88086 309.00195 C 302.90912 318.2119 299.1179 329.62127 296.50977 343.23242 C 293.98315 356.84357 292.7207 369.92496 292.7207 382.47656 C 292.7207 384.12498 292.73378 385.65177 292.75391 387.12305 C 290.07046 390.23146 287.84742 392.61458 286.11914 394.21484 C 283.91854 396.17094 282.04272 397.14844 280.49414 397.14844 C 279.51609 397.14844 278.70086 396.78041 278.04883 396.04688 C 277.4783 395.31334 277.19336 394.33584 277.19336 393.11328 C 277.19336 389.4456 278.13127 382.92569 280.00586 373.55273 C 281.22842 367.11393 281.83984 363.03776 281.83984 361.32617 C 281.83984 358.47353 279.84331 357.04883 275.84961 357.04883 C 273.97502 357.04883 272.18229 357.2111 270.4707 357.53711 C 270.06318 355.74402 269.53289 354.52117 268.88086 353.86914 C 268.31033 353.13561 267.12902 352.76953 265.33594 352.76953 C 259.71216 352.76953 254.37355 354.56227 249.32031 358.14844 C 244.34858 361.65311 240.35353 366.33875 237.33789 372.20703 C 234.48934 377.67316 233.00354 383.47117 232.8457 389.5918 C 231.24947 391.16042 229.7685 392.42624 228.41406 393.35742 C 225.88744 395.15051 223.27947 396.04687 220.58984 396.04688 C 217.73721 396.04688 215.49531 395.19205 213.86523 393.48047 C 212.31666 391.76888 211.54297 389.20246 211.54297 385.7793 C 211.54297 382.84515 211.95059 379.33887 212.76562 375.26367 L 220.22266 340.29883 C 221.28221 335.16408 221.8125 330.80297 221.8125 327.2168 C 221.8125 320.61498 220.26317 315.48018 217.16602 311.8125 C 214.15037 308.14482 209.78926 306.3125 204.08398 306.3125 C 196.99314 306.3125 190.71857 308.75625 185.25781 313.64648 C 179.79705 318.53672 175.02832 326.60597 170.95312 337.85352 C 171.68666 333.85982 172.05469 330.51775 172.05469 327.82812 C 172.05469 320.98179 170.50535 315.68472 167.4082 311.93555 C 164.39256 308.18636 160.23525 306.3125 154.9375 306.3125 C 148.00967 306.3125 141.65201 308.96006 135.86523 314.25781 C 130.07845 319.47406 124.86252 328.72463 120.2168 342.00977 C 120.3798 341.27623 120.62516 339.97225 120.95117 338.09766 C 121.27719 336.22306 121.64326 333.8189 122.05078 330.88477 C 122.4583 327.86912 122.66211 325.26115 122.66211 323.06055 C 122.66211 317.59979 121.43926 313.44443 118.99414 310.5918 C 116.63052 307.73916 113.20732 306.3125 108.72461 306.3125 C 103.91588 306.3125 99.107559 307.82029 94.298828 310.83594 C 89.490097 313.77008 85.128985 317.96697 81.216797 323.42773 C 79.994238 325.13932 79.097871 326.68865 78.527344 328.07422 C 78.03832 329.37828 77.794922 330.68226 77.794922 331.98633 C 77.794922 333.37189 78.202539 334.63433 79.017578 335.77539 C 79.914121 336.83494 80.933164 337.36523 82.074219 337.36523 C 83.459785 337.36523 84.722226 336.59154 85.863281 335.04297 C 89.449454 330.31574 92.71039 326.89254 95.644531 324.77344 C 98.660173 322.57283 101.2266 321.4707 103.3457 321.4707 C 106.03533 321.4707 107.38086 323.30498 107.38086 326.97266 C 107.38086 330.88485 107.01284 335.77625 106.2793 341.64453 C 105.05674 351.01748 103.38668 362.10232 101.26758 374.89844 C 100.04502 381.82627 99.148652 387.2856 98.578125 391.2793 C 98.089101 395.19149 97.84375 398.41088 97.84375 400.9375 C 97.84375 404.68668 98.496719 407.25506 99.800781 408.64062 C 101.10484 409.94469 103.26365 410.5957 106.2793 410.5957 C 109.45795 410.5957 111.57717 409.78047 112.63672 408.15039 C 113.77777 406.52031 114.63455 403.62741 115.20508 399.4707 C 117.89471 379.82826 121.23678 364.26158 125.23047 352.76953 C 129.30566 341.19598 133.46101 333.16826 137.69922 328.68555 C 141.93742 324.12132 146.05319 321.83789 150.04688 321.83789 C 152.41049 321.83789 154.16364 322.57199 155.30469 324.03906 C 156.52725 325.50613 157.13867 327.78762 157.13867 330.88477 C 157.13867 336.59004 155.26481 349.30535 151.51562 369.0293 C 150.13006 376.36465 148.98834 382.7619 148.0918 388.22266 C 147.19525 393.60191 146.74609 397.96302 146.74609 401.30469 C 146.74609 404.89086 147.35752 407.33656 148.58008 408.64062 C 149.88414 409.94469 151.92223 410.5957 154.69336 410.5957 C 157.87201 410.5957 160.1535 409.78047 161.53906 408.15039 C 163.00613 406.43881 164.02518 403.13828 164.5957 398.24805 C 166.95932 379.99117 170.01645 365.1586 173.76562 353.74805 C 177.59631 342.3375 181.5894 334.18711 185.74609 329.29688 C 189.9843 324.32513 194.01892 321.83789 197.84961 321.83789 C 199.88721 321.83789 201.43655 322.57199 202.49609 324.03906 C 203.63715 325.42463 204.20703 327.54385 204.20703 330.39648 C 204.20703 332.02656 204.08436 333.69662 203.83984 335.4082 C 203.59533 337.03828 203.26885 338.79142 202.86133 340.66602 C 202.45381 342.5406 202.16887 343.84459 202.00586 344.57812 L 197.11523 366.95117 C 195.15914 376.07961 194.18164 383.04869 194.18164 387.85742 C 194.18164 394.78525 196.1386 400.32767 200.05078 404.48438 C 203.96297 408.55957 209.38271 410.5957 216.31055 410.5957 C 220.87477 410.5957 225.23588 409.4144 229.39258 407.05078 C 231.44967 405.88107 233.5167 404.36988 235.59375 402.52148 C 236.10813 403.43026 236.67998 404.29555 237.33789 405.0957 C 240.35353 408.76338 244.38816 410.5957 249.44141 410.5957 C 255.88021 410.5957 261.21883 407.17251 265.45703 400.32617 C 266.59809 403.50483 268.2701 406.03167 270.4707 407.90625 C 272.75281 409.69934 275.2381 410.5957 277.92773 410.5957 C 281.4324 410.5957 285.05941 409.16904 288.80859 406.31641 C 290.48618 405.03998 292.12081 403.62736 293.7168 402.08984 C 294.15973 404.56981 294.80476 406.51058 295.6543 407.90625 C 296.87686 409.69934 298.75072 410.5957 301.27734 410.5957 C 303.80396 410.5957 305.63824 409.94469 306.7793 408.64062 C 308.00186 407.25506 309.06245 404.64709 309.95898 400.81641 C 311.26305 395.51865 313.05578 390.38385 315.33789 385.41211 C 317.62 380.35887 320.0657 376.24311 322.67383 373.06445 C 325.36346 369.8858 327.80721 368.29492 330.00781 368.29492 C 330.90435 368.29492 331.63845 368.66295 332.20898 369.39648 C 332.86101 370.13002 333.1875 371.23019 333.1875 372.69727 C 333.1875 375.22388 332.41185 377.3827 330.86328 379.17578 C 329.31471 380.88737 326.74829 382.51783 323.16211 384.06641 C 319.90195 385.45198 318.27148 387.73346 318.27148 390.91211 C 318.27148 396.8619 320.1869 401.63063 324.01758 405.2168 C 327.84827 408.80297 332.90193 410.5957 339.17773 410.5957 C 344.31248 410.5957 348.75473 409.25213 352.50391 406.5625 C 354.67727 405.00335 356.83645 403.10702 358.98242 400.94531 C 359.68115 401.89438 360.45419 402.7892 361.30664 403.62695 C 366.03386 408.27268 372.67646 410.5957 381.23438 410.5957 C 387.51018 410.5957 393.37713 409.04832 398.83789 405.95117 C 401.18146 404.64153 403.28594 403.27689 405.17773 401.86523 C 405.44658 403.34685 405.77464 404.64252 406.17383 405.70703 C 407.47789 408.96719 409.67825 410.5957 412.77539 410.5957 C 415.38352 410.5957 417.25934 409.94469 418.40039 408.64062 C 419.54144 407.33656 420.55853 404.72859 421.45508 400.81641 C 422.67764 395.84466 424.26852 391.11748 426.22461 386.63477 C 428.18071 382.15205 430.13571 378.56463 432.0918 375.875 C 434.04789 373.10387 435.59723 371.71875 436.73828 371.71875 C 437.1458 371.71875 437.47228 371.88102 437.7168 372.20703 C 438.04281 372.53305 438.20508 373.02376 438.20508 373.67578 C 438.20508 374.16481 438.12394 375.06117 437.96094 376.36523 C 437.79793 378.15832 437.7168 379.82838 437.7168 381.37695 C 437.7168 384.14809 438.49049 386.34844 440.03906 387.97852 C 441.66914 389.60859 443.62414 390.42383 445.90625 390.42383 C 448.75889 390.42383 451.36686 389.40479 453.73047 387.36719 C 456.09409 385.32959 457.92836 382.80276 459.23242 379.78711 C 459.72145 378.56455 459.9668 377.42478 459.9668 376.36523 C 459.9668 374.49064 459.31383 372.94131 458.00977 371.71875 C 456.78721 370.41468 455.27941 369.76367 453.48633 369.76367 L 452.38672 369.76367 C 453.28326 365.44397 453.73047 362.50952 453.73047 360.96094 C 453.73047 358.35281 453.07945 356.39586 451.77539 355.0918 C 450.55283 353.70623 448.7601 353.01367 446.39648 353.01367 C 443.78836 353.01367 440.89545 353.95158 437.7168 355.82617 C 434.53814 357.70076 431.2772 360.83903 427.93555 365.24023 C 424.59388 369.64144 421.5783 375.34613 418.88867 382.35547 C 419.21469 378.7693 419.62231 375.75371 420.11133 373.30859 C 420.60035 370.86348 421.25137 368.01016 422.06641 364.75 C 423.28897 360.18578 423.90039 357.25132 423.90039 355.94727 C 423.90039 354.80621 423.57586 354.03252 422.92383 353.625 C 422.2718 353.21748 421.13008 353.01367 419.5 353.01367 C 416.48436 353.01367 414.11978 353.58355 412.4082 354.72461 C 410.77812 355.78415 409.59682 357.49576 408.86328 359.85938 C 406.08246 368.65277 404.59935 377.90329 404.38281 387.59766 C 401.61968 390.33925 398.51176 392.6695 395.04883 394.58008 C 390.40311 397.1067 386.2458 398.37109 382.57812 398.37109 C 376.87285 398.37109 373.00244 396.49528 370.96484 392.74609 C 380.58231 390.38248 387.38717 387.20463 391.38086 383.21094 C 395.45606 379.13574 397.49414 374.28588 397.49414 368.66211 C 397.49414 363.85338 396.06748 360.06411 393.21484 357.29297 C 390.36221 354.44033 386.57293 353.01367 381.8457 353.01367 C 376.54795 353.01367 371.77922 354.44033 367.54102 357.29297 C 363.38432 360.14561 360.12338 364.01601 357.75977 368.90625 C 355.39615 373.71498 354.21484 378.93287 354.21484 384.55664 C 354.21484 386.36079 354.33984 388.07402 354.57617 389.70703 C 352.8111 391.5977 351.24817 393.12854 349.93555 394.21484 C 347.57193 396.17094 345.12818 397.14844 342.60156 397.14844 C 340.23794 397.14844 338.19986 396.49547 336.48828 395.19141 C 334.8582 393.80584 333.88071 392.0131 333.55469 389.8125 C 339.09696 386.87836 343.0089 383.53629 345.29102 379.78711 C 347.57313 376.03793 348.71289 371.92217 348.71289 367.43945 C 348.71289 363.36426 347.45045 359.94105 344.92383 357.16992 C 342.47871 354.39878 339.21777 353.01367 335.14258 353.01367 C 330.74137 353.01367 326.01419 355.3367 320.96094 359.98242 C 315.9077 364.54664 311.42586 371.92334 307.51367 382.11133 C 307.51367 377.62861 307.63635 373.2675 307.88086 369.0293 C 318.72088 357.21123 326.54479 346.90008 331.35352 338.09766 C 336.16225 329.21373 338.56641 320.65573 338.56641 312.42383 C 338.56641 307.28908 337.3851 303.13373 335.02148 299.95508 C 332.73938 296.69492 329.72379 295.06445 325.97461 295.06445 z M 323.40625 307.16797 C 324.4658 307.16797 325.28104 307.86053 325.85156 309.24609 C 326.4221 310.63167 326.70703 312.6282 326.70703 315.23633 C 326.70703 320.9416 325.03698 327.29926 321.69531 334.30859 C 318.43516 341.31793 314.27785 347.79826 309.22461 353.74805 C 310.28416 345.35314 311.62969 337.61037 313.25977 330.51953 C 314.97134 323.34719 316.72254 317.68209 318.51562 313.52539 C 320.30872 309.28719 321.93918 307.16797 323.40625 307.16797 z M 487.8418 351.66797 C 482.95156 351.66797 479.73217 353.46266 478.18359 357.04883 C 476.39051 361.28703 474.55623 365.4028 472.68164 369.39648 C 470.80706 373.30867 469.17659 376.44693 467.79102 378.81055 C 465.50891 382.39672 462.12725 386.95969 457.64453 392.50195 L 456.05469 394.45898 C 454.91363 395.84456 454.34375 397.35234 454.34375 398.98242 C 454.34375 400.36799 454.74941 401.5493 455.56445 402.52734 C 456.37949 403.42389 457.44008 403.87305 458.74414 403.87305 C 460.37422 403.87305 461.92355 403.13895 463.39062 401.67188 C 466.32476 398.81924 469.01387 395.80366 471.45898 392.625 C 473.98561 389.44635 476.51244 385.45326 479.03906 380.64453 C 480.18011 381.94859 481.40297 383.49598 482.70703 385.28906 C 484.01109 387.00065 485.06973 388.79338 485.88477 390.66797 C 486.78131 392.54256 487.27006 394.53911 487.35156 396.6582 C 486.61803 396.5767 485.51785 396.45598 484.05078 396.29297 C 482.66522 396.04846 481.44236 395.92578 480.38281 395.92578 C 477.36717 395.92578 475.08568 396.69948 473.53711 398.24805 C 471.98853 399.79662 471.21484 401.6309 471.21484 403.75 C 471.21484 406.19512 472.31502 408.39547 474.51562 410.35156 C 476.79774 412.30766 480.05672 413.28516 484.29492 413.28516 C 488.77764 413.28516 492.65 411.90004 495.91016 409.12891 C 498.66293 409.04673 501.1853 408.75617 503.48242 408.25977 C 501.69229 412.27005 500.13719 416.15207 498.84375 419.88867 C 495.17607 430.56569 493.3418 439.89739 493.3418 447.88477 C 493.3418 453.50854 494.40238 457.90924 496.52148 461.08789 C 498.64059 464.26655 501.89957 465.85547 506.30078 465.85547 C 513.55463 465.85547 519.05746 460.5584 522.80664 449.96289 C 526.55582 439.44888 528.95999 426.32595 530.01953 410.5957 C 535.07278 410.5142 539.92264 408.96682 544.56836 405.95117 C 547.25799 409.04832 550.76233 410.5957 555.08203 410.5957 C 560.21678 410.5957 564.7817 409.21059 568.77539 406.43945 C 570.48774 405.27505 572.14619 403.96711 573.75781 402.5293 C 574.27115 403.43524 574.84197 404.29778 575.49805 405.0957 C 578.51369 408.76338 582.54832 410.5957 587.60156 410.5957 C 594.04037 410.5957 599.37898 407.17251 603.61719 400.32617 C 604.75824 403.50483 606.43025 406.03167 608.63086 407.90625 C 610.91297 409.69934 613.39826 410.5957 616.08789 410.5957 C 619.59256 410.5957 623.21957 409.16904 626.96875 406.31641 C 628.90003 404.84695 630.77646 403.2022 632.59961 401.38672 C 633.22653 402.25639 633.91273 403.08781 634.66992 403.87305 C 639.15264 408.35576 645.38762 410.5957 653.375 410.5957 C 658.34674 410.5957 663.48154 409.33326 668.7793 406.80664 C 671.99471 405.24766 674.92773 403.30051 677.58984 400.98438 C 678.21507 401.91477 678.90179 402.79704 679.66016 403.62695 C 683.97987 408.27268 690.05258 410.5957 697.87695 410.5957 C 703.0117 410.5957 707.4124 409.61821 711.08008 407.66211 C 714.82926 405.70602 717.84484 402.97537 720.12695 399.4707 C 721.51252 397.3516 722.20508 394.82476 722.20508 391.89062 C 722.20508 390.17904 721.88055 388.83547 721.22852 387.85742 C 720.65799 386.87938 719.84276 386.38867 718.7832 386.38867 C 717.56064 386.38867 716.46047 387.0001 715.48242 388.22266 C 712.62978 391.89033 710.10295 394.4983 707.90234 396.04688 C 705.78324 397.59545 703.0526 398.37109 699.71094 398.37109 C 695.06522 398.37109 691.76469 396.49528 689.80859 392.74609 C 699.50756 390.38248 706.35396 387.20463 710.34766 383.21094 C 714.42285 379.13574 716.45898 374.28588 716.45898 368.66211 C 716.45898 363.85338 715.03428 360.06411 712.18164 357.29297 C 709.329 354.44033 705.53778 353.01367 700.81055 353.01367 C 695.51279 353.01367 690.74601 354.44033 686.50781 357.29297 C 682.35111 360.14561 679.09017 364.01601 676.72656 368.90625 C 674.36294 373.71498 673.18164 378.93287 673.18164 384.55664 C 673.18164 386.2588 673.28429 387.88145 673.48047 389.43555 C 671.24822 391.5229 668.98917 393.24541 666.70117 394.58008 C 662.87049 396.78068 659.28502 397.88086 655.94336 397.88086 C 647.71146 397.88086 643.5957 393.15367 643.5957 383.69922 C 643.5957 380.27605 644.08445 377.13975 645.0625 374.28711 C 646.04055 371.43447 647.34453 369.19257 648.97461 367.5625 C 650.60469 365.85092 652.35783 364.99414 654.23242 364.99414 C 655.21047 364.99414 655.94262 365.28104 656.43164 365.85156 C 657.00217 366.42209 657.28711 367.23537 657.28711 368.29492 C 657.28711 369.35447 657.0833 370.49619 656.67578 371.71875 C 656.59427 372.04476 656.47355 372.57505 656.31055 373.30859 C 656.14754 374.04213 656.06445 374.69315 656.06445 375.26367 C 656.06445 376.56774 656.51362 377.58678 657.41016 378.32031 C 658.3882 379.05385 659.65064 379.42188 661.19922 379.42188 C 663.64434 379.42187 665.60129 378.23862 667.06836 375.875 C 668.61693 373.51139 669.39062 370.61848 669.39062 367.19531 C 669.39063 363.03861 668.12819 359.65695 665.60156 357.04883 C 663.15644 354.3592 659.6917 353.01367 655.20898 353.01367 C 650.64477 353.01367 646.28561 354.3592 642.12891 357.04883 C 637.97221 359.73846 634.58859 363.56928 631.98047 368.54102 C 629.37234 373.51276 628.06836 379.29858 628.06836 385.90039 C 628.06836 387.34153 628.15415 388.72711 628.32031 390.06055 C 626.76937 391.76672 625.41661 393.16177 624.2793 394.21484 C 622.07869 396.17094 620.20288 397.14844 618.6543 397.14844 C 617.67625 397.14844 616.86102 396.78041 616.20898 396.04688 C 615.63846 395.31334 615.35352 394.33584 615.35352 393.11328 C 615.35352 389.4456 616.29142 382.92569 618.16602 373.55273 C 619.38857 367.11393 620 363.03776 620 361.32617 C 620 358.47353 618.00345 357.04883 614.00977 357.04883 C 612.13517 357.04883 610.34244 357.2111 608.63086 357.53711 C 608.22334 355.74402 607.69305 354.52117 607.04102 353.86914 C 606.47049 353.13561 605.28918 352.76953 603.49609 352.76953 C 597.87233 352.76953 592.53372 354.56227 587.48047 358.14844 C 582.50873 361.65311 578.51369 366.33875 575.49805 372.20703 C 572.62069 377.72845 571.13194 383.58812 571 389.77734 C 569.24091 391.63625 567.6719 393.14139 566.33008 394.21484 C 563.88496 396.17094 561.31658 397.14844 558.62695 397.14844 C 557.48589 397.14844 556.05923 396.90309 554.34766 396.41406 C 556.79277 393.0724 558.70818 389.36426 560.09375 385.28906 C 561.47932 381.21387 562.17188 377.01697 562.17188 372.69727 C 562.17188 366.74748 560.70563 361.93916 557.77148 358.27148 C 554.91885 354.60381 551.21071 352.76953 546.64648 352.76953 C 543.79385 352.76953 541.10475 353.50363 538.57812 354.9707 C 536.05151 356.35627 533.48312 358.67734 530.875 361.9375 C 530.79349 360.95945 530.75195 359.45166 530.75195 357.41406 C 530.67045 355.37646 530.22324 354.03289 529.4082 353.38086 C 528.67467 352.64733 527.45182 352.2793 525.74023 352.2793 C 522.8061 352.2793 520.36039 352.97381 518.4043 354.35938 C 516.44821 355.74494 515.51224 357.61881 515.59375 359.98242 C 515.75676 364.62815 515.83789 372.90121 515.83789 384.80078 C 515.23642 385.80536 514.66865 386.79024 514.0918 387.78125 C 509.89184 392.49331 506.14958 395.51303 502.87891 396.78125 C 503.04192 395.31418 503.12305 394.17246 503.12305 393.35742 C 503.12305 390.50478 502.43049 387.89681 501.04492 385.5332 C 499.74086 383.08809 497.78391 380.15364 495.17578 376.73047 C 493.3827 374.52986 492.03912 372.69754 491.14258 371.23047 C 490.32754 369.7634 489.91992 368.41787 489.91992 367.19531 C 489.91992 365.15771 490.65207 362.67242 492.11914 359.73828 C 492.68967 358.67873 493.13883 357.61814 493.46484 356.55859 C 493.79086 355.49904 493.95312 354.72535 493.95312 354.23633 C 493.95313 353.33979 493.50592 352.68682 492.60938 352.2793 C 491.71284 351.87178 490.12391 351.66797 487.8418 351.66797 z M 267.04688 364.13867 L 262.52344 386.63477 C 261.7899 390.13944 260.60859 392.95121 258.97852 395.07031 C 257.34844 397.18942 255.63684 398.24805 253.84375 398.24805 C 252.05067 398.24805 250.624 397.63662 249.56445 396.41406 C 248.5864 395.1915 248.09766 393.31764 248.09766 390.79102 C 248.09766 386.2268 248.95248 381.90723 250.66406 377.83203 C 252.37564 373.75684 254.65713 370.4959 257.50977 368.05078 C 260.44391 365.52416 263.62371 364.22017 267.04688 364.13867 z M 605.20703 364.13867 L 600.68359 386.63477 C 599.95006 390.13944 598.76875 392.95121 597.13867 395.07031 C 595.50859 397.18942 593.79699 398.24805 592.00391 398.24805 C 590.21081 398.24805 588.78415 397.63662 587.72461 396.41406 C 586.74656 395.1915 586.25781 393.31764 586.25781 390.79102 C 586.25781 386.2268 587.11263 381.90723 588.82422 377.83203 C 590.5358 373.75684 592.81728 370.4959 595.66992 368.05078 C 598.60406 365.52416 601.78387 364.22017 605.20703 364.13867 z M 379.76562 364.99414 C 381.2327 364.99414 382.37441 365.48289 383.18945 366.46094 C 384.086 367.35748 384.53516 368.58033 384.53516 370.12891 C 384.53516 373.14455 383.14809 375.79406 380.37695 378.07617 C 377.60582 380.35828 373.81655 382.06989 369.00781 383.21094 L 369.00781 382.9668 C 369.00781 377.99506 370.02686 373.75662 372.06445 370.25195 C 374.18356 366.74728 376.74998 364.99414 379.76562 364.99414 z M 698.73242 364.99414 C 700.19949 364.99414 701.34121 365.48289 702.15625 366.46094 C 703.0528 367.35748 703.5 368.58033 703.5 370.12891 C 703.5 373.14455 702.11488 375.79406 699.34375 378.07617 C 696.57261 380.35828 692.78334 382.06989 687.97461 383.21094 L 687.97461 382.9668 C 687.97461 377.99506 688.99365 373.75662 691.03125 370.25195 C 693.15035 366.74728 695.71677 364.99414 698.73242 364.99414 z M 541.51172 365.11719 C 543.1418 365.11719 544.44578 365.76821 545.42383 367.07227 C 546.40187 368.29482 546.89062 370.1291 546.89062 372.57422 C 546.89062 376.73092 546.15652 380.72596 544.68945 384.55664 C 543.22239 388.30582 541.22584 391.48367 538.69922 394.0918 C 536.2541 396.61841 533.565 398.20734 530.63086 398.85938 C 530.71237 396.82178 530.75195 393.92887 530.75195 390.17969 C 530.75195 383.25185 530.79349 377.99437 530.875 374.4082 C 535.0317 368.21391 538.57758 365.11719 541.51172 365.11719 z M 515.59375 403.75 C 515.18623 418.01319 514.24832 429.91326 512.78125 439.44922 C 511.31418 449.06668 509.4799 453.875 507.2793 453.875 C 506.46426 453.875 505.7717 453.18244 505.20117 451.79688 C 504.54914 450.4113 504.22266 448.41476 504.22266 445.80664 C 504.22266 440.7534 505.2417 434.51842 507.2793 427.10156 C 509.31689 419.6847 512.08908 411.90039 515.59375 403.75 z " /></g><path
       id="path723-38"
       style="fill:#808080;fill-opacity:1;stroke-width:23.6538;stroke-linecap:round;stroke-linejoin:bevel"
       d="m 400.00015,46.14449 a 48.753502,48.753502 0 0 0 -48.7539,48.75195 48.753502,48.753502 0 0 0 48.7539,48.75391 48.753502,48.753502 0 0 0 48.7539,-48.75391 48.753502,48.753502 0 0 0 -48.7539,-48.75195 z m 0,6.51563 a 42.237087,42.237087 0 0 1 42.2363,42.23632 42.237087,42.237087 0 0 1 -42.2363,42.23828 42.237087,42.237087 0 0 1 -42.2364,-42.23828 42.237087,42.237087 0 0 1 42.2364,-42.23632 z" /></g><path
     id="rect381"
     style="fill:none;stroke:#000000;stroke-width:1.9131;stroke-dasharray:none"
     d="M 400.52148 29.220703 C 363.7169 29.220647 333.8808 59.056742 333.88086 95.861328 C 333.8971 99.389282 334.28397 102.87765 334.85156 106.33398 A 77.235413 77.235413 0 0 1 317.65234 154.33008 L 229.37891 242.60352 C 227.97463 244.00778 226.49476 245.26911 225.33789 246.81055 C 209.54594 263.13794 191.1195 277.20537 168.25781 278.74805 L 103.16992 278.74805 C 79.29568 278.74805 60.076172 297.9695 60.076172 321.84375 L 60.076172 435.91602 C 60.076172 459.79025 79.29568 479.01172 103.16992 479.01172 L 697.5332 479.01172 C 721.40746 479.01172 740.62695 459.79025 740.62695 435.91602 L 740.62695 321.84375 C 740.62695 297.9695 721.40746 278.74805 697.5332 278.74805 L 630.95508 278.74805 C 608.18043 277.53631 590.02459 261.41616 573.72852 247.64062 C 572.52764 246.01575 570.88856 244.90223 569.41406 243.42773 L 483.11133 157.125 A 77.235413 77.235413 0 0 1 466.81055 101.99023 L 466.72852 101.91992 C 466.91648 99.904993 467.15867 97.895898 467.16211 95.861328 C 467.16217 59.056738 437.32608 29.220641 400.52148 29.220703 z " /></svg>
