<?xml version="1.0" encoding="UTF-8" standalone="no"?>
<!-- Created with Inkscape (http://www.inkscape.org/) -->

<svg
   width="800"
   height="512"
   viewBox="0 0 800 512"
   version="1.1"
   id="SVGRoot"
   sodipodi:docname="Makerspace Arcade.svg"
   xml:space="preserve"
   inkscape:version="1.2.1 (9c6d41e410, 2022-07-14)"
   inkscape:export-filename="Makerspace Arcade Black.png"
   inkscape:export-xdpi="96"
   inkscape:export-ydpi="96"
   xmlns:inkscape="http://www.inkscape.org/namespaces/inkscape"
   xmlns:sodipodi="http://sodipodi.sourceforge.net/DTD/sodipodi-0.dtd"
   xmlns="http://www.w3.org/2000/svg"
   xmlns:svg="http://www.w3.org/2000/svg"><sodipodi:namedview
     id="namedview137"
     pagecolor="#000000"
     bordercolor="#000000"
     borderopacity="0.25"
     inkscape:showpageshadow="2"
     inkscape:pageopacity="1"
     inkscape:pagecheckerboard="0"
     inkscape:deskcolor="#d1d1d1"
     inkscape:document-units="px"
     showgrid="false"
     inkscape:zoom="0.8409652"
     inkscape:cx="568.98906"
     inkscape:cy="247.33485"
     inkscape:window-width="1920"
     inkscape:window-height="1009"
     inkscape:window-x="-8"
     inkscape:window-y="-8"
     inkscape:window-maximized="1"
     inkscape:current-layer="layer1"><inkscape:grid
       type="xygrid"
       id="grid260"
       originx="0"
       originy="0" /></sodipodi:namedview><defs
     id="defs132" /><g
     inkscape:label="Ebene 1"
     inkscape:groupmode="layer"
     id="layer1"><path
       id="rect435-1"
       style="fill:#ffffff;fill-opacity:1;stroke-width:24.6612;stroke-linecap:round;stroke-linejoin:bevel"
       d="m 400.00015,46.144526 a 48.753502,48.753502 0 0 0 -48.754,48.751952 48.753502,48.753502 0 0 0 37.1661,47.246092 v 133.05469 c 0,2.07999 1.4229,3.75586 3.1914,3.75586 h 16.7929 c 1.7685,0 3.1914,-1.67587 3.1914,-3.75586 V 142.24804 a 48.753502,48.753502 0 0 0 37.1661,-47.351562 48.753502,48.753502 0 0 0 -48.7539,-48.751952 z m 0,6.515624 a 42.237087,42.237087 0 0 1 42.2363,42.236328 42.237087,42.237087 0 0 1 -42.2363,42.238282 42.237087,42.237087 0 0 1 -42.2364,-42.238282 42.237087,42.237087 0 0 1 42.2364,-42.236328 z m -15.3223,13.509766 a 15.844966,15.844966 0 0 0 -15.8457,15.845703 15.844966,15.844966 0 0 0 15.8457,15.845702 15.844966,15.844966 0 0 0 15.8437,-15.845702 15.844966,15.844966 0 0 0 -15.8437,-15.845703 z m 0,5.466797 a 10.379586,10.379586 0 0 1 10.3789,10.378906 10.379586,10.379586 0 0 1 -10.3789,10.378907 10.379586,10.379586 0 0 1 -10.3789,-10.378907 10.379586,10.379586 0 0 1 10.3789,-10.378906 z m -24.3359,63.687497 -122.9707,122.97071 c -15.3168,15.31678 -15.3168,39.98009 0,55.29687 l 30.1953,30.19532 h 9.7363 l -34.4277,-34.42774 c -12.9197,-12.91965 -12.9197,-33.72099 0,-46.64062 l 123.1445,-123.14454 a 62.649784,62.649784 0 0 1 -5.6777,-4.25 z m 77.1718,1.60352 a 62.649784,62.649784 0 0 1 -5.8203,3.91797 l 125.4317,125.42969 c 12.9196,12.91964 12.9196,33.72097 0,46.64062 l -30.8711,30.8711 h 9.9277 l 26.4473,-26.44727 c 15.3168,-15.31678 15.3168,-39.98008 0,-55.29687 z m -41.8125,6.41602 a 48.753502,48.753502 0 0 0 4.2989,0.30664 48.753502,48.753502 0 0 0 4.4218,-0.20899 48.753502,57.340417 0 0 1 -0.123,0.0176 v 124.82813 c 0,1.17006 -0.8,2.11132 -1.7949,2.11132 h -5.0079 c -0.9949,0 -1.7949,-0.94126 -1.7949,-2.11132 z m 22.8692,113.68359 v 7.03711 a 26.692411,14.323041 0 0 1 8.123,10.28516 26.692411,14.323041 0 0 1 -26.6933,14.32226 26.692411,14.323041 0 0 1 -26.6934,-14.32226 26.692411,14.323041 0 0 1 8.123,-10.25391 v -7.03711 a 33.874275,20.714506 0 0 0 -15.3046,17.29102 33.874275,20.714506 0 0 0 33.875,20.71484 33.874275,20.714506 0 0 0 33.875,-20.71484 33.874275,20.714506 0 0 0 -15.3047,-17.32227 z m -92.5957,38.03711 c -7.0094,0 -13.0405,4.6441 -18.0938,13.93555 -4.9717,9.20994 -8.763,20.62126 -11.3711,34.23242 -2.5266,13.61115 -3.789,26.69254 -3.789,39.24414 0,1.64842 0.013,3.17521 0.033,4.64648 -2.6835,3.10842 -4.9065,5.48959 -6.6348,7.08985 -2.2006,1.95609 -4.0764,2.93554 -5.625,2.93554 -0.9781,0 -1.7913,-0.36802 -2.4434,-1.10156 -0.5705,-0.73353 -0.8574,-1.71103 -0.8574,-2.93359 0,-3.66768 0.9379,-10.1876 2.8125,-19.56055 1.2226,-6.43881 1.834,-10.51498 1.834,-12.22656 0,-2.85264 -1.9965,-4.2793 -5.9902,-4.2793 -1.8746,0 -3.6674,0.16422 -5.3789,0.49024 -0.4076,-1.79309 -0.9379,-3.01594 -1.5899,-3.66797 -0.5705,-0.73354 -1.7518,-1.09961 -3.5449,-1.09961 -5.6238,0 -10.9624,1.79273 -16.0156,5.3789 -4.9717,3.50467 -8.9668,8.19032 -11.9824,14.0586 -2.8486,5.46614 -4.3344,11.26413 -4.4922,17.38476 -1.5962,1.56859 -3.0772,2.83446 -4.4316,3.76563 -2.5267,1.79308 -5.1346,2.68945 -7.8243,2.68945 -2.8526,0 -5.0945,-0.85482 -6.7246,-2.5664 -1.5485,-1.71159 -2.3222,-4.27997 -2.3222,-7.70313 0,-2.93414 0.4076,-6.43848 1.2226,-10.51367 l 7.4571,-34.96485 c 1.0595,-5.13474 1.5898,-9.49585 1.5898,-13.08203 0,-6.60181 -1.5493,-11.73662 -4.6465,-15.40429 -3.0156,-3.66768 -7.3748,-5.50196 -13.0801,-5.50196 -7.0908,0 -13.3673,2.44571 -18.8281,7.33594 -5.4608,4.89024 -10.2295,12.95949 -14.3047,24.20703 0.7336,-3.99369 1.1016,-7.33576 1.1016,-10.02539 0,-6.84633 -1.5493,-12.1434 -4.6465,-15.89258 -3.0156,-3.74918 -7.1729,-5.625 -12.4707,-5.625 -6.9278,0 -13.2855,2.64951 -19.0723,7.94727 -5.7867,5.21625 -11.0027,14.46681 -15.6484,27.75195 0.163,-0.73353 0.4084,-2.03752 0.7344,-3.91211 0.326,-1.87459 0.6921,-4.27875 1.0996,-7.21289 0.4075,-3.01564 0.6113,-5.62361 0.6113,-7.82422 0,-5.46076 -1.2228,-9.61806 -3.668,-12.4707 -2.3636,-2.85264 -5.7868,-4.2793 -10.2695,-4.2793 -4.8087,0 -9.617,1.5078 -14.4258,4.52344 -4.8087,2.93414 -9.1698,7.13299 -13.082,12.59375 -1.2226,1.71158 -2.1189,3.25897 -2.6895,4.64453 -0.489,1.30406 -0.7324,2.60805 -0.7324,3.91211 0,1.38557 0.4076,2.64996 1.2227,3.79102 0.8965,1.05955 1.9156,1.58984 3.0566,1.58984 1.3856,0 2.648,-0.77564 3.7891,-2.32422 3.5862,-4.72723 6.8471,-8.15043 9.7812,-10.26953 3.0157,-2.20061 5.5821,-3.30078 7.7012,-3.30078 2.6896,0 4.0352,1.83428 4.0352,5.50195 0,3.91219 -0.3681,8.80164 -1.1016,14.66992 -1.2226,9.37295 -2.8926,20.4578 -5.0117,33.25391 -1.2226,6.92783 -2.1189,12.38912 -2.6895,16.38281 -0.489,3.91219 -0.7344,7.13158 -0.7344,9.65821 0,3.74918 0.653,6.3156 1.9571,7.70117 1.304,1.30406 3.4629,1.95703 6.4785,1.95703 3.1786,0 5.2979,-0.81523 6.3574,-2.44531 1.1411,-1.63008 1.9978,-4.52299 2.5684,-8.67969 2.6896,-19.64244 6.0317,-35.20912 10.0254,-46.70117 4.0752,-11.57356 8.2305,-19.60322 12.4687,-24.08594 4.2382,-4.56422 8.354,-6.8457 12.3477,-6.8457 2.3636,0 4.1167,0.7341 5.2578,2.20117 1.2225,1.46707 1.834,3.74855 1.834,6.8457 0,5.70528 -1.8739,18.42059 -5.6231,38.14453 -1.3855,7.33536 -2.5273,13.7326 -3.4238,19.19336 -0.8965,5.37926 -1.3457,9.74037 -1.3457,13.08203 0,3.58618 0.6114,6.02993 1.834,7.33399 1.304,1.30406 3.3421,1.95703 6.1133,1.95703 3.1786,0 5.4601,-0.81523 6.8457,-2.44531 1.467,-1.71159 2.4861,-5.01211 3.0566,-9.90235 2.3636,-18.25687 5.4207,-33.0914 9.1699,-44.50195 3.8307,-11.41055 7.8238,-19.56094 11.9805,-24.45117 4.2382,-4.97174 8.2728,-7.45703 12.1035,-7.45703 2.0376,0 3.5869,0.7341 4.6465,2.20117 1.141,1.38557 1.7109,3.50478 1.7109,6.35742 0,1.63008 -0.1226,3.30014 -0.3672,5.01172 -0.2445,1.63008 -0.569,3.38322 -0.9765,5.25781 -0.4075,1.87459 -0.6944,3.17858 -0.8574,3.91211 l -4.8887,22.37305 c -1.9561,9.12844 -2.9356,16.09556 -2.9356,20.9043 0,6.92783 1.957,12.47025 5.8692,16.62695 3.9122,4.07519 9.3319,6.11328 16.2597,6.11328 4.5643,0 8.9254,-1.18131 13.0821,-3.54492 2.0571,-1.16973 4.1241,-2.68284 6.2011,-4.53125 0.5145,0.909 1.0861,1.77388 1.7442,2.57422 3.0156,3.66767 7.0503,5.50195 12.1035,5.50195 6.4388,0 11.7774,-3.4232 16.0156,-10.26953 1.141,3.17865 2.8131,5.70549 5.0137,7.58008 2.2821,1.79308 4.7674,2.68945 7.457,2.68945 3.5047,0 7.1317,-1.42666 10.8808,-4.2793 1.6778,-1.27657 3.3121,-2.69079 4.9083,-4.22851 0.4429,2.48103 1.0877,4.42226 1.9374,5.81836 1.2226,1.79308 3.0984,2.68945 5.625,2.68945 2.5267,0 4.359,-0.65297 5.5,-1.95703 1.2226,-1.38557 2.2832,-3.99354 3.1797,-7.82422 1.3041,-5.29776 3.0968,-10.43256 5.3789,-15.4043 2.2822,-5.05324 4.7279,-9.169 7.336,-12.34765 2.6896,-3.17866 5.1334,-4.76758 7.334,-4.76758 0.8965,0 1.6306,0.36607 2.2011,1.09961 0.6521,0.73353 0.9786,1.83566 0.9786,3.30273 0,2.52662 -0.7737,4.68543 -2.3223,6.47852 -1.5486,1.71158 -4.117,3.34205 -7.7031,4.89062 -3.2602,1.38557 -4.8907,3.66705 -4.8907,6.84571 0,5.94978 1.9154,10.71851 5.7461,14.30468 3.8307,3.58618 8.8844,5.37891 15.1602,5.37891 5.1347,0 9.577,-1.34553 13.3262,-4.03516 2.1766,-1.56153 4.339,-3.43563 6.4882,-5.60156 0.6962,0.94403 1.4661,1.8342 2.3145,2.66797 4.7272,4.64572 11.3698,6.96875 19.9277,6.96875 6.2758,0 12.1428,-1.54934 17.6035,-4.64649 2.3435,-1.30955 4.4482,-2.67242 6.3399,-4.08398 0.2688,1.4813 0.597,2.77551 0.9961,3.83984 1.304,3.26016 3.5044,4.89063 6.6015,4.89063 2.6082,0 4.484,-0.65297 5.625,-1.95703 1.1411,-1.30406 2.1582,-3.91203 3.0547,-7.82422 1.2226,-4.97174 2.8135,-9.69893 4.7696,-14.18164 1.9561,-4.48272 3.9111,-8.06818 5.8672,-10.75781 1.956,-2.77114 3.5054,-4.15625 4.6464,-4.15625 0.4076,0 0.734,0.16226 0.9786,0.48828 0.326,0.32601 0.4882,0.81476 0.4882,1.46679 0,0.48903 -0.081,1.38539 -0.2441,2.68946 -0.163,1.79308 -0.2441,3.46509 -0.2441,5.01367 0,2.77113 0.7736,4.97148 2.3222,6.60156 1.6301,1.63008 3.5851,2.44531 5.8672,2.44531 2.8526,0 5.4626,-1.01904 7.8262,-3.05664 2.3636,-2.03759 4.1959,-4.56443 5.5,-7.58007 0.489,-1.22256 0.7344,-2.36428 0.7344,-3.42383 0,-1.87459 -0.653,-3.42198 -1.9571,-4.64453 -1.2225,-1.30407 -2.7303,-1.95704 -4.5234,-1.95704 h -1.0996 c 0.8965,-4.3197 1.3457,-7.25415 1.3457,-8.80273 0,-2.60812 -0.653,-4.56312 -1.9571,-5.86719 -1.2225,-1.38556 -3.0152,-2.07812 -5.3789,-2.07812 -2.6081,0 -5.501,0.93595 -8.6796,2.81054 -3.1787,1.8746 -6.4396,5.01286 -9.7813,9.41407 -3.3417,4.40121 -6.3572,10.10785 -9.0469,17.11719 0.326,-3.58618 0.7337,-6.60372 1.2227,-9.04883 0.489,-2.44512 1.14,-5.29649 1.9551,-8.55664 1.2225,-4.56422 1.8339,-7.49868 1.8339,-8.80274 0,-1.14105 -0.3245,-1.91474 -0.9765,-2.32226 -0.6521,-0.40752 -1.7938,-0.61133 -3.4238,-0.61133 -3.0157,0 -5.3803,0.56988 -7.0918,1.71094 -1.6301,1.05955 -2.8114,2.77115 -3.545,5.13476 -2.7809,8.79377 -4.264,18.04348 -4.4804,27.73828 -2.763,2.74124 -5.8714,5.07203 -9.334,6.98242 -4.6457,2.52663 -8.803,3.78907 -12.4707,3.78907 -5.7053,0 -9.5757,-1.87387 -11.6133,-5.62305 9.6175,-2.36361 16.4223,-5.54146 20.416,-9.53516 4.0752,-4.07519 6.1133,-8.92505 6.1133,-14.54882 0,-4.80874 -1.4267,-8.59801 -4.2793,-11.36914 -2.8526,-2.85264 -6.6419,-4.2793 -11.3691,-4.2793 -5.2978,0 -10.0665,1.42666 -14.3047,4.2793 -4.1567,2.85263 -7.4177,6.72304 -9.7813,11.61328 -2.3636,4.80873 -3.5449,10.02466 -3.5449,15.64843 0,1.80385 0.1251,3.51762 0.3613,5.15039 -1.7651,1.89078 -3.3279,3.42147 -4.6406,4.50782 -2.3636,1.95609 -4.8074,2.93554 -7.334,2.93554 -2.3636,0 -4.4017,-0.65296 -6.1133,-1.95703 -1.63,-1.38556 -2.6075,-3.1783 -2.9336,-5.3789 5.5423,-2.93414 9.4543,-6.27621 11.7364,-10.02539 2.2821,-3.74918 3.4218,-7.86495 3.4218,-12.34766 0,-4.0752 -1.2624,-7.4984 -3.789,-10.26953 -2.4451,-2.77114 -5.7061,-4.15625 -9.7813,-4.15625 -4.4012,0 -9.1284,2.32302 -14.1816,6.96875 -5.0533,4.56422 -9.5351,11.93896 -13.4473,22.12695 0,-4.48271 0.1227,-8.84187 0.3672,-13.08008 10.84,-11.81806 18.6639,-22.12921 23.4727,-30.93164 4.8087,-8.88392 7.2129,-17.44193 7.2129,-25.67383 0,-5.13474 -1.1813,-9.29205 -3.545,-12.4707 -2.2821,-3.26016 -5.2977,-4.88867 -9.0468,-4.88867 z m -2.5684,12.10352 c 1.0596,0 1.8748,0.69255 2.4453,2.07812 0.5705,1.38557 0.8555,3.38211 0.8555,5.99023 0,5.70528 -1.6701,12.06293 -5.0117,19.07227 -3.2602,7.00934 -7.4175,13.48771 -12.4707,19.4375 1.0595,-8.3949 2.405,-16.13767 4.0351,-23.22852 1.7116,-7.17234 3.4628,-12.83744 5.2559,-16.99414 1.7931,-4.2382 3.4235,-6.35546 4.8906,-6.35546 z m 164.4356,44.5 c -4.8903,0 -8.1097,1.79273 -9.6583,5.3789 -1.793,4.2382 -3.6273,8.35397 -5.5019,12.34766 -1.8746,3.91219 -3.5051,7.05045 -4.8906,9.41406 -2.2821,3.58617 -5.6638,8.15109 -10.1465,13.69336 l -1.5899,1.95508 c -1.141,1.38556 -1.7109,2.89336 -1.7109,4.52344 0,1.38556 0.4076,2.56882 1.2227,3.54687 0.815,0.89654 1.8736,1.34375 3.1777,1.34375 1.6301,0 3.1794,-0.73215 4.6465,-2.19922 2.9341,-2.85264 5.6232,-5.86822 8.0683,-9.04687 2.5267,-3.17866 5.0535,-7.17369 7.5801,-11.98243 1.1411,1.30407 2.3639,2.8534 3.668,4.64649 1.304,1.71158 2.3627,3.50431 3.1777,5.37891 0.8966,1.87459 1.3853,3.87113 1.4668,5.99023 l -3.3008,-0.36719 c -1.3855,-0.24451 -2.6084,-0.36523 -3.6679,-0.36523 -3.0157,0 -5.2972,0.77369 -6.8457,2.32226 -1.5486,1.54858 -2.3223,3.38285 -2.3223,5.50196 0,2.44511 1.1002,4.64546 3.3008,6.60156 2.2821,1.95609 5.5411,2.93359 9.7793,2.93359 4.4827,0 8.3551,-1.38511 11.6152,-4.15625 2.752,-0.0822 5.2756,-0.37298 7.5723,-0.86914 -1.7902,4.01029 -3.3453,7.89035 -4.6387,11.62695 -3.6677,10.67702 -5.5019,20.00871 -5.5019,27.9961 0,5.62377 1.0605,10.02642 3.1796,13.20508 2.1191,3.17865 5.3801,4.76758 9.7813,4.76758 7.2538,-1e-5 12.7547,-5.29707 16.5039,-15.89258 3.7492,-10.51401 6.1533,-23.63693 7.2129,-39.36719 5.0532,-0.0815 9.9031,-1.63084 14.5488,-4.64649 2.6896,3.09715 6.194,4.64649 10.5137,4.64649 5.1347,0 9.6997,-1.38512 13.6933,-4.15625 1.7124,-1.1644 3.3708,-2.4743 4.9825,-3.91211 0.5134,0.90617 1.084,1.7683 1.7402,2.56641 3.0156,3.66767 7.0503,5.50195 12.1035,5.50195 6.4388,0 11.7774,-3.4232 16.0156,-10.26953 1.1411,3.17865 2.8131,5.70549 5.0137,7.58008 2.2821,1.79308 4.7674,2.68945 7.457,2.68945 3.5047,0 7.1317,-1.42666 10.8809,-4.2793 1.9312,-1.46942 3.8078,-3.11425 5.6309,-4.92969 0.6269,0.86968 1.3131,1.69914 2.0703,2.48438 4.4827,4.48272 10.7177,6.72461 18.7051,6.72461 4.9717,0 10.1065,-1.26244 15.4042,-3.78906 3.2155,-1.55899 6.1485,-3.50614 8.8106,-5.82227 0.6252,0.9303 1.312,1.81274 2.0703,2.64258 4.3197,4.64572 10.3924,6.96875 18.2168,6.96875 5.1348,0 9.5355,-0.9775 13.2031,-2.93359 3.7492,-1.9561 6.7648,-4.68674 9.0469,-8.19141 1.3856,-2.1191 2.0781,-4.64594 2.0781,-7.58008 0,-1.71158 -0.3245,-3.05711 -0.9765,-4.03515 -0.5706,-0.97805 -1.3858,-1.4668 -2.4453,-1.4668 -1.2226,0 -2.3228,0.61142 -3.3008,1.83398 -2.8527,3.66768 -5.3795,6.27565 -7.5801,7.82422 -2.1191,1.54858 -4.8497,2.32227 -8.1914,2.32227 -4.6457,0 -7.9463,-1.87387 -9.9024,-5.62305 9.699,-2.36361 16.5454,-5.54146 20.5391,-9.53516 4.0752,-4.07519 6.1113,-8.92505 6.1113,-14.54882 0,-4.80874 -1.4247,-8.59801 -4.2773,-11.36914 -2.8526,-2.85264 -6.6439,-4.2793 -11.3711,-4.2793 -5.2978,0 -10.0645,1.42666 -14.3027,4.2793 -4.1567,2.85263 -7.4177,6.72304 -9.7813,11.61328 -2.3636,4.80873 -3.5449,10.02466 -3.5449,15.64843 0,1.70216 0.1026,3.32676 0.2988,4.88086 -2.2321,2.08721 -4.4914,3.80993 -6.7793,5.14453 -3.8307,2.20061 -7.4161,3.30079 -10.7578,3.30079 -8.2319,0 -12.3476,-4.72719 -12.3476,-14.18165 0,-3.42316 0.4887,-6.56142 1.4668,-9.41406 0.978,-2.85263 2.282,-5.09258 3.9121,-6.72265 1.63,-1.71159 3.3832,-2.56836 5.2578,-2.56836 0.978,0 1.7102,0.28494 2.1992,0.85547 0.5705,0.57052 0.8555,1.38576 0.8555,2.44531 0,1.05955 -0.2019,2.20127 -0.6094,3.42383 -0.082,0.32601 -0.2042,0.85435 -0.3672,1.58789 -0.163,0.73353 -0.2441,1.3865 -0.2441,1.95703 0,1.30406 0.4472,2.3231 1.3437,3.05664 0.9781,0.73353 2.2425,1.09961 3.791,1.09961 2.4451,0 4.4001,-1.18131 5.8672,-3.54492 1.5486,-2.36362 2.3223,-5.25653 2.3223,-8.67969 0,-4.1567 -1.2625,-7.54031 -3.7891,-10.14844 -2.4451,-2.68963 -5.9098,-4.0332 -10.3926,-4.0332 -4.5642,0 -8.9233,1.34357 -13.08,4.0332 -4.1567,2.68963 -7.5404,6.52045 -10.1485,11.49219 -2.6081,4.97174 -3.9121,10.75951 -3.9121,17.36133 0,1.44112 0.086,2.82673 0.252,4.16015 -1.551,1.70617 -2.9037,3.09928 -4.0411,4.15235 -2.2006,1.95609 -4.0764,2.93554 -5.625,2.93554 -0.978,0 -1.7913,-0.36802 -2.4433,-1.10156 -0.5705,-0.73353 -0.8574,-1.71103 -0.8574,-2.93359 0,-3.66768 0.9379,-10.1876 2.8125,-19.56055 1.2225,-6.43881 1.834,-10.51498 1.834,-12.22656 0,-2.85264 -1.9966,-4.2793 -5.9903,-4.2793 -1.8746,0 -3.6673,0.16422 -5.3789,0.49024 -0.4075,-1.79309 -0.9378,-3.01594 -1.5898,-3.66797 -0.5706,-0.73354 -1.7519,-1.09961 -3.545,-1.09961 -5.6237,0 -10.9623,1.79273 -16.0156,5.3789 -4.9717,3.50467 -8.9668,8.19032 -11.9824,14.0586 -2.8774,5.52141 -4.3641,11.3811 -4.4961,17.57031 -1.7588,1.85861 -3.3302,3.36221 -4.6719,4.43555 -2.4451,1.95609 -5.0135,2.93554 -7.7031,2.93554 -1.141,0 -2.5677,-0.24535 -4.2793,-0.73437 2.4451,-3.34166 4.3605,-7.04981 5.7461,-11.125 1.3856,-4.0752 2.0781,-8.27209 2.0781,-12.5918 0,-5.94978 -1.4662,-10.76006 -4.4004,-14.42773 -2.8526,-3.66768 -6.5607,-5.5 -11.125,-5.5 -2.8526,0 -5.5417,0.73215 -8.0683,2.19922 -2.5266,1.38556 -5.095,3.70859 -7.7031,6.96875 -0.082,-0.97805 -0.1211,-2.48584 -0.1211,-4.52344 -0.082,-2.0376 -0.5307,-3.38313 -1.3457,-4.03516 -0.7336,-0.73353 -1.9564,-1.09961 -3.668,-1.09961 -2.9342,0 -5.3799,0.69256 -7.336,2.07813 -1.956,1.38556 -2.892,3.26138 -2.8105,5.625 0.163,4.64572 0.2441,12.91683 0.2441,24.8164 -0.6015,1.00476 -1.1691,1.99123 -1.746,2.98243 -4.1998,4.71171 -7.9424,7.73183 -11.2129,9 0.163,-1.46707 0.2441,-2.60879 0.2441,-3.42383 0,-2.85264 -0.6926,-5.46061 -2.0781,-7.82422 -1.3041,-2.44512 -3.261,-5.37957 -5.8692,-8.80273 -1.7931,-2.20061 -3.1366,-4.03489 -4.0332,-5.50196 -0.815,-1.46707 -1.2226,-2.81064 -1.2226,-4.0332 0,-2.0376 0.7341,-4.52484 2.2011,-7.45899 0.5706,-1.05955 1.0178,-2.11818 1.3438,-3.17773 0.326,-1.05955 0.4883,-1.83324 0.4883,-2.32227 0,-0.89654 -0.4472,-1.54951 -1.3438,-1.95703 -0.8965,-0.40752 -2.4854,-0.61133 -4.7675,-0.61132 z m -220.795,12.4707 -4.5234,22.49414 c -0.7335,3.50467 -1.9149,6.31644 -3.5449,8.43555 -1.6301,2.1191 -3.3417,3.17968 -5.1348,3.17968 -1.7931,0 -3.2197,-0.61142 -4.2792,-1.83398 -0.9781,-1.22256 -1.4668,-3.09643 -1.4668,-5.62305 0,-4.56422 0.8548,-8.88574 2.5663,-12.96094 1.7116,-4.07519 3.995,-7.33418 6.8477,-9.77929 2.9341,-2.52662 6.112,-3.83061 9.5351,-3.91211 z m 338.1602,0 -4.5235,22.49414 c -0.7335,3.50467 -1.9148,6.31644 -3.5449,8.43555 -1.6301,2.1191 -3.3417,3.17968 -5.1347,3.17968 -1.7931,0 -3.2198,-0.61142 -4.2793,-1.83398 -0.9781,-1.22256 -1.4668,-3.09643 -1.4668,-5.62305 0,-4.56422 0.8548,-8.88574 2.5664,-12.96094 1.7116,-4.07519 3.995,-7.33418 6.8476,-9.77929 2.9342,-2.52662 6.112,-3.83061 9.5352,-3.91211 z m -225.4395,0.85547 c 1.4671,0 2.6069,0.48875 3.4219,1.46679 0.8965,0.89655 1.3457,2.1194 1.3457,3.66797 0,3.01565 -1.3851,5.66516 -4.1562,7.94727 -2.7712,2.28211 -6.5624,3.99371 -11.3711,5.13476 v -0.24609 c 0,-4.97174 1.019,-9.20822 3.0566,-12.71289 2.1191,-3.50467 4.6875,-5.25781 7.7031,-5.25781 z m 318.9649,0 c 1.467,0 2.6088,0.48875 3.4238,1.46679 0.8965,0.89655 1.3438,2.1194 1.3438,3.66797 0,3.01565 -1.3852,5.66516 -4.1563,7.94727 -2.7711,2.28211 -6.5604,3.99371 -11.3691,5.13476 v -0.24609 c 0,-4.97174 1.019,-9.20822 3.0566,-12.71289 2.1191,-3.50467 4.6855,-5.25781 7.7012,-5.25781 z m -157.2207,0.12304 c 1.6301,0 2.934,0.65102 3.9121,1.95508 0.978,1.22256 1.4668,3.05684 1.4668,5.50195 0,4.1567 -0.7341,8.14979 -2.2012,11.98047 -1.4671,3.74918 -3.4636,6.92899 -5.9902,9.53711 -2.4451,2.52662 -5.1342,4.11555 -8.0684,4.76758 0.082,-2.0376 0.1231,-4.93051 0.1231,-8.67969 0,-6.92783 0.04,-12.18531 0.1211,-15.77148 4.1567,-6.1943 7.7025,-9.29102 10.6367,-9.29102 z m -25.918,38.63282 c -0.4075,14.26318 -1.3454,26.1613 -2.8125,35.69726 -1.4671,9.61746 -3.3013,14.42774 -5.502,14.42774 -0.815,0 -1.5075,-0.69256 -2.0781,-2.07813 -0.652,-1.38557 -0.9785,-3.38406 -0.9785,-5.99219 0,-5.05324 1.0191,-11.28822 3.0566,-18.70507 2.0376,-7.41686 4.8098,-15.19922 8.3145,-23.34961 z m -174.6836,13.38086 33.3164,33.3164 c 15.3168,15.31682 39.9782,15.31681 55.2949,0 l 33.3164,-33.3164 h -9.9277 l -27.8105,27.81054 c -12.9197,12.91966 -33.721,12.91966 -46.6407,0 l -27.8105,-27.81054 z" /></g></svg>
