<?xml version="1.0" standalone="no"?>
<!DOCTYPE svg PUBLIC "-//W3C//DTD SVG 20010904//EN"
 "http://www.w3.org/TR/2001/REC-SVG-20010904/DTD/svg10.dtd">
<svg version="1.0" xmlns="http://www.w3.org/2000/svg"
 width="641.000000pt" height="640.000000pt" viewBox="0 0 641.000000 640.000000"
 preserveAspectRatio="xMidYMid meet">

<g transform="translate(0.000000,640.000000) scale(0.100000,-0.100000)"
fill="#000000" stroke="none">
<path d="M0 3200 l0 -3200 3205 0 3205 0 0 3200 0 3200 -3205 0 -3205 0 0
-3200z m3245 1271 c59 -26 122 -86 153 -145 22 -43 27 -64 27 -131 0 -132 -60
-228 -176 -280 -53 -23 -71 -27 -138 -23 -93 4 -156 33 -212 96 -104 118 -104
289 -1 403 92 102 227 133 347 80z m506 -938 c391 -393 402 -407 415 -516 7
-58 7 -59 -17 -55 -21 3 -25 10 -30 53 -4 28 -14 66 -24 85 -9 19 -182 200
-383 402 -315 316 -364 369 -352 382 7 9 15 16 19 16 4 0 171 -165 372 -367z
m-893 338 c2 -7 -146 -164 -356 -375 -198 -198 -368 -377 -377 -396 -10 -19
-20 -56 -24 -84 -6 -52 -31 -80 -51 -60 -13 13 10 125 36 177 22 43 735 758
753 755 8 -2 16 -9 19 -17z m240 -364 l2 -347 25 0 25 0 0 350 c0 304 2 350
15 350 13 0 15 -47 15 -365 l0 -366 -57 3 -58 3 -3 349 c-1 193 0 356 3 364 3
7 11 12 18 10 9 -4 13 -85 15 -351z m-78 -274 c0 -4 -19 -24 -42 -44 -39 -33
-42 -39 -33 -65 25 -70 194 -102 298 -56 77 34 85 80 21 128 -19 15 -34 30
-34 35 0 20 41 7 74 -25 71 -66 33 -145 -86 -181 -98 -29 -209 -10 -273 46
-49 43 -49 89 1 135 32 31 74 46 74 27z m157 -287 c-6 -17 -107 -20 -107 -3 0
9 15 13 55 13 35 0 54 -4 52 -10z m286 -790 c9 -22 -160 -181 -223 -210 -81
-38 -183 -37 -265 3 -72 35 -199 158 -193 187 4 21 38 32 38 12 0 -7 17 -29
39 -49 28 -27 45 -36 63 -32 18 3 32 -4 56 -29 20 -19 28 -34 21 -37 -19 -6
60 -29 81 -24 12 3 20 0 20 -7 0 -16 69 -6 125 19 52 24 165 127 165 151 0 13
9 20 28 23 15 2 30 5 33 6 4 0 9 -5 12 -13z"/>
<path d="M3065 4461 c-180 -47 -266 -241 -179 -401 102 -188 376 -188 478 -1
74 137 22 307 -114 376 -53 27 -137 39 -185 26z m60 -127 c56 -60 16 -154 -65
-154 -56 0 -90 34 -90 90 0 56 34 90 90 90 31 0 47 -6 65 -26z"/>
<path d="M3017 4312 c-22 -24 -21 -65 1 -85 40 -36 102 -9 102 45 0 51 -69 78
-103 40z"/>
</g>
</svg>
